<svg xmlns:xlink="http://www.w3.org/1999/xlink" xmlns="http://www.w3.org/2000/svg" width="64" height="64">
<g fill="#e2001a">
	<path class="st0" d="M37.6,24.2h-7.7c-0.8,0-1.6,0.3-2.1,0.9c-0.5,0.5-0.9,1.3-0.9,2.2c0,0.8,0.3,1.6,0.9,2.2   c0.5,0.5,1.3,0.9,2.1,0.9h4.2c1.5,0,2.9,0.6,3.9,1.6c0,0,0,0,0.1,0.1c1,1,1.6,2.4,1.6,3.9c0,1.5-0.6,2.9-1.6,3.9   c-1,1-2.4,1.6-3.9,1.6h-0.9v3.8h-2.4v-3.8h-5.7v-2.4h9c0.9,0,1.7-0.4,2.3-0.9c0.6-0.6,0.9-1.4,0.9-2.3c0-0.9-0.3-1.6-0.9-2.2   l-0.1-0.1c-0.6-0.6-1.4-0.9-2.3-0.9h-4.2c-1.5,0-2.9-0.6-3.8-1.6c-1-1-1.6-2.3-1.6-3.8c0-1.5,0.6-2.8,1.6-3.8c1-1,2.3-1.6,3.8-1.6   h0.9v-3.8h2.4v3.8h4.4V24.2L37.6,24.2z M62.3,14.3l-4.4,11.1c-0.2,0.6-0.9,0.9-1.5,0.7l-11.1-4.4l0.9-2.2l8.8,3.4   c-1.7-4.4-4.5-8.1-8.1-10.9C42.6,8.9,37.4,7,31.8,7c-6.8,0-13,2.8-17.4,7.2c-4.5,4.5-7.2,10.6-7.2,17.4H4.7c0-7.5,3-14.2,7.9-19.1   c4.9-4.9,11.7-7.9,19.1-7.9c6.1,0,11.9,2.1,16.5,5.6c3.8,2.9,6.8,6.8,8.6,11.3l3.2-8.1L62.3,14.3L62.3,14.3z M1.4,49l4.4-11.1   C6,37.3,6.6,37,7.3,37.3l11.1,4.4l-0.9,2.2l-8.8-3.4c1.7,4.4,4.5,8.1,8.1,10.9c4.2,3.2,9.4,5.1,15,5.1c6.8,0,13-2.8,17.4-7.2   c4.5-4.5,7.2-10.6,7.2-17.4h2.4c0,7.5-3,14.2-7.9,19.1c-4.9,4.9-11.7,7.9-19.1,7.9c-6.1,0-11.9-2.1-16.5-5.6   c-3.8-2.9-6.8-6.8-8.6-11.3l-3.2,8.1L1.4,49L1.4,49z"/>
</g>
</svg>