<svg xmlns:xlink="http://www.w3.org/1999/xlink" xmlns="http://www.w3.org/2000/svg" width="64" height="64">
<g fill="#e2001a">
	<path d="M12.9,62.5L2.7,52.2l-0.9-1l0.9-0.9L9,44l1-1l1,1l1.2,1.2l1.3-2.1l0,0c1-1.6,1-3,1-4.7c0-1.9,0-4,1.1-7   c0.6-1.8,1.2-3.6,1.8-5.4c0.6-1.8,1.1-3.6,1.6-5.4c0.3-1,0.8-1.8,1.4-2.3c0.3-0.2,0.6-0.4,0.9-0.5V7c0-1.6,0.7-3.1,1.7-4.1   c1.1-1.1,2.5-1.7,4.1-1.7h20.7c1.6,0,3.1,0.7,4.1,1.7C53,3.9,53.7,5.4,53.7,7v3.5c0.5-0.2,1.1-0.3,1.6-0.3c1.1,0,2.1,0.4,3,1.3l0,0   c0.1,0.1,0.1,0.1,0.1,0.1c0.8,0.9,1.3,2,1.3,3.1c0,1.1-0.4,2.1-1.3,3l-1.1,1c0.3,0.2,0.6,0.3,0.8,0.6l0.1,0.1l0,0   c0.9,0.8,1.5,1.9,1.6,2.9c0.1,1.1-0.2,2.1-1,3.1c0,0,0,0-0.1,0.1l-1.2,1.4c0.3,0.2,0.5,0.3,0.8,0.6c0,0,0,0,0.1,0.1l0,0l0,0   c0.9,0.8,1.5,1.9,1.6,2.9c0.1,1.1-0.2,2.1-1,3.1c0,0,0,0-0.1,0.1l-1.3,1.5c0.2,0.1,0.5,0.3,0.7,0.5c0,0,0,0,0.1,0.1l0,0l0,0   c0.9,0.8,1.5,1.9,1.6,2.9c0.1,1.1-0.2,2.1-1,3.1c0,0,0,0-0.1,0.1l-2.6,3l0,0l0,0c-0.2,0.2-0.6,0.5-1,0.6c-0.3,0.1-0.7,0.2-1,0.2   c-0.1,0-0.1,0-0.2,0c-0.1,0-0.1,0-0.2,0v0.1c0,1.6-0.7,3.1-1.7,4.1c-1.1,1.1-2.5,1.7-4.1,1.7h-2.5c-1.8,2.7-4,4.7-6.6,6.1   c-2.6,1.3-5.6,1.9-9,1.8L27,61.9l-1,1l-1-1L10,46.9l-4.4,4.4l9.2,9.3L12.9,62.5L12.9,62.5z M51,12.6v-2.1H24v7.3   c0.2,0.1,0.3,0.2,0.5,0.2c0.8,0.5,1.5,1.3,2,2.5l0,0c0.3,0.8,0.6,1.7,0.8,2.7c0.2,0.9,0.2,1.8,0.2,2.7c-0.1,1.5-0.3,3-0.7,4.4   c-0.3,1.2-0.7,2.5-1.1,3.6c1.4,2.2,2.3,4.4,2.8,6.4h20.4c0-0.2,0-0.3,0-0.5c0.1-0.4,0.2-0.7,0.5-1c0,0,0,0,0.1-0.1l2.3-2.5   c-0.2-0.1-0.4-0.3-0.6-0.4l0,0c-0.4-0.3-0.8-0.7-1.2-1.1c-0.4-0.5-0.8-1.2-0.9-2c0,0,0,0,0,0l0,0c0-0.4,0-0.7,0-0.9   c0.1-0.4,0.2-0.7,0.5-1c0,0,0,0,0.1-0.1l2.2-2.5c-0.2-0.2-0.5-0.3-0.7-0.5l0,0c-0.4-0.3-0.8-0.7-1.2-1.1c-0.4-0.5-0.8-1.2-0.9-2   c0,0,0,0,0,0l0,0c0-0.4,0-0.7,0-0.9c0.1-0.4,0.2-0.7,0.5-1c0,0,0,0,0.1-0.1l1.9-2.2c-0.4-0.3-0.8-0.6-1.1-0.9   c-0.4-0.4-0.8-0.8-1.1-1.3c-0.4-0.6-0.6-1.2-0.7-2.1c0-0.4,0-0.7,0.1-0.9c0.1-0.4,0.3-0.7,0.6-1c0,0,0,0,0.1-0.1L51,12.6L51,12.6z    M50,43.2H29c0,0.1,0,0.3,0,0.4c0.2,1.7,0.1,3.3-0.1,5h18.9c0.9,0,1.6-0.4,2.2-0.9c0.6-0.6,0.9-1.4,0.9-2.2v-1.3l0,0l0,0   C50.6,43.8,50.3,43.5,50,43.2L50,43.2z M57,14.6c0-0.4-0.2-0.9-0.6-1.3c0,0,0,0,0,0l0,0l0,0c-0.3-0.3-0.7-0.5-1-0.5   c-0.4,0-0.8,0.2-1.1,0.5c0,0,0,0,0,0l0,0l0,0l-3,2.8c0,0,0,0,0,0.1c0,0.2,0.1,0.5,0.2,0.7c0.2,0.3,0.4,0.5,0.7,0.8   c0.3,0.2,0.5,0.5,0.7,0.6c0.2,0.1,0.4,0.2,0.6,0.2l0.1,0c0,0,0,0,0,0l0,0l3-2.8C56.8,15.3,57,15,57,14.6L57,14.6z M53.4,18.6   l0.1-0.1l0,0C53.5,18.5,53.4,18.5,53.4,18.6L53.4,18.6L53.4,18.6z M57,22.4c0-0.4-0.3-0.8-0.7-1.2l0,0l0,0c0,0,0,0,0,0   c-0.3-0.3-0.7-0.4-1.1-0.4c-0.4,0-0.8,0.2-1.1,0.6c0,0,0,0,0,0l-2.5,2.9c0,0,0,0.1,0,0.1l0,0c0,0.2,0.2,0.4,0.3,0.6   c0.2,0.3,0.5,0.5,0.8,0.7l0,0l0,0c0.3,0.2,0.5,0.4,0.8,0.5c0.2,0.1,0.3,0.1,0.5,0.2c0,0,0,0,0.1,0c0,0,0.1,0,0.1,0   c0,0-0.1,0.1-0.1,0.1l0,0l0.1-0.1l0,0l0,0l2.5-2.8c0,0,0-0.1,0.1-0.1C57,23.1,57.1,22.8,57,22.4L57,22.4z M57.1,30.6   c0-0.4-0.3-0.8-0.7-1.2l0,0c0,0,0,0,0,0c-0.3-0.3-0.7-0.4-1.1-0.4c-0.4,0-0.8,0.2-1.1,0.6l0,0l0,0c0,0,0,0,0,0l0,0l0,0l-2.5,2.9   c0,0,0,0.1,0,0.1l0,0c0,0.2,0.2,0.4,0.3,0.6c0.2,0.3,0.5,0.5,0.8,0.7l0,0l0,0c0.3,0.2,0.5,0.4,0.8,0.5c0.2,0.1,0.3,0.1,0.5,0.2   c0,0,0,0,0.1,0c0,0,0.1,0,0.1,0c0,0,0,0-0.1,0.1l0,0l0.1-0.1l0,0l0,0l2.5-2.8c0,0,0-0.1,0.1-0.1C57.1,31.2,57.2,30.9,57.1,30.6   L57.1,30.6z M57.1,38.7c0-0.4-0.3-0.8-0.7-1.2l0,0c0,0,0,0,0,0C56,37.1,55.6,37,55.2,37c-0.4,0-0.8,0.2-1.1,0.6l0,0l0,0   c0,0,0,0,0,0l0,0l0,0l-2.5,2.9c0,0,0,0.1,0,0.1l0,0c0,0.2,0.2,0.4,0.3,0.6c0.2,0.3,0.5,0.5,0.8,0.7l0,0l0,0   c0.3,0.2,0.5,0.4,0.8,0.5c0.2,0.1,0.3,0.1,0.5,0.2c0,0,0,0,0.1,0c0,0,0.1,0,0.1,0c0,0-0.1,0.1-0.1,0.1l0,0l0.1-0.1l0,0l0,0l2.5-2.8   c0,0,0-0.1,0.1-0.1C57,39.4,57.1,39,57.1,38.7L57.1,38.7z M56.3,37.4L56.3,37.4C56.3,37.4,56.3,37.4,56.3,37.4L56.3,37.4z    M28.5,51.2c-0.1,0.6-0.3,1.2-0.5,1.7l-2.6-0.8c0.9-2.7,1.3-5.5,1-8.3C26.1,41,25.1,38,23,34.9l-0.4-0.6l0.2-0.6   c0.5-1.3,0.9-2.6,1.2-4c0.3-1.3,0.5-2.7,0.6-3.9c0-0.6,0-1.4-0.1-2.1c-0.1-0.7-0.3-1.5-0.6-2.1v0c-0.2-0.6-0.5-1-0.9-1.2   c-0.2-0.1-0.4-0.2-0.5-0.1c-0.1,0-0.3,0.1-0.4,0.2c-0.2,0.2-0.4,0.5-0.5,0.9c-0.5,1.9-1,3.8-1.6,5.6c-0.6,1.9-1.2,3.7-1.9,5.4   c-0.9,2.5-0.9,4.5-0.9,6.1c0,2.1,0,3.9-1.4,6.1l0,0l-1.7,2.6L26,59.1l2.3-2.3l0.4-0.4l0.6,0c3.1,0.2,5.9-0.3,8.2-1.5   c1.7-0.9,3.2-2.1,4.5-3.7H28.5L28.5,51.2z M24,7v0.9h27V7c0-0.9-0.4-1.6-0.9-2.2c-0.6-0.6-1.4-0.9-2.2-0.9H27.1   c-0.9,0-1.6,0.4-2.2,0.9C24.4,5.3,24,6.1,24,7L24,7z M46.4,21c-2.5-2.5-5.7-3.7-8.9-3.7c-3.2,0-6.4,1.2-8.9,3.7l-1.9-1.9   c3-3,6.9-4.5,10.8-4.5s7.8,1.5,10.8,4.5L46.4,21L46.4,21z M43,24.4c-1.5-1.5-3.5-2.3-5.5-2.3c-2,0-4,0.8-5.5,2.3l-1.9-1.9   c2.1-2,4.7-3.1,7.4-3.1c2.7,0,5.4,1,7.4,3.1L43,24.4L43,24.4z M39.6,27.7c-0.6-0.6-1.4-0.9-2.1-0.9c-0.8,0-1.5,0.3-2.1,0.9   l-1.9-1.9c1.1-1.1,2.6-1.7,4-1.7c1.5,0,2.9,0.6,4,1.7L39.6,27.7L39.6,27.7z M34.1,44.5h6.7v2.7h-6.7V44.5L34.1,44.5z M10.3,53.5   l-1.3-1.3l1.9-1.9l1.3,1.3L10.3,53.5L10.3,53.5z"/>
</g>
</svg>