<svg xmlns:xlink="http://www.w3.org/1999/xlink" xmlns="http://www.w3.org/2000/svg" width="64" height="64">
<g fill="#e2001a">
<path d="M37.518 57.116c-.258 0-.517-.08-.737-.239a1.26 1.26 0 0 1-.474-1.345l2.889-10.67a1.26 1.26 0 0 1 1.541-.885c.67.182 1.064.872.885 1.541l-2.027 7.485 6.49-4.241a1.259 1.259 0 0 1 1.374 0l6.489 4.241-2.026-7.484a1.256 1.256 0 0 1 .425-1.308l6.039-4.86-7.742-.385a1.255 1.255 0 0 1-1.111-.809l-2.541-6.671a1.257 1.257 0 0 1 2.348-.895l2.249 5.905 10.219.509a1.256 1.256 0 0 1 .726 2.233l-7.97 6.415 2.676 9.877a1.257 1.257 0 1 1-1.901 1.381l-8.565-5.596-8.564 5.596a1.275 1.275 0 0 1-.692.205zm-8.187 3.03c-.238 0-.478-.068-.687-.205l-9.655-6.307-9.653 6.307a1.258 1.258 0 1 1-1.902-1.379l3.017-11.131-8.981-7.232a1.255 1.255 0 0 1 .726-2.232l11.518-.572 1.646-4.32a1.26 1.26 0 0 1 1.621-.728c.647.247.973.973.727 1.622l-1.937 5.087a1.257 1.257 0 0 1-1.111.808l-9.042.449 7.05 5.678c.389.312.555.824.425 1.307l-2.367 8.738 7.58-4.952a1.257 1.257 0 0 1 1.373 0l7.58 4.952-2.367-8.738c-.13-.482.036-.995.425-1.307l4.524-3.644a1.254 1.254 0 0 1 1.766.19 1.256 1.256 0 0 1-.189 1.767l-3.886 3.128 3.016 11.131a1.256 1.256 0 0 1-1.217 1.583z"/>
<path d="M44.858 41.544c-.239 0-.479-.067-.688-.204l-10.744-7.02-10.745 7.02a1.255 1.255 0 0 1-1.899-1.381l3.355-12.386-9.993-8.048a1.258 1.258 0 0 1 .726-2.234l12.817-.636L32.25 4.662a1.258 1.258 0 0 1 2.35 0l4.564 11.993 12.816.636a1.258 1.258 0 0 1 .726 2.234l-9.992 8.048 3.355 12.386a1.257 1.257 0 0 1-1.211 1.585zM18.292 19.638l8.062 6.493c.389.313.555.826.426 1.307l-2.708 9.994 8.669-5.664a1.255 1.255 0 0 1 1.374 0l8.668 5.664-2.707-9.994c-.13-.481.037-.994.427-1.307l8.062-6.493-10.342-.513a1.255 1.255 0 0 1-1.112-.808l-3.683-9.675-3.682 9.675a1.257 1.257 0 0 1-1.112.808l-10.342.513z"/>
</g>
</svg>