<svg xmlns:xlink="http://www.w3.org/1999/xlink" xmlns="http://www.w3.org/2000/svg" width="64" height="64">
<g fill="#e2001a">
	<path class="st0" d="M33.4,61.8H13.6c-0.7,0-1.2-0.6-1.2-1.2v-4.7H5.1c-0.7,0-1.2-0.6-1.2-1.2V2.7c0-0.7,0.6-1.2,1.2-1.2h38.8   c0.7,0,1.2,0.6,1.2,1.2V9l8.1,8.1c0.2,0.2,0.4,0.6,0.4,0.9h0v13.2h-2.5v-12h-8.6c-0.7,0-1.2-0.6-1.2-1.2V9.4H14.9v49.9h18.5V61.8   L33.4,61.8z M37.1,17.7h-5.7c-0.5,0-1,0.2-1.3,0.6l0,0c-0.3,0.3-0.5,0.8-0.5,1.3c0,0.5,0.2,1,0.6,1.3l0,0c0.3,0.3,0.8,0.6,1.3,0.6   h3.1c1.2,0,2.4,0.5,3.2,1.3c0.8,0.8,1.3,1.9,1.3,3.2c0,1.2-0.5,2.3-1.3,3.2l0,0l0,0l0,0c-0.8,0.8-1.9,1.3-3.2,1.3h-0.3v2.4h-2.5   v-2.4h-3.9V28h6.6c0.6,0,1.1-0.2,1.4-0.6l0,0c0.4-0.4,0.6-0.9,0.6-1.4c0-0.6-0.2-1.1-0.6-1.4c-0.4-0.4-0.9-0.6-1.4-0.6h-3.1   c-1.2,0-2.3-0.5-3.1-1.3l0,0l0,0c-0.8-0.8-1.3-1.9-1.3-3.1c0-1.2,0.5-2.2,1.2-3c0,0,0-0.1,0.1-0.1c0.8-0.8,1.9-1.3,3.1-1.3h0.3   v-2.4h2.5v2.4h2.9V17.7L37.1,17.7z M32,55.8c-0.4-0.2-0.8-0.5-1-1l0,0l0,0l-1.8-4.3c-0.2-0.4-0.2-0.8-0.1-1.2c0-0.1,0-0.1,0-0.2   c0.2-0.4,0.5-0.8,0.9-1l1.3-0.6c0-0.2,0-0.5,0-0.7c0-0.2,0-0.5,0-0.7l-1.2-0.6c0,0-0.1,0-0.1,0c-0.4-0.2-0.8-0.6-0.9-1l0,0   c-0.2-0.4-0.2-0.9,0-1.4l1.7-4.2l0-0.1c0.2-0.5,0.5-0.8,1-1c0.4-0.2,0.9-0.2,1.4-0.1l1.3,0.4c0.2-0.2,0.3-0.3,0.5-0.5   c0.2-0.2,0.3-0.3,0.5-0.5l-0.4-1.3c-0.2-0.5-0.1-1,0.1-1.4c0.2-0.4,0.5-0.8,1-1l4.2-1.7l0.1,0c0.5-0.2,1-0.2,1.4,0   c0.4,0.2,0.8,0.5,1,0.9l0.6,1.3c0.2,0,0.5,0,0.7,0c0.2,0,0.5,0,0.7,0l0.6-1.2c0,0,0-0.1,0-0.1c0.2-0.4,0.6-0.8,1-0.9   c0.4-0.2,0.9-0.2,1.4,0l0,0l4.3,1.8c0.5,0.2,0.8,0.5,1,1c0.2,0.4,0.2,0.9,0.1,1.4l0,0l-0.4,1.3c0.2,0.2,0.3,0.3,0.5,0.5   c0.2,0.2,0.3,0.3,0.5,0.5l1.3-0.4c0.5-0.2,1-0.1,1.4,0.1c0.4,0.2,0.8,0.5,1,1l1.8,4.3c0,0.1,0.1,0.2,0.1,0.3c0,0,0,0.1,0,0.1   c0,0.1,0,0.2,0,0.2v0.1h0l0,0.1c0,0.3-0.1,0.7-0.3,0.9l0,0l0,0c-0.2,0.3-0.4,0.5-0.7,0.7L57.5,46c0,0.2,0,0.5,0,0.7h0   c0,0.2,0,0.5,0,0.7l1.2,0.6l0.1,0c0.3,0.1,0.5,0.3,0.7,0.5c0,0,0.1,0.1,0.1,0.1c0.2,0.2,0.3,0.5,0.3,0.8c0,0.1,0,0.1,0,0.2v0.1h0   l0,0.1c0,0.1,0,0.1,0,0.2c0,0,0,0.1,0,0.1c0,0.1-0.1,0.2-0.1,0.3l-1.7,4.2l0,0.1c-0.2,0.5-0.5,0.8-1,1C56.5,56,56,56,55.5,55.9l0,0   l0,0l-1.3-0.4c-0.2,0.2-0.3,0.3-0.5,0.5c-0.2,0.2-0.3,0.3-0.5,0.5l0.4,1.3l0,0.1c0.2,0.5,0.1,1-0.1,1.4c-0.2,0.4-0.5,0.8-1,1l0,0   l0,0l-4.2,1.7l-0.1,0c-0.5,0.2-1,0.2-1.4,0c-0.4-0.2-0.8-0.5-1-0.9l-0.6-1.3c-0.2,0-0.5,0-0.7,0c-0.2,0-0.5,0-0.7,0L43.1,61   c-0.2,0.4-0.6,0.8-1,0.9l0,0c-0.4,0.2-0.9,0.2-1.4,0l0,0l-4.2-1.7l-0.1,0c-0.5-0.2-0.8-0.5-1-1c-0.2-0.4-0.2-0.9-0.1-1.4l0.4-1.3   c-0.2-0.2-0.4-0.3-0.5-0.5c-0.2-0.2-0.3-0.3-0.5-0.5l-1.3,0.4C33,56,32.5,56,32,55.8L32,55.8z M33.2,53.4l1.6-0.5   c0.5-0.2,1,0,1.4,0.4l0,0c0.3,0.4,0.6,0.7,0.9,1c0.3,0.3,0.6,0.6,1,0.9c0.4,0.3,0.6,0.9,0.4,1.4l-0.5,1.6l3.3,1.4l0.8-1.6   c0.2-0.5,0.7-0.7,1.3-0.7l0,0c0.5,0.1,0.9,0.1,1.3,0.1c0.4,0,0.8,0,1.3-0.1c0.6-0.1,1.1,0.3,1.3,0.8l0.7,1.4l3.3-1.4l-0.5-1.6   c-0.2-0.5,0-1,0.4-1.4l0,0c0.3-0.3,0.7-0.5,1-0.9c0.3-0.3,0.6-0.6,0.9-1c0.4-0.5,1-0.6,1.5-0.4l1.5,0.5l1.4-3.3l-1.6-0.8   c-0.5-0.2-0.7-0.7-0.7-1.3l0,0c0.1-0.4,0.1-0.9,0.1-1.3h0c0-0.4,0-0.8-0.1-1.3c-0.1-0.6,0.3-1.1,0.8-1.3l1.4-0.7l-1.4-3.3l-1.6,0.5   c-0.5,0.2-1,0-1.4-0.4l0,0c-0.3-0.3-0.5-0.7-0.9-1c-0.3-0.3-0.6-0.6-1-0.9c-0.5-0.4-0.6-1-0.4-1.5l0.5-1.5l-3.3-1.4L47,35.6   c-0.2,0.5-0.7,0.7-1.3,0.7l0,0c-0.5-0.1-0.9-0.1-1.3-0.1c-0.4,0-0.8,0-1.3,0.1c-0.6,0.1-1.1-0.3-1.3-0.8l-0.7-1.4l-3.3,1.4l0.5,1.6   c0.2,0.5,0,1-0.4,1.4l0,0c-0.3,0.3-0.7,0.5-1,0.9c-0.3,0.3-0.6,0.6-0.9,1c-0.4,0.5-1,0.6-1.5,0.4l-1.5-0.5l-1.4,3.3l1.6,0.8   c0.5,0.2,0.7,0.7,0.7,1.3l0,0c-0.1,0.5-0.1,0.9-0.1,1.3c0,0.4,0,0.8,0.1,1.3c0.1,0.6-0.3,1.1-0.8,1.3l-1.4,0.7L33.2,53.4L33.2,53.4   z M59.7,50.1c0,0,0,0.1,0,0.1L59.7,50.1L59.7,50.1z M59.7,43.4c0,0.1,0,0.1,0,0.2L59.7,43.4L59.7,43.4z M20.2,49.1h7.7v2.5h-7.7   V49.1L20.2,49.1z M20.2,42.9h7.2v2.5h-7.2V42.9L20.2,42.9z M20.2,36.7h9.7v2.5h-9.7V36.7L20.2,36.7z M12.4,53.4V8.2   c0-0.7,0.6-1.2,1.2-1.2h29l0.1,0V4H6.4v49.5H12.4L12.4,53.4z M49.4,16.8l-5.6-5.6v5.6H49.4L49.4,16.8z"/>
</g>
</svg>