<svg xmlns:xlink="http://www.w3.org/1999/xlink" xmlns="http://www.w3.org/2000/svg" width="64" height="64">
<g fill="#e2001a">
	<path class="st0" d="M15.5,55.9H8.3c-0.7,0-1.2-0.6-1.2-1.2V2.7c0-0.7,0.6-1.2,1.2-1.2H47c0.7,0,1.2,0.6,1.2,1.2V9l8.1,8.1   c0.2,0.2,0.4,0.6,0.4,0.9h0v42.6c0,0.7-0.6,1.2-1.2,1.2H16.7c-0.7,0-1.2-0.6-1.2-1.2V55.9L15.5,55.9z M40.2,17.7h-5.7   c-0.5,0-1,0.2-1.3,0.6l0,0c-0.3,0.3-0.5,0.8-0.5,1.3c0,0.5,0.2,1,0.6,1.3l0,0c0.3,0.3,0.8,0.6,1.3,0.6h3.1c1.2,0,2.4,0.5,3.2,1.3   c0.8,0.8,1.3,1.9,1.3,3.2c0,1.2-0.5,2.3-1.3,3.2l0,0l0,0l0,0c-0.8,0.8-1.9,1.3-3.2,1.3h-0.3v2.4h-2.5v-2.4H31V28h6.6   c0.6,0,1.1-0.2,1.4-0.6l0,0c0.4-0.4,0.6-0.9,0.6-1.4c0-0.6-0.2-1.1-0.6-1.4c-0.4-0.4-0.9-0.6-1.4-0.6h-3.1c-1.2,0-2.3-0.5-3.1-1.3   l0,0l0,0c-0.8-0.8-1.3-1.9-1.3-3.1c0-1.2,0.5-2.2,1.2-3c0,0,0-0.1,0.1-0.1c0.8-0.8,1.9-1.3,3.1-1.3h0.3v-2.4h2.5v2.4h2.9V17.7   L40.2,17.7z M44.9,49.1H49v2.5h-4.1V49.1L44.9,49.1z M23.3,49.1h17.5v2.5H23.3V49.1L23.3,49.1z M44.9,42.9H49v2.5h-4.1V42.9   L44.9,42.9z M23.3,42.9h17.5v2.5H23.3V42.9L23.3,42.9z M44.9,36.7H49v2.5h-4.1V36.7L44.9,36.7z M23.3,36.7h17.5v2.5H23.3V36.7   L23.3,36.7z M54.3,19.2h-8.6c-0.7,0-1.2-0.6-1.2-1.2V9.4H18v49.9h36.3V19.2L54.3,19.2z M47,11.2v5.6h5.6L47,11.2L47,11.2z M45.8,7   V4H9.5v49.5h6V8.2c0-0.7,0.6-1.2,1.2-1.2L45.8,7L45.8,7L45.8,7z"/>
</g>
</svg>