<svg xmlns:xlink="http://www.w3.org/1999/xlink" xmlns="http://www.w3.org/2000/svg" width="64" height="64"><path d="M43.25 55.125H34.5c-.69 0-1.25-.56-1.25-1.25v-37.5c0-.69.56-1.25 1.25-1.25h8.75c.69 0 1.25.56 1.25 1.25v37.5c0 .69-.56 1.25-1.25 1.25zm-7.5-2.5H42v-35h-6.25v35zm-20 2.5H7c-.69 0-1.25-.56-1.25-1.25V5.125c0-.69.56-1.25 1.25-1.25h8.75c.69 0 1.25.56 1.25 1.25v48.75c0 .69-.56 1.25-1.25 1.25zm-7.5-2.5h6.25V6.375H8.25v46.25zm21.25 2.5h-8.75c-.69 0-1.25-.56-1.25-1.25v-26.25c0-.69.56-1.25 1.25-1.25h8.75c.69 0 1.25.56 1.25 1.25v26.25c0 .69-.56 1.25-1.25 1.25zm-7.5-2.5h6.25v-23.75H22v23.75zm35 2.5h-8.75c-.69 0-1.25-.56-1.25-1.25v-21.25c0-.69.56-1.25 1.25-1.25H57c.69 0 1.25.56 1.25 1.25v21.25c0 .69-.56 1.25-1.25 1.25zm-7.5-2.5h6.25v-18.75H49.5v18.75zm-47.5 5h60v2.5H2z" fill="#FFF"/></svg>