<svg xmlns:xlink="http://www.w3.org/1999/xlink" xmlns="http://www.w3.org/2000/svg" width="64" height="64"><g fill="#ED1C24"><path d="M47.273 22.182H27.637c-1.855 0-3.273 1.418-3.273 3.273v13.09c0 1.855 1.418 3.273 3.273 3.273h19.637c1.854 0 3.271-1.418 3.271-3.273v-13.09c0-1.855-1.418-3.273-3.272-3.273zm1.09 16.363c0 .655-.436 1.092-1.09 1.092H27.637c-.654 0-1.092-.438-1.092-1.092v-8.636h21.818v8.636zm0-12H26.545v-1.091c0-.655.438-1.091 1.092-1.091h19.637c.654 0 1.09.437 1.09 1.091v1.091z"/><path d="M29.818 37.455h4.363c.654 0 1.092-.438 1.092-1.092s-.438-1.091-1.092-1.091h-4.363c-.654 0-1.092.437-1.092 1.091s.438 1.092 1.092 1.092z"/><circle cx="27.637" cy="50.546" r="1.091"/><circle cx="22.182" cy="13.455" r="1.091"/><path d="M29.818 12.364h-4.363c-.654 0-1.092.436-1.092 1.091 0 .654.438 1.091 1.092 1.091h4.363c.654 0 1.09-.437 1.09-1.091 0-.655-.435-1.091-1.09-1.091z"/><path d="M40.727 42.909c-.654 0-1.09.437-1.09 1.091v2.182h-24V18.909h24c0 .654.436 1.091 1.09 1.091s1.092-.437 1.092-1.091v-5.455c0-3.055-2.4-5.455-5.455-5.455H18.908c-3.053 0-5.453 2.4-5.453 5.455v4.364c0 .066.023.12.031.182-.008.062-.031.115-.031.182v32.363c0 3.055 2.4 5.455 5.453 5.455h17.455c3.055 0 5.455-2.4 5.455-5.455V44c0-.654-.437-1.091-1.091-1.091zm-25.09-29.454c0-1.854 1.418-3.273 3.271-3.273h17.455c1.855 0 3.273 1.418 3.273 3.273v3.272h-24v-3.272zm24 37.09c0 1.855-1.418 3.273-3.273 3.273H18.908c-1.854 0-3.271-1.418-3.271-3.273v-2.182h24v2.182z"/></g></svg>