<svg xmlns="http://www.w3.org/2000/svg" xmlns:xlink="http://www.w3.org/1999/xlink" width="150" zoomAndPan="magnify" viewBox="0 0 112.5 112.499997" height="150" preserveAspectRatio="xMidYMid meet" version="1.0"><defs><clipPath id="093893adfa"><path d="M 0 0 L 112.003906 0 L 112.003906 112.003906 L 0 112.003906 Z M 0 0 " clip-rule="nonzero"/></clipPath><clipPath id="0c650f30e6"><path d="M 12 4.339844 L 50 4.339844 L 50 41 L 12 41 Z M 12 4.339844 " clip-rule="nonzero"/></clipPath><clipPath id="d0d429522a"><path d="M 5 45 L 102 45 L 102 107.382812 L 5 107.382812 Z M 5 45 " clip-rule="nonzero"/></clipPath></defs><g clip-path="url(#093893adfa)"><path fill="#ffffff" d="M 0 0 L 112.003906 0 L 112.003906 112.003906 L 0 112.003906 Z M 0 0 " fill-opacity="1" fill-rule="nonzero"/><path fill="#ffffff" d="M 0 0 L 112.003906 0 L 112.003906 112.003906 L 0 112.003906 Z M 0 0 " fill-opacity="1" fill-rule="nonzero"/></g><g clip-path="url(#0c650f30e6)"><path fill="#b1b1b1" d="M 49.644531 22.265625 C 49.644531 22.855469 49.617188 23.4375 49.554688 24.023438 C 49.496094 24.609375 49.410156 25.1875 49.289062 25.765625 C 49.171875 26.339844 49.027344 26.910156 48.851562 27.46875 C 48.675781 28.03125 48.472656 28.585938 48.238281 29.125 C 48.007812 29.667969 47.75 30.199219 47.464844 30.71875 C 47.179688 31.234375 46.867188 31.738281 46.53125 32.226562 C 46.195312 32.714844 45.835938 33.183594 45.453125 33.640625 C 45.070312 34.09375 44.664062 34.527344 44.234375 34.941406 C 43.808594 35.359375 43.359375 35.75 42.894531 36.125 C 42.425781 36.496094 41.941406 36.847656 41.4375 37.171875 C 40.933594 37.5 40.414062 37.800781 39.882812 38.078125 C 39.347656 38.351562 38.800781 38.605469 38.242188 38.828125 C 37.683594 39.054688 37.117188 39.25 36.535156 39.421875 C 35.957031 39.589844 35.371094 39.734375 34.777344 39.847656 C 34.1875 39.964844 33.589844 40.050781 32.984375 40.105469 C 32.382812 40.164062 31.78125 40.191406 31.175781 40.191406 C 30.570312 40.191406 29.96875 40.164062 29.363281 40.105469 C 28.761719 40.050781 28.164062 39.964844 27.574219 39.847656 C 26.980469 39.734375 26.394531 39.589844 25.8125 39.421875 C 25.234375 39.25 24.667969 39.054688 24.109375 38.828125 C 23.546875 38.605469 23.003906 38.351562 22.46875 38.078125 C 21.933594 37.800781 21.417969 37.5 20.914062 37.171875 C 20.410156 36.847656 19.925781 36.496094 19.457031 36.125 C 18.992188 35.75 18.542969 35.359375 18.117188 34.941406 C 17.6875 34.527344 17.28125 34.09375 16.898438 33.640625 C 16.515625 33.183594 16.15625 32.714844 15.820312 32.226562 C 15.484375 31.738281 15.171875 31.234375 14.886719 30.71875 C 14.601562 30.199219 14.34375 29.667969 14.113281 29.125 C 13.878906 28.585938 13.675781 28.03125 13.5 27.46875 C 13.324219 26.910156 13.179688 26.339844 13.0625 25.765625 C 12.941406 25.1875 12.855469 24.609375 12.792969 24.023438 C 12.734375 23.4375 12.707031 22.855469 12.707031 22.265625 C 12.707031 21.679688 12.734375 21.09375 12.792969 20.507812 C 12.855469 19.925781 12.941406 19.34375 13.0625 18.769531 C 13.179688 18.195312 13.324219 17.625 13.5 17.0625 C 13.675781 16.5 13.878906 15.949219 14.113281 15.40625 C 14.34375 14.863281 14.601562 14.332031 14.886719 13.816406 C 15.171875 13.296875 15.484375 12.796875 15.820312 12.308594 C 16.15625 11.820312 16.515625 11.347656 16.898438 10.894531 C 17.28125 10.441406 17.6875 10.003906 18.117188 9.589844 C 18.542969 9.175781 18.992188 8.78125 19.457031 8.410156 C 19.925781 8.035156 20.410156 7.6875 20.914062 7.359375 C 21.417969 7.035156 21.933594 6.734375 22.46875 6.457031 C 23.003906 6.179688 23.546875 5.929688 24.109375 5.703125 C 24.667969 5.480469 25.234375 5.28125 25.8125 5.113281 C 26.394531 4.941406 26.980469 4.800781 27.574219 4.683594 C 28.164062 4.570312 28.761719 4.484375 29.363281 4.425781 C 29.96875 4.367188 30.570312 4.339844 31.175781 4.339844 C 31.78125 4.339844 32.382812 4.367188 32.984375 4.425781 C 33.589844 4.484375 34.1875 4.570312 34.777344 4.683594 C 35.371094 4.800781 35.957031 4.941406 36.535156 5.113281 C 37.117188 5.28125 37.683594 5.480469 38.242188 5.703125 C 38.800781 5.929688 39.347656 6.179688 39.882812 6.457031 C 40.414062 6.734375 40.933594 7.035156 41.4375 7.359375 C 41.941406 7.6875 42.425781 8.035156 42.894531 8.410156 C 43.359375 8.78125 43.808594 9.175781 44.234375 9.589844 C 44.664062 10.003906 45.070312 10.441406 45.453125 10.894531 C 45.835938 11.347656 46.195312 11.820312 46.53125 12.308594 C 46.867188 12.796875 47.179688 13.296875 47.464844 13.816406 C 47.75 14.332031 48.007812 14.863281 48.238281 15.40625 C 48.472656 15.949219 48.675781 16.5 48.851562 17.0625 C 49.027344 17.625 49.171875 18.195312 49.289062 18.769531 C 49.410156 19.34375 49.496094 19.925781 49.554688 20.507812 C 49.617188 21.09375 49.644531 21.679688 49.644531 22.265625 Z M 49.644531 22.265625 " fill-opacity="1" fill-rule="nonzero"/></g><g clip-path="url(#d0d429522a)"><path fill="#b1b1b1" d="M 100.382812 62.03125 C 98.210938 58.011719 93.210938 56.382812 89.191406 58.554688 L 62.464844 72.460938 C 59.421875 68.222656 35.957031 35.738281 14.007812 48.339844 C 0.210938 56.273438 5.96875 90.605469 9.882812 107.664062 L 57.46875 107.664062 L 58.988281 95.601562 C 58.121094 94.949219 22.050781 67.679688 22.703125 66.8125 C 23.351562 65.941406 24.65625 65.726562 25.632812 66.375 L 60.074219 92.453125 L 97.015625 73.332031 C 100.925781 71.15625 102.554688 66.160156 100.382812 62.03125 Z M 100.382812 62.03125 " fill-opacity="1" fill-rule="nonzero"/></g><path fill="#b1b1b1" d="M 80.609375 25.742188 L 87.453125 34.109375 L 107.011719 17.378906 L 107.011719 22.050781 L 111.574219 22.050781 L 111.574219 9.554688 L 98.863281 9.554688 L 98.210938 14.007812 L 103.96875 14.007812 L 103.640625 14.335938 L 87.996094 27.699219 L 81.152344 19.332031 L 57.359375 39.214844 L 60.074219 42.691406 Z M 80.609375 25.742188 " fill-opacity="1" fill-rule="nonzero"/><path fill="#b1b1b1" d="M 72.242188 39.648438 L 78.546875 39.648438 L 78.546875 51.816406 L 72.242188 51.816406 Z M 72.242188 39.648438 " fill-opacity="1" fill-rule="nonzero"/><path fill="#b1b1b1" d="M 83.652344 42.257812 L 89.953125 42.257812 L 89.953125 51.816406 L 83.652344 51.816406 Z M 83.652344 42.257812 " fill-opacity="1" fill-rule="nonzero"/><path fill="#b1b1b1" d="M 61.160156 45.84375 L 67.464844 45.84375 L 67.464844 51.925781 L 61.160156 51.925781 Z M 61.160156 45.84375 " fill-opacity="1" fill-rule="nonzero"/><path fill="#b1b1b1" d="M 94.296875 35.738281 L 100.601562 35.738281 L 100.601562 51.925781 L 94.296875 51.925781 Z M 94.296875 35.738281 " fill-opacity="1" fill-rule="nonzero"/><path fill="#b1b1b1" d="M 105.488281 29.761719 L 111.789062 29.761719 L 111.789062 51.925781 L 105.488281 51.925781 Z M 105.488281 29.761719 " fill-opacity="1" fill-rule="nonzero"/></svg>