<svg xmlns="http://www.w3.org/2000/svg" xmlns:xlink="http://www.w3.org/1999/xlink" width="150" zoomAndPan="magnify" viewBox="0 0 112.5 112.499997" height="150" preserveAspectRatio="xMidYMid meet" version="1.0"><defs><clipPath id="9999212485"><path d="M 38 35.335938 L 54 35.335938 L 54 50 L 38 50 Z M 38 35.335938 " clip-rule="nonzero"/></clipPath><clipPath id="f9a07c9e35"><path d="M 35 51 L 75 51 L 75 76.402344 L 35 76.402344 Z M 35 51 " clip-rule="nonzero"/></clipPath><clipPath id="bfaa577b24"><path d="M 56 37 L 78.402344 37 L 78.402344 51 L 56 51 Z M 56 37 " clip-rule="nonzero"/></clipPath><clipPath id="45ebf015fb"><path d="M 75 45 L 78.402344 45 L 78.402344 55 L 75 55 Z M 75 45 " clip-rule="nonzero"/></clipPath></defs><g clip-path="url(#9999212485)"><path fill="#b1b1b1" d="M 53.460938 42.507812 C 53.460938 42.976562 53.410156 43.445312 53.316406 43.90625 C 53.222656 44.367188 53.082031 44.816406 52.898438 45.25 C 52.710938 45.683594 52.484375 46.097656 52.214844 46.488281 C 51.945312 46.882812 51.636719 47.242188 51.296875 47.578125 C 50.953125 47.910156 50.578125 48.207031 50.175781 48.46875 C 49.773438 48.730469 49.347656 48.949219 48.898438 49.128906 C 48.449219 49.3125 47.988281 49.445312 47.511719 49.539062 C 47.039062 49.628906 46.558594 49.675781 46.070312 49.675781 C 45.585938 49.675781 45.105469 49.628906 44.632812 49.539062 C 44.15625 49.445312 43.691406 49.3125 43.246094 49.128906 C 42.796875 48.949219 42.371094 48.730469 41.96875 48.46875 C 41.566406 48.207031 41.191406 47.910156 40.847656 47.578125 C 40.503906 47.242188 40.199219 46.882812 39.929688 46.488281 C 39.660156 46.097656 39.433594 45.683594 39.246094 45.25 C 39.0625 44.816406 38.921875 44.367188 38.828125 43.90625 C 38.730469 43.445312 38.683594 42.976562 38.683594 42.507812 C 38.683594 42.035156 38.730469 41.570312 38.828125 41.109375 C 38.921875 40.644531 39.0625 40.199219 39.246094 39.761719 C 39.433594 39.328125 39.660156 38.914062 39.929688 38.523438 C 40.199219 38.132812 40.503906 37.769531 40.847656 37.4375 C 41.191406 37.105469 41.566406 36.804688 41.96875 36.546875 C 42.371094 36.285156 42.796875 36.0625 43.246094 35.882812 C 43.691406 35.703125 44.15625 35.566406 44.632812 35.472656 C 45.105469 35.382812 45.585938 35.335938 46.070312 35.335938 C 46.558594 35.335938 47.039062 35.382812 47.511719 35.472656 C 47.988281 35.566406 48.449219 35.703125 48.898438 35.882812 C 49.347656 36.0625 49.773438 36.285156 50.175781 36.546875 C 50.578125 36.804688 50.953125 37.105469 51.296875 37.4375 C 51.636719 37.769531 51.945312 38.132812 52.214844 38.523438 C 52.484375 38.914062 52.710938 39.328125 52.898438 39.761719 C 53.082031 40.199219 53.222656 40.644531 53.316406 41.109375 C 53.410156 41.570312 53.460938 42.035156 53.460938 42.507812 Z M 53.460938 42.507812 " fill-opacity="1" fill-rule="nonzero"/></g><g clip-path="url(#f9a07c9e35)"><path fill="#b1b1b1" d="M 73.75 58.410156 C 72.882812 56.800781 70.882812 56.152344 69.277344 57.019531 L 58.585938 62.582031 C 57.371094 60.886719 47.984375 47.894531 39.207031 52.933594 C 33.6875 56.105469 35.992188 69.839844 37.554688 76.660156 L 56.585938 76.660156 L 57.195312 71.835938 C 56.847656 71.578125 42.421875 60.671875 42.683594 60.324219 C 42.945312 59.976562 43.464844 59.886719 43.855469 60.148438 L 57.628906 70.578125 L 72.40625 62.929688 C 73.96875 62.058594 74.621094 60.0625 73.75 58.410156 Z M 73.75 58.410156 " fill-opacity="1" fill-rule="nonzero"/></g><g clip-path="url(#bfaa577b24)"><path fill="#b1b1b1" d="M 65.84375 43.898438 L 68.582031 47.242188 L 76.402344 40.550781 L 76.402344 42.417969 L 78.226562 42.417969 L 78.226562 37.421875 L 73.144531 37.421875 L 72.882812 39.203125 L 75.1875 39.203125 L 75.054688 39.335938 L 68.796875 44.679688 L 66.0625 41.332031 L 56.542969 49.285156 L 57.628906 50.675781 Z M 65.84375 43.898438 " fill-opacity="1" fill-rule="nonzero"/></g><path fill="#b1b1b1" d="M 62.496094 49.460938 L 65.019531 49.460938 L 65.019531 54.324219 L 62.496094 54.324219 Z M 62.496094 49.460938 " fill-opacity="1" fill-rule="nonzero"/><path fill="#b1b1b1" d="M 67.058594 50.5 L 69.582031 50.5 L 69.582031 54.324219 L 67.058594 54.324219 Z M 67.058594 50.5 " fill-opacity="1" fill-rule="nonzero"/><path fill="#b1b1b1" d="M 58.066406 51.9375 L 60.585938 51.9375 L 60.585938 54.371094 L 58.066406 54.371094 Z M 58.066406 51.9375 " fill-opacity="1" fill-rule="nonzero"/><path fill="#b1b1b1" d="M 71.320312 47.894531 L 73.839844 47.894531 L 73.839844 54.371094 L 71.320312 54.371094 Z M 71.320312 47.894531 " fill-opacity="1" fill-rule="nonzero"/><g clip-path="url(#45ebf015fb)"><path fill="#b1b1b1" d="M 75.792969 45.503906 L 78.3125 45.503906 L 78.3125 54.371094 L 75.792969 54.371094 Z M 75.792969 45.503906 " fill-opacity="1" fill-rule="nonzero"/></g></svg>