<svg xmlns:xlink="http://www.w3.org/1999/xlink" xmlns="http://www.w3.org/2000/svg" width="64" height="64">
<g fill="#7E8895">
	<path class="st0" d="M2.4,8.5C1.7,8.5,1.2,8,1.2,7.3S1.7,6,2.4,6h9.1c0.6,0,1.1,0.5,1.2,1.1l1.8,7h46.8v0c0.1,0,0.2,0,0.3,0   c0.7,0.2,1.1,0.9,0.9,1.5l-5.9,23.6c-0.1,0.6-0.6,1-1.2,1H21.3l1.8,7h6.4h17.6h6.9c0.7,0,1.3,0.6,1.3,1.3c0,0.7-0.6,1.3-1.3,1.3   h-2.3c0.5,0.8,0.9,1.9,0.9,2.9c0,1.5-0.6,2.9-1.6,3.8l0,0l0,0l0,0c-1,1-2.4,1.6-3.9,1.6c-1.5,0-2.9-0.6-3.9-1.6   c-1-1-1.6-2.4-1.6-3.9c0-1.1,0.3-2.1,0.9-2.9h-8.4c0.5,0.8,0.9,1.9,0.9,2.9c0,1.5-0.6,2.9-1.6,3.9l0,0l0,0c-1,1-2.3,1.6-3.9,1.6   c-1.5,0-2.9-0.6-3.9-1.6c-1-1-1.6-2.4-1.6-3.9c0-1.1,0.3-2.1,0.9-2.9h-2.8v0c-0.6,0-1.1-0.4-1.2-0.9l-2.4-9.5c0-0.1,0-0.1-0.1-0.2   L10.5,8.5H2.4L2.4,8.5z M15.2,16.6l5.4,21.1h33.8l5.3-21.1H15.2L15.2,16.6z M29.6,55.6c0.8,0,1.5-0.3,2.1-0.9l0,0   c0.5-0.5,0.9-1.3,0.9-2.1c0-0.8-0.3-1.5-0.9-2.1l0,0c-0.5-0.5-1.3-0.9-2.1-0.9c-0.8,0-1.5,0.3-2.1,0.9l-0.1,0.1   c-0.5,0.5-0.8,1.2-0.8,2c0,0.8,0.3,1.5,0.9,2.1C28,55.3,28.8,55.6,29.6,55.6L29.6,55.6z M47.2,55.6c0.8,0,1.5-0.3,2.1-0.9l0,0   c0.5-0.5,0.9-1.3,0.9-2.1c0-0.8-0.3-1.5-0.9-2.1l0,0c-0.5-0.5-1.3-0.9-2.1-0.9c-0.8,0-1.5,0.3-2.1,0.9L45,50.7   c-0.5,0.5-0.8,1.2-0.8,2c0,0.8,0.3,1.5,0.9,2.1C45.6,55.3,46.4,55.6,47.2,55.6L47.2,55.6z"/>
</g>
</svg>