<svg xmlns="http://www.w3.org/2000/svg" xmlns:xlink="http://www.w3.org/1999/xlink" width="150" zoomAndPan="magnify" viewBox="0 0 112.5 112.499997" height="150" preserveAspectRatio="xMidYMid meet" version="1.0"><defs><clipPath id="a7493940cf"><path d="M 33.601562 33.601562 L 78.402344 33.601562 L 78.402344 78.402344 L 33.601562 78.402344 Z M 33.601562 33.601562 " clip-rule="nonzero"/></clipPath></defs><g clip-path="url(#a7493940cf)"><path fill="#b1b1b1" d="M 55.964844 53.738281 C 58.355469 53.738281 60.296875 55.667969 60.296875 58.070312 C 60.296875 60.457031 58.757812 64.15625 55.964844 64.15625 C 53.175781 64.15625 51.636719 60.457031 51.636719 58.070312 C 51.636719 55.667969 53.578125 53.738281 55.964844 53.738281 Z M 55.964844 33.601562 C 60.871094 33.601562 64.847656 37.574219 64.847656 42.480469 C 64.847656 47.386719 60.871094 51.359375 55.964844 51.359375 C 51.0625 51.359375 47.085938 47.386719 47.085938 42.480469 C 47.085938 37.574219 51.0625 33.601562 55.964844 33.601562 Z M 52.507812 40.21875 C 52.507812 38.679688 53.53125 37.496094 54.96875 37.070312 L 54.96875 35.875 C 54.96875 35.644531 55.164062 35.449219 55.390625 35.449219 L 56.539062 35.449219 C 56.769531 35.449219 56.953125 35.644531 56.953125 35.875 L 56.964844 37.023438 C 57.242188 37.09375 57.507812 37.195312 57.746094 37.335938 C 58.65625 37.839844 59.183594 38.710938 59.355469 39.710938 C 59.378906 39.839844 59.34375 39.964844 59.261719 40.054688 C 59.183594 40.148438 59.066406 40.207031 58.941406 40.207031 L 57.898438 40.207031 C 57.703125 40.207031 57.539062 40.089844 57.496094 39.90625 C 57.082031 38.550781 54.566406 38.414062 54.566406 40.078125 C 54.566406 40.988281 55.714844 41.320312 56.402344 41.574219 C 58 42.160156 59.425781 42.769531 59.425781 44.742188 C 59.425781 46.28125 58.402344 47.464844 56.953125 47.902344 L 56.953125 49.085938 C 56.953125 49.316406 56.769531 49.511719 56.539062 49.511719 L 55.390625 49.511719 C 55.164062 49.511719 54.96875 49.316406 54.96875 49.085938 L 54.96875 47.9375 C 54.691406 47.867188 54.425781 47.765625 54.175781 47.625 C 53.277344 47.132812 52.75 46.25 52.578125 45.25 C 52.554688 45.121094 52.589844 45.007812 52.667969 44.902344 C 52.75 44.8125 52.863281 44.753906 52.992188 44.753906 L 54.035156 44.753906 C 54.21875 44.753906 54.382812 44.871094 54.4375 45.054688 C 54.851562 46.410156 57.367188 46.546875 57.367188 44.882812 C 57.367188 43.929688 56.046875 43.582031 55.324219 43.320312 C 53.796875 42.757812 52.507812 42.089844 52.507812 40.21875 Z M 69.71875 53.945312 C 67.753906 53.945312 66.167969 55.53125 66.167969 57.484375 C 66.167969 59.449219 67.429688 62.480469 69.71875 62.480469 C 72.003906 62.480469 73.253906 59.449219 73.253906 57.484375 C 73.253906 55.53125 71.671875 53.945312 69.71875 53.945312 Z M 64.511719 65.15625 C 66.257812 66.085938 67.5 67.777344 67.855469 69.808594 C 68.074219 71.050781 68.351562 72.277344 68.589844 73.507812 C 68.648438 73.839844 68.9375 74.082031 69.269531 74.082031 L 76.148438 74.082031 C 76.816406 74.082031 77.378906 73.816406 77.816406 73.3125 C 78.242188 72.808594 78.402344 72.199219 78.296875 71.542969 C 78.058594 70.117188 77.710938 68.578125 77.503906 67.441406 C 77.296875 66.238281 76.507812 65.269531 75.335938 64.835938 L 72.863281 63.835938 C 71.371094 63.238281 70.832031 64.882812 69.71875 64.871094 C 68.578125 64.859375 68.050781 63.238281 66.558594 63.835938 C 65.890625 64.109375 65.203125 64.375 64.535156 64.652344 C 64.433594 64.6875 64.363281 64.777344 64.363281 64.890625 C 64.351562 64.996094 64.410156 65.097656 64.511719 65.15625 Z M 42.214844 53.945312 C 44.179688 53.945312 45.765625 55.53125 45.765625 57.484375 C 45.765625 59.449219 44.503906 62.480469 42.214844 62.480469 C 39.929688 62.480469 38.667969 59.449219 38.667969 57.484375 C 38.667969 55.53125 40.25 53.945312 42.214844 53.945312 Z M 47.421875 65.15625 C 45.664062 66.085938 44.433594 67.777344 44.078125 69.808594 C 43.859375 71.050781 43.582031 72.277344 43.34375 73.507812 C 43.273438 73.839844 42.996094 74.082031 42.652344 74.082031 L 35.785156 74.082031 C 35.117188 74.082031 34.542969 73.816406 34.117188 73.3125 C 33.691406 72.808594 33.519531 72.199219 33.636719 71.542969 C 33.863281 70.117188 34.222656 68.578125 34.429688 67.441406 C 34.632812 66.238281 35.425781 65.269531 36.597656 64.835938 L 39.070312 63.835938 C 40.5625 63.238281 41.089844 64.882812 42.203125 64.871094 C 43.34375 64.859375 43.882812 63.238281 45.363281 63.835938 C 46.042969 64.109375 46.71875 64.375 47.398438 64.652344 C 47.5 64.6875 47.558594 64.777344 47.570312 64.890625 C 47.570312 64.996094 47.523438 65.097656 47.421875 65.15625 Z M 62.835938 67.039062 C 64.261719 67.582031 65.226562 68.753906 65.476562 70.222656 C 65.730469 71.625 66.15625 73.484375 66.453125 75.242188 C 66.582031 76.035156 66.375 76.769531 65.855469 77.390625 C 65.328125 78.011719 64.640625 78.332031 63.824219 78.332031 L 48.097656 78.332031 C 47.292969 78.332031 46.59375 78.011719 46.074219 77.390625 C 45.546875 76.769531 45.351562 76.035156 45.480469 75.242188 C 45.765625 73.484375 46.203125 71.625 46.453125 70.222656 C 46.707031 68.753906 47.671875 67.582031 49.097656 67.039062 L 52.117188 65.824219 C 53.933594 65.085938 54.601562 67.097656 55.957031 67.085938 C 57.34375 67.074219 58 65.097656 59.816406 65.824219 Z M 62.835938 67.039062 " fill-opacity="1" fill-rule="evenodd"/></g></svg>