<svg xmlns="http://www.w3.org/2000/svg" xmlns:xlink="http://www.w3.org/1999/xlink" width="150" zoomAndPan="magnify" viewBox="0 0 112.5 112.499997" height="150" preserveAspectRatio="xMidYMid meet" version="1.0"><defs><clipPath id="ee9cf6d06d"><path d="M 41.085938 33.601562 L 70.953125 33.601562 L 70.953125 78.402344 L 41.085938 78.402344 Z M 41.085938 33.601562 " clip-rule="nonzero"/></clipPath></defs><path fill="#b1b1b1" d="M 63.671875 46.039062 L 63.28125 48.101562 L 62.65625 51.335938 L 52.777344 51.335938 L 52.152344 48.101562 L 51.714844 46.039062 Z M 63.671875 46.039062 " fill-opacity="1" fill-rule="nonzero"/><path fill="#b1b1b1" d="M 63.984375 52.1875 C 63.984375 52.28125 63.949219 52.363281 63.882812 52.429688 C 63.816406 52.496094 63.738281 52.527344 63.640625 52.527344 L 52.078125 52.527344 C 51.988281 52.535156 51.914062 52.515625 51.84375 52.460938 C 51.773438 52.410156 51.730469 52.339844 51.714844 52.257812 L 49.996094 43.78125 L 48.277344 43.292969 C 48.183594 43.269531 48.117188 43.214844 48.070312 43.128906 C 48.023438 43.046875 48.015625 42.960938 48.042969 42.871094 C 48.066406 42.777344 48.121094 42.710938 48.203125 42.664062 C 48.285156 42.617188 48.371094 42.609375 48.464844 42.636719 L 50.378906 43.183594 C 50.511719 43.222656 50.59375 43.308594 50.621094 43.445312 L 52.339844 51.847656 L 63.640625 51.847656 C 63.738281 51.847656 63.816406 51.878906 63.882812 51.945312 C 63.949219 52.011719 63.984375 52.09375 63.984375 52.1875 Z M 55.542969 54.0625 C 55.542969 54.246094 55.507812 54.417969 55.441406 54.585938 C 55.371094 54.753906 55.273438 54.902344 55.144531 55.03125 C 55.015625 55.160156 54.867188 55.257812 54.703125 55.328125 C 54.535156 55.398438 54.359375 55.433594 54.179688 55.433594 C 53.996094 55.433594 53.824219 55.398438 53.65625 55.328125 C 53.488281 55.257812 53.339844 55.160156 53.210938 55.03125 C 53.082031 54.902344 52.984375 54.757812 52.914062 54.589844 C 52.84375 54.421875 52.8125 54.246094 52.8125 54.066406 C 52.8125 53.882812 52.847656 53.710938 52.914062 53.542969 C 52.984375 53.375 53.085938 53.226562 53.210938 53.097656 C 53.339844 52.972656 53.488281 52.871094 53.65625 52.804688 C 53.824219 52.734375 54 52.699219 54.179688 52.699219 C 54.359375 52.703125 54.535156 52.738281 54.699219 52.804688 C 54.867188 52.875 55.011719 52.976562 55.140625 53.101562 C 55.265625 53.230469 55.363281 53.378906 55.433594 53.542969 C 55.5 53.710938 55.535156 53.882812 55.535156 54.0625 Z M 54.863281 54.0625 C 54.863281 53.875 54.796875 53.714844 54.664062 53.582031 C 54.527344 53.449219 54.367188 53.382812 54.179688 53.382812 C 53.992188 53.382812 53.832031 53.449219 53.699219 53.582031 C 53.566406 53.714844 53.5 53.875 53.5 54.0625 C 53.5 54.25 53.566406 54.410156 53.699219 54.546875 C 53.832031 54.679688 53.992188 54.746094 54.179688 54.746094 C 54.367188 54.742188 54.527344 54.675781 54.65625 54.542969 C 54.789062 54.410156 54.855469 54.25 54.855469 54.0625 Z M 62.121094 54.0625 C 62.121094 54.246094 62.085938 54.417969 62.015625 54.585938 C 61.949219 54.753906 61.851562 54.902344 61.722656 55.03125 C 61.59375 55.160156 61.445312 55.257812 61.277344 55.328125 C 61.113281 55.398438 60.9375 55.433594 60.757812 55.433594 C 60.574219 55.433594 60.402344 55.398438 60.234375 55.328125 C 60.066406 55.261719 59.917969 55.160156 59.789062 55.035156 C 59.660156 54.90625 59.5625 54.757812 59.492188 54.589844 C 59.421875 54.421875 59.386719 54.25 59.386719 54.066406 C 59.386719 53.886719 59.421875 53.710938 59.492188 53.542969 C 59.5625 53.375 59.660156 53.230469 59.789062 53.101562 C 59.914062 52.972656 60.0625 52.875 60.230469 52.804688 C 60.398438 52.734375 60.574219 52.699219 60.753906 52.699219 C 60.933594 52.699219 61.109375 52.734375 61.273438 52.804688 C 61.441406 52.875 61.585938 52.972656 61.714844 53.101562 C 61.84375 53.230469 61.941406 53.375 62.007812 53.542969 C 62.078125 53.710938 62.113281 53.882812 62.113281 54.0625 Z M 61.433594 54.0625 C 61.433594 53.875 61.367188 53.714844 61.234375 53.582031 C 61.101562 53.449219 60.941406 53.382812 60.753906 53.382812 C 60.566406 53.382812 60.40625 53.449219 60.273438 53.582031 C 60.140625 53.714844 60.074219 53.875 60.074219 54.0625 C 60.074219 54.25 60.140625 54.410156 60.273438 54.546875 C 60.40625 54.679688 60.566406 54.746094 60.753906 54.746094 C 60.941406 54.742188 61.101562 54.675781 61.230469 54.542969 C 61.363281 54.410156 61.429688 54.25 61.429688 54.0625 Z M 61.433594 54.0625 " fill-opacity="1" fill-rule="nonzero"/><g clip-path="url(#ee9cf6d06d)"><path fill="#b1b1b1" d="M 56.003906 33.605469 C 55.027344 33.605469 54.054688 33.703125 53.097656 33.894531 C 52.136719 34.085938 51.203125 34.367188 50.296875 34.746094 C 49.394531 35.121094 48.535156 35.578125 47.71875 36.125 C 46.90625 36.667969 46.152344 37.285156 45.460938 37.980469 C 44.769531 38.671875 44.148438 39.425781 43.605469 40.238281 C 43.0625 41.054688 42.601562 41.914062 42.226562 42.816406 C 41.851562 43.722656 41.566406 44.652344 41.375 45.613281 C 41.183594 46.574219 41.085938 47.542969 41.085938 48.523438 C 41.085938 62.277344 55.027344 77.59375 55.621094 78.242188 C 55.726562 78.355469 55.851562 78.410156 56.003906 78.410156 C 56.160156 78.410156 56.289062 78.351562 56.390625 78.234375 C 56.984375 77.566406 70.917969 61.722656 70.917969 48.523438 C 70.917969 47.546875 70.820312 46.574219 70.628906 45.617188 C 70.4375 44.65625 70.15625 43.722656 69.78125 42.820312 C 69.40625 41.914062 68.945312 41.054688 68.402344 40.242188 C 67.855469 39.425781 67.238281 38.671875 66.546875 37.980469 C 65.855469 37.289062 65.101562 36.671875 64.289062 36.125 C 63.472656 35.582031 62.613281 35.121094 61.710938 34.746094 C 60.808594 34.371094 59.875 34.085938 58.914062 33.894531 C 57.953125 33.703125 56.984375 33.605469 56.003906 33.605469 Z M 45.265625 48.535156 C 45.265625 47.832031 45.335938 47.132812 45.472656 46.441406 C 45.609375 45.75 45.8125 45.078125 46.082031 44.425781 C 46.351562 43.773438 46.683594 43.15625 47.074219 42.570312 C 47.46875 41.984375 47.914062 41.441406 48.410156 40.941406 C 48.910156 40.441406 49.453125 40 50.039062 39.605469 C 50.625 39.214844 51.242188 38.882812 51.894531 38.613281 C 52.546875 38.34375 53.21875 38.140625 53.910156 38.003906 C 54.601562 37.863281 55.300781 37.796875 56.003906 37.796875 C 56.710938 37.796875 57.410156 37.863281 58.101562 38.003906 C 58.792969 38.140625 59.464844 38.34375 60.117188 38.613281 C 60.765625 38.882812 61.386719 39.214844 61.972656 39.605469 C 62.558594 40 63.101562 40.441406 63.601562 40.941406 C 64.097656 41.441406 64.542969 41.984375 64.9375 42.570312 C 65.328125 43.15625 65.660156 43.773438 65.929688 44.425781 C 66.199219 45.078125 66.402344 45.75 66.539062 46.441406 C 66.675781 47.132812 66.746094 47.832031 66.746094 48.535156 C 66.746094 49.242188 66.675781 49.941406 66.539062 50.632812 C 66.402344 51.324219 66.199219 51.996094 65.929688 52.648438 C 65.660156 53.296875 65.328125 53.917969 64.9375 54.503906 C 64.542969 55.089844 64.097656 55.632812 63.601562 56.132812 C 63.101562 56.628906 62.558594 57.074219 61.972656 57.46875 C 61.386719 57.859375 60.765625 58.191406 60.117188 58.460938 C 59.464844 58.730469 58.792969 58.933594 58.101562 59.070312 C 57.410156 59.207031 56.710938 59.277344 56.003906 59.277344 C 55.300781 59.277344 54.601562 59.207031 53.910156 59.070312 C 53.21875 58.929688 52.546875 58.726562 51.898438 58.457031 C 51.246094 58.1875 50.628906 57.855469 50.042969 57.464844 C 49.457031 57.070312 48.914062 56.625 48.414062 56.128906 C 47.917969 55.628906 47.472656 55.085938 47.078125 54.5 C 46.6875 53.914062 46.355469 53.296875 46.085938 52.644531 C 45.816406 51.992188 45.613281 51.324219 45.472656 50.632812 C 45.335938 49.941406 45.265625 49.242188 45.265625 48.535156 Z M 45.265625 48.535156 " fill-opacity="1" fill-rule="nonzero"/></g></svg>