<svg xmlns:xlink="http://www.w3.org/1999/xlink" xmlns="http://www.w3.org/2000/svg" width="64" height="64">
<g fill="#7E8895">
	<path class="st0" d="M47.8,33.9v17c1-0.4,1.8-0.9,2.5-1.6c1.1-1,1.7-2.4,1.7-3.7V32.6v-0.1h0c0-2.6,0-3.7-2-5.2   c-1.7-1.2-3.7-2.1-5.9-2.7c-2.4-0.7-5-1-7.5-1c-2.5,0-5.1,0.3-7.5,1c-2.2,0.6-4.2,1.5-5.9,2.7c-2,1.5-2,2.5-2,5.2h0v0.1v12h4.1   V33.9h2.5v10.6H30c1.3,0,2.5,0.5,3.3,1.4l0,0c0.9,0.9,1.4,2,1.4,3.3v8.3c0,1.3-0.5,2.5-1.4,3.3l0,0l0,0c-0.9,0.9-2,1.4-3.3,1.4   H14.8c-1.3,0-2.5-0.5-3.3-1.4l0,0l0,0c-0.9-0.9-1.4-2-1.4-3.3v-8.3c0-1.3,0.5-2.5,1.4-3.3l0,0c0.9-0.9,2-1.4,3.3-1.4h3.9v-12v-0.1   h0c0-3.5,0-4.9,3-7.2c1.9-1.4,4.2-2.4,6.7-3.1c2.7-0.8,5.5-1.1,8.2-1.1s5.5,0.4,8.2,1.1c2.5,0.7,4.8,1.7,6.7,3.1c3,2.2,3,3.6,3,7.2   h0v0.1v13.1c0,2-0.9,3.9-2.4,5.4c-1.1,1.1-2.5,1.9-4.2,2.4v8.8h-2.5V33.9H47.8L47.8,33.9z M30,47.1H14.8c-0.6,0-1.2,0.3-1.6,0.7v0   c-0.4,0.4-0.7,1-0.7,1.6V50l10.2,0.9l9.5-0.9v-0.8c0-0.6-0.3-1.2-0.7-1.6v0C31.2,47.3,30.6,47.1,30,47.1L30,47.1z M12.5,52.5v5.1   c0,0.6,0.3,1.2,0.7,1.6l0,0c0.4,0.4,1,0.7,1.6,0.7H30c0.6,0,1.2-0.3,1.6-0.7l0,0c0.4-0.4,0.7-1,0.7-1.6v-5.1l-9.4,0.9l-0.1,0   l-0.1,0L12.5,52.5L12.5,52.5z M37.3,3.5h-1.4c-1.3,0-2.5,0.5-3.4,1.4l0,0c-0.9,0.9-1.4,2-1.4,3.4v3.1c0,1.3,0.5,2.5,1.4,3.4h0   c0.9,0.9,2,1.4,3.4,1.4h1.4c1.3,0,2.5-0.5,3.4-1.4h0c0.9-0.9,1.4-2,1.4-3.4V8.2c0-1.3-0.5-2.5-1.4-3.4l0,0   C39.8,4,38.6,3.5,37.3,3.5L37.3,3.5z M35.8,1h1.4c2,0,3.8,0.8,5.1,2.1h0c1.3,1.3,2.1,3.1,2.1,5.1v3.1c0,2-0.8,3.8-2.1,5.1l0,0   c-1.3,1.3-3.1,2.1-5.1,2.1h-1.4c-2,0-3.8-0.8-5.1-2.1l0,0c-1.3-1.3-2.1-3.1-2.1-5.1V8.2c0-2,0.8-3.8,2.1-5.1h0   C32.1,1.8,33.9,1,35.8,1L35.8,1z"/>
</g>
</svg>