<svg xmlns="http://www.w3.org/2000/svg" xmlns:xlink="http://www.w3.org/1999/xlink" width="150" zoomAndPan="magnify" viewBox="0 0 112.5 112.499997" height="150" preserveAspectRatio="xMidYMid meet" version="1.0"><defs><clipPath id="4113ffa1e5"><path d="M 18.714844 0 L 93.382812 0 L 93.382812 112.003906 L 18.714844 112.003906 Z M 18.714844 0 " clip-rule="nonzero"/></clipPath></defs><path fill="#b1b1b1" d="M 75.195312 31.089844 L 74.210938 36.25 L 72.648438 44.332031 L 47.949219 44.332031 L 46.386719 36.25 L 45.292969 31.089844 Z M 75.195312 31.089844 " fill-opacity="1" fill-rule="nonzero"/><path fill="#b1b1b1" d="M 75.972656 46.464844 C 75.972656 46.699219 75.886719 46.902344 75.722656 47.066406 C 75.554688 47.234375 75.355469 47.316406 75.117188 47.316406 L 46.199219 47.316406 C 45.984375 47.335938 45.789062 47.28125 45.617188 47.152344 C 45.441406 47.023438 45.335938 46.851562 45.292969 46.636719 L 40.996094 25.449219 L 36.695312 24.230469 C 36.46875 24.164062 36.296875 24.027344 36.183594 23.820312 C 36.070312 23.613281 36.042969 23.394531 36.109375 23.167969 C 36.175781 22.941406 36.308594 22.769531 36.515625 22.652344 C 36.722656 22.539062 36.9375 22.515625 37.164062 22.582031 L 41.957031 23.949219 C 42.289062 24.046875 42.488281 24.265625 42.558594 24.605469 L 46.855469 45.613281 L 75.117188 45.613281 C 75.355469 45.613281 75.554688 45.695312 75.722656 45.863281 C 75.886719 46.03125 75.972656 46.230469 75.972656 46.464844 Z M 54.867188 51.15625 C 54.867188 51.609375 54.78125 52.042969 54.609375 52.464844 C 54.4375 52.882812 54.191406 53.253906 53.871094 53.574219 C 53.550781 53.894531 53.179688 54.144531 52.761719 54.316406 C 52.34375 54.492188 51.910156 54.578125 51.453125 54.578125 C 51 54.578125 50.566406 54.492188 50.144531 54.320312 C 49.726562 54.144531 49.359375 53.898438 49.035156 53.578125 C 48.714844 53.257812 48.46875 52.886719 48.296875 52.46875 C 48.121094 52.050781 48.035156 51.613281 48.035156 51.160156 C 48.035156 50.707031 48.125 50.269531 48.296875 49.851562 C 48.472656 49.433594 48.71875 49.0625 49.039062 48.746094 C 49.363281 48.425781 49.730469 48.175781 50.152344 48.003906 C 50.570312 47.832031 51.007812 47.746094 51.460938 47.746094 C 51.910156 47.75 52.34375 47.839844 52.757812 48.011719 C 53.171875 48.1875 53.539062 48.433594 53.855469 48.753906 C 54.175781 49.074219 54.417969 49.441406 54.59375 49.855469 C 54.765625 50.273438 54.851562 50.703125 54.851562 51.15625 Z M 53.164062 51.15625 C 53.164062 50.929688 53.121094 50.710938 53.035156 50.503906 C 52.949219 50.292969 52.824219 50.109375 52.664062 49.949219 C 52.503906 49.789062 52.320312 49.667969 52.113281 49.582031 C 51.902344 49.496094 51.6875 49.453125 51.460938 49.453125 C 51.234375 49.453125 51.015625 49.496094 50.808594 49.582031 C 50.597656 49.667969 50.414062 49.789062 50.253906 49.949219 C 50.09375 50.109375 49.972656 50.292969 49.886719 50.503906 C 49.800781 50.710938 49.757812 50.929688 49.757812 51.15625 C 49.757812 51.382812 49.800781 51.597656 49.886719 51.808594 C 49.972656 52.015625 50.09375 52.199219 50.253906 52.359375 C 50.414062 52.519531 50.597656 52.644531 50.808594 52.730469 C 51.015625 52.816406 51.234375 52.859375 51.460938 52.859375 C 51.683594 52.855469 51.898438 52.8125 52.105469 52.722656 C 52.3125 52.636719 52.496094 52.511719 52.652344 52.351562 C 52.808594 52.191406 52.933594 52.007812 53.019531 51.800781 C 53.105469 51.59375 53.148438 51.378906 53.148438 51.15625 Z M 71.3125 51.15625 C 71.3125 51.609375 71.226562 52.042969 71.054688 52.464844 C 70.882812 52.882812 70.636719 53.253906 70.316406 53.574219 C 69.996094 53.894531 69.628906 54.140625 69.210938 54.316406 C 68.792969 54.492188 68.355469 54.578125 67.902344 54.578125 C 67.449219 54.578125 67.011719 54.492188 66.59375 54.320312 C 66.175781 54.148438 65.804688 53.902344 65.484375 53.582031 C 65.164062 53.261719 64.917969 52.890625 64.742188 52.472656 C 64.570312 52.054688 64.480469 51.617188 64.480469 51.164062 C 64.480469 50.710938 64.566406 50.277344 64.742188 49.859375 C 64.914062 49.4375 65.160156 49.070312 65.480469 48.75 C 65.800781 48.429688 66.171875 48.179688 66.589844 48.007812 C 67.007812 47.835938 67.445312 47.746094 67.898438 47.746094 C 68.347656 47.75 68.78125 47.835938 69.199219 48.011719 C 69.613281 48.183594 69.980469 48.429688 70.300781 48.75 C 70.617188 49.070312 70.863281 49.4375 71.035156 49.855469 C 71.207031 50.269531 71.296875 50.703125 71.296875 51.15625 Z M 69.601562 51.15625 C 69.601562 50.929688 69.558594 50.710938 69.472656 50.503906 C 69.382812 50.292969 69.261719 50.109375 69.101562 49.949219 C 68.941406 49.789062 68.757812 49.667969 68.550781 49.582031 C 68.339844 49.496094 68.121094 49.453125 67.898438 49.453125 C 67.671875 49.453125 67.453125 49.496094 67.246094 49.582031 C 67.035156 49.667969 66.851562 49.789062 66.691406 49.949219 C 66.53125 50.109375 66.410156 50.292969 66.324219 50.503906 C 66.234375 50.710938 66.191406 50.929688 66.191406 51.15625 C 66.191406 51.382812 66.234375 51.597656 66.324219 51.808594 C 66.410156 52.015625 66.53125 52.199219 66.691406 52.359375 C 66.851562 52.519531 67.035156 52.644531 67.246094 52.730469 C 67.453125 52.816406 67.671875 52.859375 67.898438 52.859375 C 68.121094 52.855469 68.335938 52.8125 68.542969 52.726562 C 68.75 52.636719 68.933594 52.515625 69.089844 52.355469 C 69.25 52.195312 69.371094 52.011719 69.457031 51.804688 C 69.542969 51.597656 69.585938 51.378906 69.585938 51.15625 Z M 69.601562 51.15625 " fill-opacity="1" fill-rule="nonzero"/><g clip-path="url(#4113ffa1e5)"><path fill="#b1b1b1" d="M 56.023438 0 C 54.804688 0 53.585938 0.0625 52.371094 0.183594 C 51.152344 0.304688 49.945312 0.484375 48.75 0.722656 C 47.550781 0.960938 46.367188 1.261719 45.199219 1.613281 C 44.03125 1.96875 42.882812 2.382812 41.753906 2.851562 C 40.625 3.316406 39.523438 3.839844 38.445312 4.417969 C 37.371094 4.992188 36.324219 5.621094 35.308594 6.300781 C 34.292969 6.976562 33.3125 7.703125 32.367188 8.480469 C 31.425781 9.253906 30.519531 10.074219 29.65625 10.9375 C 28.792969 11.800781 27.972656 12.707031 27.199219 13.648438 C 26.425781 14.59375 25.695312 15.574219 25.019531 16.589844 C 24.339844 17.605469 23.710938 18.652344 23.136719 19.726562 C 22.558594 20.804688 22.039062 21.90625 21.570312 23.035156 C 21.101562 24.164062 20.691406 25.3125 20.335938 26.480469 C 19.980469 27.648438 19.683594 28.832031 19.441406 30.03125 C 19.203125 31.226562 19.023438 32.433594 18.902344 33.648438 C 18.78125 34.867188 18.71875 36.082031 18.71875 37.304688 C 18.71875 71.695312 53.578125 109.992188 55.0625 111.613281 C 55.320312 111.894531 55.640625 112.035156 56.023438 112.035156 C 56.410156 112.03125 56.730469 111.886719 56.984375 111.597656 C 58.472656 109.921875 93.3125 70.304688 93.3125 37.304688 C 93.3125 36.085938 93.253906 34.867188 93.132812 33.652344 C 93.011719 32.4375 92.832031 31.230469 92.589844 30.03125 C 92.351562 28.835938 92.054688 27.652344 91.699219 26.484375 C 91.34375 25.316406 90.933594 24.167969 90.464844 23.039062 C 89.996094 21.910156 89.476562 20.808594 88.898438 19.730469 C 88.324219 18.65625 87.695312 17.609375 87.019531 16.59375 C 86.339844 15.578125 85.613281 14.597656 84.839844 13.65625 C 84.0625 12.710938 83.246094 11.808594 82.382812 10.945312 C 81.519531 10.078125 80.613281 9.261719 79.671875 8.484375 C 78.726562 7.710938 77.75 6.984375 76.734375 6.304688 C 75.71875 5.625 74.671875 4.996094 73.597656 4.421875 C 72.519531 3.84375 71.417969 3.324219 70.289062 2.855469 C 69.160156 2.386719 68.015625 1.972656 66.847656 1.617188 C 65.675781 1.261719 64.496094 0.964844 63.296875 0.726562 C 62.101562 0.484375 60.894531 0.304688 59.679688 0.183594 C 58.464844 0.0625 57.246094 0 56.023438 0 Z M 29.167969 37.335938 C 29.167969 36.457031 29.210938 35.578125 29.296875 34.703125 C 29.382812 33.828125 29.511719 32.960938 29.683594 32.097656 C 29.855469 31.234375 30.070312 30.382812 30.324219 29.539062 C 30.582031 28.699219 30.875 27.871094 31.214844 27.058594 C 31.550781 26.246094 31.925781 25.453125 32.339844 24.675781 C 32.753906 23.902344 33.207031 23.148438 33.695312 22.417969 C 34.183594 21.683594 34.707031 20.980469 35.265625 20.300781 C 35.824219 19.621094 36.414062 18.96875 37.035156 18.347656 C 37.65625 17.726562 38.308594 17.136719 38.988281 16.578125 C 39.667969 16.019531 40.375 15.496094 41.105469 15.007812 C 41.835938 14.519531 42.589844 14.066406 43.363281 13.652344 C 44.140625 13.238281 44.933594 12.863281 45.746094 12.527344 C 46.558594 12.1875 47.386719 11.894531 48.230469 11.636719 C 49.070312 11.382812 49.921875 11.167969 50.785156 10.996094 C 51.648438 10.824219 52.515625 10.695312 53.390625 10.609375 C 54.265625 10.523438 55.144531 10.480469 56.023438 10.480469 C 56.902344 10.480469 57.78125 10.523438 58.65625 10.609375 C 59.53125 10.695312 60.402344 10.824219 61.265625 10.996094 C 62.125 11.167969 62.980469 11.382812 63.820312 11.636719 C 64.660156 11.894531 65.488281 12.1875 66.300781 12.527344 C 67.113281 12.863281 67.910156 13.238281 68.683594 13.652344 C 69.460938 14.066406 70.214844 14.519531 70.945312 15.007812 C 71.675781 15.496094 72.382812 16.019531 73.0625 16.578125 C 73.742188 17.136719 74.390625 17.726562 75.015625 18.347656 C 75.636719 18.96875 76.226562 19.621094 76.785156 20.300781 C 77.34375 20.980469 77.867188 21.683594 78.355469 22.417969 C 78.84375 23.148438 79.292969 23.902344 79.710938 24.675781 C 80.125 25.453125 80.5 26.246094 80.835938 27.058594 C 81.171875 27.871094 81.46875 28.699219 81.722656 29.539062 C 81.980469 30.382812 82.191406 31.234375 82.363281 32.097656 C 82.535156 32.960938 82.664062 33.828125 82.75 34.703125 C 82.835938 35.578125 82.878906 36.457031 82.878906 37.335938 C 82.878906 38.214844 82.835938 39.09375 82.75 39.96875 C 82.664062 40.84375 82.535156 41.714844 82.363281 42.574219 C 82.191406 43.4375 81.980469 44.289062 81.722656 45.132812 C 81.46875 45.972656 81.171875 46.800781 80.835938 47.613281 C 80.5 48.425781 80.125 49.21875 79.710938 49.996094 C 79.292969 50.773438 78.84375 51.527344 78.355469 52.257812 C 77.867188 52.988281 77.34375 53.695312 76.785156 54.375 C 76.226562 55.054688 75.636719 55.703125 75.015625 56.328125 C 74.390625 56.949219 73.742188 57.539062 73.0625 58.097656 C 72.382812 58.652344 71.675781 59.175781 70.945312 59.667969 C 70.214844 60.15625 69.460938 60.605469 68.683594 61.019531 C 67.910156 61.4375 67.113281 61.8125 66.300781 62.148438 C 65.488281 62.484375 64.660156 62.78125 63.820312 63.035156 C 62.980469 63.292969 62.125 63.503906 61.265625 63.675781 C 60.402344 63.847656 59.53125 63.976562 58.65625 64.0625 C 57.78125 64.148438 56.902344 64.191406 56.023438 64.191406 C 55.144531 64.191406 54.269531 64.148438 53.394531 64.058594 C 52.519531 63.972656 51.648438 63.84375 50.789062 63.671875 C 49.925781 63.5 49.074219 63.285156 48.230469 63.027344 C 47.390625 62.773438 46.5625 62.476562 45.753906 62.140625 C 44.941406 61.800781 44.144531 61.425781 43.371094 61.011719 C 42.597656 60.597656 41.84375 60.144531 41.113281 59.65625 C 40.382812 59.167969 39.675781 58.644531 38.996094 58.085938 C 38.316406 57.527344 37.664062 56.9375 37.042969 56.316406 C 36.421875 55.695312 35.832031 55.042969 35.273438 54.367188 C 34.714844 53.6875 34.191406 52.980469 33.703125 52.25 C 33.214844 51.519531 32.765625 50.765625 32.347656 49.988281 C 31.933594 49.214844 31.558594 48.421875 31.222656 47.609375 C 30.882812 46.796875 30.589844 45.96875 30.332031 45.128906 C 30.078125 44.289062 29.863281 43.4375 29.691406 42.574219 C 29.519531 41.710938 29.386719 40.84375 29.300781 39.96875 C 29.214844 39.09375 29.171875 38.214844 29.167969 37.335938 Z M 29.167969 37.335938 " fill-opacity="1" fill-rule="nonzero"/></g></svg>