<svg xmlns="http://www.w3.org/2000/svg" xmlns:xlink="http://www.w3.org/1999/xlink" width="150" zoomAndPan="magnify" viewBox="0 0 112.5 112.499997" height="150" preserveAspectRatio="xMidYMid meet" version="1.0"><defs><clipPath id="7106e789ff"><path d="M 0 0 L 112.003906 0 L 112.003906 112.003906 L 0 112.003906 Z M 0 0 " clip-rule="nonzero"/></clipPath><clipPath id="2dace68c5b"><path d="M 0 0 L 111.902344 0 L 111.902344 99 L 0 99 Z M 0 0 " clip-rule="nonzero"/></clipPath></defs><g clip-path="url(#7106e789ff)"><path fill="#ffffff" d="M 0 0 L 112.003906 0 L 112.003906 112.003906 L 0 112.003906 Z M 0 0 " fill-opacity="1" fill-rule="nonzero"/><path fill="#ffffff" d="M 0 0 L 112.003906 0 L 112.003906 112.003906 L 0 112.003906 Z M 0 0 " fill-opacity="1" fill-rule="nonzero"/></g><path fill="#b1b1b1" d="M 41.054688 81.546875 C 40.835938 81.328125 40.550781 81.214844 40.242188 81.214844 C 39.933594 81.214844 39.648438 81.328125 39.429688 81.546875 C 39.207031 81.765625 39.097656 82.050781 39.097656 82.359375 C 39.097656 82.667969 39.207031 82.953125 39.429688 83.171875 L 49.386719 93.109375 C 49.824219 93.550781 50.59375 93.550781 51.035156 93.109375 C 51.253906 92.890625 51.386719 92.605469 51.386719 92.296875 C 51.386719 91.988281 51.253906 91.703125 51.035156 91.484375 Z M 41.054688 81.546875 " fill-opacity="1" fill-rule="nonzero"/><path fill="#b1b1b1" d="M 39.339844 85.238281 L 46.417969 92.296875 Z M 39.339844 85.238281 " fill-opacity="1" fill-rule="nonzero"/><path fill="#b1b1b1" d="M 47.230469 95.265625 L 37.207031 85.261719 L 37.207031 85.238281 L 22.652344 99.75 C 21.3125 101.089844 20.566406 102.871094 20.566406 104.761719 C 20.566406 106.652344 21.3125 108.433594 22.652344 109.773438 L 22.71875 109.839844 C 24.0625 111.179688 25.84375 111.925781 27.753906 111.925781 C 29.644531 111.925781 31.449219 111.179688 32.789062 109.839844 L 47.34375 95.308594 C 47.277344 95.308594 47.253906 95.285156 47.230469 95.265625 Z M 47.230469 95.265625 " fill-opacity="1" fill-rule="nonzero"/><path fill="#b1b1b1" d="M 52.066406 90.40625 L 42.109375 80.46875 C 41.097656 79.457031 39.339844 79.457031 38.328125 80.46875 C 37.824219 80.972656 37.539062 81.632812 37.539062 82.359375 C 37.539062 83.042969 37.800781 83.65625 38.242188 84.164062 C 38.261719 84.183594 38.285156 84.226562 38.304688 84.25 L 39.296875 85.238281 L 46.375 92.316406 L 48.242188 94.1875 C 48.265625 94.207031 48.308594 94.230469 48.332031 94.253906 C 48.816406 94.714844 49.453125 94.957031 50.132812 94.957031 C 50.835938 94.957031 51.519531 94.671875 52.023438 94.164062 C 52.53125 93.660156 52.816406 93 52.816406 92.273438 C 52.859375 91.570312 52.574219 90.910156 52.066406 90.40625 Z M 52.066406 90.40625 " fill-opacity="1" fill-rule="nonzero"/><g clip-path="url(#2dace68c5b)"><path fill="#b1b1b1" d="M 108.0625 63.125 L 106.105469 63.125 C 104.851562 63.125 103.839844 62.113281 103.839844 60.859375 L 103.839844 51.800781 C 103.839844 50.550781 104.851562 49.539062 106.105469 49.539062 L 108.0625 49.539062 C 109.203125 49.539062 110.257812 49.03125 110.984375 48.152344 C 111.710938 47.273438 111.996094 46.128906 111.777344 44.988281 C 111.3125 42.636719 110.675781 40.28125 109.90625 38.019531 C 109.378906 36.480469 107.949219 35.425781 106.324219 35.425781 C 105.664062 35.425781 105.027344 35.601562 104.433594 35.929688 L 102.742188 36.917969 C 102.390625 37.117188 102.015625 37.226562 101.621094 37.226562 C 100.804688 37.226562 100.058594 36.789062 99.664062 36.105469 L 95.132812 28.257812 C 94.828125 27.730469 94.761719 27.113281 94.914062 26.542969 C 95.070312 25.972656 95.441406 25.464844 95.96875 25.15625 L 97.664062 24.191406 C 98.652344 23.621094 99.3125 22.652344 99.488281 21.53125 C 99.664062 20.410156 99.332031 19.265625 98.585938 18.410156 C 97.003906 16.605469 95.289062 14.890625 93.484375 13.308594 C 92.78125 12.691406 91.902344 12.363281 90.980469 12.363281 C 89.636719 12.363281 88.386719 13.089844 87.703125 14.253906 L 86.738281 15.945312 C 86.339844 16.648438 85.570312 17.066406 84.78125 17.066406 C 84.382812 17.066406 83.988281 16.957031 83.660156 16.761719 L 75.789062 12.253906 C 74.710938 11.636719 74.335938 10.253906 74.953125 9.152344 L 75.941406 7.460938 C 76.515625 6.472656 76.601562 5.308594 76.207031 4.25 C 75.8125 3.175781 74.953125 2.359375 73.875 2.007812 C 71.613281 1.238281 69.257812 0.625 66.90625 0.140625 C 66.664062 0.0976562 66.402344 0.0742188 66.160156 0.0742188 C 64.070312 0.0742188 62.378906 1.765625 62.378906 3.855469 L 62.378906 5.8125 C 62.378906 7.066406 61.367188 8.078125 60.113281 8.078125 L 51.058594 8.078125 C 49.804688 8.078125 48.792969 7.066406 48.792969 5.8125 L 48.792969 3.855469 C 48.792969 1.765625 47.101562 0.0742188 45.011719 0.0742188 C 44.769531 0.0742188 44.507812 0.0976562 44.265625 0.140625 C 41.910156 0.601562 39.558594 1.238281 37.296875 2.007812 C 36.21875 2.382812 35.359375 3.195312 34.964844 4.25 C 34.570312 5.308594 34.65625 6.492188 35.230469 7.460938 L 36.21875 9.152344 C 36.832031 10.230469 36.460938 11.617188 35.382812 12.253906 L 27.535156 16.78125 C 27.183594 16.980469 26.808594 17.089844 26.414062 17.089844 C 25.601562 17.089844 24.851562 16.648438 24.457031 15.96875 L 23.488281 14.277344 C 22.808594 13.109375 21.554688 12.386719 20.214844 12.386719 C 19.289062 12.386719 18.410156 12.714844 17.707031 13.332031 C 15.90625 14.914062 14.191406 16.628906 12.609375 18.429688 C 11.859375 19.289062 11.53125 20.429688 11.707031 21.550781 C 11.882812 22.675781 12.5625 23.640625 13.53125 24.210938 L 15.222656 25.179688 C 16.300781 25.796875 16.675781 27.179688 16.058594 28.28125 L 11.488281 36.105469 C 11.089844 36.808594 10.320312 37.226562 9.53125 37.226562 C 9.132812 37.226562 8.738281 37.117188 8.410156 36.917969 L 6.714844 35.929688 C 6.144531 35.601562 5.484375 35.425781 4.824219 35.425781 C 3.199219 35.425781 1.746094 36.457031 1.242188 38.019531 C 0.472656 40.28125 -0.144531 42.636719 -0.625 44.988281 C -0.847656 46.109375 -0.5625 47.25 0.164062 48.152344 C 0.890625 49.03125 1.945312 49.539062 3.089844 49.539062 L 5.046875 49.539062 C 6.296875 49.539062 7.308594 50.550781 7.308594 51.800781 L 7.308594 60.859375 C 7.308594 62.113281 6.296875 63.125 5.046875 63.125 L 3.089844 63.125 C 1.945312 63.125 0.890625 63.628906 0.164062 64.507812 C -0.5625 65.386719 -0.847656 66.53125 -0.625 67.675781 C -0.164062 70.027344 0.472656 72.378906 1.242188 74.644531 C 1.769531 76.183594 3.199219 77.238281 4.824219 77.238281 C 5.484375 77.238281 6.121094 77.0625 6.714844 76.730469 L 8.410156 75.742188 C 8.761719 75.542969 9.132812 75.433594 9.53125 75.433594 C 10.34375 75.433594 11.089844 75.875 11.488281 76.554688 L 16.015625 84.402344 C 16.628906 85.480469 16.257812 86.867188 15.179688 87.503906 L 13.488281 88.472656 C 12.496094 89.042969 11.839844 90.011719 11.640625 91.132812 C 11.464844 92.253906 11.792969 93.394531 12.542969 94.253906 C 13.53125 95.375 14.585938 96.496094 15.683594 97.527344 C 16.390625 98.210938 17.3125 98.5625 18.28125 98.5625 C 19.289062 98.5625 20.234375 98.164062 20.941406 97.460938 L 32.765625 85.8125 C 33.492188 85.085938 33.886719 84.117188 33.886719 83.085938 C 33.886719 82.050781 33.46875 81.105469 32.699219 80.382812 C 26.039062 74.070312 22.367188 65.519531 22.367188 56.332031 C 22.367188 38.019531 37.25 23.136719 55.5625 23.136719 C 73.875 23.136719 88.757812 38.019531 88.757812 56.332031 C 88.757812 65.519531 85.085938 74.070312 78.40625 80.402344 C 77.65625 81.105469 77.238281 82.074219 77.21875 83.105469 C 77.21875 84.140625 77.613281 85.109375 78.339844 85.832031 L 90.167969 97.484375 C 90.871094 98.1875 91.816406 98.582031 92.824219 98.582031 C 93.792969 98.582031 94.714844 98.210938 95.421875 97.527344 C 96.496094 96.472656 97.550781 95.375 98.5625 94.253906 C 99.3125 93.394531 99.640625 92.253906 99.464844 91.132812 C 99.289062 90.011719 98.609375 89.042969 97.617188 88.472656 L 95.925781 87.503906 C 95.398438 87.195312 95.023438 86.710938 94.871094 86.117188 C 94.714844 85.523438 94.804688 84.929688 95.089844 84.402344 L 99.617188 76.554688 C 100.015625 75.851562 100.785156 75.433594 101.574219 75.433594 C 101.972656 75.433594 102.367188 75.542969 102.695312 75.742188 L 104.390625 76.730469 C 104.960938 77.0625 105.621094 77.238281 106.28125 77.238281 C 107.90625 77.238281 109.359375 76.203125 109.863281 74.644531 C 110.632812 72.378906 111.25 70.027344 111.730469 67.675781 C 111.953125 66.554688 111.667969 65.410156 110.941406 64.507812 C 110.257812 63.628906 109.203125 63.125 108.0625 63.125 Z M 108.0625 63.125 " fill-opacity="1" fill-rule="nonzero"/></g><path fill="#b1b1b1" d="M 85.527344 96.804688 C 83.945312 95.21875 81.835938 94.339844 79.570312 94.339844 C 78.734375 94.339844 77.898438 94.472656 77.085938 94.714844 L 47.429688 65.101562 C 48.332031 62.15625 47.539062 58.902344 45.339844 56.703125 L 43.539062 54.902344 C 42.679688 54.042969 41.515625 53.5625 40.285156 53.5625 C 39.054688 53.5625 37.910156 54.042969 37.03125 54.902344 C 36.898438 55.035156 36.8125 55.230469 36.8125 55.429688 C 36.8125 55.628906 36.898438 55.824219 37.03125 55.957031 L 41.558594 60.464844 C 42.132812 61.035156 42.460938 61.828125 42.460938 62.640625 C 42.460938 63.453125 42.132812 64.222656 41.558594 64.816406 C 40.988281 65.386719 40.195312 65.71875 39.382812 65.71875 C 38.570312 65.71875 37.777344 65.386719 37.207031 64.816406 L 32.679688 60.308594 C 32.394531 60.023438 31.910156 60.023438 31.625 60.308594 C 30.765625 61.167969 30.28125 62.332031 30.28125 63.542969 C 30.28125 64.773438 30.765625 65.914062 31.625 66.773438 L 33.425781 68.574219 C 35.007812 70.160156 37.121094 71.039062 39.382812 71.039062 C 40.21875 71.039062 41.054688 70.90625 41.867188 70.664062 L 71.546875 100.277344 C 70.644531 103.242188 71.4375 106.476562 73.632812 108.675781 C 75.21875 110.257812 77.347656 111.136719 79.59375 111.136719 C 81.835938 111.136719 83.964844 110.257812 85.550781 108.675781 C 87.132812 107.089844 88.011719 104.980469 88.011719 102.714844 C 88.011719 100.519531 87.132812 98.386719 85.527344 96.804688 Z M 81.746094 104.9375 C 81.175781 105.507812 80.382812 105.839844 79.570312 105.839844 C 78.757812 105.839844 77.964844 105.507812 77.394531 104.9375 C 76.820312 104.363281 76.492188 103.597656 76.492188 102.761719 C 76.492188 101.945312 76.820312 101.175781 77.394531 100.585938 C 77.964844 100.011719 78.757812 99.683594 79.570312 99.683594 C 80.382812 99.683594 81.175781 100.011719 81.746094 100.585938 C 82.316406 101.15625 82.648438 101.925781 82.648438 102.761719 C 82.648438 103.574219 82.339844 104.34375 81.746094 104.9375 Z M 81.746094 104.9375 " fill-opacity="1" fill-rule="nonzero"/><path fill="#b1b1b1" d="M 60.421875 75.917969 L 74.535156 61.828125 C 74.578125 61.78125 74.625 61.761719 74.667969 61.738281 L 77.789062 60.179688 C 78.097656 60.023438 78.382812 59.78125 78.582031 59.496094 L 81.4375 55.230469 C 81.964844 54.417969 81.878906 53.339844 81.175781 52.660156 L 79.945312 51.429688 C 79.285156 50.769531 78.164062 50.660156 77.371094 51.164062 L 73.105469 54 C 72.820312 54.199219 72.578125 54.460938 72.425781 54.792969 L 70.863281 57.914062 C 70.84375 57.957031 70.796875 58 70.777344 58.046875 L 56.640625 72.160156 Z M 60.421875 75.917969 " fill-opacity="1" fill-rule="nonzero"/><path fill="#b1b1b1" d="M 48.902344 79.851562 L 46.285156 82.492188 L 50.066406 86.273438 L 52.683594 83.632812 Z M 48.902344 79.851562 " fill-opacity="1" fill-rule="nonzero"/></svg>