<svg xmlns="http://www.w3.org/2000/svg" xmlns:xlink="http://www.w3.org/1999/xlink" width="150" zoomAndPan="magnify" viewBox="0 0 112.5 112.499997" height="150" preserveAspectRatio="xMidYMid meet" version="1.0"><defs><clipPath id="220e2fd710"><path d="M 42 67 L 53 67 L 53 78.570312 L 42 78.570312 Z M 42 67 " clip-rule="nonzero"/></clipPath><clipPath id="e3357ce70d"><path d="M 33.601562 33.769531 L 78.402344 33.769531 L 78.402344 73 L 33.601562 73 Z M 33.601562 33.769531 " clip-rule="nonzero"/></clipPath></defs><path fill="#b1b1b1" d="M 50.234375 66.140625 C 50.148438 66.054688 50.035156 66.011719 49.914062 66.011719 C 49.792969 66.011719 49.675781 66.054688 49.589844 66.140625 C 49.503906 66.230469 49.460938 66.34375 49.460938 66.464844 C 49.460938 66.585938 49.503906 66.699219 49.589844 66.789062 L 53.542969 70.734375 C 53.71875 70.90625 54.023438 70.90625 54.199219 70.734375 C 54.285156 70.644531 54.339844 70.53125 54.339844 70.410156 C 54.339844 70.289062 54.285156 70.175781 54.199219 70.085938 Z M 50.234375 66.140625 " fill-opacity="1" fill-rule="nonzero"/><path fill="#b1b1b1" d="M 49.554688 67.609375 L 52.367188 70.410156 Z M 49.554688 67.609375 " fill-opacity="1" fill-rule="nonzero"/><g clip-path="url(#220e2fd710)"><path fill="#b1b1b1" d="M 52.6875 71.589844 L 48.707031 67.617188 L 48.707031 67.609375 L 42.929688 73.367188 C 42.398438 73.902344 42.101562 74.609375 42.101562 75.359375 C 42.101562 76.109375 42.398438 76.816406 42.929688 77.347656 L 42.957031 77.375 C 43.488281 77.90625 44.195312 78.203125 44.957031 78.203125 C 45.707031 78.203125 46.421875 77.90625 46.953125 77.375 L 52.734375 71.605469 C 52.707031 71.605469 52.699219 71.597656 52.6875 71.589844 Z M 52.6875 71.589844 " fill-opacity="1" fill-rule="nonzero"/></g><path fill="#b1b1b1" d="M 54.609375 69.660156 L 50.65625 65.714844 C 50.253906 65.3125 49.554688 65.3125 49.152344 65.714844 C 48.953125 65.914062 48.839844 66.175781 48.839844 66.464844 C 48.839844 66.734375 48.945312 66.980469 49.117188 67.179688 C 49.128906 67.1875 49.136719 67.207031 49.144531 67.214844 L 53.089844 71.160156 C 53.097656 71.167969 53.117188 71.179688 53.125 71.1875 C 53.316406 71.371094 53.570312 71.464844 53.839844 71.464844 C 54.121094 71.464844 54.390625 71.351562 54.589844 71.152344 C 54.792969 70.949219 54.90625 70.6875 54.90625 70.402344 C 54.921875 70.121094 54.808594 69.859375 54.609375 69.660156 Z M 54.609375 69.660156 " fill-opacity="1" fill-rule="nonzero"/><g clip-path="url(#e3357ce70d)"><path fill="#b1b1b1" d="M 76.839844 58.828125 L 76.0625 58.828125 C 75.566406 58.828125 75.164062 58.425781 75.164062 57.929688 L 75.164062 54.332031 C 75.164062 53.835938 75.566406 53.433594 76.0625 53.433594 L 76.839844 53.433594 C 77.292969 53.433594 77.710938 53.234375 78 52.882812 C 78.289062 52.535156 78.402344 52.082031 78.3125 51.628906 C 78.132812 50.691406 77.878906 49.757812 77.574219 48.859375 C 77.363281 48.25 76.796875 47.832031 76.148438 47.832031 C 75.886719 47.832031 75.636719 47.898438 75.398438 48.03125 L 74.726562 48.425781 C 74.585938 48.503906 74.4375 48.546875 74.28125 48.546875 C 73.960938 48.546875 73.664062 48.371094 73.503906 48.101562 L 71.707031 44.984375 C 71.585938 44.777344 71.558594 44.53125 71.621094 44.304688 C 71.679688 44.078125 71.828125 43.875 72.039062 43.753906 L 72.710938 43.371094 C 73.105469 43.144531 73.367188 42.757812 73.433594 42.3125 C 73.503906 41.871094 73.375 41.414062 73.078125 41.074219 C 72.449219 40.359375 71.769531 39.679688 71.050781 39.050781 C 70.773438 38.804688 70.425781 38.675781 70.058594 38.675781 C 69.523438 38.675781 69.027344 38.960938 68.757812 39.425781 L 68.375 40.097656 C 68.214844 40.375 67.910156 40.542969 67.597656 40.542969 C 67.4375 40.542969 67.28125 40.5 67.152344 40.421875 L 64.027344 38.632812 C 63.597656 38.386719 63.449219 37.835938 63.695312 37.402344 L 64.085938 36.726562 C 64.316406 36.335938 64.347656 35.875 64.191406 35.453125 C 64.035156 35.027344 63.695312 34.703125 63.265625 34.5625 C 62.367188 34.257812 61.433594 34.015625 60.5 33.820312 C 60.40625 33.804688 60.300781 33.796875 60.203125 33.796875 C 59.375 33.796875 58.703125 34.46875 58.703125 35.296875 L 58.703125 36.074219 C 58.703125 36.570312 58.300781 36.972656 57.804688 36.972656 L 54.207031 36.972656 C 53.710938 36.972656 53.308594 36.570312 53.308594 36.074219 L 53.308594 35.296875 C 53.308594 34.46875 52.636719 33.796875 51.808594 33.796875 C 51.710938 33.796875 51.605469 33.804688 51.511719 33.820312 C 50.578125 34.003906 49.644531 34.257812 48.742188 34.5625 C 48.316406 34.710938 47.976562 35.035156 47.820312 35.453125 C 47.660156 35.875 47.695312 36.34375 47.921875 36.726562 L 48.316406 37.402344 C 48.558594 37.828125 48.410156 38.378906 47.984375 38.632812 L 44.867188 40.429688 C 44.730469 40.507812 44.582031 40.550781 44.421875 40.550781 C 44.101562 40.550781 43.804688 40.375 43.648438 40.105469 L 43.261719 39.433594 C 42.992188 38.972656 42.496094 38.683594 41.960938 38.683594 C 41.59375 38.683594 41.246094 38.816406 40.96875 39.058594 C 40.25 39.6875 39.570312 40.367188 38.941406 41.082031 C 38.644531 41.425781 38.515625 41.878906 38.585938 42.324219 C 38.652344 42.769531 38.925781 43.152344 39.308594 43.378906 L 39.980469 43.761719 C 40.410156 44.007812 40.558594 44.558594 40.3125 44.992188 L 38.496094 48.101562 C 38.339844 48.378906 38.035156 48.546875 37.71875 48.546875 C 37.5625 48.546875 37.40625 48.503906 37.273438 48.425781 L 36.601562 48.03125 C 36.375 47.898438 36.113281 47.832031 35.851562 47.832031 C 35.207031 47.832031 34.628906 48.242188 34.429688 48.859375 C 34.125 49.757812 33.878906 50.691406 33.6875 51.628906 C 33.601562 52.074219 33.714844 52.527344 34.003906 52.882812 C 34.289062 53.234375 34.710938 53.433594 35.164062 53.433594 L 35.941406 53.433594 C 36.4375 53.433594 36.839844 53.835938 36.839844 54.332031 L 36.839844 57.929688 C 36.839844 58.425781 36.4375 58.828125 35.941406 58.828125 L 35.164062 58.828125 C 34.710938 58.828125 34.289062 59.027344 34.003906 59.378906 C 33.714844 59.726562 33.601562 60.179688 33.6875 60.632812 C 33.871094 61.570312 34.125 62.503906 34.429688 63.402344 C 34.640625 64.011719 35.207031 64.429688 35.851562 64.429688 C 36.113281 64.429688 36.367188 64.363281 36.601562 64.230469 L 37.273438 63.835938 C 37.414062 63.757812 37.5625 63.714844 37.71875 63.714844 C 38.042969 63.714844 38.339844 63.890625 38.496094 64.160156 L 40.296875 67.277344 C 40.539062 67.703125 40.390625 68.253906 39.964844 68.507812 L 39.292969 68.890625 C 38.898438 69.117188 38.636719 69.503906 38.558594 69.949219 C 38.488281 70.390625 38.621094 70.847656 38.917969 71.1875 C 39.308594 71.632812 39.726562 72.078125 40.164062 72.488281 C 40.445312 72.757812 40.808594 72.898438 41.195312 72.898438 C 41.59375 72.898438 41.972656 72.742188 42.25 72.460938 L 46.945312 67.835938 C 47.234375 67.546875 47.390625 67.164062 47.390625 66.753906 C 47.390625 66.34375 47.226562 65.96875 46.917969 65.679688 C 44.273438 63.175781 42.816406 59.777344 42.816406 56.128906 C 42.816406 48.859375 48.726562 42.953125 55.996094 42.953125 C 63.265625 42.953125 69.175781 48.859375 69.175781 56.128906 C 69.175781 59.777344 67.71875 63.175781 65.066406 65.6875 C 64.769531 65.96875 64.601562 66.351562 64.59375 66.761719 C 64.59375 67.171875 64.75 67.554688 65.039062 67.84375 L 69.734375 72.46875 C 70.015625 72.75 70.390625 72.90625 70.789062 72.90625 C 71.175781 72.90625 71.542969 72.757812 71.820312 72.488281 C 72.25 72.066406 72.667969 71.632812 73.070312 71.1875 C 73.367188 70.847656 73.496094 70.390625 73.425781 69.949219 C 73.355469 69.503906 73.085938 69.117188 72.695312 68.890625 L 72.019531 68.507812 C 71.8125 68.386719 71.664062 68.191406 71.601562 67.957031 C 71.542969 67.722656 71.578125 67.484375 71.691406 67.277344 L 73.488281 64.160156 C 73.644531 63.882812 73.949219 63.714844 74.265625 63.714844 C 74.421875 63.714844 74.578125 63.757812 74.710938 63.835938 L 75.382812 64.230469 C 75.609375 64.363281 75.871094 64.429688 76.132812 64.429688 C 76.777344 64.429688 77.355469 64.019531 77.554688 63.402344 C 77.859375 62.503906 78.105469 61.570312 78.296875 60.632812 C 78.382812 60.1875 78.269531 59.734375 77.984375 59.378906 C 77.710938 59.027344 77.292969 58.828125 76.839844 58.828125 Z M 76.839844 58.828125 " fill-opacity="1" fill-rule="nonzero"/></g><path fill="#b1b1b1" d="M 67.894531 72.199219 C 67.265625 71.570312 66.425781 71.222656 65.527344 71.222656 C 65.195312 71.222656 64.863281 71.273438 64.542969 71.371094 L 52.765625 59.613281 C 53.125 58.445312 52.8125 57.152344 51.9375 56.277344 L 51.222656 55.5625 C 50.882812 55.222656 50.417969 55.03125 49.929688 55.03125 C 49.441406 55.03125 48.988281 55.222656 48.640625 55.5625 C 48.585938 55.617188 48.550781 55.695312 48.550781 55.773438 C 48.550781 55.851562 48.585938 55.929688 48.640625 55.984375 L 50.4375 57.773438 C 50.664062 58 50.792969 58.3125 50.792969 58.636719 C 50.792969 58.957031 50.664062 59.265625 50.4375 59.5 C 50.210938 59.726562 49.894531 59.859375 49.574219 59.859375 C 49.25 59.859375 48.9375 59.726562 48.707031 59.5 L 46.910156 57.710938 C 46.796875 57.597656 46.605469 57.597656 46.492188 57.710938 C 46.152344 58.050781 45.960938 58.511719 45.960938 58.992188 C 45.960938 59.480469 46.152344 59.9375 46.492188 60.277344 L 47.207031 60.992188 C 47.835938 61.621094 48.675781 61.96875 49.574219 61.96875 C 49.90625 61.96875 50.234375 61.917969 50.558594 61.820312 L 62.34375 73.578125 C 61.984375 74.757812 62.296875 76.039062 63.171875 76.914062 C 63.800781 77.539062 64.644531 77.890625 65.535156 77.890625 C 66.425781 77.890625 67.273438 77.539062 67.902344 76.914062 C 68.53125 76.285156 68.878906 75.445312 68.878906 74.546875 C 68.878906 73.675781 68.53125 72.828125 67.894531 72.199219 Z M 66.390625 75.429688 C 66.164062 75.65625 65.851562 75.785156 65.527344 75.785156 C 65.203125 75.785156 64.890625 75.65625 64.664062 75.429688 C 64.4375 75.203125 64.304688 74.894531 64.304688 74.5625 C 64.304688 74.242188 64.4375 73.9375 64.664062 73.699219 C 64.890625 73.472656 65.203125 73.34375 65.527344 73.34375 C 65.851562 73.34375 66.164062 73.472656 66.390625 73.699219 C 66.617188 73.925781 66.75 74.234375 66.75 74.5625 C 66.75 74.886719 66.628906 75.191406 66.390625 75.429688 Z M 66.390625 75.429688 " fill-opacity="1" fill-rule="nonzero"/><path fill="#b1b1b1" d="M 57.925781 63.90625 L 63.527344 58.3125 C 63.546875 58.296875 63.5625 58.285156 63.582031 58.277344 L 64.820312 57.660156 C 64.941406 57.597656 65.054688 57.5 65.136719 57.386719 L 66.269531 55.695312 C 66.480469 55.371094 66.445312 54.945312 66.164062 54.671875 L 65.675781 54.183594 C 65.414062 53.921875 64.96875 53.878906 64.65625 54.078125 L 62.960938 55.207031 C 62.847656 55.285156 62.753906 55.390625 62.691406 55.519531 L 62.070312 56.757812 C 62.0625 56.777344 62.046875 56.792969 62.035156 56.8125 L 56.425781 62.414062 Z M 57.925781 63.90625 " fill-opacity="1" fill-rule="nonzero"/><path fill="#b1b1b1" d="M 53.351562 65.46875 L 52.3125 66.515625 L 53.816406 68.019531 L 54.851562 66.972656 Z M 53.351562 65.46875 " fill-opacity="1" fill-rule="nonzero"/></svg>