<svg xmlns="http://www.w3.org/2000/svg" xmlns:xlink="http://www.w3.org/1999/xlink" width="150" zoomAndPan="magnify" viewBox="0 0 112.5 112.499997" height="150" preserveAspectRatio="xMidYMid meet" version="1.0"><defs><clipPath id="a0f94df1e5"><path d="M 38.082031 33.601562 L 73.921875 33.601562 L 73.921875 78.402344 L 38.082031 78.402344 Z M 38.082031 33.601562 " clip-rule="nonzero"/></clipPath></defs><g clip-path="url(#a0f94df1e5)"><path fill="#b1b1b1" d="M 65.476562 46.488281 L 62.492188 43.507812 C 62.347656 43.363281 62.171875 43.292969 61.964844 43.292969 C 61.761719 43.292969 61.585938 43.367188 61.4375 43.511719 C 61.292969 43.65625 61.222656 43.832031 61.21875 44.039062 C 61.21875 44.242188 61.292969 44.417969 61.433594 44.566406 L 63.148438 46.273438 L 61.964844 46.273438 C 61.757812 46.273438 61.582031 46.347656 61.4375 46.492188 C 61.292969 46.636719 61.21875 46.8125 61.21875 47.019531 L 61.21875 50 C 61.214844 50.308594 61.351562 50.527344 61.628906 50.664062 L 64.199219 51.953125 L 64.199219 55.964844 C 64.199219 56.167969 64.128906 56.34375 63.984375 56.492188 C 63.835938 56.636719 63.660156 56.710938 63.457031 56.710938 C 63.25 56.710938 63.074219 56.636719 62.929688 56.492188 C 62.78125 56.34375 62.710938 56.167969 62.710938 55.964844 L 62.710938 54.472656 C 62.707031 54 62.570312 53.570312 62.296875 53.1875 C 62.023438 52.800781 61.664062 52.527344 61.21875 52.371094 L 61.21875 55.964844 C 61.21875 56.261719 61.277344 56.546875 61.390625 56.820312 C 61.503906 57.09375 61.664062 57.335938 61.875 57.546875 C 62.082031 57.753906 62.324219 57.917969 62.601562 58.03125 C 62.875 58.144531 63.160156 58.199219 63.457031 58.199219 C 63.753906 58.199219 64.039062 58.144531 64.3125 58.03125 C 64.585938 57.917969 64.828125 57.753906 65.035156 57.546875 C 65.246094 57.335938 65.40625 57.09375 65.523438 56.820312 C 65.636719 56.546875 65.691406 56.261719 65.691406 55.964844 L 65.691406 47.019531 C 65.691406 46.8125 65.617188 46.636719 65.476562 46.488281 Z M 64.199219 50.285156 L 62.710938 49.539062 L 62.710938 47.765625 L 64.199219 47.765625 Z M 60.472656 58.199219 L 47.800781 58.199219 C 47.59375 58.199219 47.417969 58.273438 47.273438 58.417969 C 47.128906 58.5625 47.054688 58.738281 47.054688 58.945312 C 47.054688 59.152344 47.128906 59.328125 47.273438 59.472656 C 47.417969 59.617188 47.59375 59.691406 47.800781 59.691406 L 60.472656 59.691406 C 60.679688 59.691406 60.855469 59.617188 61 59.472656 C 61.144531 59.328125 61.21875 59.152344 61.21875 58.945312 C 61.21875 58.738281 61.144531 58.5625 61 58.417969 C 60.855469 58.273438 60.679688 58.199219 60.472656 58.199219 Z M 59.726562 45.527344 C 59.730469 45.230469 59.671875 44.945312 59.558594 44.671875 C 59.445312 44.398438 59.285156 44.15625 59.074219 43.945312 C 58.863281 43.734375 58.621094 43.574219 58.347656 43.460938 C 58.074219 43.347656 57.789062 43.289062 57.492188 43.292969 L 50.78125 43.292969 C 50.488281 43.289062 50.199219 43.347656 49.925781 43.460938 C 49.652344 43.574219 49.410156 43.734375 49.199219 43.945312 C 48.992188 44.15625 48.828125 44.398438 48.714844 44.671875 C 48.601562 44.945312 48.546875 45.230469 48.546875 45.527344 L 48.546875 56.710938 L 59.726562 56.710938 Z M 56.746094 50 C 56.746094 50.207031 56.671875 50.382812 56.527344 50.527344 C 56.382812 50.671875 56.207031 50.746094 56 50.746094 L 52.273438 50.746094 C 52.066406 50.746094 51.894531 50.671875 51.746094 50.527344 C 51.601562 50.382812 51.527344 50.207031 51.527344 50 L 51.527344 47.019531 C 51.527344 46.8125 51.601562 46.636719 51.746094 46.492188 C 51.894531 46.347656 52.066406 46.273438 52.273438 46.273438 L 56 46.273438 C 56.207031 46.273438 56.382812 46.347656 56.527344 46.492188 C 56.671875 46.636719 56.746094 46.8125 56.746094 47.019531 Z M 56 33.601562 C 55.414062 33.601562 54.832031 33.632812 54.25 33.6875 C 53.664062 33.746094 53.085938 33.832031 52.511719 33.949219 C 51.9375 34.0625 51.371094 34.207031 50.808594 34.375 C 50.25 34.546875 49.699219 34.746094 49.160156 34.96875 C 48.617188 35.191406 48.089844 35.445312 47.570312 35.71875 C 47.054688 35.996094 46.554688 36.296875 46.066406 36.625 C 45.582031 36.949219 45.109375 37.296875 44.65625 37.667969 C 44.207031 38.039062 43.773438 38.433594 43.359375 38.847656 C 42.945312 39.261719 42.550781 39.695312 42.179688 40.148438 C 41.808594 40.601562 41.457031 41.070312 41.132812 41.558594 C 40.808594 42.042969 40.507812 42.546875 40.230469 43.0625 C 39.953125 43.578125 39.703125 44.109375 39.480469 44.648438 C 39.253906 45.191406 39.058594 45.738281 38.886719 46.300781 C 38.714844 46.859375 38.574219 47.429688 38.457031 48.003906 C 38.34375 48.578125 38.257812 49.15625 38.199219 49.738281 C 38.140625 50.320312 38.113281 50.90625 38.109375 51.492188 C 38.109375 65.125 54.84375 77.65625 55.5625 78.179688 C 55.691406 78.277344 55.835938 78.328125 56 78.328125 C 56.164062 78.328125 56.3125 78.277344 56.441406 78.179688 C 57.15625 77.65625 73.890625 65.125 73.890625 51.492188 C 73.890625 50.90625 73.863281 50.320312 73.804688 49.738281 C 73.746094 49.15625 73.660156 48.578125 73.542969 48.003906 C 73.429688 47.429688 73.285156 46.859375 73.117188 46.300781 C 72.945312 45.738281 72.746094 45.191406 72.523438 44.648438 C 72.300781 44.109375 72.046875 43.578125 71.773438 43.0625 C 71.496094 42.546875 71.195312 42.042969 70.871094 41.558594 C 70.542969 41.070312 70.195312 40.601562 69.824219 40.148438 C 69.453125 39.695312 69.058594 39.261719 68.644531 38.847656 C 68.230469 38.433594 67.796875 38.039062 67.34375 37.667969 C 66.890625 37.296875 66.421875 36.949219 65.933594 36.625 C 65.449219 36.296875 64.945312 35.996094 64.429688 35.71875 C 63.914062 35.445312 63.386719 35.191406 62.84375 34.96875 C 62.304688 34.746094 61.753906 34.546875 61.191406 34.375 C 60.632812 34.207031 60.0625 34.0625 59.488281 33.949219 C 58.914062 33.832031 58.335938 33.746094 57.753906 33.6875 C 57.171875 33.632812 56.585938 33.601562 56 33.601562 Z M 56 64.910156 C 55.121094 64.910156 54.246094 64.824219 53.382812 64.652344 C 52.519531 64.480469 51.679688 64.226562 50.867188 63.886719 C 50.050781 63.550781 49.277344 63.136719 48.546875 62.648438 C 47.8125 62.160156 47.136719 61.601562 46.511719 60.980469 C 45.890625 60.355469 45.335938 59.679688 44.84375 58.945312 C 44.355469 58.214844 43.941406 57.441406 43.605469 56.625 C 43.265625 55.8125 43.011719 54.972656 42.839844 54.109375 C 42.667969 53.246094 42.582031 52.371094 42.582031 51.492188 C 42.582031 50.609375 42.667969 49.738281 42.839844 48.875 C 43.011719 48.007812 43.265625 47.171875 43.605469 46.355469 C 43.941406 45.542969 44.355469 44.769531 44.84375 44.035156 C 45.335938 43.304688 45.890625 42.625 46.511719 42.003906 C 47.136719 41.378906 47.8125 40.824219 48.546875 40.335938 C 49.277344 39.84375 50.050781 39.433594 50.867188 39.09375 C 51.679688 38.757812 52.519531 38.503906 53.382812 38.332031 C 54.246094 38.160156 55.121094 38.074219 56 38.074219 C 56.882812 38.074219 57.753906 38.160156 58.617188 38.332031 C 59.484375 38.503906 60.320312 38.757812 61.136719 39.09375 C 61.949219 39.433594 62.722656 39.84375 63.457031 40.335938 C 64.1875 40.824219 64.867188 41.378906 65.488281 42.003906 C 66.113281 42.625 66.667969 43.304688 67.15625 44.035156 C 67.648438 44.769531 68.058594 45.542969 68.398438 46.355469 C 68.734375 47.171875 68.988281 48.007812 69.160156 48.875 C 69.332031 49.738281 69.417969 50.609375 69.417969 51.492188 C 69.417969 52.371094 69.332031 53.246094 69.160156 54.109375 C 68.988281 54.972656 68.730469 55.8125 68.394531 56.625 C 68.058594 57.4375 67.644531 58.210938 67.15625 58.941406 C 66.664062 59.675781 66.109375 60.351562 65.484375 60.976562 C 64.863281 61.597656 64.183594 62.15625 63.453125 62.644531 C 62.722656 63.132812 61.949219 63.546875 61.132812 63.886719 C 60.320312 64.222656 59.480469 64.476562 58.617188 64.648438 C 57.753906 64.820312 56.882812 64.910156 56 64.910156 Z M 65.476562 46.488281 L 62.492188 43.507812 C 62.347656 43.363281 62.171875 43.292969 61.964844 43.292969 C 61.761719 43.292969 61.585938 43.367188 61.4375 43.511719 C 61.292969 43.65625 61.222656 43.832031 61.21875 44.039062 C 61.21875 44.242188 61.292969 44.417969 61.433594 44.566406 L 63.148438 46.273438 L 61.964844 46.273438 C 61.757812 46.273438 61.582031 46.347656 61.4375 46.492188 C 61.292969 46.636719 61.21875 46.8125 61.21875 47.019531 L 61.21875 50 C 61.214844 50.308594 61.351562 50.527344 61.628906 50.664062 L 64.199219 51.953125 L 64.199219 55.964844 C 64.199219 56.167969 64.128906 56.34375 63.984375 56.492188 C 63.835938 56.636719 63.660156 56.710938 63.457031 56.710938 C 63.25 56.710938 63.074219 56.636719 62.929688 56.492188 C 62.78125 56.34375 62.710938 56.167969 62.710938 55.964844 L 62.710938 54.472656 C 62.707031 54 62.570312 53.570312 62.296875 53.1875 C 62.023438 52.800781 61.664062 52.527344 61.21875 52.371094 L 61.21875 55.964844 C 61.21875 56.261719 61.277344 56.546875 61.390625 56.820312 C 61.503906 57.09375 61.664062 57.335938 61.875 57.546875 C 62.082031 57.753906 62.324219 57.917969 62.601562 58.03125 C 62.875 58.144531 63.160156 58.199219 63.457031 58.199219 C 63.753906 58.199219 64.039062 58.144531 64.3125 58.03125 C 64.585938 57.917969 64.828125 57.753906 65.035156 57.546875 C 65.246094 57.335938 65.40625 57.09375 65.523438 56.820312 C 65.636719 56.546875 65.691406 56.261719 65.691406 55.964844 L 65.691406 47.019531 C 65.691406 46.8125 65.617188 46.636719 65.476562 46.488281 Z M 64.199219 50.285156 L 62.710938 49.539062 L 62.710938 47.765625 L 64.199219 47.765625 Z M 60.472656 58.199219 L 47.800781 58.199219 C 47.59375 58.199219 47.417969 58.273438 47.273438 58.417969 C 47.128906 58.5625 47.054688 58.738281 47.054688 58.945312 C 47.054688 59.152344 47.128906 59.328125 47.273438 59.472656 C 47.417969 59.617188 47.59375 59.691406 47.800781 59.691406 L 60.472656 59.691406 C 60.679688 59.691406 60.855469 59.617188 61 59.472656 C 61.144531 59.328125 61.21875 59.152344 61.21875 58.945312 C 61.21875 58.738281 61.144531 58.5625 61 58.417969 C 60.855469 58.273438 60.679688 58.199219 60.472656 58.199219 Z M 59.726562 45.527344 C 59.730469 45.230469 59.671875 44.945312 59.558594 44.671875 C 59.445312 44.398438 59.285156 44.15625 59.074219 43.945312 C 58.863281 43.734375 58.621094 43.574219 58.347656 43.460938 C 58.074219 43.347656 57.789062 43.289062 57.492188 43.292969 L 50.78125 43.292969 C 50.488281 43.289062 50.199219 43.347656 49.925781 43.460938 C 49.652344 43.574219 49.410156 43.734375 49.199219 43.945312 C 48.992188 44.15625 48.828125 44.398438 48.714844 44.671875 C 48.601562 44.945312 48.546875 45.230469 48.546875 45.527344 L 48.546875 56.710938 L 59.726562 56.710938 Z M 56.746094 50 C 56.746094 50.207031 56.671875 50.382812 56.527344 50.527344 C 56.382812 50.671875 56.207031 50.746094 56 50.746094 L 52.273438 50.746094 C 52.066406 50.746094 51.894531 50.671875 51.746094 50.527344 C 51.601562 50.382812 51.527344 50.207031 51.527344 50 L 51.527344 47.019531 C 51.527344 46.8125 51.601562 46.636719 51.746094 46.492188 C 51.894531 46.347656 52.066406 46.273438 52.273438 46.273438 L 56 46.273438 C 56.207031 46.273438 56.382812 46.347656 56.527344 46.492188 C 56.671875 46.636719 56.746094 46.8125 56.746094 47.019531 Z M 65.476562 46.488281 L 62.492188 43.507812 C 62.347656 43.363281 62.171875 43.292969 61.964844 43.292969 C 61.761719 43.292969 61.585938 43.367188 61.4375 43.511719 C 61.292969 43.65625 61.222656 43.832031 61.21875 44.039062 C 61.21875 44.242188 61.292969 44.417969 61.433594 44.566406 L 63.148438 46.273438 L 61.964844 46.273438 C 61.757812 46.273438 61.582031 46.347656 61.4375 46.492188 C 61.292969 46.636719 61.21875 46.8125 61.21875 47.019531 L 61.21875 50 C 61.214844 50.308594 61.351562 50.527344 61.628906 50.664062 L 64.199219 51.953125 L 64.199219 55.964844 C 64.199219 56.167969 64.128906 56.34375 63.984375 56.492188 C 63.835938 56.636719 63.660156 56.710938 63.457031 56.710938 C 63.25 56.710938 63.074219 56.636719 62.929688 56.492188 C 62.78125 56.34375 62.710938 56.167969 62.710938 55.964844 L 62.710938 54.472656 C 62.707031 54 62.570312 53.570312 62.296875 53.1875 C 62.023438 52.800781 61.664062 52.527344 61.21875 52.371094 L 61.21875 55.964844 C 61.21875 56.261719 61.277344 56.546875 61.390625 56.820312 C 61.503906 57.09375 61.664062 57.335938 61.875 57.546875 C 62.082031 57.753906 62.324219 57.917969 62.601562 58.03125 C 62.875 58.144531 63.160156 58.199219 63.457031 58.199219 C 63.753906 58.199219 64.039062 58.144531 64.3125 58.03125 C 64.585938 57.917969 64.828125 57.753906 65.035156 57.546875 C 65.246094 57.335938 65.40625 57.09375 65.523438 56.820312 C 65.636719 56.546875 65.691406 56.261719 65.691406 55.964844 L 65.691406 47.019531 C 65.691406 46.8125 65.617188 46.636719 65.476562 46.488281 Z M 64.199219 50.285156 L 62.710938 49.539062 L 62.710938 47.765625 L 64.199219 47.765625 Z M 60.472656 58.199219 L 47.800781 58.199219 C 47.59375 58.199219 47.417969 58.273438 47.273438 58.417969 C 47.128906 58.5625 47.054688 58.738281 47.054688 58.945312 C 47.054688 59.152344 47.128906 59.328125 47.273438 59.472656 C 47.417969 59.617188 47.59375 59.691406 47.800781 59.691406 L 60.472656 59.691406 C 60.679688 59.691406 60.855469 59.617188 61 59.472656 C 61.144531 59.328125 61.21875 59.152344 61.21875 58.945312 C 61.21875 58.738281 61.144531 58.5625 61 58.417969 C 60.855469 58.273438 60.679688 58.199219 60.472656 58.199219 Z M 57.492188 43.292969 L 50.78125 43.292969 C 50.488281 43.289062 50.199219 43.347656 49.925781 43.460938 C 49.652344 43.574219 49.410156 43.734375 49.199219 43.945312 C 48.992188 44.15625 48.828125 44.398438 48.714844 44.671875 C 48.601562 44.945312 48.546875 45.230469 48.546875 45.527344 L 48.546875 56.710938 L 59.726562 56.710938 L 59.726562 45.527344 C 59.730469 45.230469 59.671875 44.945312 59.558594 44.671875 C 59.445312 44.398438 59.285156 44.15625 59.074219 43.945312 C 58.863281 43.734375 58.621094 43.574219 58.347656 43.460938 C 58.074219 43.347656 57.789062 43.289062 57.492188 43.292969 Z M 56.746094 50 C 56.746094 50.207031 56.671875 50.382812 56.527344 50.527344 C 56.382812 50.671875 56.207031 50.746094 56 50.746094 L 52.273438 50.746094 C 52.066406 50.746094 51.894531 50.671875 51.746094 50.527344 C 51.601562 50.382812 51.527344 50.207031 51.527344 50 L 51.527344 47.019531 C 51.527344 46.8125 51.601562 46.636719 51.746094 46.492188 C 51.894531 46.347656 52.066406 46.273438 52.273438 46.273438 L 56 46.273438 C 56.207031 46.273438 56.382812 46.347656 56.527344 46.492188 C 56.671875 46.636719 56.746094 46.8125 56.746094 47.019531 Z M 56.746094 50 " fill-opacity="1" fill-rule="nonzero"/></g></svg>