<svg xmlns="http://www.w3.org/2000/svg" xmlns:xlink="http://www.w3.org/1999/xlink" width="150" zoomAndPan="magnify" viewBox="0 0 112.5 112.499997" height="150" preserveAspectRatio="xMidYMid meet" version="1.0"><defs><clipPath id="b9712d7a89"><path d="M 0 0 L 112.003906 0 L 112.003906 112.003906 L 0 112.003906 Z M 0 0 " clip-rule="nonzero"/></clipPath><clipPath id="5af59202f8"><path d="M 11.199219 0 L 100.800781 0 L 100.800781 112 L 11.199219 112 Z M 11.199219 0 " clip-rule="nonzero"/></clipPath></defs><g clip-path="url(#b9712d7a89)"><path fill="#ffffff" d="M 0 0 L 112.003906 0 L 112.003906 112.003906 L 0 112.003906 Z M 0 0 " fill-opacity="1" fill-rule="nonzero"/><path fill="#ffffff" d="M 0 0 L 112.003906 0 L 112.003906 112.003906 L 0 112.003906 Z M 0 0 " fill-opacity="1" fill-rule="nonzero"/></g><g clip-path="url(#5af59202f8)"><path fill="#b1b1b1" d="M 79.6875 32.222656 L 72.234375 24.765625 C 72.058594 24.59375 71.855469 24.460938 71.625 24.367188 C 71.398438 24.273438 71.160156 24.226562 70.914062 24.230469 C 70.664062 24.230469 70.429688 24.277344 70.199219 24.371094 C 69.972656 24.46875 69.769531 24.601562 69.597656 24.777344 C 69.421875 24.953125 69.289062 25.152344 69.191406 25.382812 C 69.097656 25.609375 69.050781 25.847656 69.046875 26.09375 C 69.046875 26.339844 69.09375 26.578125 69.1875 26.808594 C 69.28125 27.035156 69.414062 27.238281 69.585938 27.414062 L 73.871094 31.679688 L 70.910156 31.679688 C 70.664062 31.683594 70.425781 31.730469 70.199219 31.824219 C 69.96875 31.917969 69.769531 32.054688 69.59375 32.230469 C 69.417969 32.402344 69.285156 32.605469 69.191406 32.832031 C 69.09375 33.058594 69.046875 33.296875 69.046875 33.542969 L 69.046875 41 C 69.042969 41.351562 69.132812 41.675781 69.316406 41.976562 C 69.503906 42.277344 69.753906 42.503906 70.070312 42.65625 L 76.5 45.882812 L 76.5 55.90625 C 76.5 56.15625 76.453125 56.394531 76.359375 56.621094 C 76.265625 56.847656 76.128906 57.050781 75.953125 57.226562 C 75.78125 57.402344 75.578125 57.535156 75.351562 57.628906 C 75.121094 57.722656 74.882812 57.773438 74.636719 57.773438 C 74.390625 57.773438 74.152344 57.722656 73.925781 57.628906 C 73.695312 57.535156 73.492188 57.402344 73.320312 57.226562 C 73.144531 57.050781 73.011719 56.847656 72.914062 56.621094 C 72.820312 56.394531 72.773438 56.15625 72.773438 55.90625 L 72.773438 52.179688 C 72.773438 51.605469 72.683594 51.042969 72.507812 50.492188 C 72.332031 49.941406 72.078125 49.433594 71.742188 48.960938 C 71.410156 48.492188 71.011719 48.082031 70.550781 47.734375 C 70.09375 47.386719 69.589844 47.117188 69.046875 46.925781 L 69.046875 55.90625 C 69.046875 56.273438 69.082031 56.636719 69.152344 57 C 69.226562 57.359375 69.332031 57.707031 69.472656 58.046875 C 69.613281 58.386719 69.785156 58.707031 69.988281 59.015625 C 70.191406 59.320312 70.425781 59.601562 70.683594 59.859375 C 70.941406 60.121094 71.226562 60.351562 71.53125 60.554688 C 71.835938 60.761719 72.160156 60.933594 72.496094 61.074219 C 72.835938 61.214844 73.1875 61.320312 73.546875 61.390625 C 73.90625 61.464844 74.269531 61.5 74.636719 61.5 C 75.003906 61.5 75.367188 61.464844 75.726562 61.390625 C 76.085938 61.320312 76.4375 61.214844 76.777344 61.074219 C 77.117188 60.933594 77.4375 60.761719 77.742188 60.554688 C 78.046875 60.351562 78.332031 60.121094 78.589844 59.859375 C 78.851562 59.601562 79.082031 59.320312 79.285156 59.015625 C 79.488281 58.707031 79.660156 58.386719 79.800781 58.046875 C 79.941406 57.707031 80.046875 57.359375 80.121094 57 C 80.191406 56.636719 80.226562 56.273438 80.226562 55.90625 L 80.226562 33.542969 C 80.222656 33.03125 80.042969 32.589844 79.6875 32.222656 Z M 76.5 41.707031 L 72.773438 39.84375 L 72.773438 35.410156 L 76.5 35.410156 Z M 67.183594 61.5 L 35.5 61.5 C 35.253906 61.5 35.015625 61.546875 34.789062 61.640625 C 34.558594 61.734375 34.359375 61.871094 34.183594 62.042969 C 34.007812 62.21875 33.875 62.421875 33.78125 62.648438 C 33.683594 62.878906 33.636719 63.113281 33.636719 63.363281 C 33.636719 63.609375 33.683594 63.847656 33.78125 64.074219 C 33.875 64.304688 34.007812 64.503906 34.183594 64.679688 C 34.359375 64.855469 34.558594 64.988281 34.789062 65.085938 C 35.015625 65.179688 35.253906 65.226562 35.5 65.226562 L 67.183594 65.226562 C 67.429688 65.226562 67.667969 65.179688 67.894531 65.085938 C 68.125 64.988281 68.324219 64.855469 68.5 64.679688 C 68.675781 64.503906 68.808594 64.304688 68.90625 64.074219 C 69 63.847656 69.046875 63.609375 69.046875 63.363281 C 69.046875 63.113281 69 62.878906 68.90625 62.648438 C 68.808594 62.421875 68.675781 62.21875 68.5 62.042969 C 68.324219 61.871094 68.125 61.734375 67.894531 61.640625 C 67.667969 61.546875 67.429688 61.5 67.183594 61.5 Z M 65.320312 29.816406 C 65.320312 29.449219 65.285156 29.085938 65.214844 28.726562 C 65.140625 28.367188 65.035156 28.015625 64.894531 27.675781 C 64.753906 27.335938 64.582031 27.015625 64.378906 26.710938 C 64.175781 26.40625 63.945312 26.121094 63.683594 25.863281 C 63.425781 25.601562 63.140625 25.371094 62.835938 25.167969 C 62.53125 24.960938 62.207031 24.789062 61.867188 24.648438 C 61.53125 24.511719 61.179688 24.402344 60.820312 24.332031 C 60.460938 24.261719 60.09375 24.226562 59.726562 24.226562 L 42.957031 24.226562 C 42.589844 24.226562 42.226562 24.261719 41.863281 24.332031 C 41.503906 24.402344 41.15625 24.511719 40.816406 24.648438 C 40.476562 24.789062 40.152344 24.960938 39.847656 25.167969 C 39.542969 25.371094 39.261719 25.601562 39 25.863281 C 38.742188 26.121094 38.507812 26.40625 38.304688 26.710938 C 38.101562 27.015625 37.929688 27.335938 37.789062 27.675781 C 37.648438 28.015625 37.542969 28.367188 37.472656 28.726562 C 37.398438 29.085938 37.363281 29.449219 37.363281 29.816406 L 37.363281 57.773438 L 65.320312 57.773438 Z M 57.863281 41 C 57.863281 41.246094 57.816406 41.484375 57.722656 41.710938 C 57.625 41.9375 57.492188 42.140625 57.316406 42.316406 C 57.144531 42.488281 56.941406 42.625 56.714844 42.71875 C 56.484375 42.8125 56.246094 42.863281 56 42.863281 L 46.683594 42.863281 C 46.4375 42.863281 46.199219 42.8125 45.972656 42.71875 C 45.742188 42.625 45.542969 42.488281 45.367188 42.316406 C 45.191406 42.140625 45.058594 41.9375 44.960938 41.710938 C 44.867188 41.484375 44.820312 41.246094 44.820312 41 L 44.820312 33.542969 C 44.820312 33.296875 44.867188 33.058594 44.960938 32.832031 C 45.058594 32.605469 45.191406 32.402344 45.367188 32.230469 C 45.542969 32.054688 45.742188 31.917969 45.972656 31.824219 C 46.199219 31.730469 46.4375 31.683594 46.683594 31.679688 L 56 31.679688 C 56.246094 31.683594 56.484375 31.730469 56.714844 31.824219 C 56.941406 31.917969 57.144531 32.054688 57.316406 32.230469 C 57.492188 32.402344 57.625 32.605469 57.722656 32.832031 C 57.816406 33.058594 57.863281 33.296875 57.863281 33.542969 Z M 56 0 C 54.535156 0 53.074219 0.0742188 51.617188 0.222656 C 50.160156 0.367188 48.714844 0.582031 47.28125 0.871094 C 45.84375 1.15625 44.425781 1.511719 43.023438 1.9375 C 41.625 2.367188 40.246094 2.859375 38.894531 3.421875 C 37.542969 3.980469 36.21875 4.609375 34.929688 5.296875 C 33.636719 5.988281 32.382812 6.742188 31.167969 7.554688 C 29.949219 8.371094 28.773438 9.242188 27.644531 10.171875 C 26.511719 11.101562 25.425781 12.082031 24.390625 13.117188 C 23.355469 14.152344 22.375 15.238281 21.445312 16.367188 C 20.515625 17.5 19.644531 18.675781 18.832031 19.890625 C 18.015625 21.109375 17.265625 22.363281 16.574219 23.652344 C 15.882812 24.945312 15.257812 26.265625 14.695312 27.621094 C 14.132812 28.972656 13.640625 30.347656 13.214844 31.75 C 12.789062 33.152344 12.429688 34.570312 12.144531 36.003906 C 11.855469 37.441406 11.640625 38.886719 11.496094 40.34375 C 11.351562 41.800781 11.277344 43.261719 11.273438 44.726562 C 11.273438 78.8125 53.113281 110.136719 54.902344 111.441406 C 55.226562 111.691406 55.59375 111.816406 56 111.816406 C 56.410156 111.816406 56.777344 111.691406 57.101562 111.441406 C 58.890625 110.136719 100.726562 78.8125 100.726562 44.726562 C 100.726562 43.261719 100.652344 41.800781 100.507812 40.34375 C 100.363281 38.886719 100.144531 37.441406 99.859375 36.003906 C 99.570312 34.570312 99.214844 33.152344 98.789062 31.75 C 98.363281 30.347656 97.867188 28.972656 97.308594 27.621094 C 96.746094 26.265625 96.121094 24.945312 95.429688 23.652344 C 94.738281 22.363281 93.984375 21.109375 93.171875 19.890625 C 92.359375 18.675781 91.484375 17.5 90.558594 16.367188 C 89.628906 15.238281 88.644531 14.152344 87.609375 13.117188 C 86.574219 12.082031 85.492188 11.101562 84.359375 10.171875 C 83.226562 9.242188 82.054688 8.371094 80.835938 7.554688 C 79.617188 6.742188 78.363281 5.988281 77.074219 5.296875 C 75.78125 4.609375 74.460938 3.980469 73.109375 3.421875 C 71.753906 2.859375 70.378906 2.367188 68.976562 1.9375 C 67.578125 1.511719 66.160156 1.15625 64.722656 0.871094 C 63.285156 0.582031 61.839844 0.367188 60.382812 0.222656 C 58.925781 0.0742188 57.464844 0 56 0 Z M 56 78.269531 C 54.902344 78.269531 53.804688 78.21875 52.714844 78.109375 C 51.621094 78 50.535156 77.839844 49.457031 77.625 C 48.378906 77.414062 47.316406 77.144531 46.261719 76.828125 C 45.210938 76.507812 44.179688 76.136719 43.164062 75.71875 C 42.148438 75.296875 41.15625 74.828125 40.1875 74.308594 C 39.21875 73.792969 38.277344 73.226562 37.363281 72.617188 C 36.449219 72.007812 35.570312 71.355469 34.71875 70.65625 C 33.871094 69.960938 33.058594 69.222656 32.28125 68.445312 C 31.503906 67.667969 30.769531 66.855469 30.070312 66.007812 C 29.375 65.15625 28.71875 64.277344 28.109375 63.363281 C 27.5 62.449219 26.933594 61.507812 26.417969 60.539062 C 25.898438 59.570312 25.429688 58.578125 25.011719 57.5625 C 24.589844 56.546875 24.21875 55.515625 23.902344 54.464844 C 23.582031 53.414062 23.316406 52.347656 23.101562 51.269531 C 22.886719 50.191406 22.726562 49.109375 22.617188 48.015625 C 22.511719 46.921875 22.457031 45.824219 22.457031 44.726562 C 22.457031 43.628906 22.511719 42.53125 22.617188 41.4375 C 22.726562 40.34375 22.886719 39.257812 23.101562 38.183594 C 23.316406 37.105469 23.582031 36.039062 23.902344 34.988281 C 24.21875 33.9375 24.589844 32.90625 25.011719 31.890625 C 25.429688 30.875 25.898438 29.882812 26.417969 28.914062 C 26.933594 27.945312 27.5 27.003906 28.109375 26.089844 C 28.71875 25.175781 29.375 24.296875 30.070312 23.445312 C 30.769531 22.597656 31.503906 21.785156 32.28125 21.007812 C 33.058594 20.230469 33.871094 19.492188 34.71875 18.796875 C 35.570312 18.097656 36.449219 17.445312 37.363281 16.835938 C 38.277344 16.222656 39.21875 15.660156 40.1875 15.140625 C 41.15625 14.625 42.148438 14.15625 43.164062 13.734375 C 44.179688 13.316406 45.210938 12.945312 46.261719 12.625 C 47.316406 12.308594 48.378906 12.039062 49.457031 11.824219 C 50.535156 11.613281 51.621094 11.449219 52.714844 11.34375 C 53.804688 11.234375 54.902344 11.179688 56 11.179688 C 57.101562 11.179688 58.195312 11.234375 59.289062 11.34375 C 60.382812 11.449219 61.46875 11.613281 62.546875 11.824219 C 63.621094 12.039062 64.6875 12.308594 65.738281 12.625 C 66.789062 12.945312 67.824219 13.316406 68.839844 13.734375 C 69.851562 14.15625 70.84375 14.625 71.8125 15.140625 C 72.78125 15.660156 73.722656 16.222656 74.636719 16.835938 C 75.550781 17.445312 76.433594 18.097656 77.28125 18.796875 C 78.132812 19.492188 78.945312 20.230469 79.722656 21.007812 C 80.496094 21.785156 81.234375 22.597656 81.929688 23.445312 C 82.628906 24.296875 83.28125 25.175781 83.890625 26.089844 C 84.503906 27.003906 85.066406 27.945312 85.585938 28.914062 C 86.101562 29.882812 86.570312 30.875 86.992188 31.890625 C 87.414062 32.90625 87.78125 33.9375 88.101562 34.988281 C 88.421875 36.039062 88.6875 37.105469 88.902344 38.183594 C 89.117188 39.257812 89.277344 40.34375 89.382812 41.4375 C 89.492188 42.53125 89.546875 43.628906 89.546875 44.726562 C 89.546875 45.824219 89.492188 46.921875 89.382812 48.011719 C 89.273438 49.105469 89.113281 50.191406 88.898438 51.269531 C 88.683594 52.347656 88.414062 53.410156 88.09375 54.460938 C 87.777344 55.511719 87.40625 56.542969 86.984375 57.558594 C 86.566406 58.574219 86.09375 59.566406 85.578125 60.535156 C 85.058594 61.503906 84.496094 62.441406 83.882812 63.355469 C 83.273438 64.269531 82.621094 65.152344 81.921875 66 C 81.226562 66.847656 80.488281 67.660156 79.714844 68.4375 C 78.9375 69.214844 78.125 69.953125 77.273438 70.648438 C 76.425781 71.34375 75.542969 72 74.632812 72.609375 C 73.71875 73.21875 72.777344 73.785156 71.808594 74.300781 C 70.839844 74.820312 69.847656 75.289062 68.835938 75.710938 C 67.820312 76.132812 66.785156 76.5 65.734375 76.820312 C 64.683594 77.140625 63.621094 77.40625 62.542969 77.621094 C 61.464844 77.835938 60.382812 78 59.289062 78.105469 C 58.195312 78.214844 57.097656 78.269531 56 78.269531 Z M 79.6875 32.222656 L 72.234375 24.765625 C 72.058594 24.59375 71.855469 24.460938 71.625 24.367188 C 71.398438 24.273438 71.160156 24.226562 70.914062 24.230469 C 70.664062 24.230469 70.429688 24.277344 70.199219 24.371094 C 69.972656 24.46875 69.769531 24.601562 69.597656 24.777344 C 69.421875 24.953125 69.289062 25.152344 69.191406 25.382812 C 69.097656 25.609375 69.050781 25.847656 69.046875 26.09375 C 69.046875 26.339844 69.09375 26.578125 69.1875 26.808594 C 69.28125 27.035156 69.414062 27.238281 69.585938 27.414062 L 73.871094 31.679688 L 70.910156 31.679688 C 70.664062 31.683594 70.425781 31.730469 70.199219 31.824219 C 69.96875 31.917969 69.769531 32.054688 69.59375 32.230469 C 69.417969 32.402344 69.285156 32.605469 69.191406 32.832031 C 69.09375 33.058594 69.046875 33.296875 69.046875 33.542969 L 69.046875 41 C 69.042969 41.351562 69.132812 41.675781 69.316406 41.976562 C 69.503906 42.277344 69.753906 42.503906 70.070312 42.65625 L 76.5 45.882812 L 76.5 55.90625 C 76.5 56.15625 76.453125 56.394531 76.359375 56.621094 C 76.265625 56.847656 76.128906 57.050781 75.953125 57.226562 C 75.78125 57.402344 75.578125 57.535156 75.351562 57.628906 C 75.121094 57.722656 74.882812 57.773438 74.636719 57.773438 C 74.390625 57.773438 74.152344 57.722656 73.925781 57.628906 C 73.695312 57.535156 73.492188 57.402344 73.320312 57.226562 C 73.144531 57.050781 73.011719 56.847656 72.914062 56.621094 C 72.820312 56.394531 72.773438 56.15625 72.773438 55.90625 L 72.773438 52.179688 C 72.773438 51.605469 72.683594 51.042969 72.507812 50.492188 C 72.332031 49.941406 72.078125 49.433594 71.742188 48.960938 C 71.410156 48.492188 71.011719 48.082031 70.550781 47.734375 C 70.09375 47.386719 69.589844 47.117188 69.046875 46.925781 L 69.046875 55.90625 C 69.046875 56.273438 69.082031 56.636719 69.152344 57 C 69.226562 57.359375 69.332031 57.707031 69.472656 58.046875 C 69.613281 58.386719 69.785156 58.707031 69.988281 59.015625 C 70.191406 59.320312 70.425781 59.601562 70.683594 59.859375 C 70.941406 60.121094 71.226562 60.351562 71.53125 60.554688 C 71.835938 60.761719 72.160156 60.933594 72.496094 61.074219 C 72.835938 61.214844 73.1875 61.320312 73.546875 61.390625 C 73.90625 61.464844 74.269531 61.5 74.636719 61.5 C 75.003906 61.5 75.367188 61.464844 75.726562 61.390625 C 76.085938 61.320312 76.4375 61.214844 76.777344 61.074219 C 77.117188 60.933594 77.4375 60.761719 77.742188 60.554688 C 78.046875 60.351562 78.332031 60.121094 78.589844 59.859375 C 78.851562 59.601562 79.082031 59.320312 79.285156 59.015625 C 79.488281 58.707031 79.660156 58.386719 79.800781 58.046875 C 79.941406 57.707031 80.046875 57.359375 80.121094 57 C 80.191406 56.636719 80.226562 56.273438 80.226562 55.90625 L 80.226562 33.542969 C 80.222656 33.03125 80.042969 32.589844 79.6875 32.222656 Z M 76.5 41.707031 L 72.773438 39.84375 L 72.773438 35.410156 L 76.5 35.410156 Z M 67.183594 61.5 L 35.5 61.5 C 35.253906 61.5 35.015625 61.546875 34.789062 61.640625 C 34.558594 61.734375 34.359375 61.871094 34.183594 62.042969 C 34.007812 62.21875 33.875 62.421875 33.78125 62.648438 C 33.683594 62.878906 33.636719 63.113281 33.636719 63.363281 C 33.636719 63.609375 33.683594 63.847656 33.78125 64.074219 C 33.875 64.304688 34.007812 64.503906 34.183594 64.679688 C 34.359375 64.855469 34.558594 64.988281 34.789062 65.085938 C 35.015625 65.179688 35.253906 65.226562 35.5 65.226562 L 67.183594 65.226562 C 67.429688 65.226562 67.667969 65.179688 67.894531 65.085938 C 68.125 64.988281 68.324219 64.855469 68.5 64.679688 C 68.675781 64.503906 68.808594 64.304688 68.90625 64.074219 C 69 63.847656 69.046875 63.609375 69.046875 63.363281 C 69.046875 63.113281 69 62.878906 68.90625 62.648438 C 68.808594 62.421875 68.675781 62.21875 68.5 62.042969 C 68.324219 61.871094 68.125 61.734375 67.894531 61.640625 C 67.667969 61.546875 67.429688 61.5 67.183594 61.5 Z M 65.320312 29.816406 C 65.320312 29.449219 65.285156 29.085938 65.214844 28.726562 C 65.140625 28.367188 65.035156 28.015625 64.894531 27.675781 C 64.753906 27.335938 64.582031 27.015625 64.378906 26.710938 C 64.175781 26.40625 63.945312 26.121094 63.683594 25.863281 C 63.425781 25.601562 63.140625 25.371094 62.835938 25.167969 C 62.53125 24.960938 62.207031 24.789062 61.867188 24.648438 C 61.53125 24.511719 61.179688 24.402344 60.820312 24.332031 C 60.460938 24.261719 60.09375 24.226562 59.726562 24.226562 L 42.957031 24.226562 C 42.589844 24.226562 42.226562 24.261719 41.863281 24.332031 C 41.503906 24.402344 41.15625 24.511719 40.816406 24.648438 C 40.476562 24.789062 40.152344 24.960938 39.847656 25.167969 C 39.542969 25.371094 39.261719 25.601562 39 25.863281 C 38.742188 26.121094 38.507812 26.40625 38.304688 26.710938 C 38.101562 27.015625 37.929688 27.335938 37.789062 27.675781 C 37.648438 28.015625 37.542969 28.367188 37.472656 28.726562 C 37.398438 29.085938 37.363281 29.449219 37.363281 29.816406 L 37.363281 57.773438 L 65.320312 57.773438 Z M 57.863281 41 C 57.863281 41.246094 57.816406 41.484375 57.722656 41.710938 C 57.625 41.9375 57.492188 42.140625 57.316406 42.316406 C 57.144531 42.488281 56.941406 42.625 56.714844 42.71875 C 56.484375 42.8125 56.246094 42.863281 56 42.863281 L 46.683594 42.863281 C 46.4375 42.863281 46.199219 42.8125 45.972656 42.71875 C 45.742188 42.625 45.542969 42.488281 45.367188 42.316406 C 45.191406 42.140625 45.058594 41.9375 44.960938 41.710938 C 44.867188 41.484375 44.820312 41.246094 44.820312 41 L 44.820312 33.542969 C 44.820312 33.296875 44.867188 33.058594 44.960938 32.832031 C 45.058594 32.605469 45.191406 32.402344 45.367188 32.230469 C 45.542969 32.054688 45.742188 31.917969 45.972656 31.824219 C 46.199219 31.730469 46.4375 31.683594 46.683594 31.679688 L 56 31.679688 C 56.246094 31.683594 56.484375 31.730469 56.714844 31.824219 C 56.941406 31.917969 57.144531 32.054688 57.316406 32.230469 C 57.492188 32.402344 57.625 32.605469 57.722656 32.832031 C 57.816406 33.058594 57.863281 33.296875 57.863281 33.542969 Z M 79.6875 32.222656 L 72.234375 24.765625 C 72.058594 24.59375 71.855469 24.460938 71.625 24.367188 C 71.398438 24.273438 71.160156 24.226562 70.914062 24.230469 C 70.664062 24.230469 70.429688 24.277344 70.199219 24.371094 C 69.972656 24.46875 69.769531 24.601562 69.597656 24.777344 C 69.421875 24.953125 69.289062 25.152344 69.191406 25.382812 C 69.097656 25.609375 69.050781 25.847656 69.046875 26.09375 C 69.046875 26.339844 69.09375 26.578125 69.1875 26.808594 C 69.28125 27.035156 69.414062 27.238281 69.585938 27.414062 L 73.871094 31.679688 L 70.910156 31.679688 C 70.664062 31.683594 70.425781 31.730469 70.199219 31.824219 C 69.96875 31.917969 69.769531 32.054688 69.59375 32.230469 C 69.417969 32.402344 69.285156 32.605469 69.191406 32.832031 C 69.09375 33.058594 69.046875 33.296875 69.046875 33.542969 L 69.046875 41 C 69.042969 41.351562 69.132812 41.675781 69.316406 41.976562 C 69.503906 42.277344 69.753906 42.503906 70.070312 42.65625 L 76.5 45.882812 L 76.5 55.90625 C 76.5 56.15625 76.453125 56.394531 76.359375 56.621094 C 76.265625 56.847656 76.128906 57.050781 75.953125 57.226562 C 75.78125 57.402344 75.578125 57.535156 75.351562 57.628906 C 75.121094 57.722656 74.882812 57.773438 74.636719 57.773438 C 74.390625 57.773438 74.152344 57.722656 73.925781 57.628906 C 73.695312 57.535156 73.492188 57.402344 73.320312 57.226562 C 73.144531 57.050781 73.011719 56.847656 72.914062 56.621094 C 72.820312 56.394531 72.773438 56.15625 72.773438 55.90625 L 72.773438 52.179688 C 72.773438 51.605469 72.683594 51.042969 72.507812 50.492188 C 72.332031 49.941406 72.078125 49.433594 71.742188 48.960938 C 71.410156 48.492188 71.011719 48.082031 70.550781 47.734375 C 70.09375 47.386719 69.589844 47.117188 69.046875 46.925781 L 69.046875 55.90625 C 69.046875 56.273438 69.082031 56.636719 69.152344 57 C 69.226562 57.359375 69.332031 57.707031 69.472656 58.046875 C 69.613281 58.386719 69.785156 58.707031 69.988281 59.015625 C 70.191406 59.320312 70.425781 59.601562 70.683594 59.859375 C 70.941406 60.121094 71.226562 60.351562 71.53125 60.554688 C 71.835938 60.761719 72.160156 60.933594 72.496094 61.074219 C 72.835938 61.214844 73.1875 61.320312 73.546875 61.390625 C 73.90625 61.464844 74.269531 61.5 74.636719 61.5 C 75.003906 61.5 75.367188 61.464844 75.726562 61.390625 C 76.085938 61.320312 76.4375 61.214844 76.777344 61.074219 C 77.117188 60.933594 77.4375 60.761719 77.742188 60.554688 C 78.046875 60.351562 78.332031 60.121094 78.589844 59.859375 C 78.851562 59.601562 79.082031 59.320312 79.285156 59.015625 C 79.488281 58.707031 79.660156 58.386719 79.800781 58.046875 C 79.941406 57.707031 80.046875 57.359375 80.121094 57 C 80.191406 56.636719 80.226562 56.273438 80.226562 55.90625 L 80.226562 33.542969 C 80.222656 33.03125 80.042969 32.589844 79.6875 32.222656 Z M 76.5 41.707031 L 72.773438 39.84375 L 72.773438 35.410156 L 76.5 35.410156 Z M 67.183594 61.5 L 35.5 61.5 C 35.253906 61.5 35.015625 61.546875 34.789062 61.640625 C 34.558594 61.734375 34.359375 61.871094 34.183594 62.042969 C 34.007812 62.21875 33.875 62.421875 33.78125 62.648438 C 33.683594 62.878906 33.636719 63.113281 33.636719 63.363281 C 33.636719 63.609375 33.683594 63.847656 33.78125 64.074219 C 33.875 64.304688 34.007812 64.503906 34.183594 64.679688 C 34.359375 64.855469 34.558594 64.988281 34.789062 65.085938 C 35.015625 65.179688 35.253906 65.226562 35.5 65.226562 L 67.183594 65.226562 C 67.429688 65.226562 67.667969 65.179688 67.894531 65.085938 C 68.125 64.988281 68.324219 64.855469 68.5 64.679688 C 68.675781 64.503906 68.808594 64.304688 68.90625 64.074219 C 69 63.847656 69.046875 63.609375 69.046875 63.363281 C 69.046875 63.113281 69 62.878906 68.90625 62.648438 C 68.808594 62.421875 68.675781 62.21875 68.5 62.042969 C 68.324219 61.871094 68.125 61.734375 67.894531 61.640625 C 67.667969 61.546875 67.429688 61.5 67.183594 61.5 Z M 59.726562 24.226562 L 42.957031 24.226562 C 42.589844 24.226562 42.226562 24.261719 41.863281 24.332031 C 41.503906 24.402344 41.15625 24.511719 40.816406 24.648438 C 40.476562 24.789062 40.152344 24.960938 39.847656 25.167969 C 39.542969 25.371094 39.261719 25.601562 39 25.863281 C 38.742188 26.121094 38.507812 26.40625 38.304688 26.710938 C 38.101562 27.015625 37.929688 27.335938 37.789062 27.675781 C 37.648438 28.015625 37.542969 28.367188 37.472656 28.726562 C 37.398438 29.085938 37.363281 29.449219 37.363281 29.816406 L 37.363281 57.773438 L 65.320312 57.773438 L 65.320312 29.816406 C 65.320312 29.449219 65.285156 29.085938 65.214844 28.726562 C 65.140625 28.367188 65.035156 28.015625 64.894531 27.675781 C 64.753906 27.335938 64.582031 27.015625 64.378906 26.710938 C 64.175781 26.40625 63.945312 26.121094 63.683594 25.863281 C 63.425781 25.601562 63.140625 25.371094 62.835938 25.167969 C 62.53125 24.960938 62.207031 24.789062 61.867188 24.648438 C 61.53125 24.511719 61.179688 24.402344 60.820312 24.332031 C 60.460938 24.261719 60.09375 24.226562 59.726562 24.226562 Z M 57.863281 41 C 57.863281 41.246094 57.816406 41.484375 57.722656 41.710938 C 57.625 41.9375 57.492188 42.140625 57.316406 42.316406 C 57.144531 42.488281 56.941406 42.625 56.714844 42.71875 C 56.484375 42.8125 56.246094 42.863281 56 42.863281 L 46.683594 42.863281 C 46.4375 42.863281 46.199219 42.8125 45.972656 42.71875 C 45.742188 42.625 45.542969 42.488281 45.367188 42.316406 C 45.191406 42.140625 45.058594 41.9375 44.960938 41.710938 C 44.867188 41.484375 44.820312 41.246094 44.820312 41 L 44.820312 33.542969 C 44.820312 33.296875 44.867188 33.058594 44.960938 32.832031 C 45.058594 32.605469 45.191406 32.402344 45.367188 32.230469 C 45.542969 32.054688 45.742188 31.917969 45.972656 31.824219 C 46.199219 31.730469 46.4375 31.683594 46.683594 31.679688 L 56 31.679688 C 56.246094 31.683594 56.484375 31.730469 56.714844 31.824219 C 56.941406 31.917969 57.144531 32.054688 57.316406 32.230469 C 57.492188 32.402344 57.625 32.605469 57.722656 32.832031 C 57.816406 33.058594 57.863281 33.296875 57.863281 33.542969 Z M 57.863281 41 " fill-opacity="1" fill-rule="nonzero"/></g></svg>