<svg xmlns:xlink="http://www.w3.org/1999/xlink" xmlns="http://www.w3.org/2000/svg" width="64" height="64"><g fill="#7E8895"><path d="M58.482 21.668h-1.514v-7.717a.986.986 0 0 0-.189-.58l-6.305-8.713-1.641 1.157 6.117 8.454v7.399h-5.297a1 1 0 0 0-1.008.996v4.567l-2.227 2.198a.99.99 0 0 0-.297.704v8.715c0 .549.451.994 1.01.994h3.783V37.85h-2.775v-7.304l1.643-1.621 2.646 1.741v8.182a1 1 0 0 0 1.008.994h2.775V57.52c0 .822-.68 1.494-1.514 1.494h-2.523a1.506 1.506 0 0 1-1.512-1.494v-9.959c0-1.922-1.584-3.484-3.531-3.484h-5.297V13.951c0-6.04-4.412-10.955-9.836-10.955H16.867c-5.424 0-9.836 4.915-9.836 10.955v37.592H5.518c-.557 0-1.01.447-1.01.996v7.471c0 .549.453.994 1.01.994H43.35a1 1 0 0 0 1.008-.994v-7.471c0-.549-.451-.996-1.008-.996h-1.514v-5.477h5.297c.834 0 1.514.67 1.514 1.494v9.959c0 1.922 1.584 3.484 3.529 3.484h2.523c1.947 0 3.531-1.562 3.531-3.484V39.26l.965-.953a.996.996 0 0 0 .295-.705V22.664c0-.55-.451-.996-1.008-.996zM42.34 59.014H6.525v-5.479H42.34v5.479zM9.049 51.543V13.951c0-4.311 2.988-8.964 7.818-8.964H32c4.828 0 7.818 4.653 7.818 8.964v37.592H9.049zm44.949-22.239l-3.334-2.195v-3.45h6.809v13.53l-.67.66h-2.355v-7.717a1.002 1.002 0 0 0-.45-.828z"/><path d="M30.738 7.976H18.129c-3.34 0-6.055 2.679-6.055 5.975v8.713c0 .55.453.996 1.01.996h22.699c.557 0 1.008-.446 1.008-.996v-8.713c0-3.297-2.715-5.975-6.053-5.975zm-2.269 13.443v.249h-8.07v-.249c0-2.197 1.809-3.983 4.035-3.983 2.224 0 4.035 1.786 4.035 3.983zm6.304.249h-4.287v-.249c0-1.96-.965-3.698-2.447-4.789l2.277-3.373-1.678-1.105-2.406 3.562a6.036 6.036 0 0 0-1.799-.272c-3.338 0-6.053 2.68-6.053 5.976v.249h-4.289V13.95c0-2.198 1.811-3.984 4.037-3.984h12.609c2.227 0 4.035 1.786 4.035 3.984v7.718z"/></g></svg>