<?xml version="1.0" encoding="utf-8"?>
<svg xmlns="http://www.w3.org/2000/svg" width="64" height="64">
<g fill="#e2001a">
	<path class="st0" d="M44,24.6H33.9v2.2h12.2v-5.2L59,31.9L46.5,42.2V37h-25L16,44.8h-3.2c-0.5-2.7-2.7-4.7-5.4-4.7
		c-3,0-5.5,2.6-5.5,5.8c0,3.2,2.5,5.8,5.5,5.8c2.7,0,4.9-2,5.4-4.7h4.3l5.5-7.8h21.8v7.5l18.1-14.9v0L44,17.1V24.6L44,24.6z
		 M19.2,5.4c-1.9,0-3.4,1.6-3.4,3.6c0,2,1.5,3.6,3.4,3.6c1.9,0,3.4-1.6,3.4-3.6C22.6,7,21,5.4,19.2,5.4L19.2,5.4z M7.3,15.2
		c-1.9,0-3.4,1.6-3.4,3.6c0,2,1.5,3.6,3.4,3.6c1.9,0,3.4-1.6,3.4-3.6C10.8,16.8,9.2,15.2,7.3,15.2L7.3,15.2z M6.7,28.3
		c1.9,0,3.4,1.6,3.4,3.6c0,2-1.5,3.6-3.4,3.6c-1.9,0-3.4-1.6-3.4-3.6C3.3,29.9,4.8,28.3,6.7,28.3L6.7,28.3z M7.3,42.3
		c1.9,0,3.4,1.6,3.4,3.6c0,2-1.5,3.6-3.4,3.6c-1.9,0-3.4-1.6-3.4-3.6C3.9,43.9,5.5,42.3,7.3,42.3L7.3,42.3z M19.2,51.7
		c-1.9,0-3.4,1.6-3.4,3.6c0,2,1.5,3.6,3.4,3.6c1.9,0,3.4-1.6,3.4-3.6C22.6,53.3,21,51.7,19.2,51.7L19.2,51.7z M27.1,27h-4.5
		l-4.1-7.1h-5.8c-0.5,2.7-2.7,4.7-5.4,4.7c-3,0-5.5-2.6-5.5-5.8c0-3.2,2.5-5.8,5.5-5.8c2.7,0,4.9,2,5.4,4.7h7l4.1,7.1h3.3V27
		L27.1,27z M12.1,33h20.5v-2.2H12.1c-0.5-2.7-2.7-4.7-5.4-4.7c-3,0-5.5,2.6-5.5,5.7V32c0,3.2,2.5,5.7,5.5,5.7
		C9.3,37.7,11.6,35.7,12.1,33L12.1,33z M21.8,50.2l5-6.1h5.4v2.2h-4.4l-4.3,5.3c0.8,1,1.2,2.3,1.2,3.6c0,3.2-2.5,5.8-5.5,5.8
		s-5.5-2.6-5.5-5.8c0-3.2,2.5-5.8,5.5-5.8C20.1,49.5,21,49.7,21.8,50.2L21.8,50.2z M36.3,19h2.2v-2.2h-2.2V19L36.3,19z M29.2,26.8
		h2.2v-2.2h-2.2V26.8L29.2,26.8z M35.2,46.3h2.2v-2.2h-2.2V46.3L35.2,46.3z M35,33h2.2v-2.2H35V33L35,33z M39.5,33h2.2v-2.2h-2.2V33
		L39.5,33z M19.2,14.7c-3,0-5.5-2.6-5.5-5.8c0-3.1,2.3-5.6,5.2-5.8h0.6c2.9,0.2,5.2,2.7,5.2,5.8c0,1.3-0.4,2.5-1.1,3.5l2.8,4.3h6.2
		V19h-7.3l-3.3-5C21.1,14.5,20.2,14.7,19.2,14.7L19.2,14.7z"/>
</g>
</svg>
