<?xml version="1.0" encoding="utf-8"?>
<svg xmlns="http://www.w3.org/2000/svg" width="64" height="64">
<g fill="#ffffff">
<path d="M43.25 24.499c-10.34 0-18.75 8.409-18.75 18.749S32.91 62 43.25 62C53.589 62 62 53.588 62 43.248s-8.411-18.749-18.75-18.749zm0 35.001C34.29 59.5 27 52.209 27 43.248 27 34.289 34.29 27 43.25 27S59.5 34.289 59.5 43.248c0 8.961-7.29 16.252-16.25 16.252z"/><path d="M42 38.248h2.5c.689 0 1.25.562 1.25 1.25h2.5a3.754 3.754 0 0 0-3.75-3.749v-2.501H42v2.501a3.754 3.754 0 0 0-3.75 3.749v.699a3.744 3.744 0 0 0 2.564 3.557l4.08 1.361c.512.17.855.646.855 1.187v.696c0 .689-.561 1.251-1.25 1.251H42c-.689 0-1.25-.562-1.25-1.251h-2.5A3.756 3.756 0 0 0 42 50.75v2.5h2.5v-2.5a3.756 3.756 0 0 0 3.75-3.752v-.696a3.748 3.748 0 0 0-2.564-3.56l-4.08-1.359a1.245 1.245 0 0 1-.855-1.186v-.699A1.252 1.252 0 0 1 42 38.248zm-10 3.751h2.5v2.499H32v-2.499zm20 0h2.5v2.499H52v-2.499zm-28.612 4.87a21.11 21.11 0 0 1-11.753-5.238l3.534-3.533a16.197 16.197 0 0 0 7.883 3.678l.412-2.465A13.7 13.7 0 0 1 12 25.749c0-7.581 6.168-13.751 13.75-13.751a13.7 13.7 0 0 1 13.56 11.459l2.466-.413a16.193 16.193 0 0 0-3.676-7.876l3.533-3.533a21.117 21.117 0 0 1 5.238 11.757l2.484-.273C48.027 11.077 37.879 2 25.75 2 12.654 2 2 12.652 2 25.749c0 12.126 9.076 22.274 21.113 23.604l.275-2.484zm-9.99-10.535l-3.541 3.538A21.191 21.191 0 0 1 4.559 27h4.996a16.206 16.206 0 0 0 3.843 9.334zM9.562 24.499h-5a21.131 21.131 0 0 1 5.326-12.844l3.534 3.534a16.172 16.172 0 0 0-3.86 9.31zm5.629-11.078l-3.535-3.532A21.123 21.123 0 0 1 24.5 4.562v5a16.168 16.168 0 0 0-9.309 3.859zM27 4.557c4.91.285 9.4 2.215 12.874 5.301l-3.541 3.54A16.2 16.2 0 0 0 27 9.555V4.557zm-2.795 52.389c-2.451 1.263-5.479.286-6.751-2.176l-.339-.655 2.179.701.766-2.379-6.255-2.014-1.986 6.259 2.383.756.692-2.18.341.658a7.538 7.538 0 0 0 6.701 4.081 7.456 7.456 0 0 0 3.416-.828l2.221-1.146-1.145-2.223-2.223 1.146zM55.023 15.75a4.962 4.962 0 0 1 .807 3.74l-.131.72-1.301-1.878-2.056 1.424 3.728 5.389 5.391-3.729-1.424-2.056-1.879 1.299.132-.72a7.447 7.447 0 0 0-1.212-5.61 7.447 7.447 0 0 0-4.823-3.111l-2.459-.447-.448 2.459 2.459.448a4.958 4.958 0 0 1 3.216 2.072z"/>
</g>
</svg>