<?xml version="1.0" encoding="utf-8"?>
<svg xmlns="http://www.w3.org/2000/svg" width="64" height="64">
<g fill="#e2001a">
	<path class="st0" d="M61.2,6.2H2.8c-0.6,0-1.1,0.5-1.1,1.1v45c0,0.6,0.5,1.1,1.1,1.1H10v3.3c0,0.6,0.5,1.1,1.1,1.1h9
		c0.6,0,1.1-0.5,1.1-1.1v-3.3h21.7v3.3c0,0.6,0.5,1.1,1.1,1.1h9c0.6,0,1.1-0.5,1.1-1.1v-3.3h7.3c0.6,0,1.1-0.5,1.1-1.1v-45
		C62.3,6.7,61.9,6.2,61.2,6.2z M19,55.5h-6.8v-2.3H19V55.5z M51.8,55.5H45v-2.3h6.8C51.8,53.3,51.8,55.5,51.8,55.5z M52.9,51.2H3.8
		V8.4h56.3v42.8L52.9,51.2L52.9,51.2z"/>
	<path class="st0" d="M56.1,11.3H10.9c-0.6,0-1.1,0.5-1.1,1.1V16H8.1C7.5,16,7,16.5,7,17.1v8c0,0.6,0.5,1.1,1.1,1.1h1.7v7.2H8.1
		c-0.6,0-1.1,0.5-1.1,1.1c0,0,0,0,0,0v8c0,0.6,0.5,1.1,1.1,1.1h1.7v3.6c0,0.6,0.5,1.1,1.1,1.1h45.2c0.6,0,1.1-0.5,1.1-1.1V12.4
		C57.2,11.8,56.7,11.3,56.1,11.3C56.1,11.3,56.1,11.3,56.1,11.3z M9.2,24v-5.8h3.4V24H9.2z M9.2,41.3v-5.8h3.4v5.8H9.2z M55,46H12
		v-2.5h1.7c0.6,0,1.1-0.5,1.1-1.1v-8c0-0.6-0.5-1.1-1.1-1.1H12v-7.2h1.7c0.6,0,1.1-0.5,1.1-1.1v-8c0-0.6-0.5-1.1-1.1-1.1H12v-2.5h43
		L55,46C55,46,55,46,55,46z"/>
	<path class="st0" d="M43.3,21.8c-4.3,0-7.9,3.6-7.9,7.9c0.1,4.4,3.6,7.9,7.9,7.9c4.3,0,7.9-3.6,7.9-7.9S47.7,21.8,43.3,21.8z
		 M43.3,35.5c-3.1,0-5.7-2.6-5.7-5.7c0-3.1,2.6-5.7,5.7-5.7c3.1,0,5.7,2.6,5.7,5.7C49,32.9,46.5,35.5,43.3,35.5z"/>
	<path class="st0" d="M43.3,26c-2,0-3.7,1.6-3.7,3.7c0.1,2.1,1.7,3.7,3.7,3.7c2,0,3.7-1.6,3.7-3.7S45.4,26,43.3,26z M43.3,31.3
		c-0.8,0-1.5-0.7-1.5-1.5c0.1-0.8,0.7-1.5,1.5-1.5c0.8,0,1.5,0.7,1.5,1.5C44.8,30.6,44.1,31.3,43.3,31.3z"/>
</g>
</svg>
