<?xml version="1.0" encoding="utf-8"?>
<svg xmlns="http://www.w3.org/2000/svg" width="64" height="64">
<g fill="#e2001a">
<path d="M51.768 15l-6.25-6.25 6.25-6.25H28.75V0h-2.5v21.25H7.5C4.6 21.25 0 23.625 0 30v8.75c0 2.961 2.187 5.52 5 6.118V58.75h2.5V30H5v12.253c-1.423-.541-2.5-1.94-2.5-3.503V30c0-5.127 3.609-6.25 5-6.25h22.389c-.346 1.718-1.507 2.5-3.639 2.5H17.5v32.5H20v-30h6.25v30h2.5V28.37c2.407-.794 3.75-2.83 3.75-5.87v-1.25h-3.75V15h23.018zM45.732 5l-3.75 3.75 3.75 3.75H28.75V5h16.982z"/>
<path d="M11.25 41.25h2.5v17.5h-2.5zm.5-21.25h2.75a4.255 4.255 0 0 0 4.25-4.25V10.5a4.255 4.255 0 0 0-4.25-4.25h-2.75A4.255 4.255 0 0 0 7.5 10.5v5.25A4.255 4.255 0 0 0 11.75 20zM10 10.5c0-.965.785-1.75 1.75-1.75h2.75c.965 0 1.75.785 1.75 1.75v5.25c0 .965-.785 1.75-1.75 1.75h-2.75c-.965 0-1.75-.785-1.75-1.75V10.5z"/>
</g>
</svg>