<?xml version="1.0" encoding="utf-8"?>
<svg xmlns="http://www.w3.org/2000/svg" width="64" height="64">
<g fill="#ED1C24">
	<path class="st0" d="M20.9,38.7h-7.1c-0.4,0-0.7-0.2-0.9-0.4L10,35.4l1.7-1.7l2.6,2.5h6.6V38.7L20.9,38.7z M20.9,42H30v2.4h-9.1V42
		L20.9,42z M40.7,47.7h11.2c1.3,0,2.1-0.4,2.7-0.9l0,0l0,0c0.7-0.7,1-1.8,1-2.8v-6.5H58V44c0,1.5-0.5,3.1-1.6,4.3v6.3
		c0,0.7-0.5,1.2-1.2,1.2H42.4c-0.7,0-1.2-0.5-1.2-1.2v-2.8h2.4v1.6H54v-3.6c-0.6,0.2-1.3,0.3-2.1,0.3H40.7V47.7L40.7,47.7z
		 M9.4,47.9v5.6h10.4v-1.6h2.4v2.8c0,0.7-0.5,1.2-1.2,1.2H8.2c-0.7,0-1.2-0.5-1.2-1.2v-6.8H9.4L9.4,47.9z M12.4,23.1l2.7-5.2
		c0.5-0.9,1-1.7,1.9-2.3l0,0c0.9-0.6,2-1,3.5-1h22.5c1.5,0,2.6,0.4,3.5,1l0,0l0,0c0.8,0.6,1.4,1.4,1.9,2.3l2.7,5.2l0.5-0.7
		c0.2-0.3,0.6-0.6,1-0.6h8.3c0.7,0,1.2,0.5,1.2,1.2v5.5h0c0,0.5-0.4,1-0.9,1.2L56,31.1c0.1,0.1,0.2,0.3,0.2,0.4l-2.1,1.2
		c-0.3-0.5-0.6-1.1-0.9-1.5L53.1,31c-0.3-0.6-0.2-1.3,0.4-1.7c0.1-0.1,0.2-0.1,0.3-0.1l0,0l5.8-1.6v-3.3h-6.5L50.4,28
		c-0.2,0.2-0.4,0.3-0.6,0.4v0l-4.3,1.5c-0.1,0-0.3,0.1-0.4,0.1v0H18.2c-0.2,0-0.3,0-0.5-0.1l-4.2-1.5c-0.2-0.1-0.4-0.2-0.6-0.4
		l-2.8-3.7H3.7v3.3l5.8,1.6c0.6,0.2,1,0.8,0.9,1.5c0,0.1-0.1,0.3-0.2,0.4l-0.1,0.1c-1,1.7-2.4,3.9-2.4,6.4V44c0,1,0.3,2,1,2.8
		c0.6,0.6,1.4,0.9,2.7,0.9h21.9v2.4H11.5c-2,0-3.4-0.7-4.4-1.7l0,0c-1.2-1.2-1.7-2.9-1.7-4.5v-6.5c0-2.5,1-4.7,2-6.4l-5.1-1.4
		c-0.5-0.1-1-0.6-1-1.2v-5.5c0-0.7,0.5-1.2,1.2-1.2h8.3v0c0.4,0,0.7,0.2,1,0.5L12.4,23.1L12.4,23.1z M49.4,25.3L46.2,19
		c-0.3-0.6-0.7-1.1-1.1-1.5l0,0c-0.5-0.3-1.1-0.5-2.1-0.5H20.5c-1,0-1.6,0.2-2.1,0.5l0,0l0,0c-0.5,0.3-0.8,0.9-1.1,1.5L14,25.3
		l0.7,1l3.7,1.3H45l3.7-1.3L49.4,25.3L49.4,25.3z M38.7,43.1c0.5-0.2,0.8-0.6,0.8-1.1c0-0.9-0.8-1.5-1.6-1.2l-1,0.3
		c-0.5,0.2-0.8,0.6-0.8,1.1c0,0.9,0.8,1.5,1.6,1.2L38.7,43.1L38.7,43.1z M33.1,42.5c-0.9,0.3-1.1,1.4-0.4,2c0.3,0.3,0.8,0.4,1.3,0.3
		l1-0.3c0.9-0.3,1.1-1.4,0.4-2C35,42.1,34.5,42,34,42.2L33.1,42.5L33.1,42.5z M45.8,40.4c0.1-0.1,0.1-0.1,0.2-0.2
		c0.3-0.4,0.3-0.8,0.1-1.1c-0.1-0.3-0.4-0.6-0.8-0.8l0,0c-0.1,0-0.1,0-0.2,0l-0.9-0.2c-1.3-0.2-1.8,1.3-1.1,2.1
		c-0.1,1,1.3,1.9,2.2,0.9L45.8,40.4L45.8,40.4z M35.5,48.8c-1,1.3,0.8,2.8,1.9,1.6l0.7-0.8c1-1.3-0.8-2.8-1.9-1.6L35.5,48.8
		L35.5,48.8z M38.1,45.7c-1,1.3,0.8,2.8,1.9,1.6l0.7-0.8c1-1.3-0.8-2.8-1.9-1.6L38.1,45.7L38.1,45.7z M40.8,42.6
		c-1,1.3,0.8,2.8,1.9,1.6l0.7-0.8c1-1.3-0.8-2.8-1.9-1.6L40.8,42.6L40.8,42.6z M32.2,36c-1.5-0.2-2,2-0.5,2.4l0.1,0l1,0.2
		c1.5,0.2,2-2,0.5-2.4l-0.1,0L32.2,36L32.2,36z M36.2,36.7c-1.5-0.2-2,2-0.5,2.4l0.1,0l1,0.2c1.5,0.2,2-2,0.5-2.4l-0.1,0L36.2,36.7
		L36.2,36.7z M40.2,37.4c-1.5-0.2-2,2-0.5,2.4l0.1,0l1,0.2c1.5,0.2,2-2,0.5-2.4l-0.1,0L40.2,37.4L40.2,37.4z M49.5,36.6l0.4,1.2
		l0.6-0.2l0.3-0.8L50,36.4L49.5,36.6L49.5,36.6z M52.4,34.9l9-3.3l0.8,2.3l-9,3.3L52.5,39l0,0c-0.1,0.3-0.4,0.6-0.7,0.7l-2.2,0.8
		c-0.6,0.2-1.3-0.1-1.6-0.7l-1.3-3.4c-0.2-0.6,0.1-1.3,0.7-1.6l2.2-0.8c0.3-0.1,0.7-0.1,1,0L52.4,34.9L52.4,34.9z"/>
</g>
</svg>
