<?xml version="1.0" encoding="utf-8"?>
<svg xmlns="http://www.w3.org/2000/svg" width="64" height="64">
<g fill="#7E8895">
	<path d="M62.5,23.4v-0.2c0-0.1,0-0.3-0.1-0.4l-3.7-8.6c-0.3-0.7-1-1-1.7-0.8l-4.4,1.4c-1.2-1.5-2.6-2.9-4.2-4.1
		l1.5-4.3c0.2-0.7-0.1-1.4-0.8-1.7l-8.9-3.5c-0.7-0.3-1.4,0-1.8,0.6l-2.1,4c-2-0.2-4-0.2-6,0l-2.1-4c-0.3-0.6-1.1-0.9-1.8-0.6
		l-8.9,3.5c-0.7,0.3-1,1-0.8,1.7l1.5,4.3c-1.6,1.2-3,2.6-4.2,4.1l-4.4-1.4c-0.7-0.2-1.4,0.1-1.7,0.8l-3.7,8.6
		c-0.3,0.6,0,1.4,0.7,1.7l4.2,2c0,0.2,0,0.3-0.1,0.5c-2,0.7-4.2,1.3-6.5,1.7c-0.8,0.1-1.3,0.8-1.3,1.6V45c0,3.5,1.6,6.5,4.7,9.4
		c2.8,2.7,6.9,5.3,12.2,8.3c0.5,0.3,1.2,0.3,1.7,0l0,0l0,0c5.2-3,9.3-5.6,12.2-8.3c0.5-0.5,1-1,1.4-1.5c1,0,2-0.1,3-0.2l2.1,4
		c0.3,0.6,1.1,0.9,1.8,0.6l8.9-3.5c0.7-0.3,1-1,0.8-1.7L48.4,48c1.6-1.2,3-2.6,4.2-4.1l4.5,1.4c0.7,0.2,1.4-0.1,1.7-0.8l3.7-8.6
		c0.1-0.1,0.1-0.3,0.1-0.4v-0.2c0-0.5-0.3-0.9-0.8-1.1l-4.2-2c0.2-1.9,0.2-3.8,0-5.8l4.2-2C62.2,24.3,62.5,23.8,62.5,23.4z M33.3,45
		c0,2.6-1.3,4.9-3.7,7.2c-2.5,2.4-6.1,4.7-10.7,7.4c-4.6-2.7-8.2-5-10.7-7.4c-2.4-2.3-3.7-4.6-3.7-7.2V31.6c2.8-0.6,5.4-1.4,7.9-2.4
		c2.3-1,4.5-2.1,6.5-3.5c2.1,1.5,4.4,2.7,6.8,3.6c2.4,1,4.9,1.7,7.6,2.3V45z M55.4,24.6c-0.5,0.3-0.8,0.8-0.7,1.4
		c0.4,2.3,0.4,4.6,0,6.8c-0.1,0.6,0.2,1.2,0.7,1.4l3.9,1.9l-2.7,6.3l-4.2-1.3c-0.6-0.2-1.2,0-1.6,0.5c-1.4,1.9-3.1,3.5-5,4.8
		c-0.5,0.3-0.7,1-0.5,1.5l1.4,4l-6.5,2.6l-2-3.8c-0.3-0.5-0.9-0.8-1.5-0.7c-0.5,0.1-1.1,0.1-1.6,0.2c0.9-1.6,1.3-3.3,1.3-5.2V30.3
		c0-0.8-0.6-1.4-1.4-1.6c-3-0.6-5.7-1.3-8.3-2.4c-2.5-1-4.9-2.3-7-3.9c-0.6-0.5-1.5-0.4-2.1,0c-1.7,1.3-3.7,2.4-5.9,3.4
		c0-0.5-0.2-1.1-0.8-1.3l-3.9-1.9l2.7-6.3l4.2,1.3c0.6,0.2,1.2,0,1.6-0.5c1.4-1.9,3.1-3.5,5-4.8c0.5-0.3,0.7-1,0.5-1.5l-1.4-4
		l6.5-2.6l2,3.8c0.3,0.5,0.9,0.8,1.5,0.7c2.4-0.4,4.8-0.4,7.1,0c0.6,0.1,1.2-0.2,1.5-0.7l2-3.8l6.5,2.6l-1.4,4
		c-0.2,0.6,0,1.2,0.5,1.5c1.9,1.3,3.6,3,5,4.8c0.4,0.5,1,0.7,1.6,0.5l4.2-1.3l2.7,6.3L55.4,24.6z"/>
	<path d="M13.5,43l-2.4,2.2l4.5,4.6c0.6,0.6,1.7,0.7,2.3,0.1c0.1-0.1,0.1-0.1,0.2-0.2l11.5-13.4l-2.5-2L16.7,46.3
		L13.5,43z"/>
</g>
</svg>
