<?xml version="1.0" encoding="utf-8"?>
<svg xmlns="http://www.w3.org/2000/svg" width="64" height="64">
<g fill="#7E8895">
	<path class="st0" d="M21.4,38.6h-7.2c-0.4,0-0.7-0.2-0.9-0.4l-2.8-2.8l1.7-1.7l2.6,2.6h6.7V38.6L21.4,38.6z M43.4,54l0.5-0.5
		l-1.2-1.2l0,0c-0.4-0.4-1-0.4-1.6-0.4c-1.4,0-3,0-4.9-1.9l0,0l-7.6-7.6c0,0,0-0.1-0.1-0.1c-1.7-1.7-0.7-3.3,0.2-4.6l0,0l0.2-0.2
		l0,0c1-1.6,2-3,3.2-4.4c1.1-1.4,2.4-2.8,3.9-4.4l0,0l0,0l0,0l0,0c0.9-0.9,2.1-1.2,3.2-1c1,0.2,1.9,0.7,2.6,1.3l0,0l0,0l0,0l0,0
		l0.1,0.1l3.2-3.2c-0.4-1.1-0.5-2.2-0.4-3.3c0.2-1.4,0.8-2.7,1.9-3.8l1.7-1.7c1.2-1.2,2.7-1.8,4.3-1.9c1.6-0.1,3.2,0.3,4.5,1.4
		c0.5,0.4,0.6,1.2,0.2,1.7c0,0-0.1,0.1-0.1,0.1l0,0L54,21.4l1.6,1.6l3.1-3.1c0.5-0.5,1.3-0.5,1.7,0c0.1,0.1,0.1,0.1,0.1,0.2
		c1,1.3,1.5,2.9,1.4,4.5c-0.1,1.6-0.7,3.2-1.9,4.4L60,29l-1.6,1.6l0,0c-1.1,1.1-2.4,1.7-3.8,1.9l0,0c-1.1,0.1-2.3,0-3.3-0.4L48,35.3
		l1.2,1.2l-1.7,1.7l-7.6-7.6l0,0l0,0l0,0c-0.3-0.3-0.8-0.6-1.3-0.7c-0.4-0.1-0.8,0-1.1,0.3l0,0l0,0l0,0c-1.4,1.5-2.6,2.8-3.7,4.2
		c-1.1,1.4-2.1,2.7-3,4.2l0,0.1L30.5,39l0,0l0,0c-0.3,0.5-0.8,1.2-0.4,1.5l0,0l7.6,7.6l0,0l0,0c1.2,1.2,2.3,1.2,3.2,1.2
		c1.2,0,2.2,0,3.3,1c0,0,0.1,0,0.1,0.1l1.2,1.2l7.6-7.6c-1.7-1.9-1.7-3.4-1.6-4.9c0-1.2,0-2.3-1.6-4l1.7-1.7
		c2.4,2.4,2.4,4.1,2.3,5.7c0,1,0,1.9,0.9,3.1l0.5-0.5c0.5-0.5,1.3-0.5,1.7,0l3.8,3.8c0.5,0.5,0.5,1.3,0,1.7l-12,12
		c-0.5,0.5-1.3,0.5-1.7,0l-3.8-3.8C42.9,55.3,42.9,54.5,43.4,54L43.4,54z M56.2,44.6L46,54.9l2.1,2.1l10.2-10.2L56.2,44.6L56.2,44.6
		z M43.4,30.8l2.8,2.8l3.8-3.8l0,0c0.4-0.4,1-0.5,1.5-0.2c0.8,0.5,1.7,0.6,2.7,0.5l0,0c0.9-0.1,1.8-0.5,2.4-1.2l0,0l0,0l1.6-1.6
		l0.1-0.1c0.8-0.8,1.2-1.8,1.2-2.8c0-0.6-0.1-1.1-0.2-1.7l-2.8,2.8c-0.5,0.5-1.3,0.5-1.7,0l-3.4-3.4c-0.5-0.5-0.5-1.3,0-1.7l2.8-2.8
		c-0.5-0.2-1-0.2-1.6-0.2c-1,0.1-2,0.5-2.7,1.2l-1.7,1.7c-0.7,0.7-1.1,1.5-1.2,2.4c-0.1,0.9,0,1.8,0.4,2.6c0.3,0.5,0.3,1.1-0.2,1.5
		L43.4,30.8L43.4,30.8z M33.4,49.9L30,53.3c-0.9,0.9-2,1.3-3.1,1.3c-1.1,0-2.3-0.4-3.1-1.3l0,0c0,0-0.1-0.1-0.1-0.1
		c-0.8-0.9-1.2-2-1.2-3c0-1.1,0.4-2.3,1.3-3.1l3.4-3.4l1.7,1.7l-3.4,3.4c-0.4,0.4-0.6,0.9-0.6,1.4c0,0.5,0.2,1,0.5,1.4l0.1,0l0,0
		c0.4,0.4,0.9,0.6,1.4,0.6c0.5,0,1-0.2,1.4-0.6l3.4-3.4L33.4,49.9L33.4,49.9z M12.8,22.9l2.7-5.2c0.5-0.9,1-1.7,1.9-2.3l0,0
		c0.9-0.6,2-1,3.5-1h22.5c0.6,0,1.1,0.1,1.6,0.2l0.1,0c0.5,0.1,0.9,0.3,1.3,0.5L46,15.8c0,0.1,0,0.2,0,0.2c-0.1,0.3-0.2,0.6-0.5,0.7
		l-0.2,0.5c-0.2-0.1-0.4-0.2-0.7-0.2l0,0c-0.3-0.1-0.7-0.1-1.1-0.1H20.9c-1,0-1.6,0.2-2.1,0.5l0,0l0,0c-0.5,0.3-0.8,0.9-1.1,1.5
		l-3.3,6.3l0.7,1l3.7,1.3h14.2v2.4H18.7c-0.2,0-0.3,0-0.5-0.1L14,28.3c-0.2-0.1-0.4-0.2-0.6-0.4l-2.8-3.7H4.2v3.3L10,29
		c0.7,0.2,1,0.8,0.9,1.5c0,0.1-0.1,0.3-0.2,0.4L10.6,31c-1,1.7-2.4,3.9-2.4,6.4v6.5c0,1,0.3,2,1,2.8c0.6,0.6,1.4,0.9,2.7,0.9h7.9V50
		H12c-0.8,0-1.5-0.1-2.1-0.3v3.6h11.6v2.4H8.6c-0.7,0-1.2-0.5-1.2-1.2v-6.3c-1.1-1.2-1.6-2.8-1.6-4.3v-6.5c0-2.5,1-4.7,2-6.4
		l-5.1-1.4c-0.5-0.1-1-0.6-1-1.2v-5.5c0-0.7,0.5-1.2,1.2-1.2h8.3v0c0.4,0,0.7,0.2,1,0.5L12.8,22.9L12.8,22.9z M56.1,40.1v-2.7
		c0-0.4,0-0.8-0.1-1.2c-0.1-0.4-0.2-0.8-0.3-1.2l2.3-0.7c0.1,0.5,0.3,1,0.4,1.5c0.1,0.5,0.1,1,0.1,1.6v2.7H56.1L56.1,40.1z
		 M21.4,41.8h3.3v2.4h-3.3V41.8L21.4,41.8z"/>
</g>
</svg>
