<?xml version="1.0" encoding="utf-8"?>
<svg xmlns="http://www.w3.org/2000/svg" width="64" height="64">
<g fill="#e2001a">
<path d="M25.417 21.505c.043-.566 1.516-2.759 4.417-2.759h4.332c2.901 0 4.374 2.193 4.417 2.75v3.167h2.5v-3.167c0-1.48-1.69-4.118-4.827-4.971 1.276-1.123 2.047-2.784 2.047-4.739v-.51C38.303 7.64 35.652 5 32 5s-6.303 2.64-6.303 6.276v.51c0 1.955.771 3.616 2.047 4.739-3.137.853-4.827 3.49-4.827 4.971v3.167h2.5v-3.158zm2.802-10.229c0-2.253 1.52-3.766 3.781-3.766s3.781 1.513 3.781 3.766v.51c0 2.252-1.52 3.767-3.781 3.767s-3.781-1.515-3.781-3.767v-.51zm8.038 39.586c1.275-1.123 2.046-2.784 2.046-4.739v-.51c0-3.637-2.65-6.276-6.303-6.276s-6.303 2.64-6.303 6.276v.51c0 1.955.771 3.616 2.046 4.739-3.136.853-4.826 3.49-4.826 4.971V59h2.5v-3.158c.043-.565 1.516-2.759 4.417-2.759h4.332c2.901 0 4.374 2.193 4.417 2.75V59h2.5v-3.167c0-1.48-1.69-4.118-4.826-4.971zm-8.038-5.249c0-2.253 1.52-3.766 3.781-3.766s3.781 1.513 3.781 3.766v.51c0 2.252-1.52 3.767-3.781 3.767s-3.781-1.515-3.781-3.767v-.51zM16.09 50.862c1.275-1.123 2.046-2.784 2.046-4.739v-.51c0-3.637-2.65-6.276-6.303-6.276s-6.303 2.64-6.303 6.276v.51c0 1.955.771 3.616 2.046 4.739-3.136.853-4.826 3.49-4.826 4.971V59h2.5v-3.158c.043-.565 1.516-2.759 4.417-2.759h4.332c2.901 0 4.374 2.193 4.417 2.75V59h2.5v-3.167c0-1.48-1.69-4.118-4.826-4.971zm-8.038-5.249c0-2.253 1.52-3.766 3.781-3.766s3.781 1.513 3.781 3.766v.51c0 2.252-1.52 3.767-3.781 3.767s-3.781-1.515-3.781-3.767v-.51zm48.372 5.249c1.275-1.123 2.046-2.784 2.046-4.739v-.51c0-3.637-2.65-6.276-6.303-6.276s-6.303 2.64-6.303 6.276v.51c0 1.955.771 3.616 2.046 4.739-3.136.853-4.826 3.49-4.826 4.971V59h2.5v-3.158c.043-.565 1.516-2.759 4.417-2.759h4.332c2.901 0 4.374 2.193 4.417 2.75V59h2.5v-3.167c0-1.48-1.69-4.118-4.826-4.971zm-8.038-5.249c0-2.253 1.52-3.766 3.781-3.766s3.781 1.513 3.781 3.766v.51c0 2.252-1.52 3.767-3.781 3.767s-3.781-1.515-3.781-3.767v-.51z"/>
<path d="M12.584 31.417H30.75v5.25h2.5v-5.25h18.167v5.25h2.5v-7.75H33.25V24h-2.5v4.917H10.084v7.75h2.5z"/>
</g>
</svg>