<?xml version="1.0" encoding="utf-8"?>
<svg xmlns="http://www.w3.org/2000/svg" xmlns:xlink="http://www.w3.org/1999/xlink" width="64" height="64">
<style type="text/css">
	.st0{clip-path:url(#SVGID_2_);fill:#7E8895;}
</style>
<g>
	<defs>
		<rect id="SVGID_1_" x="5.2" y="1.6" width="53.6" height="60.8"/>
	</defs>
	<clipPath id="SVGID_2_">
		<use xlink:href="#SVGID_1_"  style="overflow:visible;"/>
	</clipPath>
	<path class="st0" d="M27.8,57.5c0.1,0.1,0.2,0.1,0.2,0.1h1.3v0c0.5,0,1,0.3,1.1,0.8c0.2,0.5,0.4,0.9,0.8,1.2l0,0l0,0
		c0.3,0.2,0.6,0.3,0.9,0.3c0.3,0,0.6-0.1,0.8-0.3l0.1,0c0.3-0.3,0.6-0.6,0.7-1.1c0.1-0.5,0.6-0.9,1.2-0.9h1.3c0,0,0.1-0.1,0.2-0.1
		c0.1-0.1,0.2-0.2,0.2-0.3v-5.1h-8.9v5.1C27.6,57.3,27.6,57.4,27.8,57.5 M27.9,60.1c-0.7,0-1.4-0.4-1.9-0.9c-0.5-0.5-0.8-1.3-0.8-2
		V51c0-0.7,0.5-1.2,1.2-1.2h11.3c0.7,0,1.2,0.5,1.2,1.2v6.3c0,0.7-0.3,1.4-0.8,2c-0.5,0.5-1.2,0.9-1.9,0.9h-0.5
		c-0.3,0.6-0.7,1-1.1,1.4c0,0-0.1,0-0.1,0.1c-0.7,0.5-1.5,0.8-2.4,0.8c-0.9,0-1.7-0.3-2.4-0.9l0,0c-0.5-0.4-0.8-0.9-1.1-1.4H27.9z"
		/>
	<path class="st0" d="M40.3,47.7c-0.2,0.9-0.4,1.9-0.8,2.7c-0.6,1-1.4,1.8-2.8,1.8h-9.2c-1.4,0-2.2-0.7-2.8-1.8
		c-0.4-0.8-0.6-1.8-0.8-2.7l0-0.1l0-0.1l0-0.2c0,0,0-0.1,0-0.1c-0.1-0.6-0.3-1.2-0.6-1.9c-0.3-0.7-0.5-1.3-0.9-1.9
		c-0.3-0.6-0.7-1.3-1.1-1.9c-0.4-0.7-0.8-1.3-1.2-2c-0.5-0.9-1-1.8-1.5-2.8c-0.5-1-0.9-2-1.2-3c-0.3-1-0.6-2.1-0.8-3.2h0
		c-0.2-1.1-0.2-2.2-0.1-3.4c0.3-4.2,2.1-7.7,4.8-10.2c2.8-2.5,6.6-4,10.8-4h0h0v0h0c0,0,0.1,0,0.1,0c4.2,0,7.9,1.5,10.7,4
		c2.8,2.5,4.6,6,4.9,10.1l0,0v0c0.1,1.1,0,2.3-0.1,3.4l0,0h0c-0.2,1.1-0.4,2.2-0.8,3.2c-0.3,1-0.8,2-1.2,3c-0.5,1-1,1.9-1.5,2.8
		c-0.4,0.7-0.8,1.3-1.2,2c-0.4,0.7-0.8,1.3-1.1,1.9c-0.3,0.6-0.6,1.3-0.9,1.9c-0.2,0.6-0.4,1.3-0.6,1.9l0,0l0,0.2l0,0L40.3,47.7
		L40.3,47.7L40.3,47.7z M18.8,30.4L18.8,30.4L18.8,30.4z M18.8,30.4c0.1,0.9,0.4,1.9,0.7,2.8c0.3,0.9,0.7,1.8,1.1,2.7
		c0.4,0.8,0.9,1.7,1.4,2.6c0.4,0.7,0.8,1.3,1.2,2c0.4,0.7,0.8,1.3,1.1,2.1c0.4,0.7,0.7,1.4,1,2.2c0.3,0.7,0.5,1.4,0.7,2.2l0.1,0.4
		c0.2,0.7,0.3,1.5,0.6,2c0.2,0.3,0.4,0.5,0.7,0.5h9.2c0.3,0,0.5-0.2,0.7-0.5c0.3-0.5,0.4-1.3,0.6-2c0,0,0-0.1,0-0.1l0-0.2l0,0v0
		c0.2-0.8,0.4-1.5,0.7-2.3c0.3-0.7,0.6-1.4,1-2.2c0.4-0.7,0.8-1.4,1.1-2.1c0.4-0.7,0.8-1.4,1.2-2c0.5-0.8,1-1.7,1.4-2.6
		c0.4-0.9,0.8-1.8,1.1-2.7c0.3-0.9,0.5-1.8,0.7-2.8c0.1-0.9,0.2-1.9,0.1-2.9C45,24,43.5,21.1,41.2,19c-5-4.5-13.4-4.5-18.4,0
		c-2.3,2.1-3.8,5-4,8.5C18.7,28.5,18.7,29.4,18.8,30.4L18.8,30.4z"/>
	<path class="st0" d="M33.2,9.7c0,0.7-0.5,1.2-1.2,1.2c-0.7,0-1.2-0.5-1.2-1.2V2.8c0-0.7,0.5-1.2,1.2-1.2c0.7,0,1.2,0.5,1.2,1.2V9.7
		z"/>
	<path class="st0" d="M46.1,16c-0.5,0.5-1.2,0.5-1.7,0c-0.5-0.5-0.5-1.2,0-1.7l4.9-4.9C49.7,9,50.5,9,51,9.4c0.5,0.5,0.5,1.2,0,1.7
		L46.1,16z"/>
	<path class="st0" d="M50.7,29.6c-0.7,0-1.2-0.5-1.2-1.2c0-0.7,0.5-1.2,1.2-1.2h6.9c0.7,0,1.2,0.5,1.2,1.2c0,0.7-0.5,1.2-1.2,1.2
		H50.7z"/>
	<path class="st0" d="M44.4,42.5c-0.5-0.5-0.5-1.2,0-1.7c0.5-0.5,1.2-0.5,1.7,0l4.9,4.9c0.5,0.5,0.5,1.2,0,1.7
		c-0.5,0.5-1.2,0.5-1.7,0L44.4,42.5z"/>
	<path class="st0" d="M19.6,14.3c0.5,0.5,0.5,1.2,0,1.7c-0.5,0.5-1.2,0.5-1.7,0L13,11.1c-0.5-0.5-0.5-1.2,0-1.7
		c0.5-0.5,1.2-0.5,1.7,0L19.6,14.3z"/>
	<path class="st0" d="M13.3,27.2c0.7,0,1.2,0.5,1.2,1.2c0,0.7-0.5,1.2-1.2,1.2H6.4c-0.7,0-1.2-0.5-1.2-1.2c0-0.7,0.5-1.2,1.2-1.2
		H13.3z"/>
	<path class="st0" d="M17.9,40.7c0.5-0.5,1.2-0.5,1.7,0s0.5,1.2,0,1.7l-4.9,4.9c-0.5,0.5-1.2,0.5-1.7,0c-0.5-0.5-0.5-1.2,0-1.7
		L17.9,40.7z"/>
</g>
</svg>
