<?xml version="1.0" encoding="utf-8"?>
<svg xmlns="http://www.w3.org/2000/svg" xmlns:xlink="http://www.w3.org/1999/xlink" width="64" height="64">
<style type="text/css">
	.st0{clip-path:url(#SVGID_2_);fill:#7E8895;}
</style>
<g>
	<defs>
		<rect id="SVGID_1_" x="6.2" y="3.6" width="51.5" height="56.8"/>
	</defs>
	<clipPath id="SVGID_2_">
		<use xlink:href="#SVGID_1_"  style="overflow:visible;"/>
	</clipPath>
	<path class="st0" d="M44.8,8.1v9.6c-2.1-0.5-5.1-0.7-7.3-0.7c-2.2,0-5.2,0.2-7.3,0.7V8.1c1.2-0.4,4-0.8,7.3-0.8
		C40.8,7.3,43.5,7.7,44.8,8.1 M30.1,19.9c1.2-0.4,4-0.8,7.3-0.8c3.8,0,7,0.5,7.9,1.1c0.5,0.3,1.2,0.1,1.5-0.4
		c0.1-0.2,0.2-0.4,0.2-0.6V7.4c0-0.4-0.2-0.7-0.5-0.9c-1.6-0.9-5.6-1.4-9-1.4c-2.2,0-5.2,0.2-7.3,0.7V3.6h-2.2v34.7h2.2V19.9z"/>
	<path class="st0" d="M48.7,26.9l-0.1-0.2l-1.9,1.1l0.1,0.2c1.8,3.1,2.8,6.6,2.8,10.1c0,11.1-9.2,20.2-20.6,20.2
		c-11.3,0-20.6-9.1-20.6-20.2c0-9.6,6.7-17.7,16.1-19.7v-2.2C13.9,18.3,6.2,27.4,6.2,38.1c0,12.3,10.2,22.3,22.7,22.3
		c12.5,0,22.8-10,22.8-22.3C51.7,34.2,50.7,30.3,48.7,26.9"/>
	<path class="st0" d="M32.6,30.8v2.5c1.6,1.1,2.5,2.9,2.5,4.9c0,3.3-2.8,6-6.1,6s-6.1-2.7-6.1-6c0-1.6,0.6-3,1.7-4.1v-2.7
		c-2.4,1.5-3.9,4-3.9,6.9c0,4.5,3.7,8.2,8.3,8.2s8.3-3.7,8.3-8.2C37.3,34.9,35.4,32.1,32.6,30.8"/>
	<path class="st0" d="M57.4,10.8c-0.2-0.2-0.6-0.3-0.9-0.2c-1.6,0.3-3.7,0.5-5.8,0.5c-0.4,0-2,0-2.4,0L48,11L48,13.2l0.2,0
		c0.4,0,2,0,2.4,0c1.7,0,3.4-0.1,4.9-0.3v9.7c-1.5,0.2-3.2,0.3-4.9,0.3c-3.4,0-6.1-0.4-7.3-0.8v-1.9h-2.2v2.6c0,0.4,0.2,0.7,0.5,0.9
		c1.6,0.9,5.7,1.4,9,1.4c2.2,0,4.5-0.2,6.2-0.5c0.5-0.1,0.9-0.5,0.9-1V11.6C57.8,11.3,57.6,11,57.4,10.8"/>
	<path class="st0" d="M32.6,23.3v2.2c5.7,1.6,9.8,6.7,9.8,12.6c0,7.2-6,13.1-13.4,13.1c-7.4,0-13.4-5.9-13.4-13.1
		c0-5.7,3.6-10.6,8.9-12.4v-2.2c-6.5,1.9-11.1,7.8-11.1,14.6c0,8.4,7,15.2,15.5,15.2c8.6,0,15.5-6.8,15.5-15.2
		C44.5,30.9,39.6,24.9,32.6,23.3"/>
</g>
</svg>
