<svg xmlns:xlink="http://www.w3.org/1999/xlink" xmlns="http://www.w3.org/2000/svg" xmlns:v="https://vecta.io/nano" width="64" height="64" fill="#7e8895"><path d="M13.2 50.3h34.7V11.9H13.2v38.4zm34.7 2.6H13.2v3.2c0 1.2.5 2.3 1.3 3.1s1.9 1.3 3.1 1.3h26c1.2 0 2.3-.5 3.1-1.3s1.3-1.9 1.3-3.1v-3.2h-.1zm.5 8.1c-1.3 1.3-3 2-4.9 2h-26c-1.9 0-3.6-.8-4.9-2-1.3-1.3-2-3-2-4.9V7.8c0-1.9.8-3.6 2-4.9 1.3-1.3 3-2 4.9-2h26c1.9 0 3.6.8 4.9 2h0c1.3 1.3 2 3 2 4.9v48.3c0 1.9-.7 3.6-2 4.9h0zm-.5-51.6V7.8c0-1.2-.5-2.3-1.3-3.1h0c-.8-.8-1.9-1.3-3.1-1.3h-26c-1.2 0-2.3.5-3.1 1.3s-1.3 1.9-1.3 3.1v1.5h34.8v.1zm-21.6 46h8.5V58h-8.5v-2.6zm15.4-29.6c-.1-.2-.2-.4-.3-.4-.1-.1-.3-.1-.5-.3s-.4-.1-.7-.2c-.3 0-.6-.1-.9-.1s-.7-.1-1.1.1c-.4.1-.9.2-1.3.2l-1.6.4c-.6.2-1.2.3-1.9.6l-2.1.8-2.4 1.1c-.1 0 0 .2 0 .1.9-.3 1.7-.4 2.5-.6.8-.3 1.5-.3 2.2-.4.7-.2 1.3-.1 1.9-.1.6-.1 1.1 0 1.6 0 .5-.1.9.1 1.3.1s.8 0 1.1.1.6.1.9.1.5.1.6.1c.2 0 .3.1.5 0 .1-.1.2 0 .3-.2.1-.1.1-.3.1-.4v-.5c0-.3-.1-.4-.2-.5h0zM28 24.2c.2-.3.5-.6.7-.9s.4-.5.7-.8c.2-.2.4-.5.6-.8.2.1.4-.7.5-.7.2-.1.3-.3.5-.7s.3-.4.4-.7c.1-.2.3-.4.4-.6.1 0 .2-.4.4-.6.1-.3.2-.3.3-.5.1-.3.3-.4.4-.7.1-.2.2-.5.3-.7.1-.4.2-.4.2-.6.1-.1.1-.3.2-.5s.1-.5.1-.8c0-.2 0-.5-.1-.5-.1-.2-.2-.3-.3-.3s-.2-.2-.4-.2c-.1-.1-.3.1-.4 0-.2 0-.3.1-.5.1-.2.1-.3.1-.5.2-.1.2-.2.2-.3.3-.1.3-.1.3-.2.5 0 .2-.1.5-.1.6s0 .3-.1.4c0 0 0 .3-.1.4 0 .1-.1.2-.1.5 0 .2-.1.4-.1.5s-.1.2-.1.6c-.1.3-.1.4-.2.6-.1.4-.2.5-.2.8-.1.2-.2.4-.3.7s-.2.4-.2.6c-.1.1-.2.5-.3.6-.1.2-.2.5-.3.6-.1.2-.2.5-.4.7-.1.3-.3.5-.4.7s-.3.5-.4.8c.1.5.3.5.3.4h0zm14.9-6.4c0-.1-.1-.1-.1-.3 0-.1-.1-.2-.2-.3-.1-.2-.2-.1-.2-.2-.1-.2-.2 0-.3-.2-.1 0-.3 0-.4-.1h-.5c-.2 0-.4-.1-.6.1-.2 0-.4.2-.7.2-.2.1-.5.3-.8.3s-.6.4-.9.4l-1 .6c-.4.3-.7.4-1.2.8l-1.3 1-1.4 1.2c-.5.3-1 1-1.6 1.4-.5.4-1.1 1.1-1.7 1.6l-1.9 1.9c-.6.7-1.3 1.4-2 2.1-.1.1 0 .2.1.1l3.9-2.9 1.7-1.1c.6-.4 1.1-.8 1.6-1s1-.6 1.5-.8c.5-.3.9-.5 1.4-.7.4-.3.9-.5 1.2-.6.4-.1.8-.3 1.1-.5.4-.2.7-.4 1-.4.3-.1.6-.1.9-.3.3 0 .5-.2.7-.3.2 0 .4-.1.6-.3s.3-.2.5-.3c.1-.1.2 0 .3-.3.1 0 .2-.3.2-.3 0-.1.1-.2.1-.4v-.4zm-2.1 13.4c0-.1-.1-.1-.2-.1l-.1.1h-.3c-.8 0-1.6.1-2.3.2l-2.4.2-.3.1c0-.1 0-.1-.1-.2a1.38 1.38 0 0 1-.3-.4c-.2-.2-.7-.4-1-.2-.4.1-.2.6-.5.9-.3.4-1.3.2-1.8.4-.2.1-.3.2-.3.4-.1.8 1 .9 1.5.8-.1.4-1.5 4.7-1.6 4.7 0-.1.1-.1.1-.2-.1.2-.2.7-.3.7l.1-.2-.1.1c-.1 0-.2.1-.3.1-.2 0-.5 0-.8.1-.7.3.1 1 .6 1-.3.6-.4 1.3-.6 1.9-.1.3-.2.6-.4.9l-.2.5-.2.6c0-.1.1-.2.1-.2-.1 0-.2.7-.3.8-.2.3-.4.5-.4.8-.1.8.7 1.5 1.3 1.7 1.1.5 2.3-.5 3.2-1.1.4-.3.8-.7 1.2-1 .3-.2.6-.6.7-.9.1-.4 0-.4-.4-.3l-2 1.1c-.7.4-1.5.9-2.3 1 0-.1.1-.3 0-.3-.1-.1-.1.3-.1.3 0-.3.2-.6.3-.9l.5-1.4.9-2.5.2-.7c.1-.1.1-.6.2-.7.2-.1.6-.1.9-.1s.4-.2.7-.2c.3-.1.7-.1 1-.2.2 0 .5-.1.6-.2.2-.1.1-.1.2-.1.3-.1.6 0 .9-.2.1-.1.2-.3 0-.4l-.1.1h-.2c-.4 0-.8.1-1.2.1l-2.3.2 1.4-3.9c-.2.4-.4 1.1-.7 1.7l.5-1.4.4-.9c0-.1.2-.8.3-.8v.1l.1-.1.3-.1c.2-.1.4-.1.5-.1.3 0 .7 0 1-.2.1 0 .1-.1.3-.1.1-.1.3-.1.4-.1.4-.1.7-.2 1.1-.2.3-.1.7-.1 1-.3v-.1h.2c.1-.1.3 0 .5-.1s.9-.2.9-.5h0zm-12.5 8.3c.1.6 0 1.3-.2 1.9-.7 2.1-2.6 3.5-4.5 4.4-.8.4-1.7.7-2.6.9-.5.1-1.1.1-1.6 0-.3 0-1-.1-1.2-.4-.2-.2 0-.2.2-.2l1.5-.3c1.1-.3 2.2-.8 3.2-1.4.9-.6 1.8-1.2 2.5-2 .3-.4.7-.8.9-1.3.1-.2.3-.9.2-1l-.1-.5c0 .1.1.2.1.3 0-.2-.1-.4-.1-.6v.1l-.3-.3c-.2-.2-.4-.2-.6-.3-.4-.1-.7.2-1.1.3-.5.1-1.7-.7-1.2-1.1.2-.2.6-.3.9-.4l1.3-1c.4-.4.8-.9 1.1-1.3.1-.1.7-1.1.7-1.1l-.1.3c.2-.4.4-.7.5-1.1h0v-.1c.2-.5.5-1.6 0-1.7-.3-.1-.7.4-.9.6-1 1-1.9 2.2-2.6 3.3a22.63 22.63 0 0 1-1.3 2c-.2.4-.6.7-.8 1.2l-1.6 3.9-.5 2.1-.1-.1c-.5.5-1.2.2-1.4-.4-.3-.6-.1-1.4-.1-2 0-.7.1-1.5.2-2.2l.3-.8c0-.1.1-.6.1-.6v.1-.1c-.1.2 0-.3 0-.3 0-.2.1-.4.2-.6.1-.4.2-.7.2-1 0-.1.5-1.7.7-1.7v.1l.1-.4c-.1 0 .8-1.9.9-2 .3-.6.5-1.2 1.1-1.6.3-.2.7-1 1.3-.8.3.1.5.5.5.8 0 .2-.1.2-.2.4h.1s-.4.6-.5.6c0 0 .1-.1.1-.2-.6.9-1.1 1.8-1.6 2.8l1-1.9c-.1.1-.9 1.8-1 2l-.8 2.1-.5 2.1c-.2.6-.4 1.2-.5 1.8 0 0 0-.1.1-.1l-.1.9-.1.7c.8-2.6 2-5 3.5-7.2-.6.8-1.1 1.7-1.6 2.5l-.7 1.3c-.2.3-.5.8-.5 1.1 0-.3.3-.7.4-.9a4.67 4.67 0 0 1 .5-1c.3-.6.6-1.2 1-1.7.7-1.2 1.6-2.3 2.4-3.4.4-.5.9-1 1.4-1.5.4-.4.9-.9 1.4-1 1-.2 1.6.9 1.7 1.7.3 2.5-1.9 5.1-4.1 6.1 1.4-.6 2.6 0 2.8 1.2h0z"/></svg>