<svg xmlns="http://www.w3.org/2000/svg" xmlns:xlink="http://www.w3.org/1999/xlink" width="150" zoomAndPan="magnify" viewBox="0 0 112.5 112.499997" height="150" preserveAspectRatio="xMidYMid meet" version="1.0"><defs><clipPath id="96e8a6ecfb"><path d="M 0 7.839844 L 112.003906 7.839844 L 112.003906 101 L 0 101 Z M 0 7.839844 " clip-rule="nonzero"/></clipPath></defs><g clip-path="url(#96e8a6ecfb)"><path fill="#b1b1b1" d="M 52.910156 7.769531 C 52.113281 7.769531 51.308594 8.078125 50.707031 8.675781 C 49.503906 9.882812 49.503906 11.878906 50.707031 13.078125 L 53.472656 15.84375 C 53.527344 15.902344 53.523438 15.996094 53.46875 16.050781 C 53.441406 16.078125 53.410156 16.09375 53.371094 16.09375 L 36.167969 16.09375 C 26.660156 16.09375 18.964844 23.785156 18.964844 33.296875 C 18.964844 34.253906 19.066406 35.179688 19.214844 36.074219 C 19.4375 37.558594 20.675781 38.839844 22.289062 38.839844 C 23.984375 38.839844 25.402344 37.4375 25.402344 35.742188 C 25.402344 35.632812 25.398438 35.480469 25.367188 35.277344 C 25.367188 35.273438 25.367188 35.269531 25.367188 35.261719 C 25.367188 35.253906 25.367188 35.238281 25.367188 35.226562 C 25.257812 34.597656 25.1875 33.953125 25.1875 33.292969 C 25.1875 27.109375 29.988281 22.3125 36.167969 22.3125 L 53.386719 22.3125 C 53.46875 22.3125 53.53125 22.382812 53.527344 22.464844 C 53.527344 22.5 53.511719 22.53125 53.484375 22.5625 L 50.726562 25.320312 C 49.523438 26.523438 49.535156 28.515625 50.742188 29.722656 C 51.949219 30.921875 53.941406 30.925781 55.144531 29.722656 L 63.445312 21.386719 C 64.652344 20.179688 64.652344 18.167969 63.445312 16.972656 L 55.109375 8.683594 C 54.5 8.078125 53.703125 7.765625 52.910156 7.769531 Z M 87.277344 14.347656 C 86.574219 14.347656 85.863281 14.390625 85.160156 14.457031 C 83.644531 14.5 82.390625 15.679688 82.277344 17.195312 L 81.753906 21.953125 C 80.925781 22.226562 80.113281 22.5625 79.332031 22.953125 L 75.597656 19.96875 C 74.445312 18.980469 72.71875 19.03125 71.617188 20.074219 C 71.074219 20.527344 70.554688 20.996094 70.050781 21.496094 C 70.027344 21.523438 69.996094 21.550781 69.96875 21.574219 L 69.96875 21.582031 L 69.964844 21.582031 C 69.9375 21.609375 69.910156 21.636719 69.882812 21.664062 C 69.386719 22.167969 68.917969 22.699219 68.464844 23.242188 C 67.429688 24.347656 67.382812 26.070312 68.371094 27.21875 L 71.371094 30.941406 C 70.988281 31.710938 70.660156 32.5 70.390625 33.316406 L 65.636719 33.835938 C 64.125 33.953125 62.9375 35.203125 62.894531 36.722656 C 62.832031 37.425781 62.789062 38.132812 62.785156 38.839844 C 62.785156 38.878906 62.785156 38.914062 62.785156 38.953125 L 62.785156 38.957031 C 62.785156 38.996094 62.785156 39.035156 62.785156 39.074219 C 62.789062 39.777344 62.832031 40.484375 62.894531 41.1875 C 62.941406 42.703125 64.125 43.957031 65.636719 44.074219 L 70.390625 44.597656 C 70.664062 45.425781 71 46.234375 71.394531 47.011719 L 68.414062 50.746094 C 67.425781 51.898438 67.472656 53.632812 68.515625 54.734375 C 68.96875 55.277344 69.441406 55.796875 69.941406 56.300781 C 69.964844 56.328125 69.992188 56.351562 70.019531 56.378906 L 70.023438 56.382812 L 70.023438 56.386719 C 70.050781 56.414062 70.082031 56.441406 70.109375 56.46875 C 70.609375 56.964844 71.136719 57.425781 71.679688 57.878906 C 72.785156 58.917969 74.511719 58.964844 75.660156 57.972656 L 79.382812 54.976562 C 80.148438 55.355469 80.941406 55.683594 81.757812 55.957031 L 82.277344 60.707031 C 82.394531 62.222656 83.644531 63.410156 85.164062 63.453125 C 85.863281 63.515625 86.570312 63.558594 87.273438 63.5625 C 87.316406 63.5625 87.351562 63.5625 87.390625 63.5625 L 87.398438 63.5625 C 87.441406 63.5625 87.476562 63.5625 87.515625 63.5625 C 88.21875 63.558594 88.925781 63.515625 89.628906 63.453125 C 91.144531 63.40625 92.402344 62.222656 92.515625 60.707031 L 93.03125 55.957031 C 93.863281 55.679688 94.675781 55.34375 95.453125 54.949219 L 99.1875 57.9375 C 100.339844 58.925781 102.066406 58.878906 103.167969 57.832031 C 103.710938 57.378906 104.238281 56.90625 104.738281 56.40625 C 104.765625 56.378906 104.792969 56.359375 104.820312 56.332031 L 104.824219 56.328125 L 104.824219 56.320312 C 104.847656 56.296875 104.878906 56.269531 104.90625 56.242188 C 105.402344 55.742188 105.867188 55.210938 106.320312 54.667969 C 107.359375 53.558594 107.40625 51.839844 106.414062 50.6875 L 103.417969 46.960938 C 103.796875 46.195312 104.125 45.402344 104.394531 44.59375 L 109.148438 44.070312 C 110.664062 43.957031 111.847656 42.703125 111.894531 41.1875 C 111.957031 40.484375 112 39.773438 112.003906 39.070312 C 112.003906 39.03125 112.003906 38.992188 112.003906 38.953125 L 112.003906 38.949219 C 112.003906 38.910156 112.003906 38.871094 112.003906 38.835938 C 112 38.128906 111.957031 37.417969 111.894531 36.714844 C 111.847656 35.199219 110.664062 33.949219 109.148438 33.832031 L 104.394531 33.308594 C 104.125 32.480469 103.785156 31.671875 103.390625 30.890625 L 106.378906 27.15625 C 107.367188 26.003906 107.3125 24.277344 106.269531 23.175781 C 105.816406 22.632812 105.34375 22.109375 104.847656 21.609375 C 104.820312 21.582031 104.796875 21.554688 104.773438 21.523438 L 104.769531 21.523438 L 104.761719 21.519531 C 104.738281 21.496094 104.710938 21.464844 104.683594 21.441406 C 104.183594 20.945312 103.648438 20.480469 103.109375 20.027344 C 102 18.988281 100.273438 18.9375 99.128906 19.929688 L 95.402344 22.933594 C 94.636719 22.550781 93.84375 22.222656 93.03125 21.953125 L 92.515625 17.195312 C 92.398438 15.679688 91.140625 14.5 89.625 14.457031 C 88.921875 14.390625 88.21875 14.347656 87.511719 14.347656 C 87.472656 14.347656 87.4375 14.347656 87.398438 14.347656 L 87.386719 14.347656 C 87.347656 14.347656 87.320312 14.347656 87.277344 14.347656 Z M 87.128906 29.167969 C 87.195312 29.167969 87.261719 29.167969 87.324219 29.167969 C 87.347656 29.167969 87.371094 29.167969 87.390625 29.167969 C 92.796875 29.167969 97.179688 33.546875 97.183594 38.953125 C 97.183594 44.359375 92.800781 48.738281 87.398438 48.742188 C 87.394531 48.742188 87.390625 48.742188 87.390625 48.742188 C 81.988281 48.738281 77.605469 44.355469 77.605469 38.953125 C 77.605469 33.648438 81.828125 29.3125 87.128906 29.167969 Z M 20.875 43.792969 C 12.683594 43.875 6.070312 50.5625 6.070312 58.753906 C 6.070312 61.742188 7.0625 64.613281 8.726562 67.078125 C 3.46875 70.894531 0 77.019531 0 84.019531 L 0 92.660156 C 0 97.039062 3.570312 100.617188 7.949219 100.617188 L 34.105469 100.617188 C 38.484375 100.617188 42.054688 97.039062 42.054688 92.660156 L 42.054688 84.019531 C 42.054688 77.015625 38.570312 70.898438 33.3125 67.085938 C 34.984375 64.617188 35.984375 61.746094 35.988281 58.753906 C 35.988281 50.515625 29.394531 43.820312 21.035156 43.796875 C 20.984375 43.792969 20.925781 43.792969 20.875 43.792969 Z M 20.949219 50 C 20.976562 50 20.992188 50 21.019531 50 C 21.019531 50 21.023438 50 21.027344 50 C 25.875 50 29.78125 53.910156 29.78125 58.753906 C 29.785156 63.597656 25.875 67.515625 21.027344 67.515625 C 16.183594 67.515625 12.273438 63.597656 12.273438 58.753906 C 12.273438 53.9375 16.136719 50.042969 20.949219 50 Z M 91.046875 67.824219 C 89.347656 67.824219 87.941406 69.222656 87.941406 70.921875 C 87.941406 71.027344 87.941406 71.183594 87.96875 71.382812 C 87.96875 71.390625 87.96875 71.394531 87.96875 71.398438 C 87.96875 71.410156 87.96875 71.425781 87.96875 71.433594 C 88.078125 72.0625 88.152344 72.707031 88.152344 73.367188 C 88.152344 79.550781 83.351562 84.351562 77.171875 84.351562 L 59.949219 84.351562 C 59.871094 84.34375 59.804688 84.277344 59.808594 84.195312 C 59.808594 84.160156 59.824219 84.125 59.851562 84.101562 L 62.613281 81.339844 C 63.816406 80.136719 63.804688 78.144531 62.597656 76.941406 C 61.390625 75.738281 59.398438 75.738281 58.199219 76.941406 L 49.890625 85.273438 C 48.691406 86.476562 48.6875 88.492188 49.890625 89.691406 L 58.226562 97.980469 C 58.832031 98.578125 59.636719 98.886719 60.429688 98.886719 C 61.226562 98.886719 62.027344 98.578125 62.628906 97.980469 C 63.828125 96.773438 63.832031 94.78125 62.628906 93.578125 L 59.867188 90.8125 C 59.8125 90.753906 59.8125 90.660156 59.871094 90.605469 C 59.898438 90.578125 59.929688 90.5625 59.96875 90.5625 L 77.167969 90.5625 C 86.679688 90.5625 94.371094 82.875 94.371094 73.363281 C 94.371094 72.402344 94.273438 71.476562 94.121094 70.582031 C 93.902344 69.101562 92.660156 67.824219 91.046875 67.824219 Z M 28.820312 71.433594 C 33.039062 74.027344 35.851562 78.617188 35.851562 84.015625 L 35.851562 92.65625 C 35.851562 93.746094 35.191406 94.410156 34.105469 94.410156 L 7.949219 94.410156 C 6.863281 94.410156 6.203125 93.742188 6.203125 92.65625 L 6.203125 84.019531 C 6.203125 78.617188 9.03125 74.035156 13.261719 71.445312 C 15.605469 72.878906 18.273438 73.714844 21.027344 73.714844 C 23.796875 73.710938 26.472656 72.878906 28.820312 71.433594 Z M 28.820312 71.433594 " fill-opacity="1" fill-rule="nonzero"/></g></svg>