<svg xmlns="http://www.w3.org/2000/svg" xmlns:xlink="http://www.w3.org/1999/xlink" width="150" zoomAndPan="magnify" viewBox="0 0 112.5 112.499997" height="150" preserveAspectRatio="xMidYMid meet" version="1.0"><defs><clipPath id="611c1262dd"><path d="M 33.601562 37.410156 L 78.402344 37.410156 L 78.402344 74.742188 L 33.601562 74.742188 Z M 33.601562 37.410156 " clip-rule="nonzero"/></clipPath></defs><g clip-path="url(#611c1262dd)"><path fill="#b1b1b1" d="M 54.765625 37.378906 C 54.445312 37.378906 54.125 37.503906 53.882812 37.742188 C 53.402344 38.226562 53.402344 39.023438 53.882812 39.503906 L 54.988281 40.609375 C 55.011719 40.632812 55.011719 40.667969 54.988281 40.691406 C 54.976562 40.703125 54.964844 40.707031 54.949219 40.707031 L 48.066406 40.707031 C 44.265625 40.707031 41.1875 43.785156 41.1875 47.589844 C 41.1875 47.972656 41.226562 48.34375 41.285156 48.703125 C 41.375 49.296875 41.871094 49.808594 42.515625 49.808594 C 43.195312 49.808594 43.761719 49.246094 43.761719 48.566406 C 43.761719 48.523438 43.757812 48.464844 43.746094 48.382812 C 43.746094 48.378906 43.746094 48.378906 43.746094 48.375 C 43.746094 48.371094 43.746094 48.367188 43.746094 48.363281 C 43.703125 48.109375 43.675781 47.851562 43.675781 47.589844 C 43.675781 45.117188 45.597656 43.195312 48.066406 43.195312 L 54.957031 43.195312 C 54.988281 43.195312 55.011719 43.222656 55.011719 43.257812 C 55.011719 43.269531 55.003906 43.285156 54.996094 43.296875 L 53.890625 44.398438 C 53.410156 44.882812 53.414062 45.679688 53.898438 46.160156 C 54.378906 46.640625 55.175781 46.640625 55.65625 46.160156 L 58.980469 42.824219 C 59.460938 42.34375 59.460938 41.539062 58.980469 41.058594 L 55.644531 37.746094 C 55.402344 37.503906 55.082031 37.378906 54.765625 37.378906 Z M 68.511719 40.011719 C 68.230469 40.011719 67.945312 40.027344 67.664062 40.054688 C 67.058594 40.070312 66.558594 40.542969 66.511719 41.148438 L 66.300781 43.050781 C 65.96875 43.160156 65.644531 43.296875 65.332031 43.453125 L 63.839844 42.257812 C 63.378906 41.863281 62.6875 41.882812 62.246094 42.300781 C 62.03125 42.480469 61.820312 42.671875 61.621094 42.871094 C 61.613281 42.878906 61.597656 42.890625 61.589844 42.902344 L 61.585938 42.902344 C 61.574219 42.914062 61.566406 42.925781 61.554688 42.9375 C 61.355469 43.136719 61.167969 43.351562 60.988281 43.566406 C 60.570312 44.011719 60.554688 44.699219 60.949219 45.160156 L 62.148438 46.648438 C 61.996094 46.957031 61.863281 47.273438 61.757812 47.597656 L 59.855469 47.804688 C 59.25 47.851562 58.777344 48.351562 58.757812 48.960938 C 58.734375 49.242188 58.714844 49.523438 58.714844 49.808594 C 58.714844 49.824219 58.714844 49.835938 58.714844 49.851562 L 58.714844 49.855469 C 58.714844 49.871094 58.714844 49.886719 58.714844 49.902344 C 58.714844 50.183594 58.734375 50.464844 58.757812 50.746094 C 58.777344 51.351562 59.25 51.855469 59.855469 51.902344 L 61.757812 52.109375 C 61.867188 52.441406 62 52.765625 62.160156 53.078125 L 60.964844 54.570312 C 60.570312 55.03125 60.589844 55.722656 61.007812 56.164062 C 61.1875 56.382812 61.378906 56.589844 61.578125 56.792969 C 61.585938 56.800781 61.597656 56.8125 61.609375 56.824219 L 61.609375 56.828125 C 61.621094 56.835938 61.632812 56.847656 61.644531 56.859375 C 61.84375 57.058594 62.054688 57.242188 62.273438 57.421875 C 62.714844 57.839844 63.40625 57.855469 63.863281 57.460938 L 65.355469 56.261719 C 65.660156 56.414062 65.976562 56.546875 66.304688 56.652344 L 66.511719 58.554688 C 66.558594 59.160156 67.058594 59.636719 67.664062 59.652344 C 67.945312 59.675781 68.230469 59.695312 68.511719 59.695312 C 68.527344 59.695312 68.542969 59.695312 68.554688 59.695312 L 68.5625 59.695312 C 68.578125 59.695312 68.589844 59.695312 68.605469 59.695312 C 68.886719 59.695312 69.171875 59.675781 69.453125 59.652344 C 70.058594 59.632812 70.5625 59.160156 70.605469 58.554688 L 70.8125 56.652344 C 71.144531 56.542969 71.46875 56.410156 71.78125 56.25 L 73.277344 57.445312 C 73.738281 57.84375 74.425781 57.824219 74.867188 57.40625 C 75.085938 57.222656 75.296875 57.035156 75.496094 56.832031 C 75.507812 56.824219 75.519531 56.816406 75.527344 56.804688 L 75.53125 56.800781 C 75.539062 56.789062 75.550781 56.777344 75.5625 56.769531 C 75.761719 56.566406 75.949219 56.355469 76.128906 56.136719 C 76.542969 55.695312 76.5625 55.007812 76.167969 54.546875 L 74.96875 53.054688 C 75.121094 52.75 75.25 52.433594 75.359375 52.109375 L 77.261719 51.898438 C 77.867188 51.855469 78.339844 51.351562 78.359375 50.746094 C 78.382812 50.464844 78.402344 50.179688 78.402344 49.898438 C 78.402344 49.882812 78.402344 49.867188 78.402344 49.851562 C 78.402344 49.835938 78.402344 49.820312 78.402344 49.804688 C 78.402344 49.523438 78.382812 49.238281 78.359375 48.957031 C 78.339844 48.351562 77.867188 47.851562 77.261719 47.804688 L 75.359375 47.59375 C 75.25 47.265625 75.113281 46.941406 74.957031 46.628906 L 76.152344 45.132812 C 76.546875 44.671875 76.527344 43.980469 76.109375 43.542969 C 75.925781 43.324219 75.738281 43.117188 75.539062 42.914062 C 75.527344 42.902344 75.519531 42.894531 75.511719 42.882812 L 75.507812 42.882812 L 75.503906 42.878906 C 75.496094 42.871094 75.484375 42.859375 75.472656 42.847656 C 75.273438 42.648438 75.0625 42.464844 74.84375 42.28125 C 74.402344 41.867188 73.710938 41.847656 73.25 42.242188 L 71.761719 43.445312 C 71.457031 43.292969 71.140625 43.160156 70.8125 43.050781 L 70.605469 41.148438 C 70.558594 40.542969 70.058594 40.070312 69.449219 40.054688 C 69.167969 40.027344 68.886719 40.011719 68.605469 40.011719 C 68.589844 40.011719 68.574219 40.011719 68.558594 40.011719 L 68.554688 40.011719 C 68.539062 40.011719 68.527344 40.011719 68.511719 40.011719 Z M 68.453125 45.9375 C 68.476562 45.9375 68.503906 45.9375 68.53125 45.9375 C 68.539062 45.9375 68.546875 45.9375 68.558594 45.9375 C 70.71875 45.9375 72.472656 47.691406 72.472656 49.851562 C 72.472656 52.015625 70.722656 53.765625 68.558594 53.769531 C 66.394531 53.765625 64.644531 52.015625 64.644531 49.851562 C 64.644531 47.730469 66.332031 45.996094 68.453125 45.9375 Z M 41.949219 51.789062 C 38.675781 51.820312 36.027344 54.496094 36.027344 57.773438 C 36.027344 58.96875 36.425781 60.117188 37.089844 61.101562 C 34.988281 62.628906 33.601562 65.078125 33.601562 67.878906 L 33.601562 71.335938 C 33.601562 73.085938 35.027344 74.519531 36.78125 74.519531 L 47.242188 74.519531 C 48.992188 74.519531 50.421875 73.085938 50.421875 71.335938 L 50.421875 67.878906 C 50.421875 65.078125 49.03125 62.632812 46.925781 61.105469 C 47.59375 60.117188 47.996094 58.96875 47.996094 57.773438 C 47.996094 54.476562 45.359375 51.800781 42.015625 51.789062 C 41.996094 51.789062 41.972656 51.789062 41.949219 51.789062 Z M 41.980469 54.269531 C 41.992188 54.269531 41.996094 54.269531 42.007812 54.269531 C 42.007812 54.269531 42.011719 54.269531 42.011719 54.269531 C 43.949219 54.269531 45.511719 55.835938 45.511719 57.773438 C 45.515625 59.710938 43.949219 61.277344 42.011719 61.277344 C 40.074219 61.277344 38.507812 59.710938 38.511719 57.773438 C 38.511719 55.847656 40.054688 54.289062 41.980469 54.269531 Z M 70.019531 61.402344 C 69.339844 61.402344 68.777344 61.960938 68.777344 62.640625 C 68.777344 62.683594 68.777344 62.746094 68.789062 62.824219 C 68.789062 62.828125 68.789062 62.828125 68.789062 62.832031 C 68.789062 62.835938 68.789062 62.839844 68.789062 62.84375 C 68.832031 63.097656 68.863281 63.355469 68.863281 63.617188 C 68.863281 66.09375 66.941406 68.011719 64.46875 68.011719 L 57.582031 68.011719 C 57.546875 68.007812 57.523438 67.984375 57.523438 67.949219 C 57.523438 67.933594 57.53125 67.921875 57.539062 67.910156 L 58.644531 66.808594 C 59.128906 66.328125 59.121094 65.527344 58.640625 65.046875 C 58.15625 64.566406 57.359375 64.566406 56.878906 65.046875 L 53.558594 68.378906 C 53.078125 68.863281 53.074219 69.667969 53.558594 70.148438 L 56.890625 73.464844 C 57.132812 73.703125 57.457031 73.828125 57.773438 73.828125 C 58.089844 73.828125 58.410156 73.703125 58.652344 73.464844 C 59.132812 72.980469 59.132812 72.183594 58.652344 71.703125 L 57.546875 70.597656 C 57.527344 70.574219 57.527344 70.535156 57.550781 70.511719 C 57.558594 70.503906 57.574219 70.496094 57.585938 70.496094 L 64.46875 70.496094 C 68.273438 70.496094 71.347656 67.421875 71.347656 63.617188 C 71.347656 63.230469 71.308594 62.863281 71.25 62.503906 C 71.164062 61.910156 70.664062 61.402344 70.019531 61.402344 Z M 45.128906 62.84375 C 46.816406 63.882812 47.941406 65.71875 47.941406 67.878906 L 47.941406 71.335938 C 47.941406 71.769531 47.675781 72.035156 47.242188 72.035156 L 36.78125 72.035156 C 36.347656 72.035156 36.082031 71.769531 36.082031 71.335938 L 36.082031 67.878906 C 36.082031 65.71875 37.214844 63.886719 38.90625 62.851562 C 39.84375 63.421875 40.910156 63.757812 42.011719 63.757812 C 43.117188 63.757812 44.1875 63.421875 45.128906 62.84375 Z M 45.128906 62.84375 " fill-opacity="1" fill-rule="nonzero"/></g></svg>