<svg xmlns:xlink="http://www.w3.org/1999/xlink" xmlns="http://www.w3.org/2000/svg" xmlns:v="https://vecta.io/nano" width="64" height="64" fill="#7e8895"><path d="M36 31c1.8 0 3.6-.7 4.9-2 2.7-2.7 2.7-7.1 0-9.8-1.3-1.3-3-2-4.9-2-1.8 0-3.6.7-4.9 2-2.7 2.7-2.7 7.1 0 9.8 1.4 1.3 3.1 2 4.9 2zm-3.1-10.1c.8-.9 2-1.3 3.2-1.3s2.4.5 3.2 1.3c1.8 1.8 1.8 4.7 0 6.4-.8.9-2 1.3-3.2 1.3s-2.4-.5-3.2-1.3c-1.8-1.7-1.8-4.6 0-6.4zm11.2-3.4c1.4 0 2.8-.6 3.8-1.6 2.1-2.1 2.1-5.5 0-7.6-1-1-2.4-1.6-3.8-1.6s-2.8.6-3.8 1.6c-2.1 2.1-2.1 5.5 0 7.6 1 1.1 2.4 1.6 3.8 1.6zM42 10c.6-.6 1.3-.9 2.1-.9s1.6.3 2.1.9c1.2 1.2 1.2 3.1 0 4.3-.6.6-1.3.9-2.1.9s-1.6-.3-2.1-.9c-1.2-1.2-1.2-3.1 0-4.3zm17.2 23.6c-.9-1.3-3.2-2.3-6-1.7-2.6.6-4 2.4-5.4 5.1l-4.1 2.1c-.8-.7-1.9-1.2-3.4-1.2H34c-.2-.1-.7-.5-1.1-.7-1-.8-2.2-1.6-3.4-1.6h-6c-2 0-4.3 1.4-5.6 2.7L14 42.2l-1.6-1.6c-.5-.5-1.2-.5-1.7 0l-6 6c-.5.5-.5 1.2 0 1.7l14.4 14.4c.5.5 1.2.5 1.7 0l6-6c.5-.5.5-1.2 0-1.7l-1.4-1.4c.2 0 .3-.1.6-.1h16.8c2.2 0 10.4-8.7 10.5-8.8.9-1 5-7.2 6.2-9.9 0-.4 0-.9-.3-1.2zM19.9 60.1L7.2 47.4l4.3-4.3 12.7 12.7-4.3 4.3zm31.5-17c-1.4 1.6-7.4 7.4-8.8 8H25.9c-1.1 0-1.8.3-2.3.7l-7.9-7.9 3.9-3.9c1.1-1 2.8-2 4-2h6c.5 0 1.4.7 2 1.2.9.7 1.6 1.2 2.5 1.2h6.3c1.7 0 2.4.9 2.4 1.8s-.7 1.8-2.4 1.8h-9.6v2.4h9.6c3.1 0 4.8-2.1 4.8-4.2 0-.3-.1-.6-.1-1l4.3-2.2c.2-.1.4-.3.5-.5 1.4-2.7 2.4-3.8 4-4.2 1.3-.3 2.4 0 3.1.3-1.6 2.7-4.9 7.7-5.6 8.5zm-40.77 5.172l1.698-1.696 2.403 2.406-1.698 1.696z"/></svg>