<svg xmlns="http://www.w3.org/2000/svg" xmlns:xlink="http://www.w3.org/1999/xlink" width="150" zoomAndPan="magnify" viewBox="0 0 112.5 112.499997" height="150" preserveAspectRatio="xMidYMid meet" version="1.0"><defs><clipPath id="990201a8f4"><path d="M 34.769531 33.601562 L 77.167969 33.601562 L 77.167969 78.402344 L 34.769531 78.402344 Z M 34.769531 33.601562 " clip-rule="nonzero"/></clipPath></defs><g clip-path="url(#990201a8f4)"><path fill="#b1b1b1" d="M 73.675781 76.042969 L 47.738281 76.042969 C 47.089844 76.042969 46.558594 75.515625 46.558594 74.863281 L 46.558594 66.613281 L 74.855469 66.613281 L 74.855469 74.863281 C 74.855469 75.515625 74.324219 76.042969 73.675781 76.042969 Z M 37.128906 74.867188 L 37.128906 73.472656 C 37.496094 73.605469 37.894531 73.683594 38.304688 73.683594 L 44.199219 73.683594 L 44.199219 74.867188 C 44.199219 75.273438 44.285156 75.675781 44.414062 76.042969 L 38.304688 76.042969 C 37.65625 76.042969 37.128906 75.515625 37.128906 74.867188 Z M 38.304688 35.960938 L 54.8125 35.960938 C 55.460938 35.960938 55.988281 36.488281 55.988281 37.136719 L 55.988281 38.527344 C 55.625 38.402344 55.226562 38.316406 54.8125 38.316406 L 38.304688 38.316406 C 37.898438 38.316406 37.496094 38.402344 37.128906 38.527344 L 37.128906 37.136719 C 37.128906 36.488281 37.65625 35.960938 38.304688 35.960938 Z M 47.738281 54.824219 C 45.792969 54.824219 44.199219 56.414062 44.199219 58.359375 L 44.199219 71.324219 L 38.304688 71.324219 C 37.65625 71.324219 37.128906 70.796875 37.128906 70.148438 L 37.128906 41.855469 C 37.128906 41.207031 37.65625 40.675781 38.304688 40.675781 L 54.8125 40.675781 C 55.460938 40.675781 55.988281 41.207031 55.988281 41.855469 L 55.988281 54.820312 Z M 74.855469 64.253906 L 46.558594 64.253906 L 46.558594 61.894531 L 74.855469 61.894531 Z M 74.855469 58.359375 L 74.855469 59.535156 L 46.558594 59.535156 L 46.558594 58.359375 C 46.558594 57.710938 47.09375 57.179688 47.742188 57.179688 L 73.675781 57.179688 C 74.324219 57.179688 74.855469 57.710938 74.855469 58.359375 Z M 73.675781 54.824219 L 58.347656 54.824219 L 58.347656 37.136719 C 58.347656 35.191406 56.757812 33.601562 54.8125 33.601562 L 38.304688 33.601562 C 36.363281 33.601562 34.769531 35.191406 34.769531 37.136719 L 34.769531 74.867188 C 34.769531 76.8125 36.363281 78.402344 38.304688 78.402344 L 73.675781 78.402344 C 75.621094 78.402344 77.210938 76.8125 77.210938 74.867188 L 77.210938 58.359375 C 77.210938 56.414062 75.621094 54.824219 73.675781 54.824219 " fill-opacity="1" fill-rule="nonzero"/></g><path fill="#b1b1b1" d="M 53.636719 70.148438 L 50.09375 70.148438 C 49.445312 70.148438 48.917969 70.679688 48.917969 71.324219 C 48.917969 71.972656 49.445312 72.507812 50.09375 72.507812 L 53.636719 72.507812 C 54.285156 72.507812 54.8125 71.972656 54.8125 71.324219 C 54.8125 70.679688 54.285156 70.148438 53.636719 70.148438 " fill-opacity="1" fill-rule="nonzero"/><path fill="#b1b1b1" d="M 61.886719 70.148438 L 58.347656 70.148438 C 57.699219 70.148438 57.171875 70.679688 57.171875 71.324219 C 57.171875 71.972656 57.699219 72.507812 58.347656 72.507812 L 61.886719 72.507812 C 62.535156 72.507812 63.066406 71.972656 63.066406 71.324219 C 63.066406 70.679688 62.535156 70.148438 61.886719 70.148438 " fill-opacity="1" fill-rule="nonzero"/></svg>