<svg xmlns="http://www.w3.org/2000/svg" xmlns:xlink="http://www.w3.org/1999/xlink" width="150" zoomAndPan="magnify" viewBox="0 0 112.5 112.499997" height="150" preserveAspectRatio="xMidYMid meet" version="1.0"><defs><clipPath id="e644221cb7"><path d="M 13 0 L 106.726562 0 L 106.726562 112.003906 L 13 112.003906 Z M 13 0 " clip-rule="nonzero"/></clipPath></defs><g clip-path="url(#e644221cb7)"><path fill="#b1b1b1" d="M 78.257812 112.617188 L 37.65625 112.617188 C 32.503906 112.617188 28.304688 108.417969 28.304688 103.265625 L 28.304688 77.449219 L 32.394531 73.640625 L 32.394531 100.914062 C 32.394531 104.890625 35.640625 108.136719 39.617188 108.136719 L 75.683594 108.136719 C 79.660156 108.136719 82.90625 104.890625 82.90625 100.914062 L 82.90625 48.160156 L 87.667969 49.226562 L 87.667969 103.265625 C 87.667969 108.417969 83.464844 112.617188 78.257812 112.617188 Z M 22.089844 73.753906 L 35.304688 61.601562 C 35.027344 60.984375 34.914062 60.257812 34.914062 59.527344 C 34.914062 56.394531 37.433594 53.816406 40.570312 53.816406 C 43.707031 53.816406 46.226562 56.394531 46.226562 59.527344 C 46.226562 59.863281 46.226562 60.257812 46.113281 60.59375 L 57.371094 66.136719 C 58.378906 65.015625 59.835938 64.34375 61.457031 64.34375 C 61.738281 64.34375 62.074219 64.402344 62.355469 64.402344 L 71.539062 45.25 C 70.417969 44.242188 69.746094 42.730469 69.746094 41.105469 C 69.746094 37.96875 72.265625 35.394531 75.402344 35.394531 C 78.371094 35.394531 80.835938 37.746094 81.058594 40.65625 L 90.859375 42.898438 C 91.8125 41.21875 93.660156 40.097656 95.785156 40.097656 L 95.953125 40.097656 L 99.929688 28.5625 C 98.53125 27.550781 97.636719 25.871094 97.636719 23.96875 C 97.636719 20.832031 100.15625 18.3125 103.289062 18.3125 C 106.425781 18.3125 108.945312 20.832031 108.945312 23.96875 C 108.945312 27.105469 106.425781 29.679688 103.289062 29.679688 L 103.066406 29.679688 L 99.148438 41.160156 C 100.546875 42.167969 101.441406 43.847656 101.441406 45.753906 C 101.441406 48.890625 98.921875 51.410156 95.785156 51.410156 C 92.761719 51.410156 90.355469 49.113281 90.128906 46.144531 L 80.332031 43.90625 C 79.324219 45.640625 77.472656 46.761719 75.402344 46.761719 C 75.121094 46.761719 74.84375 46.761719 74.5625 46.703125 L 65.320312 65.855469 C 66.441406 66.921875 67.171875 68.378906 67.171875 70 C 67.171875 73.136719 64.59375 75.714844 61.457031 75.714844 C 58.320312 75.714844 55.800781 73.136719 55.800781 70 C 55.800781 69.722656 55.800781 69.441406 55.859375 69.105469 L 44.546875 63.5625 C 43.539062 64.570312 42.136719 65.183594 40.570312 65.183594 C 39.394531 65.183594 38.273438 64.847656 37.378906 64.234375 L 24.386719 76.21875 C 24.722656 76.945312 24.945312 77.785156 24.945312 78.625 C 24.945312 81.761719 22.371094 84.28125 19.234375 84.28125 C 16.097656 84.28125 13.578125 81.761719 13.578125 78.625 C 13.578125 75.488281 16.097656 72.96875 19.234375 72.96875 C 20.296875 72.96875 21.25 73.25 22.089844 73.753906 Z M 82.90625 37.296875 L 82.90625 11.648438 C 82.90625 7.671875 79.660156 4.425781 75.683594 4.425781 L 73.164062 4.425781 C 71.648438 6.886719 69.019531 8.398438 66.105469 8.398438 L 49.136719 8.398438 C 46.226562 8.398438 43.59375 6.886719 42.082031 4.425781 L 39.617188 4.425781 C 35.640625 4.425781 32.394531 7.671875 32.394531 11.648438 L 32.394531 59.472656 L 28.304688 63.226562 L 28.304688 44.351562 L 27.800781 44.351562 L 27.800781 35.5625 L 28.304688 35.5625 L 28.304688 33.320312 L 27.746094 33.320312 L 27.746094 24.417969 L 28.304688 24.417969 L 28.304688 20.496094 L 27.632812 20.496094 L 27.632812 15.511719 L 28.304688 15.511719 C 28.304688 13.046875 28.304688 11.480469 28.304688 9.40625 C 28.304688 4.199219 32.503906 0 37.65625 0 L 78.257812 0 C 83.464844 0 87.667969 4.199219 87.667969 9.40625 C 87.667969 15.0625 87.667969 21.390625 87.667969 27.382812 L 88.226562 27.382812 L 88.226562 38.640625 Z M 60.394531 4.535156 L 54.515625 4.535156 C 54.234375 4.535156 54.011719 4.257812 54.011719 3.976562 C 54.011719 3.695312 54.234375 3.472656 54.515625 3.472656 L 60.394531 3.472656 C 60.675781 3.472656 60.898438 3.695312 60.898438 3.976562 C 60.898438 4.257812 60.675781 4.535156 60.394531 4.535156 Z M 49.027344 3.976562 C 49.027344 4.703125 48.464844 5.265625 47.738281 5.265625 C 47.066406 5.265625 46.503906 4.703125 46.503906 3.976562 C 46.503906 3.304688 47.066406 2.742188 47.738281 2.742188 C 48.464844 2.742188 49.027344 3.304688 49.027344 3.976562 Z M 52.441406 3.976562 C 52.441406 4.367188 52.105469 4.703125 51.769531 4.703125 C 51.378906 4.703125 51.097656 4.367188 51.097656 3.976562 C 51.097656 3.640625 51.378906 3.304688 51.769531 3.304688 C 52.105469 3.304688 52.441406 3.640625 52.441406 3.976562 Z M 69.914062 3.976562 C 69.914062 4.703125 69.296875 5.320312 68.570312 5.320312 C 67.84375 5.320312 67.28125 4.703125 67.28125 3.976562 C 67.28125 3.25 67.84375 2.6875 68.570312 2.6875 C 69.296875 2.6875 69.914062 3.25 69.914062 3.976562 Z M 64.707031 3.976562 C 64.707031 4.367188 64.480469 4.648438 64.089844 4.648438 C 63.753906 4.648438 63.472656 4.367188 63.472656 3.976562 C 63.472656 3.640625 63.753906 3.359375 64.089844 3.359375 C 64.480469 3.359375 64.707031 3.640625 64.707031 3.976562 Z M 64.707031 3.976562 " fill-opacity="1" fill-rule="evenodd"/></g></svg>