<svg xmlns="http://www.w3.org/2000/svg" xmlns:xlink="http://www.w3.org/1999/xlink" width="150" zoomAndPan="magnify" viewBox="0 0 112.5 112.499997" height="150" preserveAspectRatio="xMidYMid meet" version="1.0"><defs><clipPath id="54f9fdeae6"><path d="M 36 33.601562 L 76 33.601562 L 76 78.402344 L 36 78.402344 Z M 36 33.601562 " clip-rule="nonzero"/></clipPath></defs><g clip-path="url(#54f9fdeae6)"><path fill="#b1b1b1" d="M 62.832031 78.648438 L 46.59375 78.648438 C 44.53125 78.648438 42.851562 76.96875 42.851562 74.90625 L 42.851562 64.582031 L 44.488281 63.058594 L 44.488281 73.964844 C 44.488281 75.558594 45.785156 76.855469 47.375 76.855469 L 61.804688 76.855469 C 63.394531 76.855469 64.691406 75.558594 64.691406 73.964844 L 64.691406 52.863281 L 66.597656 53.289062 L 66.597656 74.90625 C 66.597656 76.96875 64.917969 78.648438 62.832031 78.648438 Z M 40.367188 63.101562 L 45.652344 58.242188 C 45.539062 57.996094 45.496094 57.703125 45.496094 57.414062 C 45.496094 56.15625 46.503906 55.128906 47.757812 55.128906 C 49.011719 55.128906 50.019531 56.15625 50.019531 57.414062 C 50.019531 57.546875 50.019531 57.703125 49.976562 57.839844 L 54.476562 60.054688 C 54.882812 59.609375 55.464844 59.339844 56.113281 59.339844 C 56.226562 59.339844 56.359375 59.359375 56.472656 59.359375 L 60.144531 51.699219 C 59.695312 51.296875 59.429688 50.691406 59.429688 50.042969 C 59.429688 48.789062 60.4375 47.757812 61.691406 47.757812 C 62.878906 47.757812 63.863281 48.699219 63.953125 49.863281 L 67.875 50.757812 C 68.253906 50.085938 68.992188 49.640625 69.84375 49.640625 L 69.910156 49.640625 L 71.503906 45.023438 C 70.941406 44.621094 70.582031 43.949219 70.582031 43.1875 C 70.582031 41.933594 71.59375 40.925781 72.847656 40.925781 C 74.101562 40.925781 75.109375 41.933594 75.109375 43.1875 C 75.109375 44.441406 74.101562 45.472656 72.847656 45.472656 L 72.757812 45.472656 L 71.1875 50.066406 C 71.75 50.46875 72.105469 51.140625 72.105469 51.902344 C 72.105469 53.15625 71.097656 54.164062 69.84375 54.164062 C 68.636719 54.164062 67.671875 53.246094 67.582031 52.058594 L 63.660156 51.164062 C 63.257812 51.855469 62.519531 52.304688 61.691406 52.304688 C 61.578125 52.304688 61.46875 52.304688 61.355469 52.28125 L 57.660156 59.945312 C 58.105469 60.371094 58.398438 60.953125 58.398438 61.601562 C 58.398438 62.855469 57.367188 63.886719 56.113281 63.886719 C 54.859375 63.886719 53.851562 62.855469 53.851562 61.601562 C 53.851562 61.488281 53.851562 61.378906 53.875 61.242188 L 49.347656 59.023438 C 48.945312 59.429688 48.386719 59.675781 47.757812 59.675781 C 47.289062 59.675781 46.839844 59.539062 46.480469 59.292969 L 41.285156 64.085938 C 41.417969 64.378906 41.507812 64.714844 41.507812 65.050781 C 41.507812 66.304688 40.476562 67.3125 39.222656 67.3125 C 37.96875 67.3125 36.960938 66.304688 36.960938 65.050781 C 36.960938 63.796875 37.96875 62.789062 39.222656 62.789062 C 39.648438 62.789062 40.03125 62.902344 40.367188 63.101562 Z M 64.691406 48.519531 L 64.691406 38.261719 C 64.691406 36.667969 63.394531 35.371094 61.804688 35.371094 L 60.792969 35.371094 C 60.191406 36.355469 59.136719 36.960938 57.972656 36.960938 L 51.183594 36.960938 C 50.019531 36.960938 48.96875 36.355469 48.363281 35.371094 L 47.375 35.371094 C 45.785156 35.371094 44.488281 36.667969 44.488281 38.261719 L 44.488281 57.390625 L 42.851562 58.890625 L 42.851562 51.34375 L 42.652344 51.34375 L 42.652344 47.824219 L 42.851562 47.824219 L 42.851562 46.929688 L 42.628906 46.929688 L 42.628906 43.367188 L 42.851562 43.367188 L 42.851562 41.800781 L 42.582031 41.800781 L 42.582031 39.804688 L 42.851562 39.804688 C 42.851562 38.820312 42.851562 38.191406 42.851562 37.363281 C 42.851562 35.28125 44.53125 33.601562 46.59375 33.601562 L 62.832031 33.601562 C 64.917969 33.601562 66.597656 35.28125 66.597656 37.363281 C 66.597656 39.625 66.597656 42.15625 66.597656 44.554688 L 66.820312 44.554688 L 66.820312 49.058594 Z M 55.6875 35.414062 L 53.335938 35.414062 C 53.222656 35.414062 53.132812 35.304688 53.132812 35.191406 C 53.132812 35.078125 53.222656 34.988281 53.335938 34.988281 L 55.6875 34.988281 C 55.800781 34.988281 55.890625 35.078125 55.890625 35.191406 C 55.890625 35.304688 55.800781 35.414062 55.6875 35.414062 Z M 51.140625 35.191406 C 51.140625 35.480469 50.917969 35.707031 50.625 35.707031 C 50.355469 35.707031 50.132812 35.480469 50.132812 35.191406 C 50.132812 34.921875 50.355469 34.699219 50.625 34.699219 C 50.917969 34.699219 51.140625 34.921875 51.140625 35.191406 Z M 52.507812 35.191406 C 52.507812 35.347656 52.371094 35.480469 52.238281 35.480469 C 52.082031 35.480469 51.96875 35.347656 51.96875 35.191406 C 51.96875 35.058594 52.082031 34.921875 52.238281 34.921875 C 52.371094 34.921875 52.507812 35.058594 52.507812 35.191406 Z M 59.496094 35.191406 C 59.496094 35.480469 59.25 35.730469 58.957031 35.730469 C 58.667969 35.730469 58.441406 35.480469 58.441406 35.191406 C 58.441406 34.898438 58.667969 34.675781 58.957031 34.675781 C 59.25 34.675781 59.496094 34.898438 59.496094 35.191406 Z M 57.414062 35.191406 C 57.414062 35.347656 57.324219 35.460938 57.164062 35.460938 C 57.03125 35.460938 56.917969 35.347656 56.917969 35.191406 C 56.917969 35.058594 57.03125 34.945312 57.164062 34.945312 C 57.324219 34.945312 57.414062 35.058594 57.414062 35.191406 Z M 57.414062 35.191406 " fill-opacity="1" fill-rule="evenodd"/></g></svg>