<svg xmlns="http://www.w3.org/2000/svg" xmlns:xlink="http://www.w3.org/1999/xlink" width="150" zoomAndPan="magnify" viewBox="0 0 112.5 112.499997" height="150" preserveAspectRatio="xMidYMid meet" version="1.0"><defs><clipPath id="b3d98284f5"><path d="M 2.925781 0 L 109.023438 0 L 109.023438 112.003906 L 2.925781 112.003906 Z M 2.925781 0 " clip-rule="nonzero"/></clipPath></defs><g clip-path="url(#b3d98284f5)"><path fill="#b1b1b1" d="M 100.195312 106.105469 L 35.34375 106.105469 C 33.722656 106.105469 32.398438 104.785156 32.398438 103.152344 L 32.398438 82.53125 L 103.136719 82.53125 L 103.136719 103.152344 C 103.136719 104.785156 101.8125 106.105469 100.195312 106.105469 Z M 8.824219 103.164062 L 8.824219 99.683594 C 9.738281 100.011719 10.734375 100.210938 11.765625 100.210938 L 26.503906 100.210938 L 26.503906 103.164062 C 26.503906 104.1875 26.710938 105.191406 27.039062 106.105469 L 11.765625 106.105469 C 10.144531 106.105469 8.824219 104.785156 8.824219 103.164062 Z M 11.765625 5.894531 L 53.03125 5.894531 C 54.652344 5.894531 55.976562 7.21875 55.976562 8.839844 L 55.976562 12.320312 C 55.058594 12 54.066406 11.792969 53.03125 11.792969 L 11.765625 11.792969 C 10.742188 11.792969 9.738281 12 8.824219 12.320312 L 8.824219 8.839844 C 8.824219 7.21875 10.144531 5.894531 11.765625 5.894531 Z M 35.34375 53.058594 C 30.480469 53.058594 26.503906 57.035156 26.503906 61.898438 L 26.503906 94.3125 L 11.765625 94.3125 C 10.144531 94.3125 8.824219 92.992188 8.824219 91.371094 L 8.824219 20.632812 C 8.824219 19.011719 10.144531 17.6875 11.765625 17.6875 L 53.03125 17.6875 C 54.652344 17.6875 55.976562 19.011719 55.976562 20.632812 L 55.976562 53.046875 Z M 103.136719 76.632812 L 32.398438 76.632812 L 32.398438 70.738281 L 103.136719 70.738281 Z M 103.136719 61.898438 L 103.136719 64.839844 L 32.398438 64.839844 L 32.398438 61.898438 C 32.398438 60.277344 33.730469 58.945312 35.351562 58.945312 L 100.195312 58.945312 C 101.8125 58.945312 103.136719 60.277344 103.136719 61.898438 Z M 100.195312 53.058594 L 61.871094 53.058594 L 61.871094 8.839844 C 61.871094 3.976562 57.894531 0 53.03125 0 L 11.765625 0 C 6.90625 0 2.925781 3.976562 2.925781 8.839844 L 2.925781 103.164062 C 2.925781 108.023438 6.90625 112.003906 11.765625 112.003906 L 100.195312 112.003906 C 105.054688 112.003906 109.03125 108.023438 109.03125 103.164062 L 109.03125 61.898438 C 109.03125 57.035156 105.054688 53.058594 100.195312 53.058594 " fill-opacity="1" fill-rule="nonzero"/></g><path fill="#b1b1b1" d="M 50.089844 91.371094 L 41.238281 91.371094 C 39.617188 91.371094 38.296875 92.703125 38.296875 94.3125 C 38.296875 95.933594 39.617188 97.265625 41.238281 97.265625 L 50.089844 97.265625 C 51.710938 97.265625 53.03125 95.933594 53.03125 94.3125 C 53.03125 92.703125 51.710938 91.371094 50.089844 91.371094 " fill-opacity="1" fill-rule="nonzero"/><path fill="#b1b1b1" d="M 70.722656 91.371094 L 61.871094 91.371094 C 60.25 91.371094 58.929688 92.703125 58.929688 94.3125 C 58.929688 95.933594 60.25 97.265625 61.871094 97.265625 L 70.722656 97.265625 C 72.34375 97.265625 73.664062 95.933594 73.664062 94.3125 C 73.664062 92.703125 72.34375 91.371094 70.722656 91.371094 " fill-opacity="1" fill-rule="nonzero"/></svg>