<?xml version="1.0" encoding="utf-8"?>
<svg xmlns="http://www.w3.org/2000/svg" width="64" height="64">
<g fill="#e2001a">
	<path class="st0" d="M59.7,12.8H11.6V6.9c0-0.7-0.6-1.2-1.3-1.2c-4.5,0-7.3,3.6-7.3,7.1v34.3c0,0,0,0,0,0c0,3.9,3.3,7.1,7.3,7.1
		h49.3c0.7,0,1.3-0.6,1.3-1.2V14C60.9,13.4,60.4,12.8,59.7,12.8z M5.6,12.9c0-2,1.3-4,3.5-4.5v31.8c-1.3,0.2-2.5,0.8-3.5,1.6
		C5.6,41.7,5.6,12.9,5.6,12.9z M58.4,51.8h-48c-2.6,0-4.8-2.1-4.8-4.7c0-2.3,1.8-4.7,4.8-4.7c0.7,0,1.3-0.6,1.3-1.2v-26h46.8
		L58.4,51.8L58.4,51.8z"/>
	<path class="st0" d="M25.9,40.1v7.1h21.7v-13h4.8V19.9h-35v20.2H25.9z M20,22.4h10.7v3.5h2.5v-3.5H50v9.4h-8.4v2.5h3.6v10.5H28.4
		v-4.6h4.8v-5.9H38v-2.5h-4.8v-2.3h-2.5v8.2H20C20,37.6,20,22.4,20,22.4z"/>
</g>
</svg>
