<svg xmlns="http://www.w3.org/2000/svg" width="64" height="64"><g fill="#ED1C24"><path d="M22.149 28.36c0 .683.552 1.239 1.231 1.239h22.637a1.237 1.237 0 0 0 0-2.476H23.381c-.68 0-1.232.555-1.232 1.237zm1.232-6.04h9.055c.681 0 1.233-.555 1.233-1.24 0-.682-.553-1.236-1.233-1.236h-9.055c-.68 0-1.231.555-1.231 1.236a1.235 1.235 0 0 0 1.231 1.24zm22.637 12.082H23.381c-.68 0-1.231.555-1.231 1.236 0 .684.552 1.24 1.231 1.24h22.637a1.238 1.238 0 0 0 0-2.476zm0 7.28H23.381c-.68 0-1.231.555-1.231 1.238 0 .682.552 1.236 1.231 1.236h22.637a1.236 1.236 0 0 0 0-2.474zm0 7.279H23.381c-.68 0-1.231.555-1.231 1.238 0 .682.552 1.238 1.231 1.238h22.637a1.238 1.238 0 0 0 0-2.476z"/><path d="M49.967 17.838V3.499H9.506v51.578h5.398v5.426h39.59V22.388l-4.527-4.55zm-8.149 3.825V13.15l8.47 8.513h-8.47zm-.722-12.74H14.904v43.674h-2.933V5.975h35.532v9.387l-6.407-6.439zm10.933 15.216v33.886h-34.66V11.401h21.984v12.738h12.676z"/></g></svg>