<?xml version="1.0" encoding="utf-8"?>
<svg xmlns="http://www.w3.org/2000/svg" width="64" height="64">
<g fill="#e2001a">
<path d="M58.361 33.451l-3.482-1.742c.205-1.653.208-3.313.004-4.957l3.479-1.742c.542-.271.782-.914.55-1.473l-3.051-7.365a1.152 1.152 0 0 0-1.43-.653l-3.691 1.229a20.116 20.116 0 0 0-3.508-3.502l1.231-3.695a1.157 1.157 0 0 0-.654-1.431l-7.365-3.051a1.153 1.153 0 0 0-1.474.549l-1.743 3.483a20.144 20.144 0 0 0-4.956-.004L30.53 5.618a1.152 1.152 0 0 0-1.474-.549L21.69 8.121c-.56.231-.844.856-.653 1.431l1.229 3.691a20.139 20.139 0 0 0-3.501 3.507l-3.696-1.23a1.155 1.155 0 0 0-1.431.653l-3.05 7.365a1.153 1.153 0 0 0 .549 1.473l3.483 1.744a20.144 20.144 0 0 0-.004 4.956l-3.479 1.741a1.156 1.156 0 0 0-.549 1.475l2.177 5.257 2.132-.883-1.766-4.265 3.263-1.634c.453-.228.706-.722.622-1.223a17.85 17.85 0 0 1 .005-5.893 1.156 1.156 0 0 0-.621-1.222l-3.269-1.636 2.229-5.38 3.468 1.154a1.151 1.151 0 0 0 1.303-.425 17.844 17.844 0 0 1 4.164-4.171c.413-.294.584-.823.425-1.304L23.567 9.84l5.382-2.229 1.633 3.264a1.16 1.16 0 0 0 1.222.622 17.775 17.775 0 0 1 5.894.004c.504.087.995-.168 1.223-.622l1.635-3.268 5.38 2.229-1.153 3.467c-.161.481.013 1.01.425 1.304a17.868 17.868 0 0 1 4.171 4.165c.295.412.825.583 1.303.424l3.463-1.152 2.229 5.38-3.263 1.634a1.153 1.153 0 0 0-.622 1.222 17.823 17.823 0 0 1-.006 5.893c-.082.5.17.996.623 1.223l3.268 1.635-2.229 5.381-3.467-1.155a1.158 1.158 0 0 0-1.304.425 17.887 17.887 0 0 1-4.165 4.171 1.153 1.153 0 0 0-.425 1.303l1.152 3.464-5.38 2.229-1.632-3.263a1.159 1.159 0 0 0-1.223-.622 17.916 17.916 0 0 1-5.895-.005 1.153 1.153 0 0 0-1.222.622l-1.635 3.268-2.971-1.23-.883 2.132 3.962 1.642a1.149 1.149 0 0 0 1.473-.55l1.743-3.482a20.25 20.25 0 0 0 4.957.003l1.74 3.479c.271.542.915.781 1.474.55l7.365-3.051c.56-.232.844-.856.654-1.43l-1.229-3.692a20.145 20.145 0 0 0 3.501-3.508l3.695 1.231c.581.188 1.2-.094 1.432-.653l3.051-7.365a1.16 1.16 0 0 0-.552-1.478"/><path d="M33.494 37.93c2.326.891 5.452.212 7.387-1.724l.742-.74c2.32-2.32 2.963-7.388.404-9.994a1.158 1.158 0 0 0-.818-.345c-.319-.057-.604.12-.821.338l-3.799 3.8-1.83-1.83 3.799-3.799a1.154 1.154 0 0 0-.008-1.639c-2.544-2.5-7.038-1.524-9.479.917l-.741.741c-1.938 1.937-2.617 5.064-1.725 7.392l-10.722 10.82c-2.36-1.157-5.761-.521-7.817 1.537l-.741.742c-2.432 2.43-3.331 7.216-.85 9.745.217.22.512.345.818.346h.006c.307 0 .6-.121.815-.338l3.633-3.632 2.009 2.01-3.633 3.631a1.158 1.158 0 0 0 .008 1.639c1.047 1.027 2.479 1.475 3.973 1.475 2.114 0 4.349-.897 5.774-2.323l.74-.741c1.829-1.828 2.548-4.694 1.842-6.993L33.494 37.93zM20.076 49.188c.734 1.497.247 3.802-1.089 5.137l-.741.741c-1.302 1.303-3.773 2.019-5.466 1.448l3.423-3.424a1.153 1.153 0 0 0 0-1.63l-3.641-3.641a1.154 1.154 0 0 0-1.631 0l-3.424 3.423c-.569-1.694.146-4.165 1.448-5.466l.741-.741c1.409-1.41 3.795-1.871 5.279-1.04l.208.207c.217.218.478.317.818.339.307-.002.602-.124.817-.342l11.999-12.11c.376-.379.442-.966.162-1.419-.913-1.475-.465-3.94.979-5.384l.741-.741c1.324-1.323 3.591-2.064 5.205-1.521l-3.596 3.595a1.155 1.155 0 0 0 0 1.632l3.461 3.461c.451.45 1.182.45 1.632 0l3.615-3.616c.708 1.74.322 4.387-1.028 5.738l-.741.741c-1.443 1.442-3.907 1.893-5.384.979a1.152 1.152 0 0 0-1.423.165L20.297 47.864a1.154 1.154 0 0 0-.221 1.324"/>
</g>
</svg>