<?xml version="1.0" encoding="utf-8"?>
<svg xmlns="http://www.w3.org/2000/svg" width="64" height="64"><g fill="#e2001a">
	<path d="M62.3,49.1L44.5,31.3l13.8-13.8c0.5-0.5,0.5-1.3,0-1.8l-8.9-8.9c-0.5-0.5-1.3-0.5-1.8,0L33.8,20.6L16,2.8
		c-0.5-0.5-1.3-0.5-1.8,0L3.7,13.4c-0.5,0.5-0.5,1.3,0,1.8l17.8,17.8L9.4,45l0,0c-0.1,0.1-0.3,0.3-0.3,0.5L5.5,58l0,0l0,0
		c-0.1,0.2-0.1,0.4,0,0.7c0.2,0.7,0.9,1,1.5,0.9L19.5,56c0.2-0.1,0.4-0.2,0.6-0.3l12.1-12.1L50,61.4c0.5,0.5,1.3,0.5,1.8,0
		l10.6-10.6c0.2-0.2,0.4-0.6,0.4-0.9v0C62.7,49.6,62.5,49.3,62.3,49.1z M48.5,9.4l7.2,7.2L52,20.3l-7.2-7.2L48.5,9.4z M19.6,27.5
		l3.6-3.6l-1.8-1.8l-3.6,3.6l-4.9-4.9l3.6-3.6l-1.8-1.8l-3.6,3.6l-4.9-4.9l8.8-8.8l16.9,16.9l-8.8,8.8L19.6,27.5z M10.9,48.3
		l5.9,5.9l-8.3,2.4L10.9,48.3z M19.2,53l-7.1-7.1l31-31l7.2,7.2L19.2,53z M50.8,58.8L46,53.9l3.6-3.6l-1.8-1.8l-3.6,3.6l-4.9-4.9
		l3.6-3.6l-1.8-1.8l-3.6,3.6l-3.7-3.7l8.8-8.8l16.9,16.9L50.8,58.8z"/>
</g>
</svg>
