<?xml version="1.0" encoding="utf-8"?>
<svg xmlns="http://www.w3.org/2000/svg" width="64" height="64">
<g fill="#e2001a">
	<path class="st0" d="M18.2,24.4c1.5,0.6,2.8,1.5,3.9,2.6c1.8,1.8,3.1,4.3,3.4,7h4c0-0.1,0.1-0.2,0.1-0.3v0c0.2-0.4,0.4-0.7,0.8-1
		c0.3-0.6,0.7-1.1,1.2-1.5l0,0c0.6-0.4,1.3-0.7,2-0.7c0.7,0,1.4,0.3,2,0.7l0,0c0.5,0.4,0.9,0.9,1.2,1.5c0.2,0.2,0.3,0.4,0.5,0.6
		c0.1-0.2,0.2-0.3,0.4-0.5c0.5-0.5,1.2-0.8,2-0.8h0.1c0-0.3,0-0.6,0-0.9c0-1.4,0.3-2.7,0.8-4c-5.3-1.1-10.9-1.9-16.7-2.4
		C21.9,24.6,20,24.5,18.2,24.4L18.2,24.4z M18.4,39.2c0.7,0,1.2,0.5,1.2,1.2c0,0.7-0.5,1.2-1.2,1.2c-0.7,0-1.2-0.5-1.2-1.2
		C17.2,39.7,17.8,39.2,18.4,39.2L18.4,39.2z M18.4,29.4c0.7,0,1.2,0.5,1.2,1.2c0,0.7-0.5,1.2-1.2,1.2c-0.7,0-1.2-0.5-1.2-1.2
		C17.2,30,17.8,29.4,18.4,29.4L18.4,29.4z M8.7,39.2c0.7,0,1.2,0.5,1.2,1.2c0,0.7-0.5,1.2-1.2,1.2c-0.7,0-1.2-0.5-1.2-1.2
		C7.5,39.7,8,39.2,8.7,39.2L8.7,39.2z M8.7,29.4c0.7,0,1.2,0.5,1.2,1.2c0,0.7-0.5,1.2-1.2,1.2c-0.7,0-1.2-0.5-1.2-1.2
		C7.5,30,8,29.4,8.7,29.4L8.7,29.4z M46.5,30.5l-2.2-1.3l1.2-2.1l2.2,1.3L46.5,30.5L46.5,30.5z M52.3,28.4l2.2-1.3l1.2,2.1l-2.2,1.3
		L52.3,28.4L52.3,28.4z M48.8,31.1v-5.9h2.4v5.9H48.8L48.8,31.1z M40.2,34.4h-0.6c-0.1,0-0.2,0-0.3,0.1c-0.1,0.1-0.1,0.2-0.1,0.3
		v0.9c0,0.1,0,0.2,0.1,0.3c0.1,0.1,0.2,0.1,0.3,0.1h1.3C40.6,35.5,40.3,35,40.2,34.4L40.2,34.4z M45.3,40.4v1.2h13.9
		c0.2,0,0.5-0.1,0.6-0.3c0.2-0.2,0.3-0.4,0.3-0.6v-7.1c-0.5,1.9-1.4,3.5-2.7,4.9c-1.9,1.9-4.5,3-7.3,3
		C48.3,41.5,46.7,41.1,45.3,40.4L45.3,40.4z M56.6,23.1v-2.4h-3.8v0.5C54.2,21.5,55.5,22.2,56.6,23.1L56.6,23.1z M50.3,20.8v-1.3
		v-1.2h1.2h6.2H59v1.2v5.4c0.9,0.2,1.6,0.5,2.1,1c1,0.9,1.4,2.2,1.4,3v11.8c0,0.9-0.4,1.7-1,2.4c-0.6,0.6-1.4,1-2.4,1H44.7l-2.9,3.7
		l-0.4,0.5h-0.6h-6.2h-1l-0.2-1c-0.1-0.5-0.2-1.1-0.4-1.4c-0.1-0.1-0.1-0.2-0.2-0.2h0l-12.4-0.2c-2,1.4-4.4,2.2-6.9,2.2
		c-3.3,0-6.3-1.3-8.5-3.5c-2.2-2.2-3.5-5.2-3.5-8.5c0-1.2,0.2-2.4,0.5-3.5c0-1.6,0.2-3.4,0.4-5.1c0.2-1.8,0.5-3.4,0.7-4.6l0.2-1l1,0
		c6.6,0.2,13.2,0.4,19.5,1c1.8,0.2,3.5,0.3,5.3,0.5v-0.8h-0.4h-1.2v-1.2v-4.1v-1.2h1.2H41h1.2v1.2v4.1v1.2H41h-0.4v2.6
		c0.4,0.1,0.7,0.2,1.1,0.2c0.3-0.4,0.6-0.8,1-1.1h0c1.9-1.9,4.5-3,7.3-3C50.1,20.8,50.2,20.8,50.3,20.8L50.3,20.8z M42.9,38.7
		l-0.2-0.2h-3.2c-0.8,0-1.5-0.3-2-0.8c-0.1-0.1-0.3-0.3-0.4-0.5c-0.1,0.2-0.3,0.4-0.5,0.6c-0.3,0.6-0.7,1.1-1.2,1.5
		c-0.6,0.4-1.3,0.7-2,0.7c-0.7,0-1.4-0.3-2-0.7c-0.5-0.4-0.9-0.9-1.2-1.5c-0.3-0.3-0.6-0.6-0.8-1v0c0-0.1-0.1-0.2-0.1-0.3h-3.9
		c-0.2,2.5-1.1,4.7-2.6,6.5l9.9,0.2c1.1,0,1.8,0.6,2.3,1.5c0.2,0.3,0.3,0.7,0.4,1.1h4.6l2.6-3.4V38.7L42.9,38.7z M55.6,25.5
		c-1.4-1.4-3.4-2.3-5.6-2.3c-2.2,0-4.2,0.9-5.6,2.3l0,0c-1.4,1.4-2.3,3.4-2.3,5.6c0,2.2,0.9,4.2,2.3,5.6c1.4,1.4,3.4,2.3,5.6,2.3
		c2.2,0,4.2-0.9,5.6-2.3c1.4-1.4,2.3-3.4,2.3-5.6C57.9,28.9,57,27,55.6,25.5L55.6,25.5z M34,33.2C33.9,33,33.7,33,33.5,33
		c-0.2,0-0.3,0.1-0.5,0.2h0c-0.2,0.2-0.4,0.4-0.6,0.8l-0.1,0.3l-0.2,0.2c-0.2,0.1-0.3,0.3-0.4,0.4l0,0c-0.1,0.1-0.1,0.3-0.1,0.4
		c0,0.2,0,0.3,0.1,0.4l0,0c0.1,0.2,0.2,0.3,0.4,0.4l0.2,0.2l0.1,0.3c0.1,0.3,0.3,0.6,0.6,0.8c0.2,0.1,0.3,0.2,0.5,0.2
		c0.2,0,0.3-0.1,0.5-0.2c0.2-0.2,0.4-0.4,0.6-0.8l0.1-0.3l0.2-0.2c0.2-0.1,0.3-0.3,0.4-0.4l0,0c0.1-0.1,0.1-0.3,0.1-0.4
		c0-0.2,0-0.3-0.1-0.4l0,0c-0.1-0.2-0.2-0.3-0.4-0.4l-0.2-0.2l-0.1-0.3C34.4,33.6,34.2,33.3,34,33.2L34,33.2L34,33.2z M38.1,22.1
		h-6.5v1.1c2.2,0.3,4.4,0.6,6.5,1V22.1L38.1,22.1z M39.7,18H30v1.6h9.8V18L39.7,18z M4.8,27.2L5,27c1.4-1.4,3.1-2.4,5-3
		c-1.6-0.1-3.1-0.1-4.7-0.2C5.1,24.8,5,25.9,4.8,27.2L4.8,27.2L4.8,27.2z M20.3,28.7c-1.7-1.7-4.1-2.8-6.8-2.8
		c-2.7,0-5.1,1.1-6.8,2.8c-1.7,1.7-2.8,4.1-2.8,6.8c0,2.7,1.1,5.1,2.8,6.8c1.7,1.7,4.1,2.8,6.8,2.8c2.7,0,5.1-1.1,6.8-2.8
		c1.7-1.7,2.8-4.1,2.8-6.8C23.2,32.9,22.1,30.5,20.3,28.7L20.3,28.7z"/>
</g>
</svg>
