<svg xmlns="http://www.w3.org/2000/svg" xmlns:xlink="http://www.w3.org/1999/xlink" width="1122" zoomAndPan="magnify" viewBox="0 0 841.92 595.499987" height="793" preserveAspectRatio="xMidYMid meet" version="1.0"><defs><clipPath id="4421ecb9b4"><path d="M 123.515625 0 L 718.515625 0 L 718.515625 595 L 123.515625 595 Z M 123.515625 0 " clip-rule="nonzero"/></clipPath></defs><g clip-path="url(#4421ecb9b4)"><path fill="#777777" d="M 420.898438 0 C 256.894531 0 123.515625 133.378906 123.515625 297.382812 C 123.515625 461.386719 256.894531 594.765625 420.898438 594.765625 C 584.90625 594.765625 718.28125 461.386719 718.28125 297.382812 C 718.28125 133.378906 584.90625 0 420.898438 0 Z M 420.898438 573.90625 C 268.214844 573.90625 144.378906 450.070312 144.378906 297.382812 C 144.378906 144.695312 268.214844 20.859375 420.898438 20.859375 C 573.585938 20.859375 697.421875 144.695312 697.421875 297.382812 C 697.421875 450.070312 573.585938 573.90625 420.898438 573.90625 Z M 420.898438 573.90625 " fill-opacity="1" fill-rule="nonzero"/></g><path fill="#777777" d="M 430.886719 477.367188 L 411.210938 477.367188 L 408.175781 476.773438 C 401.222656 475.886719 394.195312 475.367188 387.316406 474.039062 C 341.300781 464.9375 303.796875 441.636719 276.277344 403.835938 C 241.507812 355.972656 232.039062 302.855469 248.683594 246.117188 C 272.355469 165.113281 348.847656 112.371094 433.03125 117.769531 C 472.164062 120.359375 506.859375 134.339844 536.746094 159.640625 C 570.183594 187.898438 590.75 223.679688 598.441406 266.980469 C 599.550781 273.488281 600.21875 280.148438 601.105469 286.730469 L 601.105469 307.8125 L 600.4375 311.585938 C 599.625 318.023438 599.109375 324.605469 597.851562 331.042969 C 589.710938 372.617188 569.296875 407.164062 537.117188 434.683594 C 531.070312 439.875 524.703125 444.632812 518.007812 448.953125 C 511.3125 453.273438 504.355469 457.117188 497.132812 460.488281 C 489.914062 463.859375 482.496094 466.71875 474.886719 469.074219 C 467.273438 471.429688 459.535156 473.257812 451.675781 474.554688 C 444.792969 475.738281 437.839844 476.40625 430.886719 477.367188 Z M 344.777344 210.757812 L 295.511719 186.492188 C 269.765625 216.007812 255.636719 250.851562 253.640625 290.800781 L 328.132812 290.800781 C 328.519531 277.070312 330.109375 263.484375 332.90625 250.039062 C 335.699219 236.59375 339.660156 223.5 344.777344 210.757812 Z M 546.660156 186.492188 L 497.316406 210.757812 C 507.601562 235.984375 513.074219 262.835938 514.035156 290.800781 L 588.457031 290.800781 C 586.457031 250.851562 572.402344 216.007812 546.660156 186.492188 Z M 328.132812 303.820312 L 253.640625 303.820312 C 255.5625 341.992188 268.507812 375.574219 292.847656 405.019531 C 308.5625 394.414062 325.328125 385.882812 343.152344 379.421875 C 338.558594 367.328125 335.003906 354.9375 332.484375 342.25 C 329.964844 329.558594 328.511719 316.75 328.132812 303.820312 Z M 550.0625 404.128906 C 573.660156 375.425781 586.679688 341.84375 588.457031 303.820312 L 514.773438 303.820312 C 513.074219 316.914062 511.964844 329.785156 509.523438 342.359375 C 507.082031 354.9375 503.085938 367.070312 500.054688 378.609375 Z M 357.132812 213.570312 C 352.019531 225.820312 348.078125 238.4375 345.304688 251.417969 C 342.53125 264.402344 340.976562 277.527344 340.636719 290.800781 L 414.613281 290.800781 L 414.613281 222.445312 C 395.074219 221.925781 375.914062 218.964844 357.132812 213.570312 Z M 484.964844 213.570312 C 465.878906 219.117188 446.867188 221.78125 427.484375 222.59375 L 427.484375 290.800781 L 501.460938 290.800781 C 501.136719 277.527344 499.585938 264.398438 496.8125 251.414062 C 494.039062 238.429688 490.089844 225.816406 484.964844 213.570312 Z M 427.484375 303.746094 L 427.484375 365.882812 C 447.742188 366.464844 467.59375 369.625 487.035156 375.355469 C 495.171875 357.230469 503.011719 316.988281 501.015625 303.746094 Z M 414.539062 365.441406 L 414.539062 303.746094 L 340.636719 303.746094 C 340.945312 315.933594 342.285156 328.007812 344.660156 339.96875 C 347.03125 351.925781 350.398438 363.597656 354.765625 374.984375 C 364.972656 372.839844 374.664062 370.324219 384.429688 368.769531 C 394.195312 367.214844 404.402344 366.550781 414.539062 365.441406 Z M 301.355469 414.339844 C 328.355469 441.414062 360.460938 457.761719 399.152344 463.386719 C 388.367188 453.054688 378.660156 441.792969 370.039062 429.597656 C 361.414062 417.402344 354.03125 404.5 347.886719 390.886719 C 331.417969 396.808594 315.910156 404.625 301.355469 414.339844 Z M 443.019531 463.386719 C 481.632812 457.761719 513.8125 441.488281 540.816406 414.339844 C 526.269531 404.574219 510.734375 396.78125 494.210938 390.960938 C 488.082031 404.566406 480.714844 417.457031 472.105469 429.640625 C 463.492188 441.824219 453.796875 453.070312 443.019531 463.386719 Z M 482.300781 387.042969 C 464.460938 381.730469 446.238281 378.820312 427.632812 378.3125 L 427.632812 460.574219 C 439.257812 450.40625 449.675781 439.121094 458.894531 426.726562 C 468.109375 414.332031 475.910156 401.105469 482.300781 387.042969 Z M 359.796875 387.042969 C 366.207031 401.109375 374.035156 414.339844 383.277344 426.738281 C 392.515625 439.132812 402.960938 450.410156 414.613281 460.574219 L 414.613281 378.3125 C 395.964844 378.859375 377.691406 381.765625 359.796875 387.042969 Z M 349.363281 198.035156 C 356.910156 185.976562 363.570312 173.992188 371.558594 162.96875 C 379.546875 151.945312 389.015625 141.738281 397.746094 131.382812 C 362.386719 136.511719 331.488281 151.550781 305.054688 176.507812 C 318.988281 185.40625 333.757812 192.578125 349.363281 198.035156 Z M 443.019531 131.160156 C 463.582031 151.132812 479.710938 173.175781 491.769531 198.109375 C 501.609375 195.8125 526.757812 183.757812 536.96875 176.433594 C 510.707031 151.652344 479.859375 136.558594 443.019531 131.160156 Z M 414.613281 133.894531 C 392.417969 153.5 375.183594 175.914062 362.457031 201.953125 C 374.960938 206.320312 407.140625 210.980469 414.613281 209.574219 Z M 479.785156 202.027344 C 473.429688 189.050781 465.851562 176.832031 457.046875 165.375 C 448.242188 153.917969 438.386719 143.449219 427.484375 133.96875 L 427.484375 210.089844 C 445.25 209.550781 462.683594 206.863281 479.785156 202.027344 Z M 479.785156 202.027344 " fill-opacity="1" fill-rule="nonzero"/></svg>