<svg xmlns:xlink="http://www.w3.org/1999/xlink" xmlns="http://www.w3.org/2000/svg" width="64" height="64">
<g fill="#7E8895">
	<path d="M55.7,12c-6.5,0-21.2-6.9-23.1-9.6c-0.4-0.6-1.2-0.7-1.8-0.3c-0.1,0.1-0.2,0.2-0.3,0.3   C28.5,5.2,13.1,12,7.3,12c-0.7,0-1.3,0.6-1.3,1.3v24.2c0,12.5,23.8,25,25.1,25.4c0.2,0.1,0.4,0.1,0.7,0C33,62.5,57,49,57,38.7V13.2   C57,12.5,56.4,12,55.7,12z M54.5,38.7c0,7.8-19.6,20-22.9,21.5C27.8,58.6,8.6,47,8.6,37.4v-23c6.3-0.7,18.7-5.9,22.9-9.5   c4.1,3.6,16.1,8.9,22.9,9.6V38.7z"/>
	<path d="M22.5,33.9l-1.9,1.7l7,7.7c0.2,0.3,0.6,0.4,0.9,0.4l0,0c0.4,0,0.7-0.2,1-0.5l17-21.4l-2-1.6l-16,20.2   L22.5,33.9z"/>
</g>
</svg>