<svg xmlns:xlink="http://www.w3.org/1999/xlink" xmlns="http://www.w3.org/2000/svg" width="64" height="64">
<g fill="#7E8895">
<path d="M58.008 57.515V27.644c0-.687-.558-1.244-1.247-1.244H44.289c-.688 0-1.247.558-1.247 1.244v16.181h-9.978v-9.957c0-.687-.558-1.245-1.247-1.245H19.346c-.688 0-1.247.559-1.247 1.245v16.18H8.121c-.688 0-1.247.559-1.247 1.244v6.224H4.38v2.489h56.123v-2.489h-2.495zm-48.64-4.978h8.73v4.978h-8.73v-4.978zm11.225-1.246v-16.18h9.978v22.403h-9.978v-6.223zm12.471-4.979h9.978v11.202h-9.978V46.312zm12.472 11.203V28.888h9.978v28.626h-9.978z"/><path d="M21.84 18.202l11.591 11.565a1.25 1.25 0 0 0 1.764 0L56.761 8.245v5.708h2.494V5.24c0-.687-.558-1.244-1.247-1.244h-8.73v2.488h5.72L34.312 27.128 22.723 15.562a1.25 1.25 0 0 0-1.765 0L3.498 32.987l1.764 1.759L21.84 18.202z"/>
</g>
</svg>