<svg xmlns="http://www.w3.org/2000/svg" xmlns:xlink="http://www.w3.org/1999/xlink" width="1122" zoomAndPan="magnify" viewBox="0 0 841.92 595.499987" height="793" preserveAspectRatio="xMidYMid meet" version="1.0"><defs><clipPath id="4087b5bbe5"><path d="M 123.515625 37 L 682 37 L 682 595 L 123.515625 595 Z M 123.515625 37 " clip-rule="nonzero"/></clipPath><clipPath id="c8309a2a1d"><path d="M 426 0 L 718.515625 0 L 718.515625 292 L 426 292 Z M 426 0 " clip-rule="nonzero"/></clipPath></defs><g clip-path="url(#4087b5bbe5)"><path fill="#777777" d="M 663.433594 303.121094 C 640.566406 303.121094 617.699219 303.121094 594.832031 303.121094 C 579.761719 303.121094 564.5625 303.121094 549.273438 303.121094 C 506.523438 303.121094 463.125 303.117188 420.265625 303.097656 C 418.96875 303.097656 417.867188 303.117188 416.890625 303.132812 C 416.308594 303.144531 415.695312 303.15625 415.148438 303.15625 C 415.148438 302.605469 415.15625 301.988281 415.167969 301.40625 C 415.183594 300.449219 415.203125 299.363281 415.203125 298.097656 C 415.179688 247.96875 415.179688 197.003906 415.179688 147.714844 C 415.179688 116.214844 415.179688 84.714844 415.171875 53.214844 C 415.171875 49.304688 414.734375 43.707031 410.9375 40.183594 C 408.316406 37.753906 404.660156 36.75 399.757812 37.121094 C 396.234375 37.386719 392.628906 37.621094 389.144531 37.851562 C 376.78125 38.660156 364 39.496094 351.574219 41.824219 C 334.460938 45.027344 317.867188 49.640625 302.257812 55.535156 C 286.695312 61.414062 271.6875 68.722656 257.652344 77.265625 C 243.667969 85.773438 230.265625 95.738281 217.824219 106.878906 C 205.433594 117.96875 193.660156 130.53125 182.820312 144.207031 C 168.496094 162.289062 156.617188 181.820312 147.511719 202.25 C 138.394531 222.722656 131.824219 244.628906 127.988281 267.363281 C 126.765625 274.621094 125.804688 282.003906 124.875 289.148438 C 124.453125 292.40625 124.015625 295.777344 123.558594 299.074219 L 123.515625 299.371094 L 123.515625 333.15625 L 123.554688 333.445312 C 123.902344 336.042969 124.246094 338.695312 124.578125 341.257812 C 125.300781 346.824219 126.050781 352.582031 126.886719 358.25 C 130.492188 382.65625 137.183594 406.132812 146.78125 428.023438 C 156.359375 449.859375 169.066406 470.671875 184.554688 489.878906 C 204.5 514.617188 227.398438 535.320312 252.621094 551.410156 C 278.109375 567.667969 306.59375 579.613281 337.277344 586.914062 C 346.980469 589.21875 356.972656 590.527344 366.636719 591.792969 C 371.152344 592.382812 375.824219 592.992188 380.367188 593.695312 C 381.15625 593.816406 382.015625 594.042969 382.929688 594.277344 C 383.40625 594.402344 383.898438 594.53125 384.410156 594.652344 L 384.90625 594.769531 L 418.902344 594.769531 L 419.191406 594.734375 C 422.898438 594.234375 426.699219 593.796875 430.375 593.371094 C 438.460938 592.4375 446.816406 591.476562 454.984375 589.792969 C 475.335938 585.605469 494.78125 579.621094 512.78125 572 C 530.789062 564.378906 547.839844 554.914062 563.460938 543.871094 C 579.074219 532.832031 593.679688 519.917969 606.871094 505.488281 C 620.042969 491.074219 632.164062 474.757812 642.894531 456.988281 C 655.160156 436.679688 664.605469 414.796875 670.960938 391.953125 C 677.113281 369.847656 680.539062 346.253906 681.148438 321.820312 C 681.320312 314.898438 680.796875 310.253906 677.621094 306.996094 C 674.476562 303.769531 669.859375 303.125 663.429688 303.125 Z M 182.453125 420.621094 C 193.703125 415.96875 204.953125 411.320312 216.207031 406.675781 C 220.84375 404.761719 224.328125 403.335938 227.40625 402.074219 L 230.441406 400.832031 C 253.234375 391.492188 272.429688 383.5625 280.621094 380.179688 C 293.734375 374.761719 301.726562 371.445312 304.738281 370.195312 C 305.53125 369.867188 306.011719 369.667969 306.195312 369.59375 C 313.441406 366.601562 320.691406 363.617188 327.941406 360.632812 C 350.546875 351.320312 373.921875 341.691406 396.851562 332.066406 C 398.265625 331.472656 398.777344 331.519531 398.898438 331.550781 C 399.023438 331.578125 399.511719 331.765625 400.578125 332.925781 C 431.035156 366.152344 462.085938 399.851562 492.113281 432.445312 C 498.914062 439.828125 505.714844 447.210938 512.515625 454.59375 C 520.476562 463.234375 528.433594 471.871094 536.394531 480.511719 C 544.714844 489.539062 553.035156 498.570312 561.351562 507.601562 C 562.25 508.578125 563.140625 509.558594 564.105469 510.625 C 515.429688 549.414062 461.882812 568.917969 404.332031 568.917969 C 387.46875 568.917969 370.253906 567.238281 352.726562 563.882812 C 258.855469 545.910156 198.398438 478.296875 174.054688 424.089844 L 182.453125 420.617188 Z M 386.929688 308.414062 L 386.84375 308.441406 C 382.351562 310 315.039062 337.550781 215.351562 378.441406 L 163.523438 400.230469 C 137.351562 318.09375 147.164062 242.320312 192.714844 174.929688 C 238.660156 106.960938 304.769531 69.375 389.25 63.164062 C 389.285156 63.84375 389.304688 64.460938 389.304688 65.0625 C 389.308594 83.546875 389.308594 102.03125 389.308594 120.515625 C 389.308594 180.730469 389.308594 243 389.414062 304.242188 C 389.414062 305.667969 389.261719 306.621094 388.960938 307.074219 C 388.410156 307.90625 387.296875 308.289062 386.929688 308.414062 Z M 654.921875 329.273438 C 651.171875 392.773438 627.617188 446.417969 583.039062 492.984375 L 432.277344 329.273438 Z M 654.921875 329.273438 " fill-opacity="1" fill-rule="nonzero"/></g><g clip-path="url(#c8309a2a1d)"><path fill="#777777" d="M 718.1875 259.832031 C 718.058594 259.230469 717.914062 258.664062 717.769531 258.117188 C 717.527344 257.160156 717.296875 256.257812 717.238281 255.507812 C 716.386719 244.574219 714.859375 233.613281 712.699219 222.941406 C 708.382812 201.636719 698.800781 175.050781 691.566406 159.796875 C 685.828125 147.695312 679.132812 135.871094 671.664062 124.644531 C 653.585938 97.476562 634.199219 78.46875 621.117188 67.308594 C 600.933594 50.085938 579.035156 35.984375 556.03125 25.390625 C 532.820312 14.703125 507.835938 7.292969 481.78125 3.367188 C 476.382812 2.550781 470.894531 1.800781 465.585938 1.074219 C 463.101562 0.730469 460.617188 0.390625 458.132812 0.0429688 L 457.832031 0 L 435.839844 0 L 434.882812 0.507812 C 429.257812 3.484375 426.527344 8.433594 426.535156 15.640625 C 426.617188 76.746094 426.621094 138.875 426.625 198.957031 C 426.625 224.769531 426.628906 250.578125 426.636719 276.390625 C 426.636719 280.132812 427.046875 284.84375 430.25 288.039062 C 433.445312 291.222656 438.152344 291.632812 441.894531 291.632812 C 466.003906 291.640625 490.113281 291.640625 514.21875 291.640625 C 575.976562 291.644531 639.835938 291.644531 702.644531 291.734375 L 702.683594 291.734375 C 709.796875 291.734375 714.726562 289.019531 717.757812 283.441406 L 718.285156 282.46875 L 718.285156 260.289062 L 718.1875 259.828125 Z M 692.015625 265.289062 L 453.042969 265.289062 L 453.042969 25.703125 C 456.273438 26.148438 459.476562 26.5625 462.609375 26.964844 C 472.953125 28.304688 482.726562 29.566406 492.414062 31.632812 C 546.746094 43.21875 592.824219 70.261719 629.375 112.003906 C 641.015625 125.296875 650.253906 139.035156 651.273438 140.554688 C 655.839844 147.402344 660.144531 154.535156 664.0625 161.757812 C 665.449219 164.644531 666.820312 167.597656 668.144531 170.535156 L 668.25 170.769531 C 670.023438 174.667969 674.476562 184.660156 677.535156 193.183594 C 684.097656 211.46875 688.601562 230.789062 690.925781 250.609375 C 691.429688 254.941406 691.6875 259.429688 691.933594 263.769531 C 691.960938 264.273438 691.988281 264.78125 692.015625 265.289062 Z M 692.015625 265.289062 " fill-opacity="1" fill-rule="nonzero"/></g><path fill="#777777" d="M 551.335938 156.886719 C 546.523438 155.796875 541.632812 155.050781 536.785156 154.101562 C 523.878906 151.5625 518.222656 143.789062 519.730469 130.699219 C 520.765625 121.703125 528.949219 113.636719 537.925781 112.460938 C 551.675781 110.660156 562.359375 121.871094 562.421875 133.808594 C 562.457031 140.257812 567.59375 144.800781 573.453125 144.535156 C 579.992188 144.238281 584.261719 139.515625 584.140625 132.722656 C 583.816406 114.8125 572.425781 98.992188 555.390625 93.054688 C 552.800781 92.152344 551.28125 91.019531 551.816406 88.085938 C 551.9375 87.4375 551.820312 86.742188 551.789062 86.070312 C 551.589844 81.707031 549.359375 78.679688 545.523438 76.824219 C 541.761719 75.003906 538.101562 75.4375 534.667969 77.742188 C 530.917969 80.265625 529.644531 83.972656 530.019531 88.277344 C 530.238281 90.808594 529.390625 92.109375 526.878906 92.886719 C 518.816406 95.382812 512.59375 100.472656 507.058594 106.789062 C 492.003906 123.980469 492.726562 162.90625 525.171875 173.546875 C 531.738281 175.699219 538.722656 176.601562 545.523438 178.023438 C 556.828125 180.382812 562.191406 186.683594 562.296875 197.808594 C 562.410156 209.660156 553.394531 219.238281 541.730469 219.746094 C 529.382812 220.289062 519.574219 209.875 519.425781 198.429688 C 519.335938 191.769531 514.222656 187.15625 508.21875 187.519531 C 501.726562 187.910156 497.53125 192.671875 497.6875 199.480469 C 498.089844 217.25 509.476562 233.160156 526.253906 238.953125 C 529.253906 239.992188 529.933594 241.449219 530.167969 244.457031 C 530.394531 247.382812 531.433594 250.722656 533.261719 252.9375 C 536.183594 256.484375 540.527344 257.328125 544.933594 255.492188 C 549.386719 253.636719 552.070312 250.21875 551.734375 245.296875 C 551.476562 241.53125 552.851562 240.058594 556.367188 238.625 C 572.175781 232.183594 581.664062 220.433594 583.847656 203.320312 C 586.773438 180.433594 573.804688 161.980469 551.339844 156.890625 Z M 551.335938 156.886719 " fill-opacity="1" fill-rule="nonzero"/><path fill="#777777" d="M 603.320312 443.835938 C 607.605469 443.835938 610.296875 442.019531 611.800781 440.492188 C 613.308594 438.96875 615.089844 436.25 615.039062 431.953125 C 615.023438 430.695312 614.945312 429.554688 614.808594 428.472656 C 613.046875 414.453125 605.289062 403.855469 592.378906 397.824219 C 588.769531 396.136719 584.726562 396.570312 581.570312 398.984375 C 577.578125 402.039062 572.394531 402.019531 568.375 398.933594 C 565.378906 396.636719 561.640625 396.152344 558.109375 397.601562 C 551.394531 400.359375 545.621094 405.121094 541.410156 411.375 C 537.195312 417.632812 534.960938 424.777344 534.945312 432.035156 C 534.9375 436.324219 536.726562 439.019531 538.230469 440.527344 C 539.734375 442.039062 542.4375 443.835938 546.746094 443.835938 C 550.003906 443.835938 553.257812 443.835938 556.511719 443.835938 C 562.671875 443.835938 568.828125 443.835938 574.988281 443.835938 L 574.992188 443.835938 C 577.0625 443.835938 579.132812 443.835938 581.203125 443.835938 L 587.136719 443.835938 C 592.53125 443.835938 597.925781 443.835938 603.320312 443.835938 Z M 574.984375 425.554688 C 568.15625 425.554688 561.328125 425.554688 554.5 425.554688 C 555.941406 421.863281 558.511719 418.554688 561.757812 416.3125 C 570.097656 420.625 579.835938 420.644531 588.167969 416.363281 C 591.675781 418.714844 594.066406 421.730469 595.457031 425.554688 C 592.683594 425.554688 589.910156 425.554688 587.136719 425.554688 L 581.199219 425.554688 C 579.128906 425.554688 577.054688 425.554688 574.980469 425.554688 Z M 574.984375 425.554688 " fill-opacity="1" fill-rule="nonzero"/><path fill="#777777" d="M 575.03125 396.78125 L 575.058594 396.78125 C 589.773438 396.78125 601.78125 384.765625 601.832031 369.988281 C 601.855469 362.886719 599.082031 356.175781 594.023438 351.097656 C 588.953125 346.003906 582.230469 343.195312 575.09375 343.1875 L 575.066406 343.1875 C 567.832031 343.1875 561.042969 345.996094 555.949219 351.101562 C 550.898438 356.160156 548.132812 362.867188 548.152344 369.988281 C 548.171875 377.164062 550.976562 383.898438 556.042969 388.949219 C 561.109375 393.992188 567.851562 396.773438 575.03125 396.78125 Z M 568.890625 364.019531 C 570.527344 362.375 572.722656 361.472656 575.066406 361.472656 L 575.074219 361.472656 C 577.320312 361.476562 579.445312 362.371094 581.066406 364 C 582.671875 365.613281 583.554688 367.71875 583.546875 369.929688 C 583.53125 374.65625 579.726562 378.5 575.058594 378.5 L 575.050781 378.5 C 570.234375 378.496094 566.449219 374.730469 566.4375 369.933594 C 566.429688 367.710938 567.300781 365.609375 568.890625 364.019531 Z M 568.890625 364.019531 " fill-opacity="1" fill-rule="nonzero"/><path fill="#777777" d="M 325.644531 408.292969 L 348.558594 408.292969 L 348.558594 503.351562 L 325.644531 503.351562 Z M 325.644531 408.292969 " fill-opacity="1" fill-rule="nonzero"/><path fill="#777777" d="M 366.546875 439.738281 L 389.464844 439.738281 L 389.464844 503.351562 L 366.546875 503.351562 Z M 366.546875 439.738281 " fill-opacity="1" fill-rule="nonzero"/><path fill="#777777" d="M 407.453125 383.777344 L 430.371094 383.777344 L 430.371094 503.351562 L 407.453125 503.351562 Z M 407.453125 383.777344 " fill-opacity="1" fill-rule="nonzero"/><path fill="#777777" d="M 284.738281 508.570312 L 436.011719 508.570312 L 436.011719 517.550781 L 284.738281 517.550781 Z M 284.738281 508.570312 " fill-opacity="1" fill-rule="nonzero"/><path fill="#777777" d="M 284.738281 439.738281 L 307.65625 439.738281 L 307.65625 503.351562 L 284.738281 503.351562 Z M 284.738281 439.738281 " fill-opacity="1" fill-rule="nonzero"/><path fill="#777777" d="M 269.726562 150.59375 C 269.582031 150.59375 269.4375 150.59375 269.292969 150.59375 C 247.625 150.59375 227.261719 158.964844 211.910156 174.183594 C 196.339844 189.621094 187.726562 210.296875 187.652344 232.402344 C 187.582031 254.015625 195.992188 274.417969 211.335938 289.847656 C 226.785156 305.382812 247.328125 313.964844 269.183594 314.015625 L 269.371094 314.015625 C 291.027344 314.015625 311.433594 305.558594 326.851562 290.191406 C 342.3125 274.78125 350.851562 254.316406 350.894531 232.574219 C 350.9375 210.773438 342.527344 190.246094 327.207031 174.777344 C 311.886719 159.296875 291.472656 150.710938 269.726562 150.597656 Z M 315.347656 278.714844 C 303.011719 290.945312 286.636719 297.667969 269.210938 297.667969 C 269.113281 297.667969 269.015625 297.667969 268.917969 297.667969 C 251.515625 297.59375 235.136719 290.726562 222.800781 278.332031 C 210.472656 265.941406 203.722656 249.574219 203.800781 232.25 C 203.878906 214.664062 210.765625 198.195312 223.191406 185.882812 C 235.542969 173.640625 251.941406 166.914062 269.40625 166.914062 C 269.511719 166.914062 269.625 166.914062 269.730469 166.914062 C 305.675781 167.085938 334.8125 196.492188 334.679688 232.46875 C 334.617188 249.992188 327.75 266.417969 315.351562 278.710938 Z M 315.347656 278.714844 " fill-opacity="1" fill-rule="nonzero"/><path fill="#777777" d="M 312.011719 263.679688 C 311.695312 263.347656 311.414062 263.050781 311.152344 262.773438 C 310.597656 262.1875 310.128906 261.695312 309.648438 261.214844 L 303.117188 254.675781 C 294.753906 246.300781 286.105469 237.644531 277.550781 229.167969 C 277.488281 229.105469 277.445312 229.054688 277.410156 229.019531 C 277.410156 228.988281 277.410156 228.945312 277.410156 228.898438 C 277.464844 217.261719 277.457031 205.441406 277.453125 194.003906 C 277.453125 190.433594 277.449219 186.863281 277.449219 183.289062 L 277.449219 180.285156 C 277.449219 177.089844 274.855469 174.496094 271.660156 174.496094 L 267.019531 174.496094 C 264.039062 174.496094 261.546875 176.757812 261.257812 179.722656 C 261.242188 179.886719 261.222656 180.023438 261.210938 180.140625 C 261.167969 180.503906 261.113281 180.957031 261.113281 181.496094 L 261.109375 190.070312 C 261.101562 203.632812 261.089844 217.65625 261.179688 231.457031 C 261.199219 234.53125 262.910156 237.355469 264.507812 238.972656 C 271.015625 245.558594 277.664062 252.210938 284.09375 258.644531 C 287.898438 262.453125 291.703125 266.257812 295.503906 270.074219 C 296.464844 271.042969 297.394531 272.109375 298.292969 273.140625 C 298.714844 273.621094 299.117188 274.082031 299.496094 274.507812 C 301.484375 276.726562 304.832031 277.070312 307.234375 275.304688 L 311.253906 272.34375 C 314.070312 270.277344 314.425781 266.203125 312.007812 263.679688 Z M 312.011719 263.679688 " fill-opacity="1" fill-rule="nonzero"/></svg>