<svg xmlns="http://www.w3.org/2000/svg" xmlns:xlink="http://www.w3.org/1999/xlink" width="1122" zoomAndPan="magnify" viewBox="0 0 841.92 595.499987" height="793" preserveAspectRatio="xMidYMid meet" version="1.0"><defs><clipPath id="4453b6e4d9"><path d="M 99 0 L 742.679688 0 L 742.679688 595 L 99 595 Z M 99 0 " clip-rule="nonzero"/></clipPath></defs><g clip-path="url(#4453b6e4d9)"><path fill="#777777" d="M 427 170.492188 C 427 140.207031 410.570312 112.191406 384.117188 97.371094 C 381.292969 95.792969 377.839844 95.824219 375.050781 97.460938 C 372.257812 99.097656 370.539062 102.09375 370.539062 105.328125 L 370.539062 158.4375 L 343.238281 181.746094 L 315.9375 158.4375 L 315.9375 105.328125 C 315.9375 102.09375 314.21875 99.097656 311.425781 97.460938 C 308.632812 95.824219 305.183594 95.789062 302.359375 97.371094 C 275.910156 112.191406 259.476562 140.207031 259.476562 170.492188 C 259.476562 202.511719 277.445312 231.285156 305.75 245.414062 L 305.75 445.015625 C 277.445312 459.148438 259.476562 487.917969 259.476562 519.9375 C 259.476562 550.222656 275.90625 578.242188 302.359375 593.058594 C 305.183594 594.640625 308.632812 594.605469 311.425781 592.96875 C 314.21875 591.332031 315.9375 588.335938 315.9375 585.101562 L 315.9375 531.992188 L 343.238281 508.6875 L 370.539062 531.992188 L 370.539062 585.101562 C 370.539062 588.335938 372.257812 591.332031 375.050781 592.96875 C 376.472656 593.804688 378.066406 594.222656 379.660156 594.222656 C 381.195312 594.222656 382.730469 593.835938 384.117188 593.058594 C 410.570312 578.242188 427 550.222656 427 519.9375 C 427 487.917969 409.03125 459.148438 380.726562 445.015625 L 380.726562 245.414062 C 409.03125 231.28125 427 202.511719 427 170.492188 Z M 368.136719 459.316406 C 392.816406 469.464844 408.761719 493.261719 408.761719 519.9375 C 408.761719 537.894531 401.371094 554.835938 388.78125 567.035156 L 388.78125 527.785156 C 388.78125 525.117188 387.609375 522.582031 385.582031 520.851562 L 349.160156 489.757812 C 347.453125 488.300781 345.347656 487.574219 343.238281 487.574219 C 341.128906 487.574219 339.023438 488.300781 337.316406 489.757812 L 300.894531 520.851562 C 298.863281 522.582031 297.695312 525.117188 297.695312 527.785156 L 297.695312 567.035156 C 285.105469 554.835938 277.71875 537.898438 277.71875 519.9375 C 277.71875 493.257812 293.664062 469.464844 318.339844 459.316406 C 321.757812 457.910156 323.992188 454.578125 323.992188 450.878906 L 323.992188 239.546875 C 323.992188 235.851562 321.757812 232.519531 318.339844 231.113281 C 293.664062 220.964844 277.71875 197.167969 277.71875 170.492188 C 277.71875 152.53125 285.105469 135.589844 297.695312 123.394531 L 297.695312 162.640625 C 297.695312 165.308594 298.863281 167.84375 300.894531 169.578125 L 337.316406 200.671875 C 340.726562 203.582031 345.75 203.582031 349.160156 200.671875 L 385.582031 169.578125 C 387.609375 167.84375 388.78125 165.308594 388.78125 162.640625 L 388.78125 123.394531 C 401.371094 135.589844 408.761719 152.53125 408.761719 170.492188 C 408.761719 197.167969 392.816406 220.964844 368.136719 231.113281 C 364.71875 232.519531 362.488281 235.851562 362.488281 239.546875 L 362.488281 450.878906 C 362.484375 454.578125 364.71875 457.910156 368.136719 459.316406 Z M 552.519531 344.652344 L 538.894531 344.652344 L 538.894531 192.75 L 554.734375 173.289062 C 556.433594 171.199219 557.125 168.460938 556.613281 165.8125 L 544.660156 103.609375 C 543.835938 99.3125 540.078125 96.210938 535.707031 96.210938 L 497.027344 96.210938 C 492.652344 96.210938 488.894531 99.3125 488.070312 103.609375 L 476.117188 165.8125 C 475.609375 168.460938 476.296875 171.199219 478 173.289062 L 493.839844 192.75 L 493.839844 344.65625 L 480.214844 344.65625 C 475.175781 344.65625 471.09375 348.738281 471.09375 353.773438 L 471.09375 548.949219 C 471.09375 573.914062 491.402344 594.222656 516.367188 594.222656 C 541.328125 594.222656 561.636719 573.914062 561.636719 548.949219 L 561.636719 353.773438 C 561.636719 348.738281 557.554688 344.652344 552.519531 344.652344 Z M 510.03125 183.75 L 494.832031 165.074219 L 504.558594 114.449219 L 528.171875 114.449219 L 537.902344 165.074219 L 522.699219 183.75 C 521.378906 185.375 520.65625 187.410156 520.65625 189.507812 L 520.65625 344.652344 L 512.082031 344.652344 L 512.082031 189.507812 C 512.082031 187.410156 511.355469 185.378906 510.03125 183.75 Z M 543.398438 362.894531 L 543.398438 372.925781 L 489.335938 372.925781 L 489.335938 362.894531 Z M 516.367188 575.980469 C 501.460938 575.980469 489.335938 563.851562 489.335938 548.949219 L 489.335938 391.167969 L 543.398438 391.167969 L 543.398438 548.949219 C 543.398438 563.851562 531.269531 575.980469 516.367188 575.980469 Z M 525.488281 428.839844 L 525.488281 538.308594 C 525.488281 543.347656 521.402344 547.429688 516.367188 547.429688 C 511.328125 547.429688 507.246094 543.347656 507.246094 538.308594 L 507.246094 428.839844 C 507.246094 423.800781 511.328125 419.71875 516.367188 419.71875 C 521.402344 419.71875 525.488281 423.800781 525.488281 428.839844 Z M 226.46875 371.363281 C 226.078125 369.90625 225.332031 368.570312 224.300781 367.476562 L 189.230469 330.179688 L 183.949219 310.46875 C 180.210938 296.519531 167.074219 287.5625 153.171875 288.558594 C 153.164062 287.714844 153.140625 286.867188 153.140625 286.023438 C 153.140625 138.378906 273.257812 18.261719 420.898438 18.261719 C 478.945312 18.261719 534.167969 36.527344 580.597656 71.078125 C 584.636719 74.085938 590.347656 73.246094 593.359375 69.207031 C 596.363281 65.164062 595.527344 59.453125 591.484375 56.445312 C 541.886719 19.535156 482.898438 0.0234375 420.898438 0.0234375 C 344.507812 0.0234375 272.6875 29.773438 218.667969 83.792969 C 164.652344 137.808594 134.902344 209.628906 134.902344 286.023438 C 134.902344 288.296875 134.933594 290.585938 134.988281 292.871094 L 126.765625 295.074219 C 119.125 297.121094 112.730469 302.035156 108.765625 308.90625 C 104.796875 315.78125 103.738281 323.773438 105.785156 331.414062 L 111.066406 351.121094 L 99.34375 400.957031 C 98.996094 402.425781 99.019531 403.953125 99.410156 405.40625 L 111.410156 450.199219 C 112.039062 452.535156 113.566406 454.527344 115.660156 455.738281 C 117.058594 456.546875 118.632812 456.960938 120.222656 456.960938 C 121.011719 456.960938 121.804688 456.859375 122.582031 456.652344 L 143.269531 451.105469 L 151.960938 483.542969 C 153.054688 487.617188 156.738281 490.304688 160.765625 490.304688 C 161.546875 490.304688 162.339844 490.203125 163.132812 489.992188 C 167.996094 488.6875 170.882812 483.6875 169.582031 478.824219 L 160.890625 446.386719 L 193.714844 437.589844 L 202.40625 470.027344 C 203.5 474.101562 207.183594 476.789062 211.210938 476.789062 C 211.992188 476.789062 212.785156 476.6875 213.574219 476.476562 C 218.441406 475.171875 221.328125 470.171875 220.023438 465.304688 L 211.332031 432.871094 L 232.023438 427.328125 C 234.359375 426.703125 236.351562 425.171875 237.558594 423.078125 C 238.769531 420.980469 239.097656 418.492188 238.46875 416.15625 Z M 124.5625 318.027344 C 126.09375 315.375 128.554688 313.480469 131.488281 312.691406 L 152.332031 307.109375 C 158.417969 305.476562 164.699219 309.101562 166.332031 315.191406 L 172.207031 337.117188 C 172.59375 338.570312 173.339844 339.90625 174.371094 341.003906 L 200.566406 368.859375 L 120.589844 390.289062 L 129.347656 353.066406 C 129.691406 351.597656 129.667969 350.070312 129.28125 348.617188 L 123.40625 326.691406 C 122.617188 323.757812 123.027344 320.679688 124.5625 318.027344 Z M 197.804688 417.609375 L 147.378906 431.121094 C 147.375 431.121094 147.367188 431.125 147.359375 431.125 C 147.355469 431.125 147.347656 431.128906 147.339844 431.132812 L 126.671875 436.667969 L 119.390625 409.492188 L 211.210938 384.890625 L 218.492188 412.066406 Z M 742.390625 166.636719 L 730.386719 121.84375 C 729.761719 119.507812 728.234375 117.515625 726.136719 116.304688 C 724.042969 115.097656 721.554688 114.769531 719.21875 115.394531 L 698.527344 120.9375 L 689.835938 88.503906 C 688.53125 83.636719 683.527344 80.753906 678.667969 82.054688 C 673.800781 83.359375 670.914062 88.359375 672.21875 93.222656 L 680.910156 125.660156 L 648.082031 134.457031 L 639.390625 102.019531 C 638.089844 97.15625 633.085938 94.269531 628.222656 95.570312 C 623.359375 96.875 620.472656 101.875 621.773438 106.742188 L 630.464844 139.175781 L 609.777344 144.71875 C 604.914062 146.023438 602.027344 151.023438 603.328125 155.886719 L 615.332031 200.683594 C 615.722656 202.136719 616.464844 203.472656 617.496094 204.570312 L 652.570312 241.867188 L 657.851562 261.574219 C 659.898438 269.214844 664.808594 275.609375 671.683594 279.574219 C 676.265625 282.222656 681.347656 283.574219 686.488281 283.574219 C 687.199219 283.574219 687.914062 283.539062 688.625 283.488281 C 688.632812 284.332031 688.65625 285.179688 688.65625 286.023438 C 688.65625 371.511719 649.273438 449.855469 580.597656 500.964844 C 576.554688 503.972656 575.71875 509.683594 578.722656 513.726562 C 580.515625 516.128906 583.261719 517.398438 586.046875 517.398438 C 587.941406 517.398438 589.847656 516.8125 591.484375 515.59375 C 626.511719 489.527344 655.546875 455.269531 675.449219 416.527344 C 696.316406 375.90625 706.898438 332 706.898438 286.019531 C 706.898438 283.746094 706.867188 281.457031 706.8125 279.171875 L 715.035156 276.96875 C 730.835938 272.734375 740.25 256.429688 736.015625 240.628906 L 730.734375 220.917969 L 742.460938 171.085938 C 742.800781 169.621094 742.777344 168.09375 742.390625 166.636719 Z M 643.992188 154.433594 C 643.996094 154.433594 643.996094 154.433594 643.996094 154.433594 C 643.996094 154.433594 644 154.433594 644 154.433594 L 694.425781 140.921875 C 694.429688 140.921875 694.4375 140.921875 694.441406 140.917969 C 694.445312 140.917969 694.449219 140.914062 694.457031 140.914062 L 715.128906 135.375 L 722.410156 162.550781 L 630.589844 187.152344 L 623.308594 159.976562 Z M 710.3125 259.351562 L 689.46875 264.9375 C 686.535156 265.726562 683.457031 265.3125 680.804688 263.78125 C 678.148438 262.25 676.253906 259.789062 675.46875 256.855469 L 669.59375 234.929688 C 669.203125 233.472656 668.460938 232.136719 667.429688 231.042969 L 641.234375 203.183594 L 721.210938 181.753906 L 712.453125 218.976562 C 712.109375 220.445312 712.132812 221.972656 712.523438 223.425781 L 718.398438 245.351562 C 720.027344 251.441406 716.398438 257.722656 710.3125 259.351562 Z M 710.3125 259.351562 " fill-opacity="1" fill-rule="nonzero"/></g></svg>