<svg xmlns:xlink="http://www.w3.org/1999/xlink" xmlns="http://www.w3.org/2000/svg" width="64" height="64">
<g fill="#7E8895">
	<path class="st0" d="M16.8,37.6c2.4-2.5,3-6.9,3.6-11.2c1-7.5,1.9-14.9,11.7-14.9s10.7,7.4,11.7,14.9c0.6,4.4,1.1,8.8,3.6,11.3   c0.5,0.5,0.4,1.2,0,1.7c-0.2,0.2-0.5,0.3-0.8,0.3v0H17.6c-0.6,0-1.2-0.5-1.2-1.2C16.4,38.2,16.6,37.9,16.8,37.6L16.8,37.6z    M22.7,26.7c-0.5,3.8-1,7.7-2.7,10.6h24.1c-1.7-3-2.2-6.8-2.7-10.6c-0.8-6.5-1.7-12.9-9.3-12.9C24.4,13.8,23.6,20.2,22.7,26.7   L22.7,26.7z M37.4,40.9c0,1.5-0.6,2.8-1.6,3.8l0,0c-1,1-2.3,1.6-3.8,1.6c-1.5,0-2.8-0.6-3.8-1.6l0,0c-1-1-1.6-2.3-1.6-3.8H29   c0,0.8,0.3,1.6,0.9,2.2l0,0c0.6,0.5,1.3,0.9,2.2,0.9c0.8,0,1.6-0.3,2.2-0.9l0,0c0.5-0.6,0.9-1.3,0.9-2.2H37.4L37.4,40.9z M50.3,8.1   C54,10.9,57,14.4,59,18.6c2,4,3.1,8.5,3.1,13.2C62.1,36.5,61,41,59,45c-2,4.1-5,7.7-8.7,10.5l-1.4-1.9c3.3-2.5,6.1-5.8,8-9.7   c1.8-3.7,2.8-7.8,2.8-12.2s-1-8.5-2.8-12.2c-1.9-3.8-4.6-7.1-8-9.7L50.3,8.1L50.3,8.1z M14.4,55.4c-3.6-2.8-6.6-6.4-8.7-10.5   c-2-4-3.1-8.5-3.1-13.2c0-4.7,1.1-9.2,3.1-13.2c2-4.1,5-7.7,8.7-10.5l1.4,1.9c-3.3,2.5-6.1,5.8-8,9.7C6,23.3,5,27.4,5,31.8   s1,8.5,2.8,12.2c1.9,3.8,4.6,7.1,8,9.7L14.4,55.4L14.4,55.4z M46.8,12.8c2.9,2.2,5.3,5.1,7,8.4c1.6,3.2,2.5,6.8,2.5,10.6   c0,3.8-0.9,7.4-2.5,10.6c-1.6,3.3-4,6.2-7,8.4l-1.4-1.9c2.6-2,4.8-4.6,6.3-7.6c1.4-2.9,2.2-6.1,2.2-9.6c0-3.4-0.8-6.7-2.2-9.6   c-1.5-3-3.6-5.6-6.3-7.6L46.8,12.8L46.8,12.8z M17.9,50.8c-2.9-2.2-5.3-5.1-7-8.4c-1.6-3.2-2.5-6.8-2.5-10.6   c0-3.8,0.9-7.4,2.5-10.6c1.6-3.3,4-6.2,7-8.4l1.4,1.9c-2.6,2-4.8,4.6-6.3,7.6c-1.4,2.9-2.2,6.1-2.2,9.6c0,3.4,0.8,6.7,2.2,9.6   c1.5,3,3.6,5.6,6.3,7.6L17.9,50.8L17.9,50.8z"/>
</g>
</svg>