<svg xmlns="http://www.w3.org/2000/svg" xmlns:xlink="http://www.w3.org/1999/xlink" width="1122" zoomAndPan="magnify" viewBox="0 0 841.92 595.499987" height="793" preserveAspectRatio="xMidYMid meet" version="1.0"><defs><clipPath id="f0d24509b4"><path d="M 122.398438 0 L 716 0 L 716 594 L 122.398438 594 Z M 122.398438 0 " clip-rule="nonzero"/></clipPath></defs><path fill="#777777" d="M 606.308594 594.683594 C 604.265625 594.683594 602.21875 594.050781 600.453125 592.75 C 594.507812 588.347656 584.699219 582.734375 571.726562 581.0625 C 569.460938 580.765625 567.289062 580.617188 565.226562 580.578125 C 550.136719 580.28125 535.996094 577.03125 523.136719 570.917969 C 518.269531 568.59375 516.058594 562.761719 518.289062 557.871094 C 520.519531 552.984375 526.148438 550.71875 531.089844 552.894531 C 531.425781 553.042969 531.945312 553.300781 532.261719 553.46875 C 541.925781 558.039062 553.351562 560.640625 565.597656 560.882812 C 568.328125 560.9375 571.246094 561.125 574.253906 561.515625 C 591.425781 563.726562 604.355469 571.101562 612.199219 576.917969 C 616.566406 580.152344 617.476562 586.339844 614.242188 590.707031 C 612.308594 593.308594 609.335938 594.683594 606.308594 594.683594 Z M 606.308594 594.683594 " fill-opacity="1" fill-rule="nonzero"/><path fill="#777777" d="M 523.492188 570.191406 C 521.539062 570.191406 519.570312 569.617188 517.84375 568.410156 C 498.871094 555.125 478.804688 546.019531 458.179688 541.355469 C 449.316406 539.347656 441.566406 533.808594 436.902344 526.117188 C 432.535156 518.925781 431.292969 510.566406 433.390625 502.632812 C 434.117188 499.917969 435.195312 498.097656 435.695312 497.222656 C 447.4375 476.449219 467.636719 476.226562 488.726562 481.167969 L 389.371094 381.835938 C 383.574219 376.039062 380.378906 368.308594 380.378906 360.113281 C 380.378906 351.917969 383.574219 344.1875 389.371094 338.390625 C 400.949219 326.796875 421.203125 326.777344 432.816406 338.390625 L 539.265625 444.84375 C 543.113281 448.691406 543.113281 454.933594 539.265625 458.78125 C 535.421875 462.625 529.175781 462.625 525.332031 458.78125 L 418.878906 352.328125 C 414.71875 348.164062 407.453125 348.164062 403.308594 352.328125 C 398.996094 356.636719 398.996094 363.625 403.289062 367.917969 L 530.199219 494.828125 C 533.394531 498.003906 534.027344 502.945312 531.722656 506.832031 C 529.417969 510.714844 524.792969 512.535156 520.460938 511.269531 C 515.707031 509.878906 510.929688 508.355469 506.230469 506.832031 C 475.535156 497 460.257812 493.804688 452.863281 506.886719 C 451.488281 511.195312 452.621094 514.113281 453.71875 515.933594 C 455.632812 519.074219 458.808594 521.34375 462.46875 522.160156 C 485.621094 527.382812 508.050781 537.527344 529.121094 552.296875 C 533.582031 555.421875 534.660156 561.570312 531.535156 566.03125 C 529.660156 568.742188 526.613281 570.191406 523.492188 570.191406 Z M 523.492188 570.191406 " fill-opacity="1" fill-rule="nonzero"/><path fill="#777777" d="M 532.988281 462.292969 C 530.460938 462.292969 527.949219 461.324219 526.019531 459.410156 L 475.980469 409.371094 C 470.183594 403.574219 466.984375 395.84375 466.984375 387.652344 C 466.984375 379.4375 470.183594 371.726562 475.980469 365.929688 C 487.945312 353.945312 507.457031 353.964844 519.441406 365.929688 L 569.480469 415.949219 C 573.328125 419.796875 573.328125 426.039062 569.480469 429.886719 C 565.632812 433.730469 559.390625 433.730469 555.542969 429.886719 L 505.503906 379.863281 C 501.210938 375.574219 494.207031 375.554688 489.914062 379.863281 C 487.835938 381.945312 486.683594 384.714844 486.683594 387.652344 C 486.683594 390.585938 487.835938 393.355469 489.914062 395.4375 L 539.953125 445.476562 C 543.800781 449.320312 543.800781 455.566406 539.953125 459.410156 C 538.023438 461.34375 535.496094 462.292969 532.988281 462.292969 Z M 532.988281 462.292969 " fill-opacity="1" fill-rule="nonzero"/><path fill="#777777" d="M 562.492188 432.785156 C 559.964844 432.785156 557.457031 431.816406 555.527344 429.90625 L 513.660156 388.039062 C 507.863281 382.242188 504.667969 374.53125 504.667969 366.320312 C 504.667969 358.105469 507.863281 350.394531 513.660156 344.597656 C 525.273438 333.003906 545.511719 332.984375 557.125 344.597656 L 598.988281 386.460938 C 602.832031 390.308594 602.832031 396.550781 598.988281 400.398438 C 595.140625 404.242188 588.898438 404.242188 585.050781 400.398438 L 543.1875 358.535156 C 539.023438 354.371094 531.761719 354.371094 527.597656 358.535156 C 525.515625 360.613281 524.363281 363.382812 524.363281 366.320312 C 524.363281 369.253906 525.515625 372.023438 527.597656 374.105469 L 569.460938 415.988281 C 573.308594 419.832031 573.308594 426.078125 569.460938 429.921875 C 567.546875 431.816406 565.019531 432.785156 562.492188 432.785156 Z M 562.492188 432.785156 " fill-opacity="1" fill-rule="nonzero"/><path fill="#777777" d="M 708.226562 492.800781 C 705.253906 492.800781 702.316406 491.464844 700.367188 488.917969 C 699.101562 487.246094 697.839844 485.425781 696.667969 483.4375 C 695.480469 481.429688 694.4375 479.441406 693.566406 477.453125 C 679.832031 446.980469 660.65625 418.960938 636.261719 393.484375 L 614.78125 371.058594 L 582.058594 338.335938 C 577.710938 333.988281 570.742188 333.261719 566.507812 336.699219 C 564.015625 338.726562 562.585938 341.570312 562.417969 344.710938 C 562.269531 347.867188 563.402344 350.824219 565.632812 353.050781 L 599.339844 386.757812 C 603.1875 390.605469 603.1875 396.847656 599.339844 400.695312 C 595.492188 404.539062 589.25 404.539062 585.402344 400.695312 L 551.699219 366.988281 C 545.566406 360.855469 542.296875 352.382812 542.742188 343.707031 C 543.167969 335.046875 547.292969 326.925781 554.039062 321.425781 C 566.078125 311.578125 584.511719 312.878906 596.015625 324.382812 L 628.882812 357.25 L 650.511719 379.828125 C 676.46875 406.917969 696.910156 436.816406 711.273438 468.703125 C 712.183594 470.746094 712.871094 472.046875 713.632812 473.347656 C 714.394531 474.628906 715.230469 475.855469 716.085938 476.96875 C 719.375 481.300781 718.539062 487.488281 714.207031 490.777344 C 712.40625 492.152344 710.308594 492.800781 708.226562 492.800781 Z M 708.226562 492.800781 " fill-opacity="1" fill-rule="nonzero"/><g clip-path="url(#f0d24509b4)"><path fill="#777777" d="M 447.269531 593.511719 L 379.265625 593.511719 C 364.007812 593.511719 351.597656 581.101562 351.597656 565.84375 L 351.597656 542.933594 C 351.597656 539.496094 349.347656 536.410156 346.132812 535.425781 C 331.007812 530.820312 316.199219 524.6875 302.132812 517.21875 C 299.125 515.601562 295.425781 516.175781 292.953125 518.648438 L 276.75 534.851562 C 265.972656 545.628906 248.398438 545.628906 237.621094 534.851562 L 181.09375 478.328125 C 170.320312 467.550781 170.320312 449.992188 181.09375 439.214844 L 197.355469 422.953125 C 199.824219 420.484375 200.402344 416.785156 198.785156 413.757812 C 191.332031 399.765625 185.21875 384.992188 180.59375 369.867188 C 179.609375 366.652344 176.507812 364.40625 173.070312 364.40625 L 150.082031 364.40625 C 134.828125 364.40625 122.414062 351.992188 122.414062 336.738281 L 122.414062 256.839844 C 122.414062 241.582031 134.828125 229.171875 150.082031 229.171875 L 173.070312 229.171875 C 176.507812 229.171875 179.589844 226.921875 180.59375 223.707031 C 185.21875 208.527344 191.351562 193.738281 198.785156 179.765625 C 200.402344 176.753906 199.808594 173.054688 197.335938 170.585938 L 181.078125 154.328125 C 170.300781 143.550781 170.300781 125.988281 181.078125 115.210938 L 237.601562 58.6875 C 248.378906 47.910156 265.957031 47.910156 276.734375 58.6875 L 292.992188 74.949219 C 295.460938 77.417969 299.140625 77.996094 302.1875 76.378906 C 316.179688 68.925781 330.972656 62.796875 346.132812 58.1875 C 349.347656 57.203125 351.597656 54.117188 351.597656 50.679688 L 351.597656 27.75 C 351.597656 12.496094 364.007812 0.0820312 379.265625 0.0820312 L 459.164062 0.0820312 C 474.417969 0.0820312 486.832031 12.496094 486.832031 27.75 L 486.832031 50.679688 C 486.832031 54.117188 489.078125 57.203125 492.292969 58.1875 C 507.382812 62.796875 522.152344 68.910156 536.183594 76.378906 C 539.191406 77.996094 542.910156 77.398438 545.378906 74.949219 L 561.640625 58.6875 C 572.082031 48.226562 590.328125 48.226562 600.753906 58.6875 L 657.277344 115.210938 C 668.054688 125.988281 668.054688 143.550781 657.277344 154.328125 L 641.019531 170.585938 C 638.546875 173.054688 637.96875 176.753906 639.585938 179.765625 C 647.039062 193.773438 653.167969 208.566406 657.777344 223.707031 C 658.761719 226.921875 661.847656 229.171875 665.304688 229.171875 L 688.289062 229.171875 C 703.542969 229.171875 715.957031 241.582031 715.957031 256.839844 L 715.957031 336.738281 C 715.957031 351.992188 703.542969 364.40625 688.289062 364.40625 L 672.105469 364.40625 C 666.660156 364.40625 662.257812 359.984375 662.257812 354.558594 C 662.257812 349.113281 666.660156 344.710938 672.105469 344.710938 L 688.289062 344.710938 C 692.671875 344.710938 696.242188 341.140625 696.242188 336.757812 L 696.242188 256.859375 C 696.242188 252.472656 692.671875 248.90625 688.289062 248.90625 L 665.304688 248.90625 C 653.078125 248.90625 642.46875 241.101562 638.9375 229.46875 C 634.699219 215.53125 629.070312 201.929688 622.195312 189.035156 C 616.492188 178.296875 618.441406 165.289062 627.101562 156.648438 L 643.359375 140.390625 C 646.460938 137.289062 646.460938 132.234375 643.359375 129.148438 L 586.835938 72.625 C 583.824219 69.613281 578.601562 69.613281 575.59375 72.625 L 559.335938 88.882812 C 550.695312 97.523438 537.648438 99.492188 526.929688 93.789062 C 514.015625 86.914062 500.449219 81.285156 486.550781 77.046875 C 474.9375 73.5 467.132812 62.90625 467.132812 50.679688 L 467.132812 27.75 C 467.132812 23.367188 463.566406 19.796875 459.183594 19.796875 L 379.28125 19.796875 C 374.898438 19.796875 371.328125 23.367188 371.328125 27.75 L 371.328125 50.679688 C 371.328125 62.90625 363.527344 73.5 351.914062 77.046875 C 337.957031 81.300781 324.355469 86.933594 311.480469 93.789062 C 300.738281 99.511719 287.75 97.523438 279.09375 88.882812 L 262.835938 72.625 C 259.730469 69.523438 254.675781 69.523438 251.574219 72.625 L 195.050781 129.148438 C 191.945312 132.25 191.945312 137.304688 195.050781 140.390625 L 211.308594 156.648438 C 219.949219 165.289062 221.917969 178.296875 216.214844 189.035156 C 209.359375 201.894531 203.726562 215.496094 199.472656 229.46875 C 195.921875 241.101562 185.332031 248.90625 173.105469 248.90625 L 150.121094 248.90625 C 145.734375 248.90625 142.167969 252.472656 142.167969 256.859375 L 142.167969 336.757812 C 142.167969 341.140625 145.734375 344.710938 150.121094 344.710938 L 173.105469 344.710938 C 185.3125 344.710938 195.921875 352.511719 199.472656 364.125 C 203.726562 378.042969 209.339844 391.628906 216.214844 404.503906 C 221.9375 415.242188 219.96875 428.25 211.308594 436.910156 L 195.050781 453.167969 C 191.945312 456.269531 191.945312 461.324219 195.050781 464.410156 L 251.574219 520.933594 C 254.675781 524.035156 259.730469 524.035156 262.835938 520.933594 L 279.035156 504.730469 C 287.660156 496.089844 300.664062 494.101562 311.425781 499.824219 C 324.375 506.699219 337.996094 512.347656 351.894531 516.585938 C 363.527344 520.117188 371.328125 530.726562 371.328125 542.953125 L 371.328125 565.863281 C 371.328125 570.25 374.898438 573.816406 379.28125 573.816406 L 447.289062 573.816406 C 452.734375 573.816406 457.136719 578.238281 457.136719 583.664062 C 457.136719 589.109375 452.714844 593.511719 447.269531 593.511719 Z M 447.269531 593.511719 " fill-opacity="1" fill-rule="nonzero"/></g><path fill="#777777" d="M 405.183594 454.414062 C 404.867188 454.414062 404.570312 454.394531 404.253906 454.375 C 391.714844 453.207031 379.339844 450.511719 367.503906 446.40625 C 361.667969 444.472656 355.664062 441.980469 349.792969 439.082031 L 347.582031 437.988281 C 342.734375 435.535156 340.78125 429.589844 343.253906 424.738281 C 345.707031 419.871094 351.632812 417.957031 356.503906 420.410156 L 358.492188 421.394531 C 363.617188 423.941406 368.765625 426.058594 373.855469 427.765625 C 384.316406 431.410156 395.113281 433.75 406.09375 434.773438 C 411.519531 435.273438 415.496094 440.085938 414.996094 445.511719 C 414.511719 450.585938 410.21875 454.414062 405.183594 454.414062 Z M 405.183594 454.414062 " fill-opacity="1" fill-rule="nonzero"/><path fill="#777777" d="M 300.886719 396.273438 C 297.914062 396.273438 294.960938 394.933594 293.027344 392.371094 C 286.765625 384.140625 281.324219 375.277344 276.789062 366.003906 C 273.890625 360.039062 271.4375 354.09375 269.503906 348.332031 C 263.78125 331.832031 260.863281 314.441406 260.863281 296.714844 C 260.863281 278.988281 263.78125 261.613281 269.523438 245.019531 C 271.511719 239.167969 273.984375 233.203125 276.863281 227.367188 C 292.25 195.707031 318.207031 169.75 349.941406 154.34375 C 355.703125 151.484375 361.667969 149.011719 367.613281 147.023438 C 400.59375 135.558594 438 135.558594 470.925781 147.117188 C 476.445312 148.917969 482.425781 151.351562 488.464844 154.289062 C 520.148438 169.765625 546.085938 195.707031 561.5625 227.367188 C 564.480469 233.390625 566.933594 239.355469 568.867188 245.113281 C 573.699219 259.070312 576.539062 273.765625 577.300781 288.722656 C 577.582031 294.167969 573.382812 298.796875 567.9375 299.054688 C 562.511719 299.390625 557.886719 295.132812 557.605469 289.710938 C 556.957031 276.609375 554.464844 263.75 550.210938 251.46875 C 548.519531 246.378906 546.382812 241.210938 543.855469 235.992188 C 530.328125 208.285156 507.605469 185.5625 479.863281 171.996094 C 474.621094 169.453125 469.496094 167.351562 464.609375 165.773438 C 435.453125 155.535156 402.992188 155.589844 373.988281 165.660156 C 368.804688 167.40625 363.675781 169.542969 358.640625 172.035156 C 330.785156 185.5625 308.0625 208.285156 294.589844 236.046875 C 292.0625 241.15625 289.925781 246.304688 288.199219 251.394531 C 283.160156 265.960938 280.597656 281.179688 280.597656 296.695312 C 280.597656 312.210938 283.144531 327.429688 288.179688 341.921875 C 289.886719 346.976562 292.023438 352.160156 294.535156 357.363281 C 298.472656 365.445312 303.265625 373.214844 308.730469 380.421875 C 312.039062 384.75 311.183594 390.941406 306.835938 394.226562 C 305.050781 395.621094 302.949219 396.273438 300.886719 396.273438 Z M 300.886719 396.273438 " fill-opacity="1" fill-rule="nonzero"/><path fill="#777777" d="M 325.878906 422.082031 C 323.707031 422.082031 321.515625 421.355469 319.675781 419.890625 C 318.1875 418.679688 316.71875 417.453125 315.289062 416.210938 C 311.183594 412.640625 310.738281 406.417969 314.324219 402.3125 C 317.890625 398.1875 324.132812 397.777344 328.238281 401.328125 C 329.503906 402.441406 330.804688 403.519531 332.105469 404.578125 C 336.324219 407.996094 336.992188 414.222656 333.554688 418.441406 C 331.601562 420.835938 328.761719 422.082031 325.878906 422.082031 Z M 325.878906 422.082031 " fill-opacity="1" fill-rule="nonzero"/></svg>