<svg xmlns:xlink="http://www.w3.org/1999/xlink" xmlns="http://www.w3.org/2000/svg" width="64" height="64">
<g fill="#7E8895">
	<path class="st0" d="M40.2,19.9c-0.8-0.9-2-1.4-3.3-1.4c-1.3,0-2.5,0.4-3.3,1.3l-1.1,1.1l-5.3-5.2c1.3-3.8,0.5-7.2-2.1-9.8   l-1.5-1.5c-3.3-3.2-8.3-3-11.8-1.4L10,3.7l6.1,6l-2.8,2.8l-6.1-6L6.4,8.1c-1.7,3.5-1.9,8.4,1.4,11.6l1.5,1.5   c2.6,2.5,5.8,3.3,9.5,2.2l5.4,5.4l-1.8,1.8l1.8,1.8l11-10.9c0.4-0.4,0.9-0.6,1.5-0.6c0.6,0,1.1,0.2,1.5,0.6   c8.7,9.1,11.1,13.2,11.1,14.2l-12,11.8c-0.9,0.9-2.9,1-4.5,1.1c-1.6,0.1-2.9,0.2-3.7,0.9l-2.3,2.2L16.2,41.1l1-1   c1.2-1.2,1.6-4.2,1.6-5.9c0-1.6,0.3-3.9,2-5.5l0.7-0.7l-1.8-1.8L19,27c-1.8,1.7-2.7,4.3-2.7,7.3c0,2-0.6,3.8-0.9,4.1l-1,1l-1.9-1.9   l-6.9,6.8l18.3,18l6.9-6.8l-1.9-1.9l2.2-2.2c0.3-0.1,1.4-0.2,2.1-0.2c2-0.1,4.6-0.2,6.1-1.8l12.1-11.9   C52.4,36.5,54.3,34.6,40.2,19.9z M19.5,20.6l-0.8,0.3c-3.1,1.1-5.6,0.6-7.6-1.4L9.6,18c-1.9-1.9-2.1-4.7-1.5-7.1l5.2,5.2l6.4-6.3   l-5.2-5.2c2.4-0.6,5.3-0.4,7.2,1.5l1.5,1.5c2.1,2.1,2.6,4.7,1.3,7.9l-0.3,0.8l6.4,6.4l-4.5,4.5L19.5,20.6z M23.9,58.7L9.2,44.2   l3.3-3.2l14.7,14.5C27.2,55.5,23.9,58.7,23.9,58.7z M57.1,45.2l-5.7-5.6l-1.8,1.8l5.7,5.6c1.2,1.2,1.3,3.2,0.1,4.4c0,0,0,0-0.1,0.1   c-1.2,1.2-3.3,1.2-4.5,0l-5.7-5.6l-1.8,1.8l5.7,5.6c1.1,1.1,2.5,1.7,4.1,1.7c1.5,0,3-0.6,4.1-1.7c1.1-1.1,1.7-2.5,1.7-4   C58.8,47.7,58.2,46.3,57.1,45.2z"/>
</g>
</svg>