<svg xmlns="http://www.w3.org/2000/svg" xmlns:xlink="http://www.w3.org/1999/xlink" width="1122" zoomAndPan="magnify" viewBox="0 0 841.92 595.499987" height="793" preserveAspectRatio="xMidYMid meet" version="1.0"><defs><clipPath id="333cdb93ab"><path d="M 151 59.476562 L 715 59.476562 L 715 535.328125 L 151 535.328125 Z M 151 59.476562 " clip-rule="nonzero"/></clipPath></defs><path fill="#777777" d="M 455.515625 116.019531 C 450.652344 108.316406 442.300781 103.707031 433.1875 103.707031 C 424.078125 103.707031 415.722656 108.304688 410.859375 116.007812 L 199.574219 450.546875 C 194.433594 458.679688 194.125 468.96875 198.769531 477.398438 C 203.414062 485.824219 212.273438 491.0625 221.902344 491.0625 L 644.472656 491.0625 C 654.09375 491.0625 662.960938 485.824219 667.605469 477.40625 C 672.25 468.976562 671.941406 458.6875 666.800781 450.558594 Z M 652.175781 468.914062 C 650.625 471.71875 647.675781 473.46875 644.464844 473.46875 L 221.902344 473.46875 C 218.6875 473.46875 215.738281 471.71875 214.1875 468.914062 C 212.636719 466.105469 212.746094 462.671875 214.453125 459.964844 L 425.75 125.417969 C 427.367188 122.855469 430.152344 121.3125 433.1875 121.3125 C 436.226562 121.3125 439.007812 122.84375 440.628906 125.417969 L 651.914062 459.953125 C 653.628906 462.660156 653.730469 466.09375 652.175781 468.902344 Z M 652.175781 468.914062 " fill-opacity="1" fill-rule="nonzero"/><g clip-path="url(#333cdb93ab)"><path fill="#777777" d="M 704.019531 427.039062 L 492.734375 92.515625 C 479.757812 71.957031 457.496094 59.6875 433.1875 59.6875 C 408.878906 59.6875 386.617188 71.957031 373.644531 92.503906 L 162.355469 427.039062 C 148.65625 448.742188 147.832031 476.175781 160.222656 498.644531 C 172.601562 521.117188 196.238281 535.082031 221.902344 535.082031 L 644.472656 535.082031 C 670.136719 535.082031 693.761719 521.117188 706.15625 498.65625 C 718.546875 476.1875 717.71875 448.742188 704.019531 427.050781 Z M 690.738281 490.152344 C 681.449219 507 663.722656 517.476562 644.472656 517.476562 L 221.902344 517.476562 C 202.65625 517.476562 184.9375 507.011719 175.640625 490.152344 C 166.351562 473.292969 166.957031 452.714844 177.234375 436.449219 L 388.53125 101.914062 C 398.261719 86.496094 414.953125 77.296875 433.1875 77.296875 C 451.421875 77.296875 468.117188 86.496094 477.855469 101.914062 L 689.140625 436.449219 C 699.417969 452.726562 700.035156 473.304688 690.738281 490.152344 Z M 690.738281 490.152344 " fill-opacity="1" fill-rule="nonzero"/></g><path fill="#777777" d="M 433.1875 376.617188 C 418.628906 376.617188 406.777344 388.46875 406.777344 403.027344 C 406.777344 417.585938 418.628906 429.4375 433.1875 429.4375 C 447.746094 429.4375 459.597656 417.585938 459.597656 403.027344 C 459.597656 388.46875 447.746094 376.617188 433.1875 376.617188 Z M 433.1875 411.832031 C 428.335938 411.832031 424.382812 407.882812 424.382812 403.027344 C 424.382812 398.175781 428.335938 394.226562 433.1875 394.226562 C 438.042969 394.226562 441.992188 398.175781 441.992188 403.027344 C 441.992188 407.882812 438.042969 411.832031 433.1875 411.832031 Z M 433.1875 411.832031 " fill-opacity="1" fill-rule="nonzero"/><path fill="#777777" d="M 433.1875 235.761719 C 413.777344 235.761719 397.972656 251.550781 397.972656 270.972656 C 397.972656 298.871094 423.988281 359.890625 425.101562 362.476562 C 426.484375 365.710938 429.667969 367.8125 433.1875 367.8125 C 436.710938 367.8125 439.890625 365.710938 441.277344 362.476562 C 442.386719 359.890625 468.402344 298.871094 468.402344 270.972656 C 468.402344 251.550781 452.601562 235.761719 433.1875 235.761719 Z M 433.1875 335.351562 C 425.144531 314.144531 415.582031 285.457031 415.582031 270.972656 C 415.582031 261.269531 423.480469 253.367188 433.1875 253.367188 C 442.894531 253.367188 450.796875 261.269531 450.796875 270.972656 C 450.796875 285.457031 441.230469 314.144531 433.1875 335.351562 Z M 433.1875 335.351562 " fill-opacity="1" fill-rule="nonzero"/></svg>