<?xml version="1.0" encoding="utf-8"?>
<svg xmlns="http://www.w3.org/2000/svg" width="64" height="64">
<g fill="#e2001a">
	<path class="st0" d="M13.1,23.3l2.7-5.1c0.5-0.9,1-1.7,1.8-2.3l0,0c0.9-0.6,2-1,3.5-1h20.2v2.4H21.1c-1,0-1.6,0.2-2.1,0.5l0,0l0,0
		c-0.5,0.3-0.8,0.9-1.1,1.5l-3.2,6.2l0.7,1l3.7,1.3H24v2.4h-5.1c-0.2,0-0.3,0-0.5-0.1l-4.1-1.4c-0.2-0.1-0.4-0.2-0.6-0.4L11,24.4
		H4.6v3.3l5.8,1.6c0.6,0.2,1,0.8,0.9,1.5c0,0.1-0.1,0.3-0.2,0.4l-0.1,0.1c-1,1.7-2.3,3.9-2.3,6.3V44c0,1,0.3,2,1,2.7
		c0.6,0.6,1.4,0.9,2.7,0.9h39.9c1.2,0,2.1-0.4,2.7-0.9l0,0l0,0c0.7-0.7,1-1.7,1-2.7v-6.4c0-2.4-1.3-4.6-2.3-6.3L53.4,31
		c-0.3-0.6-0.2-1.3,0.4-1.6c0.1-0.1,0.2-0.1,0.3-0.1l0,0l5.8-1.6v-3.3h-6.4l-2.7,3.7c-0.1,0.2-0.3,0.3-0.6,0.4v0L45.9,30
		c-0.1,0-0.3,0.1-0.4,0.1v0h-5.4v-2.4h5.2l3.7-1.3l0.7-1l-2.4-4.6l2.1-1.1l1.9,3.5l0.5-0.7c0.2-0.3,0.6-0.6,1-0.6H61
		c0.7,0,1.2,0.5,1.2,1.2v5.4h0c0,0.5-0.4,1-0.9,1.2l-5.1,1.4c1,1.7,2,3.9,2,6.3V44c0,1.5-0.5,3.1-1.6,4.3v6.2c0,0.7-0.5,1.2-1.2,1.2
		H42.8c-0.7,0-1.2-0.5-1.2-1.2v-2.8H44v1.6h10.3v-3.5c-0.6,0.2-1.3,0.3-2.1,0.3H12.2c-0.8,0-1.5-0.1-2.1-0.3v3.5h10.3v-1.6h2.4v2.8
		c0,0.7-0.5,1.2-1.2,1.2H8.9c-0.7,0-1.2-0.5-1.2-1.2v-6.2c-1.1-1.2-1.6-2.8-1.6-4.3v-6.4c0-2.5,1-4.6,2-6.3l-5.1-1.4
		c-0.5-0.1-0.9-0.6-0.9-1.2v-5.4c0-0.7,0.5-1.2,1.2-1.2h8.2v0c0.4,0,0.7,0.2,1,0.5L13.1,23.3L13.1,23.3z M21.5,41.9h21.4v2.4H21.5
		V41.9L21.5,41.9z M21.5,38.7h-7.1c-0.4,0-0.7-0.2-0.9-0.4l-2.8-2.8l1.7-1.7l2.5,2.5h6.6V38.7L21.5,38.7z M42.9,36.3h6.6l2.5-2.5
		l1.7,1.7l-2.8,2.8c-0.2,0.3-0.5,0.4-0.9,0.4h-7.1V36.3L42.9,36.3z M46.8,3.2l2.1,4.9l4.9,2.1c0.6,0.3,0.9,1,0.6,1.6
		c-0.1,0.3-0.4,0.5-0.6,0.6l-4.9,2.1l-2.1,4.9c-0.3,0.6-1,0.9-1.6,0.6c-0.3-0.1-0.5-0.4-0.6-0.6l-2.1-4.9l-4.9-2.1
		c-0.6-0.3-0.9-1-0.6-1.6c0.1-0.3,0.4-0.5,0.6-0.6l4.9-2.1l2.1-4.9c0.3-0.6,1-0.9,1.6-0.6C46.5,2.7,46.7,2.9,46.8,3.2L46.8,3.2z
		 M46.9,9.4l-1.2-2.7l-1.2,2.7c-0.1,0.3-0.3,0.5-0.6,0.6l-2.7,1.2l2.7,1.2c0.3,0.1,0.5,0.3,0.6,0.6l1.2,2.7l1.2-2.7
		c0.1-0.3,0.3-0.5,0.6-0.6l2.7-1.2l-2.7-1.2C47.3,10,47,9.7,46.9,9.4L46.9,9.4z M33.2,18.7l1.9,4.4l4.4,1.9c0.6,0.3,0.9,1,0.6,1.6
		c-0.1,0.3-0.4,0.5-0.6,0.6L35,29.1l-1.9,4.4c-0.3,0.6-1,0.9-1.6,0.6c-0.3-0.1-0.5-0.4-0.6-0.6l-1.9-4.4l-4.4-1.9
		c-0.6-0.3-0.9-1-0.6-1.6c0.1-0.3,0.4-0.5,0.6-0.6l4.4-1.9l1.9-4.4c0.3-0.6,1-0.9,1.6-0.6C32.8,18.2,33,18.4,33.2,18.7L33.2,18.7z
		 M33,24.5l-1-2.3l-1,2.3c-0.1,0.3-0.3,0.5-0.6,0.6l-2.3,1l2.3,1c0.3,0.1,0.5,0.3,0.6,0.6l1,2.3l1-2.3c0.1-0.3,0.3-0.5,0.6-0.6
		l2.3-1l-2.3-1C33.4,25,33.2,24.8,33,24.5L33,24.5z"/>
</g>
</svg>
