<?xml version="1.0" encoding="utf-8"?>
<svg xmlns="http://www.w3.org/2000/svg" width="64" height="64">
<g fill="#e2001a">
	<path class="st0" d="M60.7,9.3H3.3c-1.4,0-2.5,1.1-2.5,2.5v33.9c0,1.4,1.1,2.5,2.5,2.5h23.6v4.1H19v2.4H45v-2.4h-7.9v-4.1h18.4
		v-2.4H3.3c-0.1,0-0.1-0.1-0.1-0.1V11.8c0-0.1,0.1-0.1,0.1-0.1h57.3c0.1,0,0.1,0.1,0.1,0.1v31.3h2.4V11.8C63.2,10.4,62,9.3,60.7,9.3
		z M34.7,52.3h-5.4v-4.1h5.4V52.3z"/>
	<path class="st0" d="M57.9,32c0-6-4.9-11-11-11S36,26,36,32s4.9,11,11,11c2.3,0,4.4-0.7,6.1-1.9l8,8l1.7-1.7l-7.9-7.9
		C56.9,37.5,57.9,34.8,57.9,32z M38.4,32c0-4.7,3.9-8.6,8.6-8.6s8.6,3.9,8.6,8.6s-3.9,8.6-8.6,8.6S38.4,36.7,38.4,32z"/>
	<path class="st0" d="M39.7,22.2v-6.4h-8.9v27.2h2.4V18.2h4.1v4H39.7z M28,43.1V23.6h-8.9v19.4h2.4V26h4.1v17.1H28z M16.2,43.1V30.2
		H7.4v12.9h2.4V32.5h4.1v10.5H16.2z"/>
</g>
</svg>
