<svg xmlns="http://www.w3.org/2000/svg" width="64" height="64"><g fill="#ED1C24"><path d="M42.421 32.631H21.579a1.17 1.17 0 0 0 0 2.337h20.842a1.17 1.17 0 0 0 0-2.337zm.993 12.769c-.332-.53-1.079-.707-1.61-.375-.644.4-1.539.185-1.934-.453l-.85-1.374a1.158 1.158 0 0 0-.992-.554c-.485.023-.866.274-1.053.658l-2.594 5.333c-.281.58-.039 1.28.54 1.562.562.273 1.29.02 1.562-.54l1.674-3.441.25.253c1.18 1.191 3.182 1.439 4.631.54a1.17 1.17 0 0 0 .376-1.609zm-14.256-7.085h-7.579a1.169 1.169 0 0 0 0 2.337h7.579a1.168 1.168 0 0 0 0-2.337z"/><path d="M49.273 9.168c0-.644-.523-1.168-1.168-1.168H21.214c-.312 0-.605.122-.826.342l-5.319 5.319a1.161 1.161 0 0 0-.342.826v40.344c0 .644.523 1.168 1.168 1.168h32.211c.645 0 1.168-.524 1.168-1.168V9.168zm-2.336 44.495H17.063V14.972l4.635-4.635h25.238v43.326z"/><path d="M43.59 14.853c0-.645-.524-1.168-1.169-1.168h-7.579c-.645 0-1.168.524-1.168 1.168v7.579c0 .645.523 1.168 1.168 1.168h7.579a1.17 1.17 0 0 0 1.169-1.168v-7.579zm-2.337 6.41h-5.242v-5.242h5.242v5.242zm1.168 5.684H21.579c-.645 0-1.169.524-1.169 1.168s.524 1.168 1.169 1.168h20.842c.645 0 1.169-.524 1.169-1.168s-.525-1.168-1.169-1.168z"/></g></svg>