<?xml version="1.0" encoding="utf-8"?>
<svg xmlns="http://www.w3.org/2000/svg" width="64" height="64">
<style type="text/css">
	.st0{fill:#FFFFFF;}
	.st1{fill:#FF0000;}
</style>
<path id="f" class="st0" d="M43.7,62.9V39h8.1l1.2-9.3h-9.3v-6c0-2.7,0.8-4.6,4.6-4.6h5v-8.4c-0.9-0.1-3.8-0.4-7.2-0.4
	c-7.1,0-12,4.4-12,12.4v6.9H26V39h8.1v24L43.7,62.9L43.7,62.9z"/>
<g id="g5" transform="scale(0.58823529,0.58823529)">
	<path id="path7" class="st1" d="M105.3,28.9c-1.2-4.5-4.8-8.1-9.4-9.4c-8.3-2.3-41.5-2.3-41.5-2.3s-33.2,0-41.5,2.2
		c-4.5,1.2-8.1,4.9-9.4,9.4c-2.2,8.3-2.2,25.5-2.2,25.5s0,17.3,2.2,25.5c1.2,4.5,4.8,8.1,9.4,9.4c8.4,2.3,41.5,2.3,41.5,2.3
		s33.2,0,41.5-2.2c4.5-1.2,8.1-4.8,9.4-9.4c2.2-8.3,2.2-25.5,2.2-25.5S107.6,37.2,105.3,28.9z"/>
	<polygon id="polygon9" class="st0" points="71.5,54.4 43.8,38.5 43.8,70.3 	"/>
</g>
</svg>
