<svg xmlns="http://www.w3.org/2000/svg" xmlns:xlink="http://www.w3.org/1999/xlink" width="295" zoomAndPan="magnify" viewBox="0 0 221.25 138.750001" height="185" preserveAspectRatio="xMidYMid meet" version="1.0"><defs><clipPath id="2644c0f9ff"><path d="M 0 0.109375 L 220.503906 0.109375 L 220.503906 138.390625 L 0 138.390625 Z M 0 0.109375 " clip-rule="nonzero"/></clipPath></defs><g clip-path="url(#2644c0f9ff)"><path fill="#ffffff" d="M 0 0.109375 L 220.503906 0.109375 L 220.503906 138.390625 L 0 138.390625 Z M 0 0.109375 " fill-opacity="1" fill-rule="nonzero"/></g><path fill="#fefefe" d="M 144.082031 18.71875 L 159.46875 60.253906 L 64.089844 84.871094 L 56.71875 60.859375 L 54.5625 42.414062 Z M 144.082031 18.71875 " fill-opacity="1" fill-rule="evenodd"/><path fill="#727271" d="M 109.882812 129.890625 L 109.882812 105.492188 L 121.046875 105.492188 C 122.414062 105.492188 123.628906 105.714844 124.660156 106.175781 C 125.691406 106.636719 126.523438 107.226562 127.148438 107.960938 C 127.773438 108.699219 128.289062 109.601562 128.675781 110.6875 C 129.359375 112.585938 129.710938 114.945312 129.710938 117.785156 C 129.710938 125.855469 126.816406 129.890625 121.046875 129.890625 Z M 142.609375 56.695312 L 133.726562 59.496094 L 126.132812 44.332031 L 129.324219 60.878906 L 121.675781 63.292969 L 115.574219 33 L 126.394531 29.589844 L 134.058594 45.269531 L 131.515625 27.984375 L 142.332031 24.578125 L 154.714844 52.882812 L 147.070312 55.296875 L 140.027344 39.945312 Z M 113.253906 65.945312 L 105.496094 68.398438 L 98.457031 46.046875 L 91.085938 48.367188 L 88.890625 41.402344 L 111.632812 34.234375 L 113.824219 41.199219 L 106.214844 43.59375 Z M 89.667969 73.375 L 82.628906 58.023438 L 85.226562 74.773438 L 76.34375 77.554688 L 68.75 62.390625 L 71.9375 78.9375 L 64.292969 81.351562 L 58.191406 51.058594 L 69.007812 47.648438 L 76.675781 63.332031 L 74.132812 46.046875 L 84.949219 42.636719 L 97.332031 70.941406 Z M 145.960938 10.277344 L 47.597656 40.738281 L 64.625 96.316406 L 172.941406 96.316406 Z M 99.378906 129.890625 L 93.757812 129.890625 L 93.757812 122.722656 L 86.203125 105.492188 L 92.320312 105.492188 L 96.652344 116.789062 L 101.386719 105.492188 L 107.484375 105.492188 L 99.378906 122.722656 Z M 65.175781 129.890625 L 65.175781 105.492188 L 70.816406 105.492188 L 70.816406 115.628906 L 78.203125 115.628906 L 78.203125 105.492188 L 83.84375 105.492188 L 83.84375 129.890625 L 78.203125 129.890625 L 78.203125 120.566406 L 70.816406 120.566406 L 70.816406 129.910156 Z M 152.910156 122.1875 C 152.742188 120.675781 152.671875 119.183594 152.671875 117.691406 C 152.671875 116.199219 152.761719 114.835938 152.945312 113.582031 C 153.132812 112.328125 153.371094 111.261719 153.683594 110.375 C 153.996094 109.492188 154.402344 108.753906 154.898438 108.128906 C 155.398438 107.5 155.914062 107.023438 156.449219 106.652344 C 156.984375 106.285156 157.609375 106.027344 158.363281 105.824219 C 159.582031 105.492188 160.871094 105.328125 162.269531 105.328125 C 163.671875 105.328125 164.683594 105.363281 165.367188 105.417969 C 166.050781 105.472656 166.765625 105.621094 167.523438 105.824219 C 168.277344 106.027344 168.921875 106.304688 169.441406 106.652344 C 169.957031 107.003906 170.472656 107.5 170.96875 108.128906 C 171.464844 108.753906 171.871094 109.492188 172.167969 110.359375 C 172.8125 112.292969 173.125 114.796875 173.125 117.859375 C 173.125 121.5625 172.589844 124.417969 171.503906 126.425781 C 170.949219 127.496094 170.066406 128.363281 168.851562 129.023438 C 167.613281 129.6875 165.625 130.019531 162.878906 130.019531 C 160.078125 130.019531 158.105469 129.707031 156.945312 129.078125 C 155.691406 128.433594 154.789062 127.605469 154.273438 126.574219 C 153.519531 125.15625 153.058594 123.679688 152.890625 122.167969 Z M 158.9375 112.183594 C 158.734375 112.734375 158.585938 113.472656 158.476562 114.375 C 158.363281 115.277344 158.308594 116.308594 158.308594 117.453125 C 158.308594 118.59375 158.328125 119.480469 158.363281 120.125 C 158.402344 120.769531 158.457031 121.339844 158.53125 121.875 C 158.605469 122.410156 158.734375 122.851562 158.898438 123.183594 C 159.066406 123.515625 159.25 123.828125 159.46875 124.085938 C 159.691406 124.34375 159.96875 124.527344 160.316406 124.675781 C 160.980469 124.914062 161.808594 125.042969 162.824219 125.042969 C 163.835938 125.042969 164.613281 124.953125 165.164062 124.769531 C 165.71875 124.582031 166.179688 124.214844 166.546875 123.664062 C 166.914062 123.109375 167.171875 122.390625 167.320312 121.46875 C 167.46875 120.546875 167.523438 119.386719 167.523438 117.929688 C 167.523438 116.476562 167.46875 115.332031 167.375 114.449219 C 167.285156 113.5625 167.117188 112.84375 166.933594 112.253906 C 166.75 111.664062 166.453125 111.242188 166.050781 110.964844 C 165.644531 110.6875 165.238281 110.503906 164.777344 110.394531 C 164.316406 110.285156 163.707031 110.246094 162.933594 110.246094 C 162.160156 110.246094 161.570312 110.285156 161.128906 110.359375 C 160.6875 110.429688 160.261719 110.617188 159.855469 110.890625 C 159.453125 111.167969 159.136719 111.59375 158.953125 112.144531 Z M 132.492188 129.890625 L 132.492188 105.492188 L 143.585938 105.492188 C 145.851562 105.492188 147.621094 106.082031 148.910156 107.261719 C 150.199219 108.441406 150.828125 110.414062 150.828125 113.195312 C 150.828125 115.574219 150.476562 117.304688 149.757812 118.390625 C 149.316406 119.054688 148.894531 119.515625 148.488281 119.753906 C 148.007812 120.011719 147.492188 120.253906 146.9375 120.457031 L 151.507812 129.890625 L 145.113281 129.890625 L 141.375 120.917969 L 138.113281 120.457031 L 138.113281 129.890625 Z M 138.148438 116.253906 L 142.921875 116.253906 C 143.789062 116.253906 144.378906 116.050781 144.671875 115.628906 C 144.96875 115.203125 145.113281 114.429688 145.113281 113.289062 C 145.113281 112.144531 144.949219 111.351562 144.597656 110.910156 C 144.25 110.46875 143.695312 110.230469 142.921875 110.230469 L 138.148438 110.230469 Z M 115.519531 125.15625 L 120.53125 125.15625 C 121.785156 125.15625 122.6875 124.546875 123.242188 123.3125 C 123.792969 122.078125 124.070312 120.34375 124.070312 118.078125 C 124.070312 115.8125 123.921875 114.117188 123.628906 112.972656 C 123.332031 111.832031 122.945312 111.09375 122.46875 110.746094 C 121.988281 110.394531 121.34375 110.210938 120.550781 110.210938 L 115.519531 110.210938 Z M 115.519531 125.15625 " fill-opacity="1" fill-rule="nonzero"/></svg>