<svg xmlns="http://www.w3.org/2000/svg" xmlns:xlink="http://www.w3.org/1999/xlink" width="295" zoomAndPan="magnify" viewBox="0 0 221.25 138.750001" height="185" preserveAspectRatio="xMidYMid meet" version="1.0"><defs><clipPath id="b40f526354"><path d="M 0 0.109375 L 220.503906 0.109375 L 220.503906 138.390625 L 0 138.390625 Z M 0 0.109375 " clip-rule="nonzero"/></clipPath></defs><g clip-path="url(#b40f526354)"><path fill="#ffffff" d="M 0 0.109375 L 220.503906 0.109375 L 220.503906 138.390625 L 0 138.390625 Z M 0 0.109375 " fill-opacity="1" fill-rule="nonzero"/></g><path fill="#778486" d="M 104.003906 74.710938 C 93.273438 71.179688 85.550781 61.074219 85.550781 49.152344 C 85.550781 48.675781 85.527344 48.152344 85.550781 47.625 C 85.742188 37.351562 90.960938 31.292969 98.972656 24.929688 C 103.882812 20.972656 105.003906 17.011719 108.960938 12.03125 C 110.894531 14.964844 112.109375 16.464844 114.230469 19.277344 C 118.332031 24.691406 122.125 26.453125 126.9375 31.269531 C 131.753906 36.085938 134.519531 40.710938 135.523438 46.648438 C 136.023438 48.652344 136.285156 50.75 136.285156 52.894531 C 136.285156 66.867188 124.960938 78.191406 110.988281 78.191406 C 114.375 71.609375 116.832031 66.03125 116.832031 58.355469 C 116.832031 51.203125 115.78125 46.863281 112.585938 40.472656 C 111.371094 38.066406 109.011719 35.539062 108.296875 35.441406 C 108.152344 35.417969 106.648438 35.871094 103.933594 38.207031 C 98.855469 42.59375 96.898438 46.027344 96.089844 53.0625 C 95.492188 58.308594 97.566406 63.765625 101.046875 68.226562 C 101.644531 69.011719 102.214844 69.75 102.789062 70.417969 C 103.8125 71.347656 104.359375 71.992188 105.671875 72.324219 C 106.171875 72.46875 106.484375 72.5625 106.984375 72.445312 C 107.484375 72.324219 107.914062 72.207031 108.128906 71.730469 C 108.296875 71.371094 108.246094 71.085938 108.128906 70.730469 C 107.984375 70.277344 107.675781 70.132812 107.363281 69.75 C 106.554688 68.773438 105.910156 68.390625 105.125 67.414062 C 104.433594 66.554688 104.027344 66.054688 103.503906 65.078125 C 102.859375 63.816406 102.523438 63.027344 102.359375 61.621094 C 102.167969 60.09375 102.382812 59.1875 102.714844 57.664062 C 103.003906 56.398438 103.3125 55.730469 103.765625 54.539062 C 104.265625 53.203125 104.695312 52.511719 105.125 51.15625 C 105.433594 50.199219 105.601562 49.652344 105.769531 48.675781 C 105.957031 47.625 106.03125 47.007812 106.054688 45.933594 C 106.722656 46.695312 107.078125 47.148438 107.652344 47.984375 C 108.222656 48.816406 108.484375 49.367188 108.9375 50.296875 C 109.75 51.941406 110.128906 52.917969 110.65625 54.683594 C 111.132812 56.234375 111.371094 57.140625 111.632812 58.761719 C 111.847656 60.117188 111.941406 60.90625 111.992188 62.289062 C 112.015625 63.863281 111.941406 64.746094 111.703125 66.292969 C 111.417969 68.011719 111.109375 68.941406 110.558594 70.585938 C 110.058594 72.113281 109.726562 72.945312 109.058594 74.398438 C 108.03125 74.851562 107.316406 75.117188 106.148438 75.140625 C 105.316406 75.164062 104.625 74.878906 103.957031 74.78125 " fill-opacity="1" fill-rule="evenodd"/><path fill="#727271" d="M 86.527344 99.078125 L 90.914062 99.078125 L 88.769531 92.949219 Z M 86.527344 99.078125 " fill-opacity="1" fill-rule="nonzero"/><path fill="#727271" d="M 140.074219 53.609375 C 138.882812 66.820312 129.132812 77.546875 116.449219 80.050781 C 116.234375 80.097656 115.996094 80.121094 115.78125 80.167969 C 115.589844 80.195312 115.398438 80.242188 115.210938 80.265625 C 113.800781 80.480469 112.371094 80.597656 110.894531 80.597656 C 110.871094 80.597656 110.847656 80.597656 110.820312 80.597656 C 110.796875 80.597656 110.773438 80.597656 110.75 80.597656 C 95.398438 80.597656 82.785156 68.75 81.425781 53.609375 L 66.144531 53.609375 L 66.144531 103.035156 L 89.507812 126.898438 L 132.183594 126.898438 L 155.550781 103.035156 L 155.550781 53.609375 Z M 101.238281 109.449219 L 90.652344 109.449219 L 90.652344 106.871094 C 91.273438 106.777344 93.058594 106.847656 93.058594 105.871094 C 93.058594 105.441406 92.773438 104.609375 92.65625 104.179688 L 91.867188 101.84375 L 85.621094 101.84375 L 84.8125 104.179688 C 84.667969 104.582031 84.453125 105.226562 84.453125 105.632812 C 84.453125 106.730469 86.050781 106.730469 86.742188 106.871094 L 87.027344 106.894531 L 87.027344 109.472656 L 78.0625 109.472656 L 78.0625 106.871094 C 80.613281 106.585938 81.1875 104.871094 82.046875 102.605469 L 87.695312 87.964844 L 92.203125 87.964844 L 98.113281 103.84375 C 98.878906 105.871094 98.925781 106.394531 100.929688 106.800781 L 101.238281 106.824219 Z M 111.585938 109.996094 C 105.578125 109.996094 101.167969 105.300781 101.167969 98.765625 C 101.167969 92.234375 104.933594 87.441406 111.132812 87.441406 C 112.800781 87.441406 114.46875 87.847656 115.972656 88.707031 L 116.328125 87.964844 L 118.070312 87.964844 L 120.667969 95.40625 L 118.425781 96.285156 L 118.308594 96.121094 C 117.617188 94.832031 116.902344 93.472656 115.925781 92.402344 C 114.875 91.257812 113.445312 90.351562 111.941406 90.351562 C 107.960938 90.351562 106.792969 95.214844 106.792969 98.648438 C 106.792969 100.339844 107.222656 102.675781 108.105469 104.128906 C 109.035156 105.777344 110.609375 106.777344 112.417969 106.777344 C 115.304688 106.777344 117.570312 104.417969 118.855469 101.792969 L 121.242188 103.152344 C 119.738281 107.492188 115.828125 109.972656 111.609375 109.972656 Z M 143.078125 90.589844 C 141.054688 90.492188 140.3125 92.234375 139.671875 94.023438 L 134.257812 109.472656 L 130.324219 109.472656 L 124.722656 93.496094 C 123.933594 91.257812 123.671875 90.660156 121.289062 90.613281 L 121.289062 87.964844 L 132.015625 87.964844 L 132.015625 90.566406 C 131.085938 90.636719 129.488281 90.589844 129.488281 91.734375 C 129.488281 92.042969 129.730469 92.710938 129.847656 93.019531 L 133.449219 103.75 L 136.855469 93.117188 C 137 92.710938 137.144531 92.257812 137.144531 91.828125 C 137.144531 90.589844 135.6875 90.683594 134.878906 90.566406 L 134.878906 87.964844 L 143.105469 87.964844 Z M 143.078125 90.589844 " fill-opacity="1" fill-rule="nonzero"/></svg>