<svg xmlns="http://www.w3.org/2000/svg" xmlns:xlink="http://www.w3.org/1999/xlink" width="295" zoomAndPan="magnify" viewBox="0 0 221.25 138.750001" height="185" preserveAspectRatio="xMidYMid meet" version="1.0"><defs><clipPath id="593689ca37"><path d="M 0 0.109375 L 220.503906 0.109375 L 220.503906 138.390625 L 0 138.390625 Z M 0 0.109375 " clip-rule="nonzero"/></clipPath></defs><g clip-path="url(#593689ca37)"><path fill="#ffffff" d="M 0 0.109375 L 220.503906 0.109375 L 220.503906 138.390625 L 0 138.390625 Z M 0 0.109375 " fill-opacity="1" fill-rule="nonzero"/></g><path fill="#727271" d="M 62.300781 12.527344 C 62.300781 12.527344 58.226562 12.6875 58.25 16.671875 C 58.386719 20.652344 61.953125 21.117188 63.921875 21.117188 C 65.890625 21.117188 78.96875 20.210938 84.875 27.480469 C 87.328125 30.261719 90.613281 27.992188 91.195312 27.390625 C 91.957031 26.578125 93.324219 23.339844 90.335938 21.09375 C 95.523438 21.023438 108.535156 21.460938 109.992188 21.601562 C 111.453125 21.742188 122.425781 21.601562 133.492188 32.367188 C 135.855469 34.730469 138.65625 33.824219 140.042969 32.226562 C 141.433594 30.632812 141.6875 28.0625 138.5625 25.304688 C 136.222656 23.222656 130.851562 16.972656 118.050781 14.101562 C 113.90625 13.128906 108.742188 12.710938 102.722656 12.734375 C 78.554688 12.597656 62.695312 12.527344 62.695312 12.527344 Z M 62.300781 12.527344 " fill-opacity="1" fill-rule="nonzero"/><path fill="#727271" d="M 129.417969 47.53125 C 129.417969 57.210938 121.570312 65.058594 111.890625 65.058594 C 102.214844 65.058594 94.34375 57.210938 94.34375 47.53125 C 94.34375 37.855469 102.191406 29.984375 111.890625 29.984375 C 121.59375 29.984375 129.417969 37.832031 129.417969 47.53125 " fill-opacity="1" fill-rule="nonzero"/><path fill="#727271" d="M 161.320312 82.328125 C 161.320312 82.328125 165.371094 82.167969 165.371094 78.183594 C 165.234375 74.203125 161.667969 73.738281 159.699219 73.738281 C 157.730469 73.738281 144.652344 74.640625 138.769531 67.371094 C 136.316406 64.59375 133.027344 66.863281 132.449219 67.464844 C 131.6875 68.277344 130.320312 71.515625 133.308594 73.761719 C 128.144531 73.832031 115.109375 73.390625 113.652344 73.253906 C 112.191406 73.113281 101.195312 73.253906 90.152344 62.488281 C 87.789062 60.125 84.988281 61.027344 83.601562 62.625 C 82.210938 64.222656 81.957031 66.792969 85.082031 69.550781 C 87.441406 71.632812 92.792969 77.882812 105.59375 80.753906 C 109.738281 81.726562 114.902344 82.144531 120.945312 82.121094 C 145.089844 82.257812 160.972656 82.328125 160.972656 82.328125 Z M 161.320312 82.328125 " fill-opacity="1" fill-rule="nonzero"/><path fill="#727271" d="M 26.042969 97.167969 C 25.90625 96.636719 25.71875 96.128906 25.464844 95.664062 C 25.210938 95.203125 24.910156 94.808594 24.515625 94.484375 C 24.125 94.160156 23.683594 93.882812 23.152344 93.71875 C 22.617188 93.558594 22.039062 93.441406 21.34375 93.441406 C 20.347656 93.441406 19.492188 93.648438 18.75 94.042969 C 18.011719 94.4375 17.433594 94.992188 16.96875 95.664062 C 16.507812 96.335938 16.183594 97.101562 15.949219 97.957031 C 15.71875 98.8125 15.625 99.691406 15.625 100.574219 C 15.625 101.453125 15.742188 102.355469 15.949219 103.210938 C 16.160156 104.070312 16.507812 104.832031 16.96875 105.503906 C 17.433594 106.175781 18.011719 106.707031 18.75 107.125 C 19.492188 107.542969 20.347656 107.726562 21.34375 107.726562 C 22.085938 107.726562 22.734375 107.585938 23.289062 107.332031 C 23.84375 107.078125 24.332031 106.730469 24.726562 106.289062 C 25.117188 105.851562 25.441406 105.320312 25.675781 104.714844 C 25.90625 104.113281 26.042969 103.488281 26.113281 102.796875 L 29.308594 102.796875 C 29.238281 103.90625 29.007812 104.949219 28.589844 105.875 C 28.175781 106.800781 27.617188 107.609375 26.925781 108.28125 C 26.230469 108.953125 25.398438 109.484375 24.449219 109.832031 C 23.5 110.179688 22.457031 110.390625 21.320312 110.390625 C 19.910156 110.390625 18.660156 110.132812 17.546875 109.625 C 16.4375 109.117188 15.488281 108.398438 14.722656 107.519531 C 13.960938 106.636719 13.359375 105.574219 12.941406 104.390625 C 12.523438 103.210938 12.316406 101.9375 12.316406 100.574219 C 12.316406 99.207031 12.523438 97.980469 12.941406 96.796875 C 13.359375 95.617188 13.9375 94.554688 14.722656 93.671875 C 15.511719 92.792969 16.4375 92.074219 17.546875 91.542969 C 18.660156 91.011719 19.910156 90.757812 21.320312 90.757812 C 22.363281 90.757812 23.359375 90.894531 24.285156 91.195312 C 25.210938 91.496094 26.042969 91.914062 26.738281 92.445312 C 27.433594 92.980469 28.011719 93.671875 28.453125 94.460938 C 28.890625 95.246094 29.171875 96.152344 29.261719 97.167969 Z M 26.042969 97.167969 " fill-opacity="1" fill-rule="nonzero"/><path fill="#727271" d="M 38.175781 110.34375 C 37.089844 110.34375 36.117188 110.15625 35.28125 109.808594 C 34.449219 109.460938 33.707031 108.953125 33.128906 108.328125 C 32.550781 107.703125 32.085938 106.9375 31.785156 106.058594 C 31.484375 105.179688 31.324219 104.207031 31.324219 103.164062 C 31.324219 102.125 31.484375 101.175781 31.785156 100.292969 C 32.085938 99.414062 32.550781 98.675781 33.128906 98.027344 C 33.707031 97.378906 34.425781 96.890625 35.28125 96.542969 C 36.140625 96.195312 37.109375 96.011719 38.175781 96.011719 C 39.242188 96.011719 40.238281 96.195312 41.070312 96.542969 C 41.902344 96.890625 42.644531 97.402344 43.222656 98.027344 C 43.800781 98.652344 44.265625 99.414062 44.566406 100.292969 C 44.867188 101.175781 45.027344 102.125 45.027344 103.164062 C 45.027344 104.207031 44.867188 105.179688 44.566406 106.058594 C 44.265625 106.9375 43.800781 107.679688 43.222656 108.328125 C 42.644531 108.976562 41.925781 109.460938 41.070312 109.808594 C 40.214844 110.15625 39.242188 110.34375 38.175781 110.34375 Z M 38.175781 107.980469 C 38.847656 107.980469 39.425781 107.84375 39.914062 107.5625 C 40.398438 107.285156 40.816406 106.917969 41.117188 106.453125 C 41.417969 105.988281 41.671875 105.480469 41.8125 104.902344 C 41.949219 104.324219 42.042969 103.746094 42.042969 103.164062 C 42.042969 102.585938 41.972656 102.007812 41.8125 101.429688 C 41.648438 100.851562 41.417969 100.339844 41.117188 99.902344 C 40.816406 99.460938 40.398438 99.089844 39.914062 98.8125 C 39.425781 98.535156 38.847656 98.394531 38.175781 98.394531 C 37.503906 98.394531 36.925781 98.535156 36.441406 98.8125 C 35.953125 99.089844 35.535156 99.460938 35.234375 99.902344 C 34.933594 100.339844 34.679688 100.851562 34.542969 101.429688 C 34.402344 102.007812 34.308594 102.585938 34.308594 103.164062 C 34.308594 103.746094 34.378906 104.347656 34.542969 104.902344 C 34.703125 105.457031 34.910156 105.988281 35.234375 106.453125 C 35.558594 106.917969 35.953125 107.285156 36.441406 107.5625 C 36.925781 107.84375 37.503906 107.980469 38.175781 107.980469 " fill-opacity="1" fill-rule="nonzero"/><path fill="#727271" d="M 47.53125 96.382812 L 50.378906 96.382812 L 50.378906 98.28125 L 50.445312 98.28125 C 50.679688 97.957031 50.910156 97.632812 51.1875 97.355469 C 51.464844 97.078125 51.742188 96.84375 52.066406 96.636719 C 52.390625 96.429688 52.761719 96.289062 53.179688 96.171875 C 53.59375 96.058594 54.082031 96.011719 54.613281 96.011719 C 55.449219 96.011719 56.210938 96.195312 56.90625 96.566406 C 57.601562 96.9375 58.109375 97.515625 58.410156 98.28125 C 58.921875 97.585938 59.5 97.03125 60.171875 96.636719 C 60.84375 96.242188 61.675781 96.035156 62.671875 96.035156 C 64.105469 96.035156 65.21875 96.382812 66.027344 97.078125 C 66.839844 97.769531 67.230469 98.953125 67.230469 100.59375 L 67.230469 109.972656 L 64.246094 109.972656 L 64.246094 102.03125 C 64.246094 101.5 64.222656 100.988281 64.199219 100.550781 C 64.175781 100.109375 64.058594 99.714844 63.898438 99.390625 C 63.734375 99.066406 63.480469 98.8125 63.15625 98.652344 C 62.832031 98.488281 62.371094 98.394531 61.792969 98.394531 C 60.773438 98.394531 60.03125 98.71875 59.589844 99.34375 C 59.152344 99.96875 58.898438 100.875 58.898438 102.03125 L 58.898438 109.996094 L 55.886719 109.996094 L 55.886719 101.242188 C 55.886719 100.292969 55.726562 99.578125 55.378906 99.089844 C 55.03125 98.605469 54.40625 98.375 53.503906 98.375 C 53.109375 98.375 52.738281 98.441406 52.390625 98.605469 C 52.042969 98.765625 51.71875 99 51.441406 99.300781 C 51.164062 99.601562 50.957031 99.96875 50.792969 100.410156 C 50.632812 100.851562 50.539062 101.359375 50.539062 101.914062 L 50.539062 109.996094 L 47.53125 109.996094 Z M 47.53125 96.382812 " fill-opacity="1" fill-rule="nonzero"/><path fill="#727271" d="M 72.742188 103.953125 C 72.742188 104.484375 72.8125 104.996094 72.972656 105.480469 C 73.136719 105.96875 73.34375 106.40625 73.644531 106.777344 C 73.945312 107.148438 74.316406 107.449219 74.777344 107.65625 C 75.242188 107.867188 75.773438 107.980469 76.398438 107.980469 C 77.28125 107.980469 77.972656 107.796875 78.507812 107.425781 C 79.039062 107.054688 79.433594 106.476562 79.710938 105.734375 L 82.558594 105.734375 C 82.394531 106.476562 82.117188 107.125 81.746094 107.703125 C 81.378906 108.28125 80.890625 108.769531 80.359375 109.160156 C 79.828125 109.554688 79.203125 109.855469 78.53125 110.066406 C 77.859375 110.273438 77.140625 110.367188 76.421875 110.367188 C 75.359375 110.367188 74.410156 110.179688 73.574219 109.832031 C 72.742188 109.484375 72.046875 109 71.492188 108.351562 C 70.9375 107.703125 70.496094 106.960938 70.195312 106.082031 C 69.894531 105.203125 69.753906 104.253906 69.753906 103.1875 C 69.753906 102.214844 69.917969 101.3125 70.21875 100.433594 C 70.519531 99.554688 70.960938 98.8125 71.539062 98.140625 C 72.117188 97.46875 72.789062 96.960938 73.597656 96.566406 C 74.410156 96.171875 75.3125 95.988281 76.332031 95.988281 C 77.394531 95.988281 78.367188 96.21875 79.203125 96.660156 C 80.035156 97.101562 80.753906 97.703125 81.308594 98.441406 C 81.863281 99.183594 82.28125 100.015625 82.535156 100.988281 C 82.789062 101.960938 82.859375 102.933594 82.742188 103.953125 Z M 79.734375 101.984375 C 79.710938 101.523438 79.59375 101.058594 79.433594 100.617188 C 79.269531 100.179688 79.039062 99.808594 78.761719 99.484375 C 78.484375 99.160156 78.113281 98.90625 77.71875 98.695312 C 77.324219 98.488281 76.839844 98.394531 76.332031 98.394531 C 75.820312 98.394531 75.335938 98.488281 74.894531 98.675781 C 74.457031 98.859375 74.109375 99.113281 73.785156 99.4375 C 73.460938 99.761719 73.226562 100.132812 73.042969 100.574219 C 72.859375 101.011719 72.765625 101.476562 72.742188 101.984375 Z M 79.734375 101.984375 " fill-opacity="1" fill-rule="nonzero"/><path fill="#727271" d="M 87.28125 105.621094 C 87.375 106.5 87.699219 107.101562 88.277344 107.449219 C 88.855469 107.796875 89.550781 107.980469 90.359375 107.980469 C 90.636719 107.980469 90.960938 107.957031 91.308594 107.910156 C 91.65625 107.867188 92.003906 107.796875 92.328125 107.65625 C 92.652344 107.519531 92.90625 107.355469 93.09375 107.125 C 93.277344 106.894531 93.394531 106.570312 93.371094 106.199219 C 93.347656 105.828125 93.207031 105.503906 92.953125 105.25 C 92.699219 104.996094 92.351562 104.808594 91.933594 104.648438 C 91.519531 104.484375 91.054688 104.371094 90.523438 104.277344 C 89.988281 104.183594 89.457031 104.070312 88.925781 103.929688 C 88.390625 103.789062 87.8125 103.652344 87.304688 103.488281 C 86.796875 103.328125 86.332031 103.074219 85.914062 102.773438 C 85.5 102.472656 85.175781 102.101562 84.917969 101.636719 C 84.664062 101.175781 84.550781 100.59375 84.550781 99.925781 C 84.550781 99.183594 84.734375 98.558594 85.082031 98.070312 C 85.429688 97.585938 85.890625 97.167969 86.449219 96.867188 C 87.003906 96.566406 87.605469 96.359375 88.277344 96.21875 C 88.949219 96.082031 89.597656 96.035156 90.222656 96.035156 C 90.917969 96.035156 91.585938 96.105469 92.234375 96.265625 C 92.882812 96.429688 93.460938 96.660156 93.972656 96.984375 C 94.480469 97.308594 94.921875 97.746094 95.269531 98.28125 C 95.617188 98.8125 95.824219 99.460938 95.917969 100.226562 L 92.816406 100.226562 C 92.675781 99.507812 92.351562 99.019531 91.820312 98.789062 C 91.285156 98.558594 90.707031 98.417969 90.035156 98.417969 C 89.828125 98.417969 89.574219 98.441406 89.296875 98.464844 C 89.019531 98.488281 88.738281 98.558594 88.484375 98.652344 C 88.230469 98.742188 88.023438 98.882812 87.835938 99.066406 C 87.652344 99.253906 87.582031 99.484375 87.582031 99.785156 C 87.582031 100.15625 87.722656 100.457031 87.976562 100.6875 C 88.230469 100.917969 88.554688 101.105469 88.972656 101.242188 C 89.386719 101.382812 89.851562 101.523438 90.382812 101.613281 C 90.917969 101.707031 91.449219 101.824219 92.027344 101.960938 C 92.605469 102.101562 93.117188 102.238281 93.625 102.402344 C 94.132812 102.5625 94.621094 102.816406 95.035156 103.121094 C 95.453125 103.421875 95.777344 103.789062 96.03125 104.253906 C 96.289062 104.714844 96.402344 105.273438 96.402344 105.945312 C 96.402344 106.753906 96.21875 107.425781 95.847656 108.003906 C 95.476562 108.582031 94.992188 109.023438 94.410156 109.371094 C 93.832031 109.71875 93.160156 109.972656 92.445312 110.132812 C 91.726562 110.296875 91.007812 110.367188 90.3125 110.367188 C 89.457031 110.367188 88.648438 110.273438 87.929688 110.089844 C 87.210938 109.902344 86.5625 109.601562 86.03125 109.207031 C 85.5 108.816406 85.082031 108.328125 84.757812 107.726562 C 84.433594 107.125 84.292969 106.453125 84.273438 105.644531 Z M 87.28125 105.621094 " fill-opacity="1" fill-rule="nonzero"/><path fill="#727271" d="M 97.304688 96.382812 L 99.574219 96.382812 L 99.574219 92.308594 L 102.585938 92.308594 L 102.585938 96.382812 L 105.292969 96.382812 L 105.292969 98.605469 L 102.5625 98.605469 L 102.5625 105.851562 C 102.5625 106.175781 102.585938 106.429688 102.609375 106.660156 C 102.632812 106.894531 102.699219 107.078125 102.792969 107.238281 C 102.886719 107.402344 103.023438 107.519531 103.234375 107.585938 C 103.441406 107.65625 103.695312 107.703125 104.019531 107.703125 C 104.226562 107.703125 104.4375 107.703125 104.644531 107.679688 C 104.851562 107.65625 105.0625 107.632812 105.269531 107.585938 L 105.269531 109.902344 C 104.945312 109.949219 104.621094 109.972656 104.296875 110.019531 C 103.972656 110.066406 103.648438 110.066406 103.324219 110.066406 C 102.539062 110.066406 101.890625 109.996094 101.425781 109.832031 C 100.964844 109.671875 100.570312 109.460938 100.292969 109.183594 C 100.015625 108.90625 99.828125 108.535156 99.738281 108.097656 C 99.644531 107.65625 99.574219 107.148438 99.574219 106.59375 L 99.574219 98.628906 L 97.304688 98.628906 Z M 97.304688 96.382812 " fill-opacity="1" fill-rule="nonzero"/><path fill="#727271" d="M 109.761719 103.953125 C 109.761719 104.484375 109.832031 104.996094 109.992188 105.480469 C 110.15625 105.96875 110.363281 106.40625 110.664062 106.777344 C 110.964844 107.148438 111.335938 107.449219 111.800781 107.65625 C 112.261719 107.867188 112.792969 107.980469 113.417969 107.980469 C 114.300781 107.980469 114.992188 107.796875 115.527344 107.425781 C 116.058594 107.054688 116.453125 106.476562 116.730469 105.734375 L 119.578125 105.734375 C 119.414062 106.476562 119.136719 107.125 118.769531 107.703125 C 118.398438 108.28125 117.910156 108.769531 117.378906 109.160156 C 116.847656 109.554688 116.222656 109.855469 115.550781 110.066406 C 114.878906 110.273438 114.160156 110.367188 113.441406 110.367188 C 112.378906 110.367188 111.429688 110.179688 110.59375 109.832031 C 109.761719 109.484375 109.066406 109 108.511719 108.351562 C 107.957031 107.703125 107.515625 106.960938 107.214844 106.082031 C 106.914062 105.203125 106.773438 104.253906 106.773438 103.1875 C 106.773438 102.214844 106.9375 101.3125 107.238281 100.433594 C 107.539062 99.554688 107.980469 98.8125 108.558594 98.140625 C 109.136719 97.46875 109.808594 96.960938 110.617188 96.566406 C 111.429688 96.171875 112.332031 95.988281 113.351562 95.988281 C 114.414062 95.988281 115.386719 96.21875 116.222656 96.660156 C 117.054688 97.101562 117.773438 97.703125 118.328125 98.441406 C 118.882812 99.183594 119.300781 100.015625 119.554688 100.988281 C 119.808594 101.960938 119.878906 102.933594 119.761719 103.953125 Z M 116.753906 101.984375 C 116.707031 101.523438 116.613281 101.058594 116.453125 100.617188 C 116.289062 100.179688 116.058594 99.808594 115.757812 99.484375 C 115.457031 99.160156 115.109375 98.90625 114.714844 98.695312 C 114.324219 98.488281 113.835938 98.394531 113.328125 98.394531 C 112.816406 98.394531 112.332031 98.488281 111.890625 98.675781 C 111.453125 98.859375 111.105469 99.113281 110.78125 99.4375 C 110.457031 99.761719 110.226562 100.132812 110.039062 100.574219 C 109.855469 101.011719 109.761719 101.476562 109.738281 101.984375 Z M 116.753906 101.984375 " fill-opacity="1" fill-rule="nonzero"/><path fill="#727271" d="M 122.03125 96.382812 L 124.832031 96.382812 L 124.832031 99.019531 L 124.878906 99.019531 C 124.972656 98.652344 125.132812 98.304688 125.390625 97.933594 C 125.644531 97.5625 125.945312 97.261719 126.316406 96.984375 C 126.6875 96.707031 127.078125 96.453125 127.519531 96.289062 C 127.957031 96.128906 128.398438 96.035156 128.863281 96.035156 C 129.210938 96.035156 129.464844 96.035156 129.578125 96.058594 C 129.695312 96.082031 129.855469 96.082031 129.996094 96.105469 L 129.996094 99 C 129.789062 98.976562 129.578125 98.929688 129.347656 98.90625 C 129.117188 98.882812 128.90625 98.859375 128.699219 98.859375 C 128.191406 98.859375 127.703125 98.953125 127.265625 99.160156 C 126.824219 99.367188 126.429688 99.667969 126.082031 100.0625 C 125.738281 100.457031 125.480469 100.941406 125.296875 101.523438 C 125.109375 102.101562 125.019531 102.773438 125.019531 103.511719 L 125.019531 109.972656 L 122.03125 109.972656 Z M 122.03125 96.382812 " fill-opacity="1" fill-rule="nonzero"/><path fill="#727271" d="M 137.082031 110.34375 C 135.992188 110.34375 135.019531 110.15625 134.1875 109.808594 C 133.351562 109.460938 132.613281 108.953125 132.035156 108.328125 C 131.453125 107.703125 130.992188 106.9375 130.691406 106.058594 C 130.390625 105.179688 130.226562 104.207031 130.226562 103.164062 C 130.226562 102.125 130.390625 101.175781 130.691406 100.292969 C 130.992188 99.414062 131.453125 98.675781 132.035156 98.027344 C 132.613281 97.378906 133.332031 96.890625 134.1875 96.542969 C 135.042969 96.195312 136.015625 96.011719 137.082031 96.011719 C 138.144531 96.011719 139.140625 96.195312 139.976562 96.542969 C 140.808594 96.890625 141.550781 97.402344 142.128906 98.027344 C 142.707031 98.652344 143.167969 99.414062 143.46875 100.292969 C 143.773438 101.175781 143.933594 102.125 143.933594 103.164062 C 143.933594 104.207031 143.773438 105.179688 143.46875 106.058594 C 143.167969 106.9375 142.707031 107.679688 142.128906 108.328125 C 141.550781 108.976562 140.832031 109.460938 139.976562 109.808594 C 139.117188 110.15625 138.144531 110.34375 137.082031 110.34375 Z M 137.082031 107.980469 C 137.753906 107.980469 138.332031 107.84375 138.816406 107.5625 C 139.304688 107.285156 139.71875 106.917969 140.019531 106.453125 C 140.320312 105.988281 140.578125 105.480469 140.714844 104.902344 C 140.855469 104.324219 140.945312 103.746094 140.945312 103.164062 C 140.945312 102.585938 140.878906 102.007812 140.714844 101.429688 C 140.554688 100.851562 140.34375 100.339844 140.019531 99.902344 C 139.695312 99.460938 139.304688 99.089844 138.816406 98.8125 C 138.332031 98.535156 137.753906 98.394531 137.082031 98.394531 C 136.410156 98.394531 135.832031 98.535156 135.34375 98.8125 C 134.859375 99.089844 134.441406 99.460938 134.140625 99.902344 C 133.839844 100.339844 133.585938 100.851562 133.445312 101.429688 C 133.308594 102.007812 133.214844 102.585938 133.214844 103.164062 C 133.214844 103.746094 133.285156 104.347656 133.445312 104.902344 C 133.609375 105.457031 133.839844 105.988281 134.140625 106.453125 C 134.441406 106.917969 134.859375 107.285156 135.34375 107.5625 C 135.832031 107.84375 136.410156 107.980469 137.082031 107.980469 " fill-opacity="1" fill-rule="nonzero"/><path fill="#727271" d="M 158.03125 111.570312 C 157.824219 112.378906 157.476562 113.050781 156.992188 113.628906 C 156.503906 114.207031 155.902344 114.625 155.140625 114.925781 C 154.375 115.226562 153.449219 115.367188 152.335938 115.367188 C 151.667969 115.367188 150.996094 115.296875 150.347656 115.136719 C 149.699219 114.972656 149.121094 114.742188 148.609375 114.394531 C 148.101562 114.046875 147.660156 113.628906 147.3125 113.121094 C 146.964844 112.613281 146.78125 111.984375 146.710938 111.269531 L 148.378906 111.269531 C 148.472656 111.777344 148.632812 112.195312 148.886719 112.542969 C 149.144531 112.890625 149.445312 113.167969 149.8125 113.375 C 150.183594 113.582031 150.578125 113.746094 151.019531 113.839844 C 151.457031 113.929688 151.898438 113.976562 152.359375 113.976562 C 153.910156 113.976562 155.023438 113.539062 155.695312 112.65625 C 156.367188 111.777344 156.714844 110.527344 156.714844 108.882812 L 156.714844 107.054688 L 156.667969 107.054688 C 156.273438 107.886719 155.71875 108.558594 154.976562 109.070312 C 154.234375 109.578125 153.355469 109.832031 152.359375 109.832031 C 151.273438 109.832031 150.347656 109.648438 149.582031 109.300781 C 148.820312 108.953125 148.171875 108.445312 147.683594 107.820312 C 147.199219 107.195312 146.828125 106.453125 146.597656 105.597656 C 146.363281 104.738281 146.25 103.835938 146.25 102.886719 C 146.25 101.960938 146.386719 101.082031 146.664062 100.25 C 146.945312 99.414062 147.335938 98.695312 147.847656 98.070312 C 148.355469 97.445312 149.003906 96.960938 149.769531 96.589844 C 150.53125 96.21875 151.410156 96.058594 152.382812 96.058594 C 152.894531 96.058594 153.378906 96.128906 153.820312 96.265625 C 154.257812 96.40625 154.675781 96.613281 155.046875 96.867188 C 155.417969 97.121094 155.742188 97.425781 156.042969 97.746094 C 156.34375 98.070312 156.550781 98.441406 156.714844 98.789062 L 156.757812 98.789062 L 156.757812 96.40625 L 158.425781 96.40625 L 158.425781 108.859375 C 158.425781 109.855469 158.3125 110.757812 158.101562 111.570312 Z M 154.234375 107.957031 C 154.769531 107.65625 155.230469 107.238281 155.601562 106.753906 C 155.972656 106.269531 156.25 105.6875 156.4375 105.039062 C 156.621094 104.390625 156.714844 103.722656 156.714844 103.050781 C 156.714844 102.378906 156.644531 101.707031 156.480469 101.058594 C 156.320312 100.410156 156.066406 99.785156 155.71875 99.253906 C 155.371094 98.71875 154.90625 98.28125 154.375 97.933594 C 153.84375 97.585938 153.148438 97.425781 152.359375 97.425781 C 151.574219 97.425781 150.902344 97.585938 150.347656 97.910156 C 149.789062 98.234375 149.328125 98.652344 148.957031 99.183594 C 148.585938 99.714844 148.332031 100.316406 148.148438 100.988281 C 147.960938 101.660156 147.890625 102.355469 147.890625 103.050781 C 147.890625 103.746094 147.984375 104.390625 148.148438 105.039062 C 148.308594 105.6875 148.585938 106.269531 148.957031 106.753906 C 149.328125 107.238281 149.789062 107.65625 150.347656 107.957031 C 150.902344 108.257812 151.574219 108.421875 152.335938 108.421875 C 153.054688 108.421875 153.679688 108.257812 154.234375 107.957031 " fill-opacity="1" fill-rule="nonzero"/><path fill="#727271" d="M 163.035156 96.40625 L 163.035156 99.578125 L 163.082031 99.578125 C 163.496094 98.464844 164.144531 97.632812 165.046875 97.03125 C 165.949219 96.429688 166.992188 96.152344 168.21875 96.21875 L 168.21875 97.886719 C 167.457031 97.839844 166.785156 97.957031 166.160156 98.1875 C 165.535156 98.417969 165.023438 98.765625 164.5625 99.207031 C 164.097656 99.644531 163.773438 100.179688 163.519531 100.78125 C 163.265625 101.382812 163.148438 102.054688 163.148438 102.773438 L 163.148438 109.996094 L 161.503906 109.996094 L 161.503906 96.40625 Z M 163.035156 96.40625 " fill-opacity="1" fill-rule="nonzero"/><path fill="#727271" d="M 177.828125 96.589844 C 178.613281 96.984375 179.285156 97.492188 179.84375 98.140625 C 180.398438 98.789062 180.792969 99.554688 181.070312 100.410156 C 181.347656 101.265625 181.484375 102.191406 181.484375 103.1875 C 181.484375 104.183594 181.347656 105.085938 181.070312 105.96875 C 180.792969 106.847656 180.375 107.585938 179.84375 108.234375 C 179.308594 108.882812 178.636719 109.394531 177.828125 109.785156 C 177.015625 110.179688 176.113281 110.34375 175.074219 110.34375 C 174.03125 110.34375 173.128906 110.15625 172.316406 109.785156 C 171.507812 109.417969 170.859375 108.90625 170.304688 108.234375 C 169.746094 107.5625 169.355469 106.824219 169.078125 105.96875 C 168.796875 105.109375 168.660156 104.183594 168.660156 103.1875 C 168.660156 102.191406 168.796875 101.289062 169.078125 100.410156 C 169.355469 99.53125 169.769531 98.789062 170.304688 98.140625 C 170.835938 97.492188 171.507812 96.984375 172.316406 96.589844 C 173.128906 96.195312 174.03125 96.011719 175.074219 96.011719 C 176.113281 96.011719 177.015625 96.195312 177.828125 96.589844 Z M 173.011719 97.910156 C 172.410156 98.234375 171.925781 98.675781 171.53125 99.230469 C 171.136719 99.785156 170.835938 100.386719 170.628906 101.082031 C 170.417969 101.777344 170.328125 102.472656 170.328125 103.1875 C 170.328125 103.90625 170.417969 104.625 170.628906 105.296875 C 170.835938 105.96875 171.136719 106.613281 171.53125 107.148438 C 171.925781 107.679688 172.410156 108.121094 173.011719 108.46875 C 173.613281 108.816406 174.308594 108.976562 175.097656 108.976562 C 175.882812 108.976562 176.578125 108.816406 177.179688 108.46875 C 177.78125 108.121094 178.269531 107.703125 178.660156 107.148438 C 179.054688 106.59375 179.355469 105.988281 179.5625 105.296875 C 179.773438 104.601562 179.863281 103.90625 179.863281 103.1875 C 179.863281 102.472656 179.773438 101.753906 179.5625 101.082031 C 179.355469 100.410156 179.054688 99.761719 178.660156 99.230469 C 178.269531 98.695312 177.78125 98.257812 177.179688 97.910156 C 176.578125 97.5625 175.882812 97.402344 175.097656 97.402344 C 174.308594 97.402344 173.613281 97.5625 173.011719 97.910156 " fill-opacity="1" fill-rule="nonzero"/><path fill="#727271" d="M 193.433594 109.972656 L 193.433594 107.519531 L 193.386719 107.519531 C 192.945312 108.421875 192.320312 109.117188 191.488281 109.601562 C 190.652344 110.085938 189.726562 110.320312 188.710938 110.320312 C 187.851562 110.320312 187.113281 110.203125 186.511719 109.972656 C 185.90625 109.742188 185.421875 109.394531 185.027344 108.953125 C 184.632812 108.511719 184.378906 107.980469 184.195312 107.355469 C 184.007812 106.730469 183.941406 106.011719 183.941406 105.203125 L 183.941406 96.40625 L 185.605469 96.40625 L 185.605469 105.25 C 185.628906 106.476562 185.929688 107.402344 186.464844 108.027344 C 186.996094 108.652344 187.921875 108.976562 189.242188 108.976562 C 189.960938 108.976562 190.585938 108.816406 191.070312 108.511719 C 191.558594 108.210938 191.996094 107.796875 192.320312 107.285156 C 192.644531 106.777344 192.898438 106.199219 193.0625 105.550781 C 193.222656 104.902344 193.292969 104.230469 193.292969 103.535156 L 193.292969 96.40625 L 194.960938 96.40625 L 194.960938 109.972656 Z M 193.433594 109.972656 " fill-opacity="1" fill-rule="nonzero"/><path fill="#727271" d="M 199.589844 96.40625 L 199.589844 98.976562 L 199.660156 98.976562 C 200.054688 98.027344 200.679688 97.308594 201.535156 96.777344 C 202.390625 96.242188 203.386719 95.988281 204.5 95.988281 C 205.539062 95.988281 206.445312 96.171875 207.183594 96.566406 C 207.925781 96.960938 208.574219 97.46875 209.082031 98.140625 C 209.59375 98.8125 209.960938 99.554688 210.21875 100.433594 C 210.472656 101.3125 210.585938 102.214844 210.585938 103.1875 C 210.585938 104.160156 210.472656 105.0625 210.21875 105.945312 C 209.960938 106.824219 209.59375 107.5625 209.082031 108.234375 C 208.574219 108.90625 207.949219 109.417969 207.183594 109.785156 C 206.421875 110.15625 205.515625 110.34375 204.5 110.34375 C 204.011719 110.34375 203.527344 110.273438 203.015625 110.15625 C 202.507812 110.042969 202.066406 109.855469 201.652344 109.601562 C 201.234375 109.347656 200.863281 109.046875 200.539062 108.675781 C 200.214844 108.304688 199.960938 107.886719 199.800781 107.378906 L 199.753906 107.378906 L 199.753906 114.949219 L 198.109375 114.949219 L 198.109375 96.40625 Z M 208.664062 101.105469 C 208.503906 100.410156 208.226562 99.785156 207.878906 99.253906 C 207.53125 98.71875 207.070312 98.257812 206.488281 97.933594 C 205.910156 97.609375 205.261719 97.425781 204.453125 97.425781 C 203.550781 97.425781 202.785156 97.585938 202.160156 97.910156 C 201.535156 98.234375 201.050781 98.652344 200.679688 99.160156 C 200.308594 99.667969 200.054688 100.292969 199.890625 100.988281 C 199.730469 101.683594 199.660156 102.425781 199.660156 103.1875 C 199.660156 103.882812 199.753906 104.578125 199.914062 105.273438 C 200.078125 105.96875 200.355469 106.59375 200.726562 107.125 C 201.09375 107.65625 201.605469 108.121094 202.207031 108.445312 C 202.808594 108.769531 203.550781 108.953125 204.429688 108.953125 C 205.214844 108.953125 205.886719 108.792969 206.464844 108.445312 C 207.046875 108.097656 207.484375 107.65625 207.855469 107.125 C 208.226562 106.59375 208.480469 105.96875 208.644531 105.273438 C 208.804688 104.578125 208.898438 103.882812 208.898438 103.1875 C 208.898438 102.492188 208.804688 101.800781 208.644531 101.105469 " fill-opacity="1" fill-rule="nonzero"/><path fill="#727271" d="M 20.511719 122.335938 C 20.328125 124.164062 18.820312 125.644531 16.484375 125.644531 C 13.820312 125.644531 12.128906 123.980469 12.128906 121.363281 C 12.128906 119.488281 13.289062 117.078125 16.484375 117.078125 C 18.265625 117.078125 20.210938 117.890625 20.464844 120.042969 L 19.609375 120.042969 C 19.355469 118.492188 17.964844 117.867188 16.484375 117.867188 C 14.445312 117.867188 13.054688 119 13.054688 121.386719 C 13.054688 123.214844 14.003906 124.90625 16.484375 124.90625 C 18.429688 124.90625 19.398438 123.910156 19.679688 122.359375 Z M 20.511719 122.335938 " fill-opacity="1" fill-rule="nonzero"/><path fill="#727271" d="M 25.398438 119.324219 C 27.6875 119.324219 28.777344 120.832031 28.777344 122.472656 C 28.777344 124.117188 27.6875 125.621094 25.398438 125.621094 C 23.105469 125.621094 22.015625 124.117188 22.015625 122.472656 C 22.015625 120.832031 23.105469 119.324219 25.398438 119.324219 Z M 25.398438 124.929688 C 26.992188 124.929688 27.921875 123.910156 27.921875 122.472656 C 27.921875 121.039062 26.992188 120.019531 25.398438 120.019531 C 23.800781 120.019531 22.871094 121.039062 22.871094 122.472656 C 22.871094 123.910156 23.800781 124.929688 25.398438 124.929688 " fill-opacity="1" fill-rule="nonzero"/><path fill="#727271" d="M 39.726562 121.6875 C 39.726562 120.597656 39.171875 120.042969 37.945312 120.042969 C 36.648438 120.042969 35.90625 120.808594 35.90625 121.964844 L 35.90625 125.484375 L 35.050781 125.484375 L 35.050781 121.433594 C 35.050781 120.667969 34.519531 120.042969 33.359375 120.042969 C 32.15625 120.042969 31.253906 120.738281 31.253906 122.125 L 31.253906 125.484375 L 30.398438 125.484375 L 30.398438 119.511719 L 31.253906 119.511719 L 31.253906 120.597656 L 31.277344 120.597656 C 31.625 119.972656 32.273438 119.324219 33.636719 119.324219 C 35.003906 119.324219 35.605469 120.042969 35.769531 120.621094 C 36.046875 120.019531 36.902344 119.324219 38.105469 119.324219 C 39.773438 119.324219 40.5625 120.183594 40.5625 121.386719 L 40.5625 125.4375 L 39.703125 125.4375 Z M 39.726562 121.6875 " fill-opacity="1" fill-rule="nonzero"/><path fill="#727271" d="M 42.484375 119.511719 L 43.339844 119.511719 L 43.339844 120.691406 L 43.363281 120.691406 C 43.59375 120.183594 44.148438 119.324219 45.792969 119.324219 C 48.222656 119.324219 49.035156 121.039062 49.035156 122.472656 C 49.035156 124.140625 48.015625 125.621094 45.792969 125.621094 C 44.683594 125.621094 43.757812 124.996094 43.363281 124.257812 L 43.339844 124.257812 L 43.339844 127.753906 L 42.484375 127.753906 Z M 45.769531 124.929688 C 47.113281 124.929688 48.15625 123.980469 48.15625 122.472656 C 48.15625 121.292969 47.484375 120.019531 45.769531 120.019531 C 44.359375 120.019531 43.269531 120.921875 43.269531 122.472656 C 43.269531 123.699219 44.035156 124.929688 45.769531 124.929688 " fill-opacity="1" fill-rule="nonzero"/><path fill="#727271" d="M 56.929688 123.5625 C 56.582031 124.605469 55.703125 125.644531 53.734375 125.644531 C 51.304688 125.644531 50.492188 123.933594 50.492188 122.496094 C 50.492188 120.832031 51.511719 119.347656 53.734375 119.347656 C 55.261719 119.347656 57.089844 120.019531 57.089844 122.707031 L 51.328125 122.707031 C 51.328125 123.933594 52.207031 124.953125 53.710938 124.953125 C 55.125 124.953125 55.773438 124.488281 56.074219 123.585938 Z M 56.234375 122.058594 C 56.003906 120.597656 54.914062 120.042969 53.78125 120.042969 C 52.691406 120.042969 51.535156 120.597656 51.328125 122.058594 Z M 56.234375 122.058594 " fill-opacity="1" fill-rule="nonzero"/><path fill="#727271" d="M 59.246094 117.636719 L 60.101562 117.636719 L 60.101562 119.511719 L 61.792969 119.511719 L 61.792969 120.160156 L 60.101562 120.160156 L 60.101562 124.09375 C 60.101562 124.605469 60.261719 124.859375 60.957031 124.859375 C 61.375 124.859375 61.628906 124.8125 61.792969 124.789062 L 61.792969 125.507812 C 61.46875 125.554688 61.144531 125.578125 60.863281 125.578125 C 59.546875 125.578125 59.265625 125.066406 59.265625 124.09375 L 59.265625 120.160156 L 57.972656 120.160156 L 57.972656 119.511719 L 59.265625 119.511719 Z M 59.246094 117.636719 " fill-opacity="1" fill-rule="nonzero"/><path fill="#727271" d="M 63.273438 117.21875 L 64.128906 117.21875 L 64.128906 118.46875 L 63.273438 118.46875 Z M 63.273438 119.511719 L 64.128906 119.511719 L 64.128906 125.460938 L 63.273438 125.460938 Z M 63.273438 119.511719 " fill-opacity="1" fill-rule="nonzero"/><path fill="#727271" d="M 66.539062 117.636719 L 67.394531 117.636719 L 67.394531 119.511719 L 69.082031 119.511719 L 69.082031 120.160156 L 67.394531 120.160156 L 67.394531 124.09375 C 67.394531 124.605469 67.554688 124.859375 68.25 124.859375 C 68.667969 124.859375 68.921875 124.8125 69.082031 124.789062 L 69.082031 125.507812 C 68.761719 125.554688 68.4375 125.578125 68.15625 125.578125 C 66.839844 125.578125 66.558594 125.066406 66.558594 124.09375 L 66.558594 120.160156 L 65.265625 120.160156 L 65.265625 119.511719 L 66.558594 119.511719 Z M 66.539062 117.636719 " fill-opacity="1" fill-rule="nonzero"/><path fill="#727271" d="M 70.542969 117.21875 L 71.398438 117.21875 L 71.398438 118.46875 L 70.542969 118.46875 Z M 70.542969 119.511719 L 71.398438 119.511719 L 71.398438 125.460938 L 70.542969 125.460938 Z M 70.542969 119.511719 " fill-opacity="1" fill-rule="nonzero"/><path fill="#727271" d="M 78.113281 119.511719 L 79.039062 119.511719 L 76.238281 125.460938 L 75.3125 125.460938 L 72.511719 119.511719 L 73.4375 119.511719 L 75.773438 124.488281 Z M 78.113281 119.511719 " fill-opacity="1" fill-rule="nonzero"/><path fill="#727271" d="M 86.449219 123.5625 C 86.101562 124.605469 85.222656 125.644531 83.253906 125.644531 C 80.820312 125.644531 80.011719 123.933594 80.011719 122.496094 C 80.011719 120.832031 81.03125 119.347656 83.253906 119.347656 C 84.78125 119.347656 86.609375 120.019531 86.609375 122.707031 L 80.84375 122.707031 C 80.84375 123.933594 81.726562 124.953125 83.230469 124.953125 C 84.640625 124.953125 85.289062 124.488281 85.589844 123.585938 Z M 85.753906 122.058594 C 85.523438 120.597656 84.433594 120.042969 83.300781 120.042969 C 82.210938 120.042969 81.054688 120.597656 80.84375 122.058594 Z M 85.753906 122.058594 " fill-opacity="1" fill-rule="nonzero"/><path fill="#727271" d="M 94.480469 118.074219 L 91.285156 118.074219 L 91.285156 117.289062 L 98.53125 117.289062 L 98.53125 118.074219 L 95.339844 118.074219 L 95.339844 125.460938 L 94.480469 125.460938 Z M 94.480469 118.074219 " fill-opacity="1" fill-rule="nonzero"/><path fill="#727271" d="M 99.761719 117.21875 L 100.617188 117.21875 L 100.617188 120.667969 L 100.640625 120.667969 C 100.894531 120.042969 101.773438 119.324219 103.09375 119.324219 C 105.085938 119.324219 105.664062 120.34375 105.664062 121.78125 L 105.664062 125.460938 L 104.808594 125.460938 L 104.808594 121.617188 C 104.808594 120.4375 104.089844 120.019531 103 120.019531 C 101.335938 120.019531 100.59375 120.875 100.59375 122.21875 L 100.59375 125.4375 L 99.738281 125.4375 Z M 99.761719 117.21875 " fill-opacity="1" fill-rule="nonzero"/><path fill="#727271" d="M 107.539062 119.511719 L 108.394531 119.511719 L 108.394531 120.875 L 108.417969 120.875 C 108.71875 120.160156 109.296875 119.324219 110.6875 119.324219 C 110.917969 119.324219 111.058594 119.347656 111.195312 119.371094 L 111.195312 120.25 C 110.941406 120.207031 110.6875 120.183594 110.410156 120.183594 C 109.484375 120.183594 108.371094 120.738281 108.371094 122.429688 L 108.371094 125.460938 L 107.515625 125.460938 Z M 107.539062 119.511719 " fill-opacity="1" fill-rule="nonzero"/><path fill="#727271" d="M 115.503906 119.324219 C 117.796875 119.324219 118.882812 120.832031 118.882812 122.472656 C 118.882812 124.117188 117.796875 125.621094 115.503906 125.621094 C 113.210938 125.621094 112.125 124.117188 112.125 122.472656 C 112.125 120.832031 113.210938 119.324219 115.503906 119.324219 Z M 115.503906 124.929688 C 117.101562 124.929688 118.027344 123.910156 118.027344 122.472656 C 118.027344 121.039062 117.101562 120.019531 115.503906 120.019531 C 113.90625 120.019531 112.980469 121.039062 112.980469 122.472656 C 112.980469 123.910156 113.90625 124.929688 115.503906 124.929688 " fill-opacity="1" fill-rule="nonzero"/><path fill="#727271" d="M 125.621094 124.28125 L 125.597656 124.28125 C 125.34375 124.90625 124.464844 125.621094 123.144531 125.621094 C 121.152344 125.621094 120.574219 124.582031 120.574219 123.167969 L 120.574219 119.511719 L 121.429688 119.511719 L 121.429688 123.355469 C 121.429688 124.535156 122.148438 124.953125 123.234375 124.953125 C 124.902344 124.953125 125.644531 124.09375 125.644531 122.75 L 125.644531 119.511719 L 126.5 119.511719 L 126.5 125.460938 L 125.644531 125.460938 Z M 125.621094 124.28125 " fill-opacity="1" fill-rule="nonzero"/><path fill="#727271" d="M 133.863281 119.511719 L 134.71875 119.511719 L 134.71875 125.230469 C 134.71875 127.429688 132.9375 127.984375 131.386719 127.984375 C 128.675781 127.984375 128.398438 126.6875 128.328125 126.039062 L 129.117188 126.039062 C 129.230469 126.6875 129.417969 127.335938 131.410156 127.335938 C 132.960938 127.335938 133.863281 126.59375 133.863281 125.183594 L 133.863281 124.117188 L 133.839844 124.117188 C 133.515625 124.71875 132.75 125.460938 131.199219 125.460938 C 129.648438 125.460938 128.050781 124.671875 128.050781 122.359375 C 128.050781 120.785156 129.046875 119.324219 131.292969 119.324219 C 132.449219 119.324219 133.421875 119.765625 133.839844 120.667969 L 133.863281 120.667969 Z M 131.339844 120.042969 C 129.855469 120.042969 128.886719 120.898438 128.886719 122.359375 C 128.886719 124.09375 129.972656 124.742188 131.410156 124.742188 C 132.796875 124.742188 133.886719 123.863281 133.886719 122.359375 C 133.886719 121.109375 133.027344 120.042969 131.339844 120.042969 " fill-opacity="1" fill-rule="nonzero"/><path fill="#727271" d="M 136.570312 117.21875 L 137.429688 117.21875 L 137.429688 120.667969 L 137.449219 120.667969 C 137.707031 120.042969 138.585938 119.324219 139.90625 119.324219 C 141.894531 119.324219 142.476562 120.34375 142.476562 121.78125 L 142.476562 125.460938 L 141.617188 125.460938 L 141.617188 121.617188 C 141.617188 120.4375 140.902344 120.019531 139.8125 120.019531 C 138.144531 120.019531 137.40625 120.875 137.40625 122.21875 L 137.40625 125.4375 L 136.546875 125.4375 Z M 136.570312 117.21875 " fill-opacity="1" fill-rule="nonzero"/><path fill="#727271" d="M 148.308594 117.289062 L 149.164062 117.289062 L 149.164062 125.460938 L 148.308594 125.460938 Z M 148.308594 117.289062 " fill-opacity="1" fill-rule="nonzero"/><path fill="#727271" d="M 156.296875 121.617188 C 156.296875 120.4375 155.578125 120.019531 154.492188 120.019531 C 152.824219 120.019531 152.082031 120.875 152.082031 122.21875 L 152.082031 125.4375 L 151.226562 125.4375 L 151.226562 119.511719 L 152.082031 119.511719 L 152.082031 120.667969 L 152.105469 120.667969 C 152.359375 120.042969 153.265625 119.324219 154.558594 119.324219 C 156.550781 119.324219 157.128906 120.34375 157.128906 121.78125 L 157.128906 125.460938 L 156.273438 125.460938 Z M 156.296875 121.617188 " fill-opacity="1" fill-rule="nonzero"/><path fill="#727271" d="M 164.074219 121.617188 C 164.074219 120.4375 163.359375 120.019531 162.269531 120.019531 C 160.601562 120.019531 159.863281 120.875 159.863281 122.21875 L 159.863281 125.4375 L 159.003906 125.4375 L 159.003906 119.511719 L 159.863281 119.511719 L 159.863281 120.667969 L 159.886719 120.667969 C 160.140625 120.042969 161.042969 119.324219 162.339844 119.324219 C 164.332031 119.324219 164.910156 120.34375 164.910156 121.78125 L 164.910156 125.460938 L 164.050781 125.460938 Z M 164.074219 121.617188 " fill-opacity="1" fill-rule="nonzero"/><path fill="#727271" d="M 169.980469 119.324219 C 172.269531 119.324219 173.359375 120.832031 173.359375 122.472656 C 173.359375 124.117188 172.269531 125.621094 169.980469 125.621094 C 167.6875 125.621094 166.597656 124.117188 166.597656 122.472656 C 166.597656 120.832031 167.6875 119.324219 169.980469 119.324219 Z M 169.980469 124.929688 C 171.578125 124.929688 172.503906 123.910156 172.503906 122.472656 C 172.503906 121.039062 171.578125 120.019531 169.980469 120.019531 C 168.382812 120.019531 167.457031 121.039062 167.457031 122.472656 C 167.457031 123.910156 168.382812 124.929688 169.980469 124.929688 " fill-opacity="1" fill-rule="nonzero"/><path fill="#727271" d="M 179.886719 119.511719 L 180.8125 119.511719 L 178.011719 125.460938 L 177.085938 125.460938 L 174.285156 119.511719 L 175.210938 119.511719 L 177.550781 124.488281 Z M 179.886719 119.511719 " fill-opacity="1" fill-rule="nonzero"/><path fill="#727271" d="M 181.902344 121.339844 C 182.019531 120.089844 182.710938 119.324219 184.75 119.324219 C 186.742188 119.324219 187.480469 119.949219 187.480469 121.085938 L 187.480469 124.1875 C 187.480469 124.671875 187.621094 124.859375 187.945312 124.859375 C 188.085938 124.859375 188.246094 124.859375 188.386719 124.835938 L 188.386719 125.414062 C 188.222656 125.4375 187.945312 125.507812 187.667969 125.507812 C 186.8125 125.507812 186.765625 124.929688 186.742188 124.464844 L 186.71875 124.464844 C 186.464844 124.859375 185.882812 125.644531 183.941406 125.644531 C 182.921875 125.644531 181.625 125.207031 181.625 123.863281 C 181.625 122.242188 183.292969 122.058594 184.589844 121.988281 C 186.441406 121.894531 186.671875 121.78125 186.671875 121.199219 C 186.671875 120.34375 186.09375 120.042969 184.703125 120.042969 C 183.359375 120.042969 182.710938 120.390625 182.667969 121.339844 Z M 186.695312 122.265625 C 186.324219 122.496094 185.746094 122.542969 184.054688 122.707031 C 183.082031 122.796875 182.503906 123.097656 182.503906 123.792969 C 182.503906 124.71875 183.316406 124.996094 184.21875 124.996094 C 185.351562 124.996094 186.695312 124.371094 186.695312 123.144531 Z M 186.695312 122.265625 " fill-opacity="1" fill-rule="nonzero"/><path fill="#727271" d="M 190.097656 117.636719 L 190.953125 117.636719 L 190.953125 119.511719 L 192.644531 119.511719 L 192.644531 120.160156 L 190.953125 120.160156 L 190.953125 124.09375 C 190.953125 124.605469 191.117188 124.859375 191.8125 124.859375 C 192.226562 124.859375 192.484375 124.8125 192.644531 124.789062 L 192.644531 125.507812 C 192.320312 125.554688 191.996094 125.578125 191.71875 125.578125 C 190.398438 125.578125 190.121094 125.066406 190.121094 124.09375 L 190.121094 120.160156 L 188.824219 120.160156 L 188.824219 119.511719 L 190.121094 119.511719 Z M 190.097656 117.636719 " fill-opacity="1" fill-rule="nonzero"/><path fill="#727271" d="M 194.105469 117.21875 L 194.960938 117.21875 L 194.960938 118.46875 L 194.105469 118.46875 Z M 194.105469 119.511719 L 194.960938 119.511719 L 194.960938 125.460938 L 194.105469 125.460938 Z M 194.105469 119.511719 " fill-opacity="1" fill-rule="nonzero"/><path fill="#727271" d="M 199.984375 119.324219 C 202.277344 119.324219 203.363281 120.832031 203.363281 122.472656 C 203.363281 124.117188 202.277344 125.621094 199.984375 125.621094 C 197.691406 125.621094 196.605469 124.117188 196.605469 122.472656 C 196.605469 120.832031 197.691406 119.324219 199.984375 119.324219 Z M 199.984375 124.929688 C 201.582031 124.929688 202.507812 123.910156 202.507812 122.472656 C 202.507812 121.039062 201.582031 120.019531 199.984375 120.019531 C 198.386719 120.019531 197.460938 121.039062 197.460938 122.472656 C 197.460938 123.910156 198.386719 124.929688 199.984375 124.929688 " fill-opacity="1" fill-rule="nonzero"/><path fill="#727271" d="M 210.078125 121.617188 C 210.078125 120.4375 209.359375 120.019531 208.273438 120.019531 C 206.605469 120.019531 205.863281 120.875 205.863281 122.21875 L 205.863281 125.4375 L 205.007812 125.4375 L 205.007812 119.511719 L 205.863281 119.511719 L 205.863281 120.667969 L 205.886719 120.667969 C 206.140625 120.042969 207.023438 119.324219 208.34375 119.324219 C 210.332031 119.324219 210.910156 120.34375 210.910156 121.78125 L 210.910156 125.460938 L 210.078125 125.460938 Z M 210.078125 121.617188 " fill-opacity="1" fill-rule="nonzero"/></svg>