<svg xmlns="http://www.w3.org/2000/svg" xmlns:xlink="http://www.w3.org/1999/xlink" width="295" zoomAndPan="magnify" viewBox="0 0 221.25 138.750001" height="185" preserveAspectRatio="xMidYMid meet" version="1.0"><defs><clipPath id="7d61819e6d"><path d="M 0 0.109375 L 220.503906 0.109375 L 220.503906 138.390625 L 0 138.390625 Z M 0 0.109375 " clip-rule="nonzero"/></clipPath></defs><g clip-path="url(#7d61819e6d)"><path fill="#ffffff" d="M 0 0.109375 L 220.503906 0.109375 L 220.503906 138.390625 L 0 138.390625 Z M 0 0.109375 " fill-opacity="1" fill-rule="nonzero"/></g><path fill="#fefefe" d="M 9.585938 31.859375 L 212.429688 31.859375 L 212.429688 108.078125 L 9.585938 108.078125 Z M 9.585938 31.859375 " fill-opacity="1" fill-rule="evenodd"/><path fill="#727271" d="M 208.691406 78.128906 L 202.132812 78.128906 L 202.132812 96.4375 L 190.707031 96.4375 L 190.726562 74.601562 C 190.898438 72.394531 192.429688 70.726562 194.3125 69.519531 C 198.125 67.140625 203.992188 68.253906 208.691406 68.023438 Z M 188.214844 85.164062 L 176.515625 85.164062 L 176.515625 76.9375 L 174.582031 76.9375 L 174.582031 86.984375 L 188.214844 86.984375 L 188.214844 96.4375 C 188.214844 96.4375 176.34375 96.382812 170.476562 96.382812 C 166.890625 95.824219 163.019531 93.21875 162.175781 89.480469 C 161.675781 84.933594 161.617188 80.027344 162.230469 75.539062 C 162.441406 72.546875 164.726562 69.902344 167.484375 68.847656 C 173.179688 67.082031 180.3125 67.027344 185.453125 70.171875 L 186.5625 71.050781 C 188.445312 72.875 188.003906 75.367188 188.214844 77.859375 C 188.15625 80.238281 188.195312 85.164062 188.195312 85.164062 Z M 152.089844 96.4375 L 146.835938 87.445312 L 146.835938 96.4375 L 135.371094 96.4375 L 135.371094 55.828125 L 146.835938 55.828125 L 146.835938 77.035156 L 152.203125 68.023438 L 164.339844 68.023438 L 156.382812 81.90625 L 164.417969 96.4375 Z M 133.625 78.128906 L 127.066406 78.128906 L 127.066406 96.4375 L 115.695312 96.4375 C 115.695312 96.4375 115.582031 81.675781 115.695312 74.601562 C 115.695312 71.550781 118.785156 69.519531 121.332031 68.578125 C 124.976562 67.46875 133.625 68.023438 133.625 68.023438 Z M 113.148438 96.4375 L 92.132812 96.382812 C 89.753906 95.882812 87.320312 94.445312 86.207031 92.125 C 85.09375 89.304688 84.769531 85.664062 86.496094 82.996094 C 89.542969 79.183594 99.589844 80.007812 99.589844 80.007812 L 99.589844 87.792969 L 101.527344 87.792969 L 101.527344 77.9375 L 89.253906 77.9375 L 89.253906 68.195312 L 106.167969 68.195312 C 108.601562 68.253906 110.863281 69.671875 112.09375 71.820312 C 112.859375 73.199219 113.148438 74.753906 113.203125 76.460938 Z M 68.738281 89.535156 L 68.738281 96.4375 L 52.539062 96.4375 L 52.539062 80.007812 L 71.386719 80.007812 L 71.386719 66.816406 L 52.539062 66.816406 L 52.539062 55.828125 L 72.113281 55.695312 C 77.425781 55.578125 82.449219 57.515625 85.210938 62.269531 C 88.238281 68.175781 88.679688 77.09375 85.039062 82.882812 C 81.222656 88.078125 75.007812 89.632812 68.699219 89.535156 Z M 9.585938 31.859375 L 9.585938 68.675781 L 69.257812 68.675781 L 69.257812 78.128906 L 9.585938 78.128906 L 9.585938 108.078125 L 212.429688 108.078125 L 212.429688 31.859375 Z M 9.585938 31.859375 " fill-opacity="1" fill-rule="evenodd"/></svg>