<svg xmlns="http://www.w3.org/2000/svg" xmlns:xlink="http://www.w3.org/1999/xlink" width="295" zoomAndPan="magnify" viewBox="0 0 221.25 138.750001" height="185" preserveAspectRatio="xMidYMid meet" version="1.0"><defs><clipPath id="01886568d0"><path d="M 0 0.109375 L 220.503906 0.109375 L 220.503906 138.390625 L 0 138.390625 Z M 0 0.109375 " clip-rule="nonzero"/></clipPath><clipPath id="aa272468b6"><path d="M 0 52 L 220.503906 52 L 220.503906 86.296875 L 0 86.296875 Z M 0 52 " clip-rule="nonzero"/></clipPath></defs><g clip-path="url(#01886568d0)"><path fill="#ffffff" d="M 0 0.109375 L 220.503906 0.109375 L 220.503906 138.390625 L 0 138.390625 Z M 0 0.109375 " fill-opacity="1" fill-rule="nonzero"/></g><g clip-path="url(#aa272468b6)"><path fill="#778486" d="M 0.679688 85.882812 L 0.679688 79.253906 C 4.464844 80.441406 7.816406 81.035156 10.742188 81.035156 C 14.769531 81.035156 16.777344 79.976562 16.777344 77.855469 C 16.777344 77.0625 16.480469 76.398438 15.902344 75.863281 C 15.292969 75.296875 13.753906 74.503906 11.292969 73.488281 C 6.855469 71.664062 3.957031 70.125 2.613281 68.835938 C 0.863281 67.167969 0 65.035156 0 62.449219 C 0 59.140625 1.273438 56.609375 3.816406 54.871094 C 6.316406 53.148438 9.597656 52.285156 13.625 52.285156 C 15.84375 52.285156 19.066406 52.695312 23.28125 53.515625 L 23.28125 59.890625 C 20.140625 58.644531 17.246094 58.007812 14.558594 58.007812 C 10.769531 58.007812 8.890625 59.042969 8.890625 61.121094 C 8.890625 61.898438 9.273438 62.519531 10.035156 63.011719 C 10.671875 63.410156 12.425781 64.242188 15.28125 65.53125 C 19.394531 67.351562 22.136719 68.921875 23.507812 70.265625 C 25.132812 71.863281 25.9375 73.925781 25.9375 76.457031 C 25.9375 80.089844 24.355469 82.859375 21.175781 84.765625 C 18.601562 86.320312 15.265625 87.097656 11.167969 87.097656 C 7.703125 87.097656 4.210938 86.6875 0.707031 85.871094 Z M 31.222656 86.421875 L 31.222656 52.878906 L 40.636719 52.878906 L 40.636719 86.421875 Z M 49.289062 86.421875 L 49.289062 52.878906 L 73.457031 52.878906 L 73.457031 58.941406 L 58.375 58.941406 L 58.375 66.519531 L 71.507812 66.519531 L 71.507812 72.046875 L 58.375 72.046875 L 58.375 80.015625 L 73.855469 80.015625 L 73.855469 86.421875 Z M 79.988281 86.421875 L 79.988281 52.878906 L 92.199219 52.878906 L 100.683594 74.320312 L 109.402344 52.878906 L 120.992188 52.878906 L 120.992188 86.421875 L 112.058594 86.421875 L 112.058594 62.675781 L 102.167969 86.773438 L 96.34375 86.773438 L 86.632812 62.675781 L 86.632812 86.421875 Z M 129.628906 86.421875 L 129.628906 52.878906 L 153.785156 52.878906 L 153.785156 58.941406 L 138.71875 58.941406 L 138.71875 66.519531 L 151.851562 66.519531 L 151.851562 72.046875 L 138.71875 72.046875 L 138.71875 80.015625 L 154.195312 80.015625 L 154.195312 86.421875 Z M 160.386719 86.421875 L 160.386719 52.878906 L 171.300781 52.878906 L 182.890625 75.339844 L 182.890625 52.878906 L 189.519531 52.878906 L 189.519531 86.421875 L 178.902344 86.421875 L 167.015625 63.664062 L 167.015625 86.421875 Z M 196.203125 85.882812 L 196.203125 79.253906 C 199.964844 80.441406 203.316406 81.035156 206.269531 81.035156 C 210.296875 81.035156 212.320312 79.976562 212.320312 77.855469 C 212.320312 77.0625 212.023438 76.398438 211.457031 75.863281 C 210.863281 75.296875 209.308594 74.503906 206.820312 73.488281 C 202.394531 71.691406 199.5 70.136719 198.140625 68.835938 C 196.402344 67.167969 195.527344 65.019531 195.527344 62.40625 C 195.527344 59.097656 196.796875 56.582031 199.34375 54.84375 C 201.84375 53.148438 205.125 52.285156 209.167969 52.285156 C 211.441406 52.285156 214.367188 52.652344 217.988281 53.375 L 218.820312 53.515625 L 218.820312 59.890625 C 215.683594 58.644531 212.769531 58.023438 210.070312 58.023438 C 206.296875 58.023438 204.417969 59.054688 204.417969 61.132812 C 204.417969 61.910156 204.796875 62.53125 205.546875 63.027344 C 206.15625 63.410156 207.910156 64.242188 210.820312 65.542969 C 214.90625 67.367188 217.648438 68.9375 219.019531 70.277344 C 220.644531 71.875 221.449219 73.941406 221.449219 76.46875 C 221.449219 80.101562 219.867188 82.871094 216.699219 84.78125 C 214.113281 86.335938 210.761719 87.113281 206.679688 87.113281 C 203.214844 87.113281 199.722656 86.703125 196.21875 85.882812 " fill-opacity="1" fill-rule="evenodd"/></g></svg>