<svg xmlns="http://www.w3.org/2000/svg" xmlns:xlink="http://www.w3.org/1999/xlink" width="295" zoomAndPan="magnify" viewBox="0 0 221.25 138.750001" height="185" preserveAspectRatio="xMidYMid meet" version="1.0"><defs><clipPath id="bcd9f314a7"><path d="M 0 0.109375 L 220.503906 0.109375 L 220.503906 138.390625 L 0 138.390625 Z M 0 0.109375 " clip-rule="nonzero"/></clipPath></defs><g clip-path="url(#bcd9f314a7)"><path fill="#ffffff" d="M 0 0.109375 L 220.503906 0.109375 L 220.503906 138.390625 L 0 138.390625 Z M 0 0.109375 " fill-opacity="1" fill-rule="nonzero"/></g><path fill="#727271" d="M 89.960938 117.433594 C 90.9375 117.433594 91.75 118.410156 91.75 119.605469 C 91.75 120.796875 90.960938 121.773438 89.960938 121.773438 L 83.855469 121.773438 L 84.046875 117.433594 Z M 56.605469 126.734375 L 74.558594 126.734375 L 74.558594 121.988281 L 62.519531 121.988281 L 62.519531 117.457031 L 74.367188 117.457031 L 74.367188 112.714844 L 62.519531 112.714844 L 62.519531 108.566406 L 74.558594 108.566406 L 74.558594 103.820312 L 56.605469 103.820312 Z M 150.183594 108.96875 L 153.140625 116.671875 L 147.011719 116.671875 Z M 108.53125 108.96875 L 111.488281 116.671875 L 105.554688 116.671875 Z M 103.597656 121.605469 L 101.617188 126.734375 L 103.597656 121.605469 L 113.46875 121.605469 L 115.445312 126.734375 L 125.722656 126.734375 L 125.722656 117.433594 L 130.847656 117.433594 C 132.828125 117.433594 132.828125 119.605469 132.828125 119.605469 L 132.828125 126.707031 L 143.101562 126.707031 L 145.082031 121.367188 L 155.144531 121.367188 L 157.121094 126.707031 L 164.035156 126.707031 L 153.761719 103.820312 L 146.417969 103.820312 L 139.3125 120.414062 C 139.3125 114.5 136.355469 114.691406 136.355469 114.691406 C 136.355469 114.691406 138.929688 113.90625 139.121094 109.351562 C 139.121094 103.226562 133.398438 103.820312 133.398438 103.820312 L 119.785156 103.820312 L 119.785156 108.566406 L 130.847656 108.566406 C 132.828125 108.566406 132.828125 110.351562 132.828125 110.351562 C 132.828125 112.929688 130.847656 112.714844 130.847656 112.714844 L 119.785156 112.714844 L 119.976562 120.414062 L 112.46875 103.820312 L 104.574219 103.820312 L 97.851562 120.007812 C 97.851562 120.007812 98.257812 114.882812 94.703125 114.882812 C 94.703125 114.882812 97.28125 113.691406 97.28125 109.542969 C 97.28125 103.414062 91.75 103.820312 91.75 103.820312 L 77.921875 103.820312 L 77.921875 108.566406 L 89.554688 108.566406 C 89.554688 108.566406 87.578125 108.566406 89.554688 108.566406 C 91.34375 108.566406 91.34375 110.542969 91.34375 110.542969 C 91.34375 112.714844 89.554688 112.714844 89.554688 112.714844 L 77.921875 112.714844 L 77.921875 126.734375 L 101.617188 126.734375 Z M 103.597656 121.605469 " fill-opacity="1" fill-rule="evenodd"/><path fill="#727271" d="M 164.777344 59.402344 C 149.777344 59.59375 131.613281 61.765625 131.613281 61.765625 C 131.613281 61.765625 149.777344 64.339844 164.777344 64.339844 L 164.777344 75.972656 C 147.394531 75.972656 129.035156 77.953125 129.035156 77.953125 C 129.035156 77.953125 146.800781 79.71875 164.777344 79.71875 L 164.777344 99.648438 L 56.605469 99.648438 L 56.605469 94.355469 C 82.070312 94.355469 98.066406 90.804688 98.066406 90.804688 C 98.066406 90.804688 82.070312 87.441406 56.605469 87.441406 L 56.605469 82.101562 C 91.34375 82.101562 106.9375 77.164062 106.9375 77.164062 C 106.9375 77.164062 91.34375 73.015625 56.605469 73.015625 L 56.605469 66.316406 C 104.574219 66.507812 118.785156 60.976562 118.785156 60.976562 C 118.785156 60.976562 104.382812 56.449219 56.605469 56.449219 L 56.605469 12.03125 L 164.777344 12.03125 L 164.777344 42.429688 C 150.566406 42.429688 132.996094 44.789062 132.996094 44.789062 C 133.183594 44.789062 150.566406 47.148438 164.777344 47.148438 Z M 151.757812 52.488281 C 122.148438 45.765625 90.367188 52.488281 90.367188 52.488281 C 126.484375 59.214844 151.757812 52.488281 151.757812 52.488281 Z M 144.84375 70.0625 C 115.421875 63.335938 88.984375 70.0625 88.984375 70.0625 C 122.550781 76.378906 144.84375 70.0625 144.84375 70.0625 Z M 138.335938 84.867188 C 114.445312 79.527344 88.984375 84.867188 88.984375 84.867188 C 116.019531 89.992188 138.335938 84.867188 138.335938 84.867188 " fill-opacity="1" fill-rule="evenodd"/></svg>