<svg xmlns="http://www.w3.org/2000/svg" xmlns:xlink="http://www.w3.org/1999/xlink" width="295" zoomAndPan="magnify" viewBox="0 0 221.25 138.750001" height="185" preserveAspectRatio="xMidYMid meet" version="1.0"><defs><clipPath id="4001332746"><path d="M 0 0.109375 L 220.503906 0.109375 L 220.503906 138.390625 L 0 138.390625 Z M 0 0.109375 " clip-rule="nonzero"/></clipPath><clipPath id="4b3764259b"><path d="M 1 47 L 220.503906 47 L 220.503906 92.179688 L 1 92.179688 Z M 1 47 " clip-rule="nonzero"/></clipPath></defs><g clip-path="url(#4001332746)"><path fill="#ffffff" d="M 0 0.109375 L 220.503906 0.109375 L 220.503906 138.390625 L 0 138.390625 Z M 0 0.109375 " fill-opacity="1" fill-rule="nonzero"/></g><g clip-path="url(#4b3764259b)"><path fill="#727271" d="M 22.390625 92.511719 C 29.730469 92.875 37.351562 88.445312 40.621094 83.976562 C 43.988281 79.605469 44.691406 76.71875 45.261719 71.148438 C 45.660156 68.351562 44.992188 65.445312 44.15625 62.785156 C 42.960938 59.152344 40.621094 56.015625 37.828125 53.527344 C 33.1875 49.457031 25.796875 47.386719 19.199219 48.582031 C 14.5625 49.554688 10.929688 51.511719 8.097656 54.019531 C 6.101562 55.976562 4.769531 57.957031 3.59375 59.953125 C 2.925781 61.414062 2.488281 62.746094 1.957031 64.246094 C 0 70.882812 1.769531 78.445312 5.265625 83.3125 C 8.628906 88.046875 14.332031 91.371094 19.828125 92.210938 C 20.851562 92.476562 21.5 92.511719 22.390625 92.511719 Z M 58.054688 92.074219 L 58.054688 56.015625 L 67.386719 56.015625 L 67.386719 92.074219 L 77.214844 92.074219 L 77.214844 56.015625 L 78.714844 56.015625 C 83.582031 55.976562 86.585938 58.847656 86.640625 62.839844 L 86.640625 92.074219 L 95.84375 92.074219 L 95.84375 62.082031 C 95.539062 53.183594 87.914062 48.089844 81.109375 48.050781 L 48.359375 48.050781 L 48.359375 92.074219 Z M 110.613281 92.171875 L 110.613281 74.074219 L 110.574219 55.976562 L 120.441406 55.976562 C 124.375 55.976562 125.171875 56.113281 127.167969 58.011719 C 128.765625 59.648438 128.84375 62.003906 127.796875 64.644531 C 127.167969 66.546875 124.699219 68.503906 120.859375 68.542969 L 113.101562 68.542969 L 130.191406 92.074219 L 140.894531 92.074219 L 128.460938 74.339844 C 129.355469 74.339844 131.292969 73.714844 132.492188 72.667969 C 134.429688 71.070312 135.953125 68.941406 136.789062 66.070312 C 137.757812 62.441406 137.320312 57.136719 134.714844 53.507812 C 130.628906 48.089844 123.539062 48.050781 121.867188 48.050781 L 101.203125 48.050781 L 101.203125 92.171875 Z M 187.257812 92.132812 L 196.113281 92.132812 L 196.078125 56.148438 L 204.039062 56.148438 C 208.734375 56.054688 212.367188 58.886719 212.367188 62.839844 L 212.40625 92.132812 L 221.261719 92.132812 L 221.261719 61.984375 C 221.261719 53.183594 213.5625 48.355469 206.570312 48.355469 L 187.257812 48.355469 Z M 21.632812 83.238281 C 23.96875 83.503906 25.300781 83.503906 26.765625 82.933594 C 30.128906 81.601562 32.5625 79.835938 34.367188 77.003906 C 34.671875 76.566406 35.46875 75.328125 35.699219 74.167969 C 36.457031 71.070312 36.363281 68.867188 35.46875 66.070312 C 35.203125 65.40625 34.976562 64.835938 34.671875 64.265625 C 32.90625 61.167969 30.375 59.171875 27.203125 58.03125 C 22.640625 56.664062 17.601562 57.992188 14.503906 60.636719 C 11.234375 63.429688 9.597656 67.765625 10.207031 72.097656 C 10.472656 73.695312 11.175781 75.460938 11.84375 76.832031 C 14.710938 81.601562 18.304688 82.800781 21.613281 83.257812 Z M 161.859375 57.082031 C 154.789062 57.082031 148.933594 62.917969 148.933594 70.042969 C 148.933594 77.210938 154.769531 83.007812 161.859375 83.007812 C 168.988281 83.007812 174.785156 77.210938 174.785156 70.042969 C 174.785156 62.917969 168.988281 57.082031 161.859375 57.082031 Z M 161.859375 47.917969 C 149.65625 47.917969 139.640625 57.820312 139.640625 70.082031 C 139.640625 82.285156 149.636719 92.246094 161.859375 92.246094 C 174.027344 92.246094 183.988281 82.285156 183.988281 70.082031 C 183.988281 57.820312 174.027344 47.917969 161.859375 47.917969 Z M 161.859375 47.917969 " fill-opacity="1" fill-rule="evenodd"/></g></svg>