<svg xmlns="http://www.w3.org/2000/svg" xmlns:xlink="http://www.w3.org/1999/xlink" width="295" zoomAndPan="magnify" viewBox="0 0 221.25 138.750001" height="185" preserveAspectRatio="xMidYMid meet" version="1.0"><defs><clipPath id="188eb7d50a"><path d="M 0 0.109375 L 220.503906 0.109375 L 220.503906 138.390625 L 0 138.390625 Z M 0 0.109375 " clip-rule="nonzero"/></clipPath></defs><g clip-path="url(#188eb7d50a)"><path fill="#ffffff" d="M 0 0.109375 L 220.503906 0.109375 L 220.503906 138.390625 L 0 138.390625 Z M 0 0.109375 " fill-opacity="1" fill-rule="nonzero"/></g><path fill="#778486" d="M 27.722656 58.128906 L 27.722656 65.042969 L 24.125 65.042969 C 24.125 64.398438 24.183594 64.386719 23.539062 63.613281 C 21.539062 60.894531 18.296875 60.273438 15.019531 60.847656 C 14.066406 61.035156 13.207031 61.703125 12.585938 62.5625 C 12.300781 63.277344 12.347656 64.445312 13.539062 65.207031 C 16.03125 66.652344 19.273438 66.402344 21.941406 67.28125 C 24.898438 67.996094 27.355469 69.429688 28.011719 72.707031 C 28.675781 75.613281 27.53125 78.234375 25.148438 79.941406 C 20.90625 82.65625 14.148438 82.324219 10.191406 79.367188 L 9.605469 78.988281 L 9.605469 81.453125 L 6.054688 81.453125 L 6.054688 74.421875 L 9.605469 74.421875 C 9.894531 76.519531 12.671875 77.746094 14.433594 78.320312 C 18.25 78.699219 20.371094 79.058594 21.632812 76.640625 C 21.871094 75.972656 21.667969 74.933594 21.238281 74.410156 C 18.664062 72.074219 14.828125 72.597656 11.726562 71.644531 C 9.203125 70.929688 6.566406 68.640625 6.136719 65.886719 C 5.949219 63.265625 6.507812 61.0625 8.9375 59.5 C 13.375 56.734375 20.023438 56.746094 24.113281 60.035156 L 24.113281 58.128906 Z M 27.722656 58.128906 " fill-opacity="1" fill-rule="evenodd"/><path fill="#778486" d="M 53.039062 65.601562 L 53.039062 58.082031 L 29.871094 58.082031 L 29.871094 61.527344 L 33.445312 61.527344 L 33.445312 77.890625 L 29.726562 77.890625 L 29.726562 81.371094 L 53.039062 81.371094 L 53.039062 74.316406 L 49.558594 74.316406 L 49.558594 77.878906 L 40.546875 77.878906 L 40.546875 71.273438 L 48.164062 71.273438 L 48.164062 67.757812 L 40.546875 67.757812 L 40.546875 61.527344 L 49.558594 61.527344 L 49.558594 65.601562 Z M 53.039062 65.601562 " fill-opacity="1" fill-rule="evenodd"/><path fill="#778486" d="M 62.5625 61.527344 L 62.5625 77.902344 L 65.828125 77.902344 L 65.828125 81.417969 L 55.484375 81.417969 L 55.484375 77.902344 L 58.878906 77.902344 L 58.878906 61.527344 L 55.484375 61.527344 L 55.484375 58.035156 L 68.546875 58.035156 L 73.839844 72.882812 L 80.011719 58.035156 L 92.824219 58.035156 L 92.824219 61.527344 L 89.117188 61.527344 L 89.117188 77.902344 L 92.835938 77.902344 L 92.835938 81.417969 L 78.402344 81.417969 L 78.402344 77.902344 L 82.132812 77.902344 L 82.132812 61.527344 L 73.828125 81.417969 L 70.488281 81.417969 Z M 62.5625 61.527344 " fill-opacity="1" fill-rule="evenodd"/><path fill="#778486" d="M 186.558594 61.429688 L 186.558594 77.902344 L 190.132812 77.902344 L 190.132812 81.417969 L 175.78125 81.417969 L 175.78125 77.902344 L 179.320312 77.902344 L 179.320312 61.429688 L 175.78125 61.429688 L 175.78125 58.035156 L 190.132812 58.035156 L 190.132812 61.429688 Z M 186.558594 61.429688 " fill-opacity="1" fill-rule="evenodd"/><path fill="#778486" d="M 210.753906 77.796875 L 210.753906 81.371094 L 196.222656 81.371094 L 196.222656 77.796875 L 199.941406 77.796875 L 199.941406 61.429688 L 195.4375 61.429688 L 195.4375 65.019531 L 191.933594 65.019531 L 191.933594 58.035156 L 215.140625 58.035156 L 215.140625 65.007812 L 211.609375 65.007812 L 211.609375 61.429688 L 207.082031 61.429688 L 207.082031 77.796875 Z M 210.753906 77.796875 " fill-opacity="1" fill-rule="evenodd"/><path fill="#778486" d="M 105.902344 61.441406 C 108.046875 61.429688 109.179688 61.324219 110.667969 61.691406 C 111.765625 62.027344 112.695312 62.871094 113.410156 63.921875 C 113.886719 64.730469 113.804688 66.019531 113.566406 66.925781 C 113.171875 68.402344 111.777344 69.59375 109.65625 69.640625 L 105.902344 69.640625 Z M 118.59375 71.085938 C 120.726562 68.890625 121.074219 65.984375 120.550781 63.371094 C 119.785156 60.65625 117.175781 58.058594 112.96875 58.070312 L 94.960938 58.070312 L 94.960938 61.441406 L 98.378906 61.441406 L 98.378906 77.867188 L 94.960938 77.867188 L 94.960938 81.417969 L 109.355469 81.417969 L 109.355469 77.867188 L 105.902344 77.867188 L 105.902344 73.132812 C 111.265625 73.097656 115.878906 73.46875 118.59375 71.085938 " fill-opacity="1" fill-rule="evenodd"/><path fill="#778486" d="M 165.578125 68.234375 C 164.996094 68.988281 163.601562 69.441406 161.445312 69.453125 L 157.09375 69.453125 L 157.09375 61.488281 C 161.910156 61.511719 164.269531 61.179688 165.628906 63.039062 C 166.640625 64.589844 166.960938 66.339844 165.566406 68.234375 Z M 170.644531 77.867188 C 169.214844 76.054688 167.976562 74.328125 166.734375 72.46875 C 166.734375 72.46875 170.941406 71.527344 172.386719 68.832031 C 173.339844 66.6875 173.304688 63.71875 172.230469 61.753906 C 170.835938 59.570312 168.703125 58.035156 165.390625 58.046875 L 146.175781 58.046875 L 146.175781 61.488281 L 149.75 61.488281 L 149.75 77.867188 L 146.175781 77.867188 L 146.175781 81.40625 L 160.550781 81.40625 L 160.550781 77.867188 L 157.09375 77.867188 L 157.09375 70.035156 C 159.882812 73.789062 162.480469 77.722656 165.257812 81.40625 L 173.492188 81.40625 L 173.492188 77.867188 Z M 170.644531 77.867188 " fill-opacity="1" fill-rule="evenodd"/><path fill="#778486" d="M 144.125 65.601562 L 144.125 58.082031 L 120.953125 58.082031 L 120.953125 61.527344 L 124.53125 61.527344 L 124.53125 77.890625 L 120.8125 77.890625 L 120.8125 81.371094 L 144.125 81.371094 L 144.125 74.316406 L 140.644531 74.316406 L 140.644531 77.878906 L 131.632812 77.878906 L 131.632812 71.273438 L 139.25 71.273438 L 139.25 67.757812 L 131.632812 67.757812 L 131.632812 61.527344 L 140.644531 61.527344 L 140.644531 65.601562 Z M 144.125 65.601562 " fill-opacity="1" fill-rule="evenodd"/></svg>