<svg xmlns="http://www.w3.org/2000/svg" xmlns:xlink="http://www.w3.org/1999/xlink" width="295" zoomAndPan="magnify" viewBox="0 0 221.25 138.750001" height="185" preserveAspectRatio="xMidYMid meet" version="1.0"><defs><clipPath id="58f1ef900b"><path d="M 0 0.109375 L 220.503906 0.109375 L 220.503906 138.390625 L 0 138.390625 Z M 0 0.109375 " clip-rule="nonzero"/></clipPath><clipPath id="32eeb06fc7"><path d="M 41.109375 0.109375 L 179.390625 0.109375 L 179.390625 138.390625 L 41.109375 138.390625 Z M 41.109375 0.109375 " clip-rule="nonzero"/></clipPath></defs><g clip-path="url(#58f1ef900b)"><path fill="#ffffff" d="M 0 0.109375 L 220.503906 0.109375 L 220.503906 138.390625 L 0 138.390625 Z M 0 0.109375 " fill-opacity="1" fill-rule="nonzero"/></g><g clip-path="url(#32eeb06fc7)"><path fill="#727271" d="M 97.804688 32.875 C 97.804688 39.429688 100.75 45.261719 105.382812 49.109375 C 108.328125 51.753906 111.574219 54.339844 115.0625 56.804688 C 116.5625 57.886719 118.066406 58.847656 119.628906 59.871094 C 125.882812 64.261719 131.355469 69.070312 135.863281 73.941406 C 141.996094 80.3125 145.785156 88.96875 145.785156 98.46875 C 145.785156 111.695312 138.507812 123.238281 127.6875 129.371094 C 153.417969 122.519531 172.417969 99.070312 172.417969 71.175781 C 172.417969 41.714844 150.292969 16.222656 123.296875 12.015625 C 121.914062 11.714844 120.109375 11.832031 118.609375 11.832031 C 106.882812 11.832031 97.746094 21.03125 97.746094 32.757812 Z M 126.664062 109.53125 C 126.664062 102.980469 123.71875 97.148438 119.089844 93.300781 C 116.144531 90.652344 112.835938 88.070312 109.347656 85.605469 C 107.847656 84.519531 106.34375 83.558594 104.78125 82.539062 C 98.527344 78.148438 93.054688 73.339844 88.605469 68.46875 C 82.476562 62.097656 78.6875 53.4375 78.6875 43.9375 C 78.6875 30.710938 85.960938 19.167969 96.722656 13.035156 C 70.992188 19.890625 51.992188 43.335938 51.992188 71.234375 C 51.992188 100.695312 74.117188 126.1875 101.113281 130.394531 C 102.496094 130.695312 104.300781 130.574219 105.800781 130.574219 C 117.527344 130.574219 126.664062 121.375 126.664062 109.652344 Z M 41.109375 71.234375 C 41.109375 31.976562 72.976562 0.109375 112.234375 0.109375 C 151.496094 0.109375 183.421875 31.976562 183.421875 71.234375 C 183.421875 110.496094 151.554688 142.359375 112.296875 142.359375 C 73.035156 142.359375 41.109375 110.554688 41.109375 71.234375 " fill-opacity="1" fill-rule="evenodd"/></g></svg>