<svg xmlns="http://www.w3.org/2000/svg" xmlns:xlink="http://www.w3.org/1999/xlink" width="295" zoomAndPan="magnify" viewBox="0 0 221.25 138.750001" height="185" preserveAspectRatio="xMidYMid meet" version="1.0"><defs><clipPath id="4c907defd0"><path d="M 0 0.109375 L 220.503906 0.109375 L 220.503906 138.390625 L 0 138.390625 Z M 0 0.109375 " clip-rule="nonzero"/></clipPath><clipPath id="d948757ab6"><path d="M 98.035156 74.382812 L 108.777344 74.382812 L 108.777344 76.839844 L 98.035156 76.839844 Z M 98.035156 76.839844 L 100.710938 76.839844 L 100.710938 82.582031 L 98.035156 82.582031 Z M 98.035156 82.582031 L 108.472656 82.582031 L 108.472656 85.039062 L 98.035156 85.039062 Z M 98.035156 85.039062 L 100.710938 85.039062 L 100.710938 90.9375 L 98.035156 90.9375 Z M 98.035156 90.9375 L 108.992188 90.9375 L 108.992188 93.410156 L 98.035156 93.410156 Z M 98.035156 90.9375 " clip-rule="nonzero"/></clipPath><clipPath id="303205428d"><path d="M 114.925781 74.382812 L 117.378906 74.382812 L 117.378906 93.410156 L 114.925781 93.410156 Z M 114.925781 74.382812 " clip-rule="nonzero"/></clipPath><clipPath id="8c3162294d"><path d="M 124.308594 80.632812 L 136 80.632812 L 136 93.867188 L 124.308594 93.867188 Z M 124.308594 80.632812 " clip-rule="nonzero"/></clipPath><clipPath id="969d6b7a86"><path d="M 126.945312 87.507812 L 135.753906 87.507812 C 135.753906 82.886719 133.585938 80.648438 130.300781 80.648438 C 126.871094 80.648438 124.488281 83.191406 124.488281 86.984375 C 124.488281 90.414062 126.652344 93.628906 130.535156 93.628906 C 132.628906 93.628906 133.964844 93.105469 135.535156 92.132812 L 135.535156 89.746094 C 134.035156 90.722656 132.628906 91.246094 131.128906 91.246094 C 128.746094 91.246094 127.320312 89.980469 126.957031 87.507812 Z M 130.375 82.726562 C 132.089844 82.726562 133.207031 83.917969 133.28125 85.867188 L 127.015625 85.867188 C 127.320312 83.847656 128.441406 82.726562 130.375 82.726562 " clip-rule="nonzero"/></clipPath><clipPath id="db06d04c16"><path d="M 141.539062 80.632812 L 151.691406 80.632812 L 151.691406 93.867188 L 141.539062 93.867188 Z M 141.539062 80.632812 " clip-rule="nonzero"/></clipPath><clipPath id="f138c5ee89"><path d="M 151.375 84.152344 C 149.953125 83.175781 148.992188 82.886719 147.945312 82.886719 C 145.636719 82.886719 144.136719 84.601562 144.136719 87.144531 C 144.136719 89.761719 145.78125 91.316406 148.308594 91.316406 C 149.355469 91.316406 150.402344 91.011719 151.667969 90.503906 L 151.667969 92.886719 C 150.765625 93.265625 149.210938 93.628906 147.933594 93.628906 C 144.195312 93.628906 141.59375 91.011719 141.59375 87.363281 C 141.59375 83.265625 143.976562 80.648438 147.714844 80.648438 C 149.210938 80.648438 150.171875 80.953125 151.375 81.476562 Z M 151.375 84.152344 " clip-rule="nonzero"/></clipPath><clipPath id="18cc677be1"><path d="M 157.847656 78.171875 L 167.386719 78.171875 L 167.386719 93.867188 L 157.847656 93.867188 Z M 157.847656 78.171875 " clip-rule="nonzero"/></clipPath><clipPath id="e07723b759"><path d="M 162.496094 80.867188 L 166.449219 80.867188 L 166.449219 83.105469 L 162.496094 83.105469 L 162.496094 89.515625 C 162.496094 90.9375 163.542969 91.375 164.28125 91.375 C 165.183594 91.375 166.070312 91.070312 167.117188 90.472656 L 167.117188 92.785156 C 166.214844 93.234375 164.878906 93.597656 164.066406 93.597656 C 161.375 93.597656 160.039062 91.882812 160.039062 89.644531 L 160.039062 83.105469 L 157.875 83.105469 L 157.875 82.800781 L 162.496094 78.25 Z M 162.496094 80.867188 " clip-rule="nonzero"/></clipPath><clipPath id="60a79321bd"><path d="M 172.617188 80.328125 L 182 80.328125 L 182 93.558594 L 172.617188 93.558594 Z M 172.617188 80.328125 " clip-rule="nonzero"/></clipPath><clipPath id="70183f482c"><path d="M 175.371094 80.867188 L 175.371094 83.773438 C 176.636719 81.535156 177.828125 80.632812 179.019531 80.632812 C 179.996094 80.632812 180.953125 81.085938 182 82.058594 L 180.648438 84.222656 C 179.90625 83.484375 178.933594 83.03125 178.339844 83.03125 C 176.621094 83.03125 175.359375 84.746094 175.359375 86.839844 L 175.359375 93.410156 L 172.902344 93.410156 L 172.902344 80.867188 Z M 175.371094 80.867188 " clip-rule="nonzero"/></clipPath><clipPath id="2e2979ec81"><path d="M 189.019531 80.867188 L 191.476562 80.867188 L 191.476562 93.394531 L 189.019531 93.394531 Z M 189.019531 80.867188 " clip-rule="nonzero"/></clipPath><clipPath id="8a65d03616"><path d="M 197.539062 80.632812 L 208 80.632812 L 208 93.867188 L 197.539062 93.867188 Z M 197.539062 80.632812 " clip-rule="nonzero"/></clipPath><clipPath id="c1102fe017"><path d="M 207.480469 84.152344 C 206.070312 83.175781 205.097656 82.886719 204.050781 82.886719 C 201.738281 82.886719 200.242188 84.601562 200.242188 87.144531 C 200.242188 89.761719 201.882812 91.316406 204.414062 91.316406 C 205.460938 91.316406 206.503906 91.011719 207.769531 90.503906 L 207.769531 92.886719 C 206.871094 93.265625 205.3125 93.628906 204.035156 93.628906 C 200.300781 93.628906 197.699219 91.011719 197.699219 87.363281 C 197.699219 83.265625 200.082031 80.648438 203.816406 80.648438 C 205.3125 80.648438 206.273438 80.953125 207.464844 81.476562 Z M 207.480469 84.152344 " clip-rule="nonzero"/></clipPath><clipPath id="c6ac0fa107"><path d="M 7.078125 37.558594 L 32.308594 37.558594 L 32.308594 71 L 7.078125 71 Z M 7.078125 37.558594 " clip-rule="nonzero"/></clipPath><clipPath id="97141d82c6"><path d="M 30.710938 46.449219 C 26.003906 44.355469 23.183594 43.628906 20.449219 43.628906 C 17.515625 43.628906 15.640625 44.675781 15.640625 46.246094 C 15.640625 51.160156 32.179688 49.804688 32.179688 61.101562 C 32.179688 67.277344 26.945312 70.941406 19.722656 70.941406 C 13.96875 70.941406 11.148438 69.472656 8.007812 67.800781 L 8.007812 60.78125 C 12.617188 63.917969 15.4375 64.964844 19.097656 64.964844 C 22.238281 64.964844 23.910156 63.917969 23.910156 61.929688 C 23.910156 56.695312 7.265625 58.585938 7.265625 46.957031 C 7.265625 41.304688 12.179688 37.640625 19.722656 37.640625 C 23.386719 37.640625 26.628906 38.367188 30.710938 40.15625 Z M 30.710938 46.449219 " clip-rule="nonzero"/></clipPath><clipPath id="edb7c94019"><path d="M 33.539062 48.019531 L 54 48.019531 L 54 71 L 33.539062 71 Z M 33.539062 48.019531 " clip-rule="nonzero"/></clipPath><clipPath id="42f8218ab4"><path d="M 53.953125 69.472656 C 51.132812 70.417969 48.820312 70.941406 46.523438 70.941406 C 38.777344 70.941406 33.761719 66.433594 33.761719 59.53125 C 33.761719 52.828125 38.996094 48.121094 46.21875 48.121094 C 48.414062 48.121094 51.351562 48.644531 53.648438 49.589844 L 53.648438 54.71875 C 51.757812 53.773438 49.664062 53.148438 47.992188 53.148438 C 43.808594 53.148438 41.191406 55.664062 41.191406 59.53125 C 41.191406 63.394531 43.808594 66.011719 47.789062 66.011719 C 49.460938 66.011719 50.929688 65.589844 53.964844 64.441406 Z M 53.953125 69.472656 " clip-rule="nonzero"/></clipPath><clipPath id="c1c57337ba"><path d="M 56.617188 38 L 78.769531 38 L 78.769531 70.789062 L 56.617188 70.789062 Z M 56.617188 38 " clip-rule="nonzero"/></clipPath><clipPath id="cad478b88f"><path d="M 71.84375 66.753906 L 71.84375 57.960938 C 71.84375 54.71875 70.476562 53.148438 68.28125 53.148438 C 66.714844 53.148438 65.347656 54.195312 63.675781 56.492188 L 63.675781 70.519531 L 56.773438 70.519531 L 56.773438 38.078125 L 63.675781 38.078125 L 63.675781 51.785156 L 63.777344 51.785156 C 65.769531 49.269531 67.964844 48.121094 70.679688 48.121094 C 74.765625 48.121094 78.734375 50.535156 78.734375 56.492188 L 78.734375 65.386719 C 76.4375 65.386719 73.601562 66.230469 71.828125 66.753906 " clip-rule="nonzero"/></clipPath><clipPath id="84aeaf5c35"><path d="M 81.847656 48.019531 L 104.308594 48.019531 L 104.308594 70.789062 L 81.847656 70.789062 Z M 81.847656 48.019531 " clip-rule="nonzero"/></clipPath><clipPath id="a61ca4060b"><path d="M 81.988281 64.964844 C 81.988281 60.984375 81.988281 48.542969 81.988281 48.542969 L 88.894531 48.542969 L 88.894531 51.679688 C 91.085938 49.167969 93.28125 48.121094 96.117188 48.121094 C 99.5625 48.121094 104.066406 50.113281 104.066406 56.492188 L 104.066406 70.519531 L 97.164062 70.519531 L 97.164062 57.117188 C 97.164062 53.976562 95.695312 52.726562 93.703125 52.726562 C 92.03125 52.726562 90.769531 53.671875 88.894531 56.390625 C 88.894531 56.390625 88.894531 62.464844 88.894531 66.011719 C 86.597656 65.386719 84.183594 65.167969 81.988281 64.964844 " clip-rule="nonzero"/></clipPath><clipPath id="2a24305783"><path d="M 106.769531 48.019531 L 129.847656 48.019531 L 129.847656 71 L 106.769531 71 Z M 106.769531 48.019531 " clip-rule="nonzero"/></clipPath><clipPath id="0f580ff82d"><path d="M 118.414062 48.121094 C 111.609375 48.121094 106.800781 52.929688 106.800781 59.632812 C 106.800781 66.433594 111.828125 70.941406 119.574219 70.941406 C 121.347656 70.941406 125.433594 70.941406 129.414062 68.003906 L 129.414062 63.714844 C 126.171875 66.011719 123.980469 66.855469 121.246094 66.855469 C 116.957031 66.855469 114.242188 64.558594 114.023438 60.679688 L 129.71875 60.679688 C 130.140625 52.625 124.808594 48.121094 118.414062 48.121094 Z M 114.125 57.015625 C 114.445312 53.976562 116.21875 52.203125 118.9375 52.203125 C 121.550781 52.203125 123.441406 54.09375 123.644531 57.015625 Z M 114.125 57.015625 " clip-rule="nonzero"/></clipPath><clipPath id="8d3e59cd84"><path d="M 132.4375 48.542969 L 139.34375 48.542969 L 139.34375 70.519531 L 132.4375 70.519531 Z M 132.4375 48.542969 " clip-rule="nonzero"/></clipPath><clipPath id="bfc389cb76"><path d="M 142.15625 38 L 165.539062 38 L 165.539062 71 L 142.15625 71 Z M 142.15625 38 " clip-rule="nonzero"/></clipPath><clipPath id="7c8b149664"><path d="M 158.5 38.078125 L 158.5 49.488281 C 156.710938 48.644531 154.835938 48.121094 152.84375 48.121094 C 146.566406 48.121094 142.175781 52.726562 142.175781 59.53125 C 142.175781 66.128906 146.566406 70.941406 152.4375 70.941406 C 154.734375 70.941406 156.625 70.316406 158.511719 68.746094 L 158.511719 70.519531 L 165.417969 70.519531 L 165.417969 38.078125 Z M 158.5 64.558594 C 157.132812 65.824219 155.882812 66.332031 154.414062 66.332031 C 151.171875 66.332031 149.082031 63.613281 149.082031 59.632812 C 149.082031 55.226562 151.171875 52.726562 154.632812 52.726562 C 155.882812 52.726562 157.554688 53.25 158.5 53.976562 Z M 158.5 64.558594 " clip-rule="nonzero"/></clipPath><clipPath id="bb28627d6a"><path d="M 168.308594 48.019531 L 191.386719 48.019531 L 191.386719 71 L 168.308594 71 Z M 168.308594 48.019531 " clip-rule="nonzero"/></clipPath><clipPath id="4b5dd2881a"><path d="M 179.953125 48.121094 C 173.148438 48.121094 168.339844 52.929688 168.339844 59.632812 C 168.339844 66.433594 173.367188 70.941406 181.097656 70.941406 C 182.769531 70.941406 186.957031 70.941406 190.9375 68.003906 L 190.9375 63.714844 C 187.699219 66.011719 185.488281 66.855469 182.769531 66.855469 C 178.382812 66.855469 175.765625 64.558594 175.445312 60.679688 L 191.246094 60.679688 C 191.5625 52.625 186.332031 48.121094 179.9375 48.121094 Z M 175.664062 57.015625 C 175.96875 53.976562 177.65625 52.203125 180.371094 52.203125 C 183.089844 52.203125 184.863281 54.09375 185.183594 57.015625 Z M 175.664062 57.015625 " clip-rule="nonzero"/></clipPath><clipPath id="6de9a22793"><path d="M 194.460938 48.019531 L 213.539062 48.019531 L 213.539062 70.789062 L 194.460938 70.789062 Z M 194.460938 48.019531 " clip-rule="nonzero"/></clipPath><clipPath id="8c49171e4e"><path d="M 201.621094 54.820312 L 201.722656 54.820312 C 203.714844 50.214844 206.011719 48.121094 208.742188 48.121094 C 210.097656 48.121094 211.257812 48.644531 213.25 50.113281 L 211.359375 56.1875 C 209.585938 55.039062 208.425781 54.617188 207.277344 54.617188 C 204.761719 54.617188 203.089844 57.03125 201.621094 61 L 201.621094 70.519531 L 194.71875 70.519531 L 194.71875 48.542969 L 201.621094 48.542969 Z M 201.621094 54.820312 " clip-rule="nonzero"/></clipPath><clipPath id="21ea40b1a3"><path d="M 131.691406 37.558594 L 140 37.558594 L 140 45.558594 L 131.691406 45.558594 Z M 131.691406 37.558594 " clip-rule="nonzero"/></clipPath><clipPath id="b4fdf2f0cd"><path d="M 139.660156 39.226562 C 140.285156 41 139.136719 43.410156 137.046875 44.558594 C 134.953125 45.808594 132.757812 45.402344 132.117188 43.714844 C 131.480469 42.03125 132.640625 39.632812 134.734375 38.382812 C 136.828125 37.132812 139.023438 37.539062 139.648438 39.226562 " clip-rule="nonzero"/></clipPath><clipPath id="a2e75241b6"><path d="M 188.617188 75.710938 L 191.691406 75.710938 L 191.691406 78.789062 L 188.617188 78.789062 Z M 188.617188 75.710938 " clip-rule="nonzero"/></clipPath><clipPath id="50c5c1806e"><path d="M 191.621094 76.390625 C 191.839844 76.984375 191.40625 77.816406 190.648438 78.25 C 189.894531 78.6875 189.152344 78.554688 188.933594 77.945312 C 188.714844 77.335938 189.078125 76.535156 189.835938 76.085938 C 190.589844 75.632812 191.332031 75.78125 191.621094 76.390625 " clip-rule="nonzero"/></clipPath><clipPath id="83ae089350"><path d="M 59 67.097656 L 91.691406 67.097656 L 91.691406 99.402344 L 59 99.402344 Z M 59 67.097656 " clip-rule="nonzero"/></clipPath><clipPath id="cfd0912994"><path d="M 65.550781 74.847656 C 72.746094 67.363281 82.992188 65.023438 88.355469 69.632812 C 93.71875 74.238281 92.234375 84.078125 85.042969 91.550781 C 77.847656 99.019531 67.601562 101.359375 62.238281 96.765625 C 56.875 92.175781 58.355469 82.320312 65.550781 74.847656 " clip-rule="nonzero"/></clipPath><clipPath id="880bec4ed3"><path d="M 63.386719 73.558594 L 87.386719 73.558594 L 87.386719 92.941406 L 63.386719 92.941406 Z M 63.386719 73.558594 " clip-rule="nonzero"/></clipPath><clipPath id="4946a6ec8a"><path d="M 70.667969 92.683594 L 63.441406 92.683594 L 64.589844 88.265625 L 68.617188 88.308594 C 69.257812 88.308594 70.101562 87.871094 70.230469 87.246094 L 72.003906 79.429688 C 72.730469 76.203125 76.757812 73.65625 80.054688 73.65625 L 87.207031 73.65625 L 86.261719 77.65625 L 82.511719 77.699219 C 81.667969 77.710938 81.394531 77.902344 81.203125 78.570312 L 78.953125 87.058594 C 78.09375 90.285156 74.007812 92.699219 70.667969 92.699219 " clip-rule="nonzero"/></clipPath><clipPath id="13b8efcace"><path d="M 61.230469 77.558594 L 67.691406 77.558594 L 67.691406 80.632812 L 61.230469 80.632812 Z M 61.230469 77.558594 " clip-rule="nonzero"/></clipPath><clipPath id="07f859c82d"><path d="M 61.480469 80.488281 C 61.988281 79.542969 62.585938 78.597656 63.269531 77.667969 L 67.425781 77.667969 L 66.507812 80.488281 Z M 61.480469 80.488281 " clip-rule="nonzero"/></clipPath><clipPath id="7b4c8b39be"><path d="M 59.386719 83 L 66.152344 83 L 66.152344 85.867188 L 59.386719 85.867188 Z M 59.386719 83 " clip-rule="nonzero"/></clipPath><clipPath id="cea43a2709"><path d="M 59.460938 85.851562 C 59.664062 84.921875 59.941406 83.976562 60.304688 83.03125 L 66.074219 83.03125 L 65.15625 85.851562 Z M 59.460938 85.851562 " clip-rule="nonzero"/></clipPath><clipPath id="a4913c9349"><path d="M 82.152344 85.25 L 89.847656 85.25 L 89.847656 88.328125 L 82.152344 88.328125 Z M 82.152344 85.25 " clip-rule="nonzero"/></clipPath><clipPath id="a679155137"><path d="M 89.546875 85.402344 C 89.066406 86.347656 88.5 87.304688 87.847656 88.222656 L 82.292969 88.222656 L 83.210938 85.402344 Z M 89.546875 85.402344 " clip-rule="nonzero"/></clipPath><clipPath id="538b4d8d15"><path d="M 83.386719 80.019531 L 91.691406 80.019531 L 91.691406 83 L 83.386719 83 Z M 83.386719 80.019531 " clip-rule="nonzero"/></clipPath><clipPath id="2f81d6b3a3"><path d="M 91.40625 80.039062 C 91.234375 80.96875 90.984375 81.914062 90.636719 82.859375 L 83.617188 82.859375 L 84.53125 80.039062 Z M 91.40625 80.039062 " clip-rule="nonzero"/></clipPath><clipPath id="7fb3cb3ac2"><path d="M 63.386719 73.558594 L 87.386719 73.558594 L 87.386719 92.941406 L 63.386719 92.941406 Z M 63.386719 73.558594 " clip-rule="nonzero"/></clipPath><clipPath id="77a9b988cf"><path d="M 70.667969 92.683594 L 63.441406 92.683594 L 64.589844 88.265625 L 68.617188 88.308594 C 69.257812 88.308594 70.101562 87.871094 70.230469 87.246094 L 72.003906 79.429688 C 72.730469 76.203125 76.757812 73.65625 80.054688 73.65625 L 87.207031 73.65625 L 86.261719 77.65625 L 82.511719 77.699219 C 81.667969 77.710938 81.394531 77.902344 81.203125 78.570312 L 78.953125 87.058594 C 78.09375 90.285156 74.007812 92.699219 70.667969 92.699219 " clip-rule="nonzero"/></clipPath></defs><g clip-path="url(#4c907defd0)"><path fill="#ffffff" d="M 0 0.109375 L 220.503906 0.109375 L 220.503906 138.390625 L 0 138.390625 Z M 0 0.109375 " fill-opacity="1" fill-rule="nonzero"/><path fill="#feffff" d="M 0 0.109375 L 220.503906 0.109375 L 220.503906 138.390625 L 0 138.390625 Z M 0 0.109375 " fill-opacity="1" fill-rule="nonzero"/></g><g clip-path="url(#d948757ab6)"><path fill="#778486" d="M 0 29.867188 L 220.617188 29.867188 L 220.617188 108.636719 L 0 108.636719 Z M 0 29.867188 " fill-opacity="1" fill-rule="nonzero"/></g><g clip-path="url(#303205428d)"><path fill="#778486" d="M 0 29.867188 L 220.617188 29.867188 L 220.617188 108.636719 L 0 108.636719 Z M 0 29.867188 " fill-opacity="1" fill-rule="nonzero"/></g><g clip-path="url(#8c3162294d)"><g clip-path="url(#969d6b7a86)"><path fill="#778486" d="M 0 29.867188 L 220.617188 29.867188 L 220.617188 108.636719 L 0 108.636719 Z M 0 29.867188 " fill-opacity="1" fill-rule="nonzero"/></g></g><g clip-path="url(#db06d04c16)"><g clip-path="url(#f138c5ee89)"><path fill="#778486" d="M 0 29.867188 L 220.617188 29.867188 L 220.617188 108.636719 L 0 108.636719 Z M 0 29.867188 " fill-opacity="1" fill-rule="nonzero"/></g></g><g clip-path="url(#18cc677be1)"><g clip-path="url(#e07723b759)"><path fill="#778486" d="M 0 29.867188 L 220.617188 29.867188 L 220.617188 108.636719 L 0 108.636719 Z M 0 29.867188 " fill-opacity="1" fill-rule="nonzero"/></g></g><g clip-path="url(#60a79321bd)"><g clip-path="url(#70183f482c)"><path fill="#778486" d="M 0 29.867188 L 220.617188 29.867188 L 220.617188 108.636719 L 0 108.636719 Z M 0 29.867188 " fill-opacity="1" fill-rule="nonzero"/></g></g><g clip-path="url(#2e2979ec81)"><path fill="#778486" d="M 0 29.867188 L 220.617188 29.867188 L 220.617188 108.636719 L 0 108.636719 Z M 0 29.867188 " fill-opacity="1" fill-rule="nonzero"/></g><g clip-path="url(#8a65d03616)"><g clip-path="url(#c1102fe017)"><path fill="#778486" d="M 0 29.867188 L 220.617188 29.867188 L 220.617188 108.636719 L 0 108.636719 Z M 0 29.867188 " fill-opacity="1" fill-rule="nonzero"/></g></g><g clip-path="url(#c6ac0fa107)"><g clip-path="url(#97141d82c6)"><path fill="#778486" d="M 0 29.867188 L 220.617188 29.867188 L 220.617188 108.636719 L 0 108.636719 Z M 0 29.867188 " fill-opacity="1" fill-rule="nonzero"/></g></g><g clip-path="url(#edb7c94019)"><g clip-path="url(#42f8218ab4)"><path fill="#778486" d="M 0 29.867188 L 220.617188 29.867188 L 220.617188 108.636719 L 0 108.636719 Z M 0 29.867188 " fill-opacity="1" fill-rule="nonzero"/></g></g><g clip-path="url(#c1c57337ba)"><g clip-path="url(#cad478b88f)"><path fill="#778486" d="M 0 29.867188 L 220.617188 29.867188 L 220.617188 108.636719 L 0 108.636719 Z M 0 29.867188 " fill-opacity="1" fill-rule="nonzero"/></g></g><g clip-path="url(#84aeaf5c35)"><g clip-path="url(#a61ca4060b)"><path fill="#778486" d="M 0 29.867188 L 220.617188 29.867188 L 220.617188 108.636719 L 0 108.636719 Z M 0 29.867188 " fill-opacity="1" fill-rule="nonzero"/></g></g><g clip-path="url(#2a24305783)"><g clip-path="url(#0f580ff82d)"><path fill="#778486" d="M 0 29.867188 L 220.617188 29.867188 L 220.617188 108.636719 L 0 108.636719 Z M 0 29.867188 " fill-opacity="1" fill-rule="nonzero"/></g></g><g clip-path="url(#8d3e59cd84)"><path fill="#778486" d="M 0 29.867188 L 220.617188 29.867188 L 220.617188 108.636719 L 0 108.636719 Z M 0 29.867188 " fill-opacity="1" fill-rule="nonzero"/></g><g clip-path="url(#bfc389cb76)"><g clip-path="url(#7c8b149664)"><path fill="#778486" d="M 0 29.867188 L 220.617188 29.867188 L 220.617188 108.636719 L 0 108.636719 Z M 0 29.867188 " fill-opacity="1" fill-rule="nonzero"/></g></g><g clip-path="url(#bb28627d6a)"><g clip-path="url(#4b5dd2881a)"><path fill="#778486" d="M 0 29.867188 L 220.617188 29.867188 L 220.617188 108.636719 L 0 108.636719 Z M 0 29.867188 " fill-opacity="1" fill-rule="nonzero"/></g></g><g clip-path="url(#6de9a22793)"><g clip-path="url(#8c49171e4e)"><path fill="#778486" d="M 0 29.867188 L 220.617188 29.867188 L 220.617188 108.636719 L 0 108.636719 Z M 0 29.867188 " fill-opacity="1" fill-rule="nonzero"/></g></g><g clip-path="url(#21ea40b1a3)"><g clip-path="url(#b4fdf2f0cd)"><path fill="#778486" d="M 0 29.867188 L 220.617188 29.867188 L 220.617188 108.636719 L 0 108.636719 Z M 0 29.867188 " fill-opacity="1" fill-rule="nonzero"/></g></g><g clip-path="url(#a2e75241b6)"><g clip-path="url(#50c5c1806e)"><path fill="#778486" d="M 0 29.867188 L 220.617188 29.867188 L 220.617188 108.636719 L 0 108.636719 Z M 0 29.867188 " fill-opacity="1" fill-rule="nonzero"/></g></g><g clip-path="url(#83ae089350)"><g clip-path="url(#cfd0912994)"><path fill="#778486" d="M 0 29.867188 L 220.617188 29.867188 L 220.617188 108.636719 L 0 108.636719 Z M 0 29.867188 " fill-opacity="1" fill-rule="nonzero"/></g></g><g clip-path="url(#880bec4ed3)"><g clip-path="url(#4946a6ec8a)"><path fill="#778486" d="M 0 29.867188 L 220.617188 29.867188 L 220.617188 108.636719 L 0 108.636719 Z M 0 29.867188 " fill-opacity="1" fill-rule="nonzero"/></g></g><g clip-path="url(#13b8efcace)"><g clip-path="url(#07f859c82d)"><path fill="#fbffff" d="M 0 29.867188 L 220.617188 29.867188 L 220.617188 108.636719 L 0 108.636719 Z M 0 29.867188 " fill-opacity="1" fill-rule="nonzero"/></g></g><g clip-path="url(#7b4c8b39be)"><g clip-path="url(#cea43a2709)"><path fill="#fbffff" d="M 0 29.867188 L 220.617188 29.867188 L 220.617188 108.636719 L 0 108.636719 Z M 0 29.867188 " fill-opacity="1" fill-rule="nonzero"/></g></g><g clip-path="url(#a4913c9349)"><g clip-path="url(#a679155137)"><path fill="#fbffff" d="M 0 29.867188 L 220.617188 29.867188 L 220.617188 108.636719 L 0 108.636719 Z M 0 29.867188 " fill-opacity="1" fill-rule="nonzero"/></g></g><g clip-path="url(#538b4d8d15)"><g clip-path="url(#2f81d6b3a3)"><path fill="#fbffff" d="M 0 29.867188 L 220.617188 29.867188 L 220.617188 108.636719 L 0 108.636719 Z M 0 29.867188 " fill-opacity="1" fill-rule="nonzero"/></g></g><g clip-path="url(#7fb3cb3ac2)"><g clip-path="url(#77a9b988cf)"><path fill="#fbffff" d="M 0 29.867188 L 220.617188 29.867188 L 220.617188 108.636719 L 0 108.636719 Z M 0 29.867188 " fill-opacity="1" fill-rule="nonzero"/></g></g></svg>