<?xml version="1.0" encoding="utf-8"?>
<svg xmlns="http://www.w3.org/2000/svg" width="64" height="64"><g fill="#ffffff">
<path d="M32 18.82c-4.684 0-13.865 2.275-13.865 7.531v11.298c0 2.859 2.277 5.492 5.043 6.128v17.719h2.52V28.862h-2.52v12.281c-1.469-.604-2.521-2.152-2.521-3.494V26.352c0-2.864 6.883-5.021 11.344-5.021 4.463 0 11.346 2.156 11.346 5.021V37.65c0 1.342-1.053 2.89-2.521 3.494V28.862h-2.521v32.634h2.521V43.777c2.766-.634 5.041-3.269 5.041-6.128V26.352C45.865 21.096 36.684 18.82 32 18.82zm16.387 3.767c-.426 0-.889.021-1.377.066l.234 2.5c.406-.037.789-.057 1.143-.057 3.967 0 10.084 2.155 10.084 5.021v11.296c0 1.297-1.238 2.059-2.521 2.36V32.628h-2.52v28.868h2.52V46.331c2.625-.412 5.043-2.104 5.043-4.918V30.117c-.001-5.257-8.348-7.53-12.606-7.53zM32 17.565c3.652 0 6.303-2.639 6.303-6.275V8.78c0-3.637-2.65-6.276-6.303-6.276s-6.303 2.64-6.303 6.276v2.51c0 3.637 2.651 6.275 6.303 6.275zM28.219 8.78c0-2.253 1.52-3.766 3.781-3.766s3.781 1.513 3.781 3.766v2.51c0 2.252-1.52 3.767-3.781 3.767s-3.781-1.515-3.781-3.767V8.78z"/><path d="M30.74 41.413h2.521v20.083H30.74V41.413zm17.647-20.082c3.652 0 6.303-2.639 6.303-6.274v-2.511c0-3.638-2.65-6.276-6.303-6.276-3.65 0-6.303 2.639-6.303 6.276v2.511c0 3.635 2.652 6.274 6.303 6.274zm-3.782-8.785c0-2.252 1.52-3.766 3.781-3.766s3.781 1.514 3.781 3.766v2.511c0 2.252-1.52 3.764-3.781 3.764s-3.781-1.512-3.781-3.764v-2.511zM3.008 30.117v11.296c0 2.814 2.418 4.506 5.043 4.918v15.165h2.521V32.628H8.051v11.146c-1.281-.302-2.521-1.063-2.521-2.36V30.117c0-2.865 6.117-5.021 10.084-5.021.355 0 .738.02 1.145.058l.234-2.5a14.756 14.756 0 0 0-1.379-.067c-4.259 0-12.606 2.273-12.606 7.53zm12.605-8.786c3.652 0 6.303-2.639 6.303-6.274v-2.511c0-3.638-2.65-6.276-6.303-6.276S9.31 8.909 9.31 12.546v2.511c.001 3.635 2.651 6.274 6.303 6.274zm-3.781-8.785c0-2.252 1.52-3.766 3.781-3.766s3.781 1.514 3.781 3.766v2.511c0 2.252-1.52 3.764-3.781 3.764s-3.781-1.512-3.781-3.764v-2.511z"/></g></svg>