<?xml version="1.0" encoding="utf-8"?>
<svg xmlns="http://www.w3.org/2000/svg" width="64" height="64">
<g fill="#ffffff">
	<path d="M12.5,48.8H2.1v2.4h10.4c5.8,0,8.9-0.7,11.9-5l-1.9-1.4C20.1,48.2,17.9,48.8,12.5,48.8z"/>
	<path d="M63,46.3L45.4,33.7V41h-3.8c-1.5,0-3.2-0.4-5-3l-9.9-16.4c-3.6-5.9-7.5-8.1-14.2-8.1H2.1v2.4h10.4
		c5.9,0,9,1.8,12.2,7l9.9,16.4c1.9,2.8,4.1,4.1,7,4.1h6.2v-5l11.1,8L47.8,54v-5.2h-6.2c-5.4,0-9.3-2.1-12.2-6.6l-9.8-15.9
		c-1.5-2.5-3.6-3.6-7-3.6H2.1V25h10.4c2.6,0,3.9,0.7,5,2.5l9.9,16c3.4,5.2,8,7.7,14.2,7.7h3.8v7.3L63,46.3z"/>
	<path d="M40.3,14.7h6.2V9.6l10.9,8.1l-10.9,7.6v-5.1h-6.2c-2.9,0-5.2,2.4-7.1,4.7l1.8,1.5c2-2.3,3.7-3.8,5.3-3.8
		l3.8,0v7.2l17.4-12L44.2,4.9v7.4h-3.8c-6.1,0-9.3,2.4-11.8,5l1.7,1.7C32.8,16.4,35.4,14.7,40.3,14.7z"/>
	<path d="M19.2,38l0.4-1.1l-2.3-0.8l-0.3,0.7c-1.3,2-2.8,3-4.8,3H1.9v2.4h10.4C15.2,42.2,17.5,40.8,19.2,38z"/>
</g>
</svg>
