<?xml version="1.0" encoding="utf-8"?>
<svg xmlns="http://www.w3.org/2000/svg" width="64" height="64">
<g fill="#e2001a">
	<path d="M13.2,50.3h34.7V11.9H13.2V50.3L13.2,50.3z M47.9,52.9H13.2v3.2c0,1.2,0.5,2.3,1.3,3.1
		c0.8,0.8,1.9,1.3,3.1,1.3h26c1.2,0,2.3-0.5,3.1-1.3c0.8-0.8,1.3-1.9,1.3-3.1V52.9L47.9,52.9z M48.4,61c-1.3,1.3-3,2-4.9,2h-26
		c-1.9,0-3.6-0.8-4.9-2c-1.3-1.3-2-3-2-4.9V7.8c0-1.9,0.8-3.6,2-4.9c1.3-1.3,3-2,4.9-2h26c1.9,0,3.6,0.8,4.9,2v0c1.3,1.3,2,3,2,4.9
		v48.3C50.4,58,49.7,59.7,48.4,61L48.4,61z M47.9,9.4V7.8c0-1.2-0.5-2.3-1.3-3.1l0,0c-0.8-0.8-1.9-1.3-3.1-1.3h-26
		c-1.2,0-2.3,0.5-3.1,1.3c-0.8,0.8-1.3,1.9-1.3,3.1v1.5H47.9L47.9,9.4z M26.3,55.4h8.5v2.6h-8.5V55.4L26.3,55.4z"/>
	<path d="M41.7,25.8c-0.1-0.2-0.2-0.4-0.3-0.4c-0.1-0.1-0.3-0.1-0.5-0.3c-0.2-0.2-0.4-0.1-0.7-0.2
		c-0.3,0-0.6-0.1-0.9-0.1c-0.3,0-0.7-0.1-1.1,0.1c-0.4,0.1-0.9,0.2-1.3,0.2c-0.5,0.1-1,0.3-1.6,0.4c-0.6,0.2-1.2,0.3-1.9,0.6
		c-0.7,0.3-1.4,0.5-2.1,0.8c-0.8,0.4-1.6,0.7-2.4,1.1c-0.1,0,0,0.2,0,0.1c0.9-0.3,1.7-0.4,2.5-0.6c0.8-0.3,1.5-0.3,2.2-0.4
		c0.7-0.2,1.3-0.1,1.9-0.1c0.6-0.1,1.1,0,1.6,0c0.5-0.1,0.9,0.1,1.3,0.1c0.4,0,0.8,0,1.1,0.1c0.3,0.1,0.6,0.1,0.9,0.1
		c0.3,0,0.5,0.1,0.6,0.1c0.2,0,0.3,0.1,0.5,0c0.1-0.1,0.2,0,0.3-0.2c0.1-0.1,0.1-0.3,0.1-0.4c0-0.1,0-0.3,0-0.5
		C41.9,26,41.8,25.9,41.7,25.8L41.7,25.8z M28,24.2c0.2-0.3,0.5-0.6,0.7-0.9c0.2-0.3,0.4-0.5,0.7-0.8c0.2-0.2,0.4-0.5,0.6-0.8
		c0.2,0.1,0.4-0.7,0.5-0.7c0.2-0.1,0.3-0.3,0.5-0.7c0.2-0.4,0.3-0.4,0.4-0.7c0.1-0.2,0.3-0.4,0.4-0.6c0.1,0,0.2-0.4,0.4-0.6
		c0.1-0.3,0.2-0.3,0.3-0.5c0.1-0.3,0.3-0.4,0.4-0.7c0.1-0.2,0.2-0.5,0.3-0.7c0.1-0.4,0.2-0.4,0.2-0.6c0.1-0.1,0.1-0.3,0.2-0.5
		c0.1-0.2,0.1-0.5,0.1-0.8c0-0.2,0-0.5-0.1-0.5c-0.1-0.2-0.2-0.3-0.3-0.3c-0.1,0-0.2-0.2-0.4-0.2c-0.1-0.1-0.3,0.1-0.4,0
		c-0.2,0-0.3,0.1-0.5,0.1c-0.2,0.1-0.3,0.1-0.5,0.2c-0.1,0.2-0.2,0.2-0.3,0.3c-0.1,0.3-0.1,0.3-0.2,0.5c0,0.2-0.1,0.5-0.1,0.6
		c0,0.1,0,0.3-0.1,0.4c0,0,0,0.3-0.1,0.4c0,0.1-0.1,0.2-0.1,0.5c0,0.2-0.1,0.4-0.1,0.5c0,0.1-0.1,0.2-0.1,0.6
		c-0.1,0.3-0.1,0.4-0.2,0.6c-0.1,0.4-0.2,0.5-0.2,0.8c-0.1,0.2-0.2,0.4-0.3,0.7c-0.1,0.3-0.2,0.4-0.2,0.6c-0.1,0.1-0.2,0.5-0.3,0.6
		c-0.1,0.2-0.2,0.5-0.3,0.6c-0.1,0.2-0.2,0.5-0.4,0.7c-0.1,0.3-0.3,0.5-0.4,0.7c-0.1,0.2-0.3,0.5-0.4,0.8C27.8,24.3,28,24.3,28,24.2
		L28,24.2z M42.9,17.8c0-0.1-0.1-0.1-0.1-0.3c0-0.1-0.1-0.2-0.2-0.3c-0.1-0.2-0.2-0.1-0.2-0.2c-0.1-0.2-0.2,0-0.3-0.2
		c-0.1,0-0.3,0-0.4-0.1c-0.1,0-0.3,0-0.5,0c-0.2,0-0.4-0.1-0.6,0.1c-0.2,0-0.4,0.2-0.7,0.2c-0.2,0.1-0.5,0.3-0.8,0.3
		c-0.3,0-0.6,0.4-0.9,0.4c-0.3,0.2-0.7,0.4-1,0.6c-0.4,0.3-0.7,0.4-1.2,0.8c-0.4,0.3-0.8,0.6-1.3,1c-0.5,0.4-0.9,0.7-1.4,1.2
		c-0.5,0.3-1,1-1.6,1.4c-0.5,0.4-1.1,1.1-1.7,1.6c-0.6,0.6-1.2,1.2-1.9,1.9c-0.6,0.7-1.3,1.4-2,2.1c-0.1,0.1,0,0.2,0.1,0.1
		c1.4-1.1,2.7-2,3.9-2.9c0.6-0.4,1.2-0.7,1.7-1.1c0.6-0.4,1.1-0.8,1.6-1c0.5-0.2,1-0.6,1.5-0.8c0.5-0.3,0.9-0.5,1.4-0.7
		c0.4-0.3,0.9-0.5,1.2-0.6c0.4-0.1,0.8-0.3,1.1-0.5c0.4-0.2,0.7-0.4,1-0.4c0.3-0.1,0.6-0.1,0.9-0.3c0.3,0,0.5-0.2,0.7-0.3
		c0.2,0,0.4-0.1,0.6-0.3c0.2-0.2,0.3-0.2,0.5-0.3c0.1-0.1,0.2,0,0.3-0.3c0.1,0,0.2-0.3,0.2-0.3c0-0.1,0.1-0.2,0.1-0.4
		C42.9,18.2,42.9,17.9,42.9,17.8L42.9,17.8z M40.8,31.2c0-0.1-0.1-0.1-0.2-0.1c0,0-0.1,0.1-0.1,0.1c-0.1,0-0.2,0-0.3,0
		c-0.8,0-1.6,0.1-2.3,0.2c-0.8,0.1-1.6,0.2-2.4,0.2l-0.3,0.1c0-0.1,0-0.1-0.1-0.2c-0.1-0.1-0.2-0.2-0.3-0.4c-0.2-0.2-0.7-0.4-1-0.2
		c-0.4,0.1-0.2,0.6-0.5,0.9c-0.3,0.4-1.3,0.2-1.8,0.4c-0.2,0.1-0.3,0.2-0.3,0.4c-0.1,0.8,1,0.9,1.5,0.8c-0.1,0.4-1.5,4.7-1.6,4.7
		c0-0.1,0.1-0.1,0.1-0.2c-0.1,0.2-0.2,0.7-0.3,0.7c0,0,0.1-0.2,0.1-0.2c0,0-0.1,0.1-0.1,0.1c-0.1,0-0.2,0.1-0.3,0.1
		c-0.2,0-0.5,0-0.8,0.1c0,0,0,0,0,0c-0.7,0.3,0.1,1,0.6,1c-0.3,0.6-0.4,1.3-0.6,1.9c-0.1,0.3-0.2,0.6-0.4,0.9l-0.2,0.5
		c0,0-0.1,0.3-0.1,0.3l-0.1,0.3c0-0.1,0.1-0.2,0.1-0.2c-0.1,0-0.2,0.7-0.3,0.8c-0.2,0.3-0.4,0.5-0.4,0.8c-0.1,0.8,0.7,1.5,1.3,1.7
		c1.1,0.5,2.3-0.5,3.2-1.1c0.4-0.3,0.8-0.7,1.2-1c0.3-0.2,0.6-0.6,0.7-0.9c0.1-0.4,0-0.4-0.4-0.3c-0.7,0.4-1.3,0.8-2,1.1
		c-0.7,0.4-1.5,0.9-2.3,1c0-0.1,0.1-0.3,0-0.3c-0.1-0.1-0.1,0.3-0.1,0.3c0-0.3,0.2-0.6,0.3-0.9c0.2-0.5,0.3-0.9,0.5-1.4
		c0.3-0.8,0.6-1.7,0.9-2.5l0.2-0.7c0.1-0.1,0.1-0.6,0.2-0.7c0.2-0.1,0.6-0.1,0.9-0.1c0.3,0,0.4-0.2,0.7-0.2c0.3-0.1,0.7-0.1,1-0.2
		c0.2,0,0.5-0.1,0.6-0.2c0.2-0.1,0.1-0.1,0.2-0.1c0.3-0.1,0.6,0,0.9-0.2c0.1-0.1,0.2-0.3,0-0.4c0,0-0.1,0.1-0.1,0.1h-0.2
		c-0.4,0-0.8,0.1-1.2,0.1c-0.8,0.1-1.5,0.1-2.3,0.2c0.1-0.3,1.1-3,1.4-3.9c-0.2,0.4-0.4,1.1-0.7,1.7c0.2-0.5,0.3-0.9,0.5-1.4
		l0.4-0.9c0-0.1,0.2-0.8,0.3-0.8c0,0.1,0,0.1,0,0.1c0,0,0.1-0.1,0.1-0.1l0.3-0.1c0.2-0.1,0.4-0.1,0.5-0.1c0.3,0,0.7,0,1-0.2
		c0.1,0,0.1-0.1,0.3-0.1c0.1-0.1,0.3-0.1,0.4-0.1c0.4-0.1,0.7-0.2,1.1-0.2c0.3-0.1,0.7-0.1,1-0.3c0,0,0-0.1,0-0.1c0.1,0,0.1,0,0.2,0
		c0.1-0.1,0.3,0,0.5-0.1C40.1,31.6,40.8,31.5,40.8,31.2L40.8,31.2z M28.3,39.5c0.1,0.6,0,1.3-0.2,1.9c-0.7,2.1-2.6,3.5-4.5,4.4
		c-0.8,0.4-1.7,0.7-2.6,0.9c-0.5,0.1-1.1,0.1-1.6,0c-0.3,0-1-0.1-1.2-0.4c-0.2-0.2,0-0.2,0.2-0.2c0.5-0.1,1-0.2,1.5-0.3
		c1.1-0.3,2.2-0.8,3.2-1.4c0.9-0.6,1.8-1.2,2.5-2c0.3-0.4,0.7-0.8,0.9-1.3c0.1-0.2,0.3-0.9,0.2-1c0,0-0.1-0.4-0.1-0.5
		c0,0.1,0.1,0.2,0.1,0.3c0-0.2-0.1-0.4-0.1-0.6v0.1c-0.1-0.1-0.3-0.3-0.3-0.3c-0.2-0.2-0.4-0.2-0.6-0.3c-0.4-0.1-0.7,0.2-1.1,0.3
		c-0.5,0.1-1.7-0.7-1.2-1.1c0.2-0.2,0.6-0.3,0.9-0.4c0.4-0.3,0.9-0.7,1.3-1c0.4-0.4,0.8-0.9,1.1-1.3c0.1-0.1,0.7-1.1,0.7-1.1
		c0,0-0.1,0.3-0.1,0.3c0.2-0.4,0.4-0.7,0.5-1.1v0l0,0l0-0.1c0.2-0.5,0.5-1.6,0-1.7c-0.3-0.1-0.7,0.4-0.9,0.6c-1,1-1.9,2.2-2.6,3.3
		c-0.4,0.7-0.8,1.3-1.3,2c-0.2,0.4-0.6,0.7-0.8,1.2c-0.5,1.3-1.1,2.5-1.6,3.9c-0.2,0.7-0.4,1.4-0.5,2.1l-0.1-0.1
		c-0.5,0.5-1.2,0.2-1.4-0.4c-0.3-0.6-0.1-1.4-0.1-2c0-0.7,0.1-1.5,0.2-2.2c0.1-0.3,0.2-0.6,0.3-0.8c0-0.1,0.1-0.6,0.1-0.6
		c0,0,0,0,0,0.1c0,0,0-0.1,0-0.1c-0.1,0.2,0-0.3,0-0.3c0-0.2,0.1-0.4,0.2-0.6c0.1-0.4,0.2-0.7,0.2-1c0-0.1,0.5-1.7,0.7-1.7
		c0,0,0,0.1,0,0.1l0.1-0.4c-0.1,0,0.8-1.9,0.9-2c0.3-0.6,0.5-1.2,1.1-1.6c0.3-0.2,0.7-1,1.3-0.8c0.3,0.1,0.5,0.5,0.5,0.8
		c0,0.2-0.1,0.2-0.2,0.4c0,0,0.1,0,0.1,0c0,0-0.4,0.6-0.5,0.6c0,0,0.1-0.1,0.1-0.2c-0.6,0.9-1.1,1.8-1.6,2.8c0.2-0.4,0.9-1.9,1-1.9
		c-0.1,0.1-0.9,1.8-1,2c-0.3,0.7-0.6,1.4-0.8,2.1c-0.2,0.7-0.3,1.4-0.5,2.1c-0.2,0.6-0.4,1.2-0.5,1.8c0,0,0-0.1,0.1-0.1
		c0,0-0.1,0.8-0.1,0.9l-0.1,0.7c0.8-2.6,2-5,3.5-7.2c-0.6,0.8-1.1,1.7-1.6,2.5c-0.2,0.4-0.5,0.9-0.7,1.3c-0.2,0.3-0.5,0.8-0.5,1.1
		c0-0.3,0.3-0.7,0.4-0.9c0.1-0.3,0.3-0.7,0.5-1c0.3-0.6,0.6-1.2,1-1.7c0.7-1.2,1.6-2.3,2.4-3.4c0.4-0.5,0.9-1,1.4-1.5
		c0.4-0.4,0.9-0.9,1.4-1c1-0.2,1.6,0.9,1.7,1.7c0.3,2.5-1.9,5.1-4.1,6.1C26.9,37.7,28.1,38.3,28.3,39.5L28.3,39.5z"/>
</g>
</svg>
