<?xml version="1.0" encoding="utf-8"?>
<svg xmlns="http://www.w3.org/2000/svg" width="64" height="64">
<g fill="#e2001a">
	<path class="st0" d="M12.9,40.9l4.7,4.7l8.3-8.3l1.6,1.6l-9.2,9.2c-0.5,0.5-1.2,0.5-1.6,0l-5.5-5.5L12.9,40.9L12.9,40.9z
		 M19.4,27.5c-0.7,0.5-1.5,1-2.3,1.4c-1.1,0.6-2.2,1.1-3.3,1.6c-1.2,0.5-2.4,1-3.7,1.4c-1,0.3-2,0.6-3.1,0.9v12.3
		c0,1.1,0.3,2.1,0.8,3.1c0.5,1,1.3,2.1,2.4,3.1c1.1,1.1,2.5,2.2,4.1,3.4c1.5,1.1,3.3,2.2,5.1,3.3c1.9-1.1,3.6-2.2,5.1-3.3
		c1.6-1.2,3-2.3,4.1-3.4c1-1,1.8-2,2.4-3.1c0.5-1,0.8-2,0.8-3.1V32.8c-1-0.2-1.9-0.5-2.9-0.8c-1.2-0.4-2.4-0.8-3.6-1.3
		c-1.2-0.5-2.3-1-3.4-1.7C21.1,28.6,20.2,28.1,19.4,27.5L19.4,27.5z M15.9,26.9c1-0.5,1.9-1.1,2.7-1.7c0.4-0.3,1-0.3,1.4,0
		c1,0.7,2,1.3,3,1.9c1,0.6,2.1,1.1,3.2,1.5c1.1,0.5,2.2,0.9,3.4,1.2c1.1,0.4,2.3,0.7,3.5,0.9c0.6,0.1,1,0.6,1,1.2v13.2
		c0,1.5-0.3,2.8-1,4.2c-0.6,1.3-1.6,2.5-2.8,3.7c-0.2,0.2-0.4,0.4-0.6,0.6l0.4,0c0.9,0.1,1.8,0.2,2.6,0.2c0.9,0,1.7-0.1,2.6-0.2
		l0.8-0.1l0.4,0.7l1.9,3.9c0,0,0,0.1,0.1,0.1c0,0,0.1,0,0.1,0h0l8.2-3.4l0,0c0,0,0.1,0,0.1-0.1c0,0,0-0.1,0-0.1l-1.4-4.1l-0.3-0.8
		l0.6-0.5c0.7-0.5,1.3-1.1,2-1.7c0.6-0.6,1.2-1.3,1.7-2l0.5-0.6L51,45l4.1,1.4l0,0c0,0,0.1,0,0.1,0c0,0,0.1,0,0.1-0.1l0,0l3.4-8.2v0
		l0,0V38c0,0,0,0,0,0c0,0,0,0,0,0l-3.9-2L54,35.6l0.1-0.8c0.1-0.9,0.2-1.8,0.2-2.6c0-0.9-0.1-1.7-0.2-2.6L54,28.7l0.7-0.4l3.9-1.9
		c0,0,0,0,0,0h0c0,0,0,0,0,0v-0.1l0,0v0L55.3,18c0,0,0-0.1-0.1-0.1c0,0-0.1,0-0.1,0L51,19.3l-0.8,0.3l-0.5-0.6
		c-0.5-0.7-1.1-1.3-1.7-2c-0.6-0.6-1.3-1.2-2-1.7l-0.6-0.5l0.3-0.8L47,9.7c0,0,0-0.1,0-0.1c0,0,0-0.1-0.1-0.1l-8.2-3.4h0
		c0,0-0.1,0-0.1,0c0,0-0.1,0-0.1,0.1l-2,3.9l-0.4,0.7l-0.8-0.1c-0.9-0.1-1.8-0.2-2.6-0.2c-0.9,0-1.7,0.1-2.6,0.2l-0.8,0.1L29,10.1
		L27,6.2c0,0,0-0.1-0.1-0.1c0,0-0.1,0-0.1,0h0l-8.2,3.4c0,0-0.1,0-0.1,0.1c0,0,0,0.1,0,0.1l1.4,4.1l0.3,0.8l-0.6,0.5
		c-0.7,0.5-1.3,1.1-2,1.7c-0.6,0.6-1.2,1.3-1.7,2l-0.5,0.6l-0.8-0.3l-4.1-1.4c0,0-0.1,0-0.1,0c0,0-0.1,0-0.1,0.1l0,0l-3.4,8.2v0
		c0,0,0,0.1,0,0.1c0,0,0,0.1,0.1,0.1l0,0l5,2.5c0.3-0.1,0.7-0.3,1-0.4C13.9,28,15,27.5,15.9,26.9L15.9,26.9z M29,54.2
		c-0.9,0.8-1.9,1.6-3.1,2.4c-0.3,0.2-0.7,0.5-1.1,0.7l2,0.8h0c0,0,0.1,0,0.1,0c0,0,0.1,0,0.1-0.1L29,54.2L29,54.2z M22.4,58.8
		c-0.8,0.5-1.6,1-2.4,1.5l0,0c-0.4,0.2-0.8,0.2-1.2,0c-2.2-1.3-4.2-2.6-5.9-3.8c-1.7-1.2-3.2-2.4-4.4-3.6c-1.2-1.2-2.2-2.4-2.8-3.7
		c-0.7-1.3-1-2.7-1-4.2V31.9h0c0-0.5,0.4-1,0.9-1.1c1.1-0.2,2.2-0.5,3.2-0.8l-2.9-1.5v0c-0.6-0.3-1-0.8-1.2-1.3
		c-0.2-0.6-0.2-1.2,0-1.8l0,0l3.4-8.2v0c0.2-0.6,0.7-1,1.2-1.3c0.5-0.2,1.2-0.3,1.8-0.1l3.4,1.1c0.4-0.5,0.9-1,1.4-1.5
		c0.5-0.5,1-1,1.6-1.4l-1.1-3.4c-0.2-0.6-0.2-1.2,0.1-1.8c0.2-0.5,0.7-1,1.3-1.2L25.9,4l0,0c0.6-0.2,1.2-0.2,1.8,0
		c0.6,0.2,1,0.6,1.3,1.2l1.6,3.2c0.7-0.1,1.4-0.1,2.1-0.1c0.7,0,1.4,0,2.1,0.1l1.6-3.2c0.3-0.6,0.8-1,1.3-1.2c0.6-0.2,1.2-0.2,1.8,0
		l0,0l8.2,3.4c0.6,0.2,1,0.7,1.3,1.2c0.2,0.5,0.3,1.2,0.1,1.8l-1.1,3.4c0.5,0.4,1,0.9,1.5,1.4c0.5,0.5,1,1,1.4,1.5l3.4-1.1
		c0.6-0.2,1.2-0.2,1.8,0.1c0.5,0.2,1,0.7,1.2,1.3l3.4,8.2l0,0c0.1,0.1,0.1,0.3,0.1,0.4c0,0.1,0,0.3,0.1,0.4l0,0.1v0.2l0,0.1
		c0,0.4-0.2,0.8-0.4,1.2l0,0c-0.2,0.3-0.6,0.6-1,0.8L56.5,30c0.1,0.7,0.1,1.4,0.1,2.1c0,0.7,0,1.4-0.1,2.1l3.2,1.6
		c0.4,0.2,0.7,0.5,0.9,0.8c0.2,0.4,0.4,0.8,0.4,1.2l0,0.1v0.2l0,0.1c0,0.1,0,0.3-0.1,0.4c0,0.1-0.1,0.3-0.1,0.4l0,0l-3.4,8.2v0
		c-0.2,0.6-0.7,1-1.2,1.3c-0.5,0.3-1.2,0.3-1.8,0.1v0l-3.4-1.1c-0.4,0.5-0.9,1-1.4,1.5c-0.5,0.5-1,1-1.6,1.4l1.1,3.4
		c0.2,0.6,0.2,1.2-0.1,1.8c-0.3,0.5-0.7,1-1.3,1.2h0l-8.2,3.4l0,0c-0.6,0.2-1.2,0.2-1.8,0c-0.6-0.2-1-0.6-1.3-1.2l-1.6-3.2
		C34.2,56,33.5,56,32.8,56c-0.7,0-1.4,0-2.1-0.1l-1.6,3.2c-0.3,0.6-0.8,1-1.3,1.2c-0.6,0.2-1.2,0.2-1.8,0l0,0L22.4,58.8L22.4,58.8z"
		/>
</g>
</svg>
