<?xml version="1.0" encoding="utf-8"?>
<svg xmlns="http://www.w3.org/2000/svg" width="64" height="64">
<g fill="#e2001a">
	<path class="st0" d="M34.5,51.1c0.3,0,0.5,0,0.8,0c1-0.1,1.9-0.4,2.5-0.9c0.4-0.3,0.7-0.6,1-1c-0.4,0.2-0.7,0.3-1.1,0.5
		c-1,0.3-2.1,0.5-3,0.4C34.6,50.4,34.5,50.7,34.5,51.1L34.5,51.1z M26.3,35.9l-1.7,0.5l-1.1,0.3l-0.3-1.2l-0.5-1.9
		c-0.8,1.6-1.4,3.1-2.1,4.4c-1.5,3.2-2.8,6.1-4.6,9.1l11.1,11.5c2.6-2.3,4-4.4,4.8-6.9c0.9-2.9,0.9-6.3,1-11l0-0.6l0.5-0.4
		c1-0.8,1.9-1.6,2.8-2.5c0.9-0.9,1.6-1.9,2.4-3l0,0c0.4-0.5,0.7-1.1,1-1.8c0.3-0.7,0.5-1.4,0.7-2.1c0.1-0.7,0.1-1.2-0.1-1.5
		c-0.1-0.2-0.2-0.4-0.4-0.4l0,0c-0.1-0.1-0.3-0.1-0.5-0.1c-0.3,0-0.6,0.2-0.9,0.5c-1.4,1.3-2.8,2.5-4.2,3.7l0,0
		c-1.5,1.2-2.9,2.3-4.3,3.4c-2,1.6-3,2.9-3.8,4.1c-1,1.5-1.8,2.7-4.1,3.7L21,41.6c1.7-0.8,2.3-1.7,3.1-2.9
		C24.7,37.9,25.3,37,26.3,35.9L26.3,35.9z M21.7,30.3l-4.3-16.5l-0.3-1.2l1.1-0.3l34.3-9.5l1.1-0.3L54,3.6l5.6,21.8l0.3,1.2
		l-1.1,0.3l-7.2,2c0.9,1.7,1.5,3.6,1.5,5.6c0,3.1-1.2,5.9-3.2,7.9h0c-1.9,2-4.6,3.3-7.6,3.3h0c0,0.1-0.1,0.2-0.2,0.3
		c-0.1,0.2-0.2,0.4-0.4,0.6c0,0.8-0.1,1.6-0.3,2.2c-0.4,1.4-1.2,2.5-2.3,3.3c-1,0.7-2.3,1.2-3.7,1.3c-0.5,0-1.1,0-1.6,0
		c-1,2.9-2.9,5.3-6.1,7.9L26.9,62l-0.7-0.8L11.8,46.4l-4.4,4.5l8.8,9.2l-1.6,1.7L5,51.8l-0.8-0.9L5,50.1l6-6.2l0.8-0.9l0.8,0.9
		l1.6,1.7c1.6-2.8,2.8-5.4,4.2-8.4C19.4,35.1,20.4,32.8,21.7,30.3L21.7,30.3z M50.1,26.8l7-1.9L52,5.4l-32,8.9l5,19.5l5.7-1.6
		c0.4-0.3,0.9-0.7,1.3-1c0.6-1.9,1.7-3.6,3.1-4.9c-0.5-0.4-1-0.9-1.5-1.5c-0.7-1-1.3-2.1-1.6-3.4c-0.6-2.1-0.4-4.3,0.4-6
		c0.8-1.8,2.2-3.2,4-3.7c1.8-0.5,3.7,0,5.3,1.1c1.5,1.1,2.7,2.9,3.3,5c0.3,1.2,0.4,2.5,0.2,3.7c-0.1,0.8-0.3,1.5-0.6,2.2
		c1,0.2,1.9,0.6,2.8,1.1l-0.4-1.5l6.5-1.8l0.6,2.3l-5.8,1.6c0.5,0.4,1,0.8,1.5,1.3L50.1,26.8L50.1,26.8z M42.2,23.4
		c0.4-0.7,0.6-1.4,0.7-2.2c0.1-0.9,0.1-1.8-0.2-2.8c-0.4-1.6-1.3-2.9-2.4-3.7c-1-0.8-2.2-1.1-3.3-0.7c-1.1,0.3-2,1.2-2.5,2.4
		c-0.5,1.3-0.7,2.8-0.3,4.4c0.2,0.9,0.7,1.8,1.2,2.5c0.5,0.6,1,1.1,1.6,1.5C38.7,23.9,40.4,23.4,42.2,23.4L42.2,23.4z M22.8,15.5
		l4.9-1.4l0.6,2.3l-4.9,1.4L22.8,15.5L22.8,15.5z M39.8,45.4c-0.1,0-0.2,0-0.3-0.1c-0.8,0.5-1.6,1-2.5,1.2c-0.7,0.2-1.4,0.3-2,0.3
		c0,0.3,0,0.6-0.1,0.9c0.6,0,1.3-0.1,2-0.3C37.9,47,38.9,46.4,39.8,45.4L39.8,45.4L39.8,45.4z M36.7,44.1c-0.6-0.3-1.1-0.7-1.6-1.2
		c0,0.5,0,1,0,1.5c0.4,0,0.8,0,1.2-0.2C36.5,44.2,36.6,44.1,36.7,44.1L36.7,44.1z M36.2,40.6c0.7,0.7,1.4,1.3,2.3,1.8
		c1.2,0.6,2.5,0.9,3.8,0.9c2.3,0,4.4-1,6-2.6l0,0c1.5-1.6,2.5-3.8,2.5-6.2c0-2.4-0.9-4.6-2.5-6.2c-1.5-1.6-3.6-2.6-6-2.6
		c-0.8,0-1.5,0.1-2.2,0.3c0.3,0.1,0.5,0.2,0.8,0.3l0,0c0.6,0.3,1,0.9,1.3,1.5c0.4,0.8,0.5,1.8,0.2,3c-0.2,0.8-0.4,1.7-0.8,2.6
		c-0.3,0.8-0.8,1.6-1.2,2.3h0C39.6,37,38.7,38,37.8,39C37.3,39.6,36.8,40.1,36.2,40.6L36.2,40.6z M12.2,53L11,51.7l1.6-1.7l1.2,1.3
		L12.2,53L12.2,53z"/>
</g>
</svg>
