<?xml version="1.0" encoding="utf-8"?>
<svg xmlns="http://www.w3.org/2000/svg" width="64" height="64">
<g fill="#e2001a">
	<path class="st0" d="M47.7,46.2c0,0-0.1,0.1-0.1,0.1l0,0c-0.2,0.2-0.4,0.3-0.6,0.5c-1,0.6-2,0.9-3,0.7c-1-0.2-1.9-0.7-2.5-1.7
		L40.9,45c-0.4,0.7-0.8,1.4-1.2,2.1c-0.9,1.3-1.8,2.4-2.8,3.4l-1.6-1.7c0.9-0.9,1.8-1.9,2.6-3.1c0.6-0.9,1.2-1.9,1.6-3l0,0
		c-0.2-0.3-0.3-0.7-0.3-1.1l0,0c0-0.2,0-0.4,0-0.5h-4.3c-0.2,0.2-0.4,0.3-0.6,0.5c-0.1,4.6-0.2,8.1-1.1,11.1c-1,3.2-2.8,5.9-6.4,8.8
		L25.9,62l-0.7-0.8L10.8,46.4l-4.4,4.5l8.8,9.2l-1.6,1.7L4,51.8l-0.8-0.9L4,50.1l6-6.2l0.8-0.9l0.8,0.9l1.3,1.4
		c0.9-1.1,1.5-2,1.9-3.1c0.4-1.2,0.6-2.5,0.4-4.5v0c-0.1-1.5,0.1-2.7,0.6-3.7c0.4-0.9,1-1.6,1.6-2.1V18.8c0-1.4,0.5-2.6,1.4-3.5v0
		c0.9-0.9,2.1-1.5,3.4-1.5H54c1.3,0,2.5,0.6,3.4,1.5v0c0.9,0.9,1.4,2.2,1.4,3.5V36c0,1.4-0.5,2.6-1.4,3.5C56.5,40.4,55.3,41,54,41
		h-1.8l0,0.2l0,0l0,0l0,0.1l0,0l0,0c0.2,1.1,0,2.1-0.5,3c-0.5,0.9-1.4,1.5-2.5,1.8l0,0v0l-0.1,0l0,0l0,0
		C48.6,46.2,48.1,46.2,47.7,46.2L47.7,46.2z M43.2,29c0.4-0.4,0.6-1,0.6-1.6c0-0.6-0.2-1.2-0.6-1.6l1.6-1.7c0.9,0.9,1.3,2.1,1.3,3.3
		c0,1.2-0.4,2.4-1.3,3.3L43.2,29L43.2,29z M45.8,31.7c1.2-1.2,1.7-2.8,1.7-4.3c0-1.6-0.6-3.1-1.7-4.3l1.6-1.7c1.6,1.7,2.4,3.8,2.4,6
		c0,2.2-0.8,4.4-2.4,6L45.8,31.7L45.8,31.7z M48.5,34.4c1.9-1.9,2.8-4.5,2.8-7c0-2.5-0.9-5.1-2.8-7l1.6-1.7c2.3,2.4,3.5,5.6,3.5,8.7
		c0,3.2-1.2,6.3-3.5,8.7L48.5,34.4L48.5,34.4z M11.3,53L10,51.7l1.6-1.7l1.2,1.3L11.3,53L11.3,53z M37.2,38.6H54
		c0.7,0,1.3-0.3,1.8-0.8c0.5-0.5,0.7-1.1,0.7-1.8V18.8c0-0.7-0.3-1.4-0.7-1.8l0,0c-0.5-0.5-1.1-0.8-1.8-0.8H22.3
		c-0.7,0-1.3,0.3-1.8,0.8l0,0c-0.5,0.5-0.7,1.1-0.7,1.8V36c0,0.7,0.3,1.4,0.7,1.8h0c0.5,0.5,1.1,0.8,1.8,0.8h0.9
		c0.9-1.3,1.9-2.7,4.1-4.5c1.4-1.1,2.9-2.2,4.3-3.4h0c1.4-1.2,2.8-2.4,4.1-3.6c0.7-0.7,1.5-1,2.3-1.1c0.7-0.1,1.3,0.1,1.9,0.4l0,0
		c0.6,0.3,1,0.9,1.3,1.5c0.4,0.8,0.5,1.8,0.2,3c-0.2,0.8-0.4,1.7-0.8,2.6c-0.3,0.8-0.8,1.6-1.2,2.3h0C38.7,36.8,38,37.7,37.2,38.6
		L37.2,38.6z M21.3,40.9c-0.9-0.2-1.7-0.7-2.3-1.3l0,0c-0.6-0.6-1.1-1.5-1.3-2.4c0,0.1,0,0.3,0,0.4h0c0.1,2.3,0,4-0.6,5.5
		c-0.5,1.4-1.3,2.5-2.4,3.9l11.5,11.9c2.6-2.3,4-4.4,4.8-6.9c0.9-2.9,0.9-6.3,1-11l0-0.6l0.5-0.4c1-0.8,1.9-1.6,2.8-2.5
		c0.9-0.9,1.6-1.9,2.4-3l0,0c0.4-0.5,0.7-1.1,1-1.8c0.3-0.7,0.5-1.4,0.7-2.1c0.1-0.7,0.1-1.2-0.1-1.5c-0.1-0.2-0.2-0.4-0.4-0.4l0,0
		c-0.1-0.1-0.3-0.1-0.5-0.1c-0.3,0-0.6,0.2-0.9,0.5c-1.4,1.3-2.8,2.5-4.2,3.7l0,0c-1.5,1.2-2.9,2.3-4.3,3.4c-2,1.6-3,2.9-3.8,4.1
		c-1,1.5-1.8,2.7-4.1,3.7L20,41.6C20.5,41.4,20.9,41.2,21.3,40.9L21.3,40.9z M41.5,41L41.5,41c-0.1,0.1-0.1,0.2-0.1,0.3
		c0,0,0,0.1,0,0.1l0,0l0,0l0,0l0,0l2,3c0.3,0.4,0.6,0.6,0.9,0.7c0.3,0,0.6,0,1-0.2c-0.4-0.5-0.8-1.1-0.9-1.9L44,41H41.5L41.5,41z
		 M46.4,41l0.3,1.6c0.1,0.5,0.3,0.8,0.6,1c0.4,0.2,0.8,0.3,1.4,0.2l0,0l0.1,0v0c0.4-0.1,0.8-0.3,1-0.7c0.2-0.4,0.3-0.8,0.2-1.3l0,0
		l0-0.1l0,0L49.8,41H46.4L46.4,41z"/>
</g>
</svg>
