<?xml version="1.0" encoding="utf-8"?>
<svg xmlns="http://www.w3.org/2000/svg" width="64" height="64">
<g fill="#e2001a">
<path d="M67.381 28.244a4.534 4.534 0 0 0-5.903-.419l-1.936 1.451c-2.313-9.281-13.389-16.339-26.673-16.339-3.063 0-6.069.371-8.934 1.102a1.25 1.25 0 1 0 .619 2.422 33.676 33.676 0 0 1 8.315-1.024c13.578 0 24.625 7.822 24.625 17.438 0 3.784-1.798 7.343-5.343 10.577a1.261 1.261 0 0 0-.342.525s-1.619 4.821-2.595 7.773h-2.507l-1.153-3.458a1.25 1.25 0 0 0-1.63-.772c-2.961 1.129-5.875 1.355-9.617 1.355-3.396 0-8.442-.481-11.103-1.373a1.248 1.248 0 0 0-1.584.795s-.456 1.385-1.126 3.453h-2.289c-.353-3.102-1.349-6.18-1.396-6.325a1.246 1.246 0 0 0-.437-.611 18.353 18.353 0 0 0-.674-.43c-9.163-5.69-11.333-7.998-11.81-8.866-1.458-2.654-1.587-5.866-1.206-6.596h.019c2.244 0 3.964-.299 5.402-.937.342-.152.598-.449.698-.809.413-1.493 1.301-3.529 3.188-4.751a1.251 1.251 0 0 0 .391-1.695l-.264-.436c-.732-1.207-2.594-4.278-2.582-5.371 1.495-.448 8.006.039 10.795 4.267a1.25 1.25 0 1 0 2.087-1.377c-2.925-4.434-9.083-5.722-12.285-5.491-1.533.11-2.458.547-2.828 1.336-.817 1.741.479 4.275 2.354 7.4C8 22.491 7.082 24.353 6.575 25.903c-1.02.353-2.27.52-3.871.52h-.167c-.808 0-1.523.424-1.964 1.164-1.194 2.005-.365 6.424 1.126 9.137 1.072 1.952 5.221 5.153 12.681 9.786l.183.113c.317 1.062 1.115 3.945 1.248 6.445a1.25 1.25 0 0 0 1.248 1.184h4.346a1.25 1.25 0 0 0 1.189-.866c.42-1.299.778-2.399 1.028-3.163 3.03.759 7.465 1.153 10.687 1.153 3.428 0 6.375-.198 9.275-1.095l1.039 3.115c.17.51.647.854 1.186.854h4.312c.54 0 1.02-.347 1.188-.86.777-2.369 2.355-7.077 2.771-8.313 3.927-3.671 5.917-7.774 5.917-12.201 0-.266-.013-.529-.027-.792l3.012-2.259a2.025 2.025 0 0 1 2.636.188 2.02 2.02 0 0 1 .001 2.851l-.566.565a1.25 1.25 0 0 0 1.766 1.77l.567-.566a4.528 4.528 0 0 0-.005-6.389z"/>
<path d="M28.079 23h-3.188a3.254 3.254 0 0 0-3.25 3.25v3.188a3.254 3.254 0 0 0 3.25 3.25h3.188a3.254 3.254 0 0 0 3.25-3.25V26.25a3.254 3.254 0 0 0-3.25-3.25zm.75 6.438a.75.75 0 0 1-.75.75h-3.188a.75.75 0 0 1-.75-.75V26.25a.75.75 0 0 1 .75-.75h3.188a.75.75 0 0 1 .75.75v3.188zm5.75 6.874V39.5a3.254 3.254 0 0 0 3.25 3.25h3.188a3.254 3.254 0 0 0 3.25-3.25v-3.188a3.254 3.254 0 0 0-3.25-3.25h-3.188a3.254 3.254 0 0 0-3.25 3.25zm2.5 0a.75.75 0 0 1 .75-.75h3.188a.75.75 0 0 1 .75.75V39.5a.75.75 0 0 1-.75.75h-3.188a.75.75 0 0 1-.75-.75v-3.188zM26.035 42.32l11.5-20.127 2.17 1.24L28.206 43.56zm4.266-31.506A5.945 5.945 0 0 1 35.743 2.5a5.945 5.945 0 0 1 5.445 8.313l2.291 1.001a8.376 8.376 0 0 0 .702-3.375C44.181 3.785 40.396 0 35.744 0s-8.437 3.785-8.437 8.438a8.36 8.36 0 0 0 .705 3.379l2.289-1.003z"/>
</g>
</svg>