<?xml version="1.0" encoding="utf-8"?>
<svg xmlns="http://www.w3.org/2000/svg" width="64" height="64">
<g fill="#e2001a">
	<path class="st0" d="M19.4,27.4c-0.8,0.5-1.5,1-2.4,1.5c-1.1,0.6-2.2,1.2-3.4,1.7c-1.2,0.5-2.5,1-3.8,1.4c-1,0.3-2.1,0.6-3.1,0.9
		v12.5c0,1.1,0.3,2.2,0.8,3.2c0.5,1.1,1.3,2.1,2.4,3.1c1.1,1.1,2.5,2.2,4.2,3.4c1.6,1.1,3.3,2.2,5.2,3.4c1.9-1.2,3.7-2.3,5.2-3.4
		c1.7-1.2,3.1-2.3,4.2-3.4c1.1-1,1.9-2.1,2.4-3.1c0.5-1,0.8-2.1,0.8-3.2V32.8c-1-0.2-2-0.5-2.9-0.8c-1.3-0.4-2.5-0.8-3.7-1.3
		c-1.2-0.5-2.3-1.1-3.5-1.7C21.1,28.5,20.2,27.9,19.4,27.4L19.4,27.4z M28.3,4.4l3.5,2.8V2.5h2.4v4.7l3.5-2.8l1.5,1.8l-5,4v6.3
		L41,12l1.3,2l-8.1,5.3V30l9.3-5.4L44,15l2.4,0.1l-0.4,8.2l5.5-3.1l0.9-6.3l2.3,0.4L54,18.6l4.1-2.3l1.2,2l-4.1,2.3l4.2,1.6
		l-0.9,2.2l-5.9-2.3l-5.5,3.2l7.3,3.7l-1.1,2.1l-8.7-4.4l-9.3,5.4l9.3,5.4l8.7-4.4l1.1,2.1l-7.3,3.7l5.5,3.2l5.9-2.3l0.9,2.2
		l-4.2,1.6l4.1,2.3l-1.2,2L54,45.5l0.7,4.4l-2.3,0.4L51.4,44l-5.5-3.1l0.4,8.2L44,49.2l-0.5-9.7l-9.1-5.2V45l7.9,5.2l-1.3,2
		l-6.8-4.5V54l5,4l-1.5,1.8L34.2,57v4.7h-2.4V57l-3.5,2.8l-1.5-1.8l5-4v-2.2c-0.4,0.5-0.8,1-1.3,1.4c-1.2,1.2-2.7,2.4-4.5,3.7
		c-1.7,1.2-3.7,2.5-6,3.8l0,0c-0.4,0.2-0.8,0.2-1.2,0c-2.3-1.4-4.3-2.6-6-3.8c-1.8-1.2-3.3-2.5-4.5-3.7c-1.2-1.2-2.2-2.5-2.9-3.8
		c-0.7-1.3-1-2.7-1-4.2V31.8h0c0-0.5,0.4-1,0.9-1.2c1.3-0.3,2.6-0.6,3.9-1c1.2-0.4,2.4-0.8,3.5-1.3c1.1-0.5,2.2-1,3.2-1.5
		c0.9-0.5,1.8-1.1,2.7-1.7l-5.1-2.9l-5.9,2.3l-0.9-2.2l4.2-1.6l-4.1-2.3l1.2-2l4.1,2.3l-0.7-4.4l2.3-0.4l0.9,6.3l5.5,3.1l-0.4-8.2
		L22,15l0.5,9.7l9.3,5.4V19.3L23.7,14l1.3-2l6.8,4.5v-6.3l-5-4L28.3,4.4L28.3,4.4z M12.8,41l4.8,4.8l8.5-8.5l1.7,1.7l-9.3,9.3
		c-0.5,0.5-1.2,0.5-1.7,0l-5.6-5.6L12.8,41L12.8,41z"/>
</g>
</svg>
