<svg xmlns="http://www.w3.org/2000/svg" xmlns:xlink="http://www.w3.org/1999/xlink" width="600" zoomAndPan="magnify" viewBox="0 0 450 449.999984" height="600" preserveAspectRatio="xMidYMid meet" version="1.0"><defs><clipPath id="4ee36f4c99"><path d="M 0 126 L 450 126 L 450 253.464844 L 0 253.464844 Z M 0 126 " clip-rule="nonzero"/></clipPath></defs><g clip-path="url(#4ee36f4c99)"><path fill="#fafafa" d="M 35.046875 126.027344 L 66.589844 126.027344 L 31.542969 253.59375 L 0 253.59375 Z M 418.457031 126.027344 L 450 126.027344 L 414.953125 253.59375 L 383.410156 253.59375 Z M 363.785156 126.027344 L 395.328125 126.027344 L 360.28125 253.59375 L 328.738281 253.59375 Z M 309.113281 126.027344 L 340.652344 126.027344 L 305.609375 253.59375 L 274.066406 253.59375 Z M 253.738281 126.027344 L 285.980469 126.027344 L 250.933594 253.59375 L 219.390625 253.59375 Z M 199.066406 126.027344 L 230.609375 126.027344 L 196.261719 253.59375 L 164.019531 253.59375 Z M 144.390625 126.027344 L 175.933594 126.027344 L 140.886719 253.59375 L 109.347656 253.59375 Z M 89.71875 126.027344 L 121.261719 126.027344 L 86.214844 253.59375 L 54.671875 253.59375 Z M 89.71875 126.027344 " fill-opacity="1" fill-rule="evenodd"/></g></svg>