<svg xmlns="http://www.w3.org/2000/svg" xmlns:xlink="http://www.w3.org/1999/xlink" width="600" zoomAndPan="magnify" viewBox="0 0 450 449.999984" height="600" preserveAspectRatio="xMidYMid meet" version="1.0"><defs><clipPath id="aecf421cbb"><path d="M 0 436 L 12 436 L 12 448.304688 L 0 448.304688 Z M 0 436 " clip-rule="nonzero"/></clipPath><clipPath id="5fdfd74a79"><path d="M 73 436 L 85 436 L 85 448.304688 L 73 448.304688 Z M 73 436 " clip-rule="nonzero"/></clipPath><clipPath id="91881163b2"><path d="M 146 436 L 158 436 L 158 448.304688 L 146 448.304688 Z M 146 436 " clip-rule="nonzero"/></clipPath><clipPath id="d4442e78f4"><path d="M 219 436 L 231 436 L 231 448.304688 L 219 448.304688 Z M 219 436 " clip-rule="nonzero"/></clipPath><clipPath id="7d6e2a19ae"><path d="M 292 436 L 304 436 L 304 448.304688 L 292 448.304688 Z M 292 436 " clip-rule="nonzero"/></clipPath><clipPath id="50d536911a"><path d="M 365 436 L 377 436 L 377 448.304688 L 365 448.304688 Z M 365 436 " clip-rule="nonzero"/></clipPath><clipPath id="0c24d0f4d8"><path d="M 438 436 L 450 436 L 450 448.304688 L 438 448.304688 Z M 438 436 " clip-rule="nonzero"/></clipPath></defs><path fill="#fafafa" d="M 0.0703125 -0.1875 L 11.453125 -0.1875 L 11.453125 11.191406 L 0.0703125 11.191406 Z M 0.0703125 -0.1875 " fill-opacity="1" fill-rule="nonzero"/><path fill="#fafafa" d="M 0.0703125 72.636719 L 11.453125 72.636719 L 11.453125 84.015625 L 0.0703125 84.015625 Z M 0.0703125 72.636719 " fill-opacity="1" fill-rule="nonzero"/><path fill="#fafafa" d="M 0.0703125 145.457031 L 11.453125 145.457031 L 11.453125 156.839844 L 0.0703125 156.839844 Z M 0.0703125 145.457031 " fill-opacity="1" fill-rule="nonzero"/><path fill="#fafafa" d="M 0.0703125 218.285156 L 11.453125 218.285156 L 11.453125 229.664062 L 0.0703125 229.664062 Z M 0.0703125 218.285156 " fill-opacity="1" fill-rule="nonzero"/><path fill="#fafafa" d="M 0.0703125 291.105469 L 11.453125 291.105469 L 11.453125 302.484375 L 0.0703125 302.484375 Z M 0.0703125 291.105469 " fill-opacity="1" fill-rule="nonzero"/><path fill="#fafafa" d="M 0.0703125 363.929688 L 11.453125 363.929688 L 11.453125 375.308594 L 0.0703125 375.308594 Z M 0.0703125 363.929688 " fill-opacity="1" fill-rule="nonzero"/><g clip-path="url(#aecf421cbb)"><path fill="#fafafa" d="M 0.0703125 436.753906 L 11.453125 436.753906 L 11.453125 448.132812 L 0.0703125 448.132812 Z M 0.0703125 436.753906 " fill-opacity="1" fill-rule="nonzero"/></g><path fill="#fafafa" d="M 73.148438 -0.1875 L 84.527344 -0.1875 L 84.527344 11.191406 L 73.148438 11.191406 Z M 73.148438 -0.1875 " fill-opacity="1" fill-rule="nonzero"/><path fill="#fafafa" d="M 73.148438 72.636719 L 84.527344 72.636719 L 84.527344 84.015625 L 73.148438 84.015625 Z M 73.148438 72.636719 " fill-opacity="1" fill-rule="nonzero"/><path fill="#fafafa" d="M 73.148438 145.457031 L 84.527344 145.457031 L 84.527344 156.839844 L 73.148438 156.839844 Z M 73.148438 145.457031 " fill-opacity="1" fill-rule="nonzero"/><path fill="#fafafa" d="M 73.148438 218.285156 L 84.527344 218.285156 L 84.527344 229.664062 L 73.148438 229.664062 Z M 73.148438 218.285156 " fill-opacity="1" fill-rule="nonzero"/><path fill="#fafafa" d="M 73.148438 291.105469 L 84.527344 291.105469 L 84.527344 302.484375 L 73.148438 302.484375 Z M 73.148438 291.105469 " fill-opacity="1" fill-rule="nonzero"/><path fill="#fafafa" d="M 73.148438 363.929688 L 84.527344 363.929688 L 84.527344 375.308594 L 73.148438 375.308594 Z M 73.148438 363.929688 " fill-opacity="1" fill-rule="nonzero"/><g clip-path="url(#5fdfd74a79)"><path fill="#fafafa" d="M 73.148438 436.753906 L 84.527344 436.753906 L 84.527344 448.132812 L 73.148438 448.132812 Z M 73.148438 436.753906 " fill-opacity="1" fill-rule="nonzero"/></g><path fill="#fafafa" d="M 146.226562 -0.1875 L 157.605469 -0.1875 L 157.605469 11.191406 L 146.226562 11.191406 Z M 146.226562 -0.1875 " fill-opacity="1" fill-rule="nonzero"/><path fill="#fafafa" d="M 146.226562 72.636719 L 157.605469 72.636719 L 157.605469 84.015625 L 146.226562 84.015625 Z M 146.226562 72.636719 " fill-opacity="1" fill-rule="nonzero"/><path fill="#fafafa" d="M 146.226562 145.457031 L 157.605469 145.457031 L 157.605469 156.839844 L 146.226562 156.839844 Z M 146.226562 145.457031 " fill-opacity="1" fill-rule="nonzero"/><path fill="#fafafa" d="M 146.226562 218.285156 L 157.605469 218.285156 L 157.605469 229.664062 L 146.226562 229.664062 Z M 146.226562 218.285156 " fill-opacity="1" fill-rule="nonzero"/><path fill="#fafafa" d="M 146.226562 291.105469 L 157.605469 291.105469 L 157.605469 302.484375 L 146.226562 302.484375 Z M 146.226562 291.105469 " fill-opacity="1" fill-rule="nonzero"/><path fill="#fafafa" d="M 146.226562 363.929688 L 157.605469 363.929688 L 157.605469 375.308594 L 146.226562 375.308594 Z M 146.226562 363.929688 " fill-opacity="1" fill-rule="nonzero"/><g clip-path="url(#91881163b2)"><path fill="#fafafa" d="M 146.226562 436.753906 L 157.605469 436.753906 L 157.605469 448.132812 L 146.226562 448.132812 Z M 146.226562 436.753906 " fill-opacity="1" fill-rule="nonzero"/></g><path fill="#fafafa" d="M 219.304688 -0.1875 L 230.6875 -0.1875 L 230.6875 11.191406 L 219.304688 11.191406 Z M 219.304688 -0.1875 " fill-opacity="1" fill-rule="nonzero"/><path fill="#fafafa" d="M 219.304688 72.636719 L 230.6875 72.636719 L 230.6875 84.015625 L 219.304688 84.015625 Z M 219.304688 72.636719 " fill-opacity="1" fill-rule="nonzero"/><path fill="#fafafa" d="M 219.304688 145.457031 L 230.6875 145.457031 L 230.6875 156.839844 L 219.304688 156.839844 Z M 219.304688 145.457031 " fill-opacity="1" fill-rule="nonzero"/><path fill="#fafafa" d="M 219.304688 218.285156 L 230.6875 218.285156 L 230.6875 229.664062 L 219.304688 229.664062 Z M 219.304688 218.285156 " fill-opacity="1" fill-rule="nonzero"/><path fill="#fafafa" d="M 219.304688 291.105469 L 230.6875 291.105469 L 230.6875 302.484375 L 219.304688 302.484375 Z M 219.304688 291.105469 " fill-opacity="1" fill-rule="nonzero"/><path fill="#fafafa" d="M 219.304688 363.929688 L 230.6875 363.929688 L 230.6875 375.308594 L 219.304688 375.308594 Z M 219.304688 363.929688 " fill-opacity="1" fill-rule="nonzero"/><g clip-path="url(#d4442e78f4)"><path fill="#fafafa" d="M 219.304688 436.753906 L 230.6875 436.753906 L 230.6875 448.132812 L 219.304688 448.132812 Z M 219.304688 436.753906 " fill-opacity="1" fill-rule="nonzero"/></g><path fill="#fafafa" d="M 292.382812 -0.1875 L 303.761719 -0.1875 L 303.761719 11.191406 L 292.382812 11.191406 Z M 292.382812 -0.1875 " fill-opacity="1" fill-rule="nonzero"/><path fill="#fafafa" d="M 292.382812 72.636719 L 303.761719 72.636719 L 303.761719 84.015625 L 292.382812 84.015625 Z M 292.382812 72.636719 " fill-opacity="1" fill-rule="nonzero"/><path fill="#fafafa" d="M 292.382812 145.457031 L 303.761719 145.457031 L 303.761719 156.839844 L 292.382812 156.839844 Z M 292.382812 145.457031 " fill-opacity="1" fill-rule="nonzero"/><path fill="#fafafa" d="M 292.382812 218.285156 L 303.761719 218.285156 L 303.761719 229.664062 L 292.382812 229.664062 Z M 292.382812 218.285156 " fill-opacity="1" fill-rule="nonzero"/><path fill="#fafafa" d="M 292.382812 291.105469 L 303.761719 291.105469 L 303.761719 302.484375 L 292.382812 302.484375 Z M 292.382812 291.105469 " fill-opacity="1" fill-rule="nonzero"/><path fill="#fafafa" d="M 292.382812 363.929688 L 303.761719 363.929688 L 303.761719 375.308594 L 292.382812 375.308594 Z M 292.382812 363.929688 " fill-opacity="1" fill-rule="nonzero"/><g clip-path="url(#7d6e2a19ae)"><path fill="#fafafa" d="M 292.382812 436.753906 L 303.761719 436.753906 L 303.761719 448.132812 L 292.382812 448.132812 Z M 292.382812 436.753906 " fill-opacity="1" fill-rule="nonzero"/></g><path fill="#fafafa" d="M 365.460938 -0.1875 L 376.839844 -0.1875 L 376.839844 11.191406 L 365.460938 11.191406 Z M 365.460938 -0.1875 " fill-opacity="1" fill-rule="nonzero"/><path fill="#fafafa" d="M 365.460938 72.636719 L 376.839844 72.636719 L 376.839844 84.015625 L 365.460938 84.015625 Z M 365.460938 72.636719 " fill-opacity="1" fill-rule="nonzero"/><path fill="#fafafa" d="M 365.460938 145.457031 L 376.839844 145.457031 L 376.839844 156.839844 L 365.460938 156.839844 Z M 365.460938 145.457031 " fill-opacity="1" fill-rule="nonzero"/><path fill="#fafafa" d="M 365.460938 218.285156 L 376.839844 218.285156 L 376.839844 229.664062 L 365.460938 229.664062 Z M 365.460938 218.285156 " fill-opacity="1" fill-rule="nonzero"/><path fill="#fafafa" d="M 365.460938 291.105469 L 376.839844 291.105469 L 376.839844 302.484375 L 365.460938 302.484375 Z M 365.460938 291.105469 " fill-opacity="1" fill-rule="nonzero"/><path fill="#fafafa" d="M 365.460938 363.929688 L 376.839844 363.929688 L 376.839844 375.308594 L 365.460938 375.308594 Z M 365.460938 363.929688 " fill-opacity="1" fill-rule="nonzero"/><g clip-path="url(#50d536911a)"><path fill="#fafafa" d="M 365.460938 436.753906 L 376.839844 436.753906 L 376.839844 448.132812 L 365.460938 448.132812 Z M 365.460938 436.753906 " fill-opacity="1" fill-rule="nonzero"/></g><path fill="#fafafa" d="M 438.539062 -0.1875 L 449.921875 -0.1875 L 449.921875 11.191406 L 438.539062 11.191406 Z M 438.539062 -0.1875 " fill-opacity="1" fill-rule="nonzero"/><path fill="#fafafa" d="M 438.539062 72.636719 L 449.921875 72.636719 L 449.921875 84.015625 L 438.539062 84.015625 Z M 438.539062 72.636719 " fill-opacity="1" fill-rule="nonzero"/><path fill="#fafafa" d="M 438.539062 145.457031 L 449.921875 145.457031 L 449.921875 156.839844 L 438.539062 156.839844 Z M 438.539062 145.457031 " fill-opacity="1" fill-rule="nonzero"/><path fill="#fafafa" d="M 438.539062 218.285156 L 449.921875 218.285156 L 449.921875 229.664062 L 438.539062 229.664062 Z M 438.539062 218.285156 " fill-opacity="1" fill-rule="nonzero"/><path fill="#fafafa" d="M 438.539062 291.105469 L 449.921875 291.105469 L 449.921875 302.484375 L 438.539062 302.484375 Z M 438.539062 291.105469 " fill-opacity="1" fill-rule="nonzero"/><path fill="#fafafa" d="M 438.539062 363.929688 L 449.921875 363.929688 L 449.921875 375.308594 L 438.539062 375.308594 Z M 438.539062 363.929688 " fill-opacity="1" fill-rule="nonzero"/><g clip-path="url(#0c24d0f4d8)"><path fill="#fafafa" d="M 438.539062 436.753906 L 449.921875 436.753906 L 449.921875 448.132812 L 438.539062 448.132812 Z M 438.539062 436.753906 " fill-opacity="1" fill-rule="nonzero"/></g></svg>