<svg xmlns="http://www.w3.org/2000/svg" xmlns:xlink="http://www.w3.org/1999/xlink" width="600" zoomAndPan="magnify" viewBox="0 0 450 449.999984" height="600" preserveAspectRatio="xMidYMid meet" version="1.0"><defs><clipPath id="33e6c3fb7d"><path d="M 0 15.125 L 449.984375 15.125 L 449.984375 450 L 0 450 Z M 0 15.125 " clip-rule="nonzero"/></clipPath><linearGradient x1="0.00000000000162973" gradientTransform="matrix(1.700356, 0, 0, 1.700356, 0.00000815, 15.124329)" y1="0" x2="264.640621" gradientUnits="userSpaceOnUse" y2="0" id="6ad6349a0a"><stop stop-opacity="1" stop-color="rgb(0%, 0%, 0%)" offset="0"/><stop stop-opacity="1" stop-color="rgb(0.175476%, 0.175476%, 0.175476%)" offset="0.0078125"/><stop stop-opacity="1" stop-color="rgb(0.526428%, 0.526428%, 0.526428%)" offset="0.015625"/><stop stop-opacity="1" stop-color="rgb(0.878906%, 0.878906%, 0.878906%)" offset="0.0234375"/><stop stop-opacity="1" stop-color="rgb(1.231384%, 1.231384%, 1.231384%)" offset="0.03125"/><stop stop-opacity="1" stop-color="rgb(1.583862%, 1.583862%, 1.583862%)" offset="0.0390625"/><stop stop-opacity="1" stop-color="rgb(1.93634%, 1.93634%, 1.93634%)" offset="0.046875"/><stop stop-opacity="1" stop-color="rgb(2.288818%, 2.288818%, 2.288818%)" offset="0.0546875"/><stop stop-opacity="1" stop-color="rgb(2.641296%, 2.641296%, 2.641296%)" offset="0.0625"/><stop stop-opacity="1" stop-color="rgb(2.993774%, 2.993774%, 2.993774%)" offset="0.0703125"/><stop stop-opacity="1" stop-color="rgb(3.346252%, 3.346252%, 3.346252%)" offset="0.078125"/><stop stop-opacity="1" stop-color="rgb(3.69873%, 3.69873%, 3.69873%)" offset="0.0859375"/><stop stop-opacity="1" stop-color="rgb(4.051208%, 4.051208%, 4.051208%)" offset="0.09375"/><stop stop-opacity="1" stop-color="rgb(4.402161%, 4.402161%, 4.402161%)" offset="0.101562"/><stop stop-opacity="1" stop-color="rgb(4.754639%, 4.754639%, 4.754639%)" offset="0.109375"/><stop stop-opacity="1" stop-color="rgb(5.107117%, 5.107117%, 5.107117%)" offset="0.117187"/><stop stop-opacity="1" stop-color="rgb(5.459595%, 5.459595%, 5.459595%)" offset="0.125"/><stop stop-opacity="1" stop-color="rgb(5.812073%, 5.812073%, 5.812073%)" offset="0.132812"/><stop stop-opacity="1" stop-color="rgb(6.164551%, 6.164551%, 6.164551%)" offset="0.140625"/><stop stop-opacity="1" stop-color="rgb(6.517029%, 6.517029%, 6.517029%)" offset="0.148437"/><stop stop-opacity="1" stop-color="rgb(6.869507%, 6.869507%, 6.869507%)" offset="0.15625"/><stop stop-opacity="1" stop-color="rgb(7.221985%, 7.221985%, 7.221985%)" offset="0.164062"/><stop stop-opacity="1" stop-color="rgb(7.574463%, 7.574463%, 7.574463%)" offset="0.171875"/><stop stop-opacity="1" stop-color="rgb(7.926941%, 7.926941%, 7.926941%)" offset="0.179687"/><stop stop-opacity="1" stop-color="rgb(8.277893%, 8.277893%, 8.277893%)" offset="0.1875"/><stop stop-opacity="1" stop-color="rgb(8.630371%, 8.630371%, 8.630371%)" offset="0.195312"/><stop stop-opacity="1" stop-color="rgb(8.982849%, 8.982849%, 8.982849%)" offset="0.203125"/><stop stop-opacity="1" stop-color="rgb(9.335327%, 9.335327%, 9.335327%)" offset="0.210938"/><stop stop-opacity="1" stop-color="rgb(9.687805%, 9.687805%, 9.687805%)" offset="0.21875"/><stop stop-opacity="1" stop-color="rgb(10.040283%, 10.040283%, 10.040283%)" offset="0.226562"/><stop stop-opacity="1" stop-color="rgb(10.392761%, 10.392761%, 10.392761%)" offset="0.234375"/><stop stop-opacity="1" stop-color="rgb(10.745239%, 10.745239%, 10.745239%)" offset="0.242187"/><stop stop-opacity="1" stop-color="rgb(11.097717%, 11.097717%, 11.097717%)" offset="0.25"/><stop stop-opacity="1" stop-color="rgb(11.450195%, 11.450195%, 11.450195%)" offset="0.257812"/><stop stop-opacity="1" stop-color="rgb(11.802673%, 11.802673%, 11.802673%)" offset="0.265625"/><stop stop-opacity="1" stop-color="rgb(12.155151%, 12.155151%, 12.155151%)" offset="0.273438"/><stop stop-opacity="1" stop-color="rgb(12.506104%, 12.506104%, 12.506104%)" offset="0.28125"/><stop stop-opacity="1" stop-color="rgb(12.858582%, 12.858582%, 12.858582%)" offset="0.289062"/><stop stop-opacity="1" stop-color="rgb(13.21106%, 13.21106%, 13.21106%)" offset="0.296875"/><stop stop-opacity="1" stop-color="rgb(13.563538%, 13.563538%, 13.563538%)" offset="0.304688"/><stop stop-opacity="1" stop-color="rgb(13.916016%, 13.916016%, 13.916016%)" offset="0.3125"/><stop stop-opacity="1" stop-color="rgb(14.268494%, 14.268494%, 14.268494%)" offset="0.320312"/><stop stop-opacity="1" stop-color="rgb(14.620972%, 14.620972%, 14.620972%)" offset="0.328125"/><stop stop-opacity="1" stop-color="rgb(14.97345%, 14.97345%, 14.97345%)" offset="0.335937"/><stop stop-opacity="1" stop-color="rgb(15.325928%, 15.325928%, 15.325928%)" offset="0.34375"/><stop stop-opacity="1" stop-color="rgb(15.678406%, 15.678406%, 15.678406%)" offset="0.351562"/><stop stop-opacity="1" stop-color="rgb(16.030884%, 16.030884%, 16.030884%)" offset="0.359375"/><stop stop-opacity="1" stop-color="rgb(16.381836%, 16.381836%, 16.381836%)" offset="0.367188"/><stop stop-opacity="1" stop-color="rgb(16.734314%, 16.734314%, 16.734314%)" offset="0.375"/><stop stop-opacity="1" stop-color="rgb(17.086792%, 17.086792%, 17.086792%)" offset="0.382812"/><stop stop-opacity="1" stop-color="rgb(17.43927%, 17.43927%, 17.43927%)" offset="0.390625"/><stop stop-opacity="1" stop-color="rgb(17.791748%, 17.791748%, 17.791748%)" offset="0.398438"/><stop stop-opacity="1" stop-color="rgb(18.144226%, 18.144226%, 18.144226%)" offset="0.40625"/><stop stop-opacity="1" stop-color="rgb(18.496704%, 18.496704%, 18.496704%)" offset="0.414062"/><stop stop-opacity="1" stop-color="rgb(18.849182%, 18.849182%, 18.849182%)" offset="0.421875"/><stop stop-opacity="1" stop-color="rgb(19.20166%, 19.20166%, 19.20166%)" offset="0.429687"/><stop stop-opacity="1" stop-color="rgb(19.554138%, 19.554138%, 19.554138%)" offset="0.4375"/><stop stop-opacity="1" stop-color="rgb(19.906616%, 19.906616%, 19.906616%)" offset="0.445312"/><stop stop-opacity="1" stop-color="rgb(20.257568%, 20.257568%, 20.257568%)" offset="0.453125"/><stop stop-opacity="1" stop-color="rgb(20.610046%, 20.610046%, 20.610046%)" offset="0.460937"/><stop stop-opacity="1" stop-color="rgb(20.962524%, 20.962524%, 20.962524%)" offset="0.46875"/><stop stop-opacity="1" stop-color="rgb(21.315002%, 21.315002%, 21.315002%)" offset="0.476562"/><stop stop-opacity="1" stop-color="rgb(21.66748%, 21.66748%, 21.66748%)" offset="0.484375"/><stop stop-opacity="1" stop-color="rgb(22.019958%, 22.019958%, 22.019958%)" offset="0.492188"/><stop stop-opacity="1" stop-color="rgb(22.372437%, 22.372437%, 22.372437%)" offset="0.5"/><stop stop-opacity="1" stop-color="rgb(22.724915%, 22.724915%, 22.724915%)" offset="0.507812"/><stop stop-opacity="1" stop-color="rgb(23.077393%, 23.077393%, 23.077393%)" offset="0.515625"/><stop stop-opacity="1" stop-color="rgb(23.429871%, 23.429871%, 23.429871%)" offset="0.523438"/><stop stop-opacity="1" stop-color="rgb(23.782349%, 23.782349%, 23.782349%)" offset="0.53125"/><stop stop-opacity="1" stop-color="rgb(24.134827%, 24.134827%, 24.134827%)" offset="0.539062"/><stop stop-opacity="1" stop-color="rgb(24.485779%, 24.485779%, 24.485779%)" offset="0.546875"/><stop stop-opacity="1" stop-color="rgb(24.838257%, 24.838257%, 24.838257%)" offset="0.554688"/><stop stop-opacity="1" stop-color="rgb(25.190735%, 25.190735%, 25.190735%)" offset="0.5625"/><stop stop-opacity="1" stop-color="rgb(25.543213%, 25.543213%, 25.543213%)" offset="0.570312"/><stop stop-opacity="1" stop-color="rgb(25.895691%, 25.895691%, 25.895691%)" offset="0.578125"/><stop stop-opacity="1" stop-color="rgb(26.248169%, 26.248169%, 26.248169%)" offset="0.585938"/><stop stop-opacity="1" stop-color="rgb(26.600647%, 26.600647%, 26.600647%)" offset="0.59375"/><stop stop-opacity="1" stop-color="rgb(26.953125%, 26.953125%, 26.953125%)" offset="0.601562"/><stop stop-opacity="1" stop-color="rgb(27.305603%, 27.305603%, 27.305603%)" offset="0.609375"/><stop stop-opacity="1" stop-color="rgb(27.658081%, 27.658081%, 27.658081%)" offset="0.617188"/><stop stop-opacity="1" stop-color="rgb(28.010559%, 28.010559%, 28.010559%)" offset="0.625"/><stop stop-opacity="1" stop-color="rgb(28.361511%, 28.361511%, 28.361511%)" offset="0.632812"/><stop stop-opacity="1" stop-color="rgb(28.713989%, 28.713989%, 28.713989%)" offset="0.640625"/><stop stop-opacity="1" stop-color="rgb(29.066467%, 29.066467%, 29.066467%)" offset="0.648437"/><stop stop-opacity="1" stop-color="rgb(29.418945%, 29.418945%, 29.418945%)" offset="0.65625"/><stop stop-opacity="1" stop-color="rgb(29.771423%, 29.771423%, 29.771423%)" offset="0.664062"/><stop stop-opacity="1" stop-color="rgb(30.123901%, 30.123901%, 30.123901%)" offset="0.671875"/><stop stop-opacity="1" stop-color="rgb(30.476379%, 30.476379%, 30.476379%)" offset="0.679687"/><stop stop-opacity="1" stop-color="rgb(30.828857%, 30.828857%, 30.828857%)" offset="0.6875"/><stop stop-opacity="1" stop-color="rgb(31.181335%, 31.181335%, 31.181335%)" offset="0.695312"/><stop stop-opacity="1" stop-color="rgb(31.533813%, 31.533813%, 31.533813%)" offset="0.703125"/><stop stop-opacity="1" stop-color="rgb(31.886292%, 31.886292%, 31.886292%)" offset="0.710937"/><stop stop-opacity="1" stop-color="rgb(32.237244%, 32.237244%, 32.237244%)" offset="0.71875"/><stop stop-opacity="1" stop-color="rgb(32.589722%, 32.589722%, 32.589722%)" offset="0.726562"/><stop stop-opacity="1" stop-color="rgb(32.9422%, 32.9422%, 32.9422%)" offset="0.734375"/><stop stop-opacity="1" stop-color="rgb(33.294678%, 33.294678%, 33.294678%)" offset="0.742188"/><stop stop-opacity="1" stop-color="rgb(33.647156%, 33.647156%, 33.647156%)" offset="0.75"/><stop stop-opacity="1" stop-color="rgb(33.999634%, 33.999634%, 33.999634%)" offset="0.757812"/><stop stop-opacity="1" stop-color="rgb(34.352112%, 34.352112%, 34.352112%)" offset="0.765625"/><stop stop-opacity="1" stop-color="rgb(34.70459%, 34.70459%, 34.70459%)" offset="0.773438"/><stop stop-opacity="1" stop-color="rgb(35.057068%, 35.057068%, 35.057068%)" offset="0.78125"/><stop stop-opacity="1" stop-color="rgb(35.409546%, 35.409546%, 35.409546%)" offset="0.789062"/><stop stop-opacity="1" stop-color="rgb(35.762024%, 35.762024%, 35.762024%)" offset="0.796875"/><stop stop-opacity="1" stop-color="rgb(36.114502%, 36.114502%, 36.114502%)" offset="0.804688"/><stop stop-opacity="1" stop-color="rgb(36.465454%, 36.465454%, 36.465454%)" offset="0.8125"/><stop stop-opacity="1" stop-color="rgb(36.817932%, 36.817932%, 36.817932%)" offset="0.820312"/><stop stop-opacity="1" stop-color="rgb(37.17041%, 37.17041%, 37.17041%)" offset="0.828125"/><stop stop-opacity="1" stop-color="rgb(37.522888%, 37.522888%, 37.522888%)" offset="0.835938"/><stop stop-opacity="1" stop-color="rgb(37.875366%, 37.875366%, 37.875366%)" offset="0.84375"/><stop stop-opacity="1" stop-color="rgb(38.227844%, 38.227844%, 38.227844%)" offset="0.851563"/><stop stop-opacity="1" stop-color="rgb(38.580322%, 38.580322%, 38.580322%)" offset="0.859375"/><stop stop-opacity="1" stop-color="rgb(38.9328%, 38.9328%, 38.9328%)" offset="0.867188"/><stop stop-opacity="1" stop-color="rgb(39.285278%, 39.285278%, 39.285278%)" offset="0.875"/><stop stop-opacity="1" stop-color="rgb(39.637756%, 39.637756%, 39.637756%)" offset="0.882812"/><stop stop-opacity="1" stop-color="rgb(39.990234%, 39.990234%, 39.990234%)" offset="0.890625"/><stop stop-opacity="1" stop-color="rgb(40.341187%, 40.341187%, 40.341187%)" offset="0.898437"/><stop stop-opacity="1" stop-color="rgb(40.693665%, 40.693665%, 40.693665%)" offset="0.90625"/><stop stop-opacity="1" stop-color="rgb(41.046143%, 41.046143%, 41.046143%)" offset="0.914062"/><stop stop-opacity="1" stop-color="rgb(41.398621%, 41.398621%, 41.398621%)" offset="0.921875"/><stop stop-opacity="1" stop-color="rgb(41.751099%, 41.751099%, 41.751099%)" offset="0.929687"/><stop stop-opacity="1" stop-color="rgb(42.103577%, 42.103577%, 42.103577%)" offset="0.9375"/><stop stop-opacity="1" stop-color="rgb(42.456055%, 42.456055%, 42.456055%)" offset="0.945312"/><stop stop-opacity="1" stop-color="rgb(42.808533%, 42.808533%, 42.808533%)" offset="0.953125"/><stop stop-opacity="1" stop-color="rgb(43.161011%, 43.161011%, 43.161011%)" offset="0.960938"/><stop stop-opacity="1" stop-color="rgb(43.513489%, 43.513489%, 43.513489%)" offset="0.96875"/><stop stop-opacity="1" stop-color="rgb(43.865967%, 43.865967%, 43.865967%)" offset="0.976562"/><stop stop-opacity="1" stop-color="rgb(44.216919%, 44.216919%, 44.216919%)" offset="0.984375"/><stop stop-opacity="1" stop-color="rgb(44.569397%, 44.569397%, 44.569397%)" offset="0.992188"/><stop stop-opacity="1" stop-color="rgb(44.921875%, 44.921875%, 44.921875%)" offset="1"/></linearGradient><clipPath id="56a5af5b33"><path d="M 27.097656 2.398438 L 424 2.398438 L 424 425.398438 L 27.097656 425.398438 Z M 27.097656 2.398438 " clip-rule="nonzero"/></clipPath></defs><g clip-path="url(#33e6c3fb7d)"><path fill="url(#6ad6349a0a)" d="M 0 15.125 L 0 450 L 449.984375 450 L 449.984375 15.125 Z M 0 15.125 " fill-rule="nonzero"/></g><path fill="#f0f2ff" d="M 77.628906 196.128906 L 140.265625 196.128906 C 144.828125 196.128906 148.527344 192.429688 148.527344 187.867188 C 148.527344 183.308594 144.828125 179.609375 140.265625 179.609375 L 77.628906 179.609375 C 73.066406 179.609375 69.367188 183.308594 69.367188 187.867188 C 69.367188 192.429688 73.066406 196.128906 77.628906 196.128906 Z M 77.628906 196.128906 " fill-opacity="1" fill-rule="nonzero"/><path fill="#f0f2ff" d="M 77.628906 235.773438 L 145.773438 235.773438 C 150.332031 235.773438 154.03125 232.074219 154.03125 227.515625 C 154.03125 222.953125 150.332031 219.253906 145.773438 219.253906 L 77.628906 219.253906 C 73.066406 219.253906 69.367188 222.953125 69.367188 227.515625 C 69.367188 232.074219 73.066406 235.773438 77.628906 235.773438 Z M 77.628906 235.773438 " fill-opacity="1" fill-rule="nonzero"/><path fill="#f0f2ff" d="M 179.820312 235.773438 C 181.992188 235.773438 184.125 234.898438 185.660156 233.355469 C 187.195312 231.816406 188.082031 229.695312 188.082031 227.515625 C 188.082031 225.34375 187.195312 223.210938 185.660156 221.675781 C 184.125 220.140625 181.992188 219.253906 179.820312 219.253906 C 177.648438 219.253906 175.515625 220.140625 173.980469 221.675781 C 172.433594 223.210938 171.5625 225.34375 171.5625 227.515625 C 171.5625 229.695312 172.433594 231.816406 173.980469 233.355469 C 175.515625 234.898438 177.640625 235.773438 179.820312 235.773438 Z M 179.820312 235.773438 " fill-opacity="1" fill-rule="nonzero"/><path fill="#ef0b0d" d="M 256.742188 182.464844 C 296.824219 182.464844 329.429688 149.859375 329.429688 109.777344 C 329.429688 69.699219 296.824219 37.089844 256.742188 37.089844 C 216.664062 37.089844 184.054688 69.699219 184.054688 109.777344 C 184.054688 149.859375 216.664062 182.464844 256.742188 182.464844 Z M 256.742188 53.609375 C 287.710938 53.609375 312.910156 78.804688 312.910156 109.777344 C 312.910156 140.746094 287.710938 165.945312 256.742188 165.945312 C 225.773438 165.945312 200.574219 140.746094 200.574219 109.777344 C 200.574219 78.804688 225.773438 53.609375 256.742188 53.609375 Z M 256.742188 53.609375 " fill-opacity="1" fill-rule="nonzero"/><g clip-path="url(#56a5af5b33)"><path fill="#f0f2ff" d="M 415.394531 228.816406 L 405.40625 218.828125 L 405.40625 106.457031 C 405.40625 83.683594 386.878906 65.15625 364.105469 65.15625 L 354.40625 65.15625 C 337.433594 28.15625 300.046875 2.398438 256.746094 2.398438 C 213.453125 2.398438 176.058594 28.15625 159.089844 65.15625 L 68.402344 65.15625 C 45.625 65.15625 27.097656 83.683594 27.097656 106.457031 L 27.097656 314.605469 C 27.097656 337.378906 45.625 355.90625 68.402344 355.90625 L 174.925781 355.90625 L 174.925781 375.75 C 152.519531 376.183594 134.429688 394.527344 134.429688 417.03125 C 134.429688 421.59375 138.128906 425.289062 142.6875 425.289062 L 289.757812 425.289062 C 294.316406 425.289062 298.015625 421.59375 298.015625 417.03125 C 298.015625 394.527344 279.925781 376.183594 257.523438 375.75 L 257.523438 355.90625 L 364.105469 355.90625 C 386.882812 355.90625 405.40625 337.378906 405.40625 314.605469 L 405.40625 274.859375 C 409.109375 273.476562 412.511719 271.308594 415.394531 268.425781 C 426.3125 257.503906 426.3125 239.738281 415.394531 228.816406 Z M 364.105469 81.675781 C 377.769531 81.675781 388.886719 92.792969 388.886719 106.457031 L 388.886719 202.308594 L 349.835938 163.257812 C 358.925781 147.503906 364.128906 129.238281 364.128906 109.777344 C 364.128906 100.058594 362.820312 90.636719 360.390625 81.675781 Z M 256.746094 18.917969 C 306.847656 18.917969 347.605469 59.675781 347.605469 109.777344 C 347.605469 159.875 306.847656 200.636719 256.746094 200.636719 C 206.648438 200.636719 165.886719 159.875 165.886719 109.777344 C 165.886719 59.675781 206.648438 18.917969 256.746094 18.917969 Z M 68.402344 81.675781 L 153.105469 81.675781 C 150.675781 90.636719 149.367188 100.058594 149.367188 109.777344 C 149.367188 120.253906 150.882812 130.378906 153.695312 139.960938 L 77.617188 139.960938 C 73.054688 139.960938 69.355469 143.660156 69.355469 148.222656 C 69.355469 152.78125 73.054688 156.480469 77.617188 156.480469 L 160.066406 156.480469 C 177.46875 192.359375 214.265625 217.15625 256.746094 217.15625 C 276.203125 217.15625 294.46875 211.953125 310.226562 202.867188 L 375.78125 268.425781 C 379.453125 272.097656 383.96875 274.621094 388.886719 275.824219 L 388.886719 283.21875 L 43.617188 283.21875 L 43.617188 106.457031 C 43.617188 92.792969 54.738281 81.675781 68.402344 81.675781 Z M 280.082031 408.773438 L 152.367188 408.773438 C 155.773438 399.152344 164.960938 392.25 175.730469 392.25 L 256.714844 392.25 C 267.484375 392.25 276.671875 399.152344 280.082031 408.773438 Z M 241.003906 375.730469 L 191.445312 375.730469 L 191.445312 355.90625 L 241.003906 355.90625 Z M 364.105469 339.386719 L 68.402344 339.386719 C 54.738281 339.386719 43.617188 328.269531 43.617188 314.605469 L 43.617188 299.738281 L 388.886719 299.738281 L 388.886719 314.605469 C 388.886719 328.269531 377.769531 339.386719 364.105469 339.386719 Z M 403.710938 256.742188 C 399.230469 261.222656 391.941406 261.222656 387.460938 256.742188 L 324.078125 193.355469 C 330.054688 188.535156 335.503906 183.085938 340.324219 177.113281 L 403.710938 240.496094 C 408.1875 244.976562 408.1875 252.265625 403.710938 256.742188 Z M 403.710938 256.742188 " fill-opacity="1" fill-rule="nonzero"/></g><path fill="#ef0b0d" d="M 256.738281 89.144531 C 268.125 89.144531 277.386719 98.40625 277.386719 109.789062 C 277.386719 114.351562 281.085938 118.050781 285.648438 118.050781 C 290.210938 118.050781 293.90625 114.351562 293.90625 109.789062 C 293.90625 89.296875 277.234375 72.625 256.738281 72.625 C 252.175781 72.625 248.480469 76.324219 248.480469 80.886719 C 248.480469 85.445312 252.175781 89.144531 256.738281 89.144531 Z M 256.738281 89.144531 " fill-opacity="1" fill-rule="nonzero"/></svg>