<svg xmlns="http://www.w3.org/2000/svg" xmlns:xlink="http://www.w3.org/1999/xlink" width="600" zoomAndPan="magnify" viewBox="0 0 450 449.999984" height="600" preserveAspectRatio="xMidYMid meet" version="1.0"><defs><clipPath id="3e9349b755"><path d="M 0 3.710938 L 449.984375 3.710938 L 449.984375 439 L 0 439 Z M 0 3.710938 " clip-rule="nonzero"/></clipPath><linearGradient x1="-0" gradientTransform="matrix(1.700356, 0, 0, 1.700356, 0.00000815, 3.70947)" y1="0" x2="264.640621" gradientUnits="userSpaceOnUse" y2="0" id="ff5ff3982f"><stop stop-opacity="1" stop-color="rgb(0%, 0%, 0%)" offset="0"/><stop stop-opacity="1" stop-color="rgb(0.175476%, 0.175476%, 0.175476%)" offset="0.0078125"/><stop stop-opacity="1" stop-color="rgb(0.526428%, 0.526428%, 0.526428%)" offset="0.015625"/><stop stop-opacity="1" stop-color="rgb(0.878906%, 0.878906%, 0.878906%)" offset="0.0234375"/><stop stop-opacity="1" stop-color="rgb(1.231384%, 1.231384%, 1.231384%)" offset="0.03125"/><stop stop-opacity="1" stop-color="rgb(1.583862%, 1.583862%, 1.583862%)" offset="0.0390625"/><stop stop-opacity="1" stop-color="rgb(1.93634%, 1.93634%, 1.93634%)" offset="0.046875"/><stop stop-opacity="1" stop-color="rgb(2.288818%, 2.288818%, 2.288818%)" offset="0.0546875"/><stop stop-opacity="1" stop-color="rgb(2.641296%, 2.641296%, 2.641296%)" offset="0.0625"/><stop stop-opacity="1" stop-color="rgb(2.993774%, 2.993774%, 2.993774%)" offset="0.0703125"/><stop stop-opacity="1" stop-color="rgb(3.346252%, 3.346252%, 3.346252%)" offset="0.078125"/><stop stop-opacity="1" stop-color="rgb(3.69873%, 3.69873%, 3.69873%)" offset="0.0859375"/><stop stop-opacity="1" stop-color="rgb(4.051208%, 4.051208%, 4.051208%)" offset="0.09375"/><stop stop-opacity="1" stop-color="rgb(4.402161%, 4.402161%, 4.402161%)" offset="0.101562"/><stop stop-opacity="1" stop-color="rgb(4.754639%, 4.754639%, 4.754639%)" offset="0.109375"/><stop stop-opacity="1" stop-color="rgb(5.107117%, 5.107117%, 5.107117%)" offset="0.117188"/><stop stop-opacity="1" stop-color="rgb(5.459595%, 5.459595%, 5.459595%)" offset="0.125"/><stop stop-opacity="1" stop-color="rgb(5.812073%, 5.812073%, 5.812073%)" offset="0.132812"/><stop stop-opacity="1" stop-color="rgb(6.164551%, 6.164551%, 6.164551%)" offset="0.140625"/><stop stop-opacity="1" stop-color="rgb(6.517029%, 6.517029%, 6.517029%)" offset="0.148438"/><stop stop-opacity="1" stop-color="rgb(6.869507%, 6.869507%, 6.869507%)" offset="0.15625"/><stop stop-opacity="1" stop-color="rgb(7.221985%, 7.221985%, 7.221985%)" offset="0.164062"/><stop stop-opacity="1" stop-color="rgb(7.574463%, 7.574463%, 7.574463%)" offset="0.171875"/><stop stop-opacity="1" stop-color="rgb(7.926941%, 7.926941%, 7.926941%)" offset="0.179687"/><stop stop-opacity="1" stop-color="rgb(8.277893%, 8.277893%, 8.277893%)" offset="0.1875"/><stop stop-opacity="1" stop-color="rgb(8.630371%, 8.630371%, 8.630371%)" offset="0.195312"/><stop stop-opacity="1" stop-color="rgb(8.982849%, 8.982849%, 8.982849%)" offset="0.203125"/><stop stop-opacity="1" stop-color="rgb(9.335327%, 9.335327%, 9.335327%)" offset="0.210937"/><stop stop-opacity="1" stop-color="rgb(9.687805%, 9.687805%, 9.687805%)" offset="0.21875"/><stop stop-opacity="1" stop-color="rgb(10.040283%, 10.040283%, 10.040283%)" offset="0.226562"/><stop stop-opacity="1" stop-color="rgb(10.392761%, 10.392761%, 10.392761%)" offset="0.234375"/><stop stop-opacity="1" stop-color="rgb(10.745239%, 10.745239%, 10.745239%)" offset="0.242187"/><stop stop-opacity="1" stop-color="rgb(11.097717%, 11.097717%, 11.097717%)" offset="0.25"/><stop stop-opacity="1" stop-color="rgb(11.450195%, 11.450195%, 11.450195%)" offset="0.257812"/><stop stop-opacity="1" stop-color="rgb(11.802673%, 11.802673%, 11.802673%)" offset="0.265625"/><stop stop-opacity="1" stop-color="rgb(12.155151%, 12.155151%, 12.155151%)" offset="0.273438"/><stop stop-opacity="1" stop-color="rgb(12.506104%, 12.506104%, 12.506104%)" offset="0.28125"/><stop stop-opacity="1" stop-color="rgb(12.858582%, 12.858582%, 12.858582%)" offset="0.289062"/><stop stop-opacity="1" stop-color="rgb(13.21106%, 13.21106%, 13.21106%)" offset="0.296875"/><stop stop-opacity="1" stop-color="rgb(13.563538%, 13.563538%, 13.563538%)" offset="0.304688"/><stop stop-opacity="1" stop-color="rgb(13.916016%, 13.916016%, 13.916016%)" offset="0.3125"/><stop stop-opacity="1" stop-color="rgb(14.268494%, 14.268494%, 14.268494%)" offset="0.320312"/><stop stop-opacity="1" stop-color="rgb(14.620972%, 14.620972%, 14.620972%)" offset="0.328125"/><stop stop-opacity="1" stop-color="rgb(14.97345%, 14.97345%, 14.97345%)" offset="0.335937"/><stop stop-opacity="1" stop-color="rgb(15.325928%, 15.325928%, 15.325928%)" offset="0.34375"/><stop stop-opacity="1" stop-color="rgb(15.678406%, 15.678406%, 15.678406%)" offset="0.351562"/><stop stop-opacity="1" stop-color="rgb(16.030884%, 16.030884%, 16.030884%)" offset="0.359375"/><stop stop-opacity="1" stop-color="rgb(16.381836%, 16.381836%, 16.381836%)" offset="0.367187"/><stop stop-opacity="1" stop-color="rgb(16.734314%, 16.734314%, 16.734314%)" offset="0.375"/><stop stop-opacity="1" stop-color="rgb(17.086792%, 17.086792%, 17.086792%)" offset="0.382812"/><stop stop-opacity="1" stop-color="rgb(17.43927%, 17.43927%, 17.43927%)" offset="0.390625"/><stop stop-opacity="1" stop-color="rgb(17.791748%, 17.791748%, 17.791748%)" offset="0.398437"/><stop stop-opacity="1" stop-color="rgb(18.144226%, 18.144226%, 18.144226%)" offset="0.40625"/><stop stop-opacity="1" stop-color="rgb(18.496704%, 18.496704%, 18.496704%)" offset="0.414062"/><stop stop-opacity="1" stop-color="rgb(18.849182%, 18.849182%, 18.849182%)" offset="0.421875"/><stop stop-opacity="1" stop-color="rgb(19.20166%, 19.20166%, 19.20166%)" offset="0.429687"/><stop stop-opacity="1" stop-color="rgb(19.554138%, 19.554138%, 19.554138%)" offset="0.4375"/><stop stop-opacity="1" stop-color="rgb(19.906616%, 19.906616%, 19.906616%)" offset="0.445312"/><stop stop-opacity="1" stop-color="rgb(20.257568%, 20.257568%, 20.257568%)" offset="0.453125"/><stop stop-opacity="1" stop-color="rgb(20.610046%, 20.610046%, 20.610046%)" offset="0.460938"/><stop stop-opacity="1" stop-color="rgb(20.962524%, 20.962524%, 20.962524%)" offset="0.46875"/><stop stop-opacity="1" stop-color="rgb(21.315002%, 21.315002%, 21.315002%)" offset="0.476562"/><stop stop-opacity="1" stop-color="rgb(21.66748%, 21.66748%, 21.66748%)" offset="0.484375"/><stop stop-opacity="1" stop-color="rgb(22.019958%, 22.019958%, 22.019958%)" offset="0.492188"/><stop stop-opacity="1" stop-color="rgb(22.372437%, 22.372437%, 22.372437%)" offset="0.5"/><stop stop-opacity="1" stop-color="rgb(22.724915%, 22.724915%, 22.724915%)" offset="0.507812"/><stop stop-opacity="1" stop-color="rgb(23.077393%, 23.077393%, 23.077393%)" offset="0.515625"/><stop stop-opacity="1" stop-color="rgb(23.429871%, 23.429871%, 23.429871%)" offset="0.523438"/><stop stop-opacity="1" stop-color="rgb(23.782349%, 23.782349%, 23.782349%)" offset="0.53125"/><stop stop-opacity="1" stop-color="rgb(24.134827%, 24.134827%, 24.134827%)" offset="0.539062"/><stop stop-opacity="1" stop-color="rgb(24.485779%, 24.485779%, 24.485779%)" offset="0.546875"/><stop stop-opacity="1" stop-color="rgb(24.838257%, 24.838257%, 24.838257%)" offset="0.554687"/><stop stop-opacity="1" stop-color="rgb(25.190735%, 25.190735%, 25.190735%)" offset="0.5625"/><stop stop-opacity="1" stop-color="rgb(25.543213%, 25.543213%, 25.543213%)" offset="0.570312"/><stop stop-opacity="1" stop-color="rgb(25.895691%, 25.895691%, 25.895691%)" offset="0.578125"/><stop stop-opacity="1" stop-color="rgb(26.248169%, 26.248169%, 26.248169%)" offset="0.585938"/><stop stop-opacity="1" stop-color="rgb(26.600647%, 26.600647%, 26.600647%)" offset="0.59375"/><stop stop-opacity="1" stop-color="rgb(26.953125%, 26.953125%, 26.953125%)" offset="0.601562"/><stop stop-opacity="1" stop-color="rgb(27.305603%, 27.305603%, 27.305603%)" offset="0.609375"/><stop stop-opacity="1" stop-color="rgb(27.658081%, 27.658081%, 27.658081%)" offset="0.617188"/><stop stop-opacity="1" stop-color="rgb(28.010559%, 28.010559%, 28.010559%)" offset="0.625"/><stop stop-opacity="1" stop-color="rgb(28.361511%, 28.361511%, 28.361511%)" offset="0.632812"/><stop stop-opacity="1" stop-color="rgb(28.713989%, 28.713989%, 28.713989%)" offset="0.640625"/><stop stop-opacity="1" stop-color="rgb(29.066467%, 29.066467%, 29.066467%)" offset="0.648437"/><stop stop-opacity="1" stop-color="rgb(29.418945%, 29.418945%, 29.418945%)" offset="0.65625"/><stop stop-opacity="1" stop-color="rgb(29.771423%, 29.771423%, 29.771423%)" offset="0.664062"/><stop stop-opacity="1" stop-color="rgb(30.123901%, 30.123901%, 30.123901%)" offset="0.671875"/><stop stop-opacity="1" stop-color="rgb(30.476379%, 30.476379%, 30.476379%)" offset="0.679688"/><stop stop-opacity="1" stop-color="rgb(30.828857%, 30.828857%, 30.828857%)" offset="0.6875"/><stop stop-opacity="1" stop-color="rgb(31.181335%, 31.181335%, 31.181335%)" offset="0.695312"/><stop stop-opacity="1" stop-color="rgb(31.533813%, 31.533813%, 31.533813%)" offset="0.703125"/><stop stop-opacity="1" stop-color="rgb(31.886292%, 31.886292%, 31.886292%)" offset="0.710937"/><stop stop-opacity="1" stop-color="rgb(32.237244%, 32.237244%, 32.237244%)" offset="0.71875"/><stop stop-opacity="1" stop-color="rgb(32.589722%, 32.589722%, 32.589722%)" offset="0.726562"/><stop stop-opacity="1" stop-color="rgb(32.9422%, 32.9422%, 32.9422%)" offset="0.734375"/><stop stop-opacity="1" stop-color="rgb(33.294678%, 33.294678%, 33.294678%)" offset="0.742187"/><stop stop-opacity="1" stop-color="rgb(33.647156%, 33.647156%, 33.647156%)" offset="0.75"/><stop stop-opacity="1" stop-color="rgb(33.999634%, 33.999634%, 33.999634%)" offset="0.757812"/><stop stop-opacity="1" stop-color="rgb(34.352112%, 34.352112%, 34.352112%)" offset="0.765625"/><stop stop-opacity="1" stop-color="rgb(34.70459%, 34.70459%, 34.70459%)" offset="0.773437"/><stop stop-opacity="1" stop-color="rgb(35.057068%, 35.057068%, 35.057068%)" offset="0.78125"/><stop stop-opacity="1" stop-color="rgb(35.409546%, 35.409546%, 35.409546%)" offset="0.789062"/><stop stop-opacity="1" stop-color="rgb(35.762024%, 35.762024%, 35.762024%)" offset="0.796875"/><stop stop-opacity="1" stop-color="rgb(36.114502%, 36.114502%, 36.114502%)" offset="0.804688"/><stop stop-opacity="1" stop-color="rgb(36.465454%, 36.465454%, 36.465454%)" offset="0.8125"/><stop stop-opacity="1" stop-color="rgb(36.817932%, 36.817932%, 36.817932%)" offset="0.820312"/><stop stop-opacity="1" stop-color="rgb(37.17041%, 37.17041%, 37.17041%)" offset="0.828125"/><stop stop-opacity="1" stop-color="rgb(37.522888%, 37.522888%, 37.522888%)" offset="0.835938"/><stop stop-opacity="1" stop-color="rgb(37.875366%, 37.875366%, 37.875366%)" offset="0.84375"/><stop stop-opacity="1" stop-color="rgb(38.227844%, 38.227844%, 38.227844%)" offset="0.851562"/><stop stop-opacity="1" stop-color="rgb(38.580322%, 38.580322%, 38.580322%)" offset="0.859375"/><stop stop-opacity="1" stop-color="rgb(38.9328%, 38.9328%, 38.9328%)" offset="0.867187"/><stop stop-opacity="1" stop-color="rgb(39.285278%, 39.285278%, 39.285278%)" offset="0.875"/><stop stop-opacity="1" stop-color="rgb(39.637756%, 39.637756%, 39.637756%)" offset="0.882812"/><stop stop-opacity="1" stop-color="rgb(39.990234%, 39.990234%, 39.990234%)" offset="0.890625"/><stop stop-opacity="1" stop-color="rgb(40.341187%, 40.341187%, 40.341187%)" offset="0.898438"/><stop stop-opacity="1" stop-color="rgb(40.693665%, 40.693665%, 40.693665%)" offset="0.90625"/><stop stop-opacity="1" stop-color="rgb(41.046143%, 41.046143%, 41.046143%)" offset="0.914062"/><stop stop-opacity="1" stop-color="rgb(41.398621%, 41.398621%, 41.398621%)" offset="0.921875"/><stop stop-opacity="1" stop-color="rgb(41.751099%, 41.751099%, 41.751099%)" offset="0.929688"/><stop stop-opacity="1" stop-color="rgb(42.103577%, 42.103577%, 42.103577%)" offset="0.9375"/><stop stop-opacity="1" stop-color="rgb(42.456055%, 42.456055%, 42.456055%)" offset="0.945312"/><stop stop-opacity="1" stop-color="rgb(42.808533%, 42.808533%, 42.808533%)" offset="0.953125"/><stop stop-opacity="1" stop-color="rgb(43.161011%, 43.161011%, 43.161011%)" offset="0.960938"/><stop stop-opacity="1" stop-color="rgb(43.513489%, 43.513489%, 43.513489%)" offset="0.96875"/><stop stop-opacity="1" stop-color="rgb(43.865967%, 43.865967%, 43.865967%)" offset="0.976562"/><stop stop-opacity="1" stop-color="rgb(44.216919%, 44.216919%, 44.216919%)" offset="0.984375"/><stop stop-opacity="1" stop-color="rgb(44.569397%, 44.569397%, 44.569397%)" offset="0.992187"/><stop stop-opacity="1" stop-color="rgb(44.921875%, 44.921875%, 44.921875%)" offset="1"/></linearGradient></defs><g clip-path="url(#3e9349b755)"><path fill="url(#ff5ff3982f)" d="M 0 3.710938 L 0 439 L 449.984375 439 L 449.984375 3.710938 Z M 0 3.710938 " fill-rule="nonzero"/></g><path fill="#ef0b0d" d="M 305.707031 136.363281 C 300.855469 136.363281 296.917969 140.289062 296.917969 145.148438 C 296.917969 150.003906 300.855469 153.9375 305.707031 153.9375 C 310.566406 153.9375 314.496094 150.003906 314.496094 145.148438 C 314.496094 140.289062 310.566406 136.363281 305.707031 136.363281 Z M 305.707031 136.363281 " fill-opacity="1" fill-rule="nonzero"/><path fill="#ef0b0d" d="M 146.007812 296.058594 C 141.148438 296.058594 137.21875 299.996094 137.21875 304.847656 C 137.21875 309.710938 141.148438 313.636719 146.007812 313.636719 C 150.859375 313.636719 154.796875 309.710938 154.796875 304.847656 C 154.796875 299.996094 150.859375 296.058594 146.007812 296.058594 Z M 146.007812 296.058594 " fill-opacity="1" fill-rule="nonzero"/><path fill="#f0f2ff" d="M 439.921875 54.070312 C 436.957031 53.378906 433.839844 54.277344 431.695312 56.441406 L 395.257812 93.164062 L 377.789062 93.164062 L 358.5625 73.242188 L 358.5625 55.53125 L 394.476562 19.078125 C 396.601562 16.921875 397.46875 13.824219 396.761719 10.875 C 396.0625 7.929688 393.894531 5.550781 391.023438 4.585938 C 382 1.542969 372.558594 0 362.957031 0 C 334.328125 0 308.324219 13.347656 291.601562 36.625 C 275.953125 58.410156 271.128906 85.109375 278.042969 110.664062 L 213.300781 175.40625 L 105.445312 67.300781 L 105.445312 46.082031 C 105.445312 42.996094 103.824219 40.132812 101.175781 38.546875 L 39.03125 1.253906 C 35.570312 -0.824219 31.144531 -0.277344 28.296875 2.574219 L 3.4375 27.429688 C 0.589844 30.28125 0.0429688 34.707031 2.117188 38.167969 L 39.402344 100.3125 C 40.988281 102.960938 43.847656 104.578125 46.933594 104.582031 L 68.144531 104.585938 L 176.011719 212.691406 L 111.519531 277.1875 C 85.96875 270.277344 59.253906 275.109375 37.457031 290.769531 C 14.195312 307.476562 0.855469 333.476562 0.855469 362.101562 C 0.855469 371.703125 2.398438 381.148438 5.441406 390.167969 C 6.410156 393.054688 8.8125 395.234375 11.777344 395.921875 C 14.746094 396.609375 17.863281 395.714844 20.007812 393.550781 L 56.441406 356.828125 L 74.003906 356.828125 L 94.015625 376.84375 L 94.015625 394.40625 L 57.296875 430.839844 C 55.132812 432.984375 54.238281 436.097656 54.925781 439.070312 C 55.613281 442.035156 57.792969 444.4375 60.679688 445.40625 C 69.699219 448.449219 79.144531 449.992188 88.742188 449.992188 C 117.371094 449.992188 143.367188 436.648438 160.078125 413.390625 C 175.738281 391.589844 180.570312 364.878906 173.660156 339.328125 L 225.457031 287.53125 L 237.324219 300.417969 L 231.878906 305.859375 C 228.445312 309.292969 228.445312 314.859375 231.878906 318.292969 C 235.3125 321.722656 240.875 321.722656 244.3125 318.292969 L 249.242188 313.363281 L 360.566406 434.285156 C 360.648438 434.375 360.734375 434.460938 360.820312 434.546875 C 381.421875 455.148438 414.792969 455.152344 435.402344 434.542969 C 455.957031 413.984375 455.957031 380.527344 435.402344 359.964844 C 435.316406 359.875 435.222656 359.789062 435.128906 359.703125 L 314.015625 248.589844 L 318.890625 243.714844 C 322.324219 240.285156 322.324219 234.71875 318.890625 231.285156 C 315.457031 227.855469 309.894531 227.855469 306.460938 231.285156 L 301.050781 236.699219 L 288.140625 224.847656 L 340.1875 172.800781 C 347.585938 174.777344 355.222656 175.777344 362.957031 175.777344 C 411.417969 175.777344 450.84375 136.351562 450.84375 87.890625 C 450.84375 78.289062 449.300781 68.847656 446.261719 59.824219 C 445.289062 56.9375 442.886719 54.757812 439.921875 54.070312 Z M 78.011719 89.589844 C 76.363281 87.941406 74.128906 87.097656 71.792969 87.097656 L 51.914062 87.089844 L 20.722656 35.007812 L 35.871094 19.859375 L 87.867188 51.058594 L 87.867188 70.9375 C 87.867188 73.265625 88.789062 75.496094 90.433594 77.144531 L 200.875 187.835938 L 188.441406 200.265625 Z M 301.574219 261.03125 L 423.097656 372.519531 C 436.675781 386.238281 436.632812 408.453125 422.972656 422.121094 C 409.28125 435.8125 387.117188 435.851562 373.367188 422.238281 L 261.679688 300.921875 Z M 288.609375 249.136719 L 249.761719 287.976562 L 237.898438 275.089844 L 275.695312 237.285156 Z M 362.957031 158.199219 C 355.269531 158.199219 347.707031 156.96875 340.492188 154.539062 C 337.332031 153.476562 333.835938 154.292969 331.472656 156.652344 C 287.410156 200.714844 192.46875 295.652344 157.507812 330.617188 C 155.144531 332.980469 154.324219 336.472656 155.394531 339.640625 C 162.699219 361.335938 159.203125 384.472656 145.800781 403.132812 C 132.4375 421.738281 111.636719 432.414062 88.742188 432.414062 C 86.171875 432.414062 83.613281 432.273438 81.082031 432 L 108.996094 404.300781 C 110.660156 402.652344 111.59375 400.40625 111.59375 398.0625 L 111.59375 373.199219 C 111.59375 370.867188 110.667969 368.632812 109.019531 366.984375 L 83.859375 341.824219 C 82.210938 340.175781 79.976562 339.25 77.644531 339.25 L 52.78125 339.25 C 50.4375 339.25 48.191406 340.1875 46.539062 341.847656 L 18.84375 369.761719 C 18.570312 367.230469 18.429688 364.671875 18.429688 362.101562 C 18.429688 339.203125 29.101562 318.410156 47.710938 305.042969 C 66.367188 291.640625 89.507812 288.140625 111.207031 295.449219 C 114.371094 296.519531 117.863281 295.699219 120.226562 293.335938 C 120.710938 292.855469 294.066406 119.492188 294.191406 119.371094 C 296.554688 117.007812 297.371094 113.515625 296.308594 110.351562 C 288.996094 88.65625 292.484375 65.523438 305.878906 46.878906 C 319.253906 28.257812 340.054688 17.578125 362.953125 17.578125 C 365.601562 17.578125 368.234375 17.726562 370.84375 18.015625 L 343.511719 45.757812 C 341.890625 47.402344 340.984375 49.617188 340.984375 51.925781 L 340.984375 76.789062 C 340.984375 79.066406 341.867188 81.253906 343.449219 82.894531 L 367.730469 108.054688 C 369.386719 109.769531 371.667969 110.738281 374.054688 110.738281 L 398.917969 110.738281 C 401.261719 110.738281 403.507812 109.804688 405.15625 108.140625 L 432.851562 80.226562 C 433.128906 82.761719 433.265625 85.320312 433.265625 87.890625 C 433.265625 126.660156 401.722656 158.199219 362.957031 158.199219 Z M 362.957031 158.199219 " fill-opacity="1" fill-rule="nonzero"/><path fill="#ef0b0d" d="M 274.625 163.789062 L 164.644531 273.773438 C 161.214844 277.203125 161.214844 282.765625 164.644531 286.199219 C 168.074219 289.632812 173.640625 289.632812 177.074219 286.199219 L 287.058594 176.214844 C 290.492188 172.785156 290.492188 167.222656 287.058594 163.789062 C 283.625 160.355469 278.058594 160.355469 274.625 163.789062 Z M 274.625 163.789062 " fill-opacity="1" fill-rule="nonzero"/><path fill="#ef0b0d" d="M 385.6875 397.269531 C 389.121094 400.691406 394.683594 400.691406 398.117188 397.246094 C 401.546875 393.8125 401.535156 388.246094 398.097656 384.820312 L 318.875 305.851562 C 315.441406 302.425781 309.871094 302.4375 306.449219 305.871094 C 303.019531 309.3125 303.027344 314.875 306.464844 318.300781 Z M 385.6875 397.269531 " fill-opacity="1" fill-rule="nonzero"/></svg>