<svg xmlns="http://www.w3.org/2000/svg" xmlns:xlink="http://www.w3.org/1999/xlink" width="600" zoomAndPan="magnify" viewBox="0 0 450 449.999984" height="600" preserveAspectRatio="xMidYMid meet" version="1.0"><defs><clipPath id="ef3d74cb4d"><path d="M 0 3.800781 L 449.589844 3.800781 L 449.589844 450 L 0 450 Z M 0 3.800781 " clip-rule="nonzero"/></clipPath><linearGradient x1="4.054728" gradientTransform="matrix(1.742959, 0, 0, 1.742959, -7.067218, 3.80237)" y1="0" x2="261.999992" gradientUnits="userSpaceOnUse" y2="0" id="4fa031ba1d"><stop stop-opacity="1" stop-color="rgb(0.697327%, 0.697327%, 0.697327%)" offset="0"/><stop stop-opacity="1" stop-color="rgb(0.869751%, 0.869751%, 0.869751%)" offset="0.0078125"/><stop stop-opacity="1" stop-color="rgb(1.216125%, 1.216125%, 1.216125%)" offset="0.015625"/><stop stop-opacity="1" stop-color="rgb(1.5625%, 1.5625%, 1.5625%)" offset="0.0234375"/><stop stop-opacity="1" stop-color="rgb(1.908875%, 1.908875%, 1.908875%)" offset="0.03125"/><stop stop-opacity="1" stop-color="rgb(2.255249%, 2.255249%, 2.255249%)" offset="0.0390625"/><stop stop-opacity="1" stop-color="rgb(2.601624%, 2.601624%, 2.601624%)" offset="0.046875"/><stop stop-opacity="1" stop-color="rgb(2.947998%, 2.947998%, 2.947998%)" offset="0.0546875"/><stop stop-opacity="1" stop-color="rgb(3.295898%, 3.295898%, 3.295898%)" offset="0.0625"/><stop stop-opacity="1" stop-color="rgb(3.642273%, 3.642273%, 3.642273%)" offset="0.0703125"/><stop stop-opacity="1" stop-color="rgb(3.988647%, 3.988647%, 3.988647%)" offset="0.078125"/><stop stop-opacity="1" stop-color="rgb(4.335022%, 4.335022%, 4.335022%)" offset="0.0859375"/><stop stop-opacity="1" stop-color="rgb(4.681396%, 4.681396%, 4.681396%)" offset="0.09375"/><stop stop-opacity="1" stop-color="rgb(5.027771%, 5.027771%, 5.027771%)" offset="0.101563"/><stop stop-opacity="1" stop-color="rgb(5.374146%, 5.374146%, 5.374146%)" offset="0.109375"/><stop stop-opacity="1" stop-color="rgb(5.722046%, 5.722046%, 5.722046%)" offset="0.117188"/><stop stop-opacity="1" stop-color="rgb(6.06842%, 6.06842%, 6.06842%)" offset="0.125"/><stop stop-opacity="1" stop-color="rgb(6.414795%, 6.414795%, 6.414795%)" offset="0.132813"/><stop stop-opacity="1" stop-color="rgb(6.761169%, 6.761169%, 6.761169%)" offset="0.140625"/><stop stop-opacity="1" stop-color="rgb(7.107544%, 7.107544%, 7.107544%)" offset="0.148438"/><stop stop-opacity="1" stop-color="rgb(7.453918%, 7.453918%, 7.453918%)" offset="0.15625"/><stop stop-opacity="1" stop-color="rgb(7.800293%, 7.800293%, 7.800293%)" offset="0.164063"/><stop stop-opacity="1" stop-color="rgb(8.146667%, 8.146667%, 8.146667%)" offset="0.171875"/><stop stop-opacity="1" stop-color="rgb(8.494568%, 8.494568%, 8.494568%)" offset="0.179688"/><stop stop-opacity="1" stop-color="rgb(8.840942%, 8.840942%, 8.840942%)" offset="0.1875"/><stop stop-opacity="1" stop-color="rgb(9.187317%, 9.187317%, 9.187317%)" offset="0.195313"/><stop stop-opacity="1" stop-color="rgb(9.533691%, 9.533691%, 9.533691%)" offset="0.203125"/><stop stop-opacity="1" stop-color="rgb(9.880066%, 9.880066%, 9.880066%)" offset="0.210938"/><stop stop-opacity="1" stop-color="rgb(10.22644%, 10.22644%, 10.22644%)" offset="0.21875"/><stop stop-opacity="1" stop-color="rgb(10.572815%, 10.572815%, 10.572815%)" offset="0.226563"/><stop stop-opacity="1" stop-color="rgb(10.920715%, 10.920715%, 10.920715%)" offset="0.234375"/><stop stop-opacity="1" stop-color="rgb(11.26709%, 11.26709%, 11.26709%)" offset="0.242188"/><stop stop-opacity="1" stop-color="rgb(11.613464%, 11.613464%, 11.613464%)" offset="0.25"/><stop stop-opacity="1" stop-color="rgb(11.959839%, 11.959839%, 11.959839%)" offset="0.257812"/><stop stop-opacity="1" stop-color="rgb(12.306213%, 12.306213%, 12.306213%)" offset="0.265625"/><stop stop-opacity="1" stop-color="rgb(12.652588%, 12.652588%, 12.652588%)" offset="0.273438"/><stop stop-opacity="1" stop-color="rgb(12.998962%, 12.998962%, 12.998962%)" offset="0.28125"/><stop stop-opacity="1" stop-color="rgb(13.346863%, 13.346863%, 13.346863%)" offset="0.289063"/><stop stop-opacity="1" stop-color="rgb(13.693237%, 13.693237%, 13.693237%)" offset="0.296875"/><stop stop-opacity="1" stop-color="rgb(14.039612%, 14.039612%, 14.039612%)" offset="0.304688"/><stop stop-opacity="1" stop-color="rgb(14.385986%, 14.385986%, 14.385986%)" offset="0.3125"/><stop stop-opacity="1" stop-color="rgb(14.732361%, 14.732361%, 14.732361%)" offset="0.320313"/><stop stop-opacity="1" stop-color="rgb(15.078735%, 15.078735%, 15.078735%)" offset="0.328125"/><stop stop-opacity="1" stop-color="rgb(15.42511%, 15.42511%, 15.42511%)" offset="0.335938"/><stop stop-opacity="1" stop-color="rgb(15.771484%, 15.771484%, 15.771484%)" offset="0.34375"/><stop stop-opacity="1" stop-color="rgb(16.119385%, 16.119385%, 16.119385%)" offset="0.351562"/><stop stop-opacity="1" stop-color="rgb(16.465759%, 16.465759%, 16.465759%)" offset="0.359375"/><stop stop-opacity="1" stop-color="rgb(16.812134%, 16.812134%, 16.812134%)" offset="0.367188"/><stop stop-opacity="1" stop-color="rgb(17.158508%, 17.158508%, 17.158508%)" offset="0.375"/><stop stop-opacity="1" stop-color="rgb(17.504883%, 17.504883%, 17.504883%)" offset="0.382813"/><stop stop-opacity="1" stop-color="rgb(17.851257%, 17.851257%, 17.851257%)" offset="0.390625"/><stop stop-opacity="1" stop-color="rgb(18.197632%, 18.197632%, 18.197632%)" offset="0.398438"/><stop stop-opacity="1" stop-color="rgb(18.545532%, 18.545532%, 18.545532%)" offset="0.40625"/><stop stop-opacity="1" stop-color="rgb(18.891907%, 18.891907%, 18.891907%)" offset="0.414063"/><stop stop-opacity="1" stop-color="rgb(19.238281%, 19.238281%, 19.238281%)" offset="0.421875"/><stop stop-opacity="1" stop-color="rgb(19.584656%, 19.584656%, 19.584656%)" offset="0.429688"/><stop stop-opacity="1" stop-color="rgb(19.93103%, 19.93103%, 19.93103%)" offset="0.4375"/><stop stop-opacity="1" stop-color="rgb(20.277405%, 20.277405%, 20.277405%)" offset="0.445312"/><stop stop-opacity="1" stop-color="rgb(20.623779%, 20.623779%, 20.623779%)" offset="0.453125"/><stop stop-opacity="1" stop-color="rgb(20.970154%, 20.970154%, 20.970154%)" offset="0.460938"/><stop stop-opacity="1" stop-color="rgb(21.318054%, 21.318054%, 21.318054%)" offset="0.46875"/><stop stop-opacity="1" stop-color="rgb(21.664429%, 21.664429%, 21.664429%)" offset="0.476563"/><stop stop-opacity="1" stop-color="rgb(22.010803%, 22.010803%, 22.010803%)" offset="0.484375"/><stop stop-opacity="1" stop-color="rgb(22.357178%, 22.357178%, 22.357178%)" offset="0.492188"/><stop stop-opacity="1" stop-color="rgb(22.703552%, 22.703552%, 22.703552%)" offset="0.5"/><stop stop-opacity="1" stop-color="rgb(23.049927%, 23.049927%, 23.049927%)" offset="0.507813"/><stop stop-opacity="1" stop-color="rgb(23.396301%, 23.396301%, 23.396301%)" offset="0.515625"/><stop stop-opacity="1" stop-color="rgb(23.744202%, 23.744202%, 23.744202%)" offset="0.523438"/><stop stop-opacity="1" stop-color="rgb(24.090576%, 24.090576%, 24.090576%)" offset="0.53125"/><stop stop-opacity="1" stop-color="rgb(24.436951%, 24.436951%, 24.436951%)" offset="0.539062"/><stop stop-opacity="1" stop-color="rgb(24.783325%, 24.783325%, 24.783325%)" offset="0.546875"/><stop stop-opacity="1" stop-color="rgb(25.1297%, 25.1297%, 25.1297%)" offset="0.554688"/><stop stop-opacity="1" stop-color="rgb(25.476074%, 25.476074%, 25.476074%)" offset="0.5625"/><stop stop-opacity="1" stop-color="rgb(25.822449%, 25.822449%, 25.822449%)" offset="0.570313"/><stop stop-opacity="1" stop-color="rgb(26.170349%, 26.170349%, 26.170349%)" offset="0.578125"/><stop stop-opacity="1" stop-color="rgb(26.516724%, 26.516724%, 26.516724%)" offset="0.585938"/><stop stop-opacity="1" stop-color="rgb(26.863098%, 26.863098%, 26.863098%)" offset="0.59375"/><stop stop-opacity="1" stop-color="rgb(27.209473%, 27.209473%, 27.209473%)" offset="0.601563"/><stop stop-opacity="1" stop-color="rgb(27.555847%, 27.555847%, 27.555847%)" offset="0.609375"/><stop stop-opacity="1" stop-color="rgb(27.902222%, 27.902222%, 27.902222%)" offset="0.617188"/><stop stop-opacity="1" stop-color="rgb(28.248596%, 28.248596%, 28.248596%)" offset="0.625"/><stop stop-opacity="1" stop-color="rgb(28.594971%, 28.594971%, 28.594971%)" offset="0.632812"/><stop stop-opacity="1" stop-color="rgb(28.942871%, 28.942871%, 28.942871%)" offset="0.640625"/><stop stop-opacity="1" stop-color="rgb(29.289246%, 29.289246%, 29.289246%)" offset="0.648437"/><stop stop-opacity="1" stop-color="rgb(29.63562%, 29.63562%, 29.63562%)" offset="0.65625"/><stop stop-opacity="1" stop-color="rgb(29.981995%, 29.981995%, 29.981995%)" offset="0.664062"/><stop stop-opacity="1" stop-color="rgb(30.328369%, 30.328369%, 30.328369%)" offset="0.671875"/><stop stop-opacity="1" stop-color="rgb(30.674744%, 30.674744%, 30.674744%)" offset="0.679688"/><stop stop-opacity="1" stop-color="rgb(31.021118%, 31.021118%, 31.021118%)" offset="0.6875"/><stop stop-opacity="1" stop-color="rgb(31.369019%, 31.369019%, 31.369019%)" offset="0.695312"/><stop stop-opacity="1" stop-color="rgb(31.715393%, 31.715393%, 31.715393%)" offset="0.703125"/><stop stop-opacity="1" stop-color="rgb(32.061768%, 32.061768%, 32.061768%)" offset="0.710938"/><stop stop-opacity="1" stop-color="rgb(32.408142%, 32.408142%, 32.408142%)" offset="0.71875"/><stop stop-opacity="1" stop-color="rgb(32.754517%, 32.754517%, 32.754517%)" offset="0.726562"/><stop stop-opacity="1" stop-color="rgb(33.100891%, 33.100891%, 33.100891%)" offset="0.734375"/><stop stop-opacity="1" stop-color="rgb(33.447266%, 33.447266%, 33.447266%)" offset="0.742188"/><stop stop-opacity="1" stop-color="rgb(33.79364%, 33.79364%, 33.79364%)" offset="0.75"/><stop stop-opacity="1" stop-color="rgb(34.141541%, 34.141541%, 34.141541%)" offset="0.757813"/><stop stop-opacity="1" stop-color="rgb(34.487915%, 34.487915%, 34.487915%)" offset="0.765625"/><stop stop-opacity="1" stop-color="rgb(34.83429%, 34.83429%, 34.83429%)" offset="0.773438"/><stop stop-opacity="1" stop-color="rgb(35.180664%, 35.180664%, 35.180664%)" offset="0.78125"/><stop stop-opacity="1" stop-color="rgb(35.527039%, 35.527039%, 35.527039%)" offset="0.789063"/><stop stop-opacity="1" stop-color="rgb(35.873413%, 35.873413%, 35.873413%)" offset="0.796875"/><stop stop-opacity="1" stop-color="rgb(36.219788%, 36.219788%, 36.219788%)" offset="0.804688"/><stop stop-opacity="1" stop-color="rgb(36.567688%, 36.567688%, 36.567688%)" offset="0.8125"/><stop stop-opacity="1" stop-color="rgb(36.914062%, 36.914062%, 36.914062%)" offset="0.820312"/><stop stop-opacity="1" stop-color="rgb(37.260437%, 37.260437%, 37.260437%)" offset="0.828125"/><stop stop-opacity="1" stop-color="rgb(37.606812%, 37.606812%, 37.606812%)" offset="0.835937"/><stop stop-opacity="1" stop-color="rgb(37.953186%, 37.953186%, 37.953186%)" offset="0.84375"/><stop stop-opacity="1" stop-color="rgb(38.299561%, 38.299561%, 38.299561%)" offset="0.851562"/><stop stop-opacity="1" stop-color="rgb(38.645935%, 38.645935%, 38.645935%)" offset="0.859375"/><stop stop-opacity="1" stop-color="rgb(38.993835%, 38.993835%, 38.993835%)" offset="0.867188"/><stop stop-opacity="1" stop-color="rgb(39.34021%, 39.34021%, 39.34021%)" offset="0.875"/><stop stop-opacity="1" stop-color="rgb(39.686584%, 39.686584%, 39.686584%)" offset="0.882812"/><stop stop-opacity="1" stop-color="rgb(40.032959%, 40.032959%, 40.032959%)" offset="0.890625"/><stop stop-opacity="1" stop-color="rgb(40.379333%, 40.379333%, 40.379333%)" offset="0.898438"/><stop stop-opacity="1" stop-color="rgb(40.725708%, 40.725708%, 40.725708%)" offset="0.90625"/><stop stop-opacity="1" stop-color="rgb(41.072083%, 41.072083%, 41.072083%)" offset="0.914062"/><stop stop-opacity="1" stop-color="rgb(41.418457%, 41.418457%, 41.418457%)" offset="0.921875"/><stop stop-opacity="1" stop-color="rgb(41.766357%, 41.766357%, 41.766357%)" offset="0.929688"/><stop stop-opacity="1" stop-color="rgb(42.112732%, 42.112732%, 42.112732%)" offset="0.9375"/><stop stop-opacity="1" stop-color="rgb(42.459106%, 42.459106%, 42.459106%)" offset="0.945312"/><stop stop-opacity="1" stop-color="rgb(42.805481%, 42.805481%, 42.805481%)" offset="0.953125"/><stop stop-opacity="1" stop-color="rgb(43.151855%, 43.151855%, 43.151855%)" offset="0.960938"/><stop stop-opacity="1" stop-color="rgb(43.49823%, 43.49823%, 43.49823%)" offset="0.96875"/><stop stop-opacity="1" stop-color="rgb(43.844604%, 43.844604%, 43.844604%)" offset="0.976563"/><stop stop-opacity="1" stop-color="rgb(44.192505%, 44.192505%, 44.192505%)" offset="0.984375"/><stop stop-opacity="1" stop-color="rgb(44.538879%, 44.538879%, 44.538879%)" offset="0.992188"/><stop stop-opacity="1" stop-color="rgb(44.885254%, 44.885254%, 44.885254%)" offset="1"/></linearGradient></defs><g clip-path="url(#ef3d74cb4d)"><path fill="url(#4fa031ba1d)" d="M 0 3.800781 L 0 450 L 449.589844 450 L 449.589844 3.800781 Z M 0 3.800781 " fill-rule="nonzero"/></g><path fill="#f0f2ff" d="M 420.070312 230.832031 C 418.257812 227.125 418.257812 222.878906 420.070312 219.171875 L 436.851562 184.839844 C 446.199219 165.722656 438.792969 142.9375 419.996094 132.964844 L 386.238281 115.050781 C 382.597656 113.121094 380.101562 109.679688 379.386719 105.621094 L 372.785156 67.980469 C 369.109375 47.019531 349.722656 32.9375 328.65625 35.917969 L 290.816406 41.269531 C 286.734375 41.847656 282.695312 40.535156 279.730469 37.667969 L 252.265625 11.097656 C 236.972656 -3.699219 213.011719 -3.699219 197.71875 11.097656 L 170.253906 37.671875 C 167.289062 40.539062 163.25 41.847656 159.167969 41.273438 L 121.328125 35.921875 C 100.257812 32.9375 80.875 47.023438 77.199219 67.980469 L 70.597656 105.621094 C 69.886719 109.683594 67.386719 113.121094 63.746094 115.054688 L 29.988281 132.964844 C 11.191406 142.9375 3.789062 165.726562 13.132812 184.839844 L 29.914062 219.175781 C 31.726562 222.878906 31.726562 227.128906 29.914062 230.832031 L 13.132812 265.164062 C 3.789062 284.28125 11.191406 307.066406 29.988281 317.039062 L 63.746094 334.953125 C 67.386719 336.882812 69.886719 340.324219 70.597656 344.382812 L 77.199219 382.023438 C 80.546875 401.105469 96.90625 414.484375 115.710938 414.484375 C 117.5625 414.484375 119.441406 414.351562 121.328125 414.085938 L 159.167969 408.734375 C 163.25 408.152344 167.289062 409.46875 170.253906 412.335938 L 197.71875 438.90625 C 205.367188 446.304688 215.179688 450.003906 224.992188 450.003906 C 234.804688 450 244.621094 446.304688 252.265625 438.90625 L 279.730469 412.335938 C 282.695312 409.46875 286.734375 408.160156 290.816406 408.734375 L 328.65625 414.085938 C 349.730469 417.066406 369.109375 402.980469 372.785156 382.023438 L 379.386719 344.382812 C 380.101562 340.324219 382.597656 336.886719 386.238281 334.953125 L 419.996094 317.039062 C 438.792969 307.070312 446.199219 284.28125 436.851562 265.164062 Z M 407.832031 294.113281 L 374.074219 312.023438 C 363.3125 317.738281 355.929688 327.894531 353.824219 339.898438 L 347.222656 377.539062 C 345.980469 384.628906 339.421875 389.394531 332.292969 388.386719 L 294.453125 383.035156 C 282.386719 381.324219 270.445312 385.207031 261.6875 393.679688 L 234.21875 420.25 C 229.046875 425.253906 220.941406 425.253906 215.765625 420.25 L 188.296875 393.679688 C 180.894531 386.519531 171.21875 382.636719 161.117188 382.636719 C 159.265625 382.636719 157.402344 382.769531 155.53125 383.03125 L 117.691406 388.386719 C 110.570312 389.394531 104.007812 384.628906 102.761719 377.539062 L 96.160156 339.894531 C 94.054688 327.894531 86.671875 317.734375 75.910156 312.023438 L 42.148438 294.113281 C 35.789062 290.738281 33.285156 283.027344 36.445312 276.5625 L 53.230469 242.226562 C 58.582031 231.277344 58.582031 218.722656 53.230469 207.777344 L 36.445312 173.441406 C 33.285156 166.972656 35.789062 159.265625 42.148438 155.890625 L 75.910156 137.976562 C 86.671875 132.265625 94.054688 122.109375 96.160156 110.105469 L 102.761719 72.464844 C 104.003906 65.375 110.558594 60.609375 117.691406 61.617188 L 155.53125 66.96875 C 167.59375 68.675781 179.539062 64.796875 188.296875 56.324219 L 215.765625 29.753906 C 220.9375 24.746094 229.042969 24.746094 234.21875 29.753906 L 261.683594 56.324219 C 270.441406 64.796875 282.386719 68.675781 294.453125 66.96875 L 332.289062 61.617188 C 339.414062 60.609375 345.976562 65.375 347.21875 72.464844 L 353.824219 110.105469 C 355.929688 122.109375 363.308594 132.269531 374.074219 137.976562 L 407.832031 155.890625 C 414.191406 159.265625 416.695312 166.972656 413.535156 173.441406 L 396.75 207.773438 C 391.402344 218.722656 391.402344 231.277344 396.75 242.226562 L 413.535156 276.558594 C 416.699219 283.027344 414.191406 290.738281 407.832031 294.113281 Z M 407.832031 294.113281 " fill-opacity="1" fill-rule="nonzero"/><path fill="#f0f2ff" d="M 319.828125 130.1875 C 314.761719 125.121094 306.542969 125.121094 301.476562 130.1875 L 130.1875 301.476562 C 125.121094 306.542969 125.121094 314.761719 130.1875 319.828125 C 132.722656 322.363281 136.042969 323.628906 139.363281 323.628906 C 142.683594 323.628906 146.007812 322.363281 148.539062 319.828125 L 319.828125 148.539062 C 324.898438 143.472656 324.898438 135.257812 319.828125 130.1875 Z M 319.828125 130.1875 " fill-opacity="1" fill-rule="nonzero"/><path fill="#ef0b0d" d="M 173.070312 108.214844 C 146.832031 108.214844 125.484375 129.5625 125.484375 155.796875 C 125.484375 182.035156 146.832031 203.382812 173.070312 203.382812 C 199.304688 203.382812 220.652344 182.035156 220.652344 155.796875 C 220.652344 129.5625 199.304688 108.214844 173.070312 108.214844 Z M 173.070312 177.425781 C 161.144531 177.425781 151.441406 167.722656 151.441406 155.796875 C 151.441406 143.871094 161.144531 134.167969 173.070312 134.167969 C 184.996094 134.167969 194.699219 143.871094 194.699219 155.796875 C 194.695312 167.722656 184.996094 177.425781 173.070312 177.425781 Z M 173.070312 177.425781 " fill-opacity="1" fill-rule="nonzero"/><path fill="#ef0b0d" d="M 276.890625 246.621094 C 250.652344 246.621094 229.304688 267.96875 229.304688 294.203125 C 229.304688 320.441406 250.652344 341.789062 276.890625 341.789062 C 303.125 341.789062 324.472656 320.441406 324.472656 294.203125 C 324.472656 267.96875 303.125 246.621094 276.890625 246.621094 Z M 276.890625 315.832031 C 264.964844 315.832031 255.261719 306.128906 255.261719 294.203125 C 255.261719 282.277344 264.960938 272.578125 276.890625 272.578125 C 288.816406 272.578125 298.519531 282.277344 298.519531 294.203125 C 298.519531 306.128906 288.816406 315.832031 276.890625 315.832031 Z M 276.890625 315.832031 " fill-opacity="1" fill-rule="nonzero"/></svg>