<svg xmlns="http://www.w3.org/2000/svg" xmlns:xlink="http://www.w3.org/1999/xlink" width="600" zoomAndPan="magnify" viewBox="0 0 450 449.999984" height="600" preserveAspectRatio="xMidYMid meet" version="1.0"><defs><clipPath id="1280d48adb"><path d="M 0 2.144531 L 443.992188 2.144531 L 443.992188 450 L 0 450 Z M 0 2.144531 " clip-rule="nonzero"/></clipPath><linearGradient x1="0.0945147" gradientTransform="matrix(1.734988, 0, 0, 1.734988, -0.163974, 2.14428)" y1="0" x2="256" gradientUnits="userSpaceOnUse" y2="0" id="ad024c4ac2"><stop stop-opacity="1" stop-color="rgb(0.0152588%, 0.0152588%, 0.0152588%)" offset="0"/><stop stop-opacity="1" stop-color="rgb(0.190735%, 0.190735%, 0.190735%)" offset="0.0078125"/><stop stop-opacity="1" stop-color="rgb(0.543213%, 0.543213%, 0.543213%)" offset="0.015625"/><stop stop-opacity="1" stop-color="rgb(0.895691%, 0.895691%, 0.895691%)" offset="0.0234375"/><stop stop-opacity="1" stop-color="rgb(1.248169%, 1.248169%, 1.248169%)" offset="0.03125"/><stop stop-opacity="1" stop-color="rgb(1.600647%, 1.600647%, 1.600647%)" offset="0.0390625"/><stop stop-opacity="1" stop-color="rgb(1.953125%, 1.953125%, 1.953125%)" offset="0.046875"/><stop stop-opacity="1" stop-color="rgb(2.304077%, 2.304077%, 2.304077%)" offset="0.0546875"/><stop stop-opacity="1" stop-color="rgb(2.656555%, 2.656555%, 2.656555%)" offset="0.0625"/><stop stop-opacity="1" stop-color="rgb(3.009033%, 3.009033%, 3.009033%)" offset="0.0703125"/><stop stop-opacity="1" stop-color="rgb(3.361511%, 3.361511%, 3.361511%)" offset="0.078125"/><stop stop-opacity="1" stop-color="rgb(3.713989%, 3.713989%, 3.713989%)" offset="0.0859375"/><stop stop-opacity="1" stop-color="rgb(4.066467%, 4.066467%, 4.066467%)" offset="0.09375"/><stop stop-opacity="1" stop-color="rgb(4.417419%, 4.417419%, 4.417419%)" offset="0.101563"/><stop stop-opacity="1" stop-color="rgb(4.769897%, 4.769897%, 4.769897%)" offset="0.109375"/><stop stop-opacity="1" stop-color="rgb(5.122375%, 5.122375%, 5.122375%)" offset="0.117188"/><stop stop-opacity="1" stop-color="rgb(5.474854%, 5.474854%, 5.474854%)" offset="0.125"/><stop stop-opacity="1" stop-color="rgb(5.827332%, 5.827332%, 5.827332%)" offset="0.132813"/><stop stop-opacity="1" stop-color="rgb(6.178284%, 6.178284%, 6.178284%)" offset="0.140625"/><stop stop-opacity="1" stop-color="rgb(6.530762%, 6.530762%, 6.530762%)" offset="0.148438"/><stop stop-opacity="1" stop-color="rgb(6.88324%, 6.88324%, 6.88324%)" offset="0.15625"/><stop stop-opacity="1" stop-color="rgb(7.235718%, 7.235718%, 7.235718%)" offset="0.164062"/><stop stop-opacity="1" stop-color="rgb(7.588196%, 7.588196%, 7.588196%)" offset="0.171875"/><stop stop-opacity="1" stop-color="rgb(7.940674%, 7.940674%, 7.940674%)" offset="0.179688"/><stop stop-opacity="1" stop-color="rgb(8.291626%, 8.291626%, 8.291626%)" offset="0.1875"/><stop stop-opacity="1" stop-color="rgb(8.644104%, 8.644104%, 8.644104%)" offset="0.195312"/><stop stop-opacity="1" stop-color="rgb(8.996582%, 8.996582%, 8.996582%)" offset="0.203125"/><stop stop-opacity="1" stop-color="rgb(9.34906%, 9.34906%, 9.34906%)" offset="0.210938"/><stop stop-opacity="1" stop-color="rgb(9.701538%, 9.701538%, 9.701538%)" offset="0.21875"/><stop stop-opacity="1" stop-color="rgb(10.054016%, 10.054016%, 10.054016%)" offset="0.226562"/><stop stop-opacity="1" stop-color="rgb(10.404968%, 10.404968%, 10.404968%)" offset="0.234375"/><stop stop-opacity="1" stop-color="rgb(10.757446%, 10.757446%, 10.757446%)" offset="0.242188"/><stop stop-opacity="1" stop-color="rgb(11.109924%, 11.109924%, 11.109924%)" offset="0.25"/><stop stop-opacity="1" stop-color="rgb(11.462402%, 11.462402%, 11.462402%)" offset="0.257812"/><stop stop-opacity="1" stop-color="rgb(11.81488%, 11.81488%, 11.81488%)" offset="0.265625"/><stop stop-opacity="1" stop-color="rgb(12.167358%, 12.167358%, 12.167358%)" offset="0.273438"/><stop stop-opacity="1" stop-color="rgb(12.518311%, 12.518311%, 12.518311%)" offset="0.28125"/><stop stop-opacity="1" stop-color="rgb(12.870789%, 12.870789%, 12.870789%)" offset="0.289062"/><stop stop-opacity="1" stop-color="rgb(13.223267%, 13.223267%, 13.223267%)" offset="0.296875"/><stop stop-opacity="1" stop-color="rgb(13.575745%, 13.575745%, 13.575745%)" offset="0.304688"/><stop stop-opacity="1" stop-color="rgb(13.928223%, 13.928223%, 13.928223%)" offset="0.3125"/><stop stop-opacity="1" stop-color="rgb(14.279175%, 14.279175%, 14.279175%)" offset="0.320312"/><stop stop-opacity="1" stop-color="rgb(14.631653%, 14.631653%, 14.631653%)" offset="0.328125"/><stop stop-opacity="1" stop-color="rgb(14.984131%, 14.984131%, 14.984131%)" offset="0.335938"/><stop stop-opacity="1" stop-color="rgb(15.336609%, 15.336609%, 15.336609%)" offset="0.34375"/><stop stop-opacity="1" stop-color="rgb(15.689087%, 15.689087%, 15.689087%)" offset="0.351562"/><stop stop-opacity="1" stop-color="rgb(16.041565%, 16.041565%, 16.041565%)" offset="0.359375"/><stop stop-opacity="1" stop-color="rgb(16.392517%, 16.392517%, 16.392517%)" offset="0.367188"/><stop stop-opacity="1" stop-color="rgb(16.744995%, 16.744995%, 16.744995%)" offset="0.375"/><stop stop-opacity="1" stop-color="rgb(17.097473%, 17.097473%, 17.097473%)" offset="0.382812"/><stop stop-opacity="1" stop-color="rgb(17.449951%, 17.449951%, 17.449951%)" offset="0.390625"/><stop stop-opacity="1" stop-color="rgb(17.802429%, 17.802429%, 17.802429%)" offset="0.398438"/><stop stop-opacity="1" stop-color="rgb(18.154907%, 18.154907%, 18.154907%)" offset="0.40625"/><stop stop-opacity="1" stop-color="rgb(18.505859%, 18.505859%, 18.505859%)" offset="0.414062"/><stop stop-opacity="1" stop-color="rgb(18.858337%, 18.858337%, 18.858337%)" offset="0.421875"/><stop stop-opacity="1" stop-color="rgb(19.210815%, 19.210815%, 19.210815%)" offset="0.429688"/><stop stop-opacity="1" stop-color="rgb(19.563293%, 19.563293%, 19.563293%)" offset="0.4375"/><stop stop-opacity="1" stop-color="rgb(19.915771%, 19.915771%, 19.915771%)" offset="0.445312"/><stop stop-opacity="1" stop-color="rgb(20.26825%, 20.26825%, 20.26825%)" offset="0.453125"/><stop stop-opacity="1" stop-color="rgb(20.619202%, 20.619202%, 20.619202%)" offset="0.460938"/><stop stop-opacity="1" stop-color="rgb(20.97168%, 20.97168%, 20.97168%)" offset="0.46875"/><stop stop-opacity="1" stop-color="rgb(21.324158%, 21.324158%, 21.324158%)" offset="0.476562"/><stop stop-opacity="1" stop-color="rgb(21.676636%, 21.676636%, 21.676636%)" offset="0.484375"/><stop stop-opacity="1" stop-color="rgb(22.029114%, 22.029114%, 22.029114%)" offset="0.492188"/><stop stop-opacity="1" stop-color="rgb(22.380066%, 22.380066%, 22.380066%)" offset="0.5"/><stop stop-opacity="1" stop-color="rgb(22.732544%, 22.732544%, 22.732544%)" offset="0.507813"/><stop stop-opacity="1" stop-color="rgb(23.085022%, 23.085022%, 23.085022%)" offset="0.515625"/><stop stop-opacity="1" stop-color="rgb(23.4375%, 23.4375%, 23.4375%)" offset="0.523438"/><stop stop-opacity="1" stop-color="rgb(23.789978%, 23.789978%, 23.789978%)" offset="0.53125"/><stop stop-opacity="1" stop-color="rgb(24.142456%, 24.142456%, 24.142456%)" offset="0.539062"/><stop stop-opacity="1" stop-color="rgb(24.493408%, 24.493408%, 24.493408%)" offset="0.546875"/><stop stop-opacity="1" stop-color="rgb(24.845886%, 24.845886%, 24.845886%)" offset="0.554688"/><stop stop-opacity="1" stop-color="rgb(25.198364%, 25.198364%, 25.198364%)" offset="0.5625"/><stop stop-opacity="1" stop-color="rgb(25.550842%, 25.550842%, 25.550842%)" offset="0.570312"/><stop stop-opacity="1" stop-color="rgb(25.90332%, 25.90332%, 25.90332%)" offset="0.578125"/><stop stop-opacity="1" stop-color="rgb(26.255798%, 26.255798%, 26.255798%)" offset="0.585937"/><stop stop-opacity="1" stop-color="rgb(26.60675%, 26.60675%, 26.60675%)" offset="0.59375"/><stop stop-opacity="1" stop-color="rgb(26.959229%, 26.959229%, 26.959229%)" offset="0.601562"/><stop stop-opacity="1" stop-color="rgb(27.311707%, 27.311707%, 27.311707%)" offset="0.609375"/><stop stop-opacity="1" stop-color="rgb(27.664185%, 27.664185%, 27.664185%)" offset="0.617188"/><stop stop-opacity="1" stop-color="rgb(28.016663%, 28.016663%, 28.016663%)" offset="0.625"/><stop stop-opacity="1" stop-color="rgb(28.369141%, 28.369141%, 28.369141%)" offset="0.632812"/><stop stop-opacity="1" stop-color="rgb(28.720093%, 28.720093%, 28.720093%)" offset="0.640625"/><stop stop-opacity="1" stop-color="rgb(29.072571%, 29.072571%, 29.072571%)" offset="0.648437"/><stop stop-opacity="1" stop-color="rgb(29.425049%, 29.425049%, 29.425049%)" offset="0.65625"/><stop stop-opacity="1" stop-color="rgb(29.777527%, 29.777527%, 29.777527%)" offset="0.664062"/><stop stop-opacity="1" stop-color="rgb(30.130005%, 30.130005%, 30.130005%)" offset="0.671875"/><stop stop-opacity="1" stop-color="rgb(30.482483%, 30.482483%, 30.482483%)" offset="0.679688"/><stop stop-opacity="1" stop-color="rgb(30.833435%, 30.833435%, 30.833435%)" offset="0.6875"/><stop stop-opacity="1" stop-color="rgb(31.185913%, 31.185913%, 31.185913%)" offset="0.695312"/><stop stop-opacity="1" stop-color="rgb(31.538391%, 31.538391%, 31.538391%)" offset="0.703125"/><stop stop-opacity="1" stop-color="rgb(31.890869%, 31.890869%, 31.890869%)" offset="0.710937"/><stop stop-opacity="1" stop-color="rgb(32.243347%, 32.243347%, 32.243347%)" offset="0.71875"/><stop stop-opacity="1" stop-color="rgb(32.594299%, 32.594299%, 32.594299%)" offset="0.726562"/><stop stop-opacity="1" stop-color="rgb(32.946777%, 32.946777%, 32.946777%)" offset="0.734375"/><stop stop-opacity="1" stop-color="rgb(33.299255%, 33.299255%, 33.299255%)" offset="0.742188"/><stop stop-opacity="1" stop-color="rgb(33.651733%, 33.651733%, 33.651733%)" offset="0.75"/><stop stop-opacity="1" stop-color="rgb(34.004211%, 34.004211%, 34.004211%)" offset="0.757812"/><stop stop-opacity="1" stop-color="rgb(34.356689%, 34.356689%, 34.356689%)" offset="0.765625"/><stop stop-opacity="1" stop-color="rgb(34.707642%, 34.707642%, 34.707642%)" offset="0.773437"/><stop stop-opacity="1" stop-color="rgb(35.06012%, 35.06012%, 35.06012%)" offset="0.78125"/><stop stop-opacity="1" stop-color="rgb(35.412598%, 35.412598%, 35.412598%)" offset="0.789063"/><stop stop-opacity="1" stop-color="rgb(35.765076%, 35.765076%, 35.765076%)" offset="0.796875"/><stop stop-opacity="1" stop-color="rgb(36.117554%, 36.117554%, 36.117554%)" offset="0.804688"/><stop stop-opacity="1" stop-color="rgb(36.470032%, 36.470032%, 36.470032%)" offset="0.8125"/><stop stop-opacity="1" stop-color="rgb(36.820984%, 36.820984%, 36.820984%)" offset="0.820312"/><stop stop-opacity="1" stop-color="rgb(37.173462%, 37.173462%, 37.173462%)" offset="0.828125"/><stop stop-opacity="1" stop-color="rgb(37.52594%, 37.52594%, 37.52594%)" offset="0.835937"/><stop stop-opacity="1" stop-color="rgb(37.878418%, 37.878418%, 37.878418%)" offset="0.84375"/><stop stop-opacity="1" stop-color="rgb(38.230896%, 38.230896%, 38.230896%)" offset="0.851563"/><stop stop-opacity="1" stop-color="rgb(38.583374%, 38.583374%, 38.583374%)" offset="0.859375"/><stop stop-opacity="1" stop-color="rgb(38.934326%, 38.934326%, 38.934326%)" offset="0.867188"/><stop stop-opacity="1" stop-color="rgb(39.286804%, 39.286804%, 39.286804%)" offset="0.875"/><stop stop-opacity="1" stop-color="rgb(39.639282%, 39.639282%, 39.639282%)" offset="0.882812"/><stop stop-opacity="1" stop-color="rgb(39.99176%, 39.99176%, 39.99176%)" offset="0.890625"/><stop stop-opacity="1" stop-color="rgb(40.344238%, 40.344238%, 40.344238%)" offset="0.898437"/><stop stop-opacity="1" stop-color="rgb(40.69519%, 40.69519%, 40.69519%)" offset="0.90625"/><stop stop-opacity="1" stop-color="rgb(41.047668%, 41.047668%, 41.047668%)" offset="0.914063"/><stop stop-opacity="1" stop-color="rgb(41.400146%, 41.400146%, 41.400146%)" offset="0.921875"/><stop stop-opacity="1" stop-color="rgb(41.752625%, 41.752625%, 41.752625%)" offset="0.929688"/><stop stop-opacity="1" stop-color="rgb(42.105103%, 42.105103%, 42.105103%)" offset="0.9375"/><stop stop-opacity="1" stop-color="rgb(42.457581%, 42.457581%, 42.457581%)" offset="0.945312"/><stop stop-opacity="1" stop-color="rgb(42.808533%, 42.808533%, 42.808533%)" offset="0.953125"/><stop stop-opacity="1" stop-color="rgb(43.161011%, 43.161011%, 43.161011%)" offset="0.960937"/><stop stop-opacity="1" stop-color="rgb(43.513489%, 43.513489%, 43.513489%)" offset="0.96875"/><stop stop-opacity="1" stop-color="rgb(43.865967%, 43.865967%, 43.865967%)" offset="0.976563"/><stop stop-opacity="1" stop-color="rgb(44.218445%, 44.218445%, 44.218445%)" offset="0.984375"/><stop stop-opacity="1" stop-color="rgb(44.570923%, 44.570923%, 44.570923%)" offset="0.992188"/><stop stop-opacity="1" stop-color="rgb(44.921875%, 44.921875%, 44.921875%)" offset="1"/></linearGradient></defs><g clip-path="url(#1280d48adb)"><path fill="url(#ad024c4ac2)" d="M 0 2.144531 L 0 450 L 443.992188 450 L 443.992188 2.144531 Z M 0 2.144531 " fill-rule="nonzero"/></g><path fill="#f0f2ff" d="M 413.101562 241.105469 C 411.726562 233.949219 405.472656 228.777344 398.1875 228.773438 L 383.519531 228.773438 L 382.4375 222.308594 C 381.363281 215.816406 376.246094 210.742188 369.746094 209.722656 C 368.300781 209.492188 366.84375 209.339844 365.40625 209.144531 C 367.894531 197.53125 365.828125 185.402344 359.632812 175.269531 C 362.90625 166.78125 362.296875 157.28125 357.960938 149.28125 C 353.628906 141.28125 346.007812 135.582031 337.109375 133.683594 C 331.417969 103.234375 304.929688 81.101562 273.957031 80.917969 C 273.195312 80.917969 272.519531 81.015625 271.796875 81.039062 C 266.847656 73.265625 258.691406 68.105469 249.542969 66.96875 C 240.402344 65.832031 231.226562 68.835938 224.523438 75.15625 C 216.078125 69.667969 206.226562 66.742188 196.15625 66.734375 C 179.929688 66.800781 164.636719 74.332031 154.691406 87.152344 C 143.652344 83.933594 131.742188 85.910156 122.335938 92.527344 C 112.925781 99.140625 107.039062 109.675781 106.332031 121.15625 C 94.734375 126.03125 87.1875 137.382812 87.179688 149.964844 C 87.203125 152.144531 87.457031 154.316406 87.9375 156.445312 C 77.683594 171.90625 75.003906 191.191406 80.652344 208.863281 C 78.617188 209.144531 76.535156 209.394531 74.574219 209.683594 C 68.039062 210.667969 62.878906 215.746094 61.78125 222.261719 L 60.703125 228.75 L 45.996094 228.75 C 38.726562 228.757812 32.476562 233.914062 31.089844 241.050781 L -2.175781 411.84375 C -3.472656 418.53125 -1.710938 425.453125 2.628906 430.703125 C 6.96875 435.957031 13.429688 438.992188 20.242188 438.980469 L 178.667969 438.980469 C 184.957031 449.355469 204.074219 454.171875 222.09375 454.171875 C 239.921875 454.171875 258.855469 449.472656 265.328125 438.980469 L 423.941406 438.980469 C 430.753906 438.992188 437.214844 435.957031 441.554688 430.707031 C 445.894531 425.457031 447.65625 418.539062 446.359375 411.851562 Z M 110.152344 163.714844 C 103.984375 160.003906 101.039062 152.644531 102.949219 145.703125 C 104.863281 138.765625 111.160156 133.949219 118.355469 133.917969 C 123.394531 133.90625 128.132812 136.300781 131.113281 140.363281 C 132.730469 142.542969 135.386719 143.691406 138.082031 143.382812 C 140.78125 143.070312 143.105469 141.34375 144.183594 138.851562 C 145.261719 136.363281 144.929688 133.484375 143.3125 131.304688 C 138.152344 124.410156 130.335938 120 121.769531 119.152344 C 124.03125 108.511719 133.414062 100.894531 144.292969 100.867188 C 145.21875 100.914062 146.144531 101.015625 147.058594 101.167969 C 146.445312 102.726562 145.914062 104.3125 145.460938 105.925781 C 144.515625 109.945312 146.957031 113.988281 150.957031 115.019531 C 154.957031 116.050781 159.050781 113.699219 160.171875 109.722656 C 161.035156 106.382812 162.359375 103.183594 164.113281 100.210938 C 170.851562 88.921875 183.007812 81.984375 196.15625 81.925781 C 203.3125 81.957031 210.304688 84.070312 216.28125 88.003906 C 215.140625 91.203125 214.539062 94.566406 214.496094 97.964844 C 214.496094 102.160156 217.898438 105.5625 222.09375 105.5625 C 226.289062 105.5625 229.6875 102.160156 229.6875 97.964844 C 229.6875 89.136719 236.84375 81.984375 245.667969 81.984375 C 254.496094 81.984375 261.648438 89.136719 261.648438 97.964844 C 261.648438 102.160156 265.050781 105.5625 269.246094 105.5625 C 273.441406 105.5625 276.84375 102.160156 276.84375 97.964844 C 276.84375 97.378906 276.699219 96.824219 276.667969 96.238281 C 298.421875 97.582031 316.710938 113.042969 321.65625 134.269531 C 318.113281 135.300781 314.785156 136.960938 311.828125 139.167969 C 309.65625 140.796875 308.515625 143.460938 308.84375 146.15625 C 309.167969 148.851562 310.90625 151.167969 313.398438 152.234375 C 315.894531 153.300781 318.769531 152.953125 320.941406 151.324219 C 327.011719 146.828125 335.398438 147.1875 341.066406 152.183594 C 346.730469 157.179688 348.132812 165.457031 344.433594 172.039062 C 342.777344 174.949219 340.265625 177.273438 337.238281 178.695312 C 334.0625 180.234375 332.363281 183.753906 333.136719 187.195312 C 333.90625 190.636719 336.945312 193.09375 340.472656 193.128906 C 341.589844 193.132812 342.6875 192.882812 343.695312 192.40625 C 345.707031 191.433594 347.609375 190.242188 349.371094 188.859375 C 353.296875 200.023438 350.835938 212.441406 342.941406 221.261719 L 342.761719 221.449219 C 332.863281 232.171875 317.074219 235.070312 304.015625 228.5625 C 302.738281 227.886719 301.507812 227.117188 300.339844 226.265625 C 305.9375 218.421875 306.707031 208.117188 302.34375 199.527344 C 301.125 197.101562 298.703125 195.511719 295.992188 195.355469 C 293.28125 195.203125 290.691406 196.503906 289.203125 198.777344 C 287.714844 201.046875 287.546875 203.9375 288.769531 206.363281 C 291.269531 211.382812 289.710938 217.476562 285.109375 220.683594 C 282.40625 222.484375 279.066406 223.050781 275.921875 222.25 C 272.777344 221.445312 270.117188 219.347656 268.609375 216.476562 C 267.394531 214.046875 264.976562 212.453125 262.265625 212.289062 C 259.554688 212.128906 256.964844 213.421875 255.46875 215.691406 C 253.976562 217.953125 253.800781 220.847656 255.015625 223.273438 C 259.472656 232.269531 268.652344 237.949219 278.6875 237.921875 C 281.957031 237.898438 285.191406 237.261719 288.222656 236.042969 C 290.9375 238.417969 293.925781 240.460938 297.125 242.121094 C 307.953125 247.734375 320.542969 248.898438 332.214844 245.367188 C 324.707031 255.617188 313.472656 262.507812 300.933594 264.546875 C 297.03125 265.183594 294.269531 268.703125 294.578125 272.644531 C 294.890625 276.585938 298.171875 279.628906 302.125 279.644531 C 302.53125 279.644531 302.933594 279.613281 303.332031 279.550781 C 307.957031 278.75 312.480469 277.429688 316.808594 275.617188 C 319.148438 279.753906 321.050781 284.125 322.476562 288.660156 C 322.738281 289.453125 322.871094 290.28125 322.871094 291.113281 C 322.871094 294.398438 320.910156 297.363281 317.890625 298.648438 C 314.394531 300 310.425781 298.9375 308.082031 296.015625 C 302.199219 289.105469 294.492188 283.984375 285.84375 281.238281 C 269.429688 275.738281 263.09375 270.824219 260.402344 265.472656 C 264.34375 264.984375 268.238281 264.167969 272.050781 263.042969 C 274.644531 262.246094 276.617188 260.125 277.222656 257.476562 C 277.828125 254.832031 276.976562 252.0625 274.988281 250.214844 C 273 248.367188 270.175781 247.71875 267.582031 248.519531 C 263.320312 249.828125 258.917969 250.632812 254.46875 250.925781 C 245.898438 251.597656 237.285156 250.296875 229.292969 247.128906 C 226.292969 245.957031 222.878906 246.808594 220.777344 249.246094 C 209.71875 261.953125 190.785156 264.113281 177.148438 254.226562 C 163.511719 244.335938 159.675781 225.671875 168.3125 211.210938 C 169.714844 208.875 169.761719 205.96875 168.4375 203.589844 C 167.113281 201.210938 164.621094 199.71875 161.898438 199.675781 C 159.175781 199.628906 156.640625 201.042969 155.238281 203.378906 C 153.425781 206.460938 151.96875 209.742188 150.894531 213.15625 C 144.910156 212.839844 140.195312 207.945312 140.097656 201.957031 L 140.097656 201.765625 C 140.09375 199.761719 139.289062 197.84375 137.863281 196.433594 C 136.4375 195.027344 134.507812 194.246094 132.503906 194.269531 C 128.289062 194.3125 124.898438 197.742188 124.90625 201.957031 C 124.9375 215.429688 135.097656 226.722656 148.492188 228.175781 C 148.519531 230.71875 148.753906 233.261719 149.183594 235.769531 C 132.222656 239.441406 114.628906 233.34375 103.574219 219.964844 C 92.523438 206.585938 89.855469 188.15625 96.660156 172.191406 C 98.359375 173.910156 100.257812 175.425781 102.3125 176.699219 C 105.902344 178.800781 110.511719 177.625 112.660156 174.0625 C 114.804688 170.5 113.6875 165.875 110.152344 163.683594 Z M 76.726562 224.742188 C 80.226562 224.222656 83.84375 223.769531 87.4375 223.296875 C 101.484375 245.742188 128.347656 256.640625 154.0625 250.328125 C 160.972656 263.441406 173.597656 272.585938 188.210938 275.0625 C 202.824219 277.539062 217.757812 273.0625 228.601562 262.960938 C 233.765625 264.5 239.082031 265.464844 244.457031 265.832031 C 248.125 279.75 258.730469 288.183594 281.011719 295.648438 C 287.019531 297.53125 292.378906 301.0625 296.480469 305.835938 C 301.042969 311.261719 307.75 314.410156 314.835938 314.460938 C 317.933594 314.457031 321 313.832031 323.851562 312.621094 C 332.464844 308.941406 338.050781 300.480469 338.050781 291.113281 C 338.058594 288.671875 337.667969 286.246094 336.894531 283.925781 C 335.1875 278.558594 332.9375 273.378906 330.179688 268.46875 C 343.097656 259.179688 352.097656 245.417969 355.425781 229.859375 C 357.042969 227.9375 358.507812 225.890625 359.800781 223.738281 C 362.347656 224.0625 364.890625 224.351562 367.449219 224.777344 L 394.875 389.738281 C 341.269531 371.835938 283.296875 371.835938 229.6875 389.738281 L 229.6875 294.640625 C 229.6875 290.445312 226.289062 287.042969 222.09375 287.042969 C 217.898438 287.042969 214.496094 290.445312 214.496094 294.640625 L 214.496094 389.765625 C 160.894531 371.851562 102.921875 371.828125 49.308594 389.707031 Z M 14.324219 420.992188 C 12.890625 419.257812 12.304688 416.972656 12.730469 414.761719 L 45.996094 243.96875 L 58.152344 243.96875 L 34.3125 387.238281 C 33.472656 392.453125 35.394531 397.730469 39.386719 401.1875 C 43.382812 404.644531 48.878906 405.785156 53.921875 404.210938 C 94.417969 391.089844 137.566406 388.351562 179.398438 396.246094 L 177.132812 423.785156 L 20.242188 423.785156 C 17.953125 423.789062 15.78125 422.761719 14.324219 420.992188 Z M 222.09375 438.980469 C 203.792969 438.980469 193.292969 433.570312 191.75 431.164062 L 194.363281 399.636719 C 202.71875 401.714844 210.890625 404.457031 218.808594 407.832031 C 219.835938 408.328125 220.957031 408.585938 222.09375 408.59375 C 223.230469 408.589844 224.355469 408.332031 225.382812 407.832031 C 233.296875 404.4375 241.46875 401.675781 249.820312 399.582031 L 252.433594 431.15625 C 250.890625 433.570312 240.394531 438.980469 222.09375 438.980469 Z M 429.859375 420.992188 C 428.40625 422.761719 426.234375 423.789062 423.941406 423.785156 L 267.074219 423.785156 L 264.792969 396.195312 C 306.648438 388.3125 349.816406 391.074219 390.324219 404.222656 C 395.363281 405.78125 400.851562 404.621094 404.828125 401.15625 C 408.808594 397.695312 410.710938 392.421875 409.863281 387.214844 L 386.046875 243.976562 L 398.203125 243.976562 L 431.476562 414.753906 C 431.898438 416.96875 431.304688 419.257812 429.859375 420.992188 Z M 429.859375 420.992188 " fill-opacity="1" fill-rule="nonzero"/><path fill="#ef0b0d" d="M 196.921875 178.28125 C 193.8125 181.09375 193.570312 185.894531 196.382812 189.007812 C 202.824219 196.121094 211.34375 201.03125 220.730469 203.046875 C 216.476562 209.035156 209.585938 212.589844 202.238281 212.578125 C 198.042969 212.578125 194.640625 215.980469 194.640625 220.175781 C 194.640625 224.371094 198.042969 227.773438 202.238281 227.773438 C 217.964844 227.835938 232.078125 218.121094 237.632812 203.410156 C 256.523438 200.28125 271.476562 185.738281 275.136719 166.945312 C 275.703125 164.257812 274.773438 161.472656 272.707031 159.664062 C 270.640625 157.855469 267.757812 157.304688 265.167969 158.21875 C 262.578125 159.136719 260.683594 161.382812 260.21875 164.089844 C 258.726562 171.921875 254.207031 178.855469 247.636719 183.378906 C 235 191.890625 218.046875 189.957031 207.648438 178.820312 C 204.832031 175.710938 200.03125 175.46875 196.921875 178.28125 Z M 196.921875 178.28125 " fill-opacity="1" fill-rule="nonzero"/><path fill="#ef0b0d" d="M 170.4375 170.035156 C 174.632812 170.035156 178.03125 166.632812 178.03125 162.4375 C 178.03125 157.199219 180.113281 152.175781 183.816406 148.472656 C 187.523438 144.765625 192.546875 142.6875 197.785156 142.6875 C 201.980469 142.6875 205.382812 139.285156 205.382812 135.089844 C 205.382812 130.894531 201.980469 127.492188 197.785156 127.492188 C 178.492188 127.515625 162.859375 143.148438 162.839844 162.4375 C 162.839844 164.453125 163.640625 166.386719 165.0625 167.808594 C 166.488281 169.234375 168.421875 170.035156 170.4375 170.035156 Z M 170.4375 170.035156 " fill-opacity="1" fill-rule="nonzero"/><path fill="#ef0b0d" d="M 229.691406 21.144531 L 229.691406 13.546875 C 229.691406 9.351562 226.289062 5.949219 222.09375 5.949219 C 217.898438 5.949219 214.496094 9.351562 214.496094 13.546875 L 214.496094 21.144531 C 214.496094 25.339844 217.898438 28.742188 222.09375 28.742188 C 226.289062 28.742188 229.691406 25.339844 229.691406 21.144531 Z M 229.691406 21.144531 " fill-opacity="1" fill-rule="nonzero"/><path fill="#ef0b0d" d="M 346.757812 60.460938 L 339.160156 68.058594 C 337.183594 69.964844 336.390625 72.789062 337.085938 75.445312 C 337.78125 78.101562 339.855469 80.175781 342.511719 80.871094 C 345.167969 81.566406 347.992188 80.773438 349.902344 78.800781 L 357.5 71.203125 C 359.472656 69.296875 360.265625 66.472656 359.570312 63.816406 C 358.875 61.160156 356.800781 59.085938 354.144531 58.390625 C 351.488281 57.695312 348.664062 58.484375 346.757812 60.460938 Z M 346.757812 60.460938 " fill-opacity="1" fill-rule="nonzero"/><path fill="#ef0b0d" d="M 99.648438 81.027344 C 102.722656 81.023438 105.492188 79.175781 106.667969 76.335938 C 107.84375 73.496094 107.191406 70.230469 105.019531 68.058594 L 97.421875 60.460938 C 95.515625 58.484375 92.691406 57.695312 90.035156 58.390625 C 87.378906 59.085938 85.304688 61.160156 84.609375 63.816406 C 83.914062 66.472656 84.707031 69.296875 86.683594 71.203125 L 94.277344 78.800781 C 95.703125 80.222656 97.636719 81.027344 99.648438 81.027344 Z M 99.648438 81.027344 " fill-opacity="1" fill-rule="nonzero"/><path fill="#ef0b0d" d="M 158.125 49.050781 C 159.121094 49.050781 160.109375 48.855469 161.035156 48.476562 C 162.894531 47.703125 164.375 46.222656 165.144531 44.363281 C 165.917969 42.5 165.914062 40.40625 165.144531 38.546875 L 156.414062 17.488281 C 155.414062 14.921875 153.105469 13.097656 150.378906 12.722656 C 147.652344 12.34375 144.933594 13.472656 143.273438 15.667969 C 141.617188 17.863281 141.273438 20.785156 142.382812 23.304688 L 151.105469 44.363281 C 152.28125 47.203125 155.050781 49.054688 158.125 49.050781 Z M 158.125 49.050781 " fill-opacity="1" fill-rule="nonzero"/><path fill="#ef0b0d" d="M 297.671875 13.382812 C 293.796875 11.78125 289.355469 13.621094 287.75 17.492188 L 279.019531 38.550781 C 278.246094 40.414062 278.246094 42.507812 279.015625 44.375 C 279.785156 46.238281 281.265625 47.71875 283.132812 48.488281 C 284.054688 48.867188 285.042969 49.066406 286.039062 49.066406 C 289.113281 49.066406 291.882812 47.21875 293.058594 44.378906 L 301.78125 23.320312 C 302.554688 21.457031 302.558594 19.363281 301.789062 17.5 C 301.015625 15.636719 299.535156 14.15625 297.671875 13.382812 Z M 297.671875 13.382812 " fill-opacity="1" fill-rule="nonzero"/><path fill="#ef0b0d" d="M 376.488281 139.507812 C 377.488281 139.507812 378.476562 139.308594 379.398438 138.921875 L 400.449219 130.203125 C 402.957031 129.164062 404.71875 126.867188 405.074219 124.175781 C 405.429688 121.484375 404.320312 118.808594 402.167969 117.15625 C 400.015625 115.503906 397.144531 115.125 394.636719 116.164062 L 373.578125 124.882812 C 370.21875 126.265625 368.304688 129.832031 369.015625 133.394531 C 369.722656 136.957031 372.855469 139.519531 376.488281 139.507812 Z M 376.488281 139.507812 " fill-opacity="1" fill-rule="nonzero"/><path fill="#ef0b0d" d="M 64.769531 138.925781 C 68.648438 140.53125 73.09375 138.691406 74.699219 134.816406 C 76.304688 130.9375 74.464844 126.492188 70.589844 124.886719 L 49.53125 116.164062 C 45.65625 114.558594 41.210938 116.402344 39.605469 120.277344 C 38 124.15625 39.84375 128.597656 43.71875 130.203125 Z M 64.769531 138.925781 " fill-opacity="1" fill-rule="nonzero"/></svg>