<?xml version="1.0" encoding="utf-8"?>
<svg xmlns="http://www.w3.org/2000/svg" width="64" height="64">
<style type="text/css">
	.st0{fill-rule:evenodd;clip-rule:evenodd;}
</style>
<g fill="#7E8895">
	<path class="st0" d="M30,1c16,0,29,13,29,29S46,59,30,59C14,59,1,46,1,30S14,1,30,1L30,1z M30,2.4c15.2,0,27.6,12.3,27.6,27.6
		S45.2,57.6,30,57.6C14.8,57.6,2.5,45.2,2.5,30S14.8,2.4,30,2.4L30,2.4z"/>
</g>
<g fill="#7E8895">
	<path class="st0" d="M51.4,27.2c0.3,0.5,0.5,1,0.5,1.6c0,1-0.5,1.8-1.2,2.4c-0.2,0-0.5,0.1-0.7,0.1c-0.2,0-0.4-0.2-0.6-0.2
		c1.1-0.2,2-1.2,2-2.4c0-0.6-0.2-1.1-0.5-1.5L51.4,27.2L51.4,27.2z M47.5,10.4c0.2,0.2,0.4,0.4,0.6,0.6c-2.1,2-5.1,5.8-4.9,7.7
		c3.4-0.3,6.8-0.5,10.2-0.7c1.4,2.8,2.3,5.8,2.7,9.1c-5.8-0.2-11.6-0.5-17.5-0.8c0.5,1.9,0.5,2.7,1.2,3.3c0-0.1-0.1-0.2-0.1-0.3
		c-0.1-0.3-0.1-0.6-0.1-0.9c0-0.6,0.2-1.2,0.5-1.6l0.5,0c-0.3,0.4-0.5,0.9-0.5,1.4c0,0.6,0.2,1.2,0.6,1.6c-0.1,0-0.2,0-0.4,0
		c0.4,0.2,1,0.3,1.7,0.5c1.5,0.4,3.3,0.6,5.1,0.8c-0.2-0.1-0.3-0.2-0.4-0.2c-0.5-0.5-0.8-1.2-0.8-2c0-0.7,0.2-1.3,0.6-1.9l0.5,0
		c-0.4,0.4-0.6,1-0.6,1.7c0,1,0.6,1.9,1.5,2.3c-0.2,0-0.3,0.1-0.4,0.1c1.4,0.1,2.7,0.3,3.9,0.4c1.7,0.2,2.2,0.8,3.4,1.5
		c0.4,0.1,0.8,0.1,1.2,0.1c-0.2,1.8-0.7,3.6-1.2,5.2c-4.1-0.2-8.3-0.5-12.6-0.9c-2.5-0.2-4.7,1.8-5.9,4.9c2.6-3.5,4.1-4.1,6.2-4
		c4,0.4,8,0.6,12,0.7c-0.6,1.5-1.3,3-2.2,4.3c-0.7,0-1.4,0-2.1-0.1c0.7,0.1,1.3,0.1,2,0.2c-1,1.6-2.2,3.1-3.5,4.4
		c-1.7,0-3.3,0-5-0.1c-0.3,1.8-0.7,2.9-1.8,2.8l-8.3-0.3c-2.3-0.1-2.3-7.6-2.2-11.5c0-1.8,0.1-3.5,0.2-5.2c0-3,0.2-6,0.3-8.9
		c0-0.5,0.4-0.9,0.9-1.1c2.6-0.9,5.1-1.8,7.1-3.3c-2.7,0-5-1.5-5-2.4c0.4-1.3,2.9-2.1,5.8-1.7c0.5,0.1,0.5,0.4,0.4,0.6
		c-0.4,0.7,0.1,1.2,0.6,1.5C43.3,15.4,44.4,12.8,47.5,10.4L47.5,10.4z M9.6,13.9c0.3-0.3,0.5-0.7,0.8-1l13.5,7.7l-0.6,1.1L9.6,13.9
		L9.6,13.9z M45.2,27c0.2,0.4,0.3,0.9,0.3,1.4c0,0.9-0.4,1.7-1,2.3c-0.2,0-0.4,0.1-0.6,0c-0.1,0-0.2-0.2-0.4-0.2
		c0.9-0.4,1.5-1.3,1.5-2.3c0-0.5-0.1-0.9-0.3-1.2L45.2,27L45.2,27z M41.6,19.7c2.5,2.1,5.3,3.8,8.7,5.2C47.7,22.7,44.9,21,41.6,19.7
		L41.6,19.7z M32.7,19.9l0.3,0.6c0.1,0.2,0,0.4-0.1,0.5l-8.7,5c-0.2,0.1-0.4,0-0.5-0.1l-0.3-0.6c-0.1-0.2,0-0.4,0.1-0.5l8.7-5
		C32.4,19.7,32.6,19.7,32.7,19.9L32.7,19.9z M32.9,21.4c0.5,0.7,2.8,0.8,3.5,0.9c-0.6,0.3-2.4,0.9-2.9,1.1c-0.5,0-0.8-0.2-1.1-0.6
		c0.1,0.3,0.3,0.7,0.6,0.8c-2,0.6-1.5,1.8-1.7,2.9c-0.4-0.7-0.9-1.4-1.6-2.1c0.6,0.7,1.1,1.6,1.5,2.3c-0.5,1-1.3,1.4-2.3,1.8
		c-0.2-0.9-1.1-2-1.5-2.9c0.5,1,0.9,2.1,1,3c-0.6,0.4-1.6,0.7-2.2,1.2c-0.2,0.1-0.3,0.3-0.5,0.4c-0.2-1.3-0.7-2.7-1.3-4.1L32.9,21.4
		L32.9,21.4z M24.4,20.3l3.2,1.9l-2.3,1.3l-2.1-1.2L24.4,20.3L24.4,20.3z M27,31c0.2-0.5,0.5-0.9,0.9-1.2c0.4-0.2,1-0.3,1.5-0.2
		c0.5,0.2,0.9,0.5,1.2,0.9c0.2,0.4,0.3,1,0.2,1.5c-0.2,0.5-0.5,0.9-0.9,1.2c-0.4,0.2-1,0.3-1.5,0.2c-0.5-0.2-0.9-0.5-1.2-0.9
		C26.9,32.1,26.8,31.6,27,31L27,31z M28,30.1c-0.4,0.2-0.7,0.5-0.8,1c-0.1,0.4-0.1,0.9,0.1,1.3c0.2,0.4,0.5,0.7,1,0.8
		c0.4,0.1,0.9,0.1,1.3-0.1c0.4-0.2,0.7-0.5,0.8-1c0.1-0.4,0.1-0.9-0.1-1.3c-0.2-0.4-0.5-0.7-1-0.8C28.9,29.9,28.4,29.9,28,30.1
		L28,30.1z M25.8,37.9c0.1-0.4,0.4-0.8,0.8-1c0.4-0.2,0.8-0.3,1.3-0.1c0.4,0.1,0.8,0.4,1,0.8c0.2,0.4,0.3,0.8,0.1,1.3
		c-0.1,0.4-0.4,0.8-0.8,1C27.9,40,27.4,40.1,27,40c-0.4-0.1-0.8-0.4-1-0.8C25.8,38.8,25.7,38.4,25.8,37.9L25.8,37.9z M26.8,37.2
		c-0.3,0.2-0.5,0.4-0.6,0.8c-0.1,0.4-0.1,0.7,0.1,1c0.2,0.3,0.4,0.5,0.8,0.6c0.4,0.1,0.7,0.1,1-0.1c0.3-0.2,0.5-0.4,0.6-0.8
		c0.1-0.4,0.1-0.7-0.1-1c-0.2-0.3-0.4-0.5-0.8-0.6C27.5,37,27.1,37,26.8,37.2L26.8,37.2z M27.4,41.4c0.1-0.3,0.3-0.6,0.6-0.7
		c0.3-0.1,0.6-0.2,0.9-0.1c0.3,0.1,0.6,0.3,0.7,0.6c0.1,0.3,0.2,0.6,0.1,0.9c-0.1,0.3-0.3,0.6-0.6,0.7c-0.3,0.1-0.6,0.2-0.9,0.1
		c-0.3-0.1-0.6-0.3-0.7-0.6C27.4,42.1,27.3,41.8,27.4,41.4L27.4,41.4z M28.1,41c-0.2,0.1-0.4,0.3-0.4,0.5c-0.1,0.2,0,0.5,0.1,0.7
		c0.1,0.2,0.3,0.4,0.5,0.4c0.2,0.1,0.5,0,0.7-0.1c0.2-0.1,0.4-0.3,0.4-0.5c0.1-0.2,0-0.5-0.1-0.7c-0.1-0.2-0.3-0.4-0.5-0.4
		C28.6,40.8,28.3,40.9,28.1,41L28.1,41z M21.5,33.7c0.1-0.3,0.3-0.6,0.6-0.7c0.3-0.1,0.6-0.2,0.9-0.1h0l0,0c0.3,0.1,0.6,0.3,0.7,0.6
		c0.1,0.3,0.2,0.6,0.1,0.9v0l0,0c-0.1,0.3-0.3,0.6-0.6,0.7c-0.3,0.1-0.6,0.2-0.9,0.1c-0.3-0.1-0.6-0.3-0.7-0.6
		C21.4,34.3,21.4,34,21.5,33.7L21.5,33.7z M22.2,33.2c-0.2,0.1-0.4,0.3-0.4,0.5c-0.1,0.2,0,0.5,0.1,0.7c0.1,0.2,0.3,0.4,0.5,0.4
		c0.2,0.1,0.5,0,0.7-0.1c0.2-0.1,0.4-0.3,0.4-0.5l0,0c0.1-0.2,0-0.5-0.1-0.7c-0.1-0.2-0.3-0.4-0.5-0.4l0,0
		C22.6,33.1,22.4,33.1,22.2,33.2L22.2,33.2z M24.5,43.6c0.1-0.2,0.2-0.4,0.4-0.5c0.2-0.1,0.4-0.1,0.7-0.1c0.2,0.1,0.4,0.2,0.5,0.4
		c0.1,0.2,0.1,0.4,0.1,0.7c-0.1,0.2-0.2,0.4-0.4,0.5c-0.2,0.1-0.4,0.1-0.7,0.1c-0.2-0.1-0.4-0.2-0.5-0.4
		C24.4,44.1,24.4,43.9,24.5,43.6L24.5,43.6z M25,43.4c-0.1,0.1-0.2,0.2-0.3,0.4c0,0.2,0,0.3,0.1,0.5c0.1,0.1,0.2,0.2,0.4,0.3
		c0.2,0,0.3,0,0.5-0.1c0.1-0.1,0.2-0.2,0.3-0.4c0-0.2,0-0.3-0.1-0.5c-0.1-0.1-0.2-0.2-0.4-0.3C25.3,43.3,25.2,43.3,25,43.4L25,43.4z
		 M28.7,35.4L28.7,35.4L28.7,35.4c0.1-0.3,0.2-0.5,0.4-0.6c0.2-0.1,0.4-0.1,0.7-0.1h0l0,0c0.2,0.1,0.4,0.2,0.5,0.4
		c0.1,0.2,0.1,0.4,0.1,0.7v0l0,0c-0.1,0.2-0.2,0.4-0.4,0.5c-0.2,0.1-0.4,0.1-0.7,0.1c-0.2-0.1-0.4-0.2-0.5-0.4
		C28.7,35.9,28.7,35.6,28.7,35.4L28.7,35.4z M29.3,35.1c-0.1,0.1-0.2,0.2-0.3,0.3l0,0c0,0.2,0,0.3,0.1,0.5c0.1,0.1,0.2,0.2,0.4,0.3
		c0.2,0,0.3,0,0.5-0.1c0.1-0.1,0.2-0.2,0.3-0.3l0,0c0-0.2,0-0.3-0.1-0.5c-0.1-0.1-0.2-0.2-0.3-0.3l0,0C29.6,35,29.4,35,29.3,35.1
		L29.3,35.1z M29.8,35.1L29.8,35.1L29.8,35.1L29.8,35.1z M21.2,38.7c0.1-0.5,0.5-0.9,0.9-1.2c0.4-0.2,1-0.3,1.5-0.2
		c0.5,0.1,0.9,0.5,1.2,0.9c0.2,0.4,0.3,1,0.2,1.5c-0.1,0.5-0.5,0.9-0.9,1.2c-0.4,0.2-1,0.3-1.5,0.2c-0.5-0.1-0.9-0.5-1.2-0.9
		C21.1,39.8,21.1,39.2,21.2,38.7L21.2,38.7z M22.3,37.8c-0.4,0.2-0.7,0.5-0.8,1c-0.1,0.4-0.1,0.9,0.1,1.2c0.2,0.4,0.5,0.7,1,0.8
		c0.4,0.1,0.9,0.1,1.2-0.1c0.4-0.2,0.7-0.5,0.8-1c0.1-0.4,0.1-0.9-0.1-1.2c-0.2-0.4-0.5-0.7-1-0.8C23.1,37.6,22.7,37.6,22.3,37.8
		L22.3,37.8z M24.1,34.1c0.1-0.4,0.4-0.8,0.8-1c0.4-0.2,0.8-0.3,1.2-0.1h0l0,0c0.4,0.1,0.8,0.4,1,0.8c0.2,0.4,0.3,0.8,0.1,1.2v0l0,0
		c-0.1,0.4-0.4,0.8-0.8,1c-0.4,0.2-0.8,0.3-1.3,0.1c-0.4-0.1-0.8-0.4-1-0.8C24.1,35,24,34.5,24.1,34.1L24.1,34.1z M25.1,33.4
		c-0.3,0.2-0.5,0.4-0.6,0.8c-0.1,0.4-0.1,0.7,0.1,1c0.2,0.3,0.4,0.5,0.8,0.6c0.4,0.1,0.7,0.1,1-0.1c0.3-0.2,0.5-0.4,0.6-0.8l0,0
		c0.1-0.4,0.1-0.7-0.1-1c-0.2-0.3-0.4-0.5-0.8-0.6l0,0C25.7,33.1,25.4,33.2,25.1,33.4L25.1,33.4z M23.8,31.2
		c0.1-0.2,0.2-0.4,0.4-0.5c0.2-0.1,0.4-0.1,0.7-0.1c0.2,0.1,0.4,0.2,0.5,0.4c0.1,0.2,0.1,0.4,0.1,0.7c-0.1,0.2-0.2,0.4-0.4,0.5
		c-0.2,0.1-0.4,0.1-0.7,0.1c-0.2-0.1-0.4-0.2-0.5-0.4C23.7,31.6,23.7,31.4,23.8,31.2L23.8,31.2z M24.3,30.9
		c-0.1,0.1-0.2,0.2-0.3,0.4c0,0.2,0,0.3,0.1,0.5c0.1,0.1,0.2,0.2,0.4,0.3c0.2,0,0.3,0,0.5-0.1c0.1-0.1,0.2-0.2,0.3-0.4
		c0-0.2,0-0.3-0.1-0.5c-0.1-0.1-0.2-0.2-0.4-0.3C24.6,30.8,24.5,30.8,24.3,30.9L24.3,30.9z"/>
</g>
</svg>
