<?xml version="1.0" encoding="utf-8"?>
<svg xmlns="http://www.w3.org/2000/svg" width="64" height="64">
<style type="text/css">
	.st0{fill-rule:evenodd;clip-rule:evenodd;}
</style>
<g fill="#7E8895">
	<path class="st0" d="M30,1c16,0,29,13,29,29S46,59,30,59S1,46,1,30S14,1,30,1L30,1z M30,2.4c15.2,0,27.6,12.3,27.6,27.6
		S45.2,57.6,30,57.6S2.5,45.2,2.5,30S14.8,2.4,30,2.4L30,2.4z"/>
</g>
<g fill="#7E8895">
	<path class="st0" d="M15.7,16.5l3.2,1.9l-2.3,1.3l-2.1-1.2L15.7,16.5L15.7,16.5z M24.2,17.7c0.5,0.7,3.4,1.4,4.2,1.4
		c-0.6,0.4-1.7,1.5-2.2,1.7c-0.5,0-2.2-1.3-2.5-1.7c0.1,0.3,1.7,1.9,2.1,2c-1.6,1.2-1.8,1.6-2.7,2c-0.4-0.7-1.3-1.7-2-2.5
		c0.6,0.7,1.3,1.9,1.7,2.6c-0.8,0.9-1.5,1.1-2.5,1.6c-0.2-0.9-1.1-2-1.5-2.9c0.5,1,0.9,2.1,1,3c-0.6,0.4-1.6,0.7-2.2,1.2
		c-0.2,0.1-0.3,0.3-0.5,0.4c-0.2-1.3-0.7-2.7-1.3-4.1L24.2,17.7L24.2,17.7z M24.1,16.2l0.3,0.6c0.1,0.2,0,0.4-0.1,0.5l-8.7,5
		c-0.2,0.1-0.4,0-0.5-0.1l-0.3-0.6c-0.1-0.2,0-0.4,0.1-0.5l8.7-5C23.7,16,24,16,24.1,16.2L24.1,16.2z M9.7,13.7l5.6,3.2L14.6,18
		l-5.7-3.3C9.1,14.3,9.4,14,9.7,13.7L9.7,13.7z"/>
	<path class="st0" d="M41.7,19.5c2.5,2.1,5.4,3.8,8.7,5.2C47.8,22.6,44.9,20.8,41.7,19.5L41.7,19.5z M45.2,26.8
		c0.2,0.4,0.3,0.9,0.3,1.4c0,0.9-0.4,1.7-1,2.3c-0.2,0-0.4,0.1-0.6,0c-0.1,0-0.2-0.2-0.4-0.2c0.9-0.4,1.5-1.3,1.5-2.3
		c0-0.5-0.1-0.9-0.3-1.2L45.2,26.8L45.2,26.8z M47.5,10.2c0.2,0.2,0.4,0.4,0.6,0.6c-2.1,2-5.1,5.8-5,7.7c3.4-0.3,6.8-0.5,10.2-0.7
		c1.4,2.8,2.3,5.8,2.7,9.1c-5.9-0.2-11.6-0.5-17.6-0.8c0.5,1.9,0.5,2.8,1.2,3.3c0-0.1-0.1-0.2-0.1-0.3c-0.1-0.3-0.1-0.6-0.1-0.9
		c0-0.6,0.2-1.2,0.5-1.6l0.5,0C40.2,27,40,27.5,40,28c0,0.6,0.2,1.2,0.6,1.6c-0.1,0-0.2,0-0.4,0c0.4,0.2,1,0.3,1.7,0.5
		c1.5,0.4,3.3,0.6,5.1,0.8c-0.2-0.1-0.3-0.2-0.4-0.2c-0.5-0.5-0.8-1.2-0.8-2c0-0.7,0.2-1.4,0.6-1.9l0.5,0c-0.4,0.4-0.7,1-0.7,1.7
		c0,1,0.6,1.9,1.5,2.3c-0.2,0-0.3,0.1-0.4,0.1c1.4,0.1,2.7,0.3,3.9,0.4c1.7,0.2,2.2,0.8,3.5,1.5c0.4,0.1,0.8,0.1,1.2,0.1
		c-0.2,1.8-0.7,3.6-1.2,5.2c-4.1-0.2-8.3-0.5-12.6-0.9c-2.5-0.2-4.7,1.8-5.9,4.9c2.6-3.5,4.1-4.1,6.2-4c4,0.4,8,0.6,12,0.7
		c-0.6,1.5-1.3,3-2.2,4.3c-0.7,0-1.4,0-2.1-0.1c0.7,0.1,1.3,0.1,2,0.2c-1,1.6-2.2,3.1-3.5,4.4c-1.7,0-3.3-0.1-5-0.1
		c-0.3,1.8-0.7,2.9-1.8,2.8l-8.3-0.3c-2.3-0.1-2.3-7.6-2.2-11.5c0-1.8,0.1-3.5,0.2-5.2c0-3,0.2-6,0.3-8.9c0-0.5,0.4-1,0.9-1.1
		c2.6-0.9,5.1-1.8,7.1-3.3c-2.7,0-5.1-1.5-5-2.4c0.4-1.3,2.9-2.1,5.8-1.7c0.5,0.1,0.5,0.4,0.4,0.6c-0.4,0.7,0.1,1.2,0.6,1.5
		C43.4,15.2,44.5,12.6,47.5,10.2L47.5,10.2z M51.4,27.1c0.3,0.5,0.5,1,0.5,1.6c0,1-0.5,1.8-1.2,2.4c-0.2,0-0.5,0.1-0.7,0.1
		c-0.2,0-0.4-0.2-0.6-0.2c1.1-0.2,2-1.2,2-2.4c0-0.6-0.2-1.1-0.5-1.5L51.4,27.1L51.4,27.1z"/>
	<path class="st0" d="M24.1,24.3L24.1,24.3c-0.1-0.1-0.1-0.1-0.2-0.1c-0.1,0-0.2,0-0.2,0.1l0,0c-0.1,0.1-0.1,0.1-0.1,0.2
		c0,0.1,0,0.2,0.1,0.2l0,0c0.1,0.1,0.1,0.1,0.2,0.1c0.1,0,0.2,0,0.2-0.1c0.1-0.1,0.1-0.1,0.1-0.2S24.1,24.3,24.1,24.3L24.1,24.3z
		 M24.7,23.3c-0.1-0.1-0.1-0.1-0.2-0.1s-0.2,0-0.2,0.1v0c-0.1,0.1-0.1,0.1-0.1,0.2c0,0.1,0,0.2,0.1,0.2v0c0.1,0.1,0.1,0.1,0.2,0.1
		s0.2,0,0.2-0.1l0,0c0.1-0.1,0.1-0.1,0.1-0.2C24.8,23.4,24.7,23.3,24.7,23.3L24.7,23.3z M24.5,22.9c0.2,0,0.3,0.1,0.4,0.2
		c0.1,0.1,0.2,0.3,0.2,0.4c0,0.2-0.1,0.3-0.2,0.4l0,0c-0.1,0.1-0.3,0.2-0.4,0.2c-0.1,0-0.1,0-0.2,0l0,0v0c0.1,0.1,0.2,0.3,0.2,0.4
		c0,0.2-0.1,0.3-0.2,0.4c-0.1,0.1-0.3,0.2-0.4,0.2c-0.2,0-0.3-0.1-0.4-0.2v0c-0.1-0.1-0.2-0.3-0.2-0.4c0-0.2,0.1-0.3,0.2-0.4v0
		c0.1-0.1,0.3-0.2,0.4-0.2c0.1,0,0.1,0,0.2,0l0,0h0c-0.1-0.1-0.2-0.3-0.2-0.4c0-0.2,0.1-0.3,0.2-0.4h0C24.2,23,24.3,22.9,24.5,22.9
		L24.5,22.9z M25.2,22.2L25.2,22.2c-0.1-0.1-0.1-0.1-0.2-0.1c-0.1,0-0.2,0-0.2,0.1l0,0c-0.1,0.1-0.1,0.1-0.1,0.2
		c0,0.1,0,0.2,0.1,0.2h0c0.1,0.1,0.1,0.1,0.2,0.1c0.1,0,0.2,0,0.2-0.1l0,0c0.1-0.1,0.1-0.1,0.1-0.2C25.3,22.3,25.3,22.2,25.2,22.2
		L25.2,22.2z M25,21.8c0.2,0,0.3,0.1,0.4,0.2v0c0.1,0.1,0.2,0.3,0.2,0.4c0,0.2-0.1,0.3-0.2,0.4l0,0C25.4,22.9,25.2,23,25,23
		c-0.2,0-0.3-0.1-0.4-0.2h0c-0.1-0.1-0.2-0.3-0.2-0.4c0-0.2,0.1-0.3,0.2-0.4l0,0C24.7,21.8,24.9,21.8,25,21.8L25,21.8z M31.2,31.5
		c-0.1-0.1-0.2-0.2-0.4-0.2c-0.2,0-0.3,0.1-0.4,0.2l0,0c-0.1,0.1-0.2,0.2-0.2,0.4c0,0.2,0.1,0.3,0.2,0.4l0,0
		c0.1,0.1,0.2,0.2,0.4,0.2c0.2,0,0.3-0.1,0.4-0.2l0,0c0.1-0.1,0.2-0.2,0.2-0.4C31.4,31.7,31.3,31.6,31.2,31.5L31.2,31.5L31.2,31.5z
		 M30.8,31c0.2,0,0.4,0.1,0.6,0.2h0c0.3,0.3,0.3,0.9,0,1.2l0,0c-0.2,0.2-0.4,0.2-0.6,0.2c-0.2,0-0.4-0.1-0.6-0.2h0
		c-0.2-0.2-0.2-0.4-0.2-0.6c0-0.2,0.1-0.5,0.2-0.6h0C30.4,31.1,30.6,31,30.8,31L30.8,31z M29.4,29.7c-0.1-0.1-0.2-0.1-0.3-0.1
		c-0.1,0-0.3,0.1-0.3,0.1h0c-0.1,0.1-0.1,0.2-0.1,0.3c0,0.1,0.1,0.3,0.1,0.3c0.1,0.1,0.2,0.1,0.3,0.1c0.1,0,0.3-0.1,0.3-0.1l0,0
		c0.1-0.1,0.1-0.2,0.1-0.3C29.6,29.9,29.5,29.8,29.4,29.7L29.4,29.7L29.4,29.7z M29.1,29.2c0.2,0,0.4,0.1,0.6,0.2h0
		c0.1,0.1,0.2,0.3,0.2,0.6c0,0.2-0.1,0.4-0.2,0.6h0c-0.1,0.1-0.3,0.2-0.6,0.2c-0.2,0-0.4-0.1-0.6-0.2c-0.1-0.1-0.2-0.3-0.2-0.6
		c0-0.2,0.1-0.4,0.2-0.6v0C28.7,29.3,28.9,29.2,29.1,29.2L29.1,29.2z M27.6,27.9c-0.1-0.1-0.2-0.1-0.3-0.1c-0.1,0-0.2,0-0.3,0.1
		c-0.1,0.1-0.1,0.2-0.1,0.3c0,0.1,0,0.2,0.1,0.3v0c0.1,0.1,0.2,0.1,0.3,0.1c0.1,0,0.2,0,0.3-0.1c0.1-0.1,0.1-0.2,0.1-0.3
		C27.8,28,27.7,27.9,27.6,27.9L27.6,27.9z M27.3,27.4c0.2,0,0.4,0.1,0.5,0.2c0.1,0.1,0.2,0.3,0.2,0.5c0,0.2-0.1,0.4-0.2,0.5
		c-0.1,0.1-0.3,0.2-0.5,0.2c-0.2,0-0.4-0.1-0.5-0.2v0c-0.1-0.1-0.2-0.3-0.2-0.5c0-0.2,0.1-0.4,0.2-0.5C27,27.5,27.1,27.4,27.3,27.4
		L27.3,27.4z M25.9,26.1C25.8,26,25.7,26,25.6,26c-0.1,0-0.2,0-0.2,0.1v0c-0.1,0.1-0.1,0.2-0.1,0.3c0,0.1,0,0.2,0.1,0.2l0,0
		c0.1,0.1,0.2,0.1,0.2,0.1c0.1,0,0.2,0,0.3-0.1h0c0.1-0.1,0.1-0.2,0.1-0.2C26,26.2,25.9,26.1,25.9,26.1L25.9,26.1z M25.6,25.7
		c0.2,0,0.3,0.1,0.5,0.2c0.1,0.1,0.2,0.3,0.2,0.5c0,0.2-0.1,0.3-0.2,0.5v0C26,26.9,25.8,27,25.6,27c-0.2,0-0.3-0.1-0.5-0.2l0,0
		c-0.1-0.1-0.2-0.3-0.2-0.5c0-0.2,0.1-0.3,0.2-0.5h0C25.3,25.7,25.4,25.7,25.6,25.7L25.6,25.7z M30.9,27.4L30.9,27.4
		c-0.1-0.1-0.2-0.2-0.4-0.2s-0.3,0.1-0.4,0.2c-0.1,0.1-0.2,0.2-0.2,0.4c0,0.1,0.1,0.3,0.2,0.4c0.1,0.1,0.2,0.2,0.4,0.2
		s0.3-0.1,0.4-0.2h0c0.1-0.1,0.2-0.2,0.2-0.4C31.1,27.6,31,27.5,30.9,27.4L30.9,27.4z M30.6,26.9c0.2,0,0.4,0.1,0.6,0.2v0
		c0.1,0.1,0.2,0.4,0.2,0.6c0,0.2-0.1,0.4-0.2,0.6v0c-0.1,0.1-0.4,0.2-0.6,0.2c-0.2,0-0.4-0.1-0.6-0.2l0,0c-0.1-0.1-0.2-0.4-0.2-0.6
		c0-0.2,0.1-0.4,0.2-0.6l0,0C30.1,27,30.4,26.9,30.6,26.9L30.6,26.9z M28.9,26c-0.1-0.1-0.2-0.1-0.3-0.1c-0.1,0-0.2,0.1-0.3,0.1h0
		c-0.1,0.1-0.1,0.2-0.1,0.3c0,0.1,0.1,0.2,0.1,0.3l0,0c0.1,0.1,0.2,0.1,0.3,0.1c0.1,0,0.2,0,0.3-0.1l0,0c0.1-0.1,0.1-0.2,0.1-0.3
		C29,26.2,28.9,26.1,28.9,26L28.9,26L28.9,26z M28.5,25.6c0.2,0,0.4,0.1,0.5,0.2h0c0.1,0.1,0.2,0.3,0.2,0.5c0,0.2-0.1,0.4-0.2,0.5
		l0,0c-0.1,0.1-0.3,0.2-0.5,0.2S28.1,27,28,26.9l0,0c-0.1-0.1-0.2-0.3-0.2-0.5c0-0.2,0.1-0.4,0.2-0.5h0
		C28.1,25.7,28.3,25.6,28.5,25.6L28.5,25.6z M26.8,24.6c-0.1-0.1-0.2-0.1-0.3-0.1c-0.1,0-0.2,0-0.3,0.1c-0.1,0.1-0.1,0.2-0.1,0.3
		c0,0.1,0,0.2,0.1,0.3c0.1,0.1,0.2,0.1,0.3,0.1c0.1,0,0.2,0,0.3-0.1l0,0c0.1-0.1,0.1-0.2,0.1-0.3C26.9,24.8,26.8,24.7,26.8,24.6
		L26.8,24.6L26.8,24.6z M26.5,24.2c0.2,0,0.4,0.1,0.5,0.2h0c0.1,0.1,0.2,0.3,0.2,0.5c0,0.2-0.1,0.4-0.2,0.5l0,0
		c-0.1,0.1-0.3,0.2-0.5,0.2c-0.2,0-0.4-0.1-0.5-0.2c-0.1-0.1-0.2-0.3-0.2-0.5c0-0.2,0.1-0.4,0.2-0.5C26.1,24.3,26.3,24.2,26.5,24.2
		L26.5,24.2z M31.8,24.7c-0.1-0.1-0.2-0.2-0.4-0.2c-0.1,0-0.3,0.1-0.4,0.2l0,0c-0.1,0.1-0.2,0.2-0.2,0.4c0,0.1,0.1,0.3,0.2,0.4h0
		c0.1,0.1,0.2,0.2,0.4,0.2c0.1,0,0.3-0.1,0.4-0.2c0.1-0.1,0.2-0.2,0.2-0.4C31.9,24.9,31.9,24.8,31.8,24.7L31.8,24.7z M31.4,24.2
		c0.2,0,0.4,0.1,0.6,0.2c0.1,0.1,0.2,0.4,0.2,0.6c0,0.2-0.1,0.4-0.2,0.6l0,0c-0.1,0.1-0.4,0.2-0.6,0.2c-0.2,0-0.4-0.1-0.6-0.2l0,0
		c-0.2-0.1-0.2-0.4-0.2-0.6c0-0.2,0.1-0.4,0.2-0.6l0,0C31,24.3,31.2,24.2,31.4,24.2L31.4,24.2z M29.6,23.8c-0.1-0.1-0.2-0.1-0.3-0.1
		c-0.1,0-0.2,0-0.3,0.1v0c-0.1,0.1-0.1,0.2-0.1,0.3s0.1,0.2,0.1,0.3l0,0c0.1,0.1,0.2,0.1,0.3,0.1c0.1,0,0.2-0.1,0.3-0.1l0,0
		c0.1-0.1,0.1-0.2,0.1-0.3S29.7,23.9,29.6,23.8L29.6,23.8L29.6,23.8z M29.3,23.4c0.2,0,0.4,0.1,0.5,0.2h0C30,23.8,30,24,30,24.2
		c0,0.2-0.1,0.4-0.2,0.5l0,0c-0.1,0.1-0.3,0.2-0.5,0.2c-0.2,0-0.4-0.1-0.5-0.2l0,0c-0.1-0.1-0.2-0.3-0.2-0.5c0-0.2,0.1-0.4,0.2-0.5
		h0C28.9,23.5,29.1,23.4,29.3,23.4L29.3,23.4z M27.4,23c-0.1-0.1-0.2-0.1-0.3-0.1c-0.1,0-0.2,0-0.3,0.1v0c-0.1,0.1-0.1,0.2-0.1,0.3
		c0,0.1,0,0.2,0.1,0.3l0,0c0.1,0.1,0.2,0.1,0.3,0.1c0.1,0,0.2,0,0.3-0.1l0,0c0.1-0.1,0.1-0.2,0.1-0.3C27.5,23.2,27.5,23.1,27.4,23
		L27.4,23z M27.2,22.6c0.2,0,0.4,0.1,0.5,0.2c0.1,0.1,0.2,0.3,0.2,0.5c0,0.2-0.1,0.4-0.2,0.5l0,0c-0.1,0.1-0.3,0.2-0.5,0.2
		c-0.2,0-0.4-0.1-0.5-0.2l0,0c-0.1-0.1-0.2-0.3-0.2-0.5c0-0.2,0.1-0.4,0.2-0.5v0C26.8,22.7,27,22.6,27.2,22.6L27.2,22.6z M33.2,22.1
		C33.1,22.1,33,22,32.8,22c-0.1,0-0.3,0.1-0.3,0.1l0,0c-0.1,0.1-0.1,0.2-0.1,0.3c0,0.1,0.1,0.3,0.1,0.3l0,0c0.1,0.1,0.2,0.1,0.3,0.1
		c0.1,0,0.3-0.1,0.3-0.1l0,0c0.1-0.1,0.1-0.2,0.1-0.3C33.3,22.4,33.3,22.2,33.2,22.1L33.2,22.1L33.2,22.1z M32.8,21.7
		c0.2,0,0.4,0.1,0.6,0.2h0c0.1,0.1,0.2,0.3,0.2,0.6c0,0.2-0.1,0.4-0.2,0.6l0,0c-0.1,0.1-0.3,0.2-0.6,0.2c-0.2,0-0.4-0.1-0.6-0.2l0,0
		c-0.1-0.1-0.2-0.3-0.2-0.6c0-0.2,0.1-0.4,0.2-0.6h0C32.4,21.8,32.6,21.7,32.8,21.7L32.8,21.7z M30.7,21.8c-0.1-0.1-0.2-0.1-0.3-0.1
		c-0.1,0-0.2,0-0.3,0.1C30,21.8,30,22,30,22.1c0,0.1,0,0.2,0.1,0.3c0.1,0.1,0.2,0.1,0.3,0.1c0.1,0,0.2,0,0.3-0.1
		c0.1-0.1,0.1-0.2,0.1-0.3C30.8,22,30.8,21.8,30.7,21.8L30.7,21.8z M30.4,21.3c0.2,0,0.4,0.1,0.5,0.2c0.1,0.1,0.2,0.3,0.2,0.5
		c0,0.2-0.1,0.4-0.2,0.5c-0.1,0.1-0.3,0.2-0.5,0.2c-0.2,0-0.4-0.1-0.5-0.2c-0.1-0.1-0.2-0.3-0.2-0.5c0-0.2,0.1-0.4,0.2-0.5
		C30,21.4,30.2,21.3,30.4,21.3L30.4,21.3z M28.2,21.4c-0.1-0.1-0.2-0.1-0.3-0.1c-0.1,0-0.2,0-0.2,0.1h0c-0.1,0.1-0.1,0.2-0.1,0.2
		c0,0.1,0,0.2,0.1,0.3l0,0C27.8,22,27.9,22,28,22c0.1,0,0.2,0,0.3-0.1c0.1-0.1,0.1-0.2,0.1-0.3C28.3,21.5,28.3,21.5,28.2,21.4
		L28.2,21.4L28.2,21.4z M28,21c0.2,0,0.3,0.1,0.5,0.2l0,0c0.1,0.1,0.2,0.3,0.2,0.5c0,0.2-0.1,0.3-0.2,0.5c-0.1,0.1-0.3,0.2-0.5,0.2
		c-0.2,0-0.3-0.1-0.5-0.2h0c-0.1-0.1-0.2-0.3-0.2-0.5c0-0.2,0.1-0.3,0.2-0.5l0,0C27.6,21.1,27.8,21,28,21L28,21z"/>
	<path class="st0" d="M30.2,47.5c0.1,0,0.2,0.1,0.3,0.2c0,0.1-0.1,0.2-0.2,0.3c-0.1,0-0.2,0-0.3,0c-0.1,0-0.2,0-0.3,0
		c-0.2,0-0.5,0-0.7-0.1c-0.2,0-0.3-0.1-0.5-0.1c-0.4,0.6-0.9,1.2-1.5,1.5c-0.6,0.4-1.4,0.6-2.2,0.6c-0.7,0-1.3-0.2-1.9-0.4
		c-0.5-0.2-0.9-0.6-1.3-1c-0.4,0.4-0.8,0.8-1.3,1C19.7,49.8,19,50,18.4,50c-1.2,0-2.2-0.5-3-1.2c-0.8-0.8-1.2-1.8-1.2-3
		c0-1.2,0.5-2.2,1.2-3h0l0,0c0.8-0.8,1.8-1.2,3-1.2c0.1,0,0.2,0,0.3,0h0l0.1,0c0-0.5,0.1-0.9,0.2-1.3c0.1-0.4,0.3-0.7,0.5-1.1
		c-0.2-0.3-0.3-0.6-0.4-0.9C19,37.8,19,37.5,19,37.1c0-1.2,0.5-2.2,1.2-3c0.8-0.8,1.8-1.2,3-1.2c0.9,0,1.7,0.3,2.4,0.8
		c0.6,0.4,1.1,1,1.4,1.7c0.1-0.1,0.3-0.2,0.4-0.4c0.2-0.2,0.5-0.3,0.8-0.5c0.1-0.1,0.3,0,0.3,0.1c0.1,0.1,0,0.3-0.1,0.3
		c-0.2,0.1-0.5,0.2-0.7,0.4c-0.2,0.2-0.4,0.3-0.6,0.5c0,0-0.1,0-0.1,0.1c-0.1,0-0.2,0-0.3-0.1C26.5,35,26,34.4,25.4,34
		c-0.6-0.4-1.4-0.7-2.2-0.7c-1,0-2,0.4-2.7,1.1c-0.7,0.7-1.1,1.6-1.1,2.7c0,0.4,0,0.7,0.1,1c0.1,0.3,0.2,0.6,0.4,0.9l0,0
		c0,0.1,0,0.2,0,0.3c-0.2,0.3-0.4,0.7-0.5,1.1c-0.1,0.4-0.2,0.8-0.2,1.2h0l0,0.1l0,0l0,0.1h0c0,0,0,0,0,0c0,0.1-0.1,0.2-0.3,0.2
		c-0.1,0-0.2,0-0.3,0l0,0c-0.1,0-0.2,0-0.3,0c-1,0-2,0.4-2.7,1.1l0,0c-0.7,0.7-1.1,1.6-1.1,2.7c0,1,0.4,2,1.1,2.7
		c0.7,0.7,1.6,1.1,2.7,1.1c0.6,0,1.2-0.1,1.7-0.4c0.5-0.3,1-0.6,1.3-1.1c0,0,0,0,0,0c0.1-0.1,0.2-0.1,0.3,0c0.4,0.5,0.8,0.8,1.3,1.1
		c0.5,0.2,1.1,0.4,1.7,0.4c0.7,0,1.4-0.2,2-0.6c0.6-0.4,1.1-0.9,1.4-1.5h0c0.1-0.1,0.2-0.2,0.3-0.1c0.2,0.1,0.4,0.1,0.6,0.2
		c0.2,0,0.4,0.1,0.6,0.1c0.1,0,0.2,0,0.3,0C30,47.5,30.1,47.5,30.2,47.5L30.2,47.5z"/>
	<path class="st0" d="M43.1,7c0.1,0.1,0.3,0.2,0.4,0.2c-0.5,0.4-0.9,0.9-1.2,1.6c0,0,0,0.1-0.1,0.1C42.2,9,42,9,42,8.9
		c-0.4-0.4-0.8-0.8-1.3-1.1c-0.5-0.2-1.1-0.4-1.6-0.4c-1,0-2,0.4-2.7,1.1c-0.7,0.7-1.1,1.6-1.1,2.7c0,0.1,0,0.3,0,0.4
		c0,0.1,0,0.3,0.1,0.4c0,0,0,0,0,0c0,0.1-0.1,0.2-0.2,0.2c-1,0-1.9,0.5-2.6,1.1c-0.7,0.7-1.1,1.6-1.1,2.6c0,0.5,0.1,0.9,0.2,1.3
		c0.2,0.4,0.4,0.8,0.7,1.2c0.1,0.1,0.1,0.2,0,0.3c-0.1,0.1-0.2,0.1-0.3,0c-0.3-0.4-0.6-0.8-0.8-1.3c-0.2-0.5-0.3-1-0.3-1.5
		c0-1.1,0.5-2.2,1.2-3c0.7-0.7,1.6-1.2,2.7-1.3c0-0.1,0-0.1,0-0.2c0-0.1,0-0.3,0-0.4c0-1.2,0.5-2.2,1.2-3C36.8,7.5,37.8,7,39,7
		c0.7,0,1.3,0.2,1.8,0.4c0.5,0.2,0.9,0.5,1.2,0.9C42.3,7.8,42.7,7.4,43.1,7L43.1,7z"/>
</g>
</svg>
