<?xml version="1.0" encoding="utf-8"?>
<svg xmlns="http://www.w3.org/2000/svg" width="64" height="64">
<style type="text/css">
	.st0{fill-rule:evenodd;clip-rule:evenodd;}
</style>
<g fill="#7E8895">
	<path class="st0" d="M30,1c16,0,29,13,29,29S46,59,30,59C14,59,1,46,1,30S14,1,30,1L30,1z M30,2.4c15.2,0,27.6,12.3,27.6,27.6
		S45.2,57.6,30,57.6C14.8,57.6,2.5,45.2,2.5,30S14.8,2.4,30,2.4L30,2.4z"/>
</g>
<g fill="#7E8895">
	<path class="st0" d="M16.8,20.8c0,0,0.1,0,0.1,0l1.4-2.6c0,0,0-0.1,0-0.1l0,0c0,0-0.1,0-0.1,0l0,0l-3-1.6l-0.8,0l-1,1.8l0.4,0.7
		l2.9,1.7C16.7,20.7,16.7,20.8,16.8,20.8L16.8,20.8L16.8,20.8z M42.9,7.2c0.1,0.1,0.3,0.2,0.4,0.2c-0.5,0.4-0.9,0.9-1.2,1.6
		c0,0,0,0.1-0.1,0.1c-0.1,0.1-0.2,0.1-0.3,0C41.4,8.6,41,8.3,40.5,8c-0.5-0.2-1.1-0.4-1.6-0.4c-1,0-2,0.4-2.7,1.1
		c-0.7,0.7-1.1,1.6-1.1,2.7c0,0.1,0,0.3,0,0.4c0,0.1,0,0.3,0.1,0.4c0,0,0,0,0,0c0,0.1-0.1,0.2-0.2,0.2c-1,0-1.9,0.5-2.6,1.1
		c-0.7,0.7-1.1,1.6-1.1,2.6c0,0.5,0.1,0.9,0.2,1.3c0.2,0.4,0.4,0.8,0.7,1.2c0.1,0.1,0.1,0.2,0,0.3c-0.1,0.1-0.2,0.1-0.3,0
		c-0.3-0.4-0.6-0.8-0.8-1.3c-0.2-0.5-0.3-1-0.3-1.5c0-1.1,0.5-2.2,1.2-2.9c0.7-0.7,1.6-1.2,2.6-1.3c0-0.1,0-0.1,0-0.2
		c0-0.1,0-0.3,0-0.4c0-1.2,0.5-2.2,1.2-3c0.8-0.8,1.8-1.2,3-1.2c0.7,0,1.3,0.2,1.8,0.4c0.5,0.2,0.9,0.5,1.2,0.9
		C42.2,8,42.5,7.6,42.9,7.2L42.9,7.2z M47.3,10.4c0.2,0.2,0.4,0.4,0.6,0.6c-2.1,2-5.1,5.8-4.9,7.7c3.4-0.3,6.8-0.5,10.2-0.7
		c1.4,2.8,2.3,5.8,2.7,9.1c-5.8-0.2-11.6-0.5-17.5-0.8c0.4,1.8,0.5,2.6,1.1,3.2c-0.1-0.3-0.1-0.6-0.1-0.9c0-0.6,0.2-1.2,0.5-1.6
		l0.5,0c-0.3,0.4-0.5,0.9-0.5,1.4c0,0.6,0.2,1.2,0.6,1.6c0.4,0.1,0.8,0.2,1.4,0.4c0.5,0.1,1,0.2,1.5,0.3c0.9-0.4,1.5-1.3,1.5-2.3
		c0-0.5-0.1-0.9-0.3-1.2l0.5,0c0.2,0.4,0.3,0.9,0.3,1.4c0,0.9-0.4,1.7-1,2.3c0.7,0.1,1.4,0.2,2.2,0.3c-0.5-0.5-0.8-1.2-0.8-2
		c0-0.7,0.2-1.3,0.6-1.9l0.5,0c-0.4,0.4-0.6,1-0.6,1.7c0,1,0.6,1.9,1.5,2.3l1.5,0.1c1.1-0.2,2-1.2,2-2.4c0-0.6-0.2-1.1-0.5-1.5
		l0.5,0c0.3,0.5,0.5,1,0.5,1.6c0,1-0.5,1.8-1.2,2.4c0.2,0,0.5,0,0.7,0.1c1.7,0.2,2.2,0.8,3.4,1.5c0.4,0.1,0.8,0.1,1.2,0.1
		c-0.2,1.8-0.7,3.6-1.2,5.2c-4.1-0.2-8.3-0.5-12.6-0.9c-2.5-0.2-4.7,1.8-5.9,4.9c2.6-3.5,4.1-4.1,6.2-4c4,0.4,8,0.6,12,0.7
		c-0.6,1.5-1.3,3-2.2,4.3c-0.7,0-1.4,0-2.1-0.1c0.7,0.1,1.3,0.1,2,0.2c-1,1.6-2.2,3.1-3.5,4.4c-1.7,0-3.3,0-5-0.1
		c-0.3,1.8-0.7,2.9-1.8,2.8l-8.3-0.3c-2.3-0.1-2.3-7.6-2.2-11.5c0-1.8,0.1-3.5,0.2-5.2c0-3,0.2-6,0.3-8.9c0-0.5,0.4-0.9,0.9-1.1
		c2.6-0.9,5.1-1.8,7.1-3.3c-2.7,0-5-1.5-5-2.4c0.4-1.3,2.9-2.1,5.8-1.7c0.5,0.1,0.5,0.4,0.4,0.6c-0.4,0.7,0.1,1.2,0.6,1.5
		C43.2,15.4,44.3,12.8,47.3,10.4L47.3,10.4z M8.3,15.5c0.2-0.3,0.3-0.5,0.5-0.7l2.7,0.9l2.1,1.2l0.1-0.2l0.2,0.1L13.4,18l-0.2-0.1
		l0.1-0.2l-2-1.2L8.3,15.5L8.3,15.5z M22.7,18.6c0.2,0,0.3,0.1,0.4,0.2l0,0c0.1,0.1,0.2,0.3,0.2,0.4c0,0.2-0.1,0.3-0.2,0.4
		c-0.1,0.1-0.3,0.2-0.4,0.2c-0.2,0-0.3-0.1-0.4-0.2h0c-0.1-0.1-0.2-0.3-0.2-0.4c0-0.2,0.1-0.3,0.2-0.4l0,0
		C22.4,18.7,22.5,18.6,22.7,18.6L22.7,18.6z M23,19c-0.1-0.1-0.2-0.1-0.3-0.1c-0.1,0-0.2,0-0.3,0.1h0c-0.1,0.1-0.1,0.2-0.1,0.3
		c0,0.1,0,0.2,0.1,0.3l0,0c0.1,0.1,0.2,0.1,0.3,0.1c0.1,0,0.2,0,0.3-0.1c0.1-0.1,0.1-0.2,0.1-0.3C23.1,19.1,23,19,23,19L23,19L23,19
		z M25.1,19c0.2,0,0.4,0.1,0.5,0.2c0.1,0.1,0.2,0.3,0.2,0.5c0,0.2-0.1,0.4-0.2,0.5c-0.1,0.1-0.3,0.2-0.5,0.2c-0.2,0-0.4-0.1-0.5-0.2
		c-0.1-0.1-0.2-0.3-0.2-0.5c0-0.2,0.1-0.4,0.2-0.5C24.8,19,25,19,25.1,19L25.1,19z M25.5,19.3c-0.1-0.1-0.2-0.1-0.3-0.1
		c-0.1,0-0.2,0.1-0.3,0.1c-0.1,0.1-0.1,0.2-0.1,0.3c0,0.1,0.1,0.2,0.1,0.3c0.1,0.1,0.2,0.1,0.3,0.1c0.1,0,0.2-0.1,0.3-0.1
		c0.1-0.1,0.1-0.2,0.1-0.3C25.6,19.5,25.5,19.4,25.5,19.3L25.5,19.3z M27.6,19.3c0.2,0,0.4,0.1,0.5,0.2h0c0.1,0.1,0.2,0.3,0.2,0.5
		c0,0.2-0.1,0.4-0.2,0.5l0,0c-0.1,0.1-0.3,0.2-0.5,0.2c-0.2,0-0.4-0.1-0.5-0.2l0,0c-0.1-0.1-0.2-0.3-0.2-0.5c0-0.2,0.1-0.4,0.2-0.5
		h0C27.2,19.4,27.4,19.3,27.6,19.3L27.6,19.3z M28,19.7c-0.1-0.1-0.2-0.1-0.4-0.1c-0.1,0-0.3,0.1-0.4,0.1l0,0
		c-0.1,0.1-0.1,0.2-0.1,0.4c0,0.1,0.1,0.3,0.1,0.4l0,0c0.1,0.1,0.2,0.1,0.4,0.1c0.1,0,0.3-0.1,0.4-0.1l0,0c0.1-0.1,0.1-0.2,0.1-0.4
		C28.1,19.9,28,19.8,28,19.7L28,19.7L28,19.7z M30,19.7c0.2,0,0.4,0.1,0.6,0.2v0c0.1,0.1,0.2,0.4,0.2,0.6c0,0.2-0.1,0.4-0.2,0.6l0,0
		c-0.1,0.1-0.4,0.2-0.6,0.2c-0.2,0-0.4-0.1-0.6-0.2l0,0c-0.1-0.1-0.2-0.4-0.2-0.6c0-0.2,0.1-0.4,0.2-0.6
		C29.6,19.8,29.8,19.7,30,19.7L30,19.7z M30.4,20.1L30.4,20.1c-0.1-0.1-0.2-0.2-0.4-0.2c-0.2,0-0.3,0.1-0.4,0.2
		c-0.1,0.1-0.2,0.2-0.2,0.4c0,0.2,0.1,0.3,0.2,0.4l0,0c0.1,0.1,0.2,0.2,0.4,0.2c0.2,0,0.3-0.1,0.4-0.2l0,0c0.1-0.1,0.2-0.2,0.2-0.4
		C30.6,20.3,30.5,20.2,30.4,20.1L30.4,20.1z M32.5,20c0.2,0,0.5,0.1,0.6,0.3h0c0.2,0.2,0.3,0.4,0.3,0.6c0,0.2-0.1,0.5-0.3,0.6l0,0
		c-0.2,0.2-0.4,0.3-0.6,0.3c-0.2,0-0.5-0.1-0.6-0.3l0,0c-0.2-0.2-0.3-0.4-0.3-0.6c0-0.2,0.1-0.5,0.3-0.6l0,0
		C32,20.1,32.2,20,32.5,20L32.5,20z M32.9,20.5c-0.1-0.1-0.3-0.2-0.5-0.2c-0.2,0-0.3,0.1-0.5,0.2h0c-0.1,0.1-0.2,0.3-0.2,0.5
		c0,0.2,0.1,0.3,0.2,0.5l0,0c0.1,0.1,0.3,0.2,0.5,0.2c0.2,0,0.3-0.1,0.5-0.2l0,0c0.1-0.1,0.2-0.3,0.2-0.5
		C33.1,20.8,33,20.6,32.9,20.5L32.9,20.5L32.9,20.5z M21.9,20.2c0.2,0,0.3,0.1,0.5,0.2c0.1,0.1,0.2,0.3,0.2,0.5
		c0,0.2-0.1,0.3-0.2,0.5l0,0c-0.1,0.1-0.3,0.2-0.5,0.2c-0.2,0-0.3-0.1-0.5-0.2l0,0c-0.1-0.1-0.2-0.3-0.2-0.5c0-0.2,0.1-0.3,0.2-0.5
		l0,0C21.6,20.3,21.7,20.2,21.9,20.2L21.9,20.2z M22.2,20.6c-0.1-0.1-0.2-0.1-0.3-0.1c-0.1,0-0.2,0-0.3,0.1v0
		c-0.1,0.1-0.1,0.2-0.1,0.3c0,0.1,0,0.2,0.1,0.3l0,0c0.1,0.1,0.2,0.1,0.3,0.1c0.1,0,0.2,0,0.3-0.1l0,0c0.1-0.1,0.1-0.2,0.1-0.3
		C22.3,20.7,22.3,20.6,22.2,20.6L22.2,20.6z M24,21c0.2,0,0.4,0.1,0.5,0.2h0c0.1,0.1,0.2,0.3,0.2,0.5c0,0.2-0.1,0.4-0.2,0.5l0,0
		c-0.1,0.1-0.3,0.2-0.5,0.2c-0.2,0-0.4-0.1-0.5-0.2l0,0c-0.1-0.1-0.2-0.3-0.2-0.5c0-0.2,0.1-0.4,0.2-0.5h0C23.7,21.1,23.8,21,24,21
		L24,21z M24.4,21.4c-0.1-0.1-0.2-0.1-0.3-0.1c-0.1,0-0.2,0.1-0.3,0.1l0,0c-0.1,0.1-0.1,0.2-0.1,0.3c0,0.1,0.1,0.2,0.1,0.3l0,0
		c0.1,0.1,0.2,0.1,0.3,0.1c0.1,0,0.2-0.1,0.3-0.1l0,0c0.1-0.1,0.1-0.2,0.1-0.3C24.5,21.6,24.5,21.5,24.4,21.4L24.4,21.4L24.4,21.4z
		 M26.2,21.8c0.2,0,0.4,0.1,0.6,0.2c0.1,0.1,0.2,0.3,0.2,0.6c0,0.2-0.1,0.4-0.2,0.6l0,0c-0.1,0.1-0.3,0.2-0.6,0.2
		c-0.2,0-0.4-0.1-0.6-0.2l0,0c-0.1-0.1-0.2-0.3-0.2-0.6c0-0.2,0.1-0.4,0.2-0.6l0,0C25.8,21.9,26,21.8,26.2,21.8L26.2,21.8z
		 M26.6,22.3c-0.1-0.1-0.2-0.2-0.4-0.2c-0.2,0-0.3,0.1-0.4,0.2l0,0c-0.1,0.1-0.2,0.2-0.2,0.4c0,0.2,0.1,0.3,0.2,0.4h0
		c0.1,0.1,0.2,0.2,0.4,0.2c0.2,0,0.3-0.1,0.4-0.2l0,0c0.1-0.1,0.2-0.2,0.2-0.4C26.7,22.5,26.7,22.4,26.6,22.3L26.6,22.3z M28.3,22.7
		c0.2,0,0.5,0.1,0.6,0.3h0c0.2,0.2,0.3,0.4,0.3,0.6c0,0.2-0.1,0.5-0.3,0.6h0c-0.2,0.2-0.4,0.3-0.6,0.3c-0.2,0-0.5-0.1-0.6-0.3
		c-0.2-0.2-0.3-0.4-0.3-0.6c0-0.2,0.1-0.5,0.3-0.6C27.8,22.8,28.1,22.7,28.3,22.7L28.3,22.7z M28.7,23.1c-0.1-0.1-0.3-0.2-0.4-0.2
		c-0.2,0-0.3,0.1-0.4,0.2c-0.1,0.1-0.2,0.3-0.2,0.4c0,0.2,0.1,0.3,0.2,0.4c0.1,0.1,0.3,0.2,0.4,0.2c0.2,0,0.3-0.1,0.4-0.2l0,0
		c0.1-0.1,0.2-0.3,0.2-0.4C28.9,23.4,28.9,23.2,28.7,23.1L28.7,23.1L28.7,23.1z M21.3,21.9c0.2,0,0.3,0.1,0.5,0.2h0
		c0.1,0.1,0.2,0.3,0.2,0.5c0,0.2-0.1,0.3-0.2,0.5l0,0c-0.1,0.1-0.3,0.2-0.5,0.2c-0.2,0-0.3-0.1-0.5-0.2c-0.1-0.1-0.2-0.3-0.2-0.5
		c0-0.2,0.1-0.3,0.2-0.5C20.9,21.9,21.1,21.9,21.3,21.9L21.3,21.9z M21.5,22.2c-0.1-0.1-0.2-0.1-0.3-0.1c-0.1,0-0.2,0-0.3,0.1
		c-0.1,0.1-0.1,0.2-0.1,0.3c0,0.1,0,0.2,0.1,0.3c0.1,0.1,0.2,0.1,0.3,0.1c0.1,0,0.2,0,0.3-0.1l0,0c0.1-0.1,0.1-0.2,0.1-0.3
		C21.7,22.4,21.6,22.3,21.5,22.2L21.5,22.2L21.5,22.2z M23.3,23.2c0.2,0,0.4,0.1,0.5,0.2h0c0.1,0.1,0.2,0.3,0.2,0.5
		c0,0.2-0.1,0.4-0.2,0.5l0,0c-0.1,0.1-0.3,0.2-0.5,0.2s-0.4-0.1-0.5-0.2l0,0c-0.1-0.1-0.2-0.3-0.2-0.5c0-0.2,0.1-0.4,0.2-0.5h0
		C22.9,23.3,23.1,23.2,23.3,23.2L23.3,23.2z M23.6,23.6c-0.1-0.1-0.2-0.1-0.3-0.1S23,23.5,23,23.6l0,0c-0.1,0.1-0.1,0.2-0.1,0.3
		c0,0.1,0.1,0.2,0.1,0.3l0,0c0.1,0.1,0.2,0.1,0.3,0.1s0.2-0.1,0.3-0.1l0,0c0.1-0.1,0.1-0.2,0.1-0.3C23.8,23.8,23.7,23.7,23.6,23.6
		L23.6,23.6L23.6,23.6z M25.3,24.5c0.2,0,0.4,0.1,0.6,0.2v0c0.1,0.1,0.2,0.3,0.2,0.6c0,0.2-0.1,0.4-0.2,0.6v0
		c-0.1,0.1-0.3,0.2-0.6,0.2c-0.2,0-0.4-0.1-0.6-0.2l0,0c-0.1-0.1-0.2-0.3-0.2-0.6c0-0.2,0.1-0.4,0.2-0.6l0,0
		C24.9,24.6,25.1,24.5,25.3,24.5L25.3,24.5z M25.7,24.9L25.7,24.9c-0.1-0.1-0.2-0.2-0.4-0.2c-0.2,0-0.3,0.1-0.4,0.2l0,0
		c-0.1,0.1-0.2,0.2-0.2,0.4s0.1,0.3,0.2,0.4l0,0c0.1,0.1,0.2,0.2,0.4,0.2c0.2,0,0.3-0.1,0.4-0.2l0,0c0.1-0.1,0.2-0.2,0.2-0.4
		C25.9,25.2,25.8,25,25.7,24.9L25.7,24.9z M27.4,25.9c0.2,0,0.5,0.1,0.6,0.3h0c0.2,0.2,0.3,0.4,0.3,0.6c0,0.2-0.1,0.5-0.3,0.6l0,0
		c-0.2,0.2-0.4,0.3-0.6,0.3c-0.2,0-0.5-0.1-0.6-0.3v0c-0.2-0.2-0.3-0.4-0.3-0.6c0-0.2,0.1-0.5,0.3-0.6l0,0
		C26.9,26,27.1,25.9,27.4,25.9L27.4,25.9z M27.8,26.3c-0.1-0.1-0.3-0.2-0.4-0.2c-0.2,0-0.3,0.1-0.4,0.2l0,0
		c-0.1,0.1-0.2,0.3-0.2,0.4c0,0.2,0.1,0.3,0.2,0.4l0,0c0.1,0.1,0.3,0.2,0.4,0.2c0.2,0,0.3-0.1,0.4-0.2c0.1-0.1,0.2-0.3,0.2-0.4
		C28,26.6,27.9,26.4,27.8,26.3L27.8,26.3L27.8,26.3z M20.4,23.3c0.2,0,0.3,0.1,0.4,0.2c0.1,0.1,0.2,0.3,0.2,0.4
		c0,0.2-0.1,0.3-0.2,0.4l0,0c-0.1,0.1-0.3,0.2-0.4,0.2c-0.2,0-0.3-0.1-0.4-0.2l0,0l0,0c-0.1-0.1-0.2-0.3-0.2-0.4
		c0-0.2,0.1-0.3,0.2-0.4l0,0C20,23.3,20.2,23.3,20.4,23.3L20.4,23.3z M20.6,23.6c-0.1-0.1-0.2-0.1-0.3-0.1c-0.1,0-0.2,0-0.3,0.1v0
		C20,23.7,20,23.8,20,23.9c0,0.1,0,0.2,0.1,0.3l0,0c0.1,0.1,0.2,0.1,0.3,0.1c0.1,0,0.2,0,0.3-0.1h0c0.1-0.1,0.1-0.2,0.1-0.3
		C20.7,23.8,20.7,23.7,20.6,23.6L20.6,23.6z M22.1,25.1c0.2,0,0.4,0.1,0.5,0.2c0.1,0.1,0.2,0.3,0.2,0.5c0,0.2-0.1,0.4-0.2,0.5
		c-0.1,0.1-0.3,0.2-0.5,0.2c-0.2,0-0.4-0.1-0.5-0.2v0c-0.1-0.1-0.2-0.3-0.2-0.5c0-0.2,0.1-0.4,0.2-0.5
		C21.7,25.1,21.9,25.1,22.1,25.1L22.1,25.1z M22.4,25.4c-0.1-0.1-0.2-0.1-0.3-0.1s-0.2,0.1-0.3,0.1c-0.1,0.1-0.1,0.2-0.1,0.3
		c0,0.1,0.1,0.2,0.1,0.3l0,0c0.1,0.1,0.2,0.1,0.3,0.1s0.2-0.1,0.3-0.1c0.1-0.1,0.1-0.2,0.1-0.3C22.5,25.6,22.5,25.5,22.4,25.4
		L22.4,25.4z M23.8,26.8c0.2,0,0.4,0.1,0.5,0.2h0c0.1,0.1,0.2,0.3,0.2,0.5c0,0.2-0.1,0.4-0.2,0.5h0c-0.1,0.1-0.3,0.2-0.5,0.2
		c-0.2,0-0.4-0.1-0.5-0.2c-0.1-0.1-0.2-0.3-0.2-0.5c0-0.2,0.1-0.4,0.2-0.5v0C23.4,26.9,23.6,26.8,23.8,26.8L23.8,26.8z M24.2,27.2
		c-0.1-0.1-0.2-0.1-0.4-0.1c-0.1,0-0.3,0.1-0.4,0.1l0,0c-0.1,0.1-0.1,0.2-0.1,0.4c0,0.1,0.1,0.3,0.1,0.4c0.1,0.1,0.2,0.1,0.4,0.1
		c0.1,0,0.3-0.1,0.4-0.1l0,0c0.1-0.1,0.1-0.2,0.1-0.4C24.4,27.4,24.3,27.3,24.2,27.2L24.2,27.2L24.2,27.2z M25.6,28.6
		c0.2,0,0.4,0.1,0.6,0.2h0c0.1,0.1,0.2,0.4,0.2,0.6c0,0.2-0.1,0.4-0.2,0.6l0,0c-0.1,0.1-0.4,0.2-0.6,0.2c-0.2,0-0.4-0.1-0.6-0.2h0
		c-0.1-0.1-0.2-0.4-0.2-0.6c0-0.2,0.1-0.4,0.2-0.6h0C25.1,28.7,25.4,28.6,25.6,28.6L25.6,28.6z M26,29c-0.1-0.1-0.2-0.2-0.4-0.2
		c-0.2,0-0.3,0.1-0.4,0.2l0,0c-0.1,0.1-0.2,0.2-0.2,0.4c0,0.2,0.1,0.3,0.2,0.4l0,0c0.1,0.1,0.2,0.2,0.4,0.2c0.2,0,0.3-0.1,0.4-0.2
		l0,0c0.1-0.1,0.2-0.2,0.2-0.4C26.2,29.3,26.1,29.1,26,29L26,29L26,29z M27.3,30.4c0.2,0,0.5,0.1,0.6,0.3h0c0.2,0.2,0.3,0.4,0.3,0.6
		c0,0.2-0.1,0.5-0.3,0.6h0c-0.2,0.2-0.4,0.3-0.6,0.3c-0.2,0-0.5-0.1-0.6-0.3c-0.2-0.2-0.3-0.4-0.3-0.6c0-0.2,0.1-0.5,0.3-0.6
		C26.9,30.5,27.1,30.4,27.3,30.4L27.3,30.4z M27.8,30.8c-0.1-0.1-0.3-0.2-0.5-0.2c-0.2,0-0.3,0.1-0.5,0.2c-0.1,0.1-0.2,0.3-0.2,0.5
		c0,0.2,0.1,0.3,0.2,0.5c0.1,0.1,0.3,0.2,0.5,0.2c0.2,0,0.3-0.1,0.5-0.2l0,0c0.1-0.1,0.2-0.3,0.2-0.5C28,31.1,27.9,30.9,27.8,30.8
		L27.8,30.8L27.8,30.8z M20.3,18.3c0.2,0,0.3,0.1,0.4,0.2c0.1,0.1,0.2,0.2,0.2,0.4c0,0.2-0.1,0.3-0.2,0.4v0
		c-0.1,0.1-0.2,0.2-0.4,0.2s-0.3-0.1-0.4-0.2v0c-0.1-0.1-0.2-0.2-0.2-0.4c0-0.2,0.1-0.3,0.2-0.4C20,18.3,20.1,18.3,20.3,18.3
		L20.3,18.3z M20.5,18.6c-0.1-0.1-0.1-0.1-0.2-0.1c-0.1,0-0.2,0-0.2,0.1C20,18.7,20,18.7,20,18.8c0,0.1,0,0.2,0.1,0.2l0,0
		c0.1,0.1,0.1,0.1,0.2,0.1c0.1,0,0.2,0,0.2-0.1l0,0c0.1-0.1,0.1-0.1,0.1-0.2C20.6,18.7,20.5,18.7,20.5,18.6L20.5,18.6z M19.8,19.4
		c0.2,0,0.3,0.1,0.4,0.2v0c0.1,0.1,0.2,0.2,0.2,0.4c0,0.2-0.1,0.3-0.2,0.4l0,0c-0.1,0.1-0.2,0.2-0.4,0.2c-0.2,0-0.3-0.1-0.4-0.2h0
		c-0.1-0.1-0.2-0.2-0.2-0.4c0-0.2,0.1-0.3,0.2-0.4l0,0C19.5,19.5,19.6,19.4,19.8,19.4L19.8,19.4z M20,19.7L20,19.7
		c-0.1-0.1-0.1-0.1-0.2-0.1c-0.1,0-0.2,0-0.2,0.1l0,0c-0.1,0.1-0.1,0.1-0.1,0.2c0,0.1,0,0.2,0.1,0.2l0,0c0.1,0.1,0.1,0.1,0.2,0.1
		c0.1,0,0.2,0,0.2-0.1l0,0c0.1-0.1,0.1-0.1,0.1-0.2C20.1,19.9,20.1,19.8,20,19.7L20,19.7z M19.2,20.5c0.2,0,0.3,0.1,0.4,0.2
		c0.1,0.1,0.2,0.2,0.2,0.4c0,0.2-0.1,0.3-0.2,0.4l0,0c-0.1,0.1-0.2,0.2-0.4,0.2c-0.2,0-0.3-0.1-0.4-0.2h0c-0.1-0.1-0.2-0.2-0.2-0.4
		c0-0.2,0.1-0.3,0.2-0.4h0C18.9,20.6,19.1,20.5,19.2,20.5L19.2,20.5z M19.4,20.8c-0.1-0.1-0.1-0.1-0.2-0.1c-0.1,0-0.2,0-0.2,0.1l0,0
		c-0.1,0.1-0.1,0.1-0.1,0.2c0,0.1,0,0.2,0.1,0.2l0,0c0.1,0.1,0.1,0.1,0.2,0.1c0.1,0,0.2,0,0.2-0.1l0,0c0.1-0.1,0.1-0.1,0.1-0.2
		C19.5,21,19.5,20.9,19.4,20.8L19.4,20.8z M18.6,21.5c0.2,0,0.3,0.1,0.4,0.2v0c0.1,0.1,0.2,0.2,0.2,0.4c0,0.2-0.1,0.3-0.2,0.4
		c-0.1,0.1-0.2,0.2-0.4,0.2c-0.2,0-0.3-0.1-0.4-0.2v0c-0.1-0.1-0.2-0.2-0.2-0.4c0-0.2,0.1-0.3,0.2-0.4v0
		C18.3,21.6,18.5,21.5,18.6,21.5L18.6,21.5z M18.8,21.8L18.8,21.8c-0.1-0.1-0.1-0.1-0.2-0.1c-0.1,0-0.2,0-0.2,0.1l0,0
		c-0.1,0.1-0.1,0.1-0.1,0.2c0,0.1,0,0.2,0.1,0.2l0,0c0.1,0.1,0.1,0.1,0.2,0.1c0.1,0,0.2,0,0.2-0.1c0.1-0.1,0.1-0.1,0.1-0.2
		C18.9,22,18.9,21.9,18.8,21.8L18.8,21.8z M29.1,32.2c0.3,0,0.5,0.1,0.7,0.3l0,0c0.2,0.2,0.3,0.4,0.3,0.7c0,0.3-0.1,0.5-0.3,0.7l0,0
		c-0.2,0.2-0.4,0.3-0.7,0.3c-0.3,0-0.5-0.1-0.7-0.3l0,0c-0.2-0.2-0.3-0.4-0.3-0.7c0-0.3,0.1-0.5,0.3-0.7l0,0
		C28.6,32.3,28.8,32.2,29.1,32.2L29.1,32.2z M29.6,32.6c-0.1-0.1-0.3-0.2-0.5-0.2c-0.2,0-0.4,0.1-0.5,0.2c-0.1,0.1-0.2,0.3-0.2,0.5
		s0.1,0.4,0.2,0.5c0.1,0.1,0.3,0.2,0.5,0.2c0.2,0,0.4-0.1,0.5-0.2c0.1-0.1,0.2-0.3,0.2-0.5S29.7,32.7,29.6,32.6L29.6,32.6z
		 M29.4,27.2c0.3,0,0.5,0.1,0.7,0.3l0,0c0.2,0.2,0.3,0.4,0.3,0.7c0,0.3-0.1,0.5-0.3,0.7c-0.2,0.2-0.4,0.3-0.7,0.3s-0.5-0.1-0.7-0.3
		c-0.2-0.2-0.3-0.4-0.3-0.7c0-0.3,0.1-0.5,0.3-0.7l0,0C28.9,27.3,29.1,27.2,29.4,27.2L29.4,27.2z M29.9,27.7
		c-0.1-0.1-0.3-0.2-0.5-0.2s-0.4,0.1-0.5,0.2c-0.1,0.1-0.2,0.3-0.2,0.5s0.1,0.4,0.2,0.5c0.1,0.1,0.3,0.2,0.5,0.2s0.4-0.1,0.5-0.2
		c0.1-0.1,0.2-0.3,0.2-0.5S30,27.8,29.9,27.7L29.9,27.7z M30.4,23.5c0.3,0,0.5,0.1,0.7,0.3c0.2,0.2,0.3,0.4,0.3,0.7
		c0,0.3-0.1,0.5-0.3,0.7l0,0c-0.2,0.2-0.4,0.3-0.7,0.3c-0.3,0-0.5-0.1-0.7-0.3c-0.2-0.2-0.3-0.4-0.3-0.7s0.1-0.5,0.3-0.7l0,0
		C29.9,23.6,30.2,23.5,30.4,23.5L30.4,23.5z M30.9,23.9c-0.1-0.1-0.3-0.2-0.5-0.2s-0.4,0.1-0.5,0.2c-0.1,0.1-0.2,0.3-0.2,0.5
		c0,0.2,0.1,0.4,0.2,0.5c0.1,0.1,0.3,0.2,0.5,0.2s0.4-0.1,0.5-0.2c0.1-0.1,0.2-0.3,0.2-0.5C31.1,24.2,31,24.1,30.9,23.9L30.9,23.9z
		 M34.9,20.4c0.3,0,0.5,0.1,0.7,0.3c0.2,0.2,0.3,0.4,0.3,0.7c0,0.3-0.1,0.5-0.3,0.7c-0.2,0.2-0.4,0.3-0.7,0.3s-0.5-0.1-0.7-0.3l0,0
		c-0.2-0.2-0.3-0.4-0.3-0.7c0-0.3,0.1-0.5,0.3-0.7l0,0C34.4,20.5,34.6,20.4,34.9,20.4L34.9,20.4z M35.4,20.9
		c-0.1-0.1-0.3-0.2-0.5-0.2s-0.4,0.1-0.5,0.2c-0.1,0.1-0.2,0.3-0.2,0.5s0.1,0.4,0.2,0.5c0.1,0.1,0.3,0.2,0.5,0.2s0.4-0.1,0.5-0.2
		c0.1-0.1,0.2-0.3,0.2-0.5S35.5,21,35.4,20.9L35.4,20.9z M41.5,19.7c2.5,2.1,5.3,3.8,8.7,5.2C47.6,22.7,44.7,21,41.5,19.7L41.5,19.7
		z M30.1,47.6c0.1,0,0.2,0.1,0.3,0.2c0,0.1-0.1,0.2-0.2,0.3c-0.1,0-0.2,0-0.3,0c-0.1,0-0.2,0-0.3,0c-0.2,0-0.5,0-0.7-0.1
		c-0.2,0-0.3-0.1-0.5-0.1c-0.4,0.6-0.9,1.2-1.5,1.5c-0.6,0.4-1.4,0.6-2.2,0.6c-0.7,0-1.3-0.2-1.9-0.4c-0.5-0.2-0.9-0.6-1.3-1
		c-0.4,0.4-0.8,0.8-1.3,1c-0.6,0.3-1.2,0.4-1.9,0.4c-1.2,0-2.2-0.5-3-1.2C14.5,48,14,47,14,45.8c0-1.2,0.5-2.2,1.2-3l0,0l0,0
		c0.8-0.8,1.8-1.2,3-1.2c0.1,0,0.2,0,0.3,0h0l0.1,0c0-0.5,0.1-0.9,0.2-1.3c0.1-0.4,0.3-0.7,0.5-1.1c-0.2-0.3-0.3-0.6-0.4-0.9
		c-0.1-0.4-0.2-0.7-0.2-1.1c0-1.2,0.5-2.2,1.2-3c0.8-0.8,1.8-1.2,3-1.2c0.9,0,1.7,0.3,2.4,0.8c0.6,0.4,1.1,1,1.4,1.7
		c0.1-0.1,0.3-0.2,0.4-0.4c0.2-0.2,0.5-0.3,0.8-0.5c0.1-0.1,0.3,0,0.3,0.1c0.1,0.1,0,0.3-0.1,0.3c-0.2,0.1-0.5,0.2-0.7,0.4
		c-0.2,0.2-0.4,0.3-0.6,0.5c0,0-0.1,0-0.1,0.1c-0.1,0-0.2,0-0.3-0.1c-0.3-0.7-0.8-1.4-1.4-1.8c-0.6-0.4-1.4-0.7-2.2-0.7
		c-1,0-2,0.4-2.7,1.1c-0.7,0.7-1.1,1.6-1.1,2.7c0,0.4,0,0.7,0.1,1c0.1,0.3,0.2,0.6,0.4,0.9l0,0c0,0.1,0,0.2,0,0.3
		c-0.2,0.3-0.4,0.7-0.5,1.1c-0.1,0.4-0.2,0.8-0.2,1.2h0l0,0.1l0,0l0,0.1h0c0,0,0,0,0,0c0,0.1-0.1,0.2-0.3,0.2c-0.1,0-0.2,0-0.3,0
		l0,0c-0.1,0-0.2,0-0.3,0c-1,0-2,0.4-2.7,1.1l0,0c-0.7,0.7-1.1,1.6-1.1,2.7c0,1,0.4,2,1.1,2.7c0.7,0.7,1.6,1.1,2.7,1.1
		c0.6,0,1.2-0.1,1.7-0.4c0.5-0.3,1-0.6,1.3-1.1c0,0,0,0,0,0c0.1-0.1,0.2-0.1,0.3,0c0.4,0.5,0.8,0.8,1.3,1.1c0.5,0.2,1.1,0.4,1.7,0.4
		c0.7,0,1.4-0.2,2-0.6c0.6-0.4,1.1-0.9,1.4-1.5l0,0c0.1-0.1,0.2-0.2,0.3-0.1c0.2,0.1,0.4,0.1,0.6,0.2c0.2,0,0.4,0.1,0.6,0.1
		c0.1,0,0.2,0,0.3,0C29.9,47.6,30,47.6,30.1,47.6L30.1,47.6z"/>
</g>
</svg>
