<?xml version="1.0" encoding="utf-8"?>
<svg xmlns="http://www.w3.org/2000/svg" width="64" height="64">
<style type="text/css">
	.st0{fill-rule:evenodd;clip-rule:evenodd;}
</style>
<g fill="#7E8895">
	<path class="st0" d="M30,1c16,0,29,13,29,29S46,59,30,59C14,59,1,46,1,30S14,1,30,1L30,1z M30,2.4c15.2,0,27.6,12.3,27.6,27.6
		S45.2,57.6,30,57.6C14.8,57.6,2.5,45.2,2.5,30S14.8,2.4,30,2.4L30,2.4z"/>
</g>
<g fill="#7E8895">
	<path class="st0" d="M47.6,10.4c0.2,0.2,0.4,0.4,0.6,0.6c-2.1,2-5.1,5.8-4.9,7.7c3.4-0.3,6.8-0.5,10.2-0.7c1.4,2.8,2.3,5.8,2.7,9.1
		c-5.8-0.2-11.6-0.5-17.5-0.8c0.4,1.8,0.5,2.6,1.1,3.2c-0.1-0.3-0.1-0.6-0.1-0.9c0-0.6,0.2-1.2,0.5-1.6l0.5,0
		c-0.3,0.4-0.5,0.9-0.5,1.4c0,0.6,0.2,1.2,0.6,1.6c0.4,0.1,0.8,0.2,1.4,0.4c0.5,0.1,1,0.2,1.5,0.3c0.9-0.4,1.5-1.3,1.5-2.3
		c0-0.5-0.1-0.9-0.3-1.2l0.5,0c0.2,0.4,0.3,0.9,0.3,1.4c0,0.9-0.4,1.7-1,2.3c0.7,0.1,1.4,0.2,2.2,0.3c-0.5-0.5-0.8-1.2-0.8-2
		c0-0.7,0.2-1.3,0.6-1.9l0.5,0c-0.4,0.4-0.6,1-0.6,1.7c0,1,0.6,1.9,1.5,2.3l1.5,0.1c1.1-0.2,2-1.2,2-2.4c0-0.6-0.2-1.1-0.5-1.5
		l0.5,0c0.3,0.5,0.5,1,0.5,1.6c0,1-0.5,1.8-1.2,2.4c0.2,0,0.5,0,0.7,0.1c1.7,0.2,2.2,0.8,3.4,1.5c0.4,0.1,0.8,0.1,1.2,0.1
		c-0.2,1.8-0.7,3.6-1.2,5.2c-4.1-0.2-8.3-0.5-12.6-0.9c-2.5-0.2-4.7,1.8-5.9,4.9c2.6-3.5,4.1-4.1,6.2-4c4,0.4,8,0.6,12,0.7
		c-0.6,1.5-1.3,3-2.2,4.3c-0.7,0-1.4,0-2.1-0.1c0.7,0.1,1.3,0.1,2,0.2c-1,1.6-2.2,3.1-3.5,4.4c-1.7,0-3.3,0-5-0.1
		c-0.3,1.8-0.7,2.9-1.8,2.8l-8.3-0.3c-2.3-0.1-2.3-7.6-2.2-11.5c0-1.8,0.1-3.5,0.2-5.2c0-3,0.2-6,0.3-8.9c0-0.5,0.4-0.9,0.9-1.1
		c2.6-0.9,5.1-1.8,7.1-3.3c-2.7,0-5-1.5-5-2.4c0.4-1.3,2.9-2.1,5.8-1.7c0.5,0.1,0.5,0.4,0.4,0.6c-0.4,0.7,0.1,1.2,0.6,1.5
		C43.5,15.4,44.6,12.8,47.6,10.4L47.6,10.4z M4.5,26.9c0-0.3,0.1-0.6,0.1-0.9l10.3,3.3l2.1,1.2l0.1-0.2l0.2,0.1l-0.7,1.2l-0.2-0.1
		l0.1-0.2l-2-1.2L4.5,26.9L4.5,26.9z M41.8,19.7c2.5,2.1,5.3,3.8,8.7,5.2C47.9,22.7,45,21,41.8,19.7L41.8,19.7z M20.1,34.6
		c0,0,0.1,0,0.1,0l1.4-2.6c0,0,0-0.1,0-0.1l0,0c0,0-0.1,0-0.1,0l0,0l-3-1.6l-0.8,0l-1,1.8l0.4,0.7l2.9,1.7
		C20,34.5,20,34.5,20.1,34.6L20.1,34.6L20.1,34.6z M22.2,32.6c-0.1,0-0.2-0.2-0.2-0.3c0-0.1,0.2-0.2,0.3-0.2l8.2,1.4
		c0.1,0,0.2,0.2,0.2,0.3c0,0.1-0.2,0.2-0.3,0.2L22.2,32.6L22.2,32.6z M21.9,33.2c-0.1,0-0.2-0.2-0.2-0.3c0-0.1,0.2-0.2,0.3-0.2
		l8.2,2.6c0.1,0,0.2,0.2,0.2,0.3c0,0.1-0.2,0.2-0.3,0.2L21.9,33.2L21.9,33.2z M21.6,33.7c-0.1-0.1-0.2-0.2-0.1-0.3
		c0.1-0.1,0.2-0.2,0.3-0.1l8.5,4.3c0.1,0.1,0.2,0.2,0.1,0.3c-0.1,0.1-0.2,0.2-0.3,0.1L21.6,33.7L21.6,33.7z M21.2,34.3
		c-0.1-0.1-0.1-0.2-0.1-0.3c0.1-0.1,0.2-0.1,0.3-0.1l8.7,6.5c0.1,0.1,0.1,0.2,0.1,0.3c-0.1,0.1-0.2,0.1-0.3,0.1L21.2,34.3L21.2,34.3
		z M20.8,34.9c-0.1-0.1-0.1-0.3,0-0.3c0.1-0.1,0.3-0.1,0.3,0l9,9.6c0.1,0.1,0.1,0.3,0,0.3c-0.1,0.1-0.3,0.1-0.3,0L20.8,34.9
		L20.8,34.9z"/>
</g>
</svg>
