<?xml version="1.0" encoding="utf-8"?>
<svg xmlns="http://www.w3.org/2000/svg" width="64" height="64">
<style type="text/css">
	.st0{fill-rule:evenodd;clip-rule:evenodd;}
</style>
<g fill="#7E8895">
	<path class="st0" d="M30,1c16,0,29,13,29,29S46,59,30,59C14,59,1,46,1,30S14,1,30,1L30,1z M30,2.4c15.2,0,27.6,12.3,27.6,27.6
		S45.2,57.6,30,57.6C14.8,57.6,2.5,45.2,2.5,30S14.8,2.4,30,2.4L30,2.4z"/>
</g>
<g fill="#7E8895">
	<path class="st0" d="M40.1,11.3c0.5,0,1,0.2,1.4,0.6c0.4,0.4,0.6,0.8,0.6,1.4c0,0.5-0.2,1-0.6,1.4c-0.4,0.4-0.8,0.6-1.4,0.6
		c-0.5,0-1-0.2-1.4-0.6l0,0c-0.4-0.4-0.6-0.8-0.6-1.4c0-0.5,0.2-1,0.6-1.4C39.1,11.5,39.6,11.3,40.1,11.3L40.1,11.3z M47.7,10.4
		c0.2,0.2,0.4,0.4,0.6,0.6c-2.1,2-5.1,5.8-4.9,7.7c3.4-0.3,6.8-0.5,10.2-0.7c1.4,2.8,2.3,5.8,2.7,9.1c-5.8-0.2-11.6-0.5-17.5-0.8
		c0.4,1.8,0.5,2.6,1.1,3.2c-0.1-0.3-0.1-0.6-0.1-0.9c0-0.6,0.2-1.2,0.5-1.6l0.5,0c-0.3,0.4-0.5,0.9-0.5,1.4c0,0.6,0.2,1.2,0.6,1.6
		c0.4,0.1,0.8,0.2,1.4,0.4c0.5,0.1,1,0.2,1.5,0.3c0.9-0.4,1.5-1.3,1.5-2.3c0-0.5-0.1-0.9-0.3-1.2l0.5,0c0.2,0.4,0.3,0.9,0.3,1.4
		c0,0.9-0.4,1.7-1,2.3c0.7,0.1,1.4,0.2,2.2,0.3c-0.5-0.5-0.8-1.2-0.8-2c0-0.7,0.2-1.3,0.6-1.9l0.5,0c-0.4,0.4-0.6,1-0.6,1.7
		c0,1,0.6,1.9,1.5,2.3l1.5,0.1c1.1-0.2,2-1.2,2-2.4c0-0.6-0.2-1.1-0.5-1.5l0.5,0c0.3,0.5,0.5,1,0.5,1.6c0,1-0.5,1.8-1.2,2.4
		c0.2,0,0.5,0,0.7,0.1c1.7,0.2,2.2,0.8,3.4,1.5c0.4,0.1,0.8,0.1,1.2,0.1c-0.2,1.8-0.7,3.6-1.2,5.2c-4.1-0.2-8.3-0.5-12.6-0.9
		c-2.5-0.2-4.7,1.8-5.9,4.9c2.6-3.5,4.1-4.1,6.2-4c4,0.4,8,0.6,12,0.7c-0.6,1.5-1.3,3-2.2,4.3c-0.7,0-1.4,0-2.1-0.1
		c0.7,0.1,1.3,0.1,2,0.2c-1,1.6-2.2,3.1-3.5,4.4c-1.7,0-3.3,0-5-0.1c-0.3,1.8-0.7,2.9-1.8,2.8l-8.3-0.3c-2.3-0.1-2.3-7.6-2.2-11.5
		c0-1.8,0.1-3.5,0.2-5.2c0-3,0.2-6,0.3-8.9c0-0.5,0.4-0.9,0.9-1.1c2.6-0.9,5.1-1.8,7.1-3.3c-2.7,0-5-1.5-5-2.4
		c0.4-1.3,2.9-2.1,5.8-1.7c0.5,0.1,0.5,0.4,0.4,0.6c-0.4,0.7,0.1,1.2,0.6,1.5C43.5,15.4,44.7,12.8,47.7,10.4L47.7,10.4z M8.7,15.5
		C8.9,15.2,9,15,9.2,14.7l2.7,0.9l2.1,1.2l0.1-0.2l0.2,0.1L13.7,18l-0.2-0.1l0.1-0.2l-2-1.2L8.7,15.5L8.7,15.5z M41.3,12.1
		c-0.3-0.3-0.7-0.5-1.2-0.5c-0.5,0-0.9,0.2-1.2,0.5c-0.3,0.3-0.5,0.7-0.5,1.2c0,0.5,0.2,0.9,0.5,1.2v0c0.3,0.3,0.7,0.5,1.2,0.5
		c0.5,0,0.9-0.2,1.2-0.5c0.3-0.3,0.5-0.7,0.5-1.2C41.8,12.8,41.6,12.4,41.3,12.1L41.3,12.1z M33.2,12.1c0.5,0,0.9,0.2,1.2,0.5l0,0
		c0.3,0.3,0.5,0.7,0.5,1.2c0,0.5-0.2,0.9-0.5,1.2l0,0c-0.3,0.3-0.7,0.5-1.2,0.5c-0.5,0-0.9-0.2-1.2-0.5l0,0
		c-0.3-0.3-0.5-0.7-0.5-1.2c0-0.5,0.2-0.9,0.5-1.2l0,0C32.3,12.3,32.7,12.1,33.2,12.1L33.2,12.1z M34.2,12.8c-0.2-0.2-0.6-0.4-1-0.4
		c-0.4,0-0.7,0.2-1,0.4l0,0c-0.2,0.2-0.4,0.6-0.4,1c0,0.4,0.2,0.7,0.4,1h0c0.2,0.2,0.6,0.4,1,0.4c0.4,0,0.7-0.2,1-0.4l0,0
		c0.2-0.2,0.4-0.6,0.4-1C34.5,13.4,34.4,13.1,34.2,12.8L34.2,12.8L34.2,12.8z M29.9,13.6c0.3,0,0.6,0.1,0.9,0.4h0
		c0.2,0.2,0.4,0.5,0.4,0.9c0,0.3-0.1,0.6-0.4,0.9l0,0c-0.2,0.2-0.5,0.4-0.9,0.4c-0.3,0-0.6-0.1-0.9-0.4v0c-0.2-0.2-0.4-0.5-0.4-0.9
		c0-0.3,0.1-0.6,0.4-0.9C29.2,13.8,29.5,13.6,29.9,13.6L29.9,13.6z M30.5,14.2c-0.2-0.2-0.4-0.3-0.6-0.3c-0.2,0-0.5,0.1-0.6,0.3
		c-0.2,0.2-0.3,0.4-0.3,0.6c0,0.2,0.1,0.5,0.3,0.6l0,0c0.2,0.2,0.4,0.3,0.6,0.3c0.2,0,0.5-0.1,0.6-0.3l0,0c0.2-0.2,0.3-0.4,0.3-0.6
		C30.8,14.6,30.7,14.4,30.5,14.2L30.5,14.2L30.5,14.2z M36.1,6.7c0.3,0,0.6,0.1,0.9,0.4h0c0.2,0.2,0.4,0.5,0.4,0.9
		c0,0.3-0.1,0.6-0.4,0.9h0c-0.2,0.2-0.5,0.4-0.9,0.4c-0.3,0-0.6-0.1-0.9-0.4c-0.2-0.2-0.4-0.5-0.4-0.9c0-0.3,0.1-0.6,0.4-0.9v0
		C35.4,6.9,35.7,6.7,36.1,6.7L36.1,6.7z M36.7,7.3C36.5,7.1,36.3,7,36.1,7s-0.5,0.1-0.6,0.3l0,0c-0.2,0.2-0.3,0.4-0.3,0.6
		c0,0.2,0.1,0.5,0.3,0.6c0.2,0.2,0.4,0.3,0.6,0.3s0.5-0.1,0.6-0.3l0,0C36.9,8.4,37,8.2,37,7.9C37,7.7,36.9,7.5,36.7,7.3L36.7,7.3
		L36.7,7.3z M26.2,13.5c0.2,0,0.5,0.1,0.6,0.3h0c0.2,0.2,0.3,0.4,0.3,0.6c0,0.2-0.1,0.5-0.3,0.6l0,0c-0.2,0.2-0.4,0.3-0.6,0.3
		c-0.2,0-0.5-0.1-0.6-0.3v0c-0.2-0.2-0.3-0.4-0.3-0.6c0-0.2,0.1-0.5,0.3-0.6C25.8,13.6,26,13.5,26.2,13.5L26.2,13.5z M26.7,14
		c-0.1-0.1-0.3-0.2-0.4-0.2c-0.2,0-0.3,0.1-0.4,0.2c-0.1,0.1-0.2,0.3-0.2,0.4c0,0.2,0.1,0.3,0.2,0.4l0,0c0.1,0.1,0.3,0.2,0.4,0.2
		c0.2,0,0.3-0.1,0.4-0.2c0.1-0.1,0.2-0.3,0.2-0.4C26.8,14.3,26.8,14.1,26.7,14L26.7,14L26.7,14z M36.2,13.9c0.2,0,0.5,0.1,0.6,0.3v0
		c0.2,0.2,0.3,0.4,0.3,0.6c0,0.2-0.1,0.5-0.3,0.6l0,0c-0.2,0.2-0.4,0.3-0.6,0.3c-0.2,0-0.5-0.1-0.6-0.3h0c-0.2-0.2-0.3-0.4-0.3-0.6
		c0-0.2,0.1-0.5,0.3-0.6C35.7,14,35.9,13.9,36.2,13.9L36.2,13.9z M36.6,14.4L36.6,14.4c-0.1-0.1-0.3-0.2-0.4-0.2
		c-0.2,0-0.3,0.1-0.4,0.2c-0.1,0.1-0.2,0.3-0.2,0.4c0,0.2,0.1,0.3,0.2,0.4l0,0c0.1,0.1,0.3,0.2,0.4,0.2c0.2,0,0.3-0.1,0.4-0.2
		c0.1-0.1,0.2-0.3,0.2-0.4C36.8,14.6,36.7,14.5,36.6,14.4L36.6,14.4z M31.1,7.9c0.5,0,1,0.2,1.4,0.6l0,0c0.4,0.4,0.6,0.8,0.6,1.4
		c0,0.5-0.2,1-0.6,1.4h0c-0.4,0.4-0.8,0.6-1.4,0.6c-0.5,0-1-0.2-1.4-0.6v0c-0.4-0.4-0.6-0.8-0.6-1.4c0-0.5,0.2-1,0.6-1.4v0
		C30.1,8.1,30.6,7.9,31.1,7.9L31.1,7.9z M32.3,8.7c-0.3-0.3-0.7-0.5-1.2-0.5c-0.5,0-0.9,0.2-1.2,0.5l0,0c-0.3,0.3-0.5,0.7-0.5,1.2
		c0,0.5,0.2,0.9,0.5,1.2l0,0c0.3,0.3,0.7,0.5,1.2,0.5c0.5,0,0.9-0.2,1.2-0.5l0,0c0.3-0.3,0.5-0.7,0.5-1.2C32.8,9.4,32.6,9,32.3,8.7
		L32.3,8.7z M36.4,9.4c0.5,0,0.9,0.2,1.2,0.5l0,0c0.3,0.3,0.5,0.7,0.5,1.2c0,0.5-0.2,0.9-0.5,1.2c-0.3,0.3-0.7,0.5-1.2,0.5
		c-0.5,0-0.9-0.2-1.2-0.5l0,0c-0.3-0.3-0.5-0.7-0.5-1.2s0.2-0.9,0.5-1.2l0,0C35.5,9.6,35.9,9.4,36.4,9.4L36.4,9.4z M37.4,10.1
		c-0.2-0.2-0.6-0.4-1-0.4c-0.4,0-0.7,0.2-1,0.4h0c-0.2,0.2-0.4,0.6-0.4,1c0,0.4,0.2,0.7,0.4,1h0c0.2,0.2,0.6,0.4,1,0.4
		c0.4,0,0.7-0.2,1-0.4c0.2-0.2,0.4-0.6,0.4-1C37.7,10.7,37.6,10.3,37.4,10.1L37.4,10.1L37.4,10.1z M39.1,8.2c0.2,0,0.5,0.1,0.6,0.3
		v0C39.9,8.7,40,8.9,40,9.1c0,0.2-0.1,0.5-0.3,0.6l0,0c-0.2,0.2-0.4,0.3-0.6,0.3c-0.2,0-0.5-0.1-0.6-0.3h0c-0.2-0.2-0.3-0.4-0.3-0.6
		c0-0.2,0.1-0.5,0.3-0.6C38.6,8.3,38.9,8.2,39.1,8.2L39.1,8.2z M39.5,8.7L39.5,8.7c-0.1-0.1-0.3-0.2-0.4-0.2c-0.2,0-0.3,0.1-0.4,0.2
		c-0.1,0.1-0.2,0.3-0.2,0.4c0,0.2,0.1,0.3,0.2,0.4l0,0c0.1,0.1,0.3,0.2,0.4,0.2c0.2,0,0.3-0.1,0.4-0.2c0.1-0.1,0.2-0.3,0.2-0.4
		C39.7,9,39.6,8.8,39.5,8.7L39.5,8.7z M17.1,20.8c0,0,0.1,0,0.1,0l1.4-2.6c0,0,0-0.1,0-0.1l0,0c0,0-0.1,0-0.1,0l0,0l-3-1.6l-0.8,0
		l-1,1.8l0.4,0.7l2.9,1.7C17,20.7,17.1,20.8,17.1,20.8L17.1,20.8L17.1,20.8z M23.1,18.6c0.2,0,0.3,0.1,0.5,0.2l0,0
		c0.1,0.1,0.2,0.3,0.2,0.5c0,0.2-0.1,0.3-0.2,0.5c-0.1,0.1-0.3,0.2-0.5,0.2c-0.2,0-0.3-0.1-0.5-0.2h0c-0.1-0.1-0.2-0.3-0.2-0.5
		c0-0.2,0.1-0.3,0.2-0.5l0,0C22.7,18.7,22.9,18.6,23.1,18.6L23.1,18.6z M23.3,19c-0.1-0.1-0.2-0.1-0.2-0.1c-0.1,0-0.2,0-0.2,0.1h0
		c-0.1,0.1-0.1,0.2-0.1,0.2c0,0.1,0,0.2,0.1,0.2l0,0c0.1,0.1,0.2,0.1,0.2,0.1c0.1,0,0.2,0,0.2-0.1c0.1-0.1,0.1-0.2,0.1-0.2
		C23.4,19.1,23.4,19.1,23.3,19L23.3,19L23.3,19z M25.5,18.9c0.2,0,0.4,0.1,0.5,0.2c0.1,0.1,0.2,0.3,0.2,0.5S26.2,20,26,20.2
		c-0.1,0.1-0.3,0.2-0.5,0.2c-0.2,0-0.4-0.1-0.5-0.2c-0.1-0.1-0.2-0.3-0.2-0.5s0.1-0.4,0.2-0.5C25.1,19,25.3,18.9,25.5,18.9
		L25.5,18.9z M25.8,19.4c-0.1-0.1-0.2-0.1-0.3-0.1c-0.1,0-0.2,0-0.3,0.1c-0.1,0.1-0.1,0.2-0.1,0.3c0,0.1,0,0.2,0.1,0.3
		c0.1,0.1,0.2,0.1,0.3,0.1c0.1,0,0.2,0,0.3-0.1c0.1-0.1,0.1-0.2,0.1-0.3C25.9,19.5,25.9,19.4,25.8,19.4L25.8,19.4z M28,19.3
		c0.2,0,0.4,0.1,0.6,0.2h0c0.1,0.1,0.2,0.3,0.2,0.6c0,0.2-0.1,0.4-0.2,0.6l0,0c-0.1,0.1-0.3,0.2-0.6,0.2c-0.2,0-0.4-0.1-0.6-0.2l0,0
		c-0.1-0.1-0.2-0.3-0.2-0.6c0-0.2,0.1-0.4,0.2-0.6h0C27.5,19.4,27.7,19.3,28,19.3L28,19.3z M28.3,19.7c-0.1-0.1-0.2-0.1-0.3-0.1
		c-0.1,0-0.3,0.1-0.3,0.1l0,0c-0.1,0.1-0.1,0.2-0.1,0.3c0,0.1,0.1,0.3,0.1,0.3l0,0c0.1,0.1,0.2,0.1,0.3,0.1c0.1,0,0.3-0.1,0.3-0.1
		l0,0c0.1-0.1,0.1-0.2,0.1-0.3C28.4,20,28.4,19.8,28.3,19.7L28.3,19.7L28.3,19.7z M30.4,19.7c0.2,0,0.4,0.1,0.6,0.2v0
		c0.2,0.2,0.2,0.4,0.2,0.6c0,0.2-0.1,0.4-0.2,0.6l0,0c-0.2,0.2-0.4,0.2-0.6,0.2c-0.2,0-0.4-0.1-0.6-0.2l0,0
		c-0.2-0.2-0.2-0.4-0.2-0.6c0-0.2,0.1-0.4,0.2-0.6C29.9,19.8,30.2,19.7,30.4,19.7L30.4,19.7z M30.8,20.1L30.8,20.1
		C30.7,20,30.5,20,30.4,20c-0.2,0-0.3,0.1-0.4,0.2c-0.1,0.1-0.2,0.2-0.2,0.4c0,0.2,0.1,0.3,0.2,0.4l0,0c0.1,0.1,0.2,0.2,0.4,0.2
		c0.2,0,0.3-0.1,0.4-0.2l0,0c0.1-0.1,0.2-0.2,0.2-0.4C30.9,20.4,30.9,20.2,30.8,20.1L30.8,20.1z M32.8,20c0.3,0,0.5,0.1,0.6,0.3h0
		c0.2,0.2,0.3,0.4,0.3,0.6c0,0.3-0.1,0.5-0.3,0.6l0,0c-0.2,0.2-0.4,0.3-0.6,0.3c-0.3,0-0.5-0.1-0.6-0.3l0,0l0,0
		c-0.2-0.2-0.3-0.4-0.3-0.6c0-0.3,0.1-0.5,0.3-0.6l0,0C32.4,20.1,32.6,20,32.8,20L32.8,20z M33.3,20.5c-0.1-0.1-0.3-0.2-0.4-0.2
		c-0.2,0-0.3,0.1-0.4,0.2h0c-0.1,0.1-0.2,0.3-0.2,0.4c0,0.2,0.1,0.3,0.2,0.4l0,0c0.1,0.1,0.3,0.2,0.4,0.2c0.2,0,0.3-0.1,0.4-0.2l0,0
		c0.1-0.1,0.2-0.3,0.2-0.4C33.4,20.8,33.4,20.6,33.3,20.5L33.3,20.5L33.3,20.5z M22.3,20.2c0.2,0,0.4,0.1,0.5,0.2
		c0.1,0.1,0.2,0.3,0.2,0.5c0,0.2-0.1,0.4-0.2,0.5l0,0c-0.1,0.1-0.3,0.2-0.5,0.2s-0.4-0.1-0.5-0.2l0,0c-0.1-0.1-0.2-0.3-0.2-0.5
		c0-0.2,0.1-0.4,0.2-0.5l0,0C21.9,20.3,22.1,20.2,22.3,20.2L22.3,20.2z M22.5,20.6c-0.1-0.1-0.2-0.1-0.3-0.1c-0.1,0-0.2,0-0.3,0.1v0
		c-0.1,0.1-0.1,0.2-0.1,0.3c0,0.1,0,0.2,0.1,0.3l0,0c0.1,0.1,0.2,0.1,0.3,0.1c0.1,0,0.2,0,0.3-0.1l0,0c0.1-0.1,0.1-0.2,0.1-0.3
		C22.7,20.8,22.6,20.7,22.5,20.6L22.5,20.6z M24.4,21c0.2,0,0.4,0.1,0.5,0.2h0c0.1,0.1,0.2,0.3,0.2,0.5c0,0.2-0.1,0.4-0.2,0.5l0,0
		c-0.1,0.1-0.3,0.2-0.5,0.2c-0.2,0-0.4-0.1-0.5-0.2l0,0c-0.1-0.1-0.2-0.3-0.2-0.5c0-0.2,0.1-0.4,0.2-0.5h0C24,21.1,24.2,21,24.4,21
		L24.4,21z M24.7,21.4c-0.1-0.1-0.2-0.1-0.3-0.1c-0.1,0-0.2,0.1-0.3,0.1l0,0C24,21.5,24,21.6,24,21.8c0,0.1,0,0.2,0.1,0.3l0,0
		c0.1,0.1,0.2,0.1,0.3,0.1c0.1,0,0.2,0,0.3-0.1l0,0c0.1-0.1,0.1-0.2,0.1-0.3C24.9,21.6,24.8,21.5,24.7,21.4L24.7,21.4L24.7,21.4z
		 M26.5,21.8c0.2,0,0.4,0.1,0.6,0.2c0.1,0.1,0.2,0.4,0.2,0.6c0,0.2-0.1,0.4-0.2,0.6l0,0c-0.1,0.1-0.4,0.2-0.6,0.2
		c-0.2,0-0.4-0.1-0.6-0.2l0,0c-0.1-0.1-0.2-0.4-0.2-0.6c0-0.2,0.1-0.4,0.2-0.6l0,0C26.1,21.9,26.3,21.8,26.5,21.8L26.5,21.8z
		 M26.9,22.3c-0.1-0.1-0.2-0.2-0.4-0.2c-0.1,0-0.3,0.1-0.4,0.2l0,0c-0.1,0.1-0.2,0.2-0.2,0.4c0,0.1,0.1,0.3,0.2,0.4h0
		c0.1,0.1,0.2,0.2,0.4,0.2c0.1,0,0.3-0.1,0.4-0.2c0.1-0.1,0.2-0.2,0.2-0.4S27,22.4,26.9,22.3L26.9,22.3z M28.7,22.6
		c0.2,0,0.5,0.1,0.6,0.3h0c0.2,0.2,0.3,0.4,0.3,0.6c0,0.2-0.1,0.5-0.3,0.6h0c-0.2,0.2-0.4,0.3-0.6,0.3c-0.2,0-0.5-0.1-0.6-0.3
		c-0.2-0.2-0.3-0.4-0.3-0.6c0-0.3,0.1-0.5,0.3-0.6C28.2,22.7,28.4,22.6,28.7,22.6L28.7,22.6z M29.1,23.1c-0.1-0.1-0.3-0.2-0.4-0.2
		c-0.2,0-0.3,0.1-0.4,0.2c-0.1,0.1-0.2,0.3-0.2,0.4c0,0.2,0.1,0.3,0.2,0.4c0.1,0.1,0.3,0.2,0.4,0.2c0.2,0,0.3-0.1,0.4-0.2l0,0
		c0.1-0.1,0.2-0.3,0.2-0.4C29.3,23.4,29.2,23.2,29.1,23.1L29.1,23.1L29.1,23.1z M21.6,21.8c0.2,0,0.4,0.1,0.5,0.2h0
		c0.1,0.1,0.2,0.3,0.2,0.5c0,0.2-0.1,0.4-0.2,0.5l0,0c-0.1,0.1-0.3,0.2-0.5,0.2c-0.2,0-0.4-0.1-0.5-0.2C21,22.8,21,22.7,21,22.5
		c0-0.2,0.1-0.4,0.2-0.5C21.3,21.9,21.4,21.8,21.6,21.8L21.6,21.8z M21.9,22.2c-0.1-0.1-0.2-0.1-0.3-0.1c-0.1,0-0.2,0-0.3,0.1
		c-0.1,0.1-0.1,0.2-0.1,0.3c0,0.1,0,0.2,0.1,0.3c0.1,0.1,0.2,0.1,0.3,0.1c0.1,0,0.2,0,0.3-0.1l0,0c0.1-0.1,0.1-0.2,0.1-0.3
		C22,22.4,21.9,22.3,21.9,22.2L21.9,22.2L21.9,22.2z M23.7,23.2c0.2,0,0.4,0.1,0.5,0.2h0c0.1,0.1,0.2,0.3,0.2,0.5
		c0,0.2-0.1,0.4-0.2,0.5l0,0c-0.1,0.1-0.3,0.2-0.5,0.2c-0.2,0-0.4-0.1-0.5-0.2l0,0c-0.1-0.1-0.2-0.3-0.2-0.5c0-0.2,0.1-0.4,0.2-0.5
		h0C23.3,23.3,23.5,23.2,23.7,23.2L23.7,23.2z M24,23.6c-0.1-0.1-0.2-0.1-0.3-0.1c-0.1,0-0.2,0.1-0.3,0.1l0,0
		c-0.1,0.1-0.1,0.2-0.1,0.3c0,0.1,0,0.2,0.1,0.3l0,0c0.1,0.1,0.2,0.1,0.3,0.1c0.1,0,0.2,0,0.3-0.1l0,0c0.1-0.1,0.1-0.2,0.1-0.3
		C24.1,23.8,24.1,23.7,24,23.6L24,23.6L24,23.6z M25.7,24.5c0.2,0,0.4,0.1,0.6,0.2v0c0.1,0.1,0.2,0.4,0.2,0.6c0,0.2-0.1,0.4-0.2,0.6
		v0c-0.1,0.1-0.4,0.2-0.6,0.2c-0.2,0-0.4-0.1-0.6-0.2l0,0c-0.1-0.1-0.2-0.4-0.2-0.6c0-0.2,0.1-0.4,0.2-0.6l0,0
		C25.3,24.6,25.5,24.5,25.7,24.5L25.7,24.5z M26.1,25L26.1,25c-0.1-0.1-0.2-0.2-0.4-0.2c-0.1,0-0.3,0.1-0.4,0.2
		c-0.1,0.1-0.2,0.2-0.2,0.4c0,0.1,0.1,0.3,0.2,0.4c0.1,0.1,0.2,0.2,0.4,0.2c0.1,0,0.3-0.1,0.4-0.2l0,0c0.1-0.1,0.2-0.2,0.2-0.4
		S26.2,25.1,26.1,25L26.1,25z M27.7,25.9c0.2,0,0.5,0.1,0.6,0.3h0c0.2,0.2,0.3,0.4,0.3,0.6c0,0.2-0.1,0.5-0.3,0.6l0,0
		c-0.2,0.2-0.4,0.3-0.6,0.3c-0.2,0-0.5-0.1-0.6-0.3v0c-0.2-0.2-0.3-0.4-0.3-0.6c0-0.2,0.1-0.5,0.3-0.6l0,0
		C27.2,26,27.5,25.9,27.7,25.9L27.7,25.9z M28.1,26.3c-0.1-0.1-0.3-0.2-0.4-0.2c-0.2,0-0.3,0.1-0.4,0.2l0,0
		c-0.1,0.1-0.2,0.3-0.2,0.4c0,0.2,0.1,0.3,0.2,0.4l0,0c0.1,0.1,0.3,0.2,0.4,0.2s0.3-0.1,0.4-0.2c0.1-0.1,0.2-0.3,0.2-0.4
		C28.3,26.6,28.3,26.4,28.1,26.3L28.1,26.3L28.1,26.3z M20.7,23.2c0.2,0,0.3,0.1,0.5,0.2c0.1,0.1,0.2,0.3,0.2,0.5
		c0,0.2-0.1,0.3-0.2,0.5l0,0c-0.1,0.1-0.3,0.2-0.5,0.2c-0.2,0-0.3-0.1-0.5-0.2l0,0c-0.1-0.1-0.2-0.3-0.2-0.5c0-0.2,0.1-0.3,0.2-0.5
		l0,0C20.4,23.3,20.5,23.2,20.7,23.2L20.7,23.2z M21,23.7c-0.1-0.1-0.2-0.1-0.2-0.1c-0.1,0-0.2,0-0.2,0.1v0
		c-0.1,0.1-0.1,0.2-0.1,0.3c0,0.1,0,0.2,0.1,0.2l0,0c0.1,0.1,0.2,0.1,0.2,0.1c0.1,0,0.2,0,0.2-0.1h0c0.1-0.1,0.1-0.2,0.1-0.2
		C21.1,23.8,21,23.7,21,23.7L21,23.7z M22.5,25c0.2,0,0.4,0.1,0.5,0.2c0.1,0.1,0.2,0.3,0.2,0.5c0,0.2-0.1,0.4-0.2,0.5
		c-0.1,0.1-0.3,0.2-0.5,0.2c-0.2,0-0.4-0.1-0.5-0.2v0c-0.1-0.1-0.2-0.3-0.2-0.5c0-0.2,0.1-0.4,0.2-0.5C22.1,25.1,22.3,25,22.5,25
		L22.5,25z M22.8,25.5c-0.1-0.1-0.2-0.1-0.3-0.1s-0.2,0-0.3,0.1c-0.1,0.1-0.1,0.2-0.1,0.3c0,0.1,0,0.2,0.1,0.3l0,0
		c0.1,0.1,0.2,0.1,0.3,0.1s0.2,0,0.3-0.1c0.1-0.1,0.1-0.2,0.1-0.3C22.9,25.6,22.8,25.5,22.8,25.5L22.8,25.5z M24.2,26.8
		c0.2,0,0.4,0.1,0.6,0.2h0c0.1,0.1,0.2,0.3,0.2,0.6c0,0.2-0.1,0.4-0.2,0.6h0c-0.1,0.1-0.3,0.2-0.6,0.2c-0.2,0-0.4-0.1-0.6-0.2
		c-0.1-0.1-0.2-0.3-0.2-0.6c0-0.2,0.1-0.4,0.2-0.6v0C23.8,26.9,24,26.8,24.2,26.8L24.2,26.8z M24.5,27.2c-0.1-0.1-0.2-0.1-0.3-0.1
		s-0.3,0.1-0.3,0.1l0,0c-0.1,0.1-0.1,0.2-0.1,0.3c0,0.1,0.1,0.3,0.1,0.3c0.1,0.1,0.2,0.1,0.3,0.1s0.3-0.1,0.3-0.1l0,0
		c0.1-0.1,0.1-0.2,0.1-0.3C24.7,27.5,24.6,27.3,24.5,27.2L24.5,27.2L24.5,27.2z M25.9,28.6c0.2,0,0.4,0.1,0.6,0.2h0
		c0.2,0.2,0.2,0.4,0.2,0.6c0,0.2-0.1,0.4-0.2,0.6l0,0c-0.2,0.2-0.4,0.2-0.6,0.2c-0.2,0-0.4-0.1-0.6-0.2h0c-0.2-0.2-0.2-0.4-0.2-0.6
		c0-0.2,0.1-0.4,0.2-0.6h0C25.5,28.7,25.7,28.6,25.9,28.6L25.9,28.6z M26.3,29c-0.1-0.1-0.2-0.2-0.4-0.2c-0.2,0-0.3,0.1-0.4,0.2l0,0
		c-0.1,0.1-0.2,0.2-0.2,0.4c0,0.2,0.1,0.3,0.2,0.4l0,0c0.1,0.1,0.2,0.2,0.4,0.2c0.2,0,0.3-0.1,0.4-0.2l0,0c0.1-0.1,0.2-0.2,0.2-0.4
		C26.5,29.3,26.4,29.1,26.3,29L26.3,29L26.3,29z M27.7,30.3c0.3,0,0.5,0.1,0.6,0.3h0c0.2,0.2,0.3,0.4,0.3,0.6c0,0.3-0.1,0.5-0.3,0.6
		h0c-0.2,0.2-0.4,0.3-0.6,0.3c-0.3,0-0.5-0.1-0.6-0.3c-0.2-0.2-0.3-0.4-0.3-0.6c0-0.3,0.1-0.5,0.3-0.6
		C27.2,30.4,27.4,30.3,27.7,30.3L27.7,30.3z M28.1,30.8c-0.1-0.1-0.3-0.2-0.4-0.2c-0.2,0-0.3,0.1-0.4,0.2c-0.1,0.1-0.2,0.3-0.2,0.4
		c0,0.2,0.1,0.3,0.2,0.4c0.1,0.1,0.3,0.2,0.4,0.2c0.2,0,0.3-0.1,0.4-0.2l0,0c0.1-0.1,0.2-0.3,0.2-0.4C28.3,31.1,28.2,30.9,28.1,30.8
		L28.1,30.8L28.1,30.8z M20.6,18.2c0.2,0,0.3,0.1,0.4,0.2c0.1,0.1,0.2,0.3,0.2,0.4c0,0.2-0.1,0.3-0.2,0.4v0
		c-0.1,0.1-0.3,0.2-0.4,0.2c-0.2,0-0.3-0.1-0.4-0.2v0C20.1,19.1,20,19,20,18.8c0-0.2,0.1-0.3,0.2-0.4C20.3,18.3,20.5,18.2,20.6,18.2
		L20.6,18.2z M20.8,18.6c-0.1-0.1-0.1-0.1-0.2-0.1c-0.1,0-0.2,0-0.2,0.1c-0.1,0.1-0.1,0.1-0.1,0.2c0,0.1,0,0.2,0.1,0.2l0,0
		c0.1,0.1,0.1,0.1,0.2,0.1c0.1,0,0.2,0,0.2-0.1l0,0c0.1-0.1,0.1-0.1,0.1-0.2C20.9,18.7,20.9,18.7,20.8,18.6L20.8,18.6z M20.2,19.4
		c0.2,0,0.3,0.1,0.4,0.2v0c0.1,0.1,0.2,0.3,0.2,0.4c0,0.2-0.1,0.3-0.2,0.4l0,0c-0.1,0.1-0.3,0.2-0.4,0.2c-0.2,0-0.3-0.1-0.4-0.2h0
		c-0.1-0.1-0.2-0.3-0.2-0.4c0-0.2,0.1-0.3,0.2-0.4l0,0C19.9,19.4,20,19.4,20.2,19.4L20.2,19.4z M20.4,19.8L20.4,19.8
		c-0.1-0.1-0.1-0.1-0.2-0.1c-0.1,0-0.2,0-0.2,0.1l0,0c-0.1,0.1-0.1,0.1-0.1,0.2c0,0.1,0,0.2,0.1,0.2l0,0c0.1,0.1,0.1,0.1,0.2,0.1
		c0.1,0,0.2,0,0.2-0.1l0,0c0.1-0.1,0.1-0.1,0.1-0.2C20.5,19.9,20.4,19.8,20.4,19.8L20.4,19.8z M19.6,20.5c0.2,0,0.3,0.1,0.4,0.2
		c0.1,0.1,0.2,0.3,0.2,0.4c0,0.2-0.1,0.3-0.2,0.4l0,0c-0.1,0.1-0.3,0.2-0.4,0.2c-0.1,0-0.1,0-0.2,0l0,0v0c0.1,0.1,0.2,0.3,0.2,0.4
		c0,0.2-0.1,0.3-0.2,0.4c-0.1,0.1-0.3,0.2-0.4,0.2c-0.2,0-0.3-0.1-0.4-0.2v0c-0.1-0.1-0.2-0.3-0.2-0.4c0-0.2,0.1-0.3,0.2-0.4v0
		c0.1-0.1,0.3-0.2,0.4-0.2c0.1,0,0.1,0,0.2,0l0,0h0c-0.1-0.1-0.2-0.3-0.2-0.4c0-0.2,0.1-0.3,0.2-0.4h0
		C19.3,20.5,19.4,20.5,19.6,20.5L19.6,20.5z M19.8,20.9c-0.1-0.1-0.1-0.1-0.2-0.1c-0.1,0-0.2,0-0.2,0.1l0,0
		c-0.1,0.1-0.1,0.1-0.1,0.2c0,0.1,0,0.2,0.1,0.2l0,0c0.1,0.1,0.1,0.1,0.2,0.1c0.1,0,0.2,0,0.2-0.1l0,0c0.1-0.1,0.1-0.1,0.1-0.2
		C19.9,21,19.8,20.9,19.8,20.9L19.8,20.9z M19.2,21.9L19.2,21.9c-0.1-0.1-0.1-0.1-0.2-0.1c-0.1,0-0.2,0-0.2,0.1l0,0
		c-0.1,0.1-0.1,0.1-0.1,0.2c0,0.1,0,0.2,0.1,0.2l0,0c0.1,0.1,0.1,0.1,0.2,0.1c0.1,0,0.2,0,0.2-0.1c0.1-0.1,0.1-0.1,0.1-0.2
		C19.3,22,19.2,21.9,19.2,21.9L19.2,21.9z M29.4,32.1c0.3,0,0.5,0.1,0.7,0.3l0,0c0.2,0.2,0.3,0.4,0.3,0.7c0,0.3-0.1,0.5-0.3,0.7l0,0
		c-0.2,0.2-0.4,0.3-0.7,0.3c-0.3,0-0.5-0.1-0.7-0.3l0,0c-0.2-0.2-0.3-0.4-0.3-0.7c0-0.3,0.1-0.5,0.3-0.7l0,0
		C28.9,32.2,29.2,32.1,29.4,32.1L29.4,32.1z M29.9,32.6L29.9,32.6c-0.1-0.1-0.3-0.2-0.5-0.2c-0.2,0-0.4,0.1-0.5,0.2l0,0
		c-0.1,0.1-0.2,0.3-0.2,0.5c0,0.2,0.1,0.4,0.2,0.5l0,0c0.1,0.1,0.3,0.2,0.5,0.2c0.2,0,0.4-0.1,0.5-0.2l0,0c0.1-0.1,0.2-0.3,0.2-0.5
		C30.1,32.9,30,32.7,29.9,32.6L29.9,32.6z M29.8,27.2c0.3,0,0.5,0.1,0.7,0.3l0,0c0.2,0.2,0.3,0.4,0.3,0.7c0,0.3-0.1,0.5-0.3,0.7
		c-0.2,0.2-0.4,0.3-0.7,0.3c-0.3,0-0.5-0.1-0.7-0.3c-0.2-0.2-0.3-0.4-0.3-0.7c0-0.3,0.1-0.5,0.3-0.7l0,0
		C29.2,27.3,29.5,27.2,29.8,27.2L29.8,27.2z M30.2,27.7L30.2,27.7c-0.1-0.1-0.3-0.2-0.5-0.2c-0.2,0-0.4,0.1-0.5,0.2l0,0
		c-0.1,0.1-0.2,0.3-0.2,0.5c0,0.2,0.1,0.4,0.2,0.5c0.1,0.1,0.3,0.2,0.5,0.2c0.2,0,0.4-0.1,0.5-0.2c0.1-0.1,0.2-0.3,0.2-0.5
		C30.4,28,30.4,27.8,30.2,27.7L30.2,27.7z M30.8,23.5c0.3,0,0.5,0.1,0.7,0.3c0.2,0.2,0.3,0.4,0.3,0.7c0,0.3-0.1,0.5-0.3,0.7l0,0
		c-0.2,0.2-0.4,0.3-0.7,0.3c-0.3,0-0.5-0.1-0.7-0.3c-0.2-0.2-0.3-0.4-0.3-0.7c0-0.3,0.1-0.5,0.3-0.7l0,0
		C30.3,23.6,30.5,23.5,30.8,23.5L30.8,23.5z M31.3,24c-0.1-0.1-0.3-0.2-0.5-0.2c-0.2,0-0.4,0.1-0.5,0.2l0,0
		c-0.1,0.1-0.2,0.3-0.2,0.5c0,0.2,0.1,0.4,0.2,0.5c0.1,0.1,0.3,0.2,0.5,0.2c0.2,0,0.4-0.1,0.5-0.2l0,0c0.1-0.1,0.2-0.3,0.2-0.5
		C31.5,24.2,31.4,24.1,31.3,24L31.3,24z M35.3,20.4c0.3,0,0.5,0.1,0.7,0.3c0.2,0.2,0.3,0.4,0.3,0.7c0,0.3-0.1,0.5-0.3,0.7
		c-0.2,0.2-0.4,0.3-0.7,0.3c-0.3,0-0.5-0.1-0.7-0.3l0,0c-0.2-0.2-0.3-0.4-0.3-0.7c0-0.3,0.1-0.5,0.3-0.7l0,0
		C34.8,20.5,35,20.4,35.3,20.4L35.3,20.4z M35.8,20.9c-0.1-0.1-0.3-0.2-0.5-0.2s-0.4,0.1-0.5,0.2l0,0c-0.1,0.1-0.2,0.3-0.2,0.5
		c0,0.2,0.1,0.4,0.2,0.5l0,0c0.1,0.1,0.3,0.2,0.5,0.2s0.4-0.1,0.5-0.2c0.1-0.1,0.2-0.3,0.2-0.5C36,21.2,35.9,21,35.8,20.9L35.8,20.9
		z M41.8,19.7c2.5,2.1,5.3,3.8,8.7,5.2C48,22.7,45.1,21,41.8,19.7L41.8,19.7z"/>
</g>
</svg>
