<?xml version="1.0" encoding="utf-8"?>
<svg xmlns="http://www.w3.org/2000/svg" width="64" height="64">
<style type="text/css">
	.st0{fill-rule:evenodd;clip-rule:evenodd;}
</style>
<g fill="#7E8895">
	<path class="st0" d="M30,1c16,0,29,13,29,29S46,59,30,59C14,59,1,46,1,30S14,1,30,1L30,1z M30,2.4c15.2,0,27.6,12.3,27.6,27.6
		S45.2,57.6,30,57.6C14.8,57.6,2.5,45.2,2.5,30S14.8,2.4,30,2.4L30,2.4z"/>
</g>
<g fill="#7E8895">
	<path class="st0" d="M47.6,10.4c0.2,0.2,0.4,0.4,0.6,0.6c-2.1,2-5.1,5.8-4.9,7.7c3.4-0.3,6.8-0.5,10.2-0.7c1.4,2.8,2.3,5.8,2.7,9.1
		c-5.8-0.2-11.6-0.5-17.5-0.8c0.4,1.8,0.5,2.6,1.1,3.2c-0.1-0.3-0.1-0.6-0.1-0.9c0-0.6,0.2-1.2,0.5-1.6l0.5,0
		c-0.3,0.4-0.5,0.9-0.5,1.4c0,0.6,0.2,1.2,0.6,1.6c0.4,0.1,0.8,0.2,1.4,0.4c0.5,0.1,1,0.2,1.5,0.3c0.9-0.4,1.5-1.3,1.5-2.3
		c0-0.5-0.1-0.9-0.3-1.2l0.5,0c0.2,0.4,0.3,0.9,0.3,1.4c0,0.9-0.4,1.7-1,2.3c0.7,0.1,1.4,0.2,2.2,0.3c-0.5-0.5-0.8-1.2-0.8-2
		c0-0.7,0.2-1.3,0.6-1.9l0.5,0c-0.4,0.4-0.6,1-0.6,1.7c0,1,0.6,1.9,1.5,2.3l1.5,0.1c1.1-0.2,2-1.2,2-2.4c0-0.6-0.2-1.1-0.5-1.5
		l0.5,0c0.3,0.5,0.5,1,0.5,1.6c0,1-0.5,1.8-1.2,2.4c0.2,0,0.5,0,0.7,0.1c1.7,0.2,2.2,0.8,3.4,1.5c0.4,0.1,0.8,0.1,1.2,0.1
		c-0.2,1.8-0.7,3.6-1.2,5.2c-4.1-0.2-8.3-0.5-12.6-0.9c-2.5-0.2-4.7,1.8-5.9,4.9c2.6-3.5,4.1-4.1,6.2-4c4,0.4,8,0.6,12,0.7
		c-0.6,1.5-1.3,3-2.2,4.3c-0.7,0-1.4,0-2.1-0.1c0.7,0.1,1.3,0.1,2,0.2c-1,1.6-2.2,3.1-3.5,4.4c-1.7,0-3.3,0-5-0.1
		c-0.3,1.8-0.7,2.9-1.8,2.8l-8.3-0.3c-2.3-0.1-2.3-7.6-2.2-11.5c0-1.8,0.1-3.5,0.2-5.2c0-3,0.2-6,0.3-8.9c0-0.5,0.4-0.9,0.9-1.1
		c2.6-0.9,5.1-1.8,7.1-3.3c-2.7,0-5-1.5-5-2.4c0.4-1.3,2.9-2.1,5.8-1.7c0.5,0.1,0.5,0.4,0.4,0.6c-0.4,0.7,0.1,1.2,0.6,1.5
		C43.4,15.4,44.5,12.8,47.6,10.4L47.6,10.4z M8.6,15.5c0.2-0.3,0.3-0.5,0.5-0.7l2.7,0.9l2.1,1.2l0.1-0.2l0.2,0.1L13.6,18l-0.2-0.1
		l0.1-0.2l-2-1.2L8.6,15.5L8.6,15.5z M41.7,19.7c2.5,2.1,5.3,3.8,8.7,5.2C47.8,22.7,45,21,41.7,19.7L41.7,19.7z M17,20.8
		c0,0,0.1,0,0.1,0l1.4-2.6c0,0,0-0.1,0-0.1l0,0c0,0-0.1,0-0.1,0l0,0l-3-1.6l-0.8,0l-1,1.8L14,19l2.9,1.7
		C16.9,20.7,16.9,20.8,17,20.8L17,20.8L17,20.8z M19.7,18.4c0.2,0,0.3,0.1,0.3,0.3c0,0.2-0.1,0.3-0.3,0.3c-0.2,0-0.3-0.1-0.3-0.3
		C19.5,18.6,19.6,18.4,19.7,18.4L19.7,18.4z M19.4,19.1c0.2,0,0.3,0.1,0.3,0.3s-0.1,0.3-0.3,0.3c-0.2,0-0.3-0.1-0.3-0.3
		S19.3,19.1,19.4,19.1L19.4,19.1z M19,19.7c0.2,0,0.3,0.1,0.3,0.3c0,0.2-0.1,0.3-0.3,0.3c-0.2,0-0.3-0.1-0.3-0.3
		C18.8,19.9,18.9,19.7,19,19.7L19,19.7z M18.7,20.4c0.2,0,0.3,0.1,0.3,0.3c0,0.2-0.1,0.3-0.3,0.3c-0.2,0-0.3-0.1-0.3-0.3
		C18.4,20.6,18.5,20.4,18.7,20.4L18.7,20.4z M18.3,21.1c0.2,0,0.3,0.1,0.3,0.3c0,0.2-0.1,0.3-0.3,0.3c-0.2,0-0.3-0.1-0.3-0.3
		C18,21.2,18.1,21.1,18.3,21.1L18.3,21.1z M19.8,22.7c0.2,0,0.3,0.1,0.3,0.3c0,0.2-0.1,0.3-0.3,0.3c-0.2,0-0.3-0.1-0.3-0.3
		C19.5,22.9,19.7,22.7,19.8,22.7L19.8,22.7z M21.4,24.4c0.2,0,0.4,0.2,0.4,0.4c0,0.2-0.2,0.4-0.4,0.4c-0.2,0-0.4-0.2-0.4-0.4
		C21,24.5,21.2,24.4,21.4,24.4L21.4,24.4z M23,26c0.2,0,0.4,0.2,0.4,0.4c0,0.2-0.2,0.4-0.4,0.4c-0.2,0-0.4-0.2-0.4-0.4
		C22.6,26.2,22.7,26,23,26L23,26z M24.6,27.6c0.3,0,0.5,0.2,0.5,0.5c0,0.3-0.2,0.5-0.5,0.5c-0.3,0-0.5-0.2-0.5-0.5
		C24.1,27.8,24.3,27.6,24.6,27.6L24.6,27.6z M26.1,29.2c0.3,0,0.5,0.2,0.5,0.5s-0.2,0.5-0.5,0.5c-0.3,0-0.5-0.2-0.5-0.5
		S25.8,29.2,26.1,29.2L26.1,29.2z M27.7,30.8c0.3,0,0.6,0.3,0.6,0.6c0,0.3-0.3,0.6-0.6,0.6c-0.3,0-0.6-0.3-0.6-0.6
		C27.1,31.1,27.4,30.8,27.7,30.8L27.7,30.8z M29.3,32.5c0.4,0,0.6,0.3,0.6,0.6c0,0.4-0.3,0.6-0.6,0.6c-0.4,0-0.6-0.3-0.6-0.6
		C28.6,32.7,28.9,32.5,29.3,32.5L29.3,32.5z M20.5,21.7c0.2,0,0.3,0.2,0.3,0.3c0,0.2-0.2,0.3-0.3,0.3c-0.2,0-0.3-0.2-0.3-0.3
		C20.1,21.8,20.3,21.7,20.5,21.7L20.5,21.7z M22.2,22.9c0.2,0,0.4,0.2,0.4,0.4c0,0.2-0.2,0.4-0.4,0.4c-0.2,0-0.4-0.2-0.4-0.4
		C21.8,23.1,22,22.9,22.2,22.9L22.2,22.9z M24,24.2c0.3,0,0.5,0.2,0.5,0.5c0,0.3-0.2,0.5-0.5,0.5c-0.3,0-0.5-0.2-0.5-0.5
		C23.5,24.4,23.7,24.2,24,24.2L24,24.2z M25.8,25.4c0.3,0,0.5,0.2,0.5,0.5c0,0.3-0.2,0.5-0.5,0.5c-0.3,0-0.5-0.2-0.5-0.5
		C25.2,25.6,25.5,25.4,25.8,25.4L25.8,25.4z M27.5,26.7c0.3,0,0.6,0.3,0.6,0.6c0,0.3-0.3,0.6-0.6,0.6c-0.3,0-0.6-0.3-0.6-0.6
		C26.9,26.9,27.2,26.7,27.5,26.7L27.5,26.7z M29.3,27.9c0.4,0,0.6,0.3,0.6,0.6c0,0.4-0.3,0.6-0.6,0.6c-0.4,0-0.6-0.3-0.6-0.6
		C28.7,28.2,28.9,27.9,29.3,27.9L29.3,27.9z M20.9,20.6c0.2,0,0.3,0.2,0.3,0.3c0,0.2-0.2,0.3-0.3,0.3c-0.2,0-0.3-0.2-0.3-0.3
		C20.6,20.8,20.7,20.6,20.9,20.6L20.9,20.6z M22.8,21.5c0.2,0,0.4,0.2,0.4,0.4c0,0.2-0.2,0.4-0.4,0.4c-0.2,0-0.4-0.2-0.4-0.4
		C22.3,21.7,22.5,21.5,22.8,21.5L22.8,21.5z M24.6,22.4c0.3,0,0.5,0.2,0.5,0.5c0,0.3-0.2,0.5-0.5,0.5c-0.3,0-0.5-0.2-0.5-0.5
		C24.1,22.6,24.3,22.4,24.6,22.4L24.6,22.4z M26.5,23.2c0.3,0,0.5,0.2,0.5,0.5c0,0.3-0.2,0.5-0.5,0.5c-0.3,0-0.5-0.2-0.5-0.5
		C25.9,23.5,26.2,23.2,26.5,23.2L26.5,23.2z M28.3,24.1c0.3,0,0.6,0.3,0.6,0.6c0,0.3-0.3,0.6-0.6,0.6c-0.3,0-0.6-0.3-0.6-0.6
		C27.7,24.4,28,24.1,28.3,24.1L28.3,24.1z M30.2,25c0.4,0,0.6,0.3,0.6,0.6c0,0.4-0.3,0.6-0.6,0.6s-0.6-0.3-0.6-0.6
		C29.5,25.3,29.8,25,30.2,25L30.2,25z M21.5,19.6c0.2,0,0.3,0.2,0.3,0.3c0,0.2-0.2,0.3-0.3,0.3c-0.2,0-0.3-0.2-0.3-0.3
		C21.1,19.8,21.3,19.6,21.5,19.6L21.5,19.6z M23.5,20.2c0.2,0,0.4,0.2,0.4,0.4c0,0.2-0.2,0.4-0.4,0.4c-0.2,0-0.4-0.2-0.4-0.4
		C23.1,20.4,23.3,20.2,23.5,20.2L23.5,20.2z M25.5,20.8c0.3,0,0.5,0.2,0.5,0.5c0,0.3-0.2,0.5-0.5,0.5c-0.3,0-0.5-0.2-0.5-0.5
		C25,21,25.3,20.8,25.5,20.8L25.5,20.8z M27.5,21.3c0.3,0,0.5,0.2,0.5,0.5c0,0.3-0.2,0.5-0.5,0.5c-0.3,0-0.5-0.2-0.5-0.5
		C27,21.5,27.2,21.3,27.5,21.3L27.5,21.3z M29.6,21.9c0.3,0,0.6,0.3,0.6,0.6c0,0.3-0.3,0.6-0.6,0.6c-0.3,0-0.6-0.3-0.6-0.6
		C29,22.1,29.2,21.9,29.6,21.9L29.6,21.9z M31.6,22.4c0.4,0,0.6,0.3,0.6,0.6c0,0.4-0.3,0.6-0.6,0.6c-0.4,0-0.6-0.3-0.6-0.6
		C30.9,22.7,31.2,22.4,31.6,22.4L31.6,22.4z M21.9,18.8c0.2,0,0.3,0.1,0.3,0.3c0,0.2-0.1,0.3-0.3,0.3s-0.3-0.1-0.3-0.3
		C21.6,18.9,21.8,18.8,21.9,18.8L21.9,18.8z M24.1,19.1c0.2,0,0.4,0.2,0.4,0.4c0,0.2-0.2,0.4-0.4,0.4c-0.2,0-0.4-0.2-0.4-0.4
		C23.8,19.3,23.9,19.1,24.1,19.1L24.1,19.1z M26.3,19.4c0.2,0,0.4,0.2,0.4,0.4c0,0.2-0.2,0.4-0.4,0.4c-0.2,0-0.4-0.2-0.4-0.4
		C25.9,19.6,26.1,19.4,26.3,19.4L26.3,19.4z M28.5,19.7c0.3,0,0.5,0.2,0.5,0.5c0,0.3-0.2,0.5-0.5,0.5c-0.3,0-0.5-0.2-0.5-0.5
		C28,20,28.3,19.7,28.5,19.7L28.5,19.7z M30.7,20.1c0.3,0,0.5,0.2,0.5,0.5c0,0.3-0.2,0.5-0.5,0.5c-0.3,0-0.5-0.2-0.5-0.5
		C30.2,20.3,30.4,20.1,30.7,20.1L30.7,20.1z M32.9,20.4c0.3,0,0.6,0.3,0.6,0.6c0,0.3-0.3,0.6-0.6,0.6c-0.3,0-0.6-0.3-0.6-0.6
		C32.3,20.6,32.6,20.4,32.9,20.4L32.9,20.4z M35.1,20.7c0.4,0,0.6,0.3,0.6,0.6S35.5,22,35.1,22c-0.4,0-0.6-0.3-0.6-0.6
		S34.8,20.7,35.1,20.7L35.1,20.7z"/>
</g>
</svg>
