<?xml version="1.0" encoding="utf-8"?>
<svg xmlns="http://www.w3.org/2000/svg" width="64" height="64">
<style type="text/css">
	.st0{fill-rule:evenodd;clip-rule:evenodd;}
</style>
<g fill="#7E8895">
	<path class="st0" d="M30,1c16,0,29,13,29,29S46,59,30,59C14,59,1,46,1,30S14,1,30,1L30,1z M30,2.4c15.2,0,27.6,12.3,27.6,27.6
		S45.2,57.6,30,57.6C14.8,57.6,2.5,45.2,2.5,30S14.8,2.4,30,2.4L30,2.4z"/>
</g>
<g fill="#7E8895">
	<path class="st0" d="M47.9,10.4c0.2,0.2,0.4,0.4,0.6,0.6c-2.1,2-5.1,5.8-4.9,7.7c3.4-0.3,6.8-0.5,10.2-0.7c1.4,2.8,2.3,5.8,2.7,9.1
		c-5.8-0.2-11.6-0.5-17.5-0.8c0.4,1.8,0.5,2.6,1.1,3.2c-0.1-0.3-0.1-0.6-0.1-0.9c0-0.6,0.2-1.2,0.5-1.6l0.5,0
		c-0.3,0.4-0.5,0.9-0.5,1.4c0,0.6,0.2,1.2,0.6,1.6c0.4,0.1,0.8,0.2,1.4,0.4c0.5,0.1,1,0.2,1.5,0.3c0.9-0.4,1.5-1.3,1.5-2.3
		c0-0.5-0.1-0.9-0.3-1.2l0.5,0c0.2,0.4,0.3,0.9,0.3,1.4c0,0.9-0.4,1.7-1,2.3c0.7,0.1,1.4,0.2,2.2,0.3c-0.5-0.5-0.8-1.2-0.8-2
		c0-0.7,0.2-1.3,0.6-1.9l0.5,0c-0.4,0.4-0.6,1-0.6,1.7c0,1,0.6,1.9,1.5,2.3l1.5,0.1c1.1-0.2,2-1.2,2-2.4c0-0.6-0.2-1.1-0.5-1.5
		l0.5,0c0.3,0.5,0.5,1,0.5,1.6c0,1-0.5,1.8-1.2,2.4c0.2,0,0.5,0,0.7,0.1c1.7,0.2,2.2,0.8,3.4,1.5c0.4,0.1,0.8,0.1,1.2,0.1
		c-0.2,1.8-0.7,3.6-1.2,5.2c-4.1-0.2-8.3-0.5-12.6-0.9c-2.5-0.2-4.7,1.8-5.9,4.9c2.6-3.5,4.1-4.1,6.2-4c4,0.4,8,0.6,12,0.7
		c-0.6,1.5-1.3,3-2.2,4.3c-0.7,0-1.4,0-2.1-0.1c0.7,0.1,1.3,0.1,2,0.2c-1,1.6-2.2,3.1-3.5,4.4c-1.7,0-3.3,0-5-0.1
		c-0.3,1.8-0.7,2.9-1.8,2.8L34,50.6c-2.3-0.1-2.3-7.6-2.2-11.5c0-1.8,0.1-3.5,0.2-5.2c0-3,0.2-6,0.3-8.9c0-0.5,0.4-0.9,0.9-1.1
		c2.6-0.9,5.1-1.8,7.1-3.3c-2.7,0-5-1.5-5-2.4c0.4-1.3,2.9-2.1,5.8-1.7c0.5,0.1,0.5,0.4,0.4,0.6c-0.4,0.7,0.1,1.2,0.6,1.5
		C43.8,15.4,44.9,12.8,47.9,10.4L47.9,10.4z M8.9,15.5c0.2-0.3,0.3-0.5,0.5-0.7l2.7,0.9l2.1,1.2l0.1-0.2l0.2,0.1L14,18l-0.2-0.1
		l0.1-0.2l-2-1.2L8.9,15.5L8.9,15.5z M42.1,19.7c2.5,2.1,5.3,3.8,8.7,5.2C48.2,22.7,45.3,21,42.1,19.7L42.1,19.7z M17.3,20.8
		c0,0,0.1,0,0.1,0l1.4-2.6c0,0,0-0.1,0-0.1l0,0c0,0-0.1,0-0.1,0l0,0l-3-1.6l-0.8,0l-1,1.8l0.4,0.7l2.9,1.7
		C17.3,20.7,17.3,20.8,17.3,20.8L17.3,20.8L17.3,20.8z M19.5,18.3c-0.3-0.1-0.4,0.4-0.1,0.5l0.5,0.1c0.3,0.1,0.4-0.4,0.1-0.5
		L19.5,18.3L19.5,18.3z M29.1,33c0.2,0.2,0.6-0.1,0.4-0.3l0,0l-0.3-0.4c-0.2-0.2-0.6,0.1-0.4,0.3l0,0L29.1,33L29.1,33z M27.8,31.6
		c0.2,0.2,0.6-0.1,0.4-0.3l0,0l-0.3-0.4c-0.2-0.2-0.6,0.1-0.4,0.3l0,0L27.8,31.6L27.8,31.6z M26.4,30.1c0.2,0.2,0.6-0.1,0.4-0.3l0,0
		l-0.3-0.4c-0.2-0.2-0.6,0.1-0.4,0.3l0,0L26.4,30.1L26.4,30.1z M25.1,28.7c0.2,0.2,0.6-0.1,0.4-0.3l0,0L25.1,28
		c-0.2-0.2-0.6,0.1-0.4,0.3l0,0L25.1,28.7L25.1,28.7z M23.7,27.3c0.2,0.2,0.6-0.1,0.4-0.3l0,0l-0.3-0.4c-0.2-0.2-0.6,0.1-0.4,0.3
		l0,0L23.7,27.3L23.7,27.3z M22.4,25.8c0.2,0.2,0.6-0.1,0.4-0.3l0,0l-0.3-0.4c-0.2-0.2-0.6,0.1-0.4,0.3l0,0L22.4,25.8L22.4,25.8z
		 M21,24.4c0.2,0.2,0.6-0.1,0.4-0.3l0,0l-0.3-0.4c-0.2-0.2-0.6,0.1-0.4,0.3l0,0L21,24.4L21,24.4z M19.7,22.9
		c0.2,0.2,0.6-0.1,0.4-0.3l0,0l-0.3-0.4c-0.2-0.2-0.6,0.1-0.4,0.3l0,0L19.7,22.9L19.7,22.9z M18.3,21.5c0.2,0.2,0.6-0.1,0.4-0.3l0,0
		l-0.3-0.4c-0.2-0.2-0.6,0.1-0.4,0.3l0,0L18.3,21.5L18.3,21.5z M29.9,29.1c0.3,0.2,0.6-0.2,0.3-0.4l-0.4-0.3
		c-0.3-0.2-0.6,0.2-0.3,0.4L29.9,29.1L29.9,29.1z M28.4,27.9c0.3,0.2,0.6-0.2,0.3-0.4l-0.4-0.3C28,27,27.7,27.4,28,27.6L28.4,27.9
		L28.4,27.9z M26.8,26.7c0.3,0.2,0.6-0.2,0.3-0.4l-0.4-0.3c-0.3-0.2-0.6,0.2-0.3,0.4L26.8,26.7L26.8,26.7z M25.2,25.6
		c0.3,0.2,0.6-0.2,0.3-0.4l-0.4-0.3c-0.3-0.2-0.6,0.2-0.3,0.4L25.2,25.6L25.2,25.6z M23.6,24.4c0.3,0.2,0.6-0.2,0.3-0.4l-0.4-0.3
		c-0.3-0.2-0.6,0.2-0.3,0.4L23.6,24.4L23.6,24.4z M22,23.2c0.3,0.2,0.6-0.2,0.3-0.4l-0.4-0.3c-0.3-0.2-0.6,0.2-0.3,0.4L22,23.2
		L22,23.2z M20.4,22c0.3,0.2,0.6-0.2,0.3-0.4l-0.4-0.3c-0.3-0.2-0.6,0.2-0.3,0.4L20.4,22L20.4,22z M18.8,20.9
		c0.3,0.2,0.6-0.2,0.3-0.4l-0.4-0.3c-0.3-0.2-0.6,0.2-0.3,0.4L18.8,20.9L18.8,20.9z M29.8,25.6c0.4,0.1,0.5-0.3,0.2-0.4l-0.4-0.2
		c-0.4-0.1-0.5,0.3-0.2,0.4L29.8,25.6L29.8,25.6z M28.1,24.7c0.4,0.1,0.5-0.3,0.2-0.4L27.9,24c-0.4-0.1-0.5,0.3-0.2,0.4L28.1,24.7
		L28.1,24.7z M26.3,23.8c0.4,0.1,0.5-0.3,0.2-0.4l-0.4-0.2c-0.4-0.1-0.5,0.3-0.2,0.4L26.3,23.8L26.3,23.8z M24.5,22.9
		c0.4,0.1,0.5-0.3,0.2-0.4l-0.4-0.2c-0.4-0.1-0.5,0.3-0.2,0.4L24.5,22.9L24.5,22.9z M22.8,22c0.4,0.1,0.5-0.3,0.2-0.4l-0.4-0.2
		c-0.4-0.1-0.5,0.3-0.2,0.4L22.8,22L22.8,22z M21,21.1c0.4,0.1,0.5-0.3,0.2-0.4l-0.4-0.2c-0.4-0.1-0.5,0.3-0.2,0.4L21,21.1L21,21.1z
		 M19.2,20.2c0.4,0.1,0.5-0.3,0.2-0.4L19,19.5c-0.4-0.1-0.5,0.3-0.2,0.4L19.2,20.2L19.2,20.2z M31,23.1c0.3,0.1,0.5-0.3,0.2-0.5l0,0
		l-0.5-0.1c0,0-0.1,0-0.2,0c-0.2,0.1-0.2,0.4,0,0.5L31,23.1L31,23.1z M29.1,22.5c0.3,0.1,0.5-0.3,0.2-0.5l0,0l-0.5-0.1l0,0
		c-0.3-0.1-0.4,0.4-0.1,0.5L29.1,22.5L29.1,22.5z M27.2,21.9c0.1,0,0.1,0,0.2,0c0.2-0.1,0.2-0.4,0-0.5l-0.5-0.1
		c-0.1,0-0.2,0-0.3,0.1c-0.1,0.1,0,0.3,0.1,0.4L27.2,21.9L27.2,21.9z M25.3,21.3c0.1,0,0.2,0,0.3-0.1c0.1-0.1,0-0.3-0.1-0.4L25,20.7
		c-0.1,0-0.2,0-0.3,0.1c-0.1,0.1,0,0.3,0.1,0.4L25.3,21.3L25.3,21.3z M23.4,20.7c0.1,0,0.2,0,0.3-0.1c0.1-0.1,0-0.3-0.1-0.4
		l-0.5-0.1c-0.1,0-0.2,0-0.3,0.1c-0.1,0.1,0,0.3,0.1,0.4L23.4,20.7L23.4,20.7z M21.5,20.1c0.1,0,0.2,0,0.3-0.1
		c0.1-0.1,0-0.3-0.1-0.4l-0.5-0.1c-0.1,0-0.2,0-0.3,0.1c-0.1,0.1,0,0.3,0.1,0.4L21.5,20.1L21.5,20.1z M19.6,19.5
		c0.1,0,0.2,0,0.3-0.1c0.1-0.1,0-0.3-0.1-0.4l-0.5-0.1c-0.1,0-0.2,0-0.3,0.1c-0.1,0.1,0,0.3,0.1,0.4L19.6,19.5L19.6,19.5z
		 M35.1,21.5c0.3,0.1,0.4-0.4,0.1-0.5l-0.1,0c-0.3-0.1-0.4,0.4-0.1,0.5L35.1,21.5L35.1,21.5z M33.5,21.2c0.3,0.1,0.4-0.4,0.1-0.5
		l-0.5-0.1c-0.3-0.1-0.4,0.4-0.1,0.5L33.5,21.2L33.5,21.2z M31.6,20.9c0.3,0.1,0.4-0.4,0.1-0.5l-0.5-0.1c-0.3-0.1-0.4,0.4-0.1,0.5
		L31.6,20.9L31.6,20.9z M29.6,20.6c0.3,0.1,0.4-0.4,0.1-0.5L29.2,20c-0.3-0.1-0.4,0.4-0.1,0.5L29.6,20.6L29.6,20.6z M27.7,20.2
		c0.3,0.1,0.4-0.4,0.1-0.5l-0.5-0.1c-0.3-0.1-0.4,0.4-0.1,0.5L27.7,20.2L27.7,20.2z M25.7,19.9c0.3,0.1,0.4-0.4,0.1-0.5l-0.5-0.1
		c-0.3-0.1-0.4,0.4-0.1,0.5L25.7,19.9L25.7,19.9z M23.8,19.6c0.3,0.1,0.4-0.4,0.1-0.5L23.4,19c-0.3-0.1-0.4,0.4-0.1,0.5L23.8,19.6
		L23.8,19.6z M21.8,19.2c0.3,0.1,0.4-0.4,0.1-0.5l-0.5-0.1c-0.3-0.1-0.4,0.4-0.1,0.5L21.8,19.2L21.8,19.2z M39.3,14
		c-0.9,0-1.3-0.8-1.2-1.5c0.2-0.8,1.1-1.8,1.2-2.6c0.1,0.8,1,1.8,1.2,2.6C40.7,13.2,40.3,14,39.3,14L39.3,14z M35.3,13.4
		c-1.3,0-1.8-1.1-1.6-2c0.2-1.1,1.4-2.4,1.6-3.5c0.2,1.1,1.4,2.4,1.6,3.5C37.1,12.3,36.6,13.4,35.3,13.4L35.3,13.4z M31.9,15.3
		c-0.8,0-1.1-0.7-1-1.2c0.1-0.7,0.9-1.5,1-2.1c0.1,0.7,0.8,1.5,1,2.1C33,14.6,32.7,15.3,31.9,15.3L31.9,15.3z"/>
</g>
</svg>
