<?xml version="1.0" encoding="utf-8"?>
<svg xmlns="http://www.w3.org/2000/svg" width="64" height="64">
<style type="text/css">
	.st0{fill-rule:evenodd;clip-rule:evenodd;}
</style>
<g fill="#7E8895">
	<path class="st0" d="M30,1c16,0,29,13,29,29S46,59,30,59C14,59,1,46,1,30S14,1,30,1L30,1z M30,2.4c15.2,0,27.6,12.3,27.6,27.6
		S45.2,57.6,30,57.6C14.8,57.6,2.5,45.2,2.5,30S14.8,2.4,30,2.4L30,2.4z"/>
</g>
<g fill="#7E8895">
	<path class="st0" d="M17.1,20.8c0,0,0.1,0,0.1,0l1.4-2.6c0,0,0-0.1,0-0.1l0,0c0,0-0.1,0-0.1,0l0,0l-3-1.6l-0.8,0l-1,1.8l0.4,0.7
		l2.9,1.7C17,20.7,17,20.8,17.1,20.8L17.1,20.8L17.1,20.8z M47.7,10.4c0.2,0.2,0.4,0.4,0.6,0.6c-2.1,2-5.1,5.8-4.9,7.7
		c3.4-0.3,6.8-0.5,10.2-0.7c1.4,2.8,2.3,5.8,2.7,9.1c-5.8-0.2-11.6-0.5-17.5-0.8c0.4,1.8,0.5,2.6,1.1,3.2c-0.1-0.3-0.1-0.6-0.1-0.9
		c0-0.6,0.2-1.2,0.5-1.6l0.5,0c-0.3,0.4-0.5,0.9-0.5,1.4c0,0.6,0.2,1.2,0.6,1.6c0.4,0.1,0.8,0.2,1.4,0.4c0.5,0.1,1,0.2,1.5,0.3
		c0.9-0.4,1.5-1.3,1.5-2.3c0-0.5-0.1-0.9-0.3-1.2l0.5,0c0.2,0.4,0.3,0.9,0.3,1.4c0,0.9-0.4,1.7-1,2.3c0.7,0.1,1.4,0.2,2.2,0.3
		c-0.5-0.5-0.8-1.2-0.8-2c0-0.7,0.2-1.3,0.6-1.9l0.5,0c-0.4,0.4-0.6,1-0.6,1.7c0,1,0.6,1.9,1.5,2.3l1.5,0.1c1.1-0.2,2-1.2,2-2.4
		c0-0.6-0.2-1.1-0.5-1.5l0.5,0c0.3,0.5,0.5,1,0.5,1.6c0,1-0.5,1.8-1.2,2.4c0.2,0,0.5,0,0.7,0.1c1.7,0.2,2.2,0.8,3.4,1.5
		c0.4,0.1,0.8,0.1,1.2,0.1c-0.2,1.8-0.7,3.6-1.2,5.2c-4.1-0.2-8.3-0.5-12.6-0.9c-2.5-0.2-4.7,1.8-5.9,4.9c2.6-3.5,4.1-4.1,6.2-4
		c4,0.4,8,0.6,12,0.7c-0.6,1.5-1.3,3-2.2,4.3c-0.7,0-1.4,0-2.1-0.1c0.7,0.1,1.3,0.1,2,0.2c-1,1.6-2.2,3.1-3.5,4.4
		c-1.7,0-3.3,0-5-0.1c-0.3,1.8-0.7,2.9-1.8,2.8l-8.3-0.3c-2.3-0.1-2.3-7.6-2.2-11.5c0-1.8,0.1-3.5,0.2-5.2c0-3,0.2-6,0.3-8.9
		c0-0.5,0.4-0.9,0.9-1.1c2.6-0.9,5.1-1.8,7.1-3.3c-2.7,0-5-1.5-5-2.4c0.4-1.3,2.9-2.1,5.8-1.7c0.5,0.1,0.5,0.4,0.4,0.6
		c-0.4,0.7,0.1,1.2,0.6,1.5C43.5,15.4,44.6,12.8,47.7,10.4L47.7,10.4z M8.7,15.5C8.9,15.2,9,15,9.2,14.7l2.7,0.9l2.1,1.2l0.1-0.2
		l0.2,0.1L13.7,18l-0.2-0.1l0.1-0.2l-2-1.2L8.7,15.5L8.7,15.5z M19.3,18.3c-0.3-0.1-0.4,0.4-0.1,0.5l2.4,0.4
		c0.3,0.1,0.4-0.4,0.1-0.5L19.3,18.3L19.3,18.3z M29.6,33.8c0.2,0.2,0.6-0.1,0.4-0.3l0,0l-1.7-1.8c-0.2-0.2-0.6,0.1-0.4,0.3l0,0
		L29.6,33.8L29.6,33.8z M26.2,30.1c0.2,0.2,0.6-0.1,0.4-0.3l0,0L24.9,28c-0.2-0.2-0.6,0.1-0.4,0.3l0,0L26.2,30.1L26.2,30.1z
		 M22.8,26.5c0.2,0.2,0.6-0.1,0.4-0.3l0,0l-1.7-1.8c-0.2-0.2-0.6,0.1-0.4,0.3l0,0L22.8,26.5L22.8,26.5z M19.5,22.9
		c0.2,0.2,0.6-0.1,0.4-0.3l0,0l-1.7-1.8c-0.2-0.2-0.6,0.1-0.4,0.3l0,0L19.5,22.9L19.5,22.9z M28.1,27.9c0.3,0.2,0.6-0.2,0.3-0.4
		l-2-1.5c-0.3-0.2-0.6,0.2-0.3,0.4L28.1,27.9L28.1,27.9z M24.2,25c0.3,0.2,0.6-0.2,0.3-0.4l-2-1.5c-0.3-0.2-0.6,0.2-0.3,0.4L24.2,25
		L24.2,25z M20.2,22c0.3,0.2,0.6-0.2,0.3-0.4l-2-1.5c-0.3-0.2-0.6,0.2-0.3,0.4L20.2,22L20.2,22z M29.6,25.6c0.4,0.1,0.5-0.3,0.2-0.4
		L27.6,24c-0.4-0.1-0.5,0.3-0.2,0.4L29.6,25.6L29.6,25.6z M25.2,23.3c0.4,0.1,0.5-0.3,0.2-0.4l-2.2-1.1c-0.4-0.1-0.5,0.3-0.2,0.4
		L25.2,23.3L25.2,23.3z M20.8,21.1c0.4,0.1,0.5-0.3,0.2-0.4l-2.2-1.1c-0.4-0.1-0.5,0.3-0.2,0.4L20.8,21.1L20.8,21.1z M30.7,23.1
		c0.3,0.1,0.5-0.3,0.2-0.5l0,0l-2.4-0.7c-0.3-0.1-0.5,0.3-0.2,0.5l0,0L30.7,23.1L30.7,23.1z M26,21.6c0.3,0.1,0.5-0.3,0.1-0.5
		l-2.4-0.7c-0.3-0.1-0.5,0.3-0.1,0.5L26,21.6L26,21.6z M21.3,20.1c0.3,0.1,0.5-0.3,0.1-0.5l-2.4-0.7c-0.3-0.1-0.5,0.3-0.1,0.5
		L21.3,20.1L21.3,20.1z M34.9,21.5c0.3,0.1,0.4-0.4,0.1-0.5l-1.1-0.2c-0.3-0.1-0.4,0.4-0.1,0.5L34.9,21.5L34.9,21.5z M31.4,20.9
		c0.3,0.1,0.4-0.4,0.1-0.5L29,20c-0.3-0.1-0.4,0.4-0.1,0.5L31.4,20.9L31.4,20.9z M26.5,20.1c0.3,0.1,0.4-0.4,0.1-0.5l-2.4-0.4
		c-0.3-0.1-0.4,0.4-0.1,0.5L26.5,20.1L26.5,20.1z M41.8,19.7c2.5,2.1,5.3,3.8,8.7,5.2C47.9,22.7,45.1,21,41.8,19.7L41.8,19.7z
		 M27.1,6.6l0.3,3.5l3.1,0.4l-3.1,0.4l-0.3,3.5l-0.3-3.5l-3.1-0.4l3.1-0.4L27.1,6.6L27.1,6.6z M40.3,8.9l0.3,2.8l2.6,0.3l-2.6,0.3
		l-0.3,2.8l-0.3-2.8l-2.6-0.3l2.6-0.3L40.3,8.9L40.3,8.9z M33.5,8.5l0.5,4.8l4.4,0.5L34,14.4l-0.5,4.8l-0.5-4.8l-4.4-0.5l4.4-0.5
		L33.5,8.5L33.5,8.5z"/>
</g>
</svg>
