<svg xmlns="http://www.w3.org/2000/svg" width="64" height="64"><g fill="#ED1C24"><path d="M17.789 56.01H7.588v-9.03h7.389c.582 0 1.055-.473 1.055-1.057V30.392c0-.584-.473-1.057-1.055-1.057H7.588v-7.15h17.166v1.869c0 .585.473 1.058 1.055 1.058s1.055-.473 1.055-1.058v-2.926c0-.352-.172-.68-.463-.876l-5.963-4.054V9.29c0-.583-.473-1.057-1.055-1.057h-6.426c-.582 0-1.055.474-1.055 1.057v6.909l-5.963 4.054a1.058 1.058 0 0 0-.463.876v35.938c0 .582.473 1.056 1.055 1.056h11.258a1.057 1.057 0 0 0 0-2.113zM13.92 31.449v13.418H7.588V31.449h6.332zm-.639-13.633h5.777l3.316 2.254H9.965l3.316-2.254zm.733-7.47h4.314v5.356h-4.314v-5.356z"/><path d="M36.502 26.521h-15.76c-.582 0-1.055.473-1.055 1.057v32.274c0 .584.473 1.057 1.055 1.057h15.76c.584 0 1.055-.473 1.055-1.057V27.578c0-.584-.471-1.057-1.055-1.057zm-1.055 6.2h-1.266v-4.087h1.266v4.087zm-10.271 0v-4.087h2.393v4.087h-2.393zm4.502-4.087h2.393v4.087h-2.393v-4.087zm-6.614 0v4.087h-1.266v-4.087h1.266zm-1.265 30.16V34.836h13.648v23.958H21.799z"/><path d="M57.467 8.341H38.121L36.74 3.838a1.053 1.053 0 0 0-1.318-.699L30.18 4.751a1.055 1.055 0 0 0-.74.91c-.039.426.18.834.557 1.034l5.59 2.967-4.473 4.481a1.061 1.061 0 0 0-.311.747v9.447a1.057 1.057 0 0 0 2.112 0v-9.009l4.863-4.873h18.635v37.77H54.09a1.058 1.058 0 1 0 0 2.116h3.377c.584 0 1.057-.475 1.057-1.059V9.398a1.057 1.057 0 0 0-1.057-1.057zM33.236 6.022l1.797-.552.551 1.799-2.348-1.247z"/><path d="M48.484 38.245V35.47c0-.583-.471-1.056-1.055-1.056h-3.705c-.582 0-1.055.473-1.055 1.056v2.775l-3.361 3.069a1.053 1.053 0 0 0-.344.78v14.797c0 .584.471 1.058 1.055 1.058h11.115c.584 0 1.057-.474 1.057-1.058V42.095c0-.298-.125-.581-.344-.78l-3.363-3.07zm-4.351 1.525h2.889l1.389 1.268h-5.666l1.388-1.268zm.646-3.242h1.596v1.126h-1.596v-1.126zm-3.705 19.308V43.151h9.006v12.685h-9.006zm-8.23-14.427H24.4c-.582 0-1.055.473-1.055 1.058v8.879c0 .584.473 1.057 1.055 1.057h8.443c.584 0 1.057-.473 1.057-1.057v-8.879c0-.585-.472-1.058-1.056-1.058zm-1.055 8.88h-6.332v-6.767h6.332v6.767z"/></g></svg>