<?xml version="1.0" encoding="utf-8"?>
<svg xmlns="http://www.w3.org/2000/svg" width="64" height="64">
<g fill="#e2001a">
<path d="M0 0v18.75h2.5V2.5h55V40h-35v2.5H60V0z"/>
<path d="M12.5 20c3.505 0 6.25-2.902 6.25-6.606v-1.787C18.75 7.902 16.005 5 12.5 5s-6.25 2.902-6.25 6.606v1.787C6.25 17.098 8.995 20 12.5 20zm-3.75-8.394c0-2.303 1.647-4.106 3.75-4.106s3.75 1.804 3.75 4.106v1.787c0 2.303-1.647 4.106-3.75 4.106s-3.75-1.804-3.75-4.106v-1.787zM32.5 22.5v-1.25h-25C2.243 21.25 0 23.867 0 30v8.75C0 42.605 1.916 45 5 45v12.5h2.5V30H5v12.5c-2.175 0-2.5-2.35-2.5-3.75V30c0-5.314 1.612-6.25 5-6.25h22.389c-.346 1.719-1.507 2.5-3.639 2.5H17.5V57.5H20V28.75h6.25c3.972 0 6.25-2.278 6.25-6.25z"/>
<path d="M11.25 40h2.5v17.5h-2.5zm18.191-9.507l8.75 4.375a1.251 1.251 0 0 0 1.118 0l12.5-6.25A1.25 1.25 0 0 0 52.5 27.5V13.75a1.25 1.25 0 0 0-.691-1.118l-12.5-6.25a1.248 1.248 0 0 0-1.117 0l-12.5 6.25A1.25 1.25 0 0 0 25 13.75V20h2.5v-5.478l11.25-5.625L50 14.522v12.205l-11.25 5.625-8.191-4.096-1.118 2.237z"/>
<path d="M40 30v-9.228l8.062-4.031-1.117-2.236-8.195 4.098-8.195-4.098-1.117 2.236 8.062 4.031V30z"/>
</g>
</svg>