<?xml version="1.0" encoding="utf-8"?>
<svg xmlns="http://www.w3.org/2000/svg" width="64" height="64">
<g fill="#e2001a">
	<polygon points="33.3,37.1 28.2,37.1 28.2,39.6 30.7,39.6 30.7,48.5 28.2,48.5 28.2,51.1 35.8,51.1 35.8,48.5 
		33.3,48.5 	"/>
	<path class="st0" d="M39.6,28.7v-6.4L54.9,1.5H39L24.4,21.4v7.2c-6,2.9-10.2,9-10.2,16.1c0,9.8,8,17.8,17.8,17.8s17.8-8,17.8-17.8
		C49.8,37.6,45.6,31.5,39.6,28.7z M40.3,4h9.6L37.1,21.4v0.4h-9.9L40.3,4z M26.9,24.4h10.2v3.3c-1.6-0.5-3.3-0.7-5.1-0.7
		c-1.8,0-3.5,0.3-5.1,0.7V24.4z M32,60c-8.4,0-15.3-6.8-15.3-15.3S23.6,29.5,32,29.5s15.3,6.8,15.3,15.3S40.4,60,32,60z"/>
	<polygon points="24.1,17.3 14.2,4 23.7,4 28.4,11.1 30.5,9.7 25.1,1.5 9.1,1.5 22.1,18.8 	"/>
</g>
</svg>
